<?xml version="1.0" encoding="utf-8"?>
<!-- Generator: Adobe Illustrator 23.0.2, SVG Export Plug-In . SVG Version: 6.00 Build 0)  -->
<svg version="1.1" id="Layer_1" xmlns="http://www.w3.org/2000/svg" xmlns:xlink="http://www.w3.org/1999/xlink" x="0px" y="0px"
	 viewBox="0 0 93.7 26.2" style="enable-background:new 0 0 93.7 26.2;" xml:space="preserve">
<style type="text/css">
	.st0{fill:#FEFEFE;}
	.st1{fill:#E5E5E5;}
	.st2{fill:#DDDEDE;}
	.st3{fill:#E9E9E9;}
	.st4{fill:#E3E3E3;}
	.st5{fill:#EAEAEA;}
	.st6{fill:#99999A;}
	.st7{fill:#919394;}
	.st8{fill:#676362;}
	.st9{fill:#DFE2E4;}
	.st10{fill:#BFC0C2;}
	.st11{fill:#AFB0B1;}
	.st12{fill:#858382;}
	.st13{fill:#928F8E;}
	.st14{fill:#7D7A79;}
	.st15{fill:#8F9096;}
	.st16{fill:#828080;}
	.st17{fill:#676160;}
	.st18{fill:#E7E9EA;}
	.st19{fill:#7F7978;}
	.st20{fill:#AEAEAF;}
	.st21{fill:#7C7978;}
	.st22{fill:#ADB9CC;}
	.st23{fill:#9F9D9C;}
	.st24{fill:#A7A6A6;}
	.st25{fill:#969392;}
	.st26{fill:#A5A3A3;}
	.st27{fill:#827F7E;}
	.st28{fill:#6F6C6B;}
	.st29{fill:#818182;}
	.st30{fill:#797979;}
	.st31{fill:#7B7979;}
	.st32{fill:#787575;}
	.st33{fill:#A5A8AA;}
	.st34{fill:#8C8C8D;}
	.st35{fill:#777474;}
	.st36{fill:#A9AAAC;}
	.st37{fill:#E9EAEA;}
	.st38{fill:#514C4A;}
	.st39{fill:#BBBCBF;}
	.st40{fill:#736F6D;}
	.st41{fill:#B3B5B8;}
	.st42{fill:#B5B7B9;}
	.st43{fill:#969799;}
	.st44{fill:#9C9E9F;}
	.st45{fill:#ABADAF;}
	.st46{fill:#D0D1D2;}
	.st47{fill:#ADAFB2;}
	.st48{fill:#8D8F90;}
	.st49{fill:#999A9B;}
	.st50{fill:#8F9192;}
	.st51{fill:#9C9D9F;}
	.st52{fill:#B8BABD;}
	.st53{fill:#B7B8BA;}
	.st54{fill:#C7C8CA;}
	.st55{fill:#716D6C;}
	.st56{fill:#706C6B;}
	.st57{fill:#CDCDCD;}
	.st58{fill:#BBBCBE;}
	.st59{fill:#E4E6E8;}
	.st60{fill:#DFE0E2;}
	.st61{fill:#ACAEB0;}
	.st62{fill:#B3B4B7;}
	.st63{fill:#CECFD0;}
	.st64{fill:#C4C6C8;}
	.st65{fill:#696260;}
	.st66{fill:#B1B2B5;}
	.st67{fill:#E7E9EF;}
	.st68{fill:#CFCECE;}
	.st69{fill:#E7E8E8;}
	.st70{fill:#EFEFF0;}
	.st71{fill:#979899;}
	.st72{fill:#605C5B;}
	.st73{fill:#B1B3B6;}
	.st74{fill:#909192;}
	.st75{fill:#085FAD;}
	.st76{fill:#ABADAE;}
	.st77{fill:#E4E4E5;}
	.st78{fill:#4479BA;}
	.st79{fill:#FDFDFD;}
	.st80{fill:#196AB3;}
	.st81{fill:#6A6563;}
	.st82{fill:#CBCED0;}
	.st83{fill:#6F6B69;}
	.st84{fill:#C2C3C5;}
	.st85{fill:#D3D4D6;}
	.st86{fill:#CDCED0;}
	.st87{fill:#98999A;}
	.st88{fill:#BEC0C2;}
	.st89{fill:#7D7D7D;}
	.st90{fill:#ACAFB2;}
	.st91{fill:#B6B8BA;}
	.st92{fill:#A6A9AC;}
	.st93{fill:#C5C6C8;}
	.st94{fill:#D1D2D3;}
	.st95{fill:#ECEDEE;}
	.st96{fill:#9D9C9D;}
	.st97{fill:#D6D7D8;}
	.st98{fill:#AAADB0;}
	.st99{fill:#A4A6A8;}
	.st100{fill:#BDBFC1;}
	.st101{fill:#BBBDBF;}
	.st102{fill:#A2A4A6;}
	.st103{fill:#D0D1D3;}
	.st104{fill:#9EA1A3;}
	.st105{fill:#9EA1A4;}
	.st106{fill:#A4A4A6;}
	.st107{fill:#BEBFC1;}
	.st108{fill:#A2A5A8;}
	.st109{fill:#C4C5C7;}
	.st110{fill:#8C8E8F;}
	.st111{fill:#9F9E9E;}
	.st112{fill:#8D8E8F;}
	.st113{fill:#A3A6A9;}
	.st114{fill:#858688;}
	.st115{fill:#A7A9AA;}
	.st116{fill:#97989A;}
	.st117{fill:#C1C2C3;}
	.st118{fill:#DDDFE0;}
	.st119{fill:#B9B8B8;}
	.st120{fill:#A9ABAD;}
	.st121{fill:#9C9A9B;}
	.st122{fill:#B5B6B9;}
	.st123{fill:#AEB1B4;}
	.st124{fill:#7F7F7F;}
	.st125{fill:#EFF0F0;}
	.st126{fill:#B0B2B4;}
	.st127{fill:#C0C2C3;}
	.st128{fill:#98999D;}
	.st129{fill:#55799E;}
	.st130{fill:#577592;}
	.st131{fill:#898F98;}
	.st132{fill:#025DAC;}
	.st133{fill:#A9ABAF;}
	.st134{fill:#286297;}
	.st135{fill:#808184;}
	.st136{fill:#CECDCD;}
	.st137{fill:#A6A8AB;}
	.st138{fill:#343233;}
	.st139{fill:#999CA0;}
	.st140{fill:#D2D1D1;}
	.st141{fill:#ACACAE;}
	.st142{fill:#8D8A89;}
	.st143{fill:#0760AD;}
	.st144{fill:#C0C1C3;}
	.st145{fill:#045EAC;}
	.st146{fill:#085FA9;}
	.st147{fill:#045EAB;}
	.st148{fill:#A8ABAE;}
	.st149{fill:#A7AAAD;}
	.st150{fill:#A1A3A4;}
	.st151{fill:#1D6CB5;}
	.st152{fill:#E3E4E5;}
	.st153{fill:#BE3C47;}
	.st154{fill:#BF3D48;}
	.st155{fill:#186AB4;}
	.st156{fill:#B90E37;}
	.st157{fill:#025EAC;}
	.st158{fill:#186BB4;}
	.st159{fill:#1466B1;}
	.st160{fill:#0660AD;}
	.st161{fill:#BE3B47;}
	.st162{fill:#BD3C47;}
	.st163{fill:#B34049;}
	.st164{fill:#B91238;}
	.st165{fill:#BA0E36;}
	.st166{fill:#1767B1;}
	.st167{fill:#1769B3;}
	.st168{fill:#BA1138;}
	.st169{fill:#0B61AE;}
	.st170{fill:#BA1238;}
	.st171{fill:#BB163A;}
	.st172{fill:#F7F2F3;}
	.st173{fill:#BA1539;}
	.st174{fill:#F7F0F0;}
	.st175{fill:#BA133A;}
	.st176{fill:#BB153B;}
	.st177{fill:#BE3C48;}
	.st178{fill:#F8F2F2;}
	.st179{fill:#BC1A3D;}
	.st180{fill:#C0404B;}
	.st181{fill:#F8F3F4;}
	.st182{fill:#BB1339;}
	.st183{fill:#BE2943;}
	.st184{fill:#F4F2F2;}
	.st185{fill:#BF3446;}
	.st186{fill:#BB183C;}
	.st187{fill:#F3ECED;}
	.st188{fill:#3A76BA;}
	.st189{fill:#BE2E42;}
	.st190{fill:#CBC6C9;}
	.st191{fill:#F9F3F4;}
	.st192{fill:#BCBEC0;}
	.st193{fill:#BD1E40;}
	.st194{fill:#B8BABC;}
	.st195{fill:#BCBDC0;}
	.st196{fill:#C12E4B;}
	.st197{fill:#BE2F46;}
	.st198{fill:#CCCDCF;}
	.st199{fill:#9C9FA2;}
	.st200{fill:#909191;}
	.st201{fill:#F5F6F6;}
	.st202{fill:#E4E6E7;}
	.st203{fill:#E5E8EA;}
	.st204{fill:#D4D8DB;}
	.st205{fill:#AAABAD;}
	.st206{fill:#9D9FA2;}
	.st207{fill:#393637;}
	.st208{fill:#696A6C;}
	.st209{fill:#1362A9;}
	.st210{fill:#999B9E;}
	.st211{fill:#D4D5D5;}
	.st212{fill:#5786C4;}
	.st213{fill:#0E5C9A;}
	.st214{fill:#8E8D8E;}
	.st215{fill:#F4F5F7;}
	.st216{fill:#E2E3E4;}
	.st217{fill:#EDEFF2;}
	.st218{fill:#DBDCDD;}
	.st219{fill:#C6C9CB;}
	.st220{fill:#1D68B0;}
	.st221{fill:#A7AFB9;}
	.st222{fill:#D3D2D2;}
	.st223{fill:#EDEEED;}
	.st224{fill:#999B9F;}
	.st225{fill:#373335;}
	.st226{fill:#EFF0EE;}
	.st227{fill:#EDF0EE;}
	.st228{fill:#AEB1B5;}
	.st229{fill:#AEB0B4;}
	.st230{fill:#FBF5F5;}
	.st231{fill:#FCFBFC;}
	.st232{fill:#F6E8E9;}
	.st233{fill:#F3E6E6;}
	.st234{fill:#8CC244;}
	.st235{fill:#D5D8D2;}
	.st236{fill:#7A7879;}
	.st237{fill:#F6F7F7;}
	.st238{fill:#6E6D6E;}
	.st239{fill:#BF3C47;}
	.st240{fill:#BD2B41;}
	.st241{fill:#C85661;}
	.st242{fill:#E9BCBE;}
	.st243{fill:#F6E7E6;}
	.st244{fill:#617B3F;}
	.st245{fill:#526831;}
	.st246{fill:#79A53F;}
	.st247{fill:#36382E;}
	.st248{fill:#35372A;}
	.st249{fill:#737172;}
</style>
<g>
	<path class="st0" d="M0,25.4"/>
	<path class="st1" d="M92.2,25.1c-0.3,0.7-1,0.7-1.5,0.6c-1.7-0.1-3.6,0-5-1.5c-0.5-0.6-1.3-0.8-2-1.3c-1.1-0.5-2.2-0.4-3.3-0.3
		c-1.3,0.2-2.5,0.2-3.8,0.2c-8.3,0-16.5,0-24.8,0c-3.9,0-7.9-0.1-11.8-0.1c-2,0-4,0.2-6,0.1c-6.8-0.2-13.7-0.2-20.5-0.2
		c-1.3,0-2.6,0.1-3.8,0.6c-1.5,0.7-2.6,2.3-4.3,2.5c-1.3,0.2-2.6,0.4-3.9-0.3c-0.1-0.4-0.4-0.8-0.3-1.3c0.4-0.4,0.7,0,0.9,0.3
		c0.3,0.5,0.7,0.6,1.2,0.5c0.8-0.2,1.8,0.3,2.5-0.4c0.7,0.2,1-0.3,1.3-0.8c0.2-0.2,0.3-0.3,0.5-0.5s0.3-0.4,0.5-0.7
		c0.1-0.1,0.2-0.2,0.4-0.2c0.8,0.3,1.6,0.2,2.3-0.1c0.3-0.1,0.5-0.2,0.8-0.3c1.8-0.1,3.5,0,5.3-0.1c0.7,0,1.5,0,2.2,0s1.3-0.2,2,0.2
		c4.1,0.1,8.1,0,12.2,0c0.9,0,1.8-0.3,2.7-0.2c0.1,0,0.3,0,0.4,0.1c2.4,0.2,4.8,0,7.2,0.1c2.1,0,4.2,0,6.3,0c7.2,0,14.3,0,21.5,0
		c2.7,0,5.4,0,8.1,0c0.4,0,0.9,0.1,1.3-0.2c0.2-0.1,0.5-0.2,0.7-0.2c0.3,0,0.6,0,0.8,0c0.4,0,0.7,0,1.1,0.2c0.8,0.4,1.5,1.1,2.4,1.3
		c0.4,0.1,0.7,0.3,0.9,0.5c0.5,1.4,1.7,1.3,2.8,1.2C90.6,24.9,91.4,24.6,92.2,25.1z"/>
	<path class="st2" d="M1.5,1.3c0.1-0.1,0.1-0.1,0.2-0.2C4,0.6,6.1,1,8,2.4c0.5,0.4,1.1,0.7,1.7,1.1c0.8,0.4,1.5,0.4,2.4,0.3
		c5.5-0.6,11-0.4,16.5-0.2c0.3,0,0.6,0,1,0c15.6,0,31.3,0,46.9,0c1.8,0,3.7,0.1,5.5,0.4c1.3,0.2,2.1-0.4,3-1.2
		c0.1-0.3,0.4-0.5,0.7-0.7c0.2,0,0.3,0.1,0.3,0.3c-0.1,0.6-0.6,0.8-0.9,1.2c-0.6,0.5-1.3,0.9-2.1,1.1C77.1,4,71.3,4.4,65.4,4.3
		c-11.8,0-23.6,0-35.5,0c-0.1,0-0.3,0-0.4,0s-0.3,0-0.4-0.1c-1.7-0.3-3.3-0.1-5-0.1c-0.7,0-1.5,0-2.2,0c-1.1,0-2.2,0-3.3,0.2
		c-2-0.4-4-0.1-6,0.2c-0.6,0.1-1.1,0.1-1.7,0.1C10,4.6,9.4,4,8.7,3.7c-0.5-0.4-1-0.6-1.6-0.9c-0.3-0.2-0.7-0.3-1-0.3
		C5.8,2.4,5.5,2.2,5.2,2.1C4.6,2,3.8,2.1,3.1,1.9C2.6,1.7,2.3,2,2.1,2.5C1.9,2.6,1.7,2.8,1.4,2.6C1.2,2.1,1.4,1.7,1.5,1.3z"/>
	<path class="st3" d="M9.8,23.2c0.8-0.5,1.7-0.6,2.6-0.6c5.9,0,11.9-0.1,17.8,0c2.2,0.1,4.4,0.3,6.6,0.1c3.5-0.3,7.1-0.3,10.6-0.1
		c10.2,0.4,20.3,0.1,30.4,0.2c1.5,0,2.9-0.3,4.4-0.2c0.6,0,1.1,0,1.6,0.4c-1.6-0.4-3.2,0-4.8,0c-16.9,0-33.7,0.1-50.6,0
		c-2.8,0-5.5-0.2-8.3-0.2C16.6,22.8,13.2,22.4,9.8,23.2z"/>
	<path class="st3" d="M85,2.8c-0.8,1.3-2.1,1.4-3.4,1.3c-1.5-0.1-2.9-0.4-4.4-0.4c-17.3,0-34.7,0-52,0c-1.3,0-2.6-0.2-3.8-0.2
		c-3.3,0.2-6.5,0-9.8,0.6C11,4.2,10.3,4,9.8,3.5c1.9,0.5,3.8,0,5.8-0.2c0.7,0,1.4-0.1,2-0.1c3.1,0,6.2-0.1,9.3,0
		C44.2,3.8,61.6,3.4,79,3.5c0.9,0,1.7,0,2.6,0.2c1.2,0.3,2.1,0,3-0.7C84.7,2.9,84.9,2.9,85,2.8z"/>
	<path class="st3" d="M1.5,1.3c0,0.4,0,0.9,0,1.3C1.9,2.9,2,3.2,2,3.6C1.8,4,1.6,4.4,1.9,4.8c0,0.4,0,0.9,0.1,1.3c0,0.5-0.1,1,0,1.5
		c-0.1,0.9,0.2,1.7-0.1,2.6c-0.3,1.2-0.1,2.3-0.1,3.5c-0.1,0.9,0,1.8,0,2.7C1.6,17,2,17.3,1.9,17.8c-0.3,0.6,0.3,1.2-0.1,1.8
		c0.1,0.8-0.1,1.6,0.3,2.3c-0.1,0.4-0.3,0.7,0,1.1c0.4,0.7,0.2,1.1-0.7,1c-0.1,0.5,0.2,0.9,0.2,1.4c-0.4-0.3-0.4-0.8-0.4-1.3
		c-0.3-3.2-0.3-6.3,0-9.5c0.2-2.3,0-4.6,0-6.9c0-1.7,0-3.3,0-5C1.1,2.2,1.1,1.7,1.5,1.3z"/>
	<path class="st4" d="M92.8,15.6c0,2.7,0,5.4,0,8.2c0,0.5,0.1,1.1-0.6,1.1C92,24.8,92,24.6,92,24.3c0-0.2,0.3-0.3,0.2-0.7
		c-0.3-1.1-0.3-2.4-0.3-3.6c0-1.3,0.1-2.5,0-3.8c0-0.5,0.3-0.8,0.8-0.9C92.8,15.4,92.9,15.4,92.8,15.6z"/>
	<path class="st5" d="M92.8,15.6c-0.1-0.1-0.2-0.1-0.2-0.2c-0.3,0-0.4-0.2-0.4-0.4c-0.1-0.4,0.1-0.9,0.1-1.3c0-0.2,0-0.4,0-0.7
		c-0.1-0.7-0.1-1.5,0.2-2.2c0.4-1.7,0.2-3.4,0.1-5c-0.8-0.6-0.4-1.3-0.1-2c0.1-0.8-0.2-1.6,0.3-2.3c0.5,1.2,0.3,2.4,0.4,3.6
		c0.3,3.3-0.2,6.7-0.2,10C93,15.3,92.9,15.5,92.8,15.6z"/>
	<path class="st3" d="M92.8,1.6c0,0.9,0,1.7,0,2.6c-0.7,0-0.8-0.4-0.7-1c0-0.5,0-1-0.6-1.2c-0.9-0.7-3.3-0.5-4.5,0.4
		c-0.4,0.2-0.8,0.4-1.1,0c-0.1-0.1-0.2-0.2-0.2-0.2c1.1-1.4,2.8-1.1,4.2-1.3C90.9,0.8,92,0.6,92.8,1.6z"/>
	<path class="st6" d="M92.1,24.3c0,0.2,0,0.4,0,0.7c0,0.1,0,0.1,0,0.2c-0.9,0-1.7,0-2.6,0c-0.2-0.2-0.5-0.4-0.1-0.8
		C90.4,24.1,91.2,24,92.1,24.3z"/>
	<path class="st7" d="M1.4,24c0.5-0.2,1-0.5,0.5-0.9c-0.6-0.5-0.1-0.8,0.1-1.2c0.2-1,0.4-1.2,1.5-1.1c0.5,0,1,0.1,1.6,0.1
		c0.1,0,0.2,0,0.3,0.1c0.8,0.5,0.4,1.5,0.9,2.1c0.1,0.5,0.1,1-0.2,1.5c-0.3,0.7-0.8,0.8-1.4,0.7c-0.1,0-0.1-0.1-0.2-0.1
		C3.2,25.5,2.2,25,1.4,24z"/>
	<path class="st8" d="M81.8,21.9c-0.2,0-0.4,0-0.6,0C81.1,22,81,22,80.9,22c-0.4-0.1-0.7,0-1.1,0.1c-1.5-0.1-2.9,0.1-4.4,0
		c-2.8-0.2-5.7,0-8.5-0.1c-2,0-4,0-6,0c-0.7-0.1-1.4,0.2-2-0.3c0.2-0.7,0.9-0.5,1.4-0.5c4.4,0,8.8,0,13.2,0c2.9,0,5.7-0.4,8.6-0.6
		c0.7,0,1.4-0.2,2.2-0.2c0.4,0.3,0.7-0.2,1.1-0.1c0.4,0.2,0.7,0.5,0.8,1c-0.1,0.5,0.4,1.1-0.3,1.4c-0.2,0-0.4-0.1-0.5-0.3
		c-0.4-0.7-1-0.7-1.7-0.4c-0.3,0-0.6-0.1-0.9-0.1C82.4,21.7,82.1,21.7,81.8,21.9z"/>
	<path class="st9" d="M58.9,21.7c0.6,0,1.3,0,1.9,0c0.1,0.1,0.1,0.3-0.1,0.3c-0.4,0.1-0.9,0.1-1.3,0.1c-5,0-10,0-15,0
		c-0.5,0-0.9,0-1.4,0.1c-2.2,0-4.5,0.2-6.7-0.1h-0.1c-0.3-0.3-1.1,0.2-1-0.4c0-0.4,0.7-0.3,1.1-0.3c3.1,0,6.3,0,9.4,0c4,0,8,0,12,0
		C58.1,21.4,58.5,21.3,58.9,21.7z"/>
	<path class="st10" d="M10.9,22.4c-0.8,0.3-1.6,0.7-2.4,0c-0.1,0-0.1-0.1-0.1-0.2s0.1-0.2-0.1-0.3c-0.2,0-0.4,0.1-0.5-0.2
		c-0.1-0.5,0.2-0.9,0.6-1.3c1.1-0.8,2.4-0.5,3.6-0.4c0.6,0.2,0.5,0.8,0.8,1.2c0,0.1-0.1,0.2-0.2,0.2c-0.4,0.2-0.9,0.1-1.4,0.1
		C10.6,21.6,10.6,21.9,10.9,22.4z"/>
	<path class="st11" d="M45.7,21.7c-3.5,0-6.9,0-10.5,0c0.3,0.4,0.8,0.1,0.9,0.5c-0.9-0.2-1.7,0.4-2.6,0.2c-0.8-0.4-1.6-0.1-2.4-0.2
		c-0.7-0.1-1.4,0.1-2-0.1C29,22,28.9,21.9,29,21.8c0.2-0.3,0.6-0.3,0.9-0.3c1.9-0.3,3.8-0.1,5.7-0.2c2.9,0,5.9,0,8.8,0
		C44.9,21.2,45.5,21,45.7,21.7z"/>
	<path class="st12" d="M71.6,22.3c-7.2,0-14.4,0-21.6,0c-0.1-0.2,0-0.3,0.2-0.3c6.7,0.1,13.4-0.2,20.1-0.1c0.4,0,0.8,0,1.2,0.1
		C71.6,22,71.7,22.1,71.6,22.3z"/>
	<path class="st13" d="M29,21.9c1.2,0,2.5,0,3.7,0c0.3,0,0.8-0.1,0.8,0.4c-4,0-8,0-12,0c-0.3,0-0.6,0.1-0.8-0.2
		c0.3-0.6,0.8-0.5,1.3-0.4s1.1-0.1,1.6,0c1.1,0.2,2.3,0.2,3.4,0C27.8,21.6,28.4,21.4,29,21.9z"/>
	<path class="st14" d="M71.6,22.3c0-0.1,0-0.1,0-0.2c0.2-0.3,0.5-0.3,0.8-0.4c1,0,2-0.1,3,0.1c1.5,0.1,3-0.3,4.5,0
		c0.3-0.2,0.6-0.2,0.9,0c0.1,0,0.2,0,0.2,0c-0.1,0.4-0.5,0.4-0.8,0.4C77.5,22.3,74.6,22.3,71.6,22.3z"/>
	<path class="st15" d="M19.5,22.1c-0.8,0-1.6,0-2.4,0c-0.8-0.4-1.6-0.1-2.4-0.2c-0.6-0.3-1.5,0.3-1.9-0.6v-0.1
		c0.8-0.5,1.6-0.2,2.4-0.2c1,0,2.1,0.1,3.1-0.2c0.3-0.1,0.6,0,0.8,0.2c0.3,0.2,0.4,0.5,0.6,0.8C19.6,21.8,19.6,22,19.5,22.1z"/>
	<path class="st16" d="M6.1,24.4c-0.2-0.5,0.1-1,0-1.4c0.5-0.5,0.8-1.2,1.5-1.5c0.4,0,0.4,0.4,0.5,0.6c0,0.1,0,0.3-0.1,0.4
		c-0.1,0.1-0.2,0.2-0.3,0.3c-0.1,0.1-0.2,0.2-0.2,0.3c0,0.1-0.1,0.1-0.1,0.2s0,0.1,0,0.2c-0.1,0.3-0.3,0.6-0.4,0.9
		C6.6,25.1,6.4,24.7,6.1,24.4z"/>
	<path class="st17" d="M14.7,21.7c0.6,0,1.2,0,1.8,0c0.3,0,0.6,0,0.6,0.4c-1.8,0-3.7,0-5.5,0.1c-0.3,0-0.6,0.2-0.7-0.2
		c-0.1-0.3,0.3-0.5,0.6-0.5C12.5,21.5,13.6,21.5,14.7,21.7z"/>
	<path class="st18" d="M83.6,22c0.9-0.8,1.2-0.7,2.1,0.6c0.3,0.1,0.4,0.3,0.3,0.6c-0.1,0.2-0.3,0.2-0.5,0.1
		C84.8,22.8,84.2,22.4,83.6,22z"/>
	<path class="st19" d="M14.7,21.7c-1.1,0-2.2,0-3.3,0c-0.2,0-0.5,0-0.4,0.3c0,0.1,0.3,0.1,0.5,0.1c-0.2,0.2-0.5,0.2-0.7,0.2
		c-0.3-0.1-0.6-0.1-0.6-0.5s0.3-0.6,0.6-0.6c0.6,0,1.3,0,1.9,0C13.4,21.7,14.2,21.2,14.7,21.7z"/>
	<path class="st20" d="M89.4,24.5c0.1,0.2,0.1,0.4,0.2,0.6c-2,0.1-2.2,0-2.8-1.5c-0.1-0.4,0.2-0.4,0.5-0.5c0.4,0.1,0.4,0.4,0.5,0.7
		c0.3,0.5,0.8,0.3,1.2,0.4C89.1,24.3,89.3,24.4,89.4,24.5z"/>
	<path class="st21" d="M87.2,23.2c-0.2,0.1-0.3,0.3-0.5,0.4c-0.4,0.1-0.6-0.3-0.8-0.5c-0.1-0.2-0.2-0.4-0.3-0.6
		c0.6-0.3-0.3-1,0.3-1.3c0.8,0.1,0.7,1,1.2,1.3c0.1,0.1,0.1,0.2,0.2,0.2C87.4,22.9,87.3,23.1,87.2,23.2z"/>
	<path class="st22" d="M19.5,22.1c0-0.1,0-0.3,0-0.4s0-0.2,0.1-0.2c1.4-0.3,2.7-0.7,4.1,0.1c0.1,0.1,0,0.2,0,0.3
		c-0.9,0.2-1.9-0.2-2.8,0.2C20.3,21.9,19.9,22.2,19.5,22.1z"/>
	<path class="st23" d="M36.3,22.1c2.3,0,4.5,0,6.8,0c0.2-0.1,0.4-0.1,0.6,0c0.1,0.1,0.1,0.1,0.1,0.2s0,0.1,0,0.1c-2.2,0-4.4,0-6.6,0
		C36.8,22.3,36.5,22.4,36.3,22.1z"/>
	<path class="st24" d="M43.7,22.3c0-0.1,0-0.1,0-0.2c2.1-0.2,4.2-0.2,6.3,0c0,0.1,0,0.1,0,0.2C47.9,22.3,45.8,22.3,43.7,22.3z"/>
	<path class="st25" d="M7.8,22.6C7.9,22.5,8,22.4,8,22.3c-0.1-0.1-0.1-0.2,0.1-0.3c0.3,0.1,0.3,0.3,0.2,0.5c0,0.3-0.2,0.5-0.5,0.6
		c-0.1,0-0.1-0.1-0.1-0.2s0-0.2,0-0.2C7.7,22.7,7.7,22.6,7.8,22.6z"/>
	<path class="st26" d="M8.3,22.6c0-0.2,0-0.4-0.2-0.5C8,22.1,8,22,8,22c0-0.1,0-0.1,0.1-0.1c0.1,0.1,0.3-0.7,0.5,0
		c0,0,0.1,0.1,0,0.1v0.1c0,0.1,0,0.2,0,0.3C8.4,22.4,8.3,22.5,8.3,22.6z"/>
	<path class="st27" d="M7.8,22.9c0,0.1,0,0.2,0,0.3c-0.1,0.2-0.2,0.4-0.4,0.4c-0.1-0.1-0.1-0.2-0.2-0.2c0.1-0.1,0.1-0.2,0.2-0.3
		S7.6,22.9,7.8,22.9z"/>
	<path class="st28" d="M81.8,21.9c0.3-0.3,0.6-0.3,0.9,0C82.4,21.9,82.1,21.9,81.8,21.9z"/>
	<path class="st29" d="M65.4,4.2c5.5,0,10.9-0.3,16.3,0.2c0.5,0,1,0.3,1.6,0.2c1,0.6,1,0.7,0.2,1.3C80.4,5.3,77.3,5,74.1,5
		c-4-0.1-8,0-12,0c-0.4,0-0.7,0-1.1,0.1c-1.3,0.3-2.7,0.3-4,0.3c-0.6,0.2-1.3,0.2-1.9,0.2c-1.2,0-2.4,0-3.6,0
		c-0.2,0-0.4-0.1-0.6-0.1c-5.5,0.1-11-0.4-16.5-0.2c-0.1,0-0.2,0-0.3,0.1c-0.3,0.1-0.6,0.2-0.9,0.2c-0.6-0.2-1.3-0.1-1.6-0.8
		c0.1-0.4,0.5-0.3,0.7-0.3c7.7,0.2,15.3,0.1,23,0.1c3,0,6,0,9-0.1C64.6,4.2,65,4.4,65.4,4.2z"/>
	<path class="st30" d="M65.4,4.2c-0.2,0.3-0.5,0.2-0.8,0.2c-5.5-0.2-10.9,0.3-16.4,0.2c-4.7-0.1-9.4,0-14.1,0
		c-0.6,0-1.1,0.1-1.7-0.1c-0.3-0.1-0.7-0.1-0.7,0.3C31.2,5.2,30.5,5,30,5.2c-0.2,0-0.3,0-0.5,0c-0.3-0.1-0.7-0.1-0.9-0.4
		c-0.2-0.7,0.5-0.5,0.7-0.7c5.9,0,11.8,0,17.6,0C53,4.1,59.2,4.1,65.4,4.2z"/>
	<path class="st31" d="M83.7,5.7C84.3,5,83.2,5,83.3,4.5c0.6-0.3,1.2-0.7,1.7-1c0.5,0,0.4,0.4,0.3,0.6c-0.3,0.6,0.1,1.1,0.4,1.6
		c0,0.2,0,0.4-0.1,0.6c-0.4,0.6-0.6,1.2-0.8,1.9C84.6,8.6,84.6,9,85,9.4c0.1,0.4,0,0.8-0.4,1c-1-0.2-1.3-0.8-1-1.9
		c0.1-0.5,0.5-0.9,0.5-1.4c0-0.2,0-0.4-0.1-0.6C83.9,6.2,83.6,6,83.7,5.7z"/>
	<path class="st32" d="M10.6,4.4C12.3,4.5,14,4,15.7,4c0.9,0,1.8-0.1,2.7,0.2c0,0.4-0.3,0.5-0.6,0.6c-1.5,0.2-3.1,0.1-4.7,0.3
		c-0.5,0-0.9,0.2-1.4,0.2c-0.7,0-1.3,0.1-2,0.3C9.3,5.7,9,5.8,8.6,5.6C8.5,5.5,8.4,5.4,8.4,5.3C8.6,5,8.9,5,9.2,4.9
		C9.6,4.6,10.2,4.7,10.6,4.4z"/>
	<path class="st33" d="M1.8,3.7C1.7,3.4,1.6,3,1.5,2.6c0.1-0.1,0.3-0.2,0.4-0.2c0.2-0.6,0.7-0.8,1.2-0.5C4,2.2,4.7,2.1,5.4,2
		C5.8,2,6,2.1,6.1,2.4c0.1,0.1,0.1,0.1,0.1,0.2c0,0.1,0,0.1,0,0.1C5.6,3.1,5,3,4.5,3.1c0.3,0.1,1-0.3,0.9,0.6C4.3,4.3,3.2,4,2.1,3.9
		C2,3.9,1.9,3.8,1.8,3.7z"/>
	<path class="st34" d="M85.7,5.7c-0.7-0.4-1-0.8-0.5-1.6c0.1-0.2,0.1-0.4-0.1-0.6c0.3-0.4,0.6-0.7,0.9-1.1c0.4,0,0.7,0,1.1-0.2
		c0.1,0.1,0.1,0.1,0.2,0.2c0.1,0.4,0.1,0.7-0.2,1C86.2,3.9,86.4,5.1,85.7,5.7z"/>
	<path class="st35" d="M29.2,4.1c-0.1,0.3-0.7,0.2-0.7,0.6C28,5.3,27.3,5.1,26.7,5c-0.9-0.2-1.7-0.1-2.6,0c-0.4,0-0.9,0.1-1.3-0.1
		c-0.2-0.3-0.7-0.8,0.1-0.8c2,0,4-0.1,6.1,0.1C29.1,4.1,29.2,4.1,29.2,4.1z"/>
	<path class="st36" d="M17.9,4.6c0.1-0.1,0.3-0.3,0.4-0.4c1.1-0.3,2.2-0.3,3.3-0.2c0.3,0.1,0.4,0.4,0.2,0.7C21.7,4.9,21.5,5,21.2,5
		C20.2,4.9,19,5.2,17.9,4.6z"/>
	<path class="st30" d="M21.9,4.6c-0.1-0.2-0.1-0.4-0.2-0.6c2.5,0,4.9-0.2,7.4,0.2c-1.9,0-3.9,0.1-5.8,0c-0.8,0-0.3,0.4-0.3,0.7
		C22.6,4.9,22.1,5.2,21.9,4.6z"/>
	<path class="st37" d="M6,2.6c0-0.1,0-0.1,0-0.2c0.4-0.3,0.8-0.1,1.1,0.2C8,3.3,8.5,4.1,8.5,5.2c0,0.1,0,0.1,0,0.2
		c0.1,0.2,0,0.3-0.2,0.3C7.7,5.6,7.6,5.1,7.4,4.6C7.1,4,6.7,3.4,6.2,3C6.1,2.9,6,2.8,6,2.6z"/>
	<path class="st38" d="M10.6,4.4C10.4,5.1,9.7,4.7,9.3,5c-0.7,0.2-0.8-0.3-1-0.7C8.2,4,8.1,3.5,8.7,3.5C9.4,3.8,10,4.1,10.6,4.4z"/>
	<path class="st39" d="M5.4,2c-0.6,0.7-1.3,0.6-2,0.3C2.8,1.9,2.4,2,1.9,2.4c0-0.4,0-1,0.7-0.8C3.6,1.7,4.5,1.6,5.4,2z"/>
	<path class="st40" d="M8.7,3.5C8.2,4.2,8.5,4.7,9.3,5C9.1,5.3,8.8,5.2,8.5,5.2C8.1,4.4,7.8,3.4,7.2,2.6C7.8,2.7,8.3,3.1,8.7,3.5z"
		/>
	<path class="st41" d="M6.3,2.9c0.7,0.2,1,0.8,1.2,1.5C7.7,4.8,8,5.3,8.3,5.7c0.8,0,1.5,0.3,1.9,1c0.1,0.5-0.2,1,0.1,1.4
		c0.3,0.9,0.5,1.8,0.5,2.8c-0.2,1,0.4,1.3,1.2,1.6c0.1,0.1,0.1,0.2,0.1,0.3c-0.1,0.4-0.3,0.7-0.6,1c-0.6,0.4-0.8,1-0.8,1.7
		C10.6,16,11,15.9,11.3,16c0.8,0,1.6,0,2.3-0.1s1.6-0.3,1.8,0.8c-0.1,0.1-0.3,0.2-0.5,0.2c-0.4,0.1-0.7,0-1,0
		c-0.5-0.2-1-0.1-1.4-0.1c-1.2-0.2-1.8,0.5-2.2,1.5c-0.1,0.1-0.2,0.2-0.3,0.3c-0.6,0-0.9,0.5-1.1,1C8.7,19.8,8.6,20,8.3,20
		c-0.1-0.1-0.2-0.1-0.2-0.2C8,19.6,8,19.4,8,19.2c0-0.8-0.3-1.1-1.1-0.8c-0.2,0.1-0.5,0.2-0.7-0.1c-0.1-0.1-0.1-0.2-0.1-0.3
		c-0.1-1.1,0.2-2.3,0.3-3.4c1.3-0.5,1.6-1.2,1.3-3c-0.1-1-0.3-2.1-0.3-3.1c0-0.5-0.2-1-0.4-1.4C6.7,6.7,6.4,6.7,6,6.9
		c-0.2,0.1-0.4,0-0.6,0c-1-0.7-2.1-0.3-3.2-0.5C2,6.4,1.9,6.3,1.7,6.1c-0.2-0.4-0.2-0.9,0-1.3c0.1-0.1,0.2-0.1,0.3,0
		c0.8,0.5,1.7,0,2.6,0.3C4.5,4.7,4.2,4.8,4.1,4.6C4,4.5,4,4.3,4.1,4.2c0.4-0.5,1.1,0,1.5-0.6C5.9,3.5,6,3.1,6.3,2.9z"/>
	<path class="st42" d="M5.4,6.7c0.2,0,0.4,0,0.6,0c0.4,0.5,0.3,1,0.2,1.6c-0.1,0.9,0,1.7,0,2.6c0,2.4,0,4.8-0.1,7.2
		c0,0.3,0,0.6-0.2,0.9c-0.4,0.1-0.6,0-0.9-0.2c-0.5-0.4-1-0.7-1.6-0.8c-0.2,0-0.4-0.1-0.5-0.3c-0.2-0.7-0.8-0.8-1.4-1
		c0.1-0.9-0.2-1.9,0-2.8c0.5-0.4,1.2-0.2,1.8-0.3c0.1,0,0.2,0,0.1,0c0,0,0,0,0-0.1c-0.2-0.1-0.5-0.1-0.5-0.4c0-0.2,0.2-0.3,0.3-0.3
		c1.2,0.1,1.4-0.7,1.3-1.6c0-0.3-0.1-0.5-0.1-0.7c0.1-0.7-0.3-0.9-0.9-0.8c-0.3,0-0.6,0-1-0.1C2.4,9.5,2.1,9.4,2.1,9.1
		c0-0.3,0.3-0.4,0.5-0.4c0.3-0.1,0.6,0,1-0.1c0.4,0,0.9,0,1.1-0.5C3.9,7.6,3.1,8,2.3,7.9c-0.2,0-0.4-0.2-0.5-0.3c-0.5-0.5,0-1,0-1.5
		c0.1,0,0.3,0,0.4,0C2.5,6.5,3,6.4,3.5,6.4C4.1,6.5,4.8,6.3,5.4,6.7z"/>
	<path class="st10" d="M5,8C4.9,8.7,4.6,8.9,3.9,8.9c-0.5,0-1.1-0.1-1.7,0.2c0.7,0.5,1.4,0.2,2.1,0.2c0.5,0,0.8,0.2,0.5,0.7
		c-0.4,0.5,0.4,0.9,0,1.3c-0.1,0.1-0.2,0.1-0.3,0.1c-0.1,0-0.2-0.1-0.3-0.1c-1-0.2-2.1,0.1-2.7-1C2,9.5,1.3,8.5,1.7,7.7
		c0.2,0,0.3,0.1,0.4,0.2C3.1,8,4.1,7.6,5,8z"/>
	<path class="st43" d="M5.2,21c-0.4,0.1-0.9,0.3-1.4,0.1c-0.8-0.3-1.6-0.2-2,0.7C1.6,21.3,1,21,1.6,20.4c0.3-0.3-0.6-0.5-0.2-1
		c1.1-0.1,2.3-0.2,3.4,0.2C5.5,20,5.6,20.5,5.2,21z"/>
	<path class="st44" d="M4.8,19.9c-0.6-0.4-1.3-0.2-2-0.2c-0.5,0-0.9,0-1.3-0.2c0.2-0.3,0.3-0.6,0-1c-0.3-0.3-0.1-0.6,0.2-0.8
		C2.6,17.3,3.2,18,4,18.2c0.3,0.1,0.5,0.4,0.8,0.5C5.4,19.2,5.3,19.6,4.8,19.9z"/>
	<path class="st45" d="M4.8,19.9c0.6-0.8-0.3-0.7-0.6-1.1C3.5,18,2.6,18,1.7,17.7c0.2-0.4-0.6-0.6-0.2-1.1c0.8-0.4,1.3-0.3,1.5,0.7
		c0,0.2,0.1,0.4,0.3,0.4c1.1-0.3,1.5,0.7,2.3,1.1c0.5,0.8,0.3,1.5-0.2,2.2c-0.1,0-0.1,0-0.2,0C5.1,20.6,5.5,20.1,4.8,19.9z"/>
	<path class="st46" d="M1.5,10.2c0.9,0.8,2,0.5,3,0.9c-0.6,0.5-1.4,0.4-2.1,0.5c-0.1,0,0,0-0.1,0.1c-0.1,0,0,0.1,0.1,0.2
		C2.9,12,3.5,11.9,4,12c0.2,0,0.5,0.1,0.5,0.4c0,0.3-0.3,0.4-0.5,0.5c-0.5,0-1-0.2-1.5,0.1c0.3,0.5,0.9,0.2,1.2,0.4
		c0.2,0,0.4,0.1,0.5,0.1c0.1,0.4-0.2,0.3-0.4,0.3c-0.8,0-1.5,0-2.3,0C1.5,12.7,1.4,11.4,1.5,10.2z"/>
	<path class="st47" d="M4.1,4.2c0,0.1,0,0.3,0,0.4C3.5,5.1,2.7,4.9,2,4.8c-0.1,0-0.1,0-0.2,0c-0.5-0.4-0.3-0.7,0-1.1
		c0.1,0,0.1,0,0.2,0C2.6,4.2,3.5,3.6,4.1,4.2z"/>
	<path class="st48" d="M87.2,23.2c0-0.2,0-0.3,0-0.5c0-0.3,0.2-0.5,0.3-0.8c0.4-1,0.3-1.9-0.4-2.7c0.2-1,0.5-2,0.3-3.1
		c0-0.3,0.1-0.6,0.3-0.8c0.5-0.6,1.1-0.6,1.7-0.1c0.3,0.5,0.8,0.4,1.2,0.5c0.5,0,1-0.1,1.3,0.5c0.3,0.3,0.8,0.5,0.2,1
		c-0.5,0.4,0.7,1-0.1,1.5c0.4,0.6,0.1,1.2,0.1,1.8c-0.1,0.8,0.4,1.6,0.1,2.4c-0.2,0.4,0.7,0.9,0,1.3c-0.9,0.4-1.9,0.2-2.8,0.2
		c-0.1,0-0.3,0-0.4,0s-0.1-0.1-0.2-0.1c-0.4-0.3-0.1-1-0.6-1c-0.4-0.1-0.2,0.8-0.7,0.7C87.4,23.8,87.5,23.4,87.2,23.2z"/>
	<path class="st49" d="M92,16.3c-0.5-0.3-1.1-0.2-1.7-0.2c-0.5,0-0.9-0.1-0.9-0.7C90.2,15,91,15,91.9,15c0.1,0,0.3-0.1,0.4,0
		s0.2,0.3,0.2,0.4C92.4,15.7,92.2,16,92,16.3z"/>
	<path class="st48" d="M92.8,11.1c-0.6,0.6-0.1,1.2-0.2,1.9c-0.6,0.5-1.2,0-1.8,0c-0.5,0.1-0.2,0.3-0.3,0.5c0,0.1-0.1,0.1-0.2,0.1
		c-0.7,0.2-1.4,0.2-2.1,0c-0.2-0.1-0.3-0.3-0.4-0.6c-0.4-1.4-0.3-2.7,0.1-4.1c0.2-1.4,0-2.8-0.2-4.1c-0.1-0.6-0.2-1.2,0.3-1.7
		c0.9-0.4,1.8-0.1,2.7,0.1c0.2,0,0.3,0.1,0.4,0.3c0.3,0.5,0,0.8-0.4,1c0.1,0.3,0.5,0.4,0.3,0.8c-0.3,0.4-0.7,0.5-1.1,0.5
		c-0.1,0-0.5-0.2-0.2,0.2c0.3,0.4,0,0.6-0.2,0.9c-0.4,0.6-0.1,1.4,0.6,1.5c0.8,0.2,1.4,0.8,2.3,0.7c0.5,0.2,0.8,0.5,0.5,1
		C92.5,10.5,92.7,10.8,92.8,11.1z"/>
	<path class="st50" d="M92.4,9.3c-1.2,0.4-2.1-1-3.4-0.7c-0.2,0-0.2-0.2-0.1-0.4s0.2-0.4,0.2-0.5c-0.8-0.7-0.4-0.9,0.3-1.2
		c0.3-0.1,0.3-0.5-0.1-0.6c-0.2-0.1-0.5,0.1-0.7-0.3c0.3-0.2,0.7-0.1,1.1-0.1s0.9,0.1,1-0.3c0.2-0.7-0.6-0.4-0.9-0.7
		c0.3-0.1,0.6-0.1,0.8-0.2C90.8,4.2,91,4,90.9,3.7c-0.1-0.2-0.3-0.3-0.5-0.3c-0.8-0.1-1.6-0.1-2.4-0.2c-0.7,0.2-0.8-0.1-0.7-0.7
		c1-0.8,2.3-0.7,3.5-0.6c0.3,0,0.6,0.2,0.9,0c0.3,0.5,1.1,0.7,0.6,1.5C92,3.9,92.5,4,92.8,4.3c-0.2,0.4-1,0.8,0,1.3
		c0.1,1-0.1,2,0.1,3C93,8.8,92.7,9.2,92.4,9.3z"/>
	<path class="st51" d="M92.3,15c-0.1,0.1-0.1,0.1-0.2,0.2c-1.1-0.4-2.2-0.1-3.3-0.2c-0.5-0.1-1-0.1-0.9-0.8c1-0.6,2.1-0.2,3.1-0.5
		c0.3-0.1,0.6,0,1-0.1c0.2,0,0.3,0,0.5,0.2C92.7,14.2,92.3,14.5,92.3,15z"/>
	<path class="st4" d="M92.4,9.3c0.1-0.5,0.8-1,0-1.5c0.8-0.7-0.4-1.7,0.5-2.4c0.5,1.6,0.2,3.3,0.1,4.9c0,0.2-0.1,0.5-0.1,0.7
		c-0.3-0.3-1.1-0.4-0.2-1C93.1,9.8,92.7,9.5,92.4,9.3z"/>
	<path class="st52" d="M92.6,13.7c-0.1,0-0.3,0-0.4,0c-0.6-0.1-1.2,0.2-1.7-0.2c-0.2-0.1-0.3-0.2-0.5-0.4c0.1-0.1,0.3-0.2,0.4-0.2
		c0.7-0.3,1.4,0.2,2.1,0.1C92.6,13.2,92.6,13.5,92.6,13.7z"/>
	<path class="st53" d="M91.8,1.8c-1.1,0.5-2.3-0.1-3.3,0.4c-0.3,0.1-0.7,0.2-1,0.3c-0.1,0.1-0.3,0.1-0.4,0c0-0.1,0-0.2,0-0.3
		c0.3-0.7,1-0.8,1.6-0.8c0.3,0,0.6,0,1,0C90.3,1.4,91.1,1.1,91.8,1.8z"/>
	<path class="st54" d="M5.4,21c0-0.7,0.4-1.4,0.2-2.2c0.3-0.1,0.2-0.4,0.2-0.7c0.1-0.1,0.3-0.1,0.4,0c0,0.1,0,0.1,0,0.2
		c0.3,0.2,0.3,0.5,0.3,0.8c0,0.5,0,1,0,1.5c0,0.7,0.4,0.5,0.8,0.4s0.7,0,0.2,0.5C7,22,6.9,22.9,6.1,23C5.4,22.5,5.8,21.6,5.4,21z"/>
	<path class="st55" d="M45.7,21.7c-0.3-0.3-0.8-0.2-1.1-0.2c-3,0-6,0-9-0.1c0-0.1,0-0.3,0.1-0.3c0-0.1,0.2-0.1,0.3-0.1
		c2-0.1,4.1,0,6.1,0c0.5,0,1.1,0,1.6-0.2c2.1,0,4.2-0.2,6.3,0.1c0.9,0.1,1.8,0.2,2.7-0.1c1.7-0.4,3.3,0,5-0.1c2-0.1,4.1-0.1,6.1,0
		c1.6,0,3.2,0,4.8,0c2.4-0.1,4.8,0.1,7.1-0.1c1-0.1,2.1-0.2,3.1-0.5c0.5,0,1.1-0.1,1.6-0.1c0.4,0.1,0.8,0,1.2,0.1
		c0.3,0.1,0.8,0.1,0.5,0.7c-2.8,0.4-5.6,0.6-8.4,0.6c-4.6,0.1-9.2,0-13.8,0c-0.4,0-0.8-0.1-1.1,0.2C54.5,21.7,50.1,21.7,45.7,21.7z"
		/>
	<path class="st35" d="M82.2,20.8c-0.3-0.9-1.3-0.1-1.7-0.6c0,0,0-0.1,0.1-0.1c0.3-0.3,0.8-0.4,1.2-0.4c1,0,1.7-0.6,1.6-1.3
		c0-0.1-0.1-0.2-0.1-0.3c0-0.4-0.1-0.8,0-1.2c0-0.5,0-1.1,0.8-1.2c0.7,0,1,0.5,1.1,1.1c0.1,0.3,0.1,0.6,0.1,0.8
		c-0.6,0.4-0.6,0.4-0.6,1.3c0,0.6,0.1,1.2-0.2,1.8C83.7,20.7,83,20.7,82.2,20.8z"/>
	<path class="st56" d="M84.4,20.6c-0.2-0.9,0.2-1.8-0.2-2.7c-0.1-0.2,0-0.5,0.3-0.6c0.4-0.1,0.3,0.5,0.6,0.5c0.1-0.1,0.2-0.1,0.3,0
		c0.2,0.2,0.2,0.5,0.4,0.8c0.1,0.2,0.3,0.5,0.3,0.8c-0.2,0.2-0.4,0.4-0.4,0.7c-0.1,0.2-0.1,0.3-0.3,0.4
		C84.9,20.3,84.8,20.9,84.4,20.6z"/>
	<path class="st55" d="M75.5,21.9c-1.1,0-2.2,0-3.2,0C71.7,22.1,71,22,70.4,22c-2.8,0-5.6,0-8.5,0c-0.3,0-0.7,0.1-1-0.1
		c0-0.1-0.1-0.1-0.1-0.2c4.7,0,9.4,0,14.1,0C75.1,21.7,75.3,21.6,75.5,21.9z"/>
	<path class="st57" d="M85.2,20.4c0-0.2,0-0.4,0.2-0.4c1.1,0.5,1.8,1.7,1.5,2.8c-0.6-0.3-0.5-1.1-1-1.5C85.7,21,85.4,20.7,85.2,20.4
		z"/>
	<path class="st58" d="M81,21.9c-0.3,0-0.6,0-0.9,0C80.3,21.5,80.7,21.6,81,21.9z"/>
	<path class="st59" d="M60.9,21.9c3.8,0,7.6,0,11.4,0c-0.1,0.3-0.4,0.2-0.7,0.3c-7.2,0-14.4,0-21.6,0c-2.1,0-4.2,0-6.3,0
		c-0.2,0-0.4,0-0.6-0.1c0.4-0.3,0.8-0.2,1.2-0.2C49.8,21.9,55.4,21.9,60.9,21.9z"/>
	<path class="st60" d="M18.4,20.8c-0.7,0.8-1.7,0.4-2.6,0.5c-1,0.1-2.1-0.1-3.1-0.1c-0.4-0.2-0.6-0.5-0.4-1c0.6-0.6,1.5,0,2.2-0.5
		c0.1-0.1,0.3-0.1,0.5-0.1c0.3,0.1,0.5,0.3,0.8,0.3c0.1,0,0.2,0,0.3,0.1c0.3,0.1,0.7,0.1,1,0.1s0.5,0,0.8,0.1
		C18.2,20.4,18.5,20.5,18.4,20.8z"/>
	<path class="st61" d="M14.8,19.7c-0.1,0.6-0.7,0.4-1,0.4c-0.5,0-0.9,0-1.4,0c-1.3,0.1-2.7-0.3-3.9,0.4c-0.5-0.1-0.4-0.4-0.2-0.7
		c0.1-0.1,0.3-0.3,0.4-0.4c0.6-0.1,1.1,0.2,1.6,0.1c1.3-0.4,2.7,0.2,4-0.1C14.5,19.5,14.6,19.6,14.8,19.7z"/>
	<path class="st62" d="M8.2,19.9c0,0.2,0,0.5,0.2,0.7C8.3,21,8,21.4,8,21.9C8,22,8,22,8,22.1s0,0.1,0,0.2c-0.1-0.2-0.3-0.4-0.4-0.7
		c0.2-0.5,0-0.4-0.3-0.2c-0.6,0.4-0.9,0.3-1-0.4C7,20.9,7.6,20.5,8,19.9C8.1,19.9,8.2,19.9,8.2,19.9L8.2,19.9z"/>
	<path class="st63" d="M8.5,22.1c0-0.1,0-0.1,0-0.2C8.5,22,8.5,22,8.5,22.1C8.6,22,8.5,22.1,8.5,22.1z"/>
	<path class="st35" d="M29.9,21.6c-0.3,0-0.6,0-0.9,0.1c-0.5,0-1,0.1-1.5,0.1c-0.3-0.1-0.6-0.3-0.9-0.5c-0.4-0.3-1,0-1.3-0.4
		c0.3-0.9,1.1-0.9,1.8-1.1c1.4-0.1,2.8,0.2,4.3,0.2c0.7,0.1,1.3,0.2,2,0.3c0.4,0.2,1.1,0.1,0.9,0.9c-0.9,0.4-1.9,0.1-2.8,0.2
		c-0.4,0-0.8,0-1.3,0.1C30,21.4,30,21.5,29.9,21.6z"/>
	<path class="st64" d="M27.6,21.7c0.5,0.1,1-0.2,1.4,0c0,0.1,0,0.1,0,0.2c-1.5-0.1-2.9,0.4-4.4,0.3c-0.3,0-0.7,0.1-1-0.2
		c0-0.1,0-0.1,0-0.2C24.9,21.1,26.2,21.2,27.6,21.7z"/>
	<path class="st65" d="M29.9,21.6c0-0.1,0-0.3,0-0.4c1.3-0.2,2.6-0.1,3.9-0.1c0.6,0,1.2-0.5,1.7,0.1v0.1c-1.5,0-2.9,0-4.4,0
		C30.7,21.5,30.3,21.4,29.9,21.6z"/>
	<path class="st66" d="M14.8,19.7c-0.1,0-0.3,0-0.4,0c-0.6-0.2-1.3-0.1-1.9-0.2c-0.8-0.1-1.5-0.4-1.6-1.3C11,18,11.3,18,11.6,18
		c0.6,0.1,1.3,0.2,1.9,0.1c0.4,0,0.7,0,1.1,0.1c0.5,0.1,1.1,0.4,1.4-0.1c0.3-0.6-0.2-1-0.6-1.4C15,16,14.2,16,13.6,16.1
		c-0.9,0.2-1.8,0.1-2.7,0.1c-0.6,0-0.9-0.2-0.6-0.9c0.5-0.2,1-0.1,1.5-0.1c0.9,0,1.8,0,2.6-0.4c0.5-0.1,0.9,0.2,1.4,0.2
		c0.6,0,1.3,0,1.9,0c1.2,0.2,1.5,0.5,1.4,1.7c-0.1,0.6,0.3,0.8,0.7,0.9c0.6,0.2,1,0.6,0.9,1.2c-0.2,0.9,0.2,1.3,1,1.4
		c0.1,0,0.2,0.1,0.3,0.3c0,0.2-0.1,0.3-0.2,0.4C20.9,21.2,20,21.1,19,21c-0.2-0.1-0.4-0.1-0.6-0.2s-0.3-0.3-0.5-0.4
		c0-0.6-0.6-0.5-0.8-0.8c-0.2-0.2-0.4-0.2-0.6-0.2c-0.5-0.1-1-0.1-1.4,0.3C15,19.7,14.9,19.7,14.8,19.7z"/>
	<path class="st67" d="M19,21c0.9-0.5,1.9-0.1,2.9-0.2c0.1,0,0.1,0,0.2,0C22.7,21,23.3,21,24,21c0.4,0,0.8-0.1,1.2-0.1
		c0.6,0.2,1.2-0.1,1.8,0.2c0.2,0.3,0.6,0.2,0.7,0.6c-1.3,0-2.6,0-4,0c-1.4-0.4-2.7-0.2-4.1,0C19.2,21.6,19,21.4,19,21z"/>
	<path class="st68" d="M7.8,22.9c-0.1,0.1-0.3,0.2-0.4,0.3l-0.1,0.1l-0.1-0.1c0.1-0.2,0.2-0.3,0.3-0.5c0.1,0,0.2,0,0.2,0
		C7.8,22.8,7.8,22.9,7.8,22.9z"/>
	<path class="st69" d="M7.8,22.7c-0.1,0-0.2,0-0.2,0c0.1-0.1,0.2-0.1,0.3-0.2C7.8,22.6,7.8,22.7,7.8,22.7z"/>
	<path class="st70" d="M7.2,23.2c0.1,0,0.1,0,0.2,0c0,0.1-0.1,0.2-0.2,0.2C7.2,23.3,7.2,23.3,7.2,23.2z"/>
	<path class="st71" d="M87.4,24c0.4-0.3-0.1-1.3,0.7-1.2c0.9,0,0.4,0.9,0.7,1.4c0.1,0.1,0,0.2,0.1,0.3C88.4,24.4,87.8,24.7,87.4,24z
		"/>
	<path class="st72" d="M86.9,22.7c-0.1-1.1-0.6-2-1.5-2.8c-0.2-0.4,0-0.7,0.4-0.7c0.4-0.1,0.8-0.7,1.3-0.1c1.2,1,1.1,2.5,0,3.5
		C87.1,22.7,87,22.7,86.9,22.7z"/>
	<path class="st73" d="M84.2,6.3c0.2,0.1,0.2,0.2,0.2,0.4c-0.4,0.7-0.5,1.6-1.3,2.1c-1.6,0.2-3,0.8-4.2,1.7C77.6,9.9,76.3,9.9,75,10
		c-1.6,0.1-3.3,0-4.9-0.1C69,9.9,68,9.8,67,10.3c-0.5,0.2-1,0-1.4-0.2c-0.4-0.1-0.8-0.2-1.3-0.2s-0.9-0.2-1.1-0.6
		c-0.8-1.6-2.2-1.7-3.7-1.4C59.3,7.9,59.2,8,59,8c-2,0.2-4-0.3-6-0.2c-0.7,0-1.4-0.2-2.1-0.2c-1.8,0-3.5,0.1-5.3,0
		c-0.5-0.1-0.9-0.3-1.3-0.6c-1.5-1.6-3.3-1-4.5,0.1C39,7.9,38.7,8,37.8,7C37,6.1,36.1,5.7,35,5.5c-0.5-0.1-0.9,0-1.2-0.5
		c0.1-0.1,0.2-0.2,0.3-0.2c3,0,6-0.1,8.9,0C45.3,5,47.7,4.9,50,5c0.6,0,1.1,0,1.7,0.2c0.1,0.1-0.1,0.3,0,0.3c1.2-0.2,2.5-0.1,3.7,0
		c3.7,0.5,7.4,1.1,11.1,1.2c2.4,0.1,4.7,0.1,7.1,0.2c1.6,0.1,3.2-0.2,4.8-0.4c0.3,0,0-0.2,0-0.3c0.2-0.3,0.5-0.5,0.8-0.7
		C81,5.2,82.7,5.4,84.2,6.3z"/>
	<path class="st74" d="M84.2,6.3c-1.6-0.5-3.3-0.7-5-0.6c-0.8,0.5-1.8,0.4-2.6,0.2c-0.9-0.3-1.8-0.2-2.6-0.5
		c-0.4-0.2-0.8-0.3-1.2-0.2c-1.7,0.2-3.4,0.1-5.1,0.1C65.8,5,63.9,5.1,62,5.1c-0.4,0-0.7,0-1-0.3c0.3-0.4,0.7-0.2,1.1-0.2
		c4.6,0,9.1-0.1,13.7,0c2.6,0.1,5.3,0.2,7.9,1C83.9,5.9,84,6.1,84.2,6.3z"/>
	<path class="st75" d="M33.8,5c0.9,0.3,1.9,0.2,2.8,0.7c0.6,0.4,1.3,0.7,1.7,1.4c0.3,0.6,0.6,0.4,0.9,0C40,6.2,41,5.6,42.4,5.7
		c0.8,0.1,1.5,0.3,1.8,1.1C44,7,43.7,7,43.4,7c-1.4-0.4-2.6,0-3.6,1.1c-0.2,0.3-0.5,0.5-0.9,0.6c-0.5,0.1-0.9,0-1.3-0.2
		c-0.8-1.4-2.1-2-3.6-2.2c-0.4-0.1-0.9-0.1-1-0.6c0-0.1,0-0.2,0.1-0.3C33.4,5.2,33.6,5.1,33.8,5z"/>
	<path class="st76" d="M55.4,5.7c-1.4,0-2.9,0-4.3,0c0.1-0.4,0.5-0.1,0.6-0.4c1.5-0.2,3,0,4.5,0c0.2,0,0.5-0.1,0.7-0.2
		c0.9,0.3,1.8,0,2.7,0.1c0.2,0.1,0.4,0.3,0.3,0.6C59.6,6,59.3,5.9,59,6C57.8,5.9,56.6,5.9,55.4,5.7z"/>
	<path class="st77" d="M59.8,5.3C58.9,5.1,57.9,5.5,57,5c1.4-0.1,2.7-0.1,4.1-0.2c2.2,0.1,4.4-0.1,6.7,0.2c0,0.5-0.4,0.5-0.7,0.5
		c-2.2,0-4.4,0-6.5,0C60.2,5.5,60,5.4,59.8,5.3z"/>
	<path class="st78" d="M33.1,5.3c0,0.1,0,0.2-0.1,0.2c-0.7,0.5-2.7,0.4-3.2-0.1c-0.1-0.1-0.1-0.3,0-0.4c0.5-0.4,1.2-0.2,1.8-0.3
		C32.2,4.7,32.7,5,33.1,5.3z"/>
	<path class="st79" d="M29.8,5c0,0.1,0.1,0.4,0.1,0.4c1,0,2.1,0.4,3.1,0.1c0.2,0.4,0.6,0.3,0.9,0.4c1.5,0.4,3.1,0.5,3.7,2.4
		c0.3,0.3,0.2,0.8,0.3,1.3c0.4-0.5,0.6-0.8,1-1.1c0.3-0.3,0.6-0.6,0.9-0.8c1-0.9,2.1-1.3,3.4-0.9C44,7.4,44,8.2,43.7,9.1
		c-0.5,1.3-0.3,1.5,1.1,1.4c1.1-0.1,2.2-0.2,3.4-0.3c1-0.1,1.3-0.4,1.4-1.3c0.9-1.4,2.9-1.3,3.8,0.2c0.3,1.4,1,1.8,2.4,1.3
		c0.6-0.2,1.3-0.4,1.9-0.2c0.9,0.3,1.1-0.1,1.1-0.9C59.1,8.5,59.7,8,60.6,8c1,0,1.7,0.4,2,1.3c0.2,0.8,0.6,1.1,1.4,0.9
		c0.3-0.1,0.7,0,1.1,0.1c0.8,0.5,1.5,0.6,2.4,0.2c0.6-0.3,1.3-0.3,1.9-0.2c1.1,0.3,2.3,0.1,3.4,0.1c1.3-0.1,2.6,0.1,3.9,0
		c1.4-0.1,2.2,1,2.2,2.5c-0.5,1.2-1.2,2.2-1.5,3.5c-0.3,1.1-1.1,1.8-2.1,2.4c-0.3,0.2-0.6,0.3-1,0.5c-1.4,0.5-2.1,0.1-2.3-1.5
		c-0.7,1.6-1.3,1.9-2.9,1.2c-0.4-0.2-0.7-0.1-1.1,0c-1.2,0.5-2.3,0.6-3.4-0.2c-0.4-0.3-0.6-0.1-1,0c-1.1,0.6-2.2,0.7-3.4,0.1
		c-0.3-0.2-0.5-0.2-0.8,0c-0.6,0.5-1.2,0.4-1.7,0c-0.5-0.3-1-0.3-1.5,0c-1.7,0.7-3.4,0.4-5.1,0.2c-0.5-0.1-0.9-0.2-1.3,0
		c-0.6,0.3-1.1,0.1-1.6-0.2c-0.5-0.3-0.9-0.4-1.4-0.1c-0.8,0.5-1.6,0.6-2.5,0.2c-0.1,0-0.2-0.1-0.3-0.1c-1.4,0.6-2.8,0.1-4.2,0.2
		c-1.5,0.1-1.8,0-2.3-1.4c-0.6,0.8-1.1,1.7-2.3,1.5c-0.8-0.1-1.1-0.7-1.2-1.5c-0.1,0.1-0.2,0.2-0.2,0.4c-0.4,0.7-0.8,1.3-1.8,1.1
		c-0.9-0.2-1.7-0.9-1.9-1.8c0-0.2,0-0.4,0-0.5c0-0.2,0-0.4-0.1-0.5c-0.2-0.1-0.4,0.1-0.5,0.3c-1.1,1-2.2,1.8-3.6,2.4
		c-0.7,0.4-1.6,0.5-2.4,0.6c-0.1,0-0.2-0.1-0.3-0.1c-0.7-1.4-1.5-2.8-1.7-4.4c-0.6-2.7,0.2-5.2,1.5-7.5c0.5-1,1.3-1.6,2.4-1.8
		c1.4-0.3,2.8-0.4,4.2-0.6C29.6,5,29.7,5,29.8,5z"/>
	<path class="st80" d="M29.5,5c-0.5,0.8-1.3,0.4-1.9,0.6c-1.2,0.2-2.7,0-3.6,1c-1.3,1.4-2,3.1-2.3,5c-0.2,1.1-0.1,2.2,0,3.3
		c-0.3-0.1-0.7-0.1-1,0c-0.5-0.7-0.5-1.6-0.4-2.5c0.3-2.6,1.3-5,3.2-7c1-0.7,2.1-0.8,3.3-0.7c0.6,0,1.3,0,1.9,0
		C28.9,4.8,29.2,4.9,29.5,5z"/>
	<path class="st81" d="M88.1,9.1c-0.2,1.2-0.4,2.4,0,3.6c-0.4,0.7-0.8,0.6-1.1-0.1c-0.6-1.4,0-2.8-0.1-4.2c0-0.5,0-0.9-0.1-1.4
		c-0.2-1-0.2-1-1.2-0.6c-0.2-0.1-0.3-0.3-0.1-0.5c0.1-0.1,0.1-0.3,0.2-0.4c0.4-0.8,0.2-2,1.3-2.4c0.6,0,0.6,0.5,0.7,0.9
		C88,5.6,88,7.1,88,8.5C88,8.7,87.9,8.9,88.1,9.1z"/>
	<path class="st82" d="M87.2,8.3c0.1,1.5-0.4,3,0,4.5c0.2,0.2,0.1,0.5,0.3,0.7c0.1,0.9,0.1,1.8-0.1,2.6c-0.1,0.1-0.2,0.2-0.3,0.2
		c-0.2-0.1-0.3-0.2-0.3-0.4c-0.1-0.2-0.1-0.5-0.1-0.7c0-0.3,0-0.7,0-1c0.1-1.7-0.8-2.8-2.3-3.5c-0.2-0.2,0-0.4,0.1-0.5
		c0.1-0.4,0.2-0.7,0.2-1.1c0-0.1,0-0.1,0-0.2c0.3-0.5,0.8-0.7,1.2-1.1C86.8,7.3,86.9,7.3,87.2,8.3z"/>
	<path class="st49" d="M84.6,10.2c-0.1,0.2-0.1,0.3-0.2,0.5l-0.1,0.1c-0.8-0.1-1.5-0.2-2-1c0-0.5,0.2-1,0.8-1.1
		c0.7-0.5,0.7-1.4,1.3-2C84.5,7.2,84.2,7.6,84,8C83.4,9,83.7,9.8,84.6,10.2z"/>
	<path class="st83" d="M85.5,6.1c0,0.2,0,0.3,0.2,0.4c0.1,1-0.4,1.8-0.8,2.6l0,0c-0.9,0.2-0.4-0.6-0.4-0.7
		C84.7,7.6,84.9,6.7,85.5,6.1z"/>
	<path class="st84" d="M17.9,4.6c1.2,0.1,2.3,0.2,3.5,0.2c0.2,0,0.4,0,0.5,0.1c0.3,0.1,0.8,0,0.8,0.4c0,0.5-0.5,0.5-0.9,0.6
		c-0.7,0.1-1.4-0.1-1.9,0.4c-0.1,0.1-0.2,0.2-0.4,0.3c-0.1,0-0.2,0.1-0.3,0.1c-0.1,0-0.2,0-0.3,0c-0.9-0.3-1.8,0-2.7-0.5
		c-0.4-0.2-0.6,0.3-0.9,0.4c-0.1,0.1-0.3,0.1-0.5,0.1c-0.3,0-0.6,0-1,0.1c-0.5,0-0.9,0.6-1.4,0.1c-0.1-0.8,0-1.5,0.5-2.1
		C14.6,4.6,16.3,4.6,17.9,4.6z"/>
	<path class="st85" d="M10,6.7c-0.4-0.6-1.2-0.6-1.7-1c0.1-0.1,0.2-0.2,0.3-0.3c0.6,0.2,1.1,0,1.6-0.2s1-0.3,1.6-0.1
		c0.3,0.7-0.2,1.3-0.3,2C10.8,7.6,10.3,7.5,10,6.7z"/>
	<path class="st86" d="M11.3,7c-0.1-0.7,0.3-1.3,0.4-1.9C12.1,5,12.6,4.9,13,4.8c0,0.7-0.2,1.4-0.4,2.1C12.1,7.3,11.7,7.3,11.3,7z"
		/>
	<path class="st87" d="M4.1,4.2c-0.5,0-1,0-1.5,0C2.3,4.2,2,4.2,2,3.7C3.1,3.6,4.3,4,5.4,3.5c0.1-0.1,0.1-0.1,0.2,0
		C5.5,4.5,4.7,4,4.1,4.2z"/>
	<path class="st88" d="M5.6,3.5c-0.1,0-0.1,0-0.2,0C4.9,3,4.2,3.5,3.4,3c1-0.2,1.8-0.3,2.6-0.4c0.1,0.1,0.2,0.2,0.3,0.3
		C6.2,3.2,6.3,3.7,5.6,3.5z"/>
	<path class="st89" d="M88.1,9.1c-0.8-0.4-0.4-1.1-0.3-1.7c0.3-1.5-0.3-2.8-0.8-4.2c0.2-0.3,0-0.5,0-0.8c0.1,0,0.3,0,0.4,0
		c0,0.4,0.2,0.6,0.7,0.6c-0.3,0.6-0.2,1.2-0.1,1.8C88.1,6.3,88.5,7.7,88.1,9.1z"/>
	<path class="st90" d="M19.7,6.3c0.3-0.8,1.1-0.6,1.7-0.6c0.5,0,0.8-0.1,1.2-0.3c-0.4-0.2-0.8-0.4-1.2-0.6c0.1-0.2,0.3-0.2,0.4-0.2
		c0.3,0.2,0.7,0.1,1.1,0.2c0.9,0,1.9-0.3,2.8-0.2c0.3,0,0.6-0.1,0.9,0.2c-1.1,0.3-2.2,0.3-3.2,0.9c-0.5,0.3-1,0.6-1.6,0.9
		C21,7,20.4,6.9,19.7,6.3z"/>
	<path class="st91" d="M11.3,7c0.4,0,0.9,0,1.3,0c0.5,0.1,0.8-0.4,1.3-0.4c0.3,0.4,0.2,0.8,0.4,1.2c0,0.1,0,0.2,0,0.3
		c-0.1,0.7,0.1,1.5-0.1,2.2c-0.5,0.7-1.4,1.1-1.7,2c-0.1,0.2-0.2,0.4-0.4,0.3c-1.3,0-1.4-0.2-1.5-1.5c0.9,0.2,1.2,0,1.2-0.9
		c0-0.5-0.1-1.1-0.3-1.6C11.1,8,10.7,7.7,10,8c-0.5-0.4,0-0.9,0-1.3C10.3,7.3,10.8,7.3,11.3,7z"/>
	<path class="st92" d="M6.1,8.3c0-0.5,0-1,0-1.5c0.4-0.9,0.7-0.6,1,0c0.7,1.6,0.7,3.3,0.7,4.9c0.1,0.4,0,0.9-0.5,0.9
		c-0.6,0-0.7-0.6-1-1C5.9,10.5,6.2,9.4,6.1,8.3z"/>
	<path class="st93" d="M10,8c0.1-0.7,0.5-0.8,1-0.4c0.8,0.7,1.1,2.7,0.6,3.6c-0.5,0.7-0.9,0.5-1.2-0.2C10.5,10,10.2,9,10,8z"/>
	<path class="st94" d="M6.1,8.3c0.5,1.1,0.1,2.3,0.4,3.4c0.4,0.9,0.6,1.9,0,2.8c0.1,1.2-0.3,2.4-0.2,3.7c-0.1,0-0.3,0-0.4,0
		c0-2.9,0-5.9,0-8.8C5.9,9,5.7,8.6,6.1,8.3z"/>
	<path class="st95" d="M14.7,18.4c-0.4,0-0.9,0-1.3,0c-0.8-0.1-0.9-0.5-0.7-1.2s0.6-0.8,1.2-0.6c0.4,0,0.7,0,1.1,0
		c0.2,0.1,0.3,0.2,0.5,0.3c0.4,0.3,0.5,0.8,0.3,1.2C15.5,18.7,15.1,18.6,14.7,18.4z"/>
	<path class="st96" d="M10.8,18.2c0.5,0.8,1.2,1.1,2.2,1.1c0.5,0,1-0.2,1.3,0.4c-0.5,0.3-1,0.3-1.5,0.2c-0.9-0.3-1.8-0.2-2.6,0
		c-1.1-0.6-1.1-0.8-0.2-1.5c0.1-0.1,0.1-0.1,0.2-0.2C10.4,18,10.6,18,10.8,18.2z"/>
	<path class="st97" d="M8.3,11.9C8.1,10.6,8,9.3,7.8,8c0-0.2-0.1-0.6,0.2-0.7c0.3-0.1,0.4,0.3,0.5,0.5C9,9.1,9,10.4,9.1,11.7
		C8.9,12.1,8.6,12.2,8.3,11.9z"/>
	<path class="st98" d="M6.5,14.5c0-0.9,0-1.9,0-2.8c0.4,0.3,0.9,1.4,1.3,0c0.6,1,0.1,2-0.1,2.9C7.5,15.4,6.9,14.7,6.5,14.5z"/>
	<path class="st99" d="M14.6,15.1c-1.4,0.7-2.8,0.6-4.2,0.3c-0.4-1.4,1-1.7,1.5-2.6c0.2,0.2,0.2,0.4,0.2,0.6c-0.5,1.3-0.4,1.4,1,1.4
		c0.4,0,0.7-0.1,1.1,0C14.4,14.8,14.5,14.9,14.6,15.1z"/>
	<path class="st100" d="M8.3,11.9c0.3,0.1,0.6-0.1,0.9-0.2c-0.1,1.5,0.3,3-0.5,4.4C8.5,14.7,8.5,13.3,8.3,11.9z"/>
	<path class="st101" d="M10.8,18.2c-0.2,0-0.4,0-0.6,0c0-1,0.9-1.7,2.2-1.7c0.2,0.7,0.1,1.4-0.6,1.7C11.4,18.2,11.1,18.2,10.8,18.2z
		"/>
	<path class="st102" d="M2,4.8c0.7-0.4,1.4-0.1,2.2-0.2c0.2,0,0.4,0,0.5,0c0.3,0,0.7,0,0.6,0.4c0,0.3-0.4,0.2-0.6,0.2
		C4,5.3,3.3,5.1,2.6,5.4C2.1,5.5,2,5.2,2,4.8z"/>
	<path class="st61" d="M8.2,19.9c-0.1,0-0.1,0-0.2,0c-0.4-0.6-1-0.8-1.7-0.6c0-0.3,0-0.6,0-0.9c0.1,0,0.2-0.1,0.3-0.1
		c1.3-0.6,1.6-0.4,1.7,1C8.2,19.5,8.2,19.7,8.2,19.9z"/>
	<path class="st103" d="M11.7,18.2c0.5-0.5,0.3-1.2,0.6-1.7c0.5,0.1,1.1-0.2,1.5,0.2c-0.4,0-0.8-0.1-0.9,0.6
		c-0.1,0.5-0.1,0.9,0.5,1.1C12.9,18.4,12.3,18.5,11.7,18.2z"/>
	<path class="st104" d="M5.4,6.7c-0.8,0-1.7,0-2.5,0C2.4,6.7,2.2,6.6,2.2,6c0.7,0,1.4,0,2.1,0C4.7,6.2,5.3,6.1,5.4,6.7z"/>
	<path class="st103" d="M14.7,18.4c0.3-0.1,0.7,0.1,0.9-0.4c0.2-0.6-0.4-0.9-0.6-1.3c0.1,0,0.3,0,0.4,0c0.6,0.2,1.3,1.2,1,1.6
		C16,18.9,15.3,18.7,14.7,18.4z"/>
	<path class="st105" d="M11.9,13.5c0-0.2,0-0.4,0-0.7c0-0.1,0-0.1,0-0.2c0.2-0.1,0.2-0.3,0.2-0.4c0.5-0.5,1-1.1,1.8-0.8
		c0.3,0.7,0.1,1.1-0.6,1.3C12.8,12.8,12.5,13.4,11.9,13.5z"/>
	<path class="st106" d="M10,18.4c-0.7,0.6-0.3,1.1,0.2,1.5c-0.5,0-1.1-0.1-1.5-0.4C8.9,18.9,9.1,18.2,10,18.4z"/>
	<path class="st107" d="M3.7,13.5c-0.4,0-0.8,0-1.2,0c-0.3,0-0.7,0.1-0.7-0.4c0-0.4,0.4-0.4,0.7-0.5c0.6-0.1,1.3,0.2,1.8-0.4
		c-0.8,0-1.6,0-2.4,0c-0.2-0.6,0.2-0.7,0.6-0.6c0.7,0,1.3-0.1,2-0.2c0.1,0,0.1,0,0.2,0c-0.1,0.1-0.2,0.3-0.1,0.4
		C5.1,12.9,4.4,13,3.5,13c-0.1,0-0.3,0-0.6,0C3.3,13.2,3.5,13.3,3.7,13.5z"/>
	<path class="st108" d="M5,8C4.1,7.9,3.1,8.3,2.2,7.8c0.9-0.4,2-0.2,2.9-0.2C5.5,7.7,5.3,8,5,8z"/>
	<path class="st109" d="M4.6,11.3c-0.4,0.6-1,0.4-1.6,0.4c-0.4,0-0.9-0.2-1,0.4c-0.3-0.4-0.4-0.9,0.3-0.8c0.8,0,1.5-0.2,2.3-0.2
		C4.6,11.1,4.6,11.2,4.6,11.3z"/>
	<path class="st110" d="M87.2,13.5c0-0.2,0-0.4,0-0.6c0.3,0.5,0.6,0,0.9,0c0,0.2,0,0.5,0,0.7c0.2,0.2,0.2,0.4,0,0.7
		c0.1,0.5,0.3,0.6,0.8,0.6c1.1,0,2.3-0.3,3.3,0.5c-0.9,0.1-1.9,0.1-2.8,0.2c-0.5-0.1-1.1-0.4-1.5,0.2c-0.5,0-0.5-0.3-0.5-0.7
		C87.3,14.4,87.4,13.9,87.2,13.5z"/>
	<path class="st111" d="M87.2,13.5c0.3,0.3,0.2,0.8,0.2,1.2s0,0.8,0.4,1c-0.5,0.6,0,1.4-0.1,2.1c-0.1,0.6-0.3,1.1-0.5,1.6
		c-0.5-0.5-0.9,0.5-1.3,0.1c-0.1-0.2-0.3-0.4-0.4-0.7c0.9-0.5,1.3-1.4,1.7-2.4C87.2,15.3,87.2,14.4,87.2,13.5z"/>
	<path class="st112" d="M88.1,14.1c0-0.2,0-0.4,0-0.7c0.8,0,1.6,0,2.4,0c0.6,0,1.2-0.2,1.7,0.2C90.8,14.1,89.4,14,88.1,14.1z"/>
	<path class="st113" d="M6.3,19.3c1.1-0.7,1.3-0.6,1.7,0.6c-0.2,0.9-0.7,1.4-1.7,1.1C6.3,20.4,6.3,19.9,6.3,19.3z"/>
	<path class="st114" d="M63.9,21c-2.9,0-5.8,0-8.7,0c-0.8,0-1.6-0.3-2.4,0c-2,0.1-4.1,0-6-0.6c0-0.7,0.6-0.8,1.1-0.7
		c3.3,0.4,6.5,0.4,9.8,0.1c2.3,0.1,4.6,0.5,6.9,0c0.8,0,1.6,0,2.2,0.7c0,0.1,0,0.2-0.1,0.3C65.7,21,64.8,20.8,63.9,21z"/>
	<path class="st115" d="M46.7,20.3c2,0.2,4.1,0.5,6.1,0.7c-0.8,0.4-1.6,0.3-2.4,0.2C48.2,21,46,21.1,43.7,21c-0.1-0.1,0-0.2,0-0.3
		c0.7-0.3,1.4-0.2,2.2-0.1H46c0.2,0,0-0.1,0-0.1c0-0.1,0.1-0.2,0.1-0.2C46.4,20.2,46.6,20.2,46.7,20.3z"/>
	<path class="st116" d="M80.5,20.2c-0.5,0.2-1,0.2-1.6,0.1c-1-0.2-1.9,0.4-2.9,0.3c-0.3,0-0.6,0.1-0.8-0.1c-0.4-0.7,0.3-0.6,0.6-0.8
		c0.3-0.1,0.7-0.3,1-0.3c1,0.1,1.9,0,2.9,0.1C80.1,19.5,80.7,19.4,80.5,20.2L80.5,20.2z"/>
	<path class="st117" d="M63.9,21c0.9-0.5,1.8-0.1,2.8-0.2c0.5-0.4,1.1-0.4,1.6-0.4c1.9-0.1,3.8-0.3,5.7,0.1c0.1,0.1,0.1,0.2,0.1,0.4
		c-1.4,0.2-2.8,0-4.3,0.1c-0.4,0-0.8-0.1-1.2,0.1C67,21,65.4,21.2,63.9,21z"/>
	<path class="st118" d="M74,20.8c0-0.1,0-0.1,0-0.2c0-0.2,0.1-0.3,0.3-0.4c0.3-0.1,0.5-0.1,0.8,0.1c0.9,0.1,1.8-0.1,2.7-0.2
		c0.4,0,0.9-0.2,1.2,0.2c-1,0.3-2,0.5-3,0.5C75.3,20.9,74.7,21,74,20.8z"/>
	<path class="st119" d="M43.7,20.8c0,0.1,0,0.1,0,0.2c-0.2,0.2-0.5,0.2-0.8,0.2c-2.4,0-4.8,0-7.2,0c0-0.1,0-0.1,0-0.2
		c0.1-0.1,0.2-0.2,0.3-0.2c1.5-0.2,2.9,0,4.4-0.1c0.5,0,1.1,0,1.6-0.1C42.6,20.5,43.2,20.3,43.7,20.8z"/>
	<path class="st120" d="M74,20.8c0.7,0,1.3,0,2,0c-0.7,0.4-1.5,0.2-2.3,0.2c-1.7,0-3.4,0-5.1,0c1.2-0.4,2.4-0.1,3.6-0.2
		C72.8,20.8,73.4,20.8,74,20.8z"/>
	<path class="st121" d="M35.7,21c0,0.1,0,0.1,0,0.2c-0.1,0-0.2,0-0.2,0.1c-1.9,0-3.7,0-5.6,0c0.3-0.5,0.8-0.2,1.2-0.2
		c1-0.1,2.1,0,3.1,0C34.7,20.7,35.2,20.6,35.7,21z"/>
	<path class="st122" d="M83.1,8.7c-0.3,0.3-0.6,0.6-0.6,1.1c-0.1,0.1-0.2,0.1-0.3,0.1c-0.5,0-1,0.1-1.4,0.4c0.6,0.5,1-0.3,1.6-0.1
		c0.6,0.6,1.6,0.2,2.2,0.9c0.3,0.7,0.4,1.5,0.4,2.3c-0.1,1.1,0.1,2.1,0.5,3c0,0.1,0.1,0.2,0.1,0.3c0,0.2,0,0.5,0,0.7
		c0,0.1-0.1,0.2-0.2,0.3c-0.1,0-0.1,0-0.2,0c-0.1-0.3-0.1-0.6-0.2-0.9c-0.1-0.4-0.2-1.1-0.9-1c-0.8,0.1-0.4,0.7-0.5,1.1
		c-0.5-0.1-0.4-0.4-0.4-0.7c0-0.6,0-1.3,0-1.9c-0.1,0.9,0,1.8-0.1,2.6c-0.2,0.4-0.4,0.2-0.6-0.1c-0.2-0.3-0.1,0.1-0.2,0.1
		c-1.3-0.6-1.9-0.5-2.7,0.5c-0.1,0.1-0.2,0.2-0.4,0.2c-0.4-0.1-0.6-0.4-0.8-0.7c0-0.1-0.1-0.2-0.1-0.3c0-0.7,0.3-1.4,0.8-2
		c0.7-0.8,0.8-1.8,0.3-2.8c-0.1-0.5-0.6-0.8-0.5-1.4c0-0.4,0.2-0.7,0.6-0.8c1-0.4,2-0.8,3.1-1.1C82.8,8.4,83,8.5,83.1,8.7z"/>
	<path class="st123" d="M80.5,20.1c-0.1-0.6-0.6-0.4-1-0.4c-1-0.1-2,0.2-3-0.2c0-0.2,0.1-0.3,0.3-0.3c1.4-0.1,2.8,0.3,4.1-0.3
		c0.4-0.2,0.8-0.3,1.2-0.1c0.4,0.6,0,0.9-0.4,1.2C81.4,20,80.9,20.1,80.5,20.1z"/>
	<path class="st124" d="M81.8,19.9c0.2-0.3,0.6-0.6,0.4-1.1c0-0.2,0.1-0.3,0.2-0.4c0.4-0.2,0.7-0.3,1.1,0c0.6,0.2,0.7,0.4,0,0.7
		c-0.3,0.1-0.5,0.2-0.6,0.4C82.7,20.2,82.3,20.1,81.8,19.9z"/>
	<path class="st125" d="M82.9,17.1c0.1-1.1-0.2-2.2,0.3-3.4c0.3,1.2-0.1,2.2,0.3,3.2c0,0.4,0,0.8,0,1.3
		C82.8,18.1,82.8,17.7,82.9,17.1z"/>
	<path class="st126" d="M82.9,17.1c0.3,0.3,0.1,0.9,0.6,1.1c0,0.1,0,0.2,0,0.2c-0.4,0-0.8,0-1.1,0.2c-0.3-0.5-0.6-1.1-0.2-1.7
		c0.1-0.3-0.1-0.7,0.2-1C82.9,16.2,82.4,16.9,82.9,17.1z"/>
	<path class="st127" d="M85.2,17.8c0-0.1,0-0.2,0-0.3c0.4,0.2,0.8,0.1,1-0.4c0.2-0.3,0.4-0.7,0.7-0.9c0.1,0,0.1,0,0.2,0
		c0,1.3-0.7,2.3-1.7,2.4C85.3,18.4,85.2,18.1,85.2,17.8z"/>
	<path class="st128" d="M16.7,19.3c0.2,0,0.4-0.4,0.7,0c-0.3,0.3,0.2,0.7-0.2,1c-0.4,0-0.8,0.1-1.1-0.1c0-0.1,0.1-0.2,0.1-0.3
		C16.3,19.7,16.2,19.3,16.7,19.3z"/>
	<path class="st129" d="M16.7,19.3c-0.3,0.2,0,0.7-0.4,0.9c-0.2-0.2-0.3-0.5-0.5,0c-0.3,0-0.6,0.1-0.7-0.4
		C15.4,18.6,16,19.1,16.7,19.3z"/>
	<path class="st130" d="M17.1,20.3c0-0.4-0.2-0.7,0.2-1c0,0.2,0.1,0.4,0.4,0.4c0.9,0,0.5,0.4,0.2,0.7C17.7,20.4,17.4,20.4,17.1,20.3
		z"/>
	<path class="st131" d="M15.8,20.1c0.1-0.3-0.4-0.4-0.2-0.7c0.1-0.1,0.3-0.1,0.4-0.1c0.4,0.1,0.3,0.5,0.3,0.8c-0.1,0-0.2,0-0.3,0
		C15.9,20.2,15.9,20.2,15.8,20.1z"/>
	<path class="st132" d="M46.7,20.3c-0.2,0-0.4,0.1-0.6,0.1L46,20.3c-0.1-0.4-0.5-0.5-0.9-0.5c-2.2,0.3-4.5,0.2-6.7,0
		c-0.3,0-0.6,0-0.8,0.2c-0.1,0.1-0.3,0.1-0.5,0.2c-0.3,0-0.6,0.2-0.9,0.4c-1,0.3-1.9-0.3-2.9-0.2c-0.7,0.1-1.3-0.1-1.9-0.3
		c-0.6-0.1-1-0.4-1.4-0.9s-0.8-0.5-1.3-0.1s-1,0.7-1.7,0.7c-0.2,0-0.4,0-0.6,0c-0.4-0.3-0.8-0.6-0.7-1.2c1.4-0.8,2.8-1.7,3.9-2.9
		c0.1-0.1,0.3-0.4,0.5-0.3c0.3,0.1,0.1,0.4,0.1,0.7c-0.1,1,0.2,1.9,1.1,2.4c0.9,0.5,1.5,0.4,2-0.5c0.2-0.4,0.4-0.8,0.8-1.2
		c0,0.8,0,1.8,1,2c1.4,0.3,1.7-1.1,2.5-1.8c0.4,1.8,0.6,1.9,2.4,1.4c0.3-0.1,0.5,0.1,0.7,0.2c0.9,0.4,1.8,0.4,2.7,0
		c0.4-0.2,0.7-0.2,1.1,0.1c0.8,0.6,1.7,0.1,2.4-0.3c0.4-0.3,0.7-0.4,1.2,0c0.6,0.5,1.3,0.7,2,0.1c0.2-0.2,0.3-0.2,0.6-0.1
		c2,0.7,4,0.9,6-0.2c0.4-0.2,0.6-0.2,0.9,0.1c0.4,0.4,1,0.7,1.3,0.4c0.8-0.8,1.4-0.2,2.1,0.1c1,0.4,2,0,2.9-0.6
		c0.2-0.2,0.4-0.5,0.8-0.1c1,1.1,2.2,0.9,3.3,0.3c0.5-0.3,0.8-0.4,1.4,0c0.9,0.7,1.8,0.4,2.3-0.7c0.2-0.3,0.1-0.8,0.5-1
		c0.2,0.2,0.1,0.4,0.1,0.6c0,1.4,0.8,1.9,2,1.4c0.3-0.1,0.7-0.3,1-0.4c0.6,0.1,0.2,0.4,0.1,0.5c-0.3,0.4-0.8,0.6-1.1,0.9
		c-0.5,0.3-1.1,0.3-1.7,0.4c-1,0.3-2.1,0.3-3.2,0.1c-0.5-0.1-0.9,0.1-1.4,0.2c-0.4,0.1-0.9,0.3-1.3,0c-0.7-0.2-1.5-0.3-2.2-0.5
		c-0.5-0.3-1,0-1.6-0.1c-1.7-0.1-3.4-0.2-5.1,0c-2.3,0.3-4.5,0.4-6.8,0.1c-1.1-0.1-2.2,0.1-3.2-0.3C47.4,19.8,47,20.1,46.7,20.3z"/>
	<path class="st133" d="M27.1,19.7c0.7-0.1,1.3-0.5,1.7-1c0.6-0.5,1-0.3,1.3,0.2c0.4,0.5,0.9,0.8,1.4,1.2C30,20,28.5,20,27,19.9
		C27,19.9,27,19.8,27.1,19.7z"/>
	<path class="st134" d="M27.1,19.7c0,0.1,0,0.1-0.1,0.2c-0.6,0.2-1.2,0.3-1.7,0.8c-0.2,0.2-0.5,0.1-0.7,0.2
		c-0.3-0.1-0.6-0.1-0.9-0.2c-0.1,0-0.2-0.1-0.3-0.1c-0.4-0.3-0.8-0.6-0.6-1.2c0.2-0.2,0.3-0.3,0.6-0.2h0.1c1,0.2,2.1-0.1,3.1,0.5
		C26.6,19.7,26.8,19.7,27.1,19.7z"/>
	<path class="st135" d="M33.4,20.4c0.4-0.3,0.9-0.4,1.4-0.2c0.5,0.2,1,0.2,1.6,0.1c0.2,0.6-0.4,0.5-0.6,0.7l0,0c-0.5,0-1,0-1.5,0
		C34.2,20.4,33.5,20.7,33.4,20.4z"/>
	<path class="st136" d="M24.5,20.8c0.3,0,0.6,0,0.8,0c0.5,0.1,1.1-0.2,1.5,0.3c-0.6,0-1.3,0-1.9,0c-0.1,0.1-0.3,0.1-0.4,0.1
		C24.4,21,24.4,20.9,24.5,20.8z"/>
	<path class="st137" d="M21.9,20.4c-1.4,0-1.5,0-1.4-1.5c0.1-1-0.8-0.9-1.3-1.2c-0.5-0.3-0.6-0.3-0.4-0.9c0.3-0.7,0.2-1.4-0.9-1.5
		c-0.1-0.4,0.3-0.4,0.5-0.6c0.2-0.1,0.3-0.2,0.5-0.2c0.1,0,0.3,0,0.4,0s0.2,0.1,0.3,0.1c0.5,0.1,0.9,0.3,0.8,0.9
		c0,0.3,0.1,0.5,0.3,0.6c0.4,0.4,0.5,0.9,0.6,1.3c-0.2,0.8,0.3,1.5,0.4,2.2c0,0.2,0.3,0.3,0.1,0.6h-0.1
		C21.9,20.4,21.9,20.4,21.9,20.4z"/>
	<path class="st138" d="M19.5,14.8c-0.1,0-0.3,0-0.4,0C18.8,13,19,11.2,19,9.4c0-0.8-0.2-1.3-1.1-1.4c-3.1-0.1-3.1-0.1-3.1,3
		c0,0.4,0,0.7,0,1.1c0,0.4,0,0.9,0.1,1.3c0.1,0.4,0.1,0.7,0.3,1c0.1,0.4,0.9,0.3,0.7,1c-0.4-0.1-0.8-0.2-1.3-0.3
		c-0.1-0.1-0.3-0.1-0.4-0.2c-0.6-0.5-0.5-1.2-0.4-1.8c0.2-1.4,0.1-2.9,0.2-4.3c0-0.3-0.1-0.6,0.1-0.9l0,0c1.3-1.4,4.4-1.3,5.6,0.2
		c0.2,2,0.1,4.1,0.1,6.1C19.8,14.3,19.7,14.6,19.5,14.8z"/>
	<path class="st139" d="M21.9,20.4c0-0.6-1-0.9-0.3-1.6c0.1-0.1-0.1-0.1-0.2-0.2c-0.6-0.5-0.6-0.5,0.1-0.9c0.6,0.3,0.9,0.6,1.3,1.9
		c0,0.5,0.5,0.7,0.7,1c-0.1,0.2-0.3,0.3-0.5,0.4c-0.4,0-0.7,0-1-0.2l0,0C21.9,20.7,21.9,20.5,21.9,20.4z"/>
	<path class="st140" d="M15.9,15.4c0.1-0.7-0.9-0.2-0.8-0.8c0.2-0.3,0.5-0.3,0.8-0.2c0.7,0.2,1.4,0,2.1,0c0.3,0.1,0.5,0.2,0.6,0.5
		c-0.2,0.2-0.4,0.4-0.6,0.6C17.3,15.4,16.6,15.4,15.9,15.4z"/>
	<path class="st141" d="M21.9,20.8c0.4,0,0.7,0,1.1,0c0.2-0.1,0.4-0.1,0.6-0.1s0.5-0.1,0.7,0.2c0,0.3-0.3,0.2-0.5,0.3
		C23.2,21.2,22.4,21.4,21.9,20.8z"/>
	<path class="st142" d="M23.9,21.2C24,21,24.1,21,24.3,21c0.1-0.1,0.1-0.1,0.2,0c0.1,0,0.3,0,0.4,0C24.6,21.4,24.2,21.1,23.9,21.2z"
		/>
	<path class="st143" d="M79,10.4c0.2,0.4,0.6,0.7,0.7,1.2c0.2,0.6-0.1,1.1-0.6,1.5c-0.4,0.3-0.5,0-0.3-0.4c-0.1-1.9-1.4-2.8-3.2-2.1
		c-0.4,0.2-0.8,0.2-1.2,0c-0.6-0.3-1.3,0-2-0.1c-1.1-0.2-2.2,0.2-3.4-0.2c-0.5-0.2-1.2,0-1.5,0.3c-0.9,0.7-1.6,0.4-2.3-0.3
		c0.1-0.3,0.3-0.4,0.5-0.7c0.6,0.3,1.1,0.4,1.8,0c0.5-0.3,1-0.4,1.6-0.3C71,9.6,73,9.1,74.9,9.6c0.2,0,0.4,0,0.5-0.1
		C76.6,9.3,77.9,9.5,79,10.4z"/>
	<path class="st144" d="M55.4,5.7c1.2,0,2.5,0,3.7,0c1.3,0.1,2.6,0.2,3.8,0.2c3.6,0.2,7.2,0.6,10.7,0.5c1.3,0,2.7,0,3.9-0.5
		c0.3-0.1,0.7-0.1,0.9,0.2c0.2,0.3,0.6,0.1,1,0.4c-1.4,0.3-2.7,0.7-4,0.7c-2.3,0-4.7,0.1-7,0C65.5,7,62.5,7,59.6,6.4
		C58.3,6.1,56.8,6.1,55.4,5.7z"/>
	<path class="st145" d="M65.6,9.8c0.3,0.5-0.1,0.6-0.5,0.7c-0.6,0-1.2-0.1-1.8,0.1c-0.6,0.2-0.7,0-0.7-0.6c-0.1-1.3-0.7-1.8-2-1.8
		c-0.9,0-1.2,0.6-1.4,1.3c-0.5,0.3-0.8,0-0.9-0.5c0-0.2,0-0.3,0-0.5c0.1-0.5,0.4-0.8,0.9-0.9c2-0.7,3.1-0.4,4.2,1.3
		c0.3,0.4,0.6,0.6,1,0.6C64.8,9.5,65.2,9.5,65.6,9.8z"/>
	<path class="st146" d="M53.3,9.3c-0.9-1.5-2.7-1.6-3.5-0.2c-0.4,0.8-0.5,0.8-1,0.1c-0.2-0.4,0-0.8,0.2-1.2c0.4-0.8,1.2-0.7,1.9-0.8
		c0.6,0.1,1.2,0.2,1.8,0.2c0.6,0.2,1.1,0.4,1.3,1c0.1,0.3,0.2,0.5,0.1,0.8C53.9,9.6,53.6,9.6,53.3,9.3z"/>
	<path class="st147" d="M43.5,9.1c0.3-0.8,0.1-1.6-0.2-2.3c0.3,0,0.6,0,0.9,0c0.4,0,0.7,0.3,1,0.5c0.5,0.2,0.6,0.7,0.7,1.1
		C46,8.7,46,9,45.9,9.3c-0.3,0.8-0.9,0.9-1.6,0.8C43.7,9.9,43.3,9.7,43.5,9.1z"/>
	<path class="st148" d="M53.9,8.5c-0.4-0.3-0.8-0.7-1.2-1c2.1-0.2,4.3,0.3,6.4,0.2c-0.2,0.3-0.5,0.6-0.7,0.9
		C56.9,8.6,55.4,8.7,53.9,8.5z"/>
	<path class="st149" d="M45.7,8.3c-0.2-0.4-0.3-0.7-0.5-1.1c1.9,0,3.8,0,5.7,0c-0.6,0.2-1.3,0.3-1.7,0.9C48,8.3,46.8,8,45.7,8.3z"/>
	<path class="st102" d="M78.5,6.1c-0.3,0-0.6,0-0.9,0c-0.6,0.3-1.3,0.1-1.9,0.1c-1.6,0-3.2,0-4.7,0c-0.5,0-1,0.1-1.4-0.4
		c0.1-0.3,0.3-0.4,0.6-0.4c1.2-0.1,2.5-0.2,3.7,0.1c0.1,0,0.2,0.1,0.3,0C74,5.5,74,5.4,74,5.2c1.5-0.2,2.9,0.7,4.4,0.5
		c0.3,0,0.6,0,0.8,0C79.2,6.1,78.9,6.1,78.5,6.1z"/>
	<path class="st150" d="M74,5.2c0.3,0.4,0.8,0.1,1.2,0.4c-2,0-3.8,0-5.6,0C69.4,5.9,69.2,6,68.9,6c-2.9,0.1-5.7-0.1-8.6-0.2
		c-0.1,0-0.2-0.1-0.3-0.1c-0.1-0.1-0.1-0.2-0.2-0.4c2.3,0,4.6,0,6.9-0.1c0.3,0,0.7,0.1,1-0.2c1.8-0.1,3.6,0.1,5.4-0.2
		C73.4,4.8,73.9,4.6,74,5.2z"/>
	<path class="st151" d="M39,8.5c-0.2,0.7-0.7,1.1-1.3,1.9c0-0.9,0-1.5,0-2.1C38.1,8.3,38.5,8.4,39,8.5z"/>
	<path class="st152" d="M60,5.6c3.2-0.2,6.5,0.1,9.7,0c0.6,0.3,1.3,0.2,1.9,0.2c2,0,4.1-0.1,6.1,0.3c-1,0.8-2.3,0.6-3.4,0.6
		c-5,0.1-9.9-0.3-14.9-0.8c-0.1,0-0.2-0.1-0.3-0.2C59.4,5.7,59.7,5.7,60,5.6z"/>
	<path class="st153" d="M42,9.1c-0.7,2.2-1.4,4.3-2.1,6.5c-0.3-0.2-0.6-0.4-0.9-0.6c0.1-0.8,0.3-1.5,0.5-2.4
		c-1.2,0.8-1.5,2.2-2.6,2.9c-0.8-0.2-1.4,0.2-1.9,0.9c0-0.7,0-1.4-0.1-2.1c-0.1-0.1-0.1-0.2-0.1-0.3s0.1-0.2,0.1-0.3
		c0.4-0.3,1-0.4,1.4-0.8c0.6-0.7,1-1.5,1.8-2c0.6-0.7,1.2-1.4,1.8-2.2C40.6,8.7,41.4,8.3,42,9.1z"/>
	<path class="st154" d="M64.9,16.5C64.5,15.8,65,15,65,14.3c0-0.4,0.1-0.6,0.4-0.8c0.5-0.5,1-1,1.5-1.5c0.7-0.6,1.5-0.9,2.4-0.4
		c0.7,0.4,0.7,1.1,0.6,1.8c-0.3,1-0.9,1.5-2,1.7c-0.5,0.1-1.4-0.5-1.2,0.7C66.1,16,65.3,15.7,64.9,16.5z"/>
	<path class="st155" d="M22.3,13.2c-0.1-1.7,0.3-3.3,1.3-4.8c0.7-0.3,1.7-0.1,2-1.1c0.1-0.1,0.2-0.2,0.4-0.2
		c0.3,0.7,0.4,1.4,1.3,1.8c0.6,0.3,0,0.7-0.3,0.7c-1.1,0.1-1.1,0.7-0.9,1.5c-1.1,0.7-2.3,1.3-3.4,2.1C22.5,13.4,22.4,13.3,22.3,13.2
		z"/>
	<path class="st154" d="M65.4,13.5c0,0.3-0.2,0.6-0.4,0.8c-1,0.9-2.3,0.8-3.5,0.9c-0.4,0.3-0.8,0.3-1.3,0.2c-0.5-0.5,0-1,0.2-1.5
		c0.3-0.6,0.6-1.2,1.1-1.7c0.1-0.1,0.3-0.2,0.4-0.1c0.6-0.2,1-0.7,1.7-0.7c1.2-0.1,1.7,0.4,1.6,1.6C65.2,13.3,65.2,13.4,65.4,13.5z"
		/>
	<path class="st156" d="M74.2,12.4c0.6-0.3,1.1-1,2-0.9c0.6,0.1,1.2,0.2,1.2,0.9c0,0.6-0.6,0.9-1.2,0.7c-0.1,0-0.2,0-0.3,0
		c0.8,2-0.1,3.8-2,4.4c-0.3,0.1-0.6,0.2-0.8-0.1c-0.2-0.4,0.2-0.5,0.4-0.6c0.8-0.3,1-0.9,0.6-1.6c-0.4-0.8-0.1-1.5-0.1-2.3
		C74,12.6,74.1,12.5,74.2,12.4z"/>
	<path class="st157" d="M29.2,14.9c-1.2,1.5-2.7,2.6-4.4,3.3c-0.5,0.2-0.9,0.2-1.3-0.3c-0.7-1.2-1.2-2.4-1.2-3.8
		c0.1-0.2,0.3-0.4,0.5-0.2c1,1.7,2.3,2.1,4.2,1.4c0.6-0.2,1.1-0.6,1.7-0.7C29,14.6,29.2,14.6,29.2,14.9z"/>
	<path class="st154" d="M74.2,12.4c0,0.2,0,0.4-0.2,0.5c-0.5,0.4-0.9,1.3-1.7,0.4c-0.2-0.2-0.3,0.2-0.4,0.3
		c-0.3,0.7-0.6,1.5-0.9,2.2c-0.1,0.2-0.1,0.4-0.4,0.4c-0.4,0.2-0.8,0.3-1.1-0.2c-0.2-0.7,0.3-1.3,0.5-1.9c0.2-0.5,0.5-1.1,0.6-1.6
		c0.1-0.9,0.6-1,1.2-0.7c0.4,0.1,0.6,0,0.9-0.1C73.4,11.4,74.1,11.4,74.2,12.4z"/>
	<path class="st153" d="M48.7,14.3c0.6-1.5,1.1-2.9,1.7-4.4c0.5,0,1-0.1,1.5,0.1c-0.1,1-0.6,1.8-1,2.8c0.7-0.2,1.2-0.7,1.7-1
		c0.2-0.1,0.4-0.4,0.7-0.2c0.3,0.3,0,0.5-0.1,0.8c-0.3,0.8-0.7,1.5-1.3,2.1c-0.7,0-1.5-0.1-2.2,0.1C49.4,14.6,49,14.6,48.7,14.3z"/>
	<path class="st158" d="M29.2,14.9c-0.2-0.1-0.3-0.1-0.5-0.2c0-0.5,0.4-0.8,0.6-1.1c0.5-0.7,0.8-1.4,0.6-2.2
		c-0.2-1.4,0.3-2.5,1.7-3.3C32.3,8.2,33,8,33.5,8.5C32.4,10.9,31.2,13.1,29.2,14.9z"/>
	<path class="st159" d="M78.8,12.8c0.1,0.1,0,0.5,0.2,0.2c0.3-0.4,0.6-0.8,0.6-1.3c0.6,0.9,0.6,1.8,0.1,2.6c-0.5,0.8-1,1.5-1.2,2.4
		c-1.2,0.9-2.2,1.9-3.1,3.2c-0.4,0.1-0.9,0.3-1.3-0.1c0-0.7,1.1-0.5,1-1.3c1.2-1,2.2-2.1,2.3-3.8C77.6,14,78.3,13.4,78.8,12.8z"/>
	<path class="st160" d="M33.5,8.5c-0.6-0.1-1.3,0.2-1.9-0.2c-0.5-0.8-1.2-1-2.2-1c-1.1,0-2.3,0.1-3.4-0.1c-0.1,0.1-0.2,0.1-0.3,0.2
		c-0.5,0.4-1,0.7-1.6,0.2c0.1-0.5,0.5-0.7,1-0.9C27.5,6,30,6,32.5,6.5C34.2,6.9,34.2,6.9,33.5,8.5z"/>
	<path class="st161" d="M32.9,11.5c0.7-1,1.2-2.1,1.7-3.3C35.1,7.1,35.5,7,36.4,8c0.2,1.1,0.1,2.1,0.1,3.2c-0.8,0.7-1.9,0.7-2.9,0.8
		C33.3,12,33,11.8,32.9,11.5z"/>
	<path class="st154" d="M61.9,12.2c-0.1,0.1-0.1,0.1-0.2,0.2c-0.9,0.5-1.5,1.2-1.7,2.2c-0.1,0.3-0.2,0.6-0.6,0.7
		c-0.5-0.1-0.9-0.2-1.3-0.5c0.6-1.8,1.3-3.5,1.9-5.3c0.3,0.4,0.7,0.8,1.1,1.1c0.1,0.4-0.4,1,0.5,0.9C62,11.5,61.9,11.9,61.9,12.2z"
		/>
	<path class="st153" d="M45.6,13c0.5-0.9,1.1-1.7,2.3-1.6c0.5,0.1,1.1,0.2,1,0.8s-0.5,0.9-1.2,0.7c-0.4-0.1-0.4-0.1-0.3,0.3
		c0.2,0.5,0.4,0.9,0.2,1.5c-0.6,0.5-1.2,0.5-1.9,0.5c-0.2,0-0.3-0.1-0.4-0.3C45.2,14.3,45,13.6,45.6,13z"/>
	<path class="st162" d="M53.9,13.1c0.5-0.4,0.9-0.8,1.4-1.2c1-0.6,2.1-0.6,2.5,0c0.5,0.7,0.3,1.8-0.5,2.6c-0.4,0-0.7-0.1-0.9-0.4
		c-0.1-0.3,0.1-0.7-0.2-1c-0.4,0.3-0.2,0.9-0.6,1.2c-0.7,0.2-1.4,0.2-2-0.2C53.2,13.6,53.6,13.3,53.9,13.1z"/>
	<path class="st163" d="M32.9,11.5c0.8,0.5,1.6,0,2.5-0.1c0.3,0,0.6-0.1,0.9-0.1c0.6,0.6,0.2,1.2,0,1.8c-0.4,0.3-0.9,0.6-1.5,0.6
		c-0.1-0.1-0.2-0.6-0.5-0.1c-0.1,0.1-0.3,0.2-0.5,0.2c-0.7-0.1-1.5,0-1.8-0.8C31.9,12.2,32.8,12.1,32.9,11.5z"/>
	<path class="st164" d="M42.2,14.8c0,0.3,0,0.6-0.1,1c0,0.8,0.3,0.8,0.8,0.3c0-0.5,0.2-0.9,0.7-1.2c0.3-0.1,0.6-0.1,0.8,0.1
		c0.2,1.2-0.5,1.9-1.4,2.5c-0.8,0.5-1.6,0.4-2.4-0.1c-0.2-0.1-0.2-0.3-0.3-0.4c-0.1-0.8-0.2-1.5,0.4-2.1
		C41.2,14.2,41.7,14.2,42.2,14.8z"/>
	<path class="st165" d="M54.8,15.1c0,1,0.4,1.2,1.4,0.9c0.2-0.1,0.5-0.3,0.6,0c0.1,0.2-0.1,0.5-0.3,0.6c-1.3,1.3-3,1.4-3.5-0.1
		c-0.4-0.7-0.4-1.4,0.2-2c0.6-0.3,1.2-0.2,1.7,0c0.2,0,0.5,0.2,0.5,0.4C55.3,15.2,55,15,54.8,15.1z"/>
	<path class="st166" d="M43.5,9.1c0.1,0.5,0.4,0.7,0.9,0.7c0.6,0,1.1,0,1.3-0.7c1.1,0.6,2.2,0.1,3.3,0c0.2,0.9,0.5,0.4,0.8,0.1
		c0,0.9-0.1,1.7-1.4,1.3h-0.1c-1.2,0.7-2.6-0.1-3.8,0.5c-0.4,0.2-1-0.2-1.2-0.4C42.9,10,43.3,9.5,43.5,9.1z"/>
	<path class="st167" d="M53.3,9.3c0.3,0,0.7,0.1,0.9-0.3c1.5,0.7,2.9,0.2,4.3-0.2c0,0.5,0.1,0.7,0.7,0.7c-0.1,1.3-0.1,1.3-1.3,0.9
		c-0.8-0.2-1.5,0-2.3,0.3c-0.3,0.1-0.6,0.7-0.9,0.2C54.2,10.4,52.8,10.7,53.3,9.3z"/>
	<path class="st168" d="M60.2,15.4c0.4-0.3,0.8-0.2,1.3-0.2c0.5,0.7,1.1,1.4,2.1,0.7c0.3-0.2,0.5,0.1,0.3,0.4
		c-0.5,0.8-1.3,1.2-2.2,1.3c-0.9,0.1-1.4-0.5-1.6-1.3c-0.2-0.2-0.2-0.5-0.1-0.7C60.1,15.5,60.2,15.4,60.2,15.4z"/>
	<path class="st154" d="M42.2,14.8c-0.5-0.3-1-0.1-1.5,0c0.1-1,0.7-1.9,1-2.9c0.2-0.5,0.7-0.3,1-0.3c0.4,0,0.7,0.2,0.6,0.7
		C43.2,13.2,43,14.1,42.2,14.8z"/>
	<path class="st169" d="M22.8,13.9c-0.1,0.1-0.3,0.1-0.4,0.2c0-0.3,0-0.6,0-0.9c0.6,0,0.8-0.6,1.3-0.9c0.7-0.5,1.5-0.8,2.4-1.1
		c0.6-0.1,1,0.2,1.1,0.8s-0.1,1.2-0.7,1.6c-0.2,0.2-0.5,0.1-0.7-0.1c-0.8-0.8-1.6-0.5-2.4,0.1C23.1,13.8,22.9,13.9,22.8,13.9z"/>
	<path class="st170" d="M52.8,17c-0.6,0.9-1.6,0.6-2.2-0.5c-0.4-0.5-0.6-1.1-0.3-1.8c0.5-0.5,1.1-0.4,1.8-0.3
		C52.9,15.1,52.7,16.1,52.8,17z"/>
	<path class="st143" d="M22.7,19.5C22,19,22,18.1,21.4,17.6c-0.2-0.5-0.4-0.9-0.7-1.4c-0.4-0.4-0.4-0.9,0-1.3c0-0.2-0.1-0.5,0.3-0.6
		c0.5-0.1,0.3,0.5,0.6,0.6c0.3,1.2,0.7,2.4,1.4,3.5c0.2,0.3,0.2,0.5,0.2,0.8C23.1,19.4,22.9,19.4,22.7,19.5z"/>
	<path class="st171" d="M64.9,16.5c0.2-1,0.4-1.1,1.8-0.7c0.4,0.4,0.9,0.4,1.4,0.1c0.3-0.2,0.7-0.2,0.5,0.2c-0.4,0.8-1.2,1.2-2,1.4
		C65.7,17.7,65.1,17.4,64.9,16.5z"/>
	<path class="st172" d="M40.3,16.9c1.5,1.2,3.4,0.5,3.8-1.4c0.1-0.2,0.2-0.4,0.3-0.6c0.1-0.8,0.2-1.7,1-2.2c0.1,0.1,0.1,0.2,0.2,0.2
		c-0.2,0.7-0.2,1.3,0,2c-0.4,0.7-0.6,1.5-1.3,2c-0.9,1.1-1.9,1.4-3.2,0.9c-0.2-0.1-0.5-0.2-0.7-0.2C39.5,17.5,40.1,17.2,40.3,16.9z"
		/>
	<path class="st173" d="M45.9,15.2c0.6-0.4,1.3-0.3,1.9-0.5c-0.2,1.4-1,2.2-2.3,2.7c-0.4,0.2-0.8,0.2-0.9-0.3
		C45,16.4,45.7,16,45.9,15.2z"/>
	<path class="st174" d="M52.8,17c-0.2-0.8-0.4-1.6-0.7-2.4c-0.1,0-0.1-0.1-0.1-0.1c0-0.1,0-0.1,0-0.1c-0.2-1,0.6-1.4,1.1-2
		c0.2,0.3,0.6,0.3,0.7,0.7c-0.1,0.3-0.3,0.6-0.4,0.8c0.1,0.3-0.1,0.5-0.3,0.6c-0.4,0.6-0.2,1.3-0.3,2C52.9,16.6,52.9,16.8,52.8,17z"
		/>
	<path class="st175" d="M48.7,17.4c-1.1-0.7-0.5-1.6-0.2-2.4c0.8-0.6,1.1-0.6,1.7,0.1c0.1,0.7-0.3,1.3-0.5,1.9
		C49.4,17.4,49.2,17.6,48.7,17.4z"/>
	<path class="st176" d="M31.6,17.4c-0.8-0.7-0.9-1.5-0.2-2.4c0.5-0.4,1.1-0.4,1.6-0.1C33.4,16.1,32.6,17.5,31.6,17.4z"/>
	<path class="st177" d="M33.2,15c-0.6,0-1.2,0-1.7,0c-0.1-0.8,0.5-1.3,0.7-1.9c0.6,0.5,1.3,0.3,1.9,0.7C34.1,14.4,34.1,15,33.2,15z"
		/>
	<path class="st178" d="M59.3,15.2c0.2-0.4,0.4-0.8,0.5-1.3c0.2-1,0.9-1.5,1.8-1.6c-0.6,1-1.5,1.8-1.5,3.1H60
		c-0.4,0.6-0.6,1.2-0.9,1.9c-0.1,0.4-0.3,0.8-0.8,0.5c-0.2-0.1-0.2-0.2-0.2-0.4C58.6,16.7,58.7,15.8,59.3,15.2z"/>
	<path class="st179" d="M59.3,15.2c-0.3,0.7-0.2,1.7-1.1,2.1c-1.1-0.8-0.5-1.7-0.2-2.6C58.5,14.7,59,14.8,59.3,15.2z"/>
	<path class="st180" d="M45.4,12.8c-0.3,0.7-0.7,1.5-1,2.2c-0.3,0-0.6,0-0.8,0c-0.3-0.7,0.1-1.1,0.5-1.6c0.2-0.4,0.3-0.8,0.5-1.2
		c0.1-0.3,0.1-0.7,0.5-0.6c0.4,0.1,0.4,0.5,0.4,0.9C45.4,12.6,45.4,12.7,45.4,12.8z"/>
	<path class="st181" d="M33.2,15c0.6-0.2,0.6-0.8,0.9-1.3c0.1-0.3,0.4-0.6,0.7-0.5c0.2,0,0.1,0.4,0.2,0.5c0,0.1,0,0.1-0.1,0.2
		c-0.8,1.1-1.2,2.3-1.9,3.4c-0.3,0.4-0.5,0.8-1.1,0.5c-0.2-0.1-0.2-0.2-0.2-0.4c0.5,0.2,0.7-0.2,0.8-0.6
		C32.7,16.2,32.9,15.6,33.2,15z"/>
	<path class="st182" d="M34.9,16.3c0.4-1.3,0.5-1.4,1.9-0.9c-0.1,0.5-0.4,0.9-0.7,1.3c-0.3,0.3-0.4,0.9-0.9,0.7
		C34.6,17.2,34.9,16.7,34.9,16.3z"/>
	<path class="st183" d="M53.3,14.5c0-0.3,0.1-0.4,0.3-0.6c0.7,0.3,1.4,0.2,2.2,0.2c0.2-0.2,0.5-0.1,0.7,0c0.3,0,0.6,0.2,0.9,0.4
		c-0.7,0.8-1.7,0.6-2.6,0.6c0.1-0.1,0.3-0.1,0.4-0.2c0.1-0.3-0.2-0.2-0.3-0.2C54.3,14.4,53.8,14.6,53.3,14.5z"/>
	<path class="st184" d="M36.4,13.1c0-0.6,0-1.2,0-1.8c0-1.1,0-2.2,0.1-3.2c0.4,0.4,0.2,0.9,0.2,1.3c0,1.5,0,1.5,1.5,1.5
		C37.5,11.6,36.9,12.3,36.4,13.1z"/>
	<path class="st185" d="M42,9.1c-0.6-0.5-1.5,0.1-2.1-0.4c0.3-0.5,0.8-0.8,1.3-1c0.3-0.2,0.8-0.3,1.1,0.1c0.3,0.3-0.1,0.6-0.2,0.8
		C42,8.8,42,8.9,42,9.1z"/>
	<path class="st186" d="M39,15c0.5,0,0.9,0,0.9,0.6c-0.2,0.5-0.3,1-0.5,1.5c-0.1,0.2-0.4,0.4-0.6,0.2c-0.2-0.1-0.2-0.3-0.2-0.6
		C38.6,16.2,38.7,15.6,39,15z"/>
	<path class="st187" d="M48.7,17.4c0.7,0.1,0.7-0.5,0.9-0.9s0.3-0.9,0.5-1.3c0.2-0.1,0-0.5,0.4-0.4c0.1,0.6,0.1,1.2,0.2,1.7
		c-0.6,0.1-0.5,0.6-0.7,1c-0.2,0.3-0.4,0.5-0.8,0.5C48.7,18,48.7,17.7,48.7,17.4z"/>
	<path class="st101" d="M38.7,14.3c-0.6,1.4-1.7,2.6-2.6,3.8c-0.1,0.1-0.3,0.2-0.5,0.1s-0.1-0.2,0-0.3
		C36.8,16.7,37.5,15.3,38.7,14.3z"/>
	<path class="st188" d="M26.4,19.7c-1,0-2.1,0.2-3.1-0.5c0.8-0.2,1.7-0.2,2.4-0.6C26,19,26.2,19.4,26.4,19.7z"/>
	<path class="st159" d="M24.2,7.6c0.5-0.1,1.1-0.1,1.6-0.2c-0.1,0.9-1.1,1.4-2.2,1.1C23.6,8,23.9,7.8,24.2,7.6z"/>
	<path class="st189" d="M50.4,14.8c-0.3,0-0.2,0.4-0.4,0.4c-0.4-0.8-1-0.4-1.5-0.2c0.1-0.2,0.2-0.4,0.2-0.6c1.1,0,2.3-0.6,3.4,0
		c0,0.1,0,0.2,0,0.2C51.5,14.5,51,14.6,50.4,14.8z"/>
	<path class="st190" d="M44.1,13.4c-0.2,0.5-0.3,1-0.5,1.6c-0.2,0.3-0.3,0.8-0.6,1.1c-0.3-0.1-0.3-0.3-0.2-0.6
		c0.3-0.7,0.5-1.5,0.9-2.2C44,12.5,43.9,13.5,44.1,13.4z"/>
	<path class="st191" d="M45.9,15.2c0.4,1.2-0.7,1.4-1.3,1.9c-0.1,0-0.1,0-0.2,0c-0.2-0.1-0.2-0.3,0-0.4c0.6-0.4,0.4-1.5,1.3-1.7
		C45.7,15.1,45.8,15.1,45.9,15.2z"/>
	<path class="st192" d="M31.8,17.8c0.4,0,0.7-0.1,0.9-0.5c0.4-0.9,0.9-1.8,1.4-2.6c0.2-0.3,0.2-0.7,0.7-0.8c0,0.1,0,0.2,0,0.2
		c-0.6,1.2-1.2,2.3-1.8,3.5C32.7,18.3,32.3,18.4,31.8,17.8z"/>
	<path class="st193" d="M69.5,15.8c0.3,0.2,0.7,0.2,1.1,0.2c0,0.1,0,0.1,0,0.2c0,0.4,0.1,0.9-0.4,1.1c-0.2,0.1-0.6,0-0.7-0.2
		C69.1,16.7,69.1,16.3,69.5,15.8z"/>
	<path class="st194" d="M76.5,15.9c-0.3,1.5-1.4,2.3-3,2.2C74.7,17.5,75.8,17,76.5,15.9z"/>
	<path class="st195" d="M64.5,16.4c-0.4,1.6-1.8,2.1-3.6,1.5C62.5,18,63.5,17.5,64.5,16.4z"/>
	<path class="st58" d="M53.9,17.9c1.5,0.2,2.5-0.4,3.4-1.4C57,18,55.4,18.6,53.9,17.9z"/>
	<path class="st194" d="M44.4,16.7c0,0.1,0,0.3,0,0.4c-1.1,1.3-2.1,1.5-3.3,0.6C42.4,18,43.5,17.6,44.4,16.7z"/>
	<path class="st196" d="M61,10.6c-0.7-0.1-1.2-0.3-1.1-1.1c0-0.5,0.4-0.4,0.7-0.3c0.2,0,0.4,0.2,0.4,0.5C61,10,61,10.3,61,10.6z"/>
	<path class="st101" d="M69,16.7c-0.5,1.4-1.9,1.9-3.4,1.1C67.1,18.1,68,17.4,69,16.7z"/>
	<path class="st197" d="M51.9,10c-0.5,0.2-1,0.4-1.5-0.1c0-0.4,0-0.9,0.6-0.8C51.6,9.2,52,9.3,51.9,10z"/>
	<path class="st91" d="M47.8,16.3c-0.1,1.2-1.2,1.9-2.7,1.7C46.2,17.6,47.1,17.2,47.8,16.3z"/>
	<path class="st198" d="M72.2,13.8c0.1,1.2-0.5,2.2-0.8,3.3c0,0.1-0.1,0.2-0.2,0.1S71,17,71.1,16.9C71.4,15.8,71.8,14.8,72.2,13.8z"
		/>
	<path class="st93" d="M58.4,17.8c0.5,0,0.6-0.4,0.8-0.8c0.3-0.6,0.3-1.3,1-1.6c0,0.3,0,0.6,0,0.9c-0.6,0.3-0.6,1-0.8,1.5
		C59,18.3,58.7,18.3,58.4,17.8z"/>
	<path class="st199" d="M20.8,15c-0.3,0.4,0.1,0.9,0,1.3c-0.3,0.2-0.6-0.1-0.5-0.3c0.3-0.8-0.2-0.9-0.8-1c0.3-1.5,0.1-3,0.1-4.6
		c0-0.9,0-1.8,0-2.7c-0.2-0.4-0.4-0.8-0.1-1.2c0.1-0.1,0.1-0.1,0.2-0.2c1.3,0.5,2.4,0,3.4-0.7c0.1,0,0.2,0,0.3,0.1
		c-1.5,1.9-2.5,4.1-2.9,6.5C20.4,13.2,20.5,14.1,20.8,15z"/>
	<path class="st200" d="M84.8,9.1c0.1-0.9,0.5-1.8,0.8-2.6c0.2-0.3,0.3-0.8,0.8-0.7c0.4,0.1,0.4,0.6,0.5,1c0.1,0.5,0.3,1,0.2,1.5
		c-0.2-0.6-0.5-0.8-1-0.2C85.8,8.5,85.3,8.8,84.8,9.1z"/>
	<path class="st201" d="M87,14.1c0,0.4,0,0.7,0,1.1c-0.2,0.2-0.1,0.5-0.3,0.7c-0.5,0.8-1,0.8-1.6,0.1c-0.4-0.7-0.4-1.5-0.3-2.3
		c0.1-0.5,0.2-1.1,0.9-1.1c0.7,0,1.1,0.3,1.2,1C86.9,13.8,86.9,14,87,14.1z"/>
	<path class="st202" d="M87,14.1c-0.3-0.2-0.2-0.4-0.3-0.7c-0.2-0.5-0.6-0.6-1.1-0.6c-0.6,0-0.6,0.4-0.7,0.8c-0.2,0.9,0,1.7,0.4,2.5
		c0.2,0.2,0.2,0.4,0,0.7c-0.5-0.8-0.7-1.7-0.7-2.7c0.1-1-0.2-2-0.2-3c-0.1-0.1-0.1-0.3,0-0.4l0,0c0.5-0.2,0.8,0,1.1,0.3
		C86.4,11.9,87.1,12.8,87,14.1z"/>
	<path class="st203" d="M85.3,16.7c0-0.2,0-0.4,0-0.7c1.1,0.8,1.2-0.5,1.7-0.9c0,0.2,0,0.4,0,0.6c-0.2,0.3-0.2,0.7-0.4,1
		c-0.4,0.8-0.7,0.8-1.3,0.1C85.3,16.8,85.3,16.8,85.3,16.7z"/>
	<path class="st204" d="M85.3,16.9c0.5,0.3,0.9,0.7,1.1-0.2c0.1-0.3,0.4-0.6,0.6-0.9c0,0.1,0,0.3,0,0.4c0,0.8-0.6,1.2-1,1.7
		s-0.5-0.3-0.7-0.4C85.3,17.3,85.3,17.1,85.3,16.9z"/>
	<path class="st205" d="M84.4,10.6c0,0.1,0,0.3,0,0.4c-0.5-0.1-0.9-0.3-1.4-0.2c-0.5,0-0.8-0.2-0.8-0.7c-0.1-0.1-0.1-0.3,0-0.4
		c0.1,0,0.1,0,0.2,0C83,10.3,83.7,10.4,84.4,10.6z"/>
	<path class="st206" d="M19.5,6.5c0.1,0.4,0.1,0.7,0.2,1.1c0.1,0.2,0,0.2-0.2,0.2c-1.8-0.9-3.6-1-5.5,0c-0.3-0.4-0.4-0.8-0.2-1.3
		c0.4,0,0.7,0,1.1,0c0.1,0.1,0.3,0.1,0.4,0c0.3-0.5,0.5-1.1,1.4-0.4c0.5,0.4,1.5,0.3,2.3,0.4c0.1,0.1,0.1,0.1,0.2,0
		C19.3,6.5,19.4,6.5,19.5,6.5z"/>
	<path class="st207" d="M19.3,6.5c0,0.1,0.1,0.3-0.1,0.3c0,0,0-0.2,0-0.3C19.1,6.5,19.2,6.5,19.3,6.5z"/>
	<path class="st208" d="M15.4,6.5c-0.1,0.2-0.3,0.3-0.4,0C15.1,6.5,15.2,6.5,15.4,6.5z"/>
	<path class="st74" d="M14.1,7.8c0.1,2.4-0.2,4.7,0.1,7.1c-0.4,0-0.9,0.1-1.3,0.1c-0.5,0.1-1.1,0.1-1.5-0.4s0.3-0.9,0.5-1.2
		c0.3-0.5,0.5-1,1.1-1c0.8,0,0.9-0.5,0.8-1.2c-0.3-0.3-0.2-0.6,0-0.9C14,9.6,13.6,8.7,14.1,7.8z"/>
	<path class="st98" d="M13.9,10.4c0,0.3,0,0.6,0,0.9c-0.6,0.3-1.1,0.6-1.7,0.9C12.4,11.3,13,10.8,13.9,10.4z"/>
	<path class="st209" d="M57.8,20.1c2-0.9,4.2-0.2,6.2-0.3c0.2,0,0.4,0.1,0.5,0.4c-1.4,0.3-2.7,0.5-4.1,0.1
		C59.7,19.9,58.7,20.5,57.8,20.1z"/>
	<path class="st120" d="M66.7,20.6c0.1,0,0.2,0,0.3,0c1.2-0.3,2.5-0.6,3.8-0.2c0.6,0.2,1.1-0.3,1.7-0.5c0.5,0.5,1.3-0.1,1.8,0.5
		c-0.1,0.1-0.1,0.1-0.2,0.2c-2.5-0.1-4.9,0-7.4,0.2C66.6,20.7,66.7,20.7,66.7,20.6z"/>
	<path class="st210" d="M37,20c0.1,0,0.3-0.1,0.4-0.1c0.9-0.4,1.7,0.1,2.5,0.1c1.7,0,3.5-0.3,5.2,0c0.3,0.1,0.6,0.1,0.9,0.3v0.1v0.1
		c-0.2,0.2-0.4,0.1-0.6,0.1c-2-0.1-3.9,0.1-5.9,0.1c-0.6-0.1-1.2,0.2-1.8,0.1C37.3,20.8,36.7,20.8,37,20z"/>
	<path class="st211" d="M39.4,20.6c2.2,0,4.4,0,6.7,0c0.2,0,0.4,0,0.6,0.1c0,0.1,0,0.1,0,0.2c-1,0-2,0-3,0c-0.6,0-1.2,0-1.8,0
		c-0.7,0.1-1.4,0-2.1,0.1C39.6,20.9,39.4,20.9,39.4,20.6z"/>
	<path class="st212" d="M75.7,19.7c-0.1-0.2-0.3-0.5,0-0.7c0.9-0.8,1.6-2,2.9-2.3c0,0.1,0,0.2,0,0.2c0,1-0.8,1.6-1.4,2.2
		c-0.1,0.1-0.3,0.2-0.4,0.2c-0.1,0.1-0.1,0.2-0.2,0.2c-0.2,0.1-0.4,0.3-0.6,0.4C75.9,19.9,75.7,19.9,75.7,19.7z"/>
	<path class="st213" d="M75.7,19.7c0.1,0.1,0.2,0.1,0.2,0.2c-0.4,0-0.6,0.2-0.9,0.4c-0.3,0-0.5,0-0.8,0.1c-0.6-0.1-1.3,0.2-1.8-0.5
		c0.6,0.1,1.2-0.2,1.7-0.2C74.7,19.7,75.2,19.7,75.7,19.7z"/>
	<path class="st214" d="M39.4,20.6c0.8,0.5,1.7,0.1,2.5,0.3c-1.1,0.4-2.2,0.1-3.3,0.2c-1,0-1.9,0-2.9,0c0.2-0.3,0.6-0.3,0.6-0.7
		c0-0.5,0.3-0.4,0.7-0.3c0,0.8,0.7,0.8,1.2,0.8C38.6,20.7,39,20.5,39.4,20.6z"/>
	<path class="st215" d="M79.2,17.5c0.1-0.1,0.1-0.1,0.2-0.2c0.2-0.2,0.4-0.5,0.8-0.6c0.6-0.2,1.2-0.2,1.6,0.2
		c0.4,0.4,0.6,0.9,0.3,1.4c-0.4,0.5-1,0.6-1.6,0.6c-0.3,0-0.6-0.3-0.9,0c-0.4,0.3-0.7,0.2-1.1-0.1C78.2,17.6,78.2,17.4,79.2,17.5z"
		/>
	<path class="st216" d="M79.4,18.8c0.1-0.5,0.7-0.5,0.8-0.3c0.3,0.5,0.7,0.2,1.1,0.2c0.5-0.1,0.8-0.3,0.7-0.8c0-0.5-0.4-0.8-0.9-0.9
		c-0.7-0.2-1.1,0.5-1.7,0.5c0.2-1.2,1.2-1,2-1.2c0.6-0.2,0.5,0.6,0.8,0.8c0.1,0.6,0.1,1.1,0.2,1.7c-0.1,0.1-0.2,0.1-0.2,0.2
		c-0.4,0-0.7,0.1-1,0.2C80.5,19.2,79.9,19.7,79.4,18.8z"/>
	<path class="st217" d="M79.2,17.5c-1.2-0.1-0.3,0.9-0.7,1.3c-0.4,0.8-0.9,0.8-1.5,0.3c0.6-0.7,1.2-1.3,1.6-2.1
		C79,17,79,17.3,79.2,17.5z"/>
	<path class="st218" d="M82.2,9.8c0,0.1,0,0.3,0,0.4c-0.1,0.1-0.2,0.3-0.3,0.4c-0.4,0.5-0.9-0.1-1.4,0.1c-0.1,0-0.3-0.3-0.3-0.4
		c0.1-0.4,0.6-0.4,1-0.5C81.5,9.7,81.9,9.3,82.2,9.8z"/>
	<path class="st219" d="M77,19.1c0.6,0.5,1.1,0.1,1.5-0.3c0.3,0.1,0.6,0.2,0.9,0c0.5,0.5,1.2,0.2,1.7,0.3c-1.4,0.8-2.9,0.5-4.4,0.2
		C76.9,19.2,77,19.2,77,19.1z"/>
	<path class="st220" d="M46.1,20.3c-2.9-0.5-5.8,0.5-8.7-0.4c0.2-0.7,0.9-0.4,1.3-0.4c2.3,0.3,4.6,0.2,6.9,0
		C46.4,19.4,46.6,19.7,46.1,20.3z"/>
	<path class="st221" d="M24.5,21c-0.1,0-0.2,0-0.2,0c-0.2-0.3-0.4-0.2-0.7-0.2c-0.1,0-0.1-0.1-0.1-0.1s0-0.1,0.1-0.1
		c0.3,0,0.6-0.1,0.9,0.2C24.5,20.9,24.5,20.9,24.5,21z"/>
	<path class="st222" d="M23.6,20.6c0,0.1,0,0.1,0,0.2c-0.2,0-0.4,0-0.6,0c0.1-0.2,0.3-0.2,0.4-0.2S23.5,20.6,23.6,20.6z"/>
	<path class="st223" d="M18.6,14.8c-0.1-0.1-0.3-0.2-0.4-0.3c0.6-1.1-0.4-1-0.9-1.3C17.1,13.1,17,13,17,12.7s0.3-0.6,0.5-0.5
		c0.6,0.2,0.6-0.3,0.8-0.5c0.5-0.9,0.3-1.9,0.2-2.8c0-0.6-0.7-0.5-1-0.9c0-0.4,0.3-0.2,0.5-0.3c1.1,0.1,1.3,0.6,1.3,1.6
		c-0.1,1.8,0.2,3.6-0.2,5.5C19,15,18.8,15,18.6,14.8z"/>
	<path class="st224" d="M19.5,7.8c0.1-0.1,0.1-0.1,0.2-0.2c0,2.4,0,4.7,0,7.1c0,0.1-0.1,0.2-0.2,0.3c0-0.1,0-0.1,0-0.2
		C19.5,12.5,19.5,10.1,19.5,7.8z"/>
	<path class="st225" d="M17.3,13.2c0.3,0.1,0.6,0.1,0.8,0.2c0.3,0.1,0.6,0,0.7,0.5c0,0.5-0.3,0.5-0.6,0.7c-1.1,0.3-2.1,0-3.2,0
		c-0.5-0.2-0.3-0.7-0.3-1.1c0.4-0.6,1-0.5,1.5-0.6C16.6,12.9,17,13,17.3,13.2z"/>
	<path class="st226" d="M16.2,13.2c-0.5,0.1-1,0.2-1.5,0.3c-0.5-0.4-0.2-0.9-0.2-1.4c0.1-0.1,0.2-0.3,0.3-0.4
		c1.2-0.5,2.5-0.8,3.6,0.2c-0.2,0.7-1.1,0.3-1.4,0.9c0,0.4-0.2,0.2-0.3,0.1c-0.1-0.1-0.1-0.3-0.2-0.4c-0.2-0.3-0.4-0.4-0.6,0
		c0,0.1,0.1,0.1,0.1,0.2c0.1,0.1,0.2,0.2,0.2,0.3C16.4,13.1,16.3,13.2,16.2,13.2z"/>
	<path class="st227" d="M14.8,11.9c-0.1,0.1-0.2,0.2-0.2,0.3c0-1.1,0-2.3-0.1-3.4c0-0.5,0.2-0.8,0.7-0.9c1-0.3,1.9-0.3,2.9-0.1
		c-0.2,0.1-0.3,0.1-0.5,0.2c-0.4,0.4-1,0.3-1.4,0.4c-0.7,0.1-1,0.5-1,1.2C15,10.3,15.3,11.1,14.8,11.9z"/>
	<path class="st228" d="M58.4,8.9c-0.2,0.4-0.4,0.8-1,0.7c-0.5-0.1-1.1-0.1-1.6,0.2c-0.8,0.4-1.3,0.2-1.7-0.6
		C54,9,53.8,8.8,53.9,8.6c1.5-0.3,3-0.4,4.5,0C58.4,8.6,58.4,8.8,58.4,8.9z"/>
	<path class="st229" d="M48.9,9.1c-0.8,0.7-1.8,0.5-2.8,0.7c-0.3,0.1-0.4-0.3-0.5-0.6c0-0.3,0-0.6,0-0.8c1.1-0.9,2.3-0.5,3.5-0.2
		C49.1,8.4,48.8,8.7,48.9,9.1z"/>
	<path class="st230" d="M68.4,13.4c0,0.4-0.1,0.8-0.5,0.8s-0.5-0.5-0.5-0.9c0-0.3,0.1-0.7,0.5-0.7C68.4,12.6,68.4,13.1,68.4,13.4z"
		/>
	<path class="st231" d="M22.8,13.9c1.1-1.3,1.8-1.4,3-0.4c0.3,0.3,0.4,0,0.6-0.1c0.7-0.8,0.5-1.5-0.4-2.1c-0.6-1-0.6-1,1.5-2.1
		c-1.1-0.3-1.9-0.8-1.5-2c1.7-0.4,3.3-0.2,5-0.1c0.7,0,0.7,0.6,0.6,1.2c-0.3,0.3-0.5,0.7-0.8,1c-0.5,0.6-0.9,1.1-0.6,2.1
		c0.5,1.4-0.6,2.4-1.5,3.3c-1.1,0.7-2.3,1.2-3.6,1.2C23.7,15.8,23.1,15.3,22.8,13.9z"/>
	<path class="st232" d="M63.3,12.6c0.4,0.1,0.5,0.4,0.5,0.7c0,0.4,0,0.9-0.5,0.9c-0.4,0-0.5-0.3-0.5-0.7S62.8,12.7,63.3,12.6z"/>
	<path class="st233" d="M56.4,14.1c-0.2,0.2-0.5,0.1-0.7,0c-0.1-0.5-0.2-1,0.2-1.4c0.1-0.1,0.3-0.1,0.5,0
		C56.8,13.1,56.6,13.6,56.4,14.1z"/>
	<path class="st234" d="M14.8,11.9c0-0.8,0.1-1.7,0-2.5C14.6,8.4,15,8,16,8c0.5,0,1-0.1,1.5-0.1c0.4,0.3,1.3,0,1.3,0.7
		c0,1.1,0.5,2.3-0.3,3.3C17.2,11.4,16,11.5,14.8,11.9z"/>
	<path class="st235" d="M16.2,13.2c0,0,0-0.1,0-0.2c0.1-0.1,0.1-0.3,0.2-0.3c0.1-0.1,0.3,0,0.4,0c0.1,0.1,0.1,0.2,0.2,0
		c0.2,0.1,0.2,0.2,0.2,0.4C17,13.2,16.6,13.2,16.2,13.2z"/>
	<path class="st235" d="M15.8,12.8c-0.4-0.3-0.3-0.6,0.1-0.7c0.3-0.1,0.9-0.4,1,0.3c-0.1,0.1-0.2,0.1-0.3,0.1c-0.1,0-0.2,0-0.3,0.1
		c-0.1,0-0.1,0.1-0.2,0.1C16,12.7,15.9,12.7,15.8,12.8z"/>
	<path class="st236" d="M16.5,12.4c0.1,0,0.3,0,0.4,0c0,0.1,0,0.2,0,0.4c-0.1,0-0.2,0-0.3,0c-0.1,0-0.1-0.1-0.2-0.2
		C16.4,12.6,16.4,12.5,16.5,12.4C16.4,12.4,16.4,12.4,16.5,12.4z"/>
	<path class="st237" d="M16.5,12.6c0,0,0,0.1,0.1,0.2c-0.1,0.1-0.2,0.2-0.3,0.3c-0.1-0.1-0.2-0.2-0.3-0.3c0-0.1,0-0.2,0-0.2l0,0
		c0.1-0.1,0.1-0.1,0.2-0.1C16.3,12.5,16.4,12.5,16.5,12.6z"/>
	<path class="st238" d="M16,12.6c0,0.1,0,0.1,0,0.2c-0.1,0-0.1,0-0.2,0C15.8,12.6,15.9,12.6,16,12.6z"/>
	<path class="st239" d="M27.3,13c0.2-0.9,0.2-1.7-0.8-2.2c-0.1-0.1-0.3-0.3-0.3-0.4c0-0.3,0.3-0.2,0.5-0.2c0.4-0.1,0.8-0.2,1.1-0.3
		c0.5-0.2,0.7-0.6,0.3-1.1c0.4-0.6,0.5-0.6,1.4-0.2c0.4,0.3,0.1,0.6-0.1,0.8c-0.1,0.1-0.1,0.2-0.1,0.3c0.1,0.4-0.9,0.7-0.2,1.2
		c0.6,1.3,0.3,2.4-1,3.2C27.6,13.8,27.5,13.4,27.3,13z"/>
	<path class="st176" d="M27.3,13c0.3,0.2,0.6,0.5,0.7,0.9c0.1,0.3-0.1,0.4-0.3,0.6c-0.9,0.6-1.9,1-3,0.8c-0.6-0.1-1.1-0.3-1.2-1
		c-0.1-0.4,0.3-0.6,0.7-0.7c0.6-0.2,1-0.1,1.2,0.6c0.2,0.5,0.6,0.2,0.9,0.1C26.8,14,27,13.4,27.3,13z"/>
	<path class="st240" d="M29.7,8.7c-0.5,0-1-0.5-1.5,0c-0.6-0.1-1.6-0.2-1.5-0.9c0-0.5,1-0.2,1.5-0.2c0.4-0.1,0.8,0,1.2,0
		c1-0.1,1.2,0.3,0.8,1.1C30,8.8,29.8,8.8,29.7,8.7z"/>
	<path class="st241" d="M27.7,14.5c0-0.3,0.2-0.4,0.3-0.6c1-0.8,1.3-1.9,1.1-3.1c0.7,0.1,0.7,0.6,0.7,1
		C29.7,12.9,28.8,14.1,27.7,14.5z"/>
	<path class="st242" d="M29.7,8.7c0.1,0,0.3,0,0.4,0c-0.2,0.2-0.4,0.4-0.7,0.7c-0.1,0-0.1,0-0.2,0C29.4,9.1,29.5,8.9,29.7,8.7z"/>
	<path class="st243" d="M29.3,9.4c0.1,0,0.1,0,0.2,0c-0.1,0.1-0.1,0.1-0.2,0.2C29.3,9.5,29.3,9.4,29.3,9.4z"/>
	<path class="st244" d="M16.1,9.2C15.7,9,15.3,9.3,15,8.9c0,0,0-0.1,0-0.2c0.4,0.3,0.8-0.6,1.2,0l0.1,0.1c0.3,0,0.9-0.6,0.9,0.1
		C17.2,9.4,16.5,9,16.1,9.2z"/>
	<path class="st245" d="M16.3,10.4c0.1-0.1,0.1-0.2,0.2-0.2c0.1-0.1,0.1-0.1,0.2,0c0,0.2,0.4,0.4,0.1,0.6c-0.2,0.1-0.4,0.1-0.5-0.2
		C16.3,10.6,16.3,10.5,16.3,10.4C16.3,10.5,16.3,10.4,16.3,10.4z"/>
	<path class="st246" d="M18.1,10.7c-0.2-0.3-0.1-0.5-0.1-0.9C18.3,10.2,18.2,10.4,18.1,10.7z"/>
	<path class="st247" d="M16.3,10.4l0.1,0.1c0,0,0,0-0.1,0C16.2,10.6,16.2,10.5,16.3,10.4z"/>
	<path class="st248" d="M16.7,10.2c-0.1,0-0.1,0-0.2,0c0-0.1,0.1-0.1,0.1-0.2C16.6,10.1,16.6,10.1,16.7,10.2z"/>
	<path class="st249" d="M16.2,12.6c-0.1,0-0.1,0-0.2,0c0-0.3,0-0.7,0.4-0.2l0,0C16.4,12.4,16.3,12.5,16.2,12.6z"/>
	<path class="st235" d="M16.2,12.6c0.1-0.1,0.2-0.1,0.2-0.2c0,0.1,0,0.2,0,0.2C16.4,12.6,16.3,12.6,16.2,12.6z"/>
</g>
</svg>
