<?xml version="1.0" encoding="utf-8"?>
<!-- Generator: Adobe Illustrator 23.0.2, SVG Export Plug-In . SVG Version: 6.00 Build 0)  -->
<svg version="1.1" id="Layer_1" xmlns="http://www.w3.org/2000/svg" xmlns:xlink="http://www.w3.org/1999/xlink" x="0px" y="0px"
	 viewBox="0 0 426 185" style="enable-background:new 0 0 426 185;" xml:space="preserve">
<style type="text/css">
	.st0{fill:#154291;}
	.st1{fill:#43599F;}
	.st2{fill:#1E4794;}
	.st3{fill:#2D4C95;}
	.st4{fill:#F5F3F4;}
	.st5{fill:#E32734;}
	.st6{fill:#6E78B2;}
	.st7{fill:#BEB9D3;}
	.st8{fill:#E8705B;}
	.st9{fill:#FDFDFD;}
</style>
<g>
	<path class="st0" d="M72.8,164.7c-4,2.7-8,5.3-12,8c0.6-1.1,0.8-2.8,1.7-3.3c5.2-3,5.3-7.8,5.2-12.9c-0.4-26.3-0.7-52.6-1-79
		c0.1-3.1,0.2-6.3,0.2-9.4c1.5,1.9,3.1,3.8,4.5,5.8c1.7,2.3,3.5,2.8,5.8,0.8c0.2,4.5,0.4,8.9,0.6,13.4c0.2,2.5,0.4,5,0.6,7.4
		c0.1,2.6,0.2,5.2,0.4,7.7c-1,1.9-2.8,3.7-3,5.6c-0.4,5.6-0.1,11.2-0.1,16.8c0,2.6,0.9,4.2,3.9,3.5c0.4,2.4,1.3,4.7,1.2,7.1
		c-0.2,7.2-0.4,7.2,6.8,7.5c1,1,1.9,1.9,2.9,2.9c-0.1,1.4-0.3,2.9-0.4,5c2-0.3,3.8-0.6,5.7-1c4.3-3.4,9,0.2,13.4-0.2
		c0.3-0.5,0.6-1.1,0.9-1.6c-1.2-0.6-2.3-1.3-3.5-1.9c0.2-0.3,0.4-0.7,0.7-1c2,1.2,4,2.3,6.2,3.6c1-0.8,2.4-1.9,3.1-2.5
		c3.5,0.7,6.3,1.3,9.3,1.9c0.3-3.4,0.5-5.9,0.7-8.5c1.4-0.1,2.7-0.3,4.1-0.4c1.6-0.1,3.3-0.2,4.9-0.3c2.3-0.1,4.6-0.2,6.9-0.3
		l0.5,0.1l0.5-0.1c0.8-0.1,1.6-0.1,2.4-0.2c0.5,0,1,0,1.5,0c3-0.2,5.9-0.4,8.9-0.6c-0.2,1.5-0.3,2.9-0.5,4.4
		c-0.7,0.8-1.5,1.7-2.2,2.5c-1,0.2-2.1,0.5-3.1,0.7c0.2,0.6,0.5,1.1,0.7,1.7c0.8-0.5,1.7-1,2.5-1.5c1.1-0.3,2.2-0.6,3.4-0.9h0.3
		c0.5,0.3,1,0.7,1.5,1c0.4-0.3,0.9-0.7,1.3-1c0.6,0,1.2,0,1.7,0c2.9,0,5.8,0,8.6,0c0.3,0.3,0.6,0.5,0.9,0.8c0.7,0,1.4,0.1,2.2,0.1
		c4.1-0.3,8.1-0.7,12.2-1c0.6-1,1.2-1.9,1.8-2.9c0-1.9,0-3.8,0.1-5.7c4.3-0.3,8.7-0.5,13-0.8c0.5,0,1,0,1.6,0.1
		c2.1-0.2,4.2-0.3,6.3-0.5c0,0.7,0.1,1.3,0.1,2c-0.4,1-0.8,1.9-1.2,2.9c-0.4,0.1-0.7,0.1-1.1,0.2c-1.6-0.7-3.2-1.4-4.8-2.1
		c-0.4,0-0.8,0-1.2,0.1c-0.7,0.3-1.4,0.6-2.1,0.9c-1.3,0-2.7-0.1-4-0.1c-2.3-1.4-2.9-0.2-2.8,2c-0.7,0.7-1.3,1.4-2,2.1
		c1.3,0.6,2.8,1.9,4,1.7c1.7-0.3,3.3-1.7,4.9-2.6c0.4,0.6,0.7,1.2,1.1,1.9c0.3-0.3,0.6-0.6,0.8-0.9c0.3,0.1,0.6,0.1,0.9,0.2
		c1.7-0.1,3.3-0.3,5-0.4c0.4,0.1,0.9,0.2,1.3,0.2c3.9,0,7.8,0,11.6,0c0.5-1.1,1-2,1.4-2.9c-0.2-1.1-0.4-2.2-0.5-2.7
		c1-1.3,1.8-2.2,2.6-3.2c2.4-0.8,4.7-2,7.1-2.4c3-0.5,6.3-1,9.1-0.2c1.2,0.3,1.6,3.9,2.5,6.4c2.8-4.2,5.5-8.2,8.8-13.1
		c1.8,6.2,3.2,11.2,4.7,16.1c0.6-1,1.5-2.5,2.4-4.2c1.6,0.4,3,0.8,4.4,1.2c1.9,0.9,3.7,1.7,5.6,2.6c0-0.3-0.1-0.6-0.1-1
		c7.5-0.9,15-1.9,22.7-2.8c-0.4-2.2-0.8-4.3-1.1-6.4c9.6-0.5,19.1-1.1,28.7-1.6c1.7-0.2,3.5-0.3,5.2-0.5c6-0.3,12-0.6,18-0.9
		c-2,1.1-4,2.3-5.9,3.4c-1.3,0-2.5,0.1-3.8,0.1c-0.8,0-1.5-0.1-2.3-0.1c-0.5,0.3-0.9,0.6-1.4,0.9H327c-2.4,0-4.9,0.1-7.3,0.1
		c-2.7,0-5.5,0.1-8.2,0.1c-3.6,0.3-7.1,0.7-10.7,1c-1.1,0.3-2.1,0.6-3.2,0.9c-0.3,1-0.7,1.9-1,2.9c1.4,0,2.8,0,4.2,0
		c2.4,0,4.9-0.2,7.3,0.1c3.2,0.3,4-1.2,3.6-4c1.7,0.7,3.3,1.3,5,2c0.4,0.3,0.7,0.7,1.1,1c0.6,0,1.2,0,1.8,0.1c2.4,0,4.9,0.2,7.2-0.2
		c0.9-0.2,1.4-1.8,2.1-2.8c0.6,0,1.2,0,1.8,0c0.7,0.6,1.4,1.3,2,1.9c0.7,0,1.3,0.1,2,0.1c1.9-0.1,3.8-0.2,5.8-0.2
		c2.6-0.3,5.2-0.6,7.9-0.9c0.2-0.5,0.3-1,0.5-1.5c-1.7-0.7-3.4-1.3-5.3-2c0-0.4,0.1-1.6,0.3-2.9c1.3-0.1,2.7-0.2,4-0.4
		c0.2-1,0.3-1.9,0.5-2.9c-0.3-5.3-0.5-10.7-0.8-16c-0.1-2-0.2-4.1-0.3-6.1c-0.9-16.8-1.9-33.7-2.8-50.8c-22.8,1.3-45.1,2.6-68.3,3.9
		c2.9-1.7,4.8-2.9,6.8-4c2.3-1.3,4.6-2.7,6.9-4c1-0.3,2.1-0.6,3.1-1c0.9,0,1.9,0,2.8,0c0.3,0.2,0.5,0.6,0.8,0.6
		c22.4-0.4,44.7-0.9,67.1-1.4c0,2.6,0.1,5.2,0.1,7.8c-0.6,1-1.8,1.9-1.9,2.9c-0.4,9.4-0.7,18.8-1,28.2c0.3,2.6,0.6,5.3,1,7.9
		c0.3,1,0.6,2,1,3c0.3,4.7,0.6,9.3,1,14c0,1,0,2,0,3c0.3,2,0.6,4,0.9,6c-0.3,2.3-0.6,4.7-0.9,7c-0.7,0.8-1.9,1.5-1.9,2.3
		c-0.1,6.9-0.2,13.8,0.1,20.7c0.1,1.4,1.8,2.7,2.8,4c0,0.7,0,1.3,0,2c-0.2,1-0.5,2.1-0.4,3.1c0.1,3.3,0.2,6.6,0.4,9.9
		c-3.3-1.4-6.6-2.9-9.9-4.3c-4.3-0.9-8.6-2.6-13-2.6c-44.2,0.1-88.3,0.6-132.5,0.8c-21.4,0.1-42.8,0-64.1,0c-12.2,0-24.5,0-36.7,0
		c-10.5,0-21,0-31.5,0C74.6,161.4,72.3,161.2,72.8,164.7z M134.7,142.5c-1,0.6-2,1.2-3.1,1.8c-0.4,0-0.7,0.1-1.1,0.1
		c-0.8-0.3-1.5-0.6-2.3-0.9c-0.1,1.1-0.5,2.3-0.2,3.3c1.4,3.6,4.5,0.9,6.7,1.6c2.4-0.3,4.8-0.4,7.2-0.9c1.3-0.3,2.4-1.1,3.6-1.7
		c-1.1-1.1-2-2.8-3.2-3.1C140,142.1,137.3,142.5,134.7,142.5z M147.5,142.5c0.1,0.3,0.1,0.7,0.2,1c0.9-0.3,1.7-0.5,2.6-0.8
		c-0.1-0.3-0.2-0.7-0.3-1C149.2,142,148.4,142.2,147.5,142.5z"/>
	<path class="st1" d="M363.6,53.4c0-2.6-0.1-5.2-0.1-7.8l0.2-0.2c0.5,0.1,1,0.1,1.5,0.3c3.6,2,5-1.5,7-3.1c0.6-0.5,0-2.4,0-3.6
		c-2.4,0.4-4.9,0.8-7.3,1.3c-0.1,0-0.2,0.3-0.3,0.4c-6.5,0.2-12.9,0.7-19.4,0.7c-7.3,0-14.6-0.6-21.9-0.5c-23.5,0.1-47,0.4-70.4,0.7
		c-1.7,0-3.3-0.1-5-0.1c-52.3,0-104.5,0-156.8-0.1c-7.9,0-15.9-0.6-23.8-0.9c-1,0-2,0.3-3.1,0.5c0,0.5,0,0.9-0.1,1.4
		c1.7,0.3,3.5,0.7,5.2,0.7c1.6,0,3.3-0.6,4.9-0.6c30.3,0,60.6,0,90.9,0c1.5,0,3.1,0.7,4.6,1.1c0,0.7,0,1.3,0,2c-2.3,0-4.6-0.1-7-0.1
		c-5.6,0.1-11.2,0.5-16.7,0.5c-4.3,0-8.6-0.4-12.8-0.4c-4.7-0.1-9.5,0-14.2,0.2c-4.1,0.1-8.2,0.5-12.3,0.7
		c-6.6-0.5-13.2-0.9-19.7-1.4c-4.9-2.9-9.2-1.3-13.4,1.5c-0.6,0-1.2,0-1.8,0c-3.6,0.1-7.2,0-10.7,0.5c-0.9,0.1-2.2,2.1-2.2,3.3
		c-0.2,12.7-0.1,25.3-0.1,38c0,14.7,0,29.5,0,44.2c0,4-0.7,8.6,1,11.7c2.6,4.6,2.4,8.8,2,13.6c-0.5,7.1-1.8,8.6-9,8.6
		c0-3.3-0.1-6.6-0.1-9.9c0-1.3,0-2.7,0-4c-0.3-5.7-0.6-11.3-1-17c0-1.3,0-2.7,0-4c-0.3-7-0.6-14-1-21c0-1.7,0-3.4,0-5
		c-0.3-12-0.6-24-0.9-35.9c0.6-0.6,1.7-1.3,1.8-2c0.5-5,0.7-10.1,1.1-15.1c0-0.6,0-1.3,0-1.9c0.3-2.1,0.8-4.1,1-6.2
		c0.4-3.3,0.7-6.6,1-9.9c1.7-0.7,3.4-1.4,5.1-2.1c0.7,0.1,1.5-0.1,2,0.2c7.3,5.8,15.9,4.9,24.4,4.9c89.9,0,179.8,0.1,269.6,0
		c4.3,0,8.6-1.6,12.9-2.8c4.5-1.2,9-2.8,13.5-4.3c2.4,0,4.7,0,7.1,0c0,0.5,0.1,0.9,0.1,1.4c-2.3,1.2-4.7,2.2-7,3.5
		c-4.4,2.5-3.7,7.2-4.6,11.2c-4.2,0.2-4,3.1-3.8,6.1c0.2,2.3,0.8,4.6,0.8,6.9c-0.6,20.7-1.1,41.4-2.1,62.1c-0.2,3.1-2.7,6.1-4.1,9.2
		c-0.7-0.2-1.3-0.4-2-0.6c-0.3-1.8-0.5-3.7-0.8-5.5c-0.3-2-0.7-4.1-1.1-6.1c-0.3-2-0.6-4-0.9-6c0-1,0-2,0-3c-0.3-4.7-0.6-9.3-1-14
		c-0.3-1-0.6-2-1-3c-0.3-2.6-0.6-5.3-1-7.9c0.6-1,1.8-1.9,1.8-2.9C363,72.2,363.3,62.8,363.6,53.4z"/>
	<path class="st2" d="M377.6,46.4c0.9-4,0.2-8.7,4.6-11.2c2.3-1.3,4.7-2.3,7-3.5c0-0.5-0.1-0.9-0.1-1.4c-2.4,0-4.7,0-7.1,0
		c6-1.3,12-2.6,17.7-3.9c0.5,3.7,0.8,6.1,1.1,8.5c0.1,0,0.1,0,0.2,0.1c0.2,1.9,0.6,3.8,0.4,5.6c-0.2,2.8-0.9,5.5-1.3,8.3
		c-0.3,2.2-0.6,4.5-0.5,6.7c0.3,6.1,1.1,12.2,1,18.3c0,4.3-1.2,8.6-1.5,13c-0.2,2.5,0.6,5,0.6,7.5c0,1.1-0.8,2.2-1,2.7
		c0.5,3.5,1.7,6.8,1.4,9.8c-0.5,4.8-1.6,9.4-0.7,14.5c0.7,4.2-0.8,8.7-0.9,13.1c0,2.7,1.6,5.5,1.1,8c-0.5,2.7-1.2,5-0.6,7.9
		c0.7,3.1,0.3,6.6,0,9.8c-0.4,3.9-1.3,7.8-2,11.7c-0.2,1-0.6,2-1,3.3c-11.3,0.6-21.6-2.3-31.3-7.9c-0.1-3.3-0.3-6.6-0.4-9.9
		c0-1,0.3-2.1,0.4-3.1c0.8,1.2,1.3,2.8,2.3,3.7c1.3,1,3.5,2.4,4.5,1.9c1.4-0.6,2.9-2.8,3-4.4c0.9-12.7,1.6-25.4,2.1-38.1
		c0.3-8.6-0.1-17.3,0.1-25.9c0.2-7.8,0.7-15.5,0.9-23.3c0.1-3.8-0.6-7.5-0.6-11.3C377,53.4,377.4,49.9,377.6,46.4z M382.7,140.4
		c-0.2-0.3-0.5-0.7-0.7-1C382.2,139.7,382.4,140.1,382.7,140.4c3.9,1.2,7.8,2.4,11.8,3.7c0.2-0.8,0.3-1.6,0.5-2.5
		C390.8,141.2,386.8,140.8,382.7,140.4z M393.3,129.1c0.1-0.7,0.2-1.4,0.2-2.1c-3.7-0.4-7.5-0.7-11.4-1.1c0,3.8,0,7.5,0,11.3
		c4.2,0.4,8,0.7,11.8,1c0-0.5,0.1-1,0.1-1.5c-3.7-0.3-7.4-0.6-11.2-0.9c0-0.6,0-1.1,0.1-1.7c4.3,0,8.6,0,13,0
		c0.1-0.6,0.1-1.1,0.2-1.7c-4.4-0.7-8.7-1.4-13.1-2.2c0.1-0.6,0.2-1.2,0.3-1.8C386.6,128.7,390,128.9,393.3,129.1z M385,75.2
		c0.1-0.6,0.2-1.2,0.3-1.8c1.9,0.2,3.8,0.5,5.7,0.6c1.7,0.1,3.3,0,5,0c0-0.4,0-0.8-0.1-1.2c-4.3-0.8-8.6-1.6-14.6-2.7
		c1.6,2.9,2.2,6.2,4,6.9c3.5,1.5,7.6,1.5,11.4,2.2c0.1-0.4,0.2-0.8,0.3-1.3C393.1,77.1,389,76.1,385,75.2z M382.8,149.9
		c0-0.6,0.1-1.2,0.1-1.8c4,0,8,0,12,0c0.1-0.5,0.1-0.9,0.2-1.4c-4.7-0.8-9.3-1.6-14-2.4c0,2.2,0,4.4,0,6.9c4.4,0.4,8.6,0.9,12.8,1.3
		c0.1-0.6,0.1-1.1,0.2-1.7C390.3,150.5,386.5,150.2,382.8,149.9z M396,110.3c0.1-0.5,0.1-1,0.2-1.6c-4-0.4-8-0.9-12.1-1
		c-0.7,0-1.6,1.9-1.9,3c-0.2,0.6,0.6,2.2,1.1,2.3c3.8,0.9,7.6,1.5,11.5,2.1c0.1-0.7,0.2-1.3,0.3-2c-3.8-0.5-7.6-1-11.4-1.5
		c0.1-0.7,0.1-1.4,0.2-2.1C388,109.8,392,110,396,110.3z M392.9,165.5c0.1-0.6,0.1-1.1,0.2-1.7c-3.6-0.3-7.2-0.6-10.8-0.9
		c0-0.5,0.1-1,0.1-1.5c4.2,0,8.3,0,12.5,0c0-0.5,0-1,0.1-1.6c-4.6-0.3-9.3-0.7-14.2-1c0.1,1.5,0.2,3.3,0.3,5.6
		C385.2,164.8,389,165.2,392.9,165.5z M385.2,57c0-0.4,0.1-0.8,0.1-1.3c3.9,0,7.8,0,11.8,0c-3.6-1.3-7.1-2-10.7-2.1
		c-1.1,0-2.6,1.2-3.2,2.3c-0.4,0.7,0.6,3,1.2,3.1c4.2,0.6,8.4,0.8,12.6,1.1c0-0.4,0.1-0.8,0.1-1.2C393.1,58.3,389.2,57.6,385.2,57z
		 M383,84.5c-0.1,0.5-0.3,1.1-0.4,1.6c4.7,0.8,9.4,1.6,14.2,2.4c0.1-0.5,0.2-1,0.3-1.5C392.4,86.2,387.7,85.4,383,84.5z M383,93.6
		c-0.1,0.6-0.2,1.1-0.3,1.7c4.4,0.7,8.8,1.4,13.2,2.1c0.1-0.6,0.2-1.1,0.3-1.7C391.7,95.1,387.4,94.3,383,93.6z M397.2,105.1
		c-5.6-0.9-9.9-1.7-14.3-2.4C383.9,105.4,391.3,107,397.2,105.1z M395.9,92.3c0-0.4,0.1-0.8,0.1-1.2c-4.4-0.7-8.8-1.5-13.2-2.2
		C386.7,92.3,391.3,92.4,395.9,92.3z M380.8,166.8c0.2,0.6,0.5,2.2,1,2.3c3.6,0.6,7.3,0.9,11,1.2c0-0.4,0.1-0.9,0.1-1.3
		C389,168.3,385,167.6,380.8,166.8z M383.5,121.3c-0.1,0.6-0.1,1.2-0.2,1.7c4.2,0.4,8.4,0.8,12.6,1.2c0-0.5,0.1-1,0.1-1.6
		C391.9,122.2,387.7,121.8,383.5,121.3z M380.9,116.5c5.4,2.9,10,3.3,15,1.6C391.3,117.6,386.8,117.1,380.9,116.5z M381.8,79.6
		c4.7,4.1,9.3,3.6,14.1,2.8C391.5,81.5,387.2,80.7,381.8,79.6z M395.7,63.5c-4.2-0.7-8.5-1.4-12.7-2.1
		C386.6,65.2,391.2,64.3,395.7,63.5z M383.2,66.8c-0.2,0.4-0.3,0.7-0.5,1.1c4.6,0.6,9.2,1.1,13.8,1.7c0.1-0.6,0.1-1.1,0.2-1.7
		C392.2,67.5,387.7,67.1,383.2,66.8z M383.9,43.7c-0.1,0.5-0.2,1-0.3,1.5c4.1,0.7,8.1,1.5,12.2,2.2c0.1-0.5,0.2-1,0.3-1.6
		C392,45.1,388,44.4,383.9,43.7z M394.4,157.4c0.2-0.5,0.4-0.9,0.6-1.4c-4.7-0.4-9.4-0.9-14.1-1.3c-0.1,0.3-0.2,0.7-0.2,1
		C385.2,156.3,389.8,156.9,394.4,157.4z M386.4,39.8c0,0.5-0.1,0.9-0.1,1.4c3.5,0.4,7.1,0.8,10.6,1.2c0-0.5,0.1-1,0.1-1.5
		C393.5,40.5,389.9,40.1,386.4,39.8z M395.5,101.8c0.1-0.4,0.1-0.8,0.2-1.2c-4.3-0.7-8.5-1.3-12.8-2c-0.1,0.5-0.1,1-0.2,1.5
		C387,100.7,391.2,101.3,395.5,101.8z"/>
	<path class="st3" d="M52.8,166.4c7.2,0,8.5-1.5,9-8.6c0.4-4.8,0.6-9-2-13.6c-1.7-3.1-1-7.8-1-11.7c-0.1-14.7,0-29.5,0-44.2
		c0-12.7-0.1-25.3,0.1-38c0-1.1,1.3-3.1,2.2-3.3c3.5-0.5,7.1-0.4,10.7-0.5c-2.1,3.6-4.3,7.2-6.4,10.9c-5.2,4-3.3,9.7-3.6,14.9
		c-0.2,3.4,1.4,5.2,5,5.2c0.3,26.3,0.6,52.7,1,79c0.1,5.1,0,9.9-5.2,12.9c-0.9,0.5-1.2,2.2-1.7,3.3c-1.4,0.6-2.7,1.2-4.1,1.8
		C55.4,171.7,54.1,169,52.8,166.4z"/>
	<path class="st3" d="M72.8,164.7c-0.5-3.4,1.9-3.2,4.1-3.2c10.5,0,21,0,31.5,0c12.2,0,24.5,0,36.7,0c21.4,0,42.8,0.1,64.1,0
		c44.2-0.3,88.3-0.7,132.5-0.8c4.3,0,8.6,1.7,13,2.6c-26.6,0.1-53.3,0.2-80,0.3C207.4,163.9,140.1,164.3,72.8,164.7z"/>
	<path class="st2" d="M46.7,176.2c-5.1,0-10.1,0-14.4,0c-0.3-4.5-0.7-8-0.7-11.6c0-2.7,0.6-5.5,0.5-8.3c0-2.5-0.9-5-0.8-7.5
		c0.1-3.1,0.9-6.1,1.5-10c-0.2-0.3-1.1-1.5-2-2.7c0.3,0,0.6,0,0.9-0.1c-0.2-3.3-0.3-6.5-0.5-9.7c-0.1-2.1-0.7-4.2-0.5-6.2
		c0.5-4.3,1.4-8.5,2-12.8c0.2-1.4-0.1-3-0.2-4.5c2,0.5,3.9,1,5.9,1.5c2.7,0.7,5.4,1.4,8.1,2.1c-0.1,0.6-0.3,1.2-0.4,1.8
		c-3.4-0.3-6.9-0.6-10.3-0.9c0,0.2,0,0.4-0.1,0.6c4,1.1,8,2.3,12,3.4c-0.3,0.7-0.6,1.3-1,2c-3.8-0.6-7.5-1.2-11.3-1.9
		c-0.1,0.5-0.1,1.1-0.2,1.6c3.8,0.8,7.5,1.6,11.3,2.4c-0.1,0.6-0.3,1.2-0.4,1.8c-3.8-0.3-7.6-0.6-11.4-0.9c0,0.4-0.1,0.8-0.1,1.3
		c3.9,0.7,7.9,1.3,12.4,2.1c-0.8,3.1-1.4,5.6-2.1,8.3c0.3,0.4,1.1,1.4,1.9,2.3c0,0.3,0,0.7,0,1c-3.8-0.4-7.6-0.8-11.5-1.1
		c-0.1,0.3-0.1,0.6-0.2,1c3.9,0.7,7.8,1.5,11.7,2.2c0,0.7,0,1.3,0,2c-4.2-0.4-8.3-0.8-12.5-1.3c3.7,3,8.1,3.2,12.5,3.3
		c0,2.3,0,4.7,0,7c-3.5,0-7,0-10.5,0c1.6,1.4,3.4,1.5,5.2,2s3.5,1.3,5.3,1.9c0,0.3,0,0.7,0,1c-3.8-0.3-7.6-0.5-11.3-0.8
		c0,0.5-0.1,1-0.1,1.5c4.5,0.4,8.9,0.8,13.4,1.3c0,0.7,0,1.3,0,2c-4.4-0.2-8.9-0.4-13.3-0.6c0,0.4-0.1,0.8-0.1,1.2
		c4.1,0.5,8.3,1,12.4,1.5c0,1,0,2,0,3c-4.1-0.5-8.3-1-12.4-1.6c1,1.2,2.2,1.3,3.3,1.6c3.1,0.9,6.1,1.9,9.1,2.9c-0.3,0.3-0.7,0.7-1,1
		c-3.5-0.2-6.9-0.4-10.4-0.7c2,1.6,4.1,2,6.1,2.6c1.8,0.5,3.5,1.3,5.3,2c-0.3,0.3-0.7,0.7-1,1c-3.4-0.3-6.8-0.6-10.3-0.9
		c0,0.4-0.1,0.9-0.1,1.3c3.5,0.5,6.9,1,10.4,1.6c-0.3,0.7-0.7,1.3-1,2c-3.1-0.2-6.3-0.4-9.4-0.6c0,0.5,0,0.9,0,1.4
		c3.5,0.4,7,0.8,10.4,1.2C46.7,174.3,46.7,175.3,46.7,176.2z"/>
	<path class="st0" d="M46.7,149.4c0-0.3,0-0.7,0-1c4.3-1.3,0.6-2.6,0-4c0-2.3,0-4.7,0-7c0-0.7,0-1.4,0-2c0-0.7,0-1.3,0-2s0-1.4,0-2
		c0-0.3,0-0.7,0-1c0-5.7,0-11.3,0-17c0.3-0.7,0.6-1.3,1-2c-0.3-5.3-0.6-10.7-1-16c0-0.7,0-1.3,0-2c-0.7-1-1.2-2.8-2-2.9
		c-3.7-0.6-7.5-0.7-11.3-1c-0.5-1-1-2.1-1.5-3.1c4.9,0.5,9.7,0.9,14.9,1.4c-0.2-2.5-0.3-4.2-0.4-6.4c-5-0.4-9.6-0.8-14.2-1.2
		c0.2-0.3,0.4-0.6,0.7-0.8c4.5-0.4,9.1-0.7,14.4-1.2c-4.9-3.2-10.4-2.3-15.5-3.1c0.3-0.2,0.5-0.4,0.8-0.7c4.6-0.4,9.2-0.8,13.9-1.2
		c0-1.1,0-3.2,0-5.2c-3.8-0.9-7.3-1.8-10.8-2.6c0.1-0.4,0.2-0.7,0.2-1.1c3.5,0.2,7,0.3,10.8,0.5c0-0.5,0-1.4,0-2.4c0-0.3,0-0.7,0-1
		c-0.3-1.3-0.7-2.7-1-4c0-0.3,0-0.7,0-1c0.3-1,0.7-2,1-3c0-0.7,0-1.3,0-2c-0.3-4-0.7-8-1-12c0-0.3,0-0.7,0-1c0-1.7,0-3.3,0-5
		c0-1,0-2,0-3c3-2.3,4.5-0.2,6,2c-3.4,6.2,0.8,12,0.9,18c0,0.6,0,1.3,0,1.9c-0.7,0.8-1.8,1.6-1.9,2.4c-0.5,4.9-0.7,9.8-0.9,14.7
		c0.3,12,0.6,24,0.9,35.9c0,1.7,0,3.4,0,5c0.3,7,0.6,14,1,21c0,1.3,0,2.7,0,4c0.3,5.7,0.6,11.3,1,17c0,1.3,0,2.7,0,4
		c0,3.3,0.1,6.6,0.1,9.9c1.3,2.7,2.6,5.4,3.9,8.1c-3.3,0.6-6.7,1.2-10,1.8c0-0.9,0-1.8,0-2.8c-0.3-0.7-0.7-1.3-1-2
		c0.3-0.7,0.7-1.3,1-2c0-0.7,0-1.3,0-2c0.3-0.3,0.7-0.7,1-1c-0.3-1.3-0.7-2.6-1-4c0.3-0.3,0.7-0.7,1-1c0-1,0-2,0-3s0-2,0-3
		c0.3-0.7,0.6-1.3,1-2c0-0.7,0-1.3,0-2C48,150.8,47.3,150.1,46.7,149.4z"/>
	<path class="st2" d="M51.7,32.4c-1.5-2.2-3-4.3-6-2c-3.1,0-6.2-0.2-9.2,0.1c-1.3,0.1-2.5,1.2-3.8,1.9c-0.7-0.4-1.5-0.8-2.2-1.2
		c-0.4-2.3-0.9-4.5-1.5-7.6c10.5,1.8,22.3-1.6,30.7,8.7c-1.7,0.7-3.4,1.4-5.1,2.1C53.7,33.7,52.7,33.1,51.7,32.4z"/>
	<path class="st3" d="M46.7,95.4c0.3,5.3,0.6,10.7,1,16c-4-1.1-8-2.3-12-3.4c0-0.2,0-0.4,0.1-0.6c3.4,0.3,6.9,0.6,10.3,0.9
		c0.1-0.6,0.3-1.2,0.4-1.8c-2.7-0.7-5.4-1.4-8.1-2.1c-2-0.5-3.9-1-5.9-1.5c-0.2-0.9-0.6-1.9-0.5-2.8c0-0.9,0.5-1.7,0.8-2.6
		c4.2,1.1,8.3,2.9,12.7,1.3c0.1-0.6,0.1-1.3,0.2-1.9c-4-0.1-8-0.3-12-0.4c-0.3-0.7-0.6-1.3-0.9-2C37.3,94.7,42,95.1,46.7,95.4z"/>
	<path class="st2" d="M46.7,61.4c0,0.3,0,0.7,0,1c-4.9,0-9.7,0-14.6,0c-0.6-2.6-1.3-5.1-1.8-7.8c-0.3-1.6,0-3.3,0-4.9
		c-0.4-0.1-0.9-0.1-1.3-0.2c0.7-0.7,1.4-1.3,2.1-2c0.2,0.3,0.4,0.6,0.7,0.8c1.4,0.7,2.8,1.7,4.3,1.9c3.5,0.6,7.1,0.7,10.7,1.1
		c0,0.7,0,1.3,0,2c-4.4-0.4-8.8-0.7-13.2-1.1c0,0.7-0.1,1.4-0.1,2.1c2.7,0,5.4-0.2,8,0.1c1.5,0.2,2.9,1.2,4.4,1.9c0,0.3,0,0.7,0,1
		c-3.8,0-7.6,0-11.3,0c0,0.7,0,1.3,0,2c1.9,0,3.8-0.3,5.6,0.1C42.2,59.9,44.4,60.8,46.7,61.4z"/>
	<path class="st2" d="M45.7,38.4c0,0.3,0,0.7,0,1c-4,0.2-7.9,0.4-11.9,0.5c0,0.4,0.1,0.8,0.1,1.3c3.5,0.2,7.1,0.4,10.6,0.6
		c0,0.7,0,1.4,0,2c-3.4,0.4-6.9,0.7-10.3,1.1c0,0.4,0,0.7,0.1,1.1c3.3,0.3,6.5,0.6,9.8,0.9c0,0.5-0.1,1-0.1,1.5c-4.1,0-8.2,0-12.3,0
		c-0.2-0.3-0.4-0.5-0.7-0.8c-0.2-4.7-0.4-9.5-0.6-14.2c0.7,0.7,1.5,1.3,2.2,2c2.3,0.3,4.7,0.5,6.9,1.1
		C41.7,36.9,43.6,37.8,45.7,38.4L45.7,38.4z"/>
	<path class="st3" d="M32,62.4c4.9,0,9.7,0,14.6,0c0,1,0,1.9,0,2.4c-3.8-0.2-7.3-0.4-10.8-0.5c-0.1,0.4-0.2,0.7-0.2,1.1
		c3.5,0.8,7,1.7,10.8,2.6c0,2,0,4.1,0,5.2c-4.7,0.4-9.3,0.8-13.9,1.2c-0.4-0.9-0.9-1.9-1.3-2.8c4.8-0.2,9.6-0.4,14.4-0.6
		c0-0.9-0.1-1.7-0.1-2.6c-4.3,0-8.5,0-12.8,0c-0.4-0.6-0.8-1.2-1.2-1.8c0-0.8,0.1-1.5,0.1-2.3C31.6,63.7,31.8,63,32,62.4z"/>
	<path class="st3" d="M32.2,80.2c4.6,0.4,9.2,0.8,14.2,1.2c0.1,2.2,0.2,4,0.4,6.4c-5.2-0.5-10-1-14.9-1.4c-0.1-1.3-0.2-2.5-0.2-3.8
		C31.7,81.9,32,81.1,32.2,80.2z M45.3,85.3c0-0.7,0.1-1.5,0.1-2.2c-3.7,0-7.4,0-11.1,0c0,0.4,0,0.8,0,1.2
		C38,84.6,41.6,84.9,45.3,85.3z"/>
	<path class="st2" d="M32.6,68.4c4.3,0,8.5,0,12.8,0c0,0.9,0.1,1.7,0.1,2.6c-4.8,0.2-9.6,0.4-14.4,0.6
		C31.6,70.5,32.1,69.5,32.6,68.4z"/>
	<path class="st2" d="M46.7,95.4c-4.7-0.3-9.3-0.7-14-1c0.3-1.3,0.7-2.7,1-4c2.4,0.3,4.9,0.5,7.3,1c2,0.4,3.8,1.3,5.7,2
		C46.7,94.1,46.7,94.8,46.7,95.4z"/>
	<path class="st3" d="M31.7,75.1c5.1,0.8,10.6-0.1,15.5,3.1c-5.3,0.4-9.8,0.8-14.4,1.2C32.4,78,32,76.5,31.7,75.1z"/>
	<path class="st0" d="M32.7,35.4c-0.7-0.7-1.5-1.3-2.2-2l-0.2-0.2c0.1-0.7,0.2-1.3,0.2-2l0,0c0.7,0.4,1.5,0.8,2.2,1.2
		c4,0.3,8,0.7,12,1c0,0.7,0,1.3,0,2C40.7,35.4,36.7,35.4,32.7,35.4z"/>
	<path class="st2" d="M33.6,96.4c4,0.1,8,0.3,12,0.4c-0.1,0.6-0.1,1.3-0.2,1.9c-4.3,1.7-8.5-0.2-12.7-1.3
		C33,97.1,33.3,96.8,33.6,96.4z"/>
	<path class="st3" d="M46.7,93.4c-1.9-0.7-3.8-1.5-5.7-2c-2.4-0.5-4.8-0.7-7.3-1c-0.2-0.3-0.3-0.6-0.3-0.9c3.8,0.3,7.6,0.4,11.3,1
		C45.5,90.7,46,92.4,46.7,93.4z"/>
	<path class="st0" d="M31.5,64.3c0,0.8-0.1,1.5-0.1,2.3C31.4,65.8,31.4,65.1,31.5,64.3z"/>
	<path class="st2" d="M30.5,31.2c-0.1,0.7-0.2,1.3-0.2,2C30.3,32.5,30.4,31.9,30.5,31.2z"/>
	<path class="st4" d="M156.2,138.5c-3,0.2-5.9,0.4-8.9,0.6c-0.5,0-1,0-1.5,0c-0.8,0.1-1.6,0.1-2.4,0.2c-0.3,0-0.6,0.1-0.9,0.1
		c-2.3,0.1-4.6,0.2-6.9,0.3c-1.6,0.1-3.3,0.2-4.9,0.3c-1.4,0.1-2.7,0.3-4.1,0.4c-1.3,0.1-2.7,0.1-4,0.2c-1,0-2,0.1-3,0.1
		c-3,0.2-6.1,0.4-9.1,0.6c-1,0.1-2,0.1-2.9,0.2c-6.7,0.7-13.3,1.4-20,2.1c-7.2-0.2-7.1-0.2-6.8-7.5c0.1-2.3-0.8-4.7-1.2-7.1
		c0.1-3.2,0.1-6.4,0.2-9.6c0-1-0.1-2-0.1-3c0-0.7-0.1-1.3-0.1-2c-0.1-1.3-0.1-2.6-0.2-4c-0.2-2.4-0.4-4.9-0.6-7.3
		c-0.1-2.6-0.2-5.2-0.4-7.7c-0.2-2.5-0.4-5-0.6-7.4c-0.2-4.5-0.4-8.9-0.6-13.4c1.6-0.9,3.1-2.3,4.7-2.5c5.9-0.8,11.8-1.4,17.8-1.7
		c5.8-0.3,11.2-1.4,15.4-5.9c28.1-1.4,56.3-2.9,85.5-4.4c-5.6-6.2-11.4-8.9-18.5-9c4.4-1.5,8.6-1.6,12.6,1c4.2,2.6,8.4,6.5,12.9,7
		c7.4,0.9,15.1-0.5,22.7-0.9c0.3-0.5,0.5-1.1,0.8-1.6c-1.3-1-2.4-2.5-3.9-3c-3.8-1.3-7.8-2.1-11.7-3.2c2.6,0,5.3-0.4,7.8,0.1
		c3.2,0.6,4.8-0.7,6.1-3.2c0.2,0.4,0.4,0.7,0.6,1.1c5.7,5.1,11.4,10.2,17.5,15.7c1.7-5.3,3-9.7,4.4-14.1c1.1,6.2,7.3,11.1,10.9,7.8
		c5.1-4.7,11.5-4.7,17.2-6.9c0.8-0.3,1.9,0.3,2.8,0.4c-2,1.2-3.9,2.3-6.8,4c23.2-1.3,45.4-2.6,68.3-3.9c0.9,17.1,1.9,34,2.8,50.8
		c0.1,2,0.2,4.1,0.3,6.1c0.3,5.3,0.5,10.7,0.8,16c-0.2,1-0.3,1.9-0.5,2.9c-1.3,0.1-2.7,0.2-4,0.4c-1,0.1-2.1,0.1-3.1,0.2
		c-6,0.3-12,0.6-18,0.9c-1.7,0.2-3.5,0.3-5.2,0.5c-9.6,0.5-19.1,1.1-28.7,1.6c-1,0.1-2.1,0.2-3.1,0.3c-5,0.3-10,0.5-15,0.8
		c-0.8,0.1-1.6,0.2-2.3,0.3c-2.2,0.1-4.4,0.2-6.6,0.3c-1.1,0-2.3,0-3.4,0c0,0.3-0.1,0.6-0.1,0.9c0.8,0.5,1.5,0.9,2.3,1.4
		c0.5,0.5,1,1.1,1.6,1.6c-0.1,0.7-0.3,1.4-0.4,2c-1.4-0.4-2.8-0.8-4.4-1.2c-1,1.7-1.8,3.2-2.4,4.2c-1.4-4.9-2.9-9.9-4.7-16.1
		c-3.3,5-6,8.9-8.8,13.1c-0.9-2.5-1.3-6-2.5-6.4c-2.8-0.8-6.1-0.3-9.1,0.2c-2.4,0.4-4.7,1.5-7.1,2.4c-4.7,0.3-9.4,0.6-14.1,0.9
		c-2.1,0.2-4.2,0.3-6.3,0.5c-0.5,0-1,0-1.6-0.1c-4.3,0.3-8.7,0.5-13,0.8C177.2,137.3,166.7,137.9,156.2,138.5z M289.7,67.4
		L289.7,67.4c-0.3-0.3-0.7-0.7-1-1l0,0c-0.7-0.4-1.4-0.8-2.1-1.2c-3.6-1.2-7.2-2.7-10.9-3.6c-1.1-0.3-2.5,1.1-3.8,1.8
		c-4.1-2.1-6.4,1.5-9.2,3.1c-2.2,2.1-4.4,4.3-6.7,6.4c-1.1,0.8-2.3,1.3-3.1,2.3c-1.3,1.6-2.2,3.5-3.3,5.3c-0.3-3.1-0.3-6.2-1-9.1
		c-0.6-2.4-1.7-5.6-3.4-6.4c-2-0.9-5,0.6-7.6,1.1c-0.9,1.1-1.8,2.3-2.8,3.4c-0.7,1-2,1.9-2.1,2.9c-0.2,4-0.1,8.1-0.1,12.2
		c-1.6-2.4-3.3-4.7-4.9-7.1l0,0c-0.4-1-0.8-2-1.2-3.1c-1.7-1.9-3.4-3.9-5.1-5.8c-2.9-4-4.8-3.8-10.8,0.9c-1.2,1-2.5,2-3.7,3
		c-0.2-0.6-0.3-1.2-0.5-1.8c-2.1-4.9-5.3-3.6-8.6-1.6c-1.6,0.8-3.2,1.6-4.8,2.3c-0.8,1.6-2.2,3.3-2.2,4.9c0.1,7.6,0.5,15.1,1.1,22.7
		c0.4,4.2,1.5,8.4,2.3,12.6c-1.8,0.8-3.6,1.5-5.4,2.3c-2.5-2.7-4.3-5.5-2.7-9.6c0.3-0.8-1.5-2.5-2.3-3.8c0-0.3-0.1-0.6-0.2-0.9
		c0.4-1.2,1.1-2.4,1.1-3.6c-0.1-7.4-0.4-14.8-0.8-22.1c-0.1-0.9-0.6-3.8-3.1-1.9c-6.7-3.5-10.1-1.5-9.9,5.7
		c0.1,4.6-0.1,9.2-0.1,13.9c-0.3,0-0.6,0-1,0c-1.3-4.3-2.6-8.7-3.9-13v0.1c-0.4-0.4-0.7-0.8-1.1-1.2c-1-1.2-1.9-2.5-2.9-3.7
		c-3.4-3.9-7.9-3.6-12.3-3.2c-5,0.5-9.9,1.6-14.9,2.4c-3.5,2.8-3.4,7.2-4.9,10.9c-0.9-8-14.3-13.1-19.7-10.1
		c-4.5-2.3-7.8,0.4-11.2,2.7c-2,1.8-4,3.6-6,5.4c-1.6,1.7-3.9,3-4.8,5c-4.4,10-4.1,20.4-0.7,30.6c4.6,13.9,16,20,29.6,16.1
		c1.4-0.4,2.5-2,3.7-3.1c2.4-1.6,4.7-3.3,7.1-4.9c1.4-1.4,2.7-2.9,4.1-4.3c0.4,2.4,0.3,5,1.2,7.2c1.9,4.8,7.5,5.4,10.9,1.3
		c0.3-0.4,0.7-0.7,1-1.1c1.1-2.4,2.5-4.7,3.2-7.2c0.6-2.2,0.5-4.6,0.6-6.9c2.7,4.1,5.5,8.2,8.2,12.3c3.3,5.1,9.1,5.5,11.8,0.8
		c0.7-1.7,1.3-3.4,2-5.2c2-0.2,3.8-0.4,5,2.2c0.7,1.5,3,2.8,4.8,3.1c4.8,1,9.9,4.1,14.3-1c7.5-2.9,11.8-8.2,12.7-16.3
		c0.8,1.2,1.9,2.3,2.3,3.6c0.6,2.2,0.1,4.8,1.1,6.8c1.2,2.4,3.2,4.7,5.4,5.9c1.1,0.6,3.6-1.4,5.5-2.2c1.3-1.3,2.6-2.6,4-4
		c0-3.7-0.1-7.4-0.1-11.1c0-0.6,0-1.3,0-1.9c0.3-0.4,0.7-0.7,1-1.1c1.4,2.4,2.7,4.9,4.2,7.2c2.2,3.5,4.2,7.2,6.9,10.2
		c3,3.2,8.2,2.3,8.9-1.1c1.1-3.5,2.2-6.9,3.3-10.4c0.8-0.6,1.6-1.3,2.4-1.9c5.7,11.6,11,13.6,22.2,13.8c2,0,4.1-1.7,6.2-2.7
		c4.6-0.9,8.2-3.4,11-7.1c1.3-1.2,2.6-2.3,4-3.5c0.1,1.6-0.5,3.7,0.3,4.9c1.6,2.4,3.6,5.3,6.1,6.2c2.6,0.9,6.4,0.7,7.4-3.5
		c5.6-4.2,2.5-10,3-15.2c0.2-1.6,0.4-3.1,0.6-4.5c4.9-1.3,6.9,0.1,6.7,4.9c-0.1,3.7,0,7.7,1.2,11.2c0.7,2.2,3.3,4.4,5.5,5.2
		c2.1,0.8,5.5,1,5.9-2.9c0.8-1.3,1.6-2.5,2.4-3.8c0.6-1.1,1.8-2.2,1.8-3.3c0-4.1-0.3-8.2-0.6-12.3c-0.4-6.2-1-12.4-1.4-18.6
		c-0.3-4,0.1-8.1-0.6-12c-0.4-2.5-1.8-5.1-3.6-6.9c-2.6-2.6-5.4-1.5-7.6,1.1c-0.7,0.4-1.3,0.8-2,1.2c-1.1,1.7-3,3.4-3,5.2
		c-0.1,5.4,0.6,10.9,1,16.3c-2.4,0.1-4.8,0.2-7.1,0.3c-0.6-5.8-0.8-11.6-1.9-17.3c-0.5-2.4-2.4-5.2-4.5-6.3
		c-2.7-1.4-5.9-0.6-7.6,2.7c-0.4,1.9-1,3.7-1,5.6c0.1,5.4,0.5,10.8,0.8,16.2c-0.9-2.3-1.7-4.6-2.6-6.9c-0.1-2.3,0.1-4.6-0.3-6.7
		c-0.2-0.9-1.8-1.5-2.8-2.3l0,0c-0.3-0.3-0.7-0.7-1-1l0,0C290.4,68.1,290,67.7,289.7,67.4z M338.6,65.4c1.3-2.3,2.5-3.6,2.5-4.9
		c0-1-1.7-1.9-2.7-2.9c-0.9,1.2-2.4,2.3-2.6,3.5C335.7,62.2,337.2,63.4,338.6,65.4z"/>
	<path class="st3" d="M377.6,46.4c-0.2,3.5-0.6,7-0.6,10.6c0,3.8,0.7,7.5,0.6,11.3c-0.2,7.8-0.8,15.5-0.9,23.3
		c-0.2,8.6,0.2,17.3-0.1,25.9c-0.4,12.7-1.2,25.4-2.1,38.1c-0.1,1.6-1.6,3.8-3,4.4c-1.1,0.5-3.2-0.9-4.5-1.9
		c-1.1-0.9-1.6-2.4-2.3-3.7c0-0.7,0-1.3,0-2c-0.3-9-0.7-18-1-27c0.3-2.3,0.6-4.7,0.9-7c0.4,2,0.7,4.1,1.1,6.1
		c0.3,1.8,0.5,3.7,0.8,5.5c0.7,0.2,1.3,0.4,2,0.6c1.4-3.1,3.9-6.1,4.1-9.2c1-20.7,1.5-41.4,2.1-62.1c0.1-2.3-0.6-4.6-0.8-6.9
		C373.6,49.5,373.4,46.6,377.6,46.4z"/>
	<path class="st2" d="M282.8,51.4c-1-0.2-2.1-0.7-2.8-0.4c-5.7,2.2-12.1,2.2-17.2,6.9c-3.6,3.3-9.8-1.6-10.9-7.8
		c-1.4,4.4-2.7,8.8-4.4,14.1c-6.1-5.5-11.8-10.6-17.5-15.7c0.7-2.8,2.8-3,5.3-3c15.9,0.1,31.8,0.1,47.6,0c1.6,0,3.2-1.3,4.7-2
		c2.7,0,5.4,0,8,0c0,1-0.1,2.1-0.1,3.1c-0.9,0-1.9,0-2.8,0c-1,0.3-2.1,0.6-3.1,1C287.4,48.8,285.1,50.1,282.8,51.4z M263.4,47.4
		c-0.1-0.1-0.1-0.3-0.2-0.3s-0.2,0.1-0.3,0.2c0.1,0.2,0.3,0.3,0.4,0.5C263.3,47.6,263.4,47.5,263.4,47.4z"/>
	<path class="st5" d="M115.1,64.4c-4.2,4.5-9.6,5.5-15.4,5.9c-5.9,0.3-11.9,0.9-17.8,1.7c-1.7,0.2-3.2,1.7-4.7,2.5
		c-2.2,2-4.1,1.5-5.8-0.8c-1.5-2-3-3.9-4.5-5.8c-0.5-3.5-1-7.1-1.6-10.6c2.1-3.6,4.3-7.2,6.4-10.9c0.6,0,1.2,0,1.8,0
		c-1.8,3.2-3.6,6.3-5.5,9.5c0.4,0.2,0.8,0.4,1.2,0.6c0.5-0.4,1-0.8,1.5-1.2c0.1,0.5,0.3,1,0.4,1.5c0.1,0.8,0.1,1.7,0.2,2.5
		c0.2,1.5,0.5,2.9,0.7,4.4c0.4,0,0.8,0,1.1,0c0.2-1.7,0.5-3.4,0.9-6.5c1.7,3.3,2.8,5.3,3.6,6.8c-2.4,1.6-4.1,2.8-5.4,3.7
		c11.1-0.6,21.9-1.3,32.9-1.9c-4.6-0.6-9-1.2-13.3-1.7c1-0.5,2-1.1,2.9-1.6c1.7-0.2,3.4-0.3,5.1-0.5c1.2-0.2,2.3-0.5,3.5-0.7
		c0.1-0.7,0.2-1.4,0.3-2.1l0.3,0.2l0.4-0.1c0.4,0.4,0.9,0.9,1.3,1.3c3.4,3,4.4,0.6,5-2.4c0.2-0.3,0.3-0.6,0.4-0.9
		c1.9-0.4,3.8-0.9,5.7-1.3C116.2,59,115.7,61.7,115.1,64.4z"/>
	<path class="st3" d="M87.7,143.5c6.7-0.7,13.3-1.4,20-2.1c0.5,0.6,1,1.3,1.6,1.9c0.5-0.7,0.9-1.4,1.4-2c3-0.2,6.1-0.4,9.1-0.6
		c0.7,0.8,1.3,1.6,2,2.4c0.3-0.8,0.6-1.7,1-2.5c1.3-0.1,2.7-0.1,4-0.2c-0.2,2.6-0.4,5.1-0.7,8.5c-3-0.6-5.8-1.2-9.3-1.9
		c-0.7,0.6-2.1,1.7-3.1,2.5c-2.2-1.3-4.2-2.4-6.2-3.6c-0.2,0.3-0.4,0.7-0.7,1c1.2,0.6,2.3,1.3,3.5,1.9c-0.3,0.5-0.6,1.1-0.9,1.6
		c-4.5,0.4-9.2-3.2-13.4,0.2c0.4-1.8,0.9-3.7,1.5-6.5c-2.6,1-4.7,1.7-6.8,2.4C89.6,145.5,88.6,144.5,87.7,143.5z M115.9,142.4
		c-0.3,0.4-0.5,0.7-0.7,1.1c0.3,0.2,0.8,0.7,1,0.6c0.4-0.2,0.7-0.7,1-1.1C116.8,142.9,116.4,142.7,115.9,142.4z"/>
	<path class="st3" d="M156.2,138.5c10.5-0.6,21-1.2,31.5-1.7c0,1.9,0,3.8-0.1,5.7c-0.3-0.4-0.6-0.7-1-1.1c-0.4,0-0.7-0.1-1.1-0.1
		c0.1,1.4,0.1,2.7,0.2,4.1c-4.1,0.3-8.1,0.7-12.2,1c0-1,0-2.1,0-3.5c-0.9,0.8-1.4,1.2-1.8,1.6c-0.2-0.7-0.4-1.5-0.8-3.2
		c-0.2,2.1-0.3,3.1-0.4,4.2c-2.9,0-5.8,0-8.6,0c-0.6,0-1.2,0-1.7,0c-0.4,0.3-0.9,0.7-1.3,1c-0.1-1.4-0.3-2.9-0.6-5.6
		c-0.5,2.4-0.7,3.5-0.9,4.6h-0.3c-0.5-0.9-0.9-1.7-1.4-2.6C155.8,141.4,156,140,156.2,138.5z M168.7,139.8c0-0.2-0.1-0.4-0.1-0.6
		c-1.9,0.4-3.8,0.7-5.7,1.1c0.1,0.5,0.2,1.1,0.3,1.6C165,141.2,166.9,140.5,168.7,139.8z M183.8,140.4c0.1-0.1,0.2-0.2,0.4-0.3
		c-0.3-0.1-0.5-0.3-0.8-0.4c-0.1,0-0.2,0.2-0.3,0.3C183.3,140.1,183.6,140.2,183.8,140.4z"/>
	<path class="st1" d="M295.6,46.4c0-1,0.1-2.1,0.1-3.1c22.6-0.2,45.2-0.4,67.9-0.6c0,0.9,0.1,1.7,0.1,2.6l-0.2,0.2
		c-22.4,0.5-44.7,0.9-67.1,1.4C296.1,47,295.9,46.6,295.6,46.4z"/>
	<path class="st3" d="M285.6,131.2c1-0.1,2.1-0.2,3.1-0.3c0.4,2.1,0.7,4.1,1.1,6.4c-7.8,1-15.2,1.9-22.7,2.8c0,0.3,0.1,0.6,0.1,1
		c-1.9-0.9-3.7-1.7-5.6-2.6c0.1-0.7,0.3-1.4,0.4-2c1.5,0,3.1,0.2,4.5-0.1c2.1-0.4,4.1-1.6,6.2-1.8c3.2-0.3,6.5,0.2,9.7-0.3
		C283.7,134.1,284.6,132.2,285.6,131.2z"/>
	<path class="st2" d="M78.8,103.1c0.2,2.4,0.4,4.9,0.6,7.3c-2.7,1.4-2.7,2.8,0.2,4c0,0.7,0.1,1.3,0.1,2c-0.6,0.4-1.2,0.9-1.8,1.3
		c0.6,0.6,1.3,1.1,1.9,1.7c-0.1,3.2-0.1,6.4-0.2,9.6c-3,0.7-3.9-0.8-3.9-3.5c0-5.6-0.3-11.2,0.1-16.8C76,106.8,77.7,105,78.8,103.1z
		"/>
	<path class="st1" d="M65.3,57.4c0.5,3.5,1,7.1,1.6,10.6c-0.1,3.1-0.2,6.3-0.2,9.4c-3.5,0.1-5.2-1.8-5-5.2
		C62,67.1,60.2,61.3,65.3,57.4z"/>
	<path class="st6" d="M220.6,140.6c-0.4,0.9-0.8,1.7-1.4,2.9c-3.7,0-7.6,0-11.6,0c0-1-0.1-2-0.1-3c0.4-1,0.8-1.9,1.2-2.9
		C212.6,139,217.3,136.9,220.6,140.6z"/>
	<path class="st3" d="M363.6,53.4c-0.3,9.4-0.6,18.8-1,28.2c0,1-1.2,2-1.8,2.9c0.3-9.4,0.6-18.8,1-28.2
		C361.8,55.3,363,54.4,363.6,53.4z"/>
	<path class="st6" d="M130.6,144.4c0.4,0,0.7-0.1,1.1-0.1c1-0.6,2-1.2,3.1-1.8c2.6,0,5.2-0.3,7.7,0.2c1.2,0.2,2.1,2,3.2,3.1
		c-1.2,0.6-2.3,1.5-3.6,1.7c-2.4,0.5-4.8,0.6-7.2,0.9C133.4,147,132,145.7,130.6,144.4z"/>
	<path class="st2" d="M363.7,125.4c0.3,9,0.7,18,1,27c-1-1.3-2.8-2.6-2.8-4c-0.3-6.9-0.2-13.8-0.1-20.7
		C361.8,127,363,126.2,363.7,125.4z"/>
	<path class="st3" d="M340.6,128c1-0.1,2.1-0.1,3.1-0.2c-0.1,1.3-0.2,2.6-0.3,2.9c1.9,0.7,3.6,1.4,5.3,2c-0.2,0.5-0.3,1-0.5,1.5
		c-2.6,0.3-5.2,0.6-7.9,0.9c-1.9-1.3-3.8-2.5-5.7-3.8C336.6,130.3,338.6,129.1,340.6,128z"/>
	<path class="st3" d="M220.6,140.6c-3.3-3.6-8-1.5-11.9-3c0-0.7-0.1-1.3-0.1-2c4.7-0.3,9.4-0.6,14.1-0.9c-0.8,1-1.5,1.9-2.6,3.2
		C220.2,138.3,220.4,139.4,220.6,140.6z"/>
	<path class="st6" d="M311.7,133.4c0.4,2.8-0.4,4.3-3.6,4c-2.4-0.2-4.9-0.1-7.3-0.1c0-1.3,0-2.5,0.1-3.8c3.6-0.3,7.1-0.7,10.7-1
		C311.5,132.9,311.6,133.1,311.7,133.4z"/>
	<path class="st6" d="M90.6,146.5c2.1-0.7,4.1-1.5,6.8-2.4c-0.7,2.8-1.1,4.6-1.5,6.5c-1.8,0.3-3.6,0.6-5.7,1
		C90.3,149.3,90.4,147.9,90.6,146.5z"/>
	<path class="st6" d="M198.5,142.5c-1.6,0.9-3.2,2.3-4.9,2.6c-1.2,0.2-2.7-1.1-4-1.7c0.7-0.7,1.3-1.4,2-2.1c1.7,0.4,3.5,1.1,2.8-2
		c1.3,0,2.7,0.1,4,0.1c0.4,0,0.8,0.1,1.3,0.1c0,0.5,0,1,0,1.6C199.4,141.6,199,142,198.5,142.5z"/>
	<path class="st6" d="M328.9,133.5c-0.7,1-1.3,2.6-2.1,2.8c-2.3,0.4-4.8,0.2-7.2,0.2c0.1-1.4,0.1-2.7,0.2-4.1c2.4,0,4.9-0.1,7.3-0.1
		c0.1,0,0.1,0,0.2,0c0.5-0.3,0.9-0.6,1.4-0.9C328.7,132.1,328.8,132.8,328.9,133.5z"/>
	<path class="st6" d="M334.7,131.4c1.9,1.3,3.8,2.5,5.7,3.8c-1.9,0.1-3.8,0.2-5.8,0.2c-0.2-0.5-0.5-0.9-0.7-1.4
		c-0.4,0.4-0.8,0.8-1.3,1.3c-0.7-0.6-1.4-1.3-2-1.9c0.1-0.6,0.2-1.3,0.3-1.9C332.1,131.5,333.4,131.5,334.7,131.4z"/>
	<path class="st6" d="M201.7,138.5c1.6,0.7,3.2,1.4,4.8,2.1c0,0.9-0.1,1.8-0.1,2.6c-1.7,0.1-3.3,0.3-5,0.4
		C201.5,141.9,201.6,140.2,201.7,138.5z"/>
	<path class="st3" d="M130.6,144.4c1.4,1.3,2.8,2.6,4.2,3.9c-2.2-0.6-5.3,2-6.7-1.6c-0.4-0.9,0.1-2.2,0.2-3.3
		C129.1,143.8,129.8,144.1,130.6,144.4z"/>
	<path class="st3" d="M319.7,132.4c-0.1,1.4-0.1,2.7-0.2,4.1c-0.6,0-1.2,0-1.8-0.1c-0.4-0.3-0.7-0.7-1.1-1c-1.7-0.7-3.3-1.3-5-2
		c-0.1-0.3-0.1-0.6-0.2-0.9C314.2,132.5,317,132.5,319.7,132.4z"/>
	<path class="st1" d="M300.8,133.6c0,1.3,0,2.5-0.1,3.8c-1.4,0-2.8,0-4.2,0c0.3-1,0.7-1.9,1-2.9
		C298.6,134.2,299.7,133.9,300.8,133.6z"/>
	<path class="st3" d="M347.4,108.5c-0.1-2-0.2-4.1-0.3-6.1C347.2,104.4,347.3,106.5,347.4,108.5z"/>
	<path class="st1" d="M201.7,138.5c-0.1,1.7-0.2,3.4-0.4,5.2c-0.3-0.1-0.6-0.1-0.9-0.2c-0.2-0.8-0.5-1.6-0.7-2.3c0-0.5,0-1,0-1.6
		c0.3-0.3,0.5-0.7,0.8-1C200.9,138.5,201.3,138.5,201.7,138.5z"/>
	<path class="st3" d="M194.5,139.3c0.7,3-1.1,2.4-2.8,2C191.6,139.1,192.1,138,194.5,139.3z"/>
	<path class="st3" d="M153.7,146.4c-0.8,0.5-1.7,1-2.5,1.5c-0.2-0.6-0.5-1.1-0.7-1.7c1-0.2,2.1-0.5,3.1-0.7
		C153.6,145.7,153.7,146,153.7,146.4z"/>
	<path class="st2" d="M77.8,87.9c0.2,2.5,0.4,5,0.6,7.4C78.2,92.9,78,90.4,77.8,87.9z"/>
	<path class="st7" d="M153.7,146.4c0-0.3-0.1-0.7-0.2-1c0.7-0.8,1.5-1.7,2.2-2.5c0.5,0.9,0.9,1.7,1.4,2.6
		C155.9,145.8,154.8,146.1,153.7,146.4z"/>
	<path class="st3" d="M361.7,92.4c0.3,1,0.6,2,1,3C362.4,94.4,362,93.4,361.7,92.4z"/>
	<path class="st1" d="M289.7,47.4c1-0.3,2.1-0.6,3.1-1C291.8,46.8,290.7,47.1,289.7,47.4z"/>
	<path class="st1" d="M171.8,144.4c0.5-0.4,0.9-0.8,1.8-1.6c0,1.5,0,2.5,0,3.5c-0.7,0-1.4-0.1-2.2-0.1
		C171.6,145.6,171.7,145,171.8,144.4z"/>
	<path class="st3" d="M363.6,109.4c0,1,0,2,0,3C363.7,111.4,363.7,110.4,363.6,109.4z"/>
	<path class="st3" d="M147.5,142.5c0.8-0.3,1.6-0.5,2.4-0.8c0.1,0.3,0.2,0.7,0.3,1c-0.9,0.3-1.7,0.5-2.6,0.8
		C147.7,143.1,147.6,142.8,147.5,142.5z"/>
	<path class="st7" d="M185.8,145.3c-0.1-1.4-0.1-2.7-0.2-4.1c0.4,0,0.7,0.1,1.1,0.1c0.3,0.4,0.6,0.7,1,1.1
		C187,143.4,186.4,144.4,185.8,145.3z"/>
	<path class="st7" d="M171.8,144.4c-0.1,0.6-0.2,1.2-0.4,1.8c-0.3-0.3-0.6-0.5-0.9-0.8c0.1-1.1,0.2-2.1,0.4-4.2
		C171.4,142.9,171.6,143.7,171.8,144.4z"/>
	<path class="st3" d="M317.4,129.3c1.7-0.2,3.5-0.3,5.2-0.5C320.9,129,319.1,129.2,317.4,129.3z"/>
	<path class="st7" d="M157.3,145.5c0.2-1.1,0.4-2.2,0.9-4.6c0.3,2.8,0.4,4.2,0.6,5.6C158.3,146.1,157.8,145.8,157.3,145.5z"/>
	<path class="st3" d="M130.8,140c1.6-0.1,3.3-0.2,4.9-0.3C134,139.8,132.4,139.9,130.8,140z"/>
	<path class="st3" d="M332.6,135.3c0.4-0.4,0.8-0.8,1.3-1.3c0.2,0.5,0.5,0.9,0.7,1.4C334,135.4,333.3,135.4,332.6,135.3z"/>
	<path class="st7" d="M199.8,141.1c0.2,0.8,0.5,1.6,0.7,2.3c-0.3,0.3-0.6,0.6-0.8,0.9c-0.4-0.6-0.7-1.2-1.1-1.9
		C199,142,199.4,141.6,199.8,141.1z"/>
	<path class="st7" d="M297.6,134.5c-0.3,1-0.7,1.9-1,2.9C296.9,136.4,297.2,135.4,297.6,134.5z"/>
	<path class="st3" d="M330.9,131.6c-0.1,0.6-0.2,1.3-0.3,1.9c-0.6,0-1.2,0-1.8,0c-0.1-0.7-0.2-1.3-0.3-2
		C329.4,131.5,330.1,131.5,330.9,131.6z"/>
	<path class="st3" d="M134.7,142.5c-1,0.6-2,1.2-3.1,1.8C132.7,143.7,133.7,143.1,134.7,142.5z"/>
	<path class="st3" d="M347.7,127.4c0.2-1,0.3-1.9,0.5-2.9C348.1,125.5,347.9,126.5,347.7,127.4z"/>
	<path class="st3" d="M206.3,143.2c0-0.9,0.1-1.8,0.1-2.6c0.4,0,0.7-0.1,1.1-0.1c0,1,0.1,2,0.1,3
		C207.2,143.3,206.8,143.3,206.3,143.2z"/>
	<path class="st6" d="M160.2,145.5c0.6,0,1.2,0,1.7,0C161.3,145.5,160.7,145.5,160.2,145.5z"/>
	<path class="st7" d="M200.5,138.5c-0.3,0.3-0.5,0.7-0.8,1c-0.4,0-0.8-0.1-1.3-0.1C199.2,139.1,199.8,138.8,200.5,138.5z"/>
	<path class="st3" d="M200.8,136c0.5,0,1,0,1.6,0.1C201.8,136,201.3,136,200.8,136z"/>
	<path class="st3" d="M327.2,132.3c-0.1,0-0.1,0-0.2,0H327.2z"/>
	<path class="st3" d="M145.8,139.1c0.5,0,1,0,1.5,0C146.8,139.1,146.3,139.1,145.8,139.1z"/>
	<path class="st3" d="M142.5,139.4c0.3,0,0.6-0.1,0.9-0.1l-0.5,0.1H142.5z"/>
	<path class="st6" d="M316.7,135.4c0.4,0.3,0.7,0.7,1.1,1C317.4,136.1,317,135.8,316.7,135.4z"/>
	<path class="st2" d="M115.1,64.4c0.6-2.7,1.1-5.4,1.7-8.2c0-0.9-0.1-1.9-0.1-2.8c0.2-3.2-0.3-5.4-4.4-5.2c-1.8,0.1-3.7-1.1-5.6-1.8
		c4.1-0.2,8.2-0.6,12.3-0.7c4.7-0.2,9.5-0.2,14.2-0.2c4.3,0.1,8.6,0.5,12.8,0.4c5.6,0,11.2-0.4,16.7-0.5c2.3-0.1,4.6,0.1,6.9,0.1
		c0.7,0.3,1.3,0.6,2,0.9c1-0.7,2-1.4,3-2.1c5.3-0.3,10.7-0.6,16-0.8c0.4,0,0.7,0,1.1,0c5,0,10,0,15,0.1c0.7,0.3,1.3,0.6,2,0.8l0,0
		c0.7,0.7,1.3,1.3,2,2c1.6,1.3,3.3,2.6,4.9,4c3.9,1,7.9,1.9,11.7,3.2c1.5,0.5,2.6,2,3.9,3c-0.3,0.5-0.5,1.1-0.8,1.6
		c-7.6,0.4-15.3,1.8-22.7,0.9c-4.5-0.5-8.7-4.4-12.9-7c-4.1-2.6-8.2-2.5-12.6-1c7.1,0.1,12.9,2.8,18.5,9
		C171.4,61.5,143.2,63,115.1,64.4z"/>
	<path class="st6" d="M190.6,43.5c-5.3,0.3-10.7,0.6-16,0.8c-1,0-1.9,0-2.9,0c-0.7-0.3-1.4-0.5-2.1-0.8c-1.5-0.4-3.1-1-4.6-1.1
		c-30.3-0.1-60.6-0.1-90.9,0c-1.6,0-3.3,0.6-4.9,0.6c-1.7,0-3.5-0.5-5.2-0.7c0-0.5,0-0.9,0.1-1.4c1-0.2,2.1-0.6,3.1-0.5
		c7.9,0.3,15.9,0.9,23.8,0.9c52.3,0.1,104.5,0,156.8,0.1c1.7,0,3.3,0.1,5,0.1c0.1,0.5,0.1,1,0.2,1.5c-6.4,0.1-12.8,0.1-19.2,0.5
		c-1.4,0.1-2.8,1.4-4.1,2.1c-2.2-0.7-4.5-1.9-6.7-2c-4.7-0.3-9.5,0-14.2,0c-0.7,0-1.3,0-2,0.1c-5,0-10,0-15-0.1
		C191.4,43.5,191,43.5,190.6,43.5z"/>
	<path class="st7" d="M253,43c-0.1-0.5-0.1-1-0.2-1.5c23.5-0.2,47-0.5,70.4-0.7c7.3,0,14.6,0.5,21.9,0.5c6.5,0,12.9-0.4,19.4-0.7
		c-0.3,0.7-0.7,1.4-1,2.1c-22.6,0.2-45.2,0.4-67.9,0.6c-2.7,0-5.4,0-8,0C276.1,43.2,264.5,43.1,253,43z"/>
	<path class="st5" d="M106.7,46.4c1.9,0.6,3.8,1.9,5.6,1.8c4.1-0.2,4.7,2.1,4.4,5.2c-2.7-1.3-5.2-1.8-6.1,2.2
		c-0.5-0.2-0.9-0.5-1.4-0.7c-0.1-0.2-0.3-0.4-0.6-0.5c-0.9-0.7-1.8-1.5-2.9-2.4c-0.3,0.9-0.4,1.5-0.6,2.1l0,0
		c-0.6-0.4-1.2-0.8-1.9-1.2c-0.6,0.8-1.1,1.6-1.7,2.3c-1.3-0.9-2.6-1.8-4.9-3.4c-0.4,0.7-1,1.8-1.7,2.9c-0.5,0.1-1,0.3-1.5,0.4
		c-1.5-0.9-3-2.4-4.6-2.5c-3.6-0.2-7.2,0.4-11.2,0.7c-0.1,1.3-0.3,2.5-0.5,4.6c-1.4-1.8-2.2-3-3.1-4.1c2.4-2.4,4.6-5,7.2-7.1
		c1.4-1.1,3.6-1.2,5.4-1.8C93.5,45.5,100.1,45.9,106.7,46.4z"/>
	<path class="st8" d="M86.9,45c-1.8,0.6-4,0.7-5.4,1.8c-2.6,2.1-4.8,4.7-7.2,7.1c-1.2,0.5-2.4,1.1-3.6,1.6c-0.5,0.4-1,0.8-1.5,1.2
		c-0.4-0.2-0.8-0.4-1.2-0.6c1.8-3.2,3.6-6.3,5.5-9.5C77.7,43.7,82.1,42.2,86.9,45z"/>
	<path class="st6" d="M363.5,42.8c0.3-0.7,0.7-1.4,1-2.1c0.1-0.1,0.2-0.4,0.3-0.4c2.4-0.4,4.9-0.9,7.3-1.3c0,1.3,0.6,3.2,0,3.6
		c-2,1.6-3.4,5-7,3.1c-0.4-0.2-1-0.2-1.5-0.3C363.6,44.5,363.6,43.7,363.5,42.8z"/>
	<path class="st3" d="M51.7,32.4c1,0.6,2,1.3,3,1.9c-0.3,3.3-0.6,6.6-1,9.9c-0.3,2.1-0.7,4.1-1,6.2C52.5,44.4,48.3,38.6,51.7,32.4z"
		/>
	<path class="st3" d="M49.8,69.5c0.3-4.9,0.5-9.8,0.9-14.7c0.1-0.9,1.2-1.6,1.9-2.4c-0.3,5-0.6,10.1-1.1,15.1
		C51.5,68.2,50.4,68.8,49.8,69.5z"/>
	<path class="st3" d="M50.7,110.4c0-1.7,0-3.4,0-5C50.7,107.1,50.7,108.8,50.7,110.4z"/>
	<path class="st3" d="M52.7,156.4c0-1.3,0-2.7,0-4C52.7,153.8,52.7,155.1,52.7,156.4z"/>
	<path class="st3" d="M51.7,135.4c0-1.3,0-2.7,0-4C51.7,132.8,51.7,134.1,51.7,135.4z"/>
	<path class="st3" d="M169.7,43.6c0.7,0.3,1.4,0.5,2.1,0.8c0,0.7,0,1.4-0.1,2.1c-0.7-0.3-1.3-0.6-2-0.9
		C169.7,44.9,169.7,44.2,169.7,43.6z"/>
	<path class="st3" d="M393.3,129.1c-3.3-0.2-6.7-0.4-10-0.6c-0.1,0.6-0.2,1.2-0.3,1.8c4.4,0.7,8.7,1.4,13.1,2.2
		c-0.1,0.6-0.1,1.1-0.2,1.7c-4.3,0-8.6,0-13,0c0,0.6,0,1.1-0.1,1.7c3.7,0.3,7.4,0.6,11.2,0.9c0,0.5-0.1,1-0.1,1.5
		c-3.8-0.3-7.5-0.7-11.8-1c0-3.8,0-7.5,0-11.3c3.9,0.4,7.7,0.7,11.4,1.1C393.5,127.7,393.4,128.4,393.3,129.1z"/>
	<path class="st3" d="M385,75.2c4,1,8.1,1.9,12.1,2.9c-0.1,0.4-0.2,0.8-0.3,1.3c-3.8-0.6-7.9-0.7-11.4-2.2c-1.7-0.7-2.4-4-4-6.9
		c5.9,1.1,10.3,1.9,14.6,2.7c0,0.4,0,0.8,0.1,1.2c-1.7,0-3.3,0.1-5,0c-1.9-0.1-3.8-0.4-5.7-0.6C385.2,74,385.1,74.6,385,75.2z"/>
	<path class="st3" d="M382.8,149.9c3.8,0.3,7.5,0.6,11.3,0.9c-0.1,0.6-0.1,1.1-0.2,1.7c-4.2-0.4-8.3-0.8-12.8-1.3c0-2.5,0-4.7,0-6.9
		c4.7,0.8,9.3,1.6,14,2.4c-0.1,0.5-0.1,0.9-0.2,1.4c-4,0-8,0-12,0C382.9,148.7,382.8,149.3,382.8,149.9z"/>
	<path class="st3" d="M396,110.3c-4-0.2-8-0.5-12-0.7c-0.1,0.7-0.1,1.4-0.2,2.1c3.8,0.5,7.6,1,11.4,1.5c-0.1,0.7-0.2,1.3-0.3,2
		c-3.8-0.7-7.7-1.3-11.5-2.1c-0.6-0.1-1.3-1.6-1.1-2.3c0.3-1.2,1.3-3,1.9-3c4,0.1,8,0.6,12.1,1C396.2,109.2,396.1,109.8,396,110.3z"
		/>
	<path class="st3" d="M392.9,165.5c-3.9-0.3-7.7-0.7-11.9-1c-0.1-2.3-0.2-4-0.3-5.6c4.9,0.3,9.6,0.7,14.2,1c0,0.5,0,1-0.1,1.6
		c-4.2,0-8.3,0-12.5,0c0,0.5-0.1,1-0.1,1.5c3.6,0.3,7.2,0.6,10.8,0.9C393,164.4,392.9,164.9,392.9,165.5z"/>
	<path class="st3" d="M385.2,57c4,0.6,7.9,1.3,11.9,1.9c0,0.4-0.1,0.8-0.1,1.2c-4.2-0.3-8.4-0.5-12.6-1.1c-0.6-0.1-1.6-2.4-1.2-3.1
		c0.5-1.1,2.1-2.4,3.2-2.3c3.6,0.2,7.1,0.9,10.7,2.1c-3.9,0-7.8,0-11.8,0C385.3,56.2,385.2,56.6,385.2,57z"/>
	<path class="st3" d="M383,84.5c4.7,0.8,9.4,1.6,14,2.4c-0.1,0.5-0.2,1-0.3,1.5c-4.7-0.8-9.4-1.6-14.2-2.4
		C382.8,85.6,382.9,85.1,383,84.5z"/>
	<path class="st3" d="M383,93.6c4.4,0.7,8.7,1.4,13.1,2.1c-0.1,0.6-0.2,1.1-0.3,1.7c-4.4-0.7-8.8-1.4-13.2-2.1
		C382.8,94.8,382.9,94.2,383,93.6z"/>
	<path class="st3" d="M397.2,105.1c-5.9,1.9-13.3,0.3-14.3-2.4C387.3,103.4,391.6,104.2,397.2,105.1z"/>
	<path class="st3" d="M395.9,92.3c-4.6,0.2-9.2,0-13.1-3.5c4.4,0.7,8.8,1.5,13.2,2.2C396,91.4,396,91.8,395.9,92.3z"/>
	<path class="st3" d="M380.8,166.8c4.3,0.8,8.2,1.5,12.2,2.2c0,0.4-0.1,0.9-0.1,1.3c-3.7-0.4-7.4-0.7-11-1.2
		C381.3,169,381,167.4,380.8,166.8z"/>
	<path class="st3" d="M383.5,121.3c4.2,0.4,8.4,0.9,12.6,1.3c0,0.5-0.1,1-0.1,1.6c-4.2-0.4-8.4-0.8-12.6-1.2
		C383.4,122.5,383.4,121.9,383.5,121.3z"/>
	<path class="st3" d="M380.9,116.5c5.9,0.6,10.4,1.1,15,1.6C390.9,119.8,386.3,119.4,380.9,116.5z"/>
	<path class="st3" d="M382.7,140.4c4.1,0.4,8.2,0.8,12.2,1.2c-0.2,0.8-0.3,1.6-0.5,2.5C390.5,142.9,386.6,141.6,382.7,140.4
		L382.7,140.4z"/>
	<path class="st3" d="M381.8,79.6c5.5,1.1,9.8,1.9,14.1,2.8C391.1,83.2,386.4,83.7,381.8,79.6z"/>
	<path class="st3" d="M395.7,63.5c-4.6,0.8-9.2,1.7-12.7-2.1C387.3,62.1,391.5,62.8,395.7,63.5z"/>
	<path class="st3" d="M383.2,66.8c4.5,0.4,9.1,0.7,13.6,1.1c-0.1,0.6-0.1,1.1-0.2,1.7c-4.6-0.6-9.2-1.1-13.8-1.7
		C382.9,67.5,383,67.2,383.2,66.8z"/>
	<path class="st3" d="M383.9,43.7c4.1,0.7,8.1,1.4,12.2,2.1c-0.1,0.5-0.2,1-0.3,1.6c-4.1-0.7-8.1-1.5-12.2-2.2
		C383.7,44.6,383.8,44.1,383.9,43.7z"/>
	<path class="st3" d="M394.4,157.4c-4.6-0.6-9.1-1.1-13.7-1.7c0.1-0.3,0.2-0.7,0.2-1c4.7,0.4,9.4,0.9,14.1,1.3
		C394.8,156.5,394.6,156.9,394.4,157.4z"/>
	<path class="st3" d="M386.4,39.8c3.6,0.4,7.1,0.7,10.7,1.1c0,0.5-0.1,1-0.1,1.5c-3.5-0.4-7.1-0.8-10.6-1.2
		C386.3,40.7,386.3,40.2,386.4,39.8z"/>
	<path class="st3" d="M395.5,101.8c-4.3-0.6-8.5-1.1-12.8-1.7c0.1-0.5,0.1-1,0.2-1.5c4.3,0.7,8.5,1.3,12.8,2
		C395.6,101,395.6,101.4,395.5,101.8z"/>
	<path class="st3" d="M382.7,140.4c-0.2-0.3-0.5-0.7-0.7-1C382.2,139.7,382.4,140.1,382.7,140.4L382.7,140.4z"/>
	<path class="st3" d="M46.7,113.4c0,5.7,0,11.3,0,17c-0.8-0.9-1.5-1.9-1.9-2.3c0.7-2.7,1.3-5.3,2.1-8.3c-4.5-0.7-8.4-1.4-12.4-2.1
		c0-0.4,0.1-0.8,0.1-1.3c3.8,0.3,7.6,0.6,11.4,0.9c0.1-0.6,0.3-1.2,0.4-1.8c-3.8-0.8-7.5-1.6-11.3-2.4c0.1-0.5,0.1-1.1,0.2-1.6
		C39.1,112.2,42.9,112.8,46.7,113.4z"/>
	<path class="st3" d="M46.7,144.4c0.6,1.3,4.4,2.6,0,4c-1.8-0.7-3.5-1.4-5.3-1.9s-3.7-0.7-5.2-2C39.7,144.4,43.2,144.4,46.7,144.4z"
		/>
	<path class="st3" d="M46.7,135.4c0,0.7,0,1.4,0,2c-4.4-0.1-8.8-0.3-12.5-3.3C38.3,134.6,42.5,135,46.7,135.4z"/>
	<path class="st3" d="M46.7,162.4c0.3,1.3,0.7,2.6,1,4c-1.8-0.7-3.5-1.5-5.3-2c-2-0.6-4.1-1-6.1-2.6C39.8,162,43.2,162.2,46.7,162.4
		z"/>
	<path class="st3" d="M46.7,149.4c0.7,0.7,1.3,1.3,2,2c-4.5-0.4-8.9-0.8-13.4-1.3c0-0.5,0.1-1,0.1-1.5
		C39.1,148.9,42.9,149.2,46.7,149.4z"/>
	<path class="st3" d="M48.6,153.4c-0.3,0.7-0.6,1.3-1,2c-4.1-0.5-8.3-1-12.4-1.5c0-0.4,0.1-0.8,0.1-1.2
		C39.8,153,44.2,153.2,48.6,153.4z"/>
	<path class="st3" d="M47.7,158.4c0,1,0,2,0,3c-3-1-6.1-2-9.1-2.9c-1.1-0.3-2.3-0.4-3.3-1.6C39.4,157.4,43.5,157.9,47.7,158.4z"/>
	<path class="st3" d="M46.7,167.4c0,0.7,0,1.3,0,2c-3.5-0.5-6.9-1-10.4-1.6c0-0.4,0.1-0.9,0.1-1.3C39.8,166.9,43.2,167.1,46.7,167.4
		z"/>
	<path class="st3" d="M46.7,131.4c0,0.7,0,1.4,0,2c-3.9-0.7-7.8-1.5-11.7-2.2c0.1-0.3,0.1-0.6,0.2-1C39,130.7,42.8,131,46.7,131.4z"
		/>
	<path class="st3" d="M45.7,171.4c0.3,0.7,0.7,1.3,1,2c-3.5-0.4-7-0.8-10.4-1.2c0-0.5,0-0.9,0-1.4C39.4,171,42.5,171.2,45.7,171.4z"
		/>
	<path class="st3" d="M31.7,48.4c4.1,0,8.2,0,12.3,0c0-0.5,0.1-1,0.1-1.5c-3.3-0.3-6.5-0.6-9.8-0.9c0-0.4,0-0.7-0.1-1.1
		c3.4-0.4,6.9-0.7,10.3-1.1c0-0.7,0-1.4,0-2c-3.5-0.2-7.1-0.4-10.6-0.6c0-0.4-0.1-0.8-0.1-1.3c4-0.2,7.9-0.4,11.9-0.5
		c0.3,4,0.7,8,1,12c-3.6-0.3-7.1-0.5-10.7-1.1C34.5,50.1,33.1,49.1,31.7,48.4z"/>
	<path class="st3" d="M44.7,33.4c-4-0.3-8-0.7-12-1c1.2-0.7,2.5-1.8,3.8-1.9c3.1-0.3,6.2-0.1,9.2-0.1c0,1,0,2,0,3
		C45.3,33.4,45,33.4,44.7,33.4z"/>
	<path class="st3" d="M46.7,61.4c-2.2-0.7-4.5-1.5-6.8-1.9c-1.8-0.3-3.7-0.1-5.6-0.1c0-0.7,0-1.3,0-2c3.8,0,7.6,0,11.3,0
		C46,58.8,46.3,60.1,46.7,61.4z"/>
	<path class="st3" d="M45.7,56.4c-1.5-0.7-2.9-1.7-4.4-1.9c-2.6-0.3-5.3-0.1-8-0.1c0-0.7,0.1-1.4,0.1-2.1c4.4,0.4,8.8,0.7,13.2,1.1
		C46.3,54.4,46,55.4,45.7,56.4z"/>
	<path class="st2" d="M44.7,33.4c0.3,0,0.7,0,1,0c0,1.7,0,3.3,0,5l0,0c-0.3-1-0.7-2-1-3C44.7,34.7,44.7,34.1,44.7,33.4z"/>
	<path class="st3" d="M44.7,35.4c0.3,1,0.7,2,1,3c-2-0.7-4-1.5-6.1-2c-2.3-0.5-4.6-0.7-6.9-1.1C36.7,35.4,40.7,35.4,44.7,35.4z"/>
	<path class="st0" d="M45.3,85.3c-3.7-0.4-7.3-0.7-11-1.1c0-0.4,0-0.8,0-1.2c3.7,0,7.4,0,11.1,0C45.3,83.8,45.3,84.6,45.3,85.3z"/>
	<path class="st5" d="M144.8,128.6c-0.3,0.4-0.7,0.7-1,1.1c-3.8,0.1-7.5-0.1-8.1-5.1c-0.4-3.1-0.8-6.2-1.2-9.3
		c0.2-11.6-2.1-26.5-4.4-27.7c-0.4,1.2-0.9,2.4-1.3,3.6c-0.7,0.5-1.4,0.9-2.1,1.4c-4,0.5-7.2-0.5-10-3.6c-3.1-3.4-6.8-5.2-10.9-1.3
		c-1.6,1.6-3.3,3.2-4.9,4.8c-1.8,1.5-3.3,3-0.8,5.1c0,1.1,0,2.2,0,3.4c0.2,0.8,0.4,1.6,0.6,2.5c0.1,1.4,0.2,2.8,0.2,4.2
		c-1.6,4.6,1.4,11.4,6.1,13.4c1,0.4,2.4-0.3,3.6-0.4c2.9-0.6,7.1,1.1,7-4.3c1-1,2-1.9,3-2.9c0.9,0.3,1.8,0.8,2.7,0.9
		c6,0.9,6.3,1.4,4.3,7.4c-0.4,1.1,0,2.4,0,3.6c-2.4,1.6-4.7,3.3-7.1,4.9c-1.5,0.3-3,0.4-4.4,0.8c-7,2.4-16.1-0.3-20.5-6.3
		c-10.1-13.8-10-28.3-3-43.2c2-1.8,4-3.6,6-5.4c3.7-0.5,7.4-0.9,11-1.4c6.7,0.3,12.6,2.2,16.7,8.1c0.5,0.7,2.1,0.5,3.3,0.7
		c1.5-3.7,1.4-8.1,4.9-10.9c1.6,0.5,3.1,1.5,4.7,1.5c5.9-0.1,11.8-0.5,17.7-0.8c5.1,3.2,7.8,8.2,9.7,13.6c0.8,1.4,1.6,2.9,2.4,4.3
		c-0.1,0.6-0.2,1.3-0.3,1.9c-1.2-0.1-2.3-0.1-3.5-0.2c0.3,0.8,0.6,1.6,0.9,2.4c-1.5,2.4-2.9,4.8-4.4,7.1c-2.6,0-3.9,0.3-1.7,3.3
		c3.8,5.3,7.1,10.9,10.7,16.4c-0.7,1.7-1.3,3.4-2,5.2c-3-0.6-6.6,1.2-8.8-2.8c-2.9-5.5-6.2-10.8-9.3-16.2c-1.4-1-2.7-2.3-4.3-2.7
		c-0.6-0.2-2.5,1.8-2.5,2.8C144,115.3,144.4,121.9,144.8,128.6z M152.8,95.3c1-1.8,2.9-3.7,2.6-5.3c-0.3-2.3-1.8-4.8-3.6-6.3
		c-0.8-0.7-3.5,1-5.4,1.6c-0.6,1.9-1.8,3.8-1.8,5.7c0,2.1,1,4.1,1.5,6.2C148.5,96.6,150.6,95.9,152.8,95.3z"/>
	<path class="st5" d="M225.5,107.5c0,0.6,0,1.3,0,1.9c-0.9,3.2-1.8,6.5-2.5,9.7c-0.1,0.3,1.7,0.9,2.6,1.4c-1.3,1.3-2.6,2.6-4,4
		c-6.5-0.5-8.6-2.5-9-9.4c-0.8-11.8-1.4-23.7-2.1-35.5c0-3.4,0-6.7,0.1-10.1c5.9-4.7,7.8-4.8,10.8-0.9c-0.1,1.1-0.7,2.4-0.2,3.2
		c4.1,7.6,8.3,15.1,12.5,22.6c1,0,2.1,0,3.1,0c-0.3-2.3-0.6-4.6-0.9-6.9c-0.3-6-0.7-12-1-18c0.9-1.1,1.8-2.3,2.8-3.4
		c0.5,0.4,0.9,1.3,1.4,1.2c4.5-0.1,5.8,2.4,6.1,6.5c0.5,6.3,1.6,12.5,2.4,18.8c0.6,3.6,1.3,7.1,1.9,10.7c0,1.1,0,2.2,0,3.3
		c0.2,1.9,0.4,3.8,0.5,5.7c-1.1,3.5-2.2,6.9-3.3,10.4c-4.6,0.4-7.7-1.5-9.8-5.7c-2.6-5.3-5.5-10.4-8.2-15.6
		c-1.4-1.6-2.7-3.3-4.2-4.8c-0.2-0.2-2.5,1.2-2.4,1.7c0.2,2.6,0.8,5.2,1.5,7.8C223.7,106.7,224.9,107,225.5,107.5z"/>
	<path class="st5" d="M297.5,85.3c-0.3-5.4-0.7-10.8-0.8-16.2c0-1.9,0.6-3.7,1-5.6c8.3,2.3,8.2,2.3,8.9,11.3
		c0.2,2.6,0.5,5.3,0.9,7.9c0.4,2.7,1.8,3.4,4.1,1.7c2.4-0.1,4.8-0.2,7.1-0.3c1-1.9,2.7-3.7,2.7-5.6c0.1-5.3-0.4-10.6-0.7-15.9
		c0.7-0.4,1.3-0.8,2-1.2c7.6,0.3,7.6,0.3,7.9,8.1c0.3,7.4,0.7,14.9,1.1,22.3c0,0.8,0.2,1.6,0.2,2.5c0.3,4.3,0.5,8.6,1,12.8
		c0.3,2.1,1.2,4.2,1.8,6.3c-0.8,1.3-1.6,2.5-2.4,3.8c-8.2,0.3-9-0.6-9-8.9c0-4.4-0.7-8.8-1.1-13.8c-4.4,0.4-8.6,0.7-12.6,1.1
		c0,3,0,5.3,0,7.6c-0.4,5.1-0.8,10.2-1.2,15.2c-6.9,1.5-8.9-0.7-9.1-9.7c-0.2-2.8-0.5-5.5-0.7-8.3C298.4,95.4,297.9,90.3,297.5,85.3
		z"/>
	<path class="st5" d="M170.6,91.4c0.1-4.6,0.2-9.3,0.1-13.9c-0.1-7.2,3.3-9.2,9.9-5.7c0.4,8.4,0.7,16.8,1.1,25.2
		c0,0.9,1.1,1.7,1.7,2.5c0.1,0.3,0.2,0.6,0.2,0.9c-1.9,4.8-2.1,9.7,1.3,13.8c1.7,2.1,4.5,3.3,7.8,0.8c-1.6-0.5-2.8-0.9-4-1.2
		c1.8-0.8,3.6-1.5,5.4-2.3c0.5-2,1.5-4,1.5-6c0-4.1-0.4-8.1-0.8-12.2c-0.6-7.3-1.3-14.6-1.9-21.9c1.6-0.8,3.2-1.6,4.8-2.3
		c5,1.7,6,5.5,5.9,10.4c-0.1,5.6,0.5,11.2,1,16.8c0.4,4.2,1.3,8.3,1.9,12.4c0.3,0.6,0.5,1.2,0.8,1.8c-0.9,8-5.2,13.4-12.7,16.3
		c-1,0-2-0.1-3-0.1c-7.2,0.1-13.8-1.5-16.3-9.1c-1.9-6.1-2.5-12.6-3.7-18.9C171.3,96.1,171,93.7,170.6,91.4z"/>
	<path class="st5" d="M256,72.8c2.2-2.1,4.4-4.3,6.7-6.4c0.7,0.3,1.4,0.9,2.1,0.8c4.7-0.6,9.4-1.2,14.2-1.9c1.8,0.6,4.1,0.7,5.4,1.9
		c3,2.7,5.5,6,8.2,9c-0.6,1.8-1.1,3.6-1.7,5.5c-0.1,0.2-0.2,0.5-0.3,0.7c-3.8,0.3-7.1-0.1-10-3.6c-2.6-3.1-6.5-4.2-10.1-0.6
		c-3.1,0-4.9,1.3-4.7,4.8c0.2,3.4,0.4,6.9,0.5,10.3c-0.2,0.3-0.5,0.6-0.7,0.9c-0.3,0.1-0.6,0.1-0.9,0.1c-0.1-0.9-0.3-1.9-0.4-2.8
		c-0.4,4.2-0.2,8.3,1.1,12.1c1.3,3.9,3.6,7.6,8.9,6.7c5.7,1.2,7.4,0.2,8.3-5c0.7-0.6,1.3-1.3,2-1.9c1.2,0.1,2.5,0.4,3.7,0.3
		c5.1-0.4,6.4,1.5,4.5,6.2c-0.6,1.4-0.7,3-1,4.5c-2.8,3.7-6.3,6.3-11,7.1c-1.6-0.1-3.3-0.3-4.9-0.3c-12.3,0.4-17.2-5.3-20.4-14.1
		C251.3,95.8,250.8,84.2,256,72.8z"/>
	<path class="st7" d="M256,72.8c-5.1,11.4-4.7,22.9-0.6,34.3c3.2,8.8,8.1,14.5,20.4,14.1c1.6-0.1,3.3,0.2,4.9,0.3
		c-2.1,0.9-4.1,2.7-6.2,2.7c-11.2-0.2-16.6-2.3-22.2-13.8c-0.8,0.6-1.6,1.2-2.4,1.9c-0.2-1.9-0.4-3.8-0.5-5.7c0-1.1,0-2.2,0-3.3
		c-0.6-3.6-1.3-7.1-1.9-10.7c0.7-4,1.4-8,2.1-12.1c1.1-1.8,2-3.7,3.3-5.3C253.6,74.2,254.9,73.6,256,72.8z"/>
	<path class="st7" d="M170.6,91.4c0.4,2.4,0.8,4.7,1.2,7.1c1.2,6.3,1.7,12.8,3.7,18.9c2.4,7.6,9.1,9.2,16.3,9.1c1,0,2,0.1,3,0.1
		c-4.4,5.2-9.5,2-14.3,1c-1.8-0.4-4.1-1.6-4.8-3.1c-1.2-2.6-3-2.3-5.1-2.2c-3.5-5.5-6.9-11.1-10.7-16.4c-2.2-3-0.9-3.3,1.7-3.3
		c2.5,3.4,5,6.7,7.9,10.7c0-3.6,0.1-6.4,0-9.2c-0.2-2.9-0.6-5.9-0.9-8.8l-0.1,0.1c0.3-1.4,0.7-2.7,1-4.1l0,0
		C169.9,91.4,170.3,91.4,170.6,91.4z"/>
	<path class="st7" d="M92.6,81.6c-6.9,15-7,29.5,3,43.2c4.4,6,13.5,8.6,20.5,6.3c1.4-0.5,2.9-0.6,4.4-0.8c-1.2,1.1-2.3,2.7-3.7,3.1
		c-13.6,3.9-25-2.2-29.6-16.1c-3.4-10.2-3.7-20.6,0.7-30.6C88.8,84.6,91,83.3,92.6,81.6z"/>
	<path class="st8" d="M206.6,108.5c-0.7-4.1-1.5-8.2-1.9-12.4c-0.5-5.6-1.1-11.2-1-16.8c0.1-4.9-0.9-8.7-5.9-10.4
		c3.3-2,6.6-3.3,8.6,1.6c0.2,0.6,0.3,1.2,0.5,1.8c1.2-1,2.5-2,3.7-3c0,3.4,0,6.7-0.1,10.1c-2.8,0-3.3,1.3-2.8,5.5
		c0.5,4.9,0.9,9.8,0.8,14.6C208.5,102.6,207.3,105.6,206.6,108.5z"/>
	<path class="st8" d="M334.8,113.5c-0.6-2.1-1.6-4.2-1.8-6.3c-0.5-4.2-0.7-8.5-1-12.8c-0.1-0.8-0.2-1.6-0.2-2.5
		c-0.4-7.4-0.8-14.9-1.1-22.3c-0.3-7.8-0.2-7.8-7.9-8.1c2.3-2.6,5.1-3.7,7.6-1.1c1.7,1.8,3.1,4.4,3.6,6.9c0.7,3.9,0.4,8,0.6,12
		c0.4,6.2,0.9,12.4,1.4,18.6c0.3,4.1,0.6,8.2,0.6,12.3C336.6,111.3,335.4,112.4,334.8,113.5z"/>
	<path class="st7" d="M206.6,108.5c0.7-3,1.8-5.9,1.9-8.9c0.1-4.9-0.3-9.8-0.8-14.6c-0.4-4.2,0-5.5,2.8-5.5
		c0.7,11.8,1.4,23.7,2.1,35.5c0.4,6.9,2.5,9,9,9.4c-1.9,0.8-4.4,2.8-5.5,2.2c-2.3-1.2-4.2-3.6-5.4-5.9c-1-1.9-0.5-4.6-1.1-6.8
		c-0.3-1.3-1.5-2.4-2.3-3.6C207.2,109.7,206.9,109.1,206.6,108.5z"/>
	<path class="st7" d="M309.8,103.1c0-2.3,0-4.6,0-7.6c4-0.3,8.1-0.7,12.6-1.1c0.4,5,1.1,9.4,1.1,13.8c0,8.3,0.8,9.2,9,8.9
		c-0.5,4-3.9,3.7-5.9,2.9c-2.2-0.9-4.8-3.1-5.5-5.2c-1.2-3.5-1.3-7.5-1.2-11.2c0.1-4.8-1.9-6.3-6.7-4.9c-0.2,1.4-0.4,3-0.6,4.5
		C311.6,103.3,310.7,103.2,309.8,103.1z"/>
	<path class="st1" d="M253,43c11.6,0.1,23.1,0.2,34.7,0.3c-1.6,0.7-3.2,2-4.7,2c-15.9,0.1-31.8,0.1-47.6,0c-2.5,0-4.6,0.2-5.3,3
		c-0.2-0.4-0.4-0.7-0.6-1.1c0.1-0.6,0.2-1.1,0.2-1.7c1.4-0.7,2.7-2,4.1-2.1C240.2,43.1,246.6,43.1,253,43z"/>
	<path class="st8" d="M311.7,84.4c-2.3,1.7-3.7,1-4.1-1.7c-0.4-2.6-0.7-5.3-0.9-7.9c-0.7-9-0.7-9-8.9-11.3c1.7-3.3,4.9-4.1,7.6-2.7
		c2.1,1.1,4,4,4.5,6.3C310.9,72.8,311.1,78.7,311.7,84.4z"/>
	<path class="st3" d="M229.7,45.6c-0.1,0.6-0.2,1.1-0.2,1.7c-1.3,2.5-2.9,3.8-6.1,3.2c-2.5-0.5-5.2-0.1-7.8-0.1
		c-1.6-1.3-3.3-2.6-4.9-4c-0.7-0.7-1.3-1.3-2-2l0,0c0-0.3,0-0.6,0-0.9c4.8,0,9.5-0.3,14.2,0C225.2,43.7,227.4,44.9,229.7,45.6z"/>
	<path class="st7" d="M228.7,101.5c2.8,5.2,5.6,10.3,8.2,15.6c2,4.2,5.2,6,9.8,5.7c-0.7,3.4-5.9,4.3-8.9,1.1
		c-2.8-3-4.7-6.7-6.9-10.2c-1.5-2.3-2.8-4.8-4.2-7.2C226.3,104.3,223,101,228.7,101.5z"/>
	<path class="st7" d="M150.6,108.5c3.1,5.4,6.3,10.7,9.3,16.2c2.1,4,5.7,2.2,8.8,2.8c-2.7,4.7-8.5,4.2-11.8-0.8
		c-2.7-4.1-5.5-8.2-8.2-12.3c-0.3-1.4-0.9-2.9-0.7-4.2C148,109.5,149.7,109,150.6,108.5z"/>
	<path class="st7" d="M193,71.3c0.6,7.3,1.3,14.6,1.9,21.9c0.3,4.1,0.8,8.1,0.8,12.2c0,2-1,4-1.5,6c-0.8-4.2-1.9-8.4-2.3-12.6
		c-0.7-7.5-1-15.1-1.1-22.7C190.8,74.6,192.2,72.9,193,71.3z"/>
	<path class="st8" d="M249.6,80.5c-0.7,4-1.4,8-2.1,12.1c-0.8-6.3-1.8-12.5-2.4-18.8c-0.3-4.1-1.6-6.6-6.1-6.5
		c-0.4,0-0.9-0.8-1.4-1.2c2.6-0.5,5.6-1.9,7.6-1.1c1.8,0.8,2.8,4,3.4,6.4C249.3,74.3,249.3,77.5,249.6,80.5z"/>
	<path class="st8" d="M134.5,115.2c0.4,3.1,0.8,6.2,1.2,9.3c-0.4-1.2-0.6-2.4-1.1-3.6c-1-2.2-2-2.2-2.9,0.1
		c-1.4,1.4-2.7,2.9-4.1,4.3c0-1.2-0.3-2.5,0-3.6c2-6,1.7-6.6-4.3-7.4c-0.9-0.1-1.8-0.6-2.7-0.9c2.8-3.9,6.3-4,10.2-1.8
		C132,112.8,133.2,114,134.5,115.2z"/>
	<path class="st8" d="M183.5,99.5c-0.6-0.8-1.7-1.6-1.7-2.5c-0.5-8.4-0.8-16.8-1.1-25.2c2.5-1.8,3,1.1,3.1,1.9
		c0.5,7.4,0.7,14.7,0.8,22.1C184.6,97.1,183.9,98.3,183.5,99.5z"/>
	<path class="st8" d="M150.6,108.5c-1,0.5-2.7,1-2.8,1.6c-0.2,1.3,0.4,2.8,0.7,4.2c-0.2,2.3,0,4.7-0.6,6.9c-0.7,2.5-2.1,4.8-3.2,7.2
		c-0.4-6.7-0.8-13.3-1-20c0-1,1.9-2.9,2.5-2.8C147.9,106.2,149.2,107.5,150.6,108.5z"/>
	<path class="st8" d="M291.7,114.5c0.3-1.5,0.5-3.1,1-4.5c2-4.8,0.6-6.7-4.5-6.2c-1.2,0.1-2.5-0.2-3.7-0.3c2.6-4.3,6.3-3.6,10.1-2.1
		c1,0.7,1.9,1.4,2.9,2.1c0.4-1,0.8-2,1.2-2.9c0.2,2.8,0.5,5.5,0.7,8.3c-2.9-2-3.1,0.6-3.8,2.3C294.3,112.1,293,113.3,291.7,114.5z"
		/>
	<path class="st7" d="M295.7,111c0.7-1.7,0.9-4.2,3.8-2.3c0.2,9,2.2,11.2,9.1,9.7c0.3,0.1,0.6,0.1,0.9,0.1c-1.1,4.2-4.8,4.4-7.4,3.5
		c-2.5-0.9-4.5-3.8-6.1-6.2C295.2,114.6,295.7,112.6,295.7,111z"/>
	<path class="st7" d="M298.8,100.4c-0.4,1-0.8,2-1.2,2.9c-1-0.7-1.9-1.4-2.9-2.1c-0.3-6.6-0.7-13.3-1-19.9v0.1
		c0.1-0.4,0.1-0.7,0.2-1.1c0.4-0.7,0.7-1.3,1.1-2c0.9,2.3,1.7,4.6,2.6,6.9C297.9,90.3,298.4,95.4,298.8,100.4z"/>
	<path class="st0" d="M285.6,131.2c-1,1.1-1.9,2.9-3,3.1c-3.2,0.4-6.5-0.1-9.7,0.3c-2.1,0.2-4.1,1.4-6.2,1.8c-1.5,0.3-3,0.1-4.5,0.1
		c-0.5-0.5-1-1.1-1.6-1.6c0.4-0.7,0.8-1.5,1.2-2.2c2.2-0.1,4.4-0.2,6.6-0.3c0.8-0.1,1.6-0.2,2.3-0.3
		C275.6,131.7,280.6,131.4,285.6,131.2z"/>
	<path class="st7" d="M233.6,94.3c-4.2-7.5-8.4-15-12.5-22.6c-0.4-0.8,0.1-2.1,0.2-3.2c1.7,1.9,3.4,3.9,5.1,5.8
		c-0.5,0.4-1,0.8-1.4,1.2c0.9,0.6,1.8,1.3,2.6,1.9l0,0c0.3,1.5,0.4,3.1,1,4.4c1.7,3.5,3.8,6.9,5.6,10.4
		C234.6,92.7,233.9,93.6,233.6,94.3z"/>
	<path class="st8" d="M156.8,73.5c-5.9,0.3-11.8,0.7-17.7,0.8c-1.6,0-3.1-1-4.7-1.5c5-0.8,9.9-1.9,14.9-2.4
		c4.4-0.5,8.9-0.7,12.3,3.2C160.1,73.5,158.4,73.5,156.8,73.5z"/>
	<path class="st7" d="M129.6,83.6c-1.1-0.2-2.8,0-3.3-0.7c-4-5.9-10-7.8-16.7-8.1c0.1-0.4,0.1-0.9,0.2-1.3
		C115.2,70.6,128.7,75.7,129.6,83.6z"/>
	<path class="st7" d="M320.8,62.7c0.3,5.3,0.9,10.6,0.7,15.9c0,1.9-1.8,3.7-2.7,5.6c-0.4-5.4-1.1-10.9-1-16.3
		C317.8,66.1,319.8,64.4,320.8,62.7z"/>
	<path class="st7" d="M292.5,76.2c-2.7-3-5.2-6.3-8.2-9c-1.3-1.2-3.6-1.3-5.4-1.9c-2.3-0.7-4.7-1.3-7-2c1.3-0.6,2.7-2,3.8-1.8
		c3.7,0.9,7.3,2.3,10.9,3.6c-0.1,0.4-0.3,0.7-0.4,1.1c0.8,0,1.7,0.1,2.5,0.1l0,0c0.3,0.3,0.7,0.7,1,1l0,0c0.3,0.3,0.7,0.7,1,1l0,0
		c0.3,0.3,0.7,0.7,1,1l0,0C292,71.7,292.3,74,292.5,76.2z"/>
	<path class="st8" d="M188.7,113.8c1.2,0.4,2.3,0.7,4,1.2c-3.3,2.5-6,1.3-7.8-0.8c-3.4-4.1-3.2-9-1.3-13.8c0.8,1.3,2.7,3,2.3,3.8
		C184.5,108.2,186.3,111,188.7,113.8z"/>
	<path class="st7" d="M131.7,121c0.9-2.3,1.9-2.3,2.9-0.1c0.5,1.1,0.8,2.4,1.1,3.6c0.6,5,4.3,5.2,8.1,5.1c-3.4,4-9,3.5-10.9-1.3
		C132,126.1,132.1,123.5,131.7,121z"/>
	<path class="st8" d="M309.5,118.5c-0.3,0-0.6-0.1-0.9-0.1c0.4-5.1,0.8-10.2,1.2-15.2c0.9,0.1,1.8,0.1,2.7,0.2
		C312,108.5,315.1,114.4,309.5,118.5z"/>
	<path class="st7" d="M234.8,69.4c0.3,6,0.7,12,1,18c-0.7-0.3-1.5-0.6-2.2-0.9c-0.3-0.7-0.7-1.4-1-2.1v0.1c0-4.1-0.2-8.1,0.1-12.2
		C232.8,71.3,234.1,70.4,234.8,69.4z"/>
	<path class="st8" d="M228.7,101.5c-5.6-0.5-2.4,2.9-2.1,4.9c-0.3,0.4-0.7,0.7-1,1.1c-0.7-0.4-1.8-0.7-2-1.3
		c-0.7-2.6-1.3-5.2-1.5-7.8c0-0.5,2.3-1.8,2.4-1.7C226,98.1,227.3,99.8,228.7,101.5z"/>
	<path class="st8" d="M233.6,86.5c0.7,0.3,1.5,0.6,2.2,0.9c0.3,2.3,0.6,4.6,0.9,6.9c-1,0-2.1,0-3.1,0c0.3-0.7,1-1.6,0.8-2.1
		c-1.8-3.5-3.8-6.9-5.6-10.4c-0.7-1.3-0.7-3-1-4.4c1.6,2.4,3.3,4.7,4.9,7.1v-0.1C232.9,85.1,233.3,85.8,233.6,86.5z"/>
	<path class="st7" d="M156.8,73.5c1.6,0,3.2,0,4.9,0c1,1.2,1.9,2.5,2.9,3.7c0.4,0.4,0.7,0.8,1.1,1.2v-0.1c0.3,2.9,0.6,5.9,0.8,8.8
		C164.6,81.7,161.9,76.8,156.8,73.5z"/>
	<path class="st8" d="M271.9,63.4c2.3,0.7,4.7,1.3,7,2c-4.7,0.6-9.4,1.3-14.2,1.9c-0.7,0.1-1.4-0.5-2.1-0.8
		C265.5,64.8,267.8,61.3,271.9,63.4z"/>
	<path class="st8" d="M338.6,65.4c-1.4-2.1-2.9-3.3-2.8-4.2c0.2-1.3,1.6-2.4,2.6-3.5c1,1,2.7,1.9,2.7,2.9
		C341.2,61.8,339.9,63.1,338.6,65.4z"/>
	<path class="st8" d="M225.6,120.5c-0.9-0.5-2.7-1.1-2.6-1.4c0.7-3.3,1.6-6.5,2.5-9.7C225.6,113.1,225.6,116.8,225.6,120.5z"/>
	<path class="st8" d="M292.5,76.2c-0.3-2.3-0.6-4.6-0.8-6.9c1,0.8,2.6,1.4,2.8,2.3c0.5,2.2,0.3,4.5,0.3,6.7c-0.4,0.7-0.7,1.3-1.1,2
		c-0.1,0.4-0.1,0.7-0.2,1.1v-0.1c-0.9,0.1-1.8,0.2-2.8,0.3C291.4,79.9,292,78.1,292.5,76.2z"/>
	<path class="st8" d="M109.8,73.5c-0.1,0.4-0.1,0.9-0.2,1.3c-3.7,0.5-7.4,0.9-11,1.4C102,74,105.3,71.2,109.8,73.5z"/>
	<path class="st8" d="M166.5,87.2c-0.3-2.9-0.6-5.9-0.8-8.8c1.3,4.3,2.6,8.7,3.9,13l0,0c-0.2,0.2-0.5,0.2-0.8,0.1
		C168.1,90.1,167.3,88.6,166.5,87.2z"/>
	<path class="st0" d="M79.5,114.4c-2.9-1.2-2.9-2.5-0.2-4C79.4,111.8,79.5,113.1,79.5,114.4z"/>
	<path class="st0" d="M122.7,140.5c-0.3,0.8-0.6,1.7-1,2.5c-0.7-0.8-1.3-1.6-2-2.4C120.7,140.6,121.7,140.6,122.7,140.5z"/>
	<path class="st8" d="M227.7,77.4c-0.9-0.6-1.8-1.3-2.6-1.9c0.5-0.4,1-0.8,1.4-1.2C226.9,75.3,227.3,76.4,227.7,77.4z"/>
	<path class="st0" d="M79.8,119.4c-0.6-0.6-1.3-1.1-1.9-1.7c0.6-0.4,1.2-0.9,1.8-1.3C79.7,117.4,79.8,118.4,79.8,119.4z"/>
	<path class="st3" d="M261.7,132.6c-0.4,0.7-0.8,1.5-1.2,2.2c-0.8-0.5-1.5-0.9-2.3-1.4c0-0.3,0.1-0.6,0.1-0.9
		C259.4,132.6,260.5,132.6,261.7,132.6z"/>
	<path class="st0" d="M110.6,141.2c-0.5,0.7-0.9,1.4-1.4,2c-0.5-0.6-1-1.3-1.6-1.9C108.6,141.3,109.6,141.3,110.6,141.2z"/>
	<path class="st8" d="M288.7,66.4c-0.8,0-1.7-0.1-2.5-0.1c0.1-0.4,0.3-0.7,0.4-1.1C287.3,65.6,288,66,288.7,66.4z"/>
	<path class="st3" d="M270.6,132c-0.8,0.1-1.6,0.2-2.3,0.3C269,132.2,269.8,132.1,270.6,132z"/>
	<path class="st5" d="M206.9,72.4c-0.2-0.6-0.3-1.2-0.5-1.8C206.6,71.2,206.7,71.8,206.9,72.4z"/>
	<path class="st8" d="M291.7,69.4c-0.3-0.3-0.7-0.7-1-1C291,68.7,291.4,69.1,291.7,69.4z"/>
	<path class="st8" d="M165.7,78.4c-0.4-0.4-0.7-0.8-1.1-1.2C165,77.6,165.3,78,165.7,78.4z"/>
	<path class="st8" d="M289.7,67.4c-0.3-0.3-0.7-0.7-1-1C289,66.7,289.4,67,289.7,67.4z"/>
	<path class="st8" d="M290.7,68.4c-0.3-0.3-0.7-0.7-1-1C290,67.7,290.4,68.1,290.7,68.4z"/>
	<path class="st1" d="M263.4,47.4c-0.1,0.1-0.1,0.2-0.2,0.4c-0.1-0.2-0.3-0.3-0.4-0.5c0.1-0.1,0.2-0.2,0.3-0.2
		C263.3,47.1,263.4,47.3,263.4,47.4z"/>
	<path class="st4" d="M70.7,55.5c1.2-0.5,2.4-1.1,3.6-1.6c0.9,1.1,1.7,2.3,3.1,4.1c0.2-2.1,0.3-3.3,0.5-4.6
		c3.9-0.3,7.6-0.9,11.2-0.7c1.6,0.1,3.1,1.6,4.6,2.5c0.5-0.1,1-0.3,1.5-0.4c0.6-1.1,1.3-2.2,1.7-2.9c2.3,1.6,3.6,2.5,4.9,3.4
		c0,0.4,0,0.7,0,1.1c-5.6,0.3-1.8,3.6-1.8,5.7c-1.7,0.2-3.4,0.3-5.1,0.5c-1.3-0.2-2.6-0.4-4-0.6c0-0.3,0-0.5,0.1-0.8
		c1.2-0.1,2.3-0.3,3.9-0.5c-2-1.5-3.4-2.5-4.9-3.6c0.6-0.3,1.1-0.6,1.7-0.9c1.6,2.8,3.5,2.3,5.5,1.6c0-0.5,0.1-1,0.1-1.6
		c-1.9,0-3.8,0-5.7,0c-0.6-3.3-3-1.9-4.8-1.9c-1,0-2.1,0.1-3.1,0.1c-0.6,0-1.2,0-1.9,0c-0.4,0.3-0.8,0.5-1.2,0.8
		c0,0.9,0.1,1.8,0.2,3.1c1.2-0.9,2.1-1.6,3-2.3c0.4,0.3,0.7,0.7,1.1,1c0.1,0.4,0.2,0.8,0.2,1.3c0.5-0.4,1-0.7,1.4-1.1
		c0.3-0.4,0.7-0.7,1-1.1c0.4,0.4,0.9,0.7,1.3,1.1c-1.1,0.8-2.2,1.6-3.2,2.5c-0.5,0.4-0.6,1.2-0.9,1.8c0.1,0.6,0.2,1.2,0.3,1.7
		c2.2,0.3,4.5,0.6,6.7,0.9c4.3,0.6,8.7,1.1,13.3,1.7c-11,0.6-21.7,1.3-32.9,1.9c1.3-0.9,3.1-2.1,5.4-3.7c-0.8-1.5-1.8-3.5-3.6-6.8
		c-0.4,3.1-0.7,4.8-0.9,6.5c-0.4,0-0.8,0-1.1,0c-0.2-1.5-0.5-2.9-0.7-4.4c-0.1-0.8-0.1-1.7-0.2-2.5C71,56.5,70.8,56,70.7,55.5z"/>
	<path class="st8" d="M84.8,61.7c0.3-0.6,0.4-1.4,0.9-1.8c1-0.9,2.1-1.7,3.2-2.5c0.4,0,0.7-0.1,1.1-0.1c1.5,1.1,2.9,2.2,4.9,3.6
		c-1.6,0.2-2.8,0.3-3.9,0.5c0,0.3,0,0.5-0.1,0.8c1.3,0.2,2.6,0.4,4,0.6c-1,0.5-2,1.1-2.9,1.6c-2.2-0.3-4.5-0.6-6.7-0.9
		c0.5-0.4,1.1-0.8,1.6-1.2C86,62,85.4,61.9,84.8,61.7z"/>
	<path class="st8" d="M110.6,55.6c0.9-4,3.3-3.5,6.1-2.2c0,0.9,0.1,1.9,0.1,2.8c-1.9,0.4-3.8,0.9-5.7,1.3
		C110.9,56.9,110.8,56.2,110.6,55.6z"/>
	<path class="st7" d="M99.8,62.2c0-2.1-3.8-5.4,1.8-5.7c0.6,1.7,1.1,3.4,1.7,5C102.1,61.7,101,61.9,99.8,62.2z"/>
	<path class="st8" d="M110.7,58.4c-0.7,3-1.6,5.4-5,2.4C107.3,60,109,59.2,110.7,58.4z"/>
	<path class="st4" d="M110.7,58.4c-1.7,0.8-3.4,1.6-5,2.4c-0.4-0.4-0.9-0.9-1.3-1.3c0.1-0.9,0.2-1.8,0.2-2.8
		c0.4-0.4,0.7-0.8,1.1-1.2l-0.1-0.1c0.6,0.7,1.3,1.4,1.9,2c0.4-0.7,0.8-1.3,1.2-2c0.2-0.2,0.4-0.3,0.6-0.5c0.5,0.2,0.9,0.5,1.4,0.7
		c0.2,0.6,0.3,1.3,0.5,1.9C111,57.8,110.9,58.1,110.7,58.4z"/>
	<path class="st9" d="M103.3,61.5c-0.6-1.7-1.1-3.4-1.7-5c0-0.4,0-0.7,0-1.1c0.6-0.8,1.1-1.6,1.7-2.3c-0.1,1.1-0.3,2.3-0.4,3.4
		c0.2,1,0.5,1.9,0.7,2.9C103.5,60.1,103.4,60.8,103.3,61.5z"/>
	<path class="st7" d="M103.6,59.3c-0.2-1-0.5-1.9-0.7-2.9c0.5,0.1,1.1,0.2,1.6,0.2c-0.1,0.9-0.2,1.9-0.2,2.8l-0.4,0.1L103.6,59.3z"
		/>
	<path class="st8" d="M71.1,57c0.1,0.8,0.1,1.7,0.2,2.5C71.2,58.7,71.2,57.8,71.1,57z"/>
	<path class="st0" d="M115.9,142.4c0.5,0.3,0.9,0.4,1.3,0.6c-0.3,0.4-0.6,0.9-1,1.1c-0.2,0.1-0.7-0.4-1-0.6
		C115.4,143.2,115.6,142.8,115.9,142.4z"/>
	<path class="st0" d="M168.7,139.8c-1.8,0.7-3.7,1.4-5.5,2c-0.1-0.5-0.2-1.1-0.3-1.6c1.9-0.4,3.8-0.7,5.7-1.1
		C168.6,139.4,168.6,139.6,168.7,139.8z"/>
	<path class="st6" d="M183.8,140.4c-0.3-0.1-0.5-0.3-0.8-0.4c0.1-0.1,0.3-0.3,0.3-0.3c0.3,0.1,0.5,0.3,0.8,0.4
		C184.1,140.1,184,140.3,183.8,140.4z"/>
	<path class="st6" d="M186.7,141.4c-0.4,0-0.7-0.1-1.1-0.1C185.9,141.3,186.3,141.4,186.7,141.4z"/>
	<path class="st1" d="M171.7,46.4c0-0.7,0-1.4,0.1-2.1c1,0,1.9,0,2.9,0C173.6,45.1,172.7,45.7,171.7,46.4z"/>
	<path class="st1" d="M208.7,43.5c0,0.3,0,0.6,0,0.9c-0.7-0.3-1.3-0.6-2-0.8C207.3,43.6,208,43.5,208.7,43.5z"/>
	<path class="st1" d="M208.7,44.5c0.7,0.7,1.3,1.3,2,2C210,45.8,209.3,45.1,208.7,44.5z"/>
	<path class="st1" d="M190.6,43.5c0.4,0,0.7,0,1.1,0C191.4,43.5,191,43.5,190.6,43.5z"/>
	<path class="st8" d="M104.6,56.7c-0.5-0.1-1.1-0.2-1.6-0.2c0.1-1.1,0.3-2.3,0.4-3.4c0.6,0.4,1.2,0.8,1.9,1.2v-0.1
		c0.2,0.2,0.4,0.4,0.6,0.6c-0.1,0.3-0.1,0.6-0.2,0.8C105.3,55.9,105,56.3,104.6,56.7z"/>
	<path class="st8" d="M105.2,54.1c0.2-0.6,0.3-1.2,0.6-2.1c1.1,0.9,2,1.6,2.9,2.4c-1,0.1-1.9,0.2-2.9,0.2
		C105.6,54.4,105.4,54.2,105.2,54.1C105.2,54,105.2,54.1,105.2,54.1z"/>
	<path class="st4" d="M105.9,54.6c1-0.1,1.9-0.2,2.9-0.2c0.2,0.1,0.4,0.3,0.6,0.5c-0.2,0.2-0.4,0.3-0.6,0.5c-1,0-2,0-3.1,0l0.1,0.1
		C105.7,55.2,105.8,54.9,105.9,54.6z"/>
	<polygon class="st4" points="105.2,54.1 105.2,54 105.2,54.2 	"/>
	<path class="st8" d="M95.1,54.8c-0.5,0.1-1,0.3-1.5,0.4C94.1,55.1,94.6,54.9,95.1,54.8z"/>
	<path class="st9" d="M130.8,111.5c-3.9-2.2-7.4-2.1-10.2,1.8c-1,1-2,1.9-3,2.9c-4.5,3.2-8.7,1.5-12.8-0.8l0,0c-0.1-1-0.1-2-0.2-3.1
		c-1.6-1.3,0.3-5.3-3.7-4.8c-0.1-1.4-0.2-2.8-0.2-4.2c2.9-1.6,0.1-1.8-0.6-2.5c0-1.1,0-2.2,0-3.4c0.4-0.7,1-1.3,1.1-2
		c0.1-1-0.2-2-0.3-3.1c1.6-1.6,3.3-3.2,4.9-4.8c3.7,2.4,7.4,4.6,11,7.1c4,2.8,8.4,1.9,9.9-2.2c0.7-0.5,1.4-0.9,2.1-1.4
		C129.4,98,130.1,104.7,130.8,111.5z"/>
	<path class="st7" d="M130.8,111.5c-0.7-6.8-1.4-13.5-2-20.3c0.4-1.2,0.9-2.4,1.3-3.6c2.3,1.2,4.7,16.1,4.4,27.7
		C133.2,114,132,112.8,130.8,111.5z"/>
	<path class="st7" d="M126.6,92.6c-1.5,4.1-5.9,4.9-9.9,2.2c-3.6-2.5-7.3-4.7-11-7.1c4.1-3.9,7.8-2.2,10.9,1.3
		C119.4,92.1,122.6,93.1,126.6,92.6z"/>
	<path class="st4" d="M152.8,95.3c-2.2,0.6-4.4,1.2-6.6,1.9c-0.5-2.1-1.5-4.1-1.5-6.2c0-1.9,1.1-3.8,1.8-5.7
		c4.2,1.1,6.6,3.5,5.5,8.2C151.9,94,152.6,94.7,152.8,95.3z"/>
	<path class="st4" d="M168.7,95.4c0.3,2.9,0.7,5.9,0.9,8.8c0.1,2.8,0,5.6,0,9.2c-2.9-3.9-5.4-7.3-7.9-10.7c1.5-2.4,2.9-4.8,4.4-7.1
		C166.9,95.5,167.8,95.4,168.7,95.4z"/>
	<path class="st7" d="M152.8,95.3c-0.3-0.6-0.9-1.3-0.8-1.8c1.1-4.8-1.3-7.1-5.5-8.2c1.9-0.6,4.6-2.3,5.4-1.6c1.8,1.5,3.3,4,3.6,6.3
		C155.7,91.6,153.8,93.5,152.8,95.3z"/>
	<path class="st7" d="M100.9,107.6c4-0.5,2,3.5,3.7,4.8c-0.6,0.4-1.1,0.8-1.7,1.3c0.6,0.6,1.3,1.2,1.9,1.8l0,0
		c1.9,1.7,3.9,3.4,5.8,5.1c-1.2,0.2-2.6,0.9-3.6,0.4C102.3,118.9,99.3,112.1,100.9,107.6z"/>
	<path class="st8" d="M110.6,120.5c-1.9-1.7-3.9-3.4-5.8-5.1c4.1,2.3,8.3,4,12.8,0.8C117.7,121.6,113.4,119.9,110.6,120.5z"/>
	<path class="st8" d="M100.8,92.5c0.1,1,0.4,2.1,0.3,3.1c-0.1,0.7-0.7,1.4-1.1,2C97.5,95.5,98.9,93.9,100.8,92.5z"/>
	<path class="st8" d="M168.7,95.4c-0.9,0.1-1.8,0.1-2.6,0.2c-0.3-0.8-0.6-1.6-0.9-2.4c1.2,0.1,2.3,0.1,3.5,0.2
		C168.6,94.1,168.6,94.8,168.7,95.4L168.7,95.4z"/>
	<path class="st8" d="M100,100.9c0.7,0.7,3.6,0.8,0.6,2.5C100.4,102.6,100.2,101.8,100,100.9z"/>
	<path class="st4" d="M168.6,95.5c0-0.7,0-1.4,0-2.1c0.1-0.6,0.2-1.3,0.3-1.9c0.3,0.1,0.5,0,0.8-0.1C169.3,92.7,169,94.1,168.6,95.5
		z"/>
	<path class="st8" d="M249.4,103.3c0,1.1,0,2.2,0,3.3C249.4,105.5,249.4,104.4,249.4,103.3z"/>
	<path class="st9" d="M290.9,81.7c0.9-0.1,1.8-0.2,2.8-0.3c0.3,6.6,0.7,13.3,1,19.9c-3.8-1.5-7.5-2.2-10.1,2.1
		c-0.7,0.6-1.3,1.3-2,1.9c-4.3,3.3-8.6,3-12.9,0.1l0,0c-0.8-2.3-1.5-4.7-2.3-7c-0.9-1.4-1.9-2.7-2.8-4.1c0.3,0.1,0.6,0,0.9-0.1
		c0.2-0.3,0.5-0.6,0.7-0.9c-0.2-3.4-0.3-6.9-0.5-10.3s1.5-4.7,4.7-4.8c4.5-0.3,7.2,2.6,10.1,5.4c4.1,4,7.9,3.4,10-1.3
		C290.7,82.1,290.8,81.9,290.9,81.7z"/>
	<path class="st7" d="M290.6,82.4c-2.1,4.7-5.9,5.3-10,1.3c-2.9-2.8-5.6-5.7-10.1-5.4c3.6-3.7,7.5-2.6,10.1,0.6
		C283.5,82.3,286.7,82.6,290.6,82.4z"/>
	<path class="st7" d="M264.7,94.3c0.9,1.4,1.9,2.7,2.8,4.1c-2.3,2.3-1.4,5.2,2.3,7l0,0c1.5,1.6,3,3.2,4.5,4.9
		c-5.3,1-7.6-2.7-8.9-6.7c-1.3-3.8-1.5-7.9-1.1-12.1C264.4,92.4,264.5,93.3,264.7,94.3z"/>
	<path class="st8" d="M274.3,110.3c-1.5-1.6-3-3.2-4.5-4.9c4.3,2.9,8.6,3.2,12.9-0.1C281.6,110.4,279.9,111.4,274.3,110.3z"/>
	<path class="st8" d="M266.3,93.3c-0.2,0.3-0.5,0.6-0.7,0.9C265.8,93.9,266.1,93.6,266.3,93.3z"/>
	<path class="st9" d="M293.6,81.4c0.1-0.4,0.1-0.7,0.2-1.1C293.7,80.7,293.7,81.1,293.6,81.4z"/>
	<path class="st4" d="M233.6,86.5c-0.3-0.7-0.7-1.4-1-2.1C232.9,85.1,233.3,85.8,233.6,86.5z"/>
	<path class="st8" d="M91.5,56.4c1.9,0,3.8,0,5.7,0c0,0.5-0.1,1-0.1,1.6C95.1,58.6,93.2,59.2,91.5,56.4
		C91.6,56.4,91.5,56.4,91.5,56.4z"/>
	<path class="st5" d="M89.9,57.2c-0.4,0-0.7,0.1-1.1,0.1c-0.4-0.4-0.9-0.7-1.3-1.1c-0.2-0.3-0.5-0.6-0.7-0.9
		c-0.1-0.3-0.1-0.5-0.1-0.8c1.8,0,4.2-1.4,4.8,1.9v-0.1C91,56.7,90.5,56.9,89.9,57.2z"/>
	<path class="st5" d="M81.7,54.6c0.6,0,1.2,0,1.9,0c0,0.3,0.1,0.7,0.1,1c-0.1,0.2-0.1,0.4,0,0.6c-0.9,0.7-1.8,1.3-3,2.3
		c-0.1-1.2-0.1-2.2-0.2-3.1C81,55.1,81.3,54.9,81.7,54.6z"/>
	<path class="st7" d="M83.7,56.2c-0.1-0.2,0-0.4,0-0.6c1-0.1,2-0.2,3.1-0.2c0.2,0.3,0.5,0.6,0.7,0.9c-0.3,0.4-0.7,0.7-1,1.1
		c-0.6-0.1-1.1-0.1-1.7-0.2C84.4,56.9,84.1,56.5,83.7,56.2z"/>
	<path class="st7" d="M84.8,61.7c0.6,0.2,1.3,0.4,1.9,0.6c-0.5,0.4-1.1,0.8-1.6,1.2C85,62.8,84.9,62.2,84.8,61.7z"/>
	<path class="st8" d="M86.8,55.4c-1,0.1-2,0.2-3.1,0.2c-0.1-0.3-0.1-0.6-0.1-1c1,0,2.1-0.1,3.1-0.1C86.7,54.8,86.7,55.1,86.8,55.4z"
		/>
	<path class="st5" d="M84.8,57.2c0.6,0.1,1.1,0.1,1.7,0.2c-0.5,0.4-1,0.7-1.4,1.1C85,58,84.9,57.6,84.8,57.2z"/>
	<path class="st8" d="M81.7,54.6c-0.4,0.3-0.8,0.5-1.2,0.8C81,55.1,81.3,54.9,81.7,54.6z"/>
	<path class="st8" d="M105.6,55.4c1,0,2,0,3.1,0c-0.4,0.7-0.8,1.3-1.2,2C106.9,56.7,106.3,56.1,105.6,55.4z"/>
	<path class="st8" d="M104.7,115.4c-0.6-0.6-1.3-1.2-1.9-1.8c0.6-0.4,1.1-0.8,1.7-1.3C104.6,113.3,104.7,114.4,104.7,115.4z"/>
	<path class="st8" d="M269.7,105.4c-3.6-1.8-4.6-4.7-2.3-7C268.2,100.7,269,103,269.7,105.4z"/>
</g>
</svg>
