<?xml version="1.0" encoding="utf-8"?>
<!-- Generator: Adobe Illustrator 23.0.2, SVG Export Plug-In . SVG Version: 6.00 Build 0)  -->
<svg version="1.1" id="Layer_1" xmlns="http://www.w3.org/2000/svg" xmlns:xlink="http://www.w3.org/1999/xlink" x="0px" y="0px"
	 viewBox="0 0 95 95.1" style="enable-background:new 0 0 95 95.1;" xml:space="preserve">
<style type="text/css">
	.st0{fill:#FEFEFE;}
	.st1{fill:#F5CB38;}
	.st2{fill:#F1D656;}
	.st3{fill:#CF8F34;}
	.st4{fill:#D99C30;}
	.st5{fill:#FDE250;}
	.st6{fill:#F4C92B;}
	.st7{fill:#EEC034;}
	.st8{fill:#096941;}
	.st9{fill:#0B7549;}
	.st10{fill:#E2A625;}
	.st11{fill:#F6D022;}
	.st12{fill:#7AC39C;}
	.st13{fill:#06A15E;}
	.st14{fill:#EC7751;}
	.st15{fill:#ECB61E;}
	.st16{fill:#3A2C19;}
	.st17{fill:#E65C30;}
	.st18{fill:#E45C30;}
	.st19{fill:#E6C923;}
	.st20{fill:#6F5F3C;}
	.st21{fill:#F5D821;}
	.st22{fill:#E16C39;}
	.st23{fill:#10AC72;}
	.st24{fill:#F5DE69;}
	.st25{fill:#D9C772;}
	.st26{fill:#1FB584;}
	.st27{fill:#1E2818;}
	.st28{fill:#0CA260;}
	.st29{fill:#A9C443;}
</style>
<g>
	<g>
		<path class="st0" d="M47.5,95.1c-15.5,0-31,0-46.5,0c-0.8,0-1-0.1-1-0.9c0-31,0-62.1,0-93.1C0,0.3,0.2,0.1,1,0.1
			c31,0,62.1,0,93.1,0C94.8,0.2,95,0.2,95,1c0,31.1,0,62.2,0,93.2c0,0.7-0.2,0.8-0.9,0.8C78.6,95.1,63.1,95.1,47.5,95.1z M78.5,39.1
			c-0.4,0.2-0.9,0.4-1.3,0.5c-0.5,0.1-1,0.2-1.6,0.3c-1.2-0.1-2.4-0.2-3.6-0.2c-1.3,0-2.5,0.3-3.8,0.4c-0.4-0.1-0.8-0.3-1.3-0.3
			c-1.8,0-3.7,0.1-5.5,0.1c-4.4,0.1-8.7,0.1-13.1,0.2c-4.3,0-8.6-0.1-13,0c-1.3,0-2.5,0.4-3.8,0.5l-0.1-0.1
			c-0.2-0.1-0.5-0.4-0.7-0.4c-2.4,0-4.9,0-7.3,0.1c-0.4,0-0.8,0.4-1.2,0.6c-0.4-0.2-0.8-0.6-1.2-0.7C19.8,40,18.4,40,17,39.9
			c-0.5-0.1-1-0.2-1.6-0.3c-0.6-0.1-1.3-0.3-1.9-0.4c-1.3-0.2-1.4-0.1-1.2,1.2c-0.1,0.1-0.3,0.2-0.3,0.2c0.4,1.2-0.3,2.4,0.2,3.6
			c0.3,0.8,0.1,1.7,0.1,2.6c0,0.1,0,0.3,0,0.4c0,0.3,0,0.6,0.1,1c-0.4,1.5-0.1,3,0.2,4.5c0,0.2-0.1,0.5-0.1,0.7
			c-0.1,0.7-0.2,1.5-0.2,2.2c0,0.1,0.3,0.2,0.5,0.2c1,0,2.1,0,3.1,0c0.2,0,0.3-0.4,0.4-0.5c0-0.1,0.1-0.1,0.1-0.2
			c0.2,0,0.5,0.1,0.7,0.1c0,0.1,0.1,0.2,0.1,0.3c0.3-0.2,0.5-0.5,0.8-0.7c0.1,0,0.1,0,0.2,0c0.1,0.1,0.2,0.1,0.3,0.2
			c0.2,0,0.3,0,0.5,0c1.1-0.1,2.3-0.1,3.4-0.2c1.6-0.1,3.3-0.2,4.9-0.4c0.7,0.1,1.4,0.3,2.1,0.3c1.8,0,3.6,0,5.4,0
			c3.4,0,6.7,0,10.1,0c4.4,0,8.8-0.1,13.2-0.2c1.1,0,2.2,0.5,3.1-0.5c1,0,2,0,3,0c0.5,0.2,0.9,0.4,1.4,0.5c1.3,0,2.6,0,3.9,0
			c1,0,2,0.1,3,0c0.3,0,0.7-0.4,1-0.7l0.1,0l0.1,0c1.4,0.3,2.8,0.6,4.2,0.9c0.6,0.1,1.1,0.1,1.7,0.2c0.5,0.1,1,0.3,1.6,0.3
			c1.5,0,1.6-0.1,1.3-1.7c-0.1-0.4,0-0.9,0-1.3c-0.1-0.8-0.1-1.7-0.2-2.5c-0.1-0.5-0.4-1.2-0.2-1.5c0.7-1.1-0.1-2.1-0.2-3.2
			c0.1-0.1,0.2-0.2,0.2-0.3c0-1.7,0.1-3.4,0.1-5.1c0-0.3-0.2-1.3-1.2-0.9c-0.8,0.1-1.6,0.1-2.4,0.2C78.6,39,78.5,39,78.5,39.1z"/>
		<path class="st1" d="M82,45.1c0.1,1,0.8,2,0.2,3.2c-0.2,0.3,0.1,1,0.2,1.5c0.1,0.8,0.2,1.7,0.2,2.5c0,0.4-0.1,0.9,0,1.3
			c0.3,1.6,0.2,1.7-1.3,1.7c-0.5,0-1-0.2-1.6-0.3c0-0.1,0-0.3,0-0.4c0-1,0-2.1,0-3.1c0.1-0.2,0.3-0.3,0.2-0.5c-0.1-1-0.4-2-0.5-3.1
			c-0.1-2.4-0.2-4.8-0.3-7.1c0.7-0.1,1.2,0.1,1.2,1c0,0.1,0.3,0.3,0.4,0.4c0.2,0.6,0.5,1.1,0.7,1.7C81.7,44.4,81.8,44.8,82,45.1z
			 M81.1,44.6c-0.3-0.1-0.5-0.2-0.6-0.2c-0.1,0-0.2,0.2-0.3,0.2c0.1,0.1,0.3,0.2,0.4,0.2C80.7,44.9,80.8,44.8,81.1,44.6z"/>
		<path class="st2" d="M31.6,40.6C31.6,40.6,31.7,40.6,31.6,40.6c0.5,0.2,1,0.5,1.4,0.5c2.2,0,4.3-0.2,6.5-0.2c4,0,8.1,0,12.1,0
			c0.3-0.1,0.7-0.1,1-0.2c0.2,0,0.4,0,0.7,0c0.3,0,0.7,0,1,0c0.4,0.1,0.8,0.1,1.1,0.2c0.2-0.1,0.4-0.1,0.5-0.2c0.4,0,0.8,0,1.1,0
			c0.1,0.1,0.2,0.3,0.4,0.3c1.7,0,3.3-0.1,5-0.1c1.7,0,3.4,0,5.1,0c0,0.2,0,0.5,0,0.7c-0.3,0.1-0.6,0.2-1,0.3c-0.7,0-1.4,0-2,0
			c-0.2-0.1-0.4-0.2-0.6-0.2c-0.4,1.1-1.1,0.3-1.6,0.3c-1.4-0.1-2.8-0.1-4.3-0.2c-0.2,0.2-0.5,0.5-0.7,0.7c-0.1,0.1-0.3,0-0.5,0
			C56,41.2,53.9,41,52.3,42c-0.5,0-0.9,0-1.4,0.1c-1-0.6-2.2-0.4-2.8,0.5c-0.5-0.1-0.9-0.3-1.4-0.4c-0.9-0.6-1.7-0.3-2.4,0.2
			c-0.5,0.1-0.9,0.2-1.4,0.3c-0.1-0.2-0.1-0.3-0.2-0.5c-0.1-0.1-0.1-0.2-0.2-0.3c-0.1-0.1-0.1-0.1-0.2-0.2c-1.4,0.1-2.9,0.3-4.3,0.4
			c-0.4,0-0.8,0-1.2,0c-0.7,0-1.4,0.1-2.1,0.1c-0.2,0.1-0.4,0.3-0.6,0.4c-0.3,0-0.7,0-1,0c-0.6-0.3-1.2-0.6-1.8-1c0-0.2,0-0.4,0-0.6
			C31.4,40.8,31.5,40.7,31.6,40.6z"/>
		<path class="st1" d="M12.5,53.4c0-0.2,0.1-0.5,0.1-0.7c0.3-0.4,0.5-0.9,0.7-1.3c0,0.2,0.1,0.5,0.1,0.8c0.2-0.3,0.2-0.5,0.2-0.8
			c0-1.1,0.8-2.2-0.4-3.2C13,48.1,13.1,47,13.2,47c1.1-0.4,0.5-1.1,0.4-1.6c-0.1-0.8-0.4-1.6,0.3-2.2c0.1-0.1,0.2-0.6,0.1-0.6
			c-1-0.6-0.4-1.3-0.1-2.1c-0.3,0.2-0.6,0.3-0.9,0.5c-0.2-0.2-0.5-0.3-0.7-0.5c-0.2-1.3-0.1-1.4,1.2-1.2c0.6,0.1,1.3,0.2,1.9,0.4
			c0.1,0.1,0.1,0.3,0.2,0.4c-0.4,0.8-0.6,1.5-0.2,2.4c0,0.1,0,0.1,0,0.2c0,0.2,0,0.3,0,0.5c-0.1,1-0.1,2.1-0.2,3.1
			c0,0.6-0.2,1.1-0.1,1.7c0,0.8,0.2,1.5,0.3,2.3c0.1,1.1,0.1,2.2,0.2,3.3c0,0.2,0,0.7,0,0.7c-1.4,0-0.1,0.9-0.4,1.3
			c-0.3-0.2-0.6-0.4-0.9-0.4c-1,0-1.3-0.4-1.2-1.4C13.1,52.7,12.7,53.4,12.5,53.4z"/>
		<path class="st3" d="M61.2,54.2c-0.9,0.9-2,0.5-3.1,0.5c-4.4,0.1-8.8,0.1-13.2,0.2c-3.4,0-6.7,0-10.1,0c-1.8,0-3.6,0.1-5.4,0
			c-0.7,0-1.4-0.2-2.1-0.3c0.1-0.2,0.3-0.4,0.4-0.6c0.2-0.2,0.3-0.5,0.5-0.7c0.1,0,0.3,0,0.4,0c0.2,0,0.3,0,0.5,0
			c0.4,0.1,0.8,0.1,1.2,0.2c0.3,0.2,0.6,0.6,0.8,0.6c1.9-0.1,3.9-0.2,5.8-0.3c1.2,0.1,2.4,0.2,3.6,0.2c1.4,0,2.9,0,4.3,0
			c1.2,0,2.5,0,3.7,0c0.2,0,0.3,0,0.5,0c0.1,0,0.2,0,0.2,0c0.2,0,0.5,0,0.7,0c0.1,0.1,0.3,0.2,0.4,0.2c1.8,0,3.7-0.1,5.5-0.1
			C57.7,53.9,59.5,54.1,61.2,54.2z"/>
		<path class="st4" d="M57.1,40.7c-0.4,0-0.8,0-1.1,0c-0.2,0.1-0.4,0.1-0.5,0.2c-0.4-0.1-0.8-0.1-1.1-0.2c-0.3,0-0.7,0-1,0
			c-0.2,0-0.4,0-0.7,0c-0.3,0.1-0.7,0.1-1,0.2c-4,0-8.1,0-12.1,0c-2.2,0-4.3,0.2-6.5,0.2c-0.5,0-0.9-0.3-1.4-0.4
			c1.3-0.2,2.5-0.5,3.8-0.5c4.3-0.1,8.6,0,13,0c4.4,0,8.7-0.1,13.1-0.2c1.8,0,3.7-0.1,5.5-0.1c0.4,0,0.8,0.2,1.3,0.3
			c0,0.1,0,0.1,0,0.2c-0.1,0-0.3,0-0.4,0c-0.4-0.1-0.8-0.2-1.2-0.2c-1.6,0-3.2,0.1-4.8,0.2C60.2,40.5,58.6,40.6,57.1,40.7z"/>
		<path class="st5" d="M15.7,40c-0.1-0.1-0.2-0.3-0.2-0.4c0.5,0.1,1,0.2,1.6,0.3c1.2,0.4,2.4,0.9,3.6,1.2c0.8,0.2,1.1,0.5,1,1.3
			c-0.2,0.3-0.4,0.7-0.6,1c-0.5,0.1-0.9,0.2-1.4,0.2c-0.6,0-0.9,0.2-0.9,0.8c0,2.2,0,4.4,0,6.6c0,0.7,0,1.4,0,2.1
			c-0.1,0.2-0.2,0.5-0.3,0.7c-0.2,0.4-0.3,0.7-0.5,1.1c-0.3,0.2-0.5,0.5-0.8,0.7c0-0.1-0.1-0.2-0.1-0.3c0.1-0.6,0.2-1.2,0.3-1.8
			c0.2-1.2,0.3-2.3,0.4-3.5c0-0.1,0-0.2,0-0.3c0-0.1,0-0.1,0-0.2c0-0.2,0-0.5,0-0.7c0-0.2,0-0.3,0-0.5c0.1-0.4,0.2-0.7,0.2-1.1
			c0-1.9,0.4-3.8-0.7-5.6c-0.4-0.5-0.8-1-1.2-1.4C16,40.1,15.8,40,15.7,40z"/>
		<path class="st6" d="M61.2,54.2c-1.8-0.1-3.5-0.2-5.3-0.3c-1.8,0-3.7,0.1-5.5,0.1c-0.1,0-0.3-0.1-0.4-0.2c0.1-0.6,0.2-1.3,0.3-1.9
			c0,0,0.3,0,0.4,0c-0.3,0.8-0.1,1.2,0.8,1.2c1.3,0,2.5-0.1,3.8-0.1c0.4,0,0.7-0.1,1.1-0.1c0.2,0.1,0.3,0.2,0.5,0.2
			c2.5,0,5.1,0,7.6,0c0,0.1,0,0.3,0,0.4c-0.1,0.2-0.2,0.4-0.3,0.5C63.2,54.2,62.2,54.2,61.2,54.2z"/>
		<path class="st6" d="M13.1,40.9c0.3-0.2,0.6-0.3,0.9-0.5c-0.2,0.8-0.9,1.5,0.1,2.1c0.1,0,0,0.5-0.1,0.6c-0.8,0.7-0.4,1.5-0.3,2.2
			c0,0.6,0.6,1.3-0.4,1.6c-0.2,0.1-0.3,1.1-0.1,1.3c1.1,1,0.3,2.1,0.4,3.2c0,0.3,0,0.5-0.2,0.8c0-0.3-0.1-0.6-0.1-0.8
			c-0.2,0.4-0.5,0.8-0.7,1.3c-0.3-1.5-0.6-3-0.2-4.5c0-0.3,0-0.6-0.1-1c0-0.1,0-0.3,0-0.4c0.3-0.2,0.5-0.3,0.8-0.5c0,0,0.1,0,0.1,0
			c0,0,0.1,0,0.1,0c0-0.3,0-0.6,0-0.9c-0.1,0-0.1,0-0.2,0c0,0.1,0,0.3,0,0.4c0-1.3,0-2.5,0-3.8c0,0.6,0,1.2,0,1.9c0.1,0,0.2,0,0.3,0
			c-0.1-0.6-0.2-1.2-0.3-1.8C13.1,41.7,13.1,41.3,13.1,40.9z M13.3,44.7C13.2,44.6,13.2,44.6,13.3,44.7c-0.1-0.1-0.1,0-0.1,0
			C13.1,44.7,13.2,44.7,13.3,44.7C13.2,44.7,13.2,44.7,13.3,44.7z M13.3,49.9C13.2,49.9,13.2,49.8,13.3,49.9c0-0.1-0.1-0.1-0.1-0.1
			C13.2,49.9,13.2,49.9,13.3,49.9C13.2,49.9,13.2,49.9,13.3,49.9z"/>
		<path class="st7" d="M82,45.1c-0.1-0.4-0.3-0.8-0.5-1.2c-0.2-0.6-0.5-1.1-0.7-1.7c0.1-1.2,0.2-2.3,0.2-3.5
			c0.9-0.4,1.2,0.6,1.2,0.9c0.1,1.7,0,3.4-0.1,5.1C82.1,45,82,45.1,82,45.1z"/>
		<path class="st8" d="M64.2,54.1c0.1-0.2,0.2-0.4,0.3-0.5c2.9,0,5.9,0,8.8,0l0,0c0,0.1,0.1,0.2,0.1,0.3l0,0l0.1,0
			c-0.3,0.2-0.6,0.6-1,0.7c-1,0.1-2,0-3,0c-1.3,0-2.6,0.1-3.9,0C65.1,54.6,64.6,54.3,64.2,54.1z"/>
		<path class="st9" d="M31.6,40.6c-0.1,0.1-0.2,0.2-0.3,0.3c-1,0.1-1.9,0.2-2.9,0.2c-2,0-4,0-6,0c0-0.1,0-0.2,0-0.3
			c0.4-0.2,0.8-0.6,1.2-0.6c2.4-0.1,4.9-0.1,7.3-0.1C31.2,40.2,31.4,40.4,31.6,40.6z"/>
		<path class="st8" d="M27.8,53.9c-0.1,0.2-0.3,0.4-0.4,0.6c-1.6,0.1-3.3,0.2-4.9,0.4c-1.1,0.1-2.3,0.1-3.4,0.2
			c0.3-0.2,0.6-0.6,1-0.6c2-0.2,4.1-0.3,6.1-0.5c0.5,0,0.9-0.2,1.4-0.2C27.6,53.8,27.7,53.8,27.8,53.9z"/>
		<path class="st10" d="M17.8,48.2c0,0.2,0,0.3,0,0.5c0,0.2,0,0.5,0,0.7c0,0.1,0,0.1,0,0.2c0,0.1,0,0.2,0,0.3
			c-0.1,1.2-0.3,2.3-0.4,3.5c-0.1,0.6-0.2,1.2-0.3,1.8c-0.2,0-0.5-0.1-0.7-0.1c-0.1-0.5-0.2-1-0.2-1.5c0-0.1,0-0.2,0-0.2
			c0-0.1,0-0.2,0-0.2c0-0.1,0-0.2,0-0.2c0,0,0,0,0,0c0.2-0.6,0.6-1.3,0.7-1.9c0.2-0.8,0.1-1.7,0.3-2.5
			C17.2,48.4,17.6,48.3,17.8,48.2z"/>
		<path class="st11" d="M79.6,54.6c0,0.1,0,0.3,0,0.4c-0.6-0.1-1.1-0.1-1.7-0.2c-1.4-0.3-2.8-0.6-4.2-0.9c0.1-0.2,0.2-0.5,0.2-0.7
			c1.1,0.1,2.1,0.2,3.2,0.3c0.3,0,0.6-0.2,0.9-0.3c0.2,0,0.4,0,0.7,0c0,0.1,0,0.2,0,0.2c0.2,0.3,0.5,0.6,0.7,1
			C79.4,54.5,79.5,54.5,79.6,54.6z"/>
		<path class="st9" d="M27.5,53.7c-0.5,0.1-0.9,0.2-1.4,0.2c-2,0.2-4.1,0.3-6.1,0.5c-0.3,0-0.7,0.4-1,0.6c-0.2,0-0.3,0-0.5,0
			c-0.1-0.1-0.2-0.1-0.3-0.2c-0.1,0-0.1,0-0.2,0c0.2-0.4,0.3-0.7,0.5-1.1c0.7,0.1,1.5,0.6,1.9-0.5c0.1,0,0.3,0,0.4,0
			c0.4,0.1,0.8,0.2,1.2,0.2c1.8,0,3.6,0,5.4,0c0,0,0.1,0,0.1,0C27.6,53.5,27.5,53.6,27.5,53.7z"/>
		<path class="st6" d="M12.5,53.4c0.2,0,0.7-0.8,0.6,0.1c-0.1,1,0.2,1.4,1.2,1.4c0.3,0,0.6,0.3,0.9,0.4c0.4,0,0.7,0,1.1,0
			c-0.1,0.2-0.3,0.5-0.4,0.5c-1,0.1-2,0.1-3.1,0c-0.2,0-0.5-0.2-0.5-0.2C12.3,54.9,12.4,54.2,12.5,53.4z"/>
		<path class="st11" d="M13.1,40.9c0,0.4,0,0.8,0,1.2l0,0c0,1.3,0,2.5,0,3.8c0,0.2,0,0.3,0,0.5c-0.3,0.2-0.5,0.3-0.8,0.5
			c0-0.9,0.2-1.8-0.1-2.6c-0.5-1.2,0.2-2.4-0.2-3.6c0,0,0.2-0.1,0.3-0.2C12.6,40.5,12.8,40.7,13.1,40.9z"/>
		<path class="st12" d="M73.9,53.2c-0.1,0.2-0.2,0.5-0.2,0.7c0,0-0.1,0-0.1,0s-0.1,0-0.1,0c0,0-0.1,0-0.1,0s0,0,0,0
			c0-0.1-0.1-0.2-0.1-0.3c0,0,0,0,0,0c0-0.2,0-0.4,0-0.6c-1.3,0.1-2.6,0.2-3.9,0.2c-0.4,0-0.8-0.2-1.1-0.3c0.1-0.1,0.2-0.2,0.2-0.2
			c1.7-0.2,3.5-0.3,5.2-0.5C73.7,52.5,73.8,52.9,73.9,53.2z"/>
		<path class="st13" d="M75.6,39.9c0.5-0.1,1-0.2,1.6-0.3c0,0.2,0,0.4,0.1,0.5c-1.6,0.2-3.2,0.6-4.8,0.7c-1.1,0.1-2.1-0.1-3.2-0.2
			c1.2-0.2,2.4-0.3,3.6-0.4C73.7,40.1,74.7,40,75.6,39.9z"/>
		<path class="st6" d="M81,38.8c-0.1,1.2-0.2,2.3-0.2,3.5c-0.2-0.1-0.4-0.3-0.4-0.4c0-0.9-0.5-1.1-1.2-1c-0.1-0.5,0.7-1.3-0.5-1.4
			c0-0.1,0-0.1,0-0.2c0-0.1,0-0.2,0-0.3C79.4,38.9,80.2,38.9,81,38.8z"/>
		<path class="st9" d="M75.6,39.9c-0.9,0.1-1.8,0.1-2.8,0.2c-1.2,0.1-2.4,0.3-3.6,0.4c-0.1,0-0.1,0-0.2,0c-0.1,0-0.2,0-0.2,0
			c-0.1,0-0.3,0-0.4,0c0-0.1,0-0.2-0.1-0.2c0-0.1,0-0.1,0-0.2c1.3-0.2,2.5-0.4,3.8-0.4C73.2,39.7,74.4,39.9,75.6,39.9z"/>
		<path class="st4" d="M22.4,40.9c0,0.1,0,0.2,0,0.3c0,0.1,0,0.3,0,0.4c-0.2,0.2-0.3,0.5-0.5,0.7c-0.1,0-0.1,0-0.2,0
			c0.1-0.7-0.2-1.1-1-1.3c-1.2-0.3-2.4-0.8-3.6-1.2c1.4,0.1,2.8,0.2,4.2,0.3C21.6,40.3,22,40.6,22.4,40.9z"/>
		<path class="st7" d="M16.3,55.3c-0.4,0-0.7,0-1.1,0c0.3-0.4-0.9-1.3,0.4-1.3c0,0,0-0.4,0-0.7c-0.1-1.1-0.1-2.2-0.2-3.3
			c0.2-0.1,0.3-0.2,0.5-0.2c0.1,1,0.2,2.1,0.3,3.1c0,0,0,0,0,0c0,0.1,0,0.2,0,0.2c0,0.1,0,0.2,0,0.2c0,0.1,0,0.2,0,0.2
			c0.1,0.5,0.2,1,0.2,1.5C16.4,55.2,16.3,55.3,16.3,55.3z"/>
		<path class="st14" d="M78.6,39.3c0,0.1,0,0.1,0,0.2c-0.1,0.4-0.3,0.8-0.4,1.2c-0.1,0.1-0.2,0.1-0.2,0.2c-0.4,0.7-0.8,1.4-1.2,2.2
			c-0.1,0-0.2,0-0.2,0c0.2-1,0.4-1.9,0.7-2.9c0-0.2,0-0.4-0.1-0.5c0.4-0.2,0.9-0.4,1.3-0.5C78.5,39.1,78.6,39.2,78.6,39.3z"/>
		<path class="st11" d="M12.3,47.3c0,0.3,0,0.6,0.1,1C12.4,47.9,12.4,47.6,12.3,47.3z"/>
		<path class="st15" d="M78.6,39.3c-0.1-0.1-0.1-0.1-0.2-0.2c0.1-0.1,0.1-0.1,0.2-0.1C78.6,39.1,78.6,39.2,78.6,39.3z"/>
		<path class="st8" d="M18.3,54.9c0.1,0.1,0.2,0.1,0.3,0.2C18.4,55,18.3,54.9,18.3,54.9z"/>
		<path class="st15" d="M78.2,40.7c0.1-0.4,0.3-0.8,0.4-1.2c1.2,0.1,0.4,0.9,0.5,1.4c0.1,2.4,0.1,4.8,0.3,7.1c0.1,1,0.3,2,0.5,3.1
			c0,0.1-0.2,0.3-0.2,0.5c-0.1,0.2-0.3,0.4-0.5,0.7c-0.3-0.6-0.5-1.1-0.7-1.6c0-1.3,0-2.5,0-3.8c0-0.5,0-0.9,0-1.4
			c-0.1-0.7-0.1-1.4-0.2-2.1C79,42.4,78.4,41.5,78.2,40.7z"/>
		<path class="st10" d="M78.4,50.6c0.2,0.5,0.5,1,0.7,1.6c0.2-0.3,0.3-0.5,0.5-0.7c0,1,0,2.1,0,3.1c-0.1-0.1-0.1-0.2-0.2-0.2
			c-0.2-0.3-0.5-0.6-0.7-1c0-0.1,0-0.2,0-0.2c-0.3-0.3-0.6-0.6-0.9-0.9l0,0c0-0.1,0-0.2,0-0.3c0-0.1,0-0.3,0-0.4
			c0.2-0.2,0.3-0.3,0.5-0.5C78.2,50.9,78.3,50.7,78.4,50.6z"/>
		<path class="st15" d="M81.1,44.6c-0.3,0.1-0.4,0.2-0.5,0.2c-0.1,0-0.3-0.1-0.4-0.2c0.1-0.1,0.2-0.2,0.3-0.2
			C80.6,44.4,80.8,44.5,81.1,44.6z"/>
		<path class="st16" d="M42.2,41.6c0.1,0.1,0.1,0.1,0.2,0.2c0.1,0.1,0.1,0.2,0.2,0.3c0.1,0.2,0.1,0.3,0.2,0.5
			c-0.1,0.7-0.2,1.4-0.4,2.1c0.9,0.2,1.7,0.2,1.8-1.2c0.2,0.5,0.4,0.9,0.5,1.4c0,1.5,0,3,0,4.4c0,0.6,0.2,1,0.8,0.8
			c0.5-0.2,1-0.6,1.4-0.8c0.2,0.2,0.5,0.5,0.8,0.8c0.3-0.3,0.5-0.6,0.8-0.9c0.1-0.1,0.2-0.3,0.3-0.5c0.1,0.2,0.3,0.3,0.3,0.5
			c0.1,0.2,0,0.5,0.2,0.7c0.2,0.2,0.6,0.4,0.8,0.4c0.3,0,0.7-0.4,0.7-0.6c0-1.5,0-3.1,0-4.6c0-1,0.1-2,0.1-3c0.5,0,0.9,0,1.4-0.1
			c0.2,0.1,0.5,0.2,0.7,0.2c-0.3,0.6-0.9,1.1-0.9,1.7c-0.1,1.7-0.1,3.3,0,5c0,0.4,0.6,1,1,1.2c2.1,1.1,3.6,0.1,3.4-2.1
			c0-0.3,0.1-0.6,0-0.9c-0.1-1.7,0.6-3.6-1-5c0.4,0.1,0.7,0.2,1.1,0.2c0.2,0,0.4,0.1,0.5,0c0.3-0.2,0.5-0.5,0.7-0.7
			c0,1.1,0,2.1,0.1,3.2c0.2,1.7-0.6,3.4-0.1,5.2c0.2,0.8,0.6,0.9,1.1,0.8c0.2,0,0.5-0.5,0.6-0.8c0.1-0.5,0.2-1.1,0.1-1.6
			c0-0.5-0.3-1.1,0.5-1.1c0.8,0,0.9,0.6,0.8,1.2c-0.1,0.9-0.1,1.9-0.2,2.8c-0.5,0.1-1,0.2-1.5,0.2c-0.2,0-0.5,0-0.7-0.1
			c0-0.1-0.1-0.1-0.1-0.1c-0.5-0.4-1-0.8-1.6-1.2c-0.9,1.2-3.4,1.4-4.8,0.3c-0.3-0.2-1-0.3-1.1-0.2c-0.5,0.9-1.3,0.5-2,0.5
			c-1,0-2.1,0-3,0.1c-1.3,0.2-1.9-0.1-2-1.3c0-0.7,0.3-1.7-0.1-2.1c-0.3-0.4-1.3-0.2-2.1-0.3c0,0-0.1,0-0.2,0.1c0,0.7,0,1.4,0,2.1
			c0.1,2-1.3,2.3-2.7,2.1c-0.3,0-0.5,0.2-0.8,0.3c-0.1,0-0.1,0-0.2,0c-0.1,0-0.2,0-0.2,0c-0.2,0-0.3,0-0.5,0.1c-0.1,0-0.2,0-0.2,0
			c-0.2,0-0.3,0-0.5,0c-0.5-0.6-0.9-1.4-1.4,0c0,0-0.2,0-0.3,0c0-0.5,0-1,0.1-1.5c0.1-0.4,0.5-0.7,0.7-1c0.2,0.3,0.7,0.6,0.7,0.8
			c0,0.9,0.4,1.1,1.2,1c0.9-0.1,0.5-0.7,0.4-1.1c-0.5-2.7-1-5.3-1.5-7.9c0.4,0,0.8,0,1.2,0c0.1,0.2,0.2,0.3,0.3,0.5
			c0,0.6-0.2,1.3,0.8,1.3c0.2,0,0.4,0.5,0.5,0.7c0.1,1.7,0,3.4,0.1,5.2c0,0.3,0.3,0.9,0.5,0.9c0.5,0,1-0.1,1-1c-0.1-1.7,0-3.3,0.1-5
			c0-0.4,0.3-1,0.5-1c0.8-0.1,0.6-0.7,0.6-1.1C42.2,42.2,42.2,41.9,42.2,41.6z M38.7,48.3c0.1,0,0.1,0,0.2,0c0-1.1,0.1-2.1,0-3.2
			c0-0.3-0.5-0.6-0.7-0.8c-0.1,0.2-0.4,0.3-0.4,0.4C38,45.9,38.4,47.1,38.7,48.3z"/>
		<path class="st17" d="M50.9,42.1c0,1-0.1,2-0.1,3c0,1.5,0.1,3.1,0,4.6c0,0.2-0.4,0.6-0.7,0.6c-0.3,0-0.6-0.2-0.8-0.4
			c-0.1-0.1-0.1-0.5-0.2-0.7c-0.1-0.2-0.2-0.3-0.3-0.5c-0.1,0.2-0.2,0.3-0.3,0.5c-0.3,0.3-0.5,0.6-0.8,0.9c-0.3-0.3-0.6-0.6-0.8-0.8
			c-0.4,0.2-0.8,0.6-1.4,0.8c-0.6,0.2-0.8-0.1-0.8-0.8c0-1.5,0.1-3,0-4.4c0-0.5-0.3-1-0.5-1.4c0-0.4,0-0.8-0.1-1.2
			c0.8-0.5,1.6-0.8,2.4-0.2c0.3,1.2,0.6,2.3,0.9,3.5c0.2,0,0.3,0,0.5-0.1c0-1,0-2,0-3C48.7,41.7,49.9,41.5,50.9,42.1z"/>
		<path class="st17" d="M61,51.3c0.1-0.9,0.1-1.9,0.2-2.8c0.1-0.7,0-1.2-0.8-1.2c-0.9,0-0.6,0.6-0.5,1.1c0,0.5,0,1.1-0.1,1.6
			c-0.1,0.3-0.3,0.8-0.6,0.8c-0.5,0.1-0.9,0-1.1-0.8c-0.5-1.8,0.3-3.5,0.1-5.2c-0.1-1-0.1-2.1-0.1-3.2c1.4,0.1,2.8,0.1,4.3,0.2
			c0.6,1.5,1,3-0.1,4.5c-0.1,0.1,0,0.3,0.1,0.4c0.2,0.6,0.6,1.1,0.5,1.7c-0.1,1.1,0.4,2.4-0.6,3.3C61.8,51.6,61.4,51.4,61,51.3z
			 M61.1,44.5c0,0,0-0.2,0-0.3c0-0.7-0.3-1-0.9-0.8c-0.2,0.1-0.3,0.6-0.4,1c0,0.2,0,0.5,0.1,0.8c0.1,0.2,0.3,0.6,0.3,0.5
			c0.3-0.1,0.6-0.2,0.8-0.4C61.1,45.2,61.1,44.9,61.1,44.5z"/>
		<path class="st18" d="M36.7,42c0.5,2.6,1,5.3,1.5,7.9c0.1,0.4,0.5,1-0.4,1.1c-0.8,0.1-1.2-0.1-1.2-1c0-0.3-0.5-0.6-0.7-0.8
			c-0.2,0.3-0.6,0.7-0.7,1c-0.1,0.5-0.1,1-0.1,1.5c-0.1,0-0.1,0-0.2,0.1c-0.5,0.1-0.9,0.1-1.4,0.2c-0.2-3.4,0.8-6.6,1.2-9.9
			C35.3,42.1,36,42,36.7,42z"/>
		<path class="st17" d="M64.5,41.8c0.7,0,1.4,0,2,0c0.3,0.4,0.6,0.7,0.8,1.1c-0.2,0.2-0.5,0.5-0.7,0.5c-1.6,0-0.7,1.3-0.8,1.9
			c-0.2,0.9,0.4,1,1.2,1c0.1,0.4,0.3,0.8,0.4,1.2c-0.3,0.1-0.6,0.1-0.9,0.2c-0.2,0-0.6,0.1-0.6,0.1c-0.1,0.8-0.1,1.7-0.1,2.5
			c0,0.2,0.6,0.3,0.9,0.5c0.3,0.3,0.6,0.7,0.9,1c-1.1-0.1-2.1-0.2-3.2-0.4c-0.1-2.7-0.1-5.3-0.2-8C64.3,43,64.5,42.4,64.5,41.8z"/>
		<path class="st16" d="M64.5,41.8c-0.1,0.6-0.3,1.2-0.3,1.8c0,2.7,0.1,5.3,0.2,8c0,0.2,0,0.5,0,0.7l0,0c-0.2-0.1-0.4-0.2-0.6-0.3
			c-0.1-0.3-0.2-0.5-0.2-0.6c-0.5,0.1-1,0.2-1.5,0.4c1.1-0.9,0.6-2.2,0.6-3.3c0-0.5-0.3-1.1-0.5-1.7c0-0.1-0.1-0.3-0.1-0.4
			c1-1.5,0.6-3,0.1-4.5c0.6,0.1,1.3,0.8,1.6-0.3C64.1,41.7,64.3,41.7,64.5,41.8z"/>
		<path class="st16" d="M34.6,42.1c-0.3,3.3-1.3,6.5-1.2,9.9c-0.2,0.1-0.5,0.2-0.7,0.2c-0.1-0.1-0.2-0.2-0.4-0.4c0-0.1,0-0.1,0-0.1
			c0-0.4,0.5-1.2-0.6-0.6c-0.2,0.1-0.6,0.1-0.7-0.1c-0.7-0.6,0-3,0.9-3.3c0.3-0.1,0.5-0.4,0.7-0.5c-0.3-0.2-0.6-0.5-0.9-0.7
			c-0.3-0.2-0.7-0.4-0.7-0.6c-0.1-0.3,0.1-0.7,0.2-1c0.7,0.6,1.4,1.2,2.1,1.9c0.2-1.4,0.5-2.8,0.7-4.2
			C34.3,42.4,34.4,42.3,34.6,42.1z M33.3,48.5c-0.1-0.1-0.3-0.2-0.4-0.3c-0.4,0.5-1.8-0.1-1.3,1.3c0.1,0.3,0.5,0.5,0.8,0.8
			C32.7,49.7,33,49.1,33.3,48.5z"/>
		<path class="st19" d="M34.1,42.5c-0.2,1.4-0.5,2.7-0.7,4.2c-0.7-0.6-1.4-1.2-2.1-1.9c0.2-0.2,0.3-0.7,0.5-0.7
			c0.9-0.1,0.9-0.7,1-1.3c0.1-0.1,0.2-0.2,0.3-0.3C33.4,42.5,33.7,42.5,34.1,42.5z"/>
		<path class="st13" d="M22.3,41.6c0-0.1,0-0.3,0-0.4c2,0,4,0,6,0c1,0,1.9-0.1,2.9-0.2c0,0.2,0,0.4,0,0.6c-0.8,0.1-1.5,0.2-2.3,0.3
			c-0.6-0.1-1.1-0.2-1.7-0.3C25.6,41.6,24,41.6,22.3,41.6z"/>
		<path class="st16" d="M67.1,46.3c-0.7,0.1-1.4-0.1-1.2-1c0.2-0.6-0.8-1.9,0.8-1.9c0.2,0,0.5-0.3,0.7-0.5c-0.3-0.4-0.6-0.7-0.8-1.1
			c0.3-0.1,0.6-0.2,1-0.3c0.1,0,0.3,0,0.4,0c0,0,0.1,0,0.1,0c-0.2,0.8-0.1,1.9-0.6,2.4c-0.7,0.7-0.6,1.1-0.1,1.8
			C67.2,46,67.1,46.1,67.1,46.3z"/>
		<path class="st6" d="M57.1,40.7c1.6-0.1,3.1-0.2,4.7-0.3c1.6-0.1,3.2-0.1,4.8-0.2c0.4,0,0.8,0.1,1.2,0.2c0,0.1,0,0.2,0,0.3
			c-0.1,0.1-0.1,0.1-0.2,0.2c-1.7,0-3.4,0-5.1,0c-1.7,0-3.3,0.1-5,0.1C57.3,41,57.2,40.8,57.1,40.7z"/>
		<path class="st16" d="M48.1,42.5c0,1,0,2,0,3c-0.2,0-0.3,0-0.5,0.1c-0.3-1.2-0.6-2.3-0.9-3.5C47.2,42.2,47.6,42.4,48.1,42.5z"/>
		<path class="st19" d="M44.3,42.3c0,0.4,0,0.8,0.1,1.2c-0.1,1.4-1,1.4-1.8,1.2c0.1-0.7,0.3-1.4,0.4-2.1
			C43.3,42.5,43.8,42.4,44.3,42.3z"/>
		<path class="st20" d="M42.2,41.6c0,0.3,0,0.6,0,0.9c-1.3,0-2.7,0-4,0c-0.1-0.2-0.2-0.3-0.3-0.5C39.4,41.9,40.8,41.8,42.2,41.6z"/>
		<path class="st20" d="M29,41.9c0.8-0.1,1.5-0.2,2.3-0.3c0.6,0.3,1.2,0.6,1.8,1c-0.1,0.1-0.2,0.2-0.3,0.3c-1.1-0.7-2.3-0.5-3.5-0.3
			c-0.2,0-0.3-0.1-0.5-0.1c-0.1,0-0.1,0-0.2,0C28.7,42.3,28.8,42.1,29,41.9z"/>
		<path class="st20" d="M56.8,42.3c-0.4-0.1-0.7-0.2-1.1-0.2c-0.9,0-1.8,0.1-2.7,0.1c-0.2-0.1-0.5-0.2-0.7-0.2
			C53.9,41,56,41.2,56.8,42.3z"/>
		<path class="st14" d="M67.6,40.8c0.1-0.1,0.1-0.1,0.2-0.2c0.1,0.2,0.2,0.3,0.2,0.5c0,0.1,0,0.3-0.1,0.4c-0.1,0-0.3,0-0.4,0
			C67.5,41.3,67.5,41.1,67.6,40.8z"/>
		<path class="st6" d="M51.6,40.9c0.3-0.1,0.7-0.1,1-0.2C52.3,40.7,52,40.8,51.6,40.9z"/>
		<path class="st6" d="M53.3,40.7c0.3,0,0.7,0,1,0C54,40.7,53.6,40.7,53.3,40.7z"/>
		<path class="st6" d="M55.4,40.9c0.2-0.1,0.4-0.1,0.5-0.2C55.8,40.7,55.6,40.8,55.4,40.9z"/>
		<path class="st20" d="M42.7,42.1c-0.1-0.1-0.1-0.2-0.2-0.3C42.5,41.9,42.6,42,42.7,42.1z"/>
		<path class="st7" d="M15.7,40c0.2,0.1,0.3,0.1,0.5,0.2c0,1,0,2.1,0,3.1c0.1,0.2,0.2,0.3,0.2,0.5c0,0.1,0,0.2,0,0.2
			c-0.1,0.7-0.2,1.4-0.2,2.1c0,0.2,0,0.3,0,0.5c0,0.2,0,0.3,0,0.5c-0.1-0.3-0.2-0.6-0.2-1c-0.2-1-0.3-2-0.5-3c0-0.2,0-0.3,0-0.5
			c0,0,0.1-0.1,0.1-0.1c0-0.1-0.1-0.1-0.1-0.2C15.1,41.5,15.3,40.7,15.7,40z"/>
		<path class="st10" d="M15.5,43c0.2,1,0.3,2,0.5,3c0.1,0.3,0.2,0.7,0.2,1c0,0.2,0,0.3,0,0.5c-0.4,0.3-0.7,0.7-0.2,1.2
			c0,0.4,0,0.8,0,1.2c-0.2,0.1-0.3,0.2-0.5,0.2c-0.1-0.8-0.3-1.5-0.3-2.3c0-0.6,0.1-1.1,0.1-1.7C15.3,45.1,15.4,44.1,15.5,43z"/>
		<path class="st10" d="M15.5,42.3c0,0.1,0.1,0.1,0.1,0.2c0,0-0.1,0-0.1,0.1C15.5,42.5,15.5,42.4,15.5,42.3z"/>
		<path class="st21" d="M38.4,51.7c0.3-0.1,0.6-0.3,0.8-0.3c1.4,0.2,2.8-0.1,2.7-2.1c0-0.7,0-1.4,0-2.1c0.1,0,0.1-0.1,0.2-0.1
			c0.7,0.1,1.7-0.1,2.1,0.3c0.4,0.4,0.1,1.4,0.1,2.1c0,1.2,0.6,1.6,2,1.3c1-0.2,2-0.1,3-0.1c0.7,0,1.5,0.4,2-0.5
			c0.1-0.1,0.8,0,1.1,0.2c1.4,1.1,3.9,0.9,4.8-0.3c0.5,0.4,1,0.8,1.6,1.2c-0.8,0.2-1.6,0.4-2.5,0.6c-0.3-0.1-0.6-0.2-0.9-0.2
			c-1.5,0-3,0.1-4.5,0.2c-0.2,0-0.4,0-0.4,0c-0.1,0.6-0.2,1.3-0.3,1.9c-0.2,0-0.5,0-0.7,0c0-0.1-0.1-0.2-0.1-0.3
			c0,0.1-0.1,0.2-0.1,0.3c-0.2,0-0.3,0-0.5,0c0.1-0.2,0.2-0.5,0.2-0.7l0.1,0l0.1,0c0.9-0.4,0.9-0.8,0-1.2c-0.2,0-0.4,0-0.7,0
			c-0.3-0.1-0.5-0.1-0.8-0.2c-0.2,0-0.3,0-0.5,0c-0.2,0.1-0.4,0.3-0.6,0.4l-0.1,0c-0.1-0.1-0.1-0.3-0.2-0.3c-1.8,0-3.7,0.1-5.5,0.1
			C40,51.9,39.2,51.8,38.4,51.7z"/>
		<path class="st6" d="M48.8,53.2c-0.1,0.2-0.2,0.5-0.2,0.7c-1.2,0-2.5,0-3.7,0c-1.4,0-2.9,0-4.3,0c-1.2,0-2.4-0.1-3.6-0.2
			c0-0.1,0-0.2,0-0.2c0.1-0.1,0.2-0.2,0.2-0.2c0.2,0,0.3,0,0.5,0c0.2,0,0.3,0,0.5,0c0.2,0,0.3,0,0.5,0c0.2,0,0.3,0,0.5,0
			c0.8-0.1,1.6-0.1,2.4-0.2c1.7,0.1,3.3,0.1,5,0.2l0.1,0l0.1,0c0.2,0,0.4,0,0.5,0c0.1-0.2,0.3-0.3,0.4-0.5c0,0,0,0,0,0
			c0.1,0.1,0.2,0.2,0.3,0.3C48.2,53.1,48.5,53.1,48.8,53.2z"/>
		<path class="st15" d="M37,53.4c0,0.1,0,0.2,0,0.2c-1.9,0.1-3.9,0.2-5.8,0.3c-0.3,0-0.6-0.4-0.8-0.6c0.1-0.1,0.1-0.3,0.2-0.4
			c0.3-0.2,0.6-0.3,1-0.5c0,0.6,0.1,1,0.8,0.9c0.9-0.1,1.8-0.2,2.7-0.2c0.3,0,0.6,0,0.9,0C36.4,53.3,36.7,53.4,37,53.4z"/>
		<path class="st14" d="M28.6,53.2c-0.1,0-0.3,0-0.4,0c-0.2,0.1-0.4,0.1-0.6,0.2c0,0-0.1,0-0.1,0c0-0.1,0-0.3,0-0.4
			c0.1-0.2,0.2-0.5,0.2-0.7c0-0.1,0.1-0.1,0.1-0.2c0.2,0,0.4,0,0.6,0c0.1,0.1,0.1,0.2,0.2,0.3C28.7,52.6,28.6,52.9,28.6,53.2z"/>
		<path class="st20" d="M28.6,53.2c0-0.3,0-0.6,0-0.9c0.2-0.2,0.4-0.4,0.5-0.5c0.1,0.1,0.2,0.2,0.2,0.2c0,0.3,0,0.6,0,1
			c-0.1,0.1-0.2,0.2-0.3,0.2C29,53.2,28.8,53.2,28.6,53.2z"/>
		<path class="st16" d="M29.1,53.2c0.1-0.1,0.2-0.2,0.3-0.2c0.4,0,0.7,0,1.1,0c-0.1,0.1-0.1,0.3-0.2,0.4
			C29.9,53.3,29.5,53.3,29.1,53.2z"/>
		<path class="st18" d="M27.6,53.4c0.2-0.1,0.4-0.1,0.6-0.2c-0.2,0.2-0.3,0.5-0.5,0.7c-0.1-0.1-0.2-0.2-0.3-0.3
			C27.5,53.6,27.6,53.5,27.6,53.4z"/>
		<path class="st6" d="M49.1,53.9c0-0.1,0.1-0.2,0.1-0.3c0,0.1,0.1,0.2,0.1,0.3C49.2,53.9,49.1,53.9,49.1,53.9z"/>
		<path class="st22" d="M68,41.1c-0.1-0.2-0.2-0.3-0.2-0.5c0-0.1,0-0.2,0-0.3c0.1,0,0.3,0,0.4,0c0,0.1,0,0.1,0.1,0.2
			C68.2,40.8,68.1,41,68,41.1z"/>
		<path class="st22" d="M21.6,42.3c0.1,0,0.1,0,0.2,0c0.1,0.2,0.2,0.5,0.3,0.7c-0.1,0.6-0.2,1.2-0.4,1.7c-0.7,2.4-1.5,4.9-2.3,7.3
			c-0.2,0.3-0.4,0.6-0.7,1c0-0.7,0-1.4,0-2.1c0.7-2.5,1.5-5,2.2-7.6C21.2,43,21.4,42.6,21.6,42.3z"/>
		<path class="st15" d="M16.2,47.5c0-0.2,0-0.3,0-0.5c0-0.2,0-0.3,0-0.5c0.4-0.1,1.1,0.7,1.1-0.3c0.1-1.3,0-2.6-0.1-3.9
			c0-0.3,0.1-0.5,0.1-0.8c1.1,1.7,0.7,3.7,0.7,5.6c0,0.4-0.1,0.7-0.2,1.1c-0.2,0.1-0.7,0.2-0.7,0.3C17,49.3,17,50.2,16.9,51
			c-0.1,0.7-0.4,1.3-0.7,1.9c-0.1-1-0.2-2.1-0.3-3.1c0-0.4,0-0.8,0-1.2C16,48.3,16.1,47.9,16.2,47.5z"/>
		<path class="st21" d="M21,43.3c-0.7,2.5-1.5,5-2.2,7.6c0-2.2,0-4.4,0-6.6c0-0.6,0.3-0.8,0.9-0.8C20.1,43.5,20.5,43.3,21,43.3z"/>
		<path class="st10" d="M17.3,41.6c0,0.3-0.1,0.5-0.1,0.8c0,1.3,0.1,2.6,0.1,3.9c-0.1,1-0.8,0.2-1.1,0.3c0-0.2,0-0.3,0-0.5
			c0.9-0.6,0.5-1.4,0.2-2.1c0-0.1,0-0.2,0-0.2c-0.1-0.2-0.2-0.3-0.2-0.5c0-1,0-2.1,0-3.1C16.6,40.6,17,41.1,17.3,41.6z"/>
		<path class="st23" d="M18.8,53c0.2-0.3,0.4-0.6,0.7-1c0.2,0.1,0.3,0.2,0.5,0.2c0.2,0.3,0.3,0.6,0.5,1c-0.4,1-1.2,0.6-1.9,0.5
			C18.7,53.5,18.7,53.2,18.8,53z"/>
		<path class="st15" d="M17.8,49.4c0-0.2,0-0.5,0-0.7C17.8,48.9,17.8,49.2,17.8,49.4z"/>
		<path class="st15" d="M17.8,49.9c0-0.1,0-0.2,0-0.3C17.8,49.7,17.8,49.8,17.8,49.9z"/>
		<path class="st24" d="M56.2,52c0.8-0.2,1.6-0.4,2.5-0.6c0.1,0,0.1,0,0.1,0.1c0.2,0,0.5,0,0.7,0.1c0.5-0.1,1-0.2,1.5-0.2
			c0.4,0.1,0.8,0.3,1.2,0.4c0.5-0.1,1-0.2,1.5-0.4c0,0.1,0.1,0.3,0.2,0.6c0.2,0.1,0.4,0.2,0.6,0.3c0,0,0,0,0,0
			c0.3,0.2,0.5,0.4,0.8,0.6c-0.3,0.1-0.5,0.2-0.8,0.4c-2.5,0-5.1,0-7.6,0c-0.2,0-0.3-0.2-0.5-0.2C56.3,52.6,56.2,52.3,56.2,52z"/>
		<path class="st13" d="M64.5,53.2c0.3-0.1,0.5-0.2,0.8-0.4c1,0,2,0.1,2.9,0.1c0.4,0.1,0.8,0.3,1.1,0.3c1.3,0,2.6-0.1,3.9-0.2
			c0,0.2,0,0.4,0,0.6c-2.9,0-5.9,0-8.8,0C64.4,53.5,64.4,53.3,64.5,53.2z"/>
		<path class="st25" d="M56.2,52c0.1,0.3,0.2,0.6,0.2,0.9C56,53,55.7,53,55.3,53c-1.3,0.1-2.5,0.1-3.8,0.1c-0.8,0-1.1-0.4-0.8-1.2
			c1.5-0.1,3-0.1,4.5-0.2C55.6,51.8,55.9,51.9,56.2,52z"/>
		<path class="st1" d="M13.1,42.1c0.1,0.6,0.2,1.2,0.3,1.8c-0.1,0-0.2,0-0.3,0C13.1,43.3,13.1,42.7,13.1,42.1
			C13.1,42.1,13.1,42.1,13.1,42.1z"/>
		<path class="st1" d="M13.1,46.3c0-0.2,0-0.3,0-0.5c0-0.1,0-0.3,0-0.4c0.1,0,0.1,0,0.2,0c0,0.3,0,0.6,0,0.9
			C13.3,46.3,13.2,46.4,13.1,46.3C13.1,46.4,13.1,46.3,13.1,46.3z"/>
		<path class="st1" d="M13.3,44.7C13.2,44.7,13.2,44.7,13.3,44.7c-0.1,0.1-0.1,0-0.1,0C13.1,44.6,13.2,44.6,13.3,44.7
			C13.2,44.6,13.2,44.6,13.3,44.7z"/>
		<path class="st1" d="M13.3,49.9C13.2,49.9,13.2,49.9,13.3,49.9c-0.1,0-0.1,0-0.1-0.1C13.2,49.8,13.2,49.8,13.3,49.9
			C13.2,49.8,13.2,49.9,13.3,49.9z"/>
		<path class="st13" d="M73.3,53.6c0,0.1,0.1,0.2,0.1,0.3C73.4,53.8,73.3,53.7,73.3,53.6z"/>
		<path class="st15" d="M16.2,53.7c0-0.1,0-0.2,0-0.2C16.2,53.5,16.2,53.6,16.2,53.7z"/>
		<path class="st15" d="M16.2,53.2c0-0.1,0-0.2,0-0.2C16.2,53,16.2,53.1,16.2,53.2z"/>
		<path class="st24" d="M77.7,51.6c0,0.1,0,0.3,0,0.4c0,0.1,0,0.2,0,0.3c0,0,0,0,0,0c0.1,0.3,0.2,0.6,0.2,0.9
			c-0.3,0.1-0.6,0.3-0.9,0.3c-1.1-0.1-2.1-0.2-3.2-0.3c-0.1-0.3-0.2-0.7-0.3-1c0,0,0.1,0,0.1,0c0.4-0.2,0.8-0.4,1.2-0.6
			c0.3,0,0.8,0.1,0.9-0.1C76.5,50.5,77.1,51.1,77.7,51.6z"/>
		<path class="st15" d="M78,53.2c-0.1-0.3-0.2-0.6-0.2-0.9c0.3,0.3,0.6,0.6,0.9,0.9C78.4,53.2,78.2,53.2,78,53.2z"/>
		<path class="st15" d="M78.7,53.4c0.2,0.3,0.5,0.6,0.7,1C79.1,54.1,78.9,53.7,78.7,53.4z"/>
		<path class="st26" d="M20.4,53.2c-0.2-0.3-0.3-0.6-0.5-1c0.2,0,0.5,0,0.7,0c0.4-0.2,0.8-0.3,1.2-0.5l0,0c0.1,0,0.2,0,0.3,0
			c0.1,0,0.1,0,0.2,0c1.5,0.1,3,0.3,4.5,0.4c0.3,0,0.6,0,0.9,0c-0.1,0.2-0.2,0.5-0.2,0.7c-1.9,0-3.8,0-5.7,0c-0.3,0-0.7,0.2-1,0.2
			C20.7,53.2,20.6,53.2,20.4,53.2z"/>
		<path class="st23" d="M20.9,53.2c0.3-0.1,0.7-0.2,1-0.2c1.9,0,3.8,0,5.7,0c0,0.1,0,0.3,0,0.4c-1.8,0-3.6,0-5.4,0
			C21.7,53.4,21.3,53.3,20.9,53.2z"/>
		<path class="st23" d="M73.7,52.2c-1.7,0.2-3.5,0.3-5.2,0.5c-0.1-0.3-0.1-0.6-0.2-0.9c0.3-0.1,0.5-0.3,0.8-0.4
			c-1.2-0.6,0.2-0.5,0.2-0.8c0.1-0.2,0.2-0.3,0.2-0.5l0,0c0.2,0.1,0.3,0.2,0.5,0.2l0,0c0,0.1,0,0.3,0.1,0.4c0.1-0.1,0.2-0.1,0.2-0.2
			c0.8-1.6,0.6,0.5,1.2,0c0.1-0.2,0.4-0.6,0.7-1c0.1,0,0.1,0,0.2,0c0.2,0.2,0.4,0.3,0.5,0.4c-0.2,0.3-0.6,0.7-0.5,0.8
			c0.1,0.3,0.5,0.5,0.8,0.7c0.2,0.1,0.5,0,0.7,0C73.7,51.8,73.7,52,73.7,52.2L73.7,52.2z"/>
		<path class="st20" d="M68.2,51.8c0.1,0.3,0.1,0.6,0.2,0.9c-0.1,0.1-0.2,0.2-0.2,0.2c-1,0-2-0.1-2.9-0.1c-0.3-0.2-0.5-0.4-0.8-0.6
			c0-0.2,0-0.5,0-0.7c1.1,0.1,2.1,0.2,3.2,0.4c0.2,0,0.3-0.1,0.5-0.1C68.1,51.8,68.2,51.8,68.2,51.8L68.2,51.8z"/>
		<path class="st26" d="M68,41.1c0.1-0.2,0.2-0.3,0.2-0.5c0.1,0,0.3,0,0.4,0c0.1,0,0.2,0,0.2,0c0.1,0,0.1,0,0.2,0
			c1.1,0.1,2.1,0.3,3.2,0.2c1.6-0.1,3.2-0.4,4.8-0.7c-0.2,1-0.4,1.9-0.7,2.9c0,0.1,0,0.1,0,0.2c-0.1,0-0.2,0-0.2,0.1
			c-0.3-0.4-0.3-1.2-1.2-1c-0.1-0.1-0.2-0.1-0.3-0.2c-0.1,0-0.3,0-0.4,0c-1.8-0.2-3.6-0.3-5.4-0.5c-0.3,0-0.6,0-0.9,0
			c0,0-0.1,0-0.1,0C68,41.4,68,41.3,68,41.1z"/>
		<path class="st13" d="M69,40.6c-0.1,0-0.2,0-0.2,0C68.8,40.6,68.9,40.6,69,40.6z"/>
		<path class="st26" d="M22.1,43c-0.1-0.2-0.2-0.5-0.3-0.7c0.2-0.2,0.3-0.5,0.5-0.7c1.7,0,3.3,0,5,0c0.6,0,1.1,0.2,1.7,0.3
			c-0.2,0.2-0.3,0.4-0.5,0.6c-0.5,0.2-1,0.4-1.5,0.5c-0.1,0-0.2,0-0.3,0c-0.2-0.1-0.4-0.2-0.6-0.2l0,0c-0.2,0.1-0.5,0.2-0.7,0.3
			C24.4,43,23.3,43,22.1,43z"/>
		<path class="st22" d="M76.5,43.2c0-0.1,0-0.1,0-0.2c0.1,0,0.2,0,0.2,0c0.1,0.5,0.2,0.9,0.2,1.4c0,0.2,0,0.5,0,0.7
			c-0.7,2.1-1.4,4.3-2.1,6.4c-0.4,0.2-0.8,0.4-1.2,0.6c0-0.2,0-0.4,0-0.6c0.1-0.1,0.4-0.3,0.4-0.4c0.7-2.3,1.3-4.6,1.9-6.9
			c0,0.1,0.1,0.1,0.1,0.2c0,0,0.1,0,0.1,0C76.3,44,76.4,43.6,76.5,43.2z"/>
		<path class="st10" d="M77,45.1c0-0.2,0-0.5,0-0.7c0.3-1.2,0.6-2.4,0.9-3.6c0.1-0.1,0.2-0.1,0.2-0.2c0.2,0.9,0.8,1.7,0,2.6
			c-0.3,0.6-0.6,1.3-1,1.9C77.1,45.2,77.1,45.1,77,45.1z"/>
		<path class="st17" d="M77.9,40.9c-0.3,1.2-0.6,2.4-0.9,3.6c-0.1-0.5-0.2-0.9-0.2-1.4C77.2,42.3,77.5,41.6,77.9,40.9z"/>
		<path class="st3" d="M77.2,45.2c0.3-0.6,0.6-1.3,1-1.9c0.1,0.7,0.1,1.4,0.2,2.1c0,0.5,0,0.9,0,1.4c0,1.3,0,2.5,0,3.8
			c-0.1,0.2-0.2,0.3-0.3,0.5c-0.2-0.3-0.3-0.6-0.5-1c-0.1-0.4-0.3-0.8-0.4-1.2C77.2,47.7,77.2,46.4,77.2,45.2z"/>
		<path class="st10" d="M78.4,46.8c0-0.5,0-0.9,0-1.4C78.4,45.8,78.4,46.3,78.4,46.8z"/>
		<path class="st21" d="M77.7,50.1c0.2,0.3,0.3,0.6,0.5,1c-0.2,0.2-0.3,0.3-0.5,0.5c-0.6-0.4-1.1-1.1-1.9-0.1
			c-0.1,0.2-0.6,0.1-0.9,0.1c0.7-2.1,1.4-4.3,2.1-6.4c0.1,0,0.2,0,0.2,0c0,1.2,0,2.5,0,3.7C77.4,49.3,77.5,49.7,77.7,50.1z"/>
		<path class="st21" d="M77.7,52.2c0-0.1,0-0.2,0-0.3C77.7,52.1,77.7,52.1,77.7,52.2z"/>
		<path class="st17" d="M53,42.2c0.9,0,1.8-0.1,2.7-0.1c1.6,1.4,0.9,3.3,1,5c0,0.3-0.1,0.6,0,0.9c0.1,2.2-1.3,3.2-3.4,2.1
			c-0.4-0.2-1-0.8-1-1.2c-0.1-1.7-0.2-3.3,0-5C52.2,43.3,52.7,42.8,53,42.2z M55.1,45.8c0,0,0.1,0,0.1,0c0-0.6,0-1.2-0.2-1.9
			c0-0.2-0.4-0.6-0.6-0.6c-0.2,0-0.6,0.3-0.6,0.5c0,1.6,0.1,3.1,0.2,4.7c0,0.1,0.5,0.3,0.8,0.2c0.1,0,0.4-0.3,0.4-0.5
			C55.2,47.5,55.1,46.6,55.1,45.8z"/>
		<path class="st17" d="M38.2,42.5c1.3,0,2.7,0,4,0c0,0.5,0.2,1-0.6,1.1c-0.2,0-0.4,0.7-0.5,1c-0.1,1.7-0.2,3.3-0.1,5
			c0,0.8-0.4,1-1,1c-0.2,0-0.5-0.6-0.5-0.9c-0.1-1.7,0-3.4-0.1-5.2c0-0.3-0.3-0.7-0.5-0.7C38,43.8,38.1,43.2,38.2,42.5z"/>
		<path class="st24" d="M36,53.2c-0.3,0-0.6,0-0.9,0c-0.5-0.1-0.9-0.1-1.4-0.3c-0.3-0.1-0.7-0.3-1-0.5c0-0.1,0-0.1,0-0.2
			c0.2-0.1,0.5-0.2,0.7-0.2c0.5-0.1,0.9-0.1,1.4-0.2c0.6,0.9,1.3,0.4,1.9,0c0.2,0,0.3,0,0.5,0c0.1,0,0.2,0,0.2,0
			c0.2,0,0.3,0,0.5-0.1c0.1,0,0.2,0,0.2,0c0.1,0,0.1,0,0.2,0c0.8,0.1,1.6,0.2,2.4,0.3c0.2,0.3,0.5,0.6,0.7,1
			c-0.8,0.1-1.6,0.1-2.4,0.2c-0.2,0-0.3,0-0.5,0c-0.2,0-0.3,0-0.5,0c-0.2,0-0.3,0-0.5,0c-0.2,0-0.3,0-0.5,0
			C36.8,53.2,36.4,53.2,36,53.2z"/>
		<path class="st19" d="M38.7,48.3c-0.3-1.2-0.7-2.4-1-3.6c0-0.1,0.2-0.3,0.4-0.4c0.3,0.3,0.7,0.5,0.7,0.8c0.1,1.1,0,2.1,0,3.2
			C38.8,48.3,38.8,48.3,38.7,48.3z"/>
		<path class="st1" d="M36.8,51.8c-0.6,0.4-1.2,0.9-1.9,0c0.1,0,0.1,0,0.2-0.1c0.1,0,0.3,0,0.3,0C35.9,50.4,36.3,51.2,36.8,51.8z"/>
		<path class="st21" d="M59.5,51.5c-0.2,0-0.5,0-0.7-0.1C59,51.5,59.2,51.5,59.5,51.5z"/>
		<path class="st1" d="M37.5,51.8c-0.1,0-0.2,0-0.2,0C37.3,51.8,37.4,51.8,37.5,51.8z"/>
		<path class="st1" d="M38.2,51.8c-0.1,0-0.2,0-0.2,0C38,51.8,38.1,51.8,38.2,51.8z"/>
		<path class="st16" d="M61.1,44.5c0,0.3,0,0.7-0.1,0.8c-0.2,0.2-0.5,0.3-0.8,0.4c-0.1,0-0.3-0.3-0.3-0.5c-0.1-0.3-0.2-0.5-0.1-0.8
			c0.1-0.4,0.2-0.9,0.4-1c0.6-0.2,0.9,0.2,0.9,0.8C61.1,44.4,61.1,44.5,61.1,44.5z"/>
		<path class="st27" d="M68.1,51.8c-0.2,0-0.3,0.1-0.5,0.1c-0.3-0.3-0.5-0.7-0.9-1c-0.3-0.2-0.9-0.3-0.9-0.5c-0.1-0.8,0-1.7,0.1-2.5
			c0-0.1,0.4-0.1,0.6-0.1c0.3-0.1,0.6-0.1,0.9-0.2c-0.1-0.4-0.3-0.8-0.4-1.2c0.1-0.2,0.2-0.3,0.2-0.5c1.1,0.2,0.7,1.1,0.7,1.7
			c0,0.3-0.5,0.6-0.7,0.9c-0.2,0.3-0.6,0.5-0.6,0.8c0,0.3,0.2,0.8,0.5,0.8C68.1,50.3,68.2,51,68.1,51.8z"/>
		<path class="st20" d="M64.4,52.2c-0.2-0.1-0.4-0.2-0.6-0.3C64,52.1,64.2,52.1,64.4,52.2z"/>
		<path class="st18" d="M29.4,52c-0.1-0.1-0.2-0.2-0.2-0.2c-0.1-0.9-0.2-1.9-0.2-2.8c0.1-0.2,0.2-0.3,0.2-0.5c0-2,0-3.9,0.1-5.9
			c1.2-0.2,2.4-0.4,3.5,0.3c0,0.6-0.1,1.2-1,1.3c-0.2,0-0.3,0.5-0.5,0.7c-0.1,0.3-0.3,0.7-0.2,1c0.1,0.3,0.5,0.4,0.7,0.6
			c0.3,0.2,0.6,0.5,0.9,0.7c-0.2,0.2-0.5,0.4-0.7,0.5c-0.9,0.3-1.6,2.7-0.9,3.3c0.2,0.1,0.6,0.2,0.7,0.1c1.1-0.6,0.6,0.2,0.6,0.6
			C31.4,51.8,30.4,51.9,29.4,52z"/>
		<path class="st19" d="M33.3,48.5c-0.3,0.6-0.6,1.2-0.9,1.8c-0.3-0.3-0.7-0.5-0.8-0.8c-0.4-1.4,0.9-0.8,1.3-1.3
			C33,48.3,33.2,48.4,33.3,48.5z"/>
		<path class="st14" d="M29.4,52c1-0.1,1.9-0.2,2.9-0.2c0,0,0.1,0.1,0,0.1c-0.1,0.2-0.2,0.4-0.3,0.6c-0.2,0-0.3,0-0.5,0.1
			c-0.3,0.2-0.6,0.3-1,0.5c-0.4,0-0.8,0-1.1,0C29.4,52.6,29.4,52.3,29.4,52z"/>
		<path class="st18" d="M32,52.4c0.1-0.2,0.2-0.4,0.3-0.6c0.1,0.1,0.2,0.2,0.4,0.4c0,0.1,0,0.1,0,0.2C32.5,52.4,32.3,52.4,32,52.4z"
			/>
		<path class="st13" d="M68.1,51.8c0.1-0.8,0-1.5-1-1.7c-0.2,0-0.5-0.6-0.5-0.8c0-0.3,0.4-0.5,0.6-0.8c0.3-0.3,0.7-0.6,0.7-0.9
			c0.1-0.6,0.4-1.5-0.7-1.7c-0.5-0.6-0.6-1,0.1-1.8c0.5-0.5,0.4-1.6,0.6-2.4c0.3,0,0.6,0,0.9,0c0.3,0.2,0.6,0.5,1,0.7
			c-0.3,0.9-0.2,1.2,0.9,1.1c1.3-0.1,2.5-0.1,3.8,0c1.2,0.1,0.8-0.4,0.5-1c0-0.1,0-0.2,0-0.2c0.8-0.2,0.9,0.5,1.2,1
			c-0.1,0.3-0.1,0.7-0.2,1c-0.6,2.3-1.3,4.6-1.9,6.9c0,0.2-0.3,0.3-0.4,0.4c-0.2,0-0.5,0.1-0.7,0c-0.3-0.2-0.7-0.4-0.8-0.7
			c-0.1-0.2,0.3-0.5,0.5-0.8c-0.1-0.1-0.3-0.2-0.5-0.4c0.3-0.3,0.6-0.7,1-1c-0.3-0.2-0.5-0.6-0.8-0.6c-0.6,0-1.2,0-1.8,0.2
			c-0.3,0.1-0.4,0.5-0.6,0.7c0.2,0.1,0.4,0.2,0.7,0.3c0.5,0.1,0.9,0.3,1.4,0.4c-0.3,0.4-0.6,0.9-0.7,1c-0.6,0.4-0.4-1.6-1.2,0
			c-0.1-0.1-0.2-0.2-0.3-0.2c0,0,0,0,0,0c-0.2-0.1-0.3-0.2-0.5-0.2c0,0,0,0,0,0c-0.1,0-0.3,0-0.4-0.1c0.1,0.2,0.1,0.4,0.2,0.6
			c0,0.3-1.4,0.2-0.2,0.8c-0.3,0.1-0.5,0.3-0.8,0.4C68.2,51.8,68.2,51.8,68.1,51.8L68.1,51.8z M70.3,47.4c1.1-0.2,2.1-0.2,3-0.4
			c0.3-0.1,0.5-0.4,0.7-0.7c-0.3-0.2-0.5-0.4-0.8-0.4c-0.9,0-1.9,0.1-2.8,0.1c-0.3,0-0.8-0.1-0.9,0c-0.2,0.3-0.3,0.8-0.2,1
			C69.7,47.3,70.2,47.4,70.3,47.4z"/>
		<path class="st28" d="M27,43c0.5-0.2,1-0.4,1.5-0.5c0.1,0,0.1,0,0.2,0c0,2.1,0,4.3,0,6.4c0,0.3,0,0.6-0.1,0.9
			c-0.2,0.7-0.5,1.4-0.7,2.2c0,0.1-0.1,0.1-0.1,0.2c-0.3,0-0.6,0-0.9,0c0-0.1,0-0.3,0-0.4c0.1-0.3,0.3-0.6,0.3-0.9
			c0-0.1-0.2-0.3-0.4-0.4c-0.5,0.9-0.7-0.4-1.1-0.1c-0.2,0.1-0.4,0-0.6,0c-0.5,0-1.1,0-1.6,0c-0.8,0-1.7,0.1-2.5,0.2l0,0
			c-0.1,0.4-0.1,0.8-0.2,1.1c0,0.2,0,0.3,0,0.5c-0.2,0-0.5,0-0.7,0c-0.2-0.1-0.3-0.2-0.5-0.2c0.8-2.4,1.5-4.9,2.3-7.3
			c0.2-0.6,0.2-1.1,0.4-1.7c1.1,0,2.3,0,3.4,0c0.2,0.2,0.4,0.5,0.6,0.7c0.2,0,0.5,0,0.7,0.1c0.1-0.1,0.2-0.3,0.3-0.4
			C27.1,43.3,27.1,43.2,27,43z M24.7,48c0,0.1,0,0.2,0,0.2c-0.4,0.1-0.9,0.2-1.3,0.3c0.1,0.2,0.3,0.4,0.4,0.7
			c0.1,0.1,0.1,0.2,0.2,0.2c0.1,0.1,0.2,0.2,0.2,0.3c0.5-0.7,1-0.1,1.6,0c0.2,0,0.3-0.1,0.7-0.1c-0.5-0.5-0.9-0.9-1.3-1.3
			c0-0.1,0-0.3,0-0.4c0.2-0.1,0.5-0.2,0.7-0.3c0.1-0.4,0.1-0.8,0.2-1.2c0,0,0-0.1,0.1-0.1c0,0,0,0.1-0.1,0.1
			c-0.4,0.1-0.8,0.2-1.2,0.4C23.7,46.9,24.3,47.5,24.7,48z M23.8,44.2c-0.1,0.1-0.2,0.3-0.3,0.4c0.1,0.3,0.2,0.5,0.4,0.8
			c0.1-0.2,0.2-0.4,0.2-0.6c0.2,0.6,2,1.1,2.5,0.7c0.1-0.1,0.2-0.3,0.2-0.4c-0.1-0.1-0.2-0.2-0.4-0.3c-0.1,0-0.4,0.1-0.4,0
			C25.6,43.9,24.6,44.3,23.8,44.2z"/>
		<path class="st27" d="M28.7,49c0-2.1,0-4.3,0-6.4c0.2,0,0.3,0.1,0.5,0.1c0,2,0,3.9-0.1,5.9c0,0.2-0.2,0.3-0.2,0.5
			C28.9,48.9,28.8,48.9,28.7,49z"/>
		<path class="st15" d="M16.4,44c0.2,0.7,0.6,1.5-0.2,2.1C16.2,45.4,16.3,44.7,16.4,44z"/>
		<path class="st15" d="M16.2,43.2c0.1,0.2,0.2,0.3,0.2,0.5C16.3,43.6,16.2,43.4,16.2,43.2z"/>
		<path class="st7" d="M16.2,47.5c-0.1,0.4-0.2,0.8-0.2,1.2C15.4,48.2,15.7,47.8,16.2,47.5z"/>
		<path class="st2" d="M41.5,53c-0.2-0.3-0.5-0.6-0.7-1c1.8,0,3.7-0.1,5.5-0.1c0.1,0,0.1,0.2,0.2,0.3c0,0.3,0,0.7,0,1
			C44.8,53.1,43.1,53,41.5,53z"/>
		<path class="st24" d="M48.8,53.2c-0.3-0.1-0.6-0.1-0.9-0.2c0.2-0.2,0.3-0.5,0.5-0.7c0-0.1,0-0.2,0-0.3c0.2,0,0.4,0,0.7,0
			c0,0.4,0,0.8,0,1.2l-0.1,0L48.8,53.2z"/>
		<path class="st29" d="M46.5,53.2c0-0.3,0-0.7,0-1c0,0,0.1,0,0.1,0c0.1,0,0.2,0,0.3,0c0.2,0.2,0.5,0.3,0.7,0.5
			c-0.1,0.2-0.3,0.3-0.4,0.5c-0.2,0-0.4,0-0.5,0l-0.1,0L46.5,53.2z"/>
		<path class="st6" d="M49,53.2c0-0.4,0-0.8,0-1.2C49.9,52.4,49.9,52.8,49,53.2z"/>
		<path class="st25" d="M47.6,52.7c-0.2-0.2-0.5-0.3-0.7-0.5c0.1-0.1,0.2-0.3,0.2-0.4c0.2,0,0.3,0,0.5,0c0.1,0.1,0.2,0.2,0.2,0.3
			C47.8,52.3,47.7,52.5,47.6,52.7C47.7,52.7,47.6,52.7,47.6,52.7z"/>
		<path class="st20" d="M47.8,52.1c-0.1-0.1-0.2-0.2-0.2-0.3c0.3,0.1,0.5,0.1,0.8,0.2c0,0.1,0,0.2,0,0.3
			C48.2,52.2,48,52.2,47.8,52.1z"/>
		<path class="st20" d="M47.2,51.8c-0.1,0.1-0.2,0.3-0.2,0.4c-0.1,0-0.2,0-0.3,0C46.8,52.1,47,52,47.2,51.8z"/>
		<path class="st5" d="M36,53.2c0.4,0,0.8,0,1.2,0c-0.1,0.1-0.2,0.2-0.2,0.2C36.7,53.4,36.4,53.3,36,53.2z"/>
		<path class="st29" d="M47.8,52.1c0.2,0.1,0.3,0.1,0.5,0.2c-0.2,0.2-0.3,0.5-0.5,0.7c-0.1-0.1-0.2-0.2-0.3-0.3
			C47.7,52.5,47.8,52.3,47.8,52.1z"/>
		<path class="st20" d="M46.7,53.2c0.2,0,0.4,0,0.5,0C47,53.2,46.8,53.2,46.7,53.2z"/>
		<path class="st5" d="M37.7,53.2c0.2,0,0.3,0,0.5,0C38,53.2,37.9,53.2,37.7,53.2z"/>
		<path class="st5" d="M38.6,53.2c0.2,0,0.3,0,0.5,0C39,53.2,38.8,53.2,38.6,53.2z"/>
		<path class="st5" d="M32,52.4c0.2,0,0.4,0,0.7,0c0.3,0.2,0.7,0.4,1,0.5c0.5,0.1,0.9,0.2,1.4,0.3c-0.9,0.1-1.8,0.1-2.7,0.2
			c-0.7,0.1-0.9-0.3-0.8-0.9C31.7,52.5,31.9,52.5,32,52.4z"/>
		<path class="st16" d="M28.7,49c0.1,0,0.2,0,0.2,0c0.1,0.9,0.2,1.9,0.2,2.8c-0.2,0.2-0.4,0.4-0.5,0.5c-0.1-0.1-0.1-0.2-0.2-0.3
			c0-0.7,0.1-1.4,0.1-2.2C28.7,49.5,28.7,49.2,28.7,49z"/>
		<path class="st22" d="M28.6,49.8c0,0.7-0.1,1.4-0.1,2.2c-0.2,0-0.4,0-0.6,0C28.1,51.3,28.4,50.6,28.6,49.8z"/>
		<path class="st29" d="M20.9,50.6c0.8-0.1,1.7-0.1,2.5-0.2c0.5,0,1.1,0,1.6,0c0.2,0,0.4,0,0.6,0c0.4-0.2,0.7,1,1.1,0.1
			c0.1,0.1,0.4,0.3,0.4,0.4c-0.1,0.3-0.2,0.6-0.3,0.9c-0.9,0-1.9,0-2.8-0.1c-0.2,0-0.4-0.1-0.4-0.2c-0.2-0.7-0.3-0.5-0.6,0
			c-0.1,0.2-0.4,0.2-0.7,0.3c-0.1,0-0.1,0-0.2,0c-0.1-0.1-0.1-0.2-0.2-0.3c0,0.1-0.1,0.2-0.1,0.3c0,0,0,0,0,0c-0.4,0-0.8,0-1.1,0
			C20.8,51.3,20.8,51,20.9,50.6c0.2,0.1,0.3,0.3,0.4,0.4c0.1,0,0.2,0,0.2,0c-0.1-0.1-0.2-0.3-0.2-0.4C21.2,50.6,21,50.6,20.9,50.6z"
			/>
		<path class="st23" d="M22.3,51.8c0.2-0.1,0.6-0.1,0.7-0.3c0.2-0.6,0.3-0.7,0.6,0c0,0.1,0.3,0.2,0.4,0.2c0.9,0,1.9,0.1,2.8,0.1
			c0,0.1,0,0.3,0,0.4C25.3,52.1,23.8,51.9,22.3,51.8z"/>
		<path class="st23" d="M20.7,51.7c0.4,0,0.8,0,1.1,0c-0.4,0.2-0.8,0.3-1.2,0.5C20.7,52.1,20.7,51.9,20.7,51.7z"/>
		<path class="st23" d="M21.8,51.7c0-0.1,0.1-0.2,0.1-0.3c0.1,0.1,0.1,0.2,0.2,0.3C22,51.8,21.9,51.7,21.8,51.7z"/>
		<path class="st12" d="M72.1,49.6c-0.5-0.1-0.9-0.2-1.4-0.4c-0.2-0.1-0.5-0.2-0.7-0.3c0.2-0.2,0.4-0.6,0.6-0.7
			c0.6-0.2,1.2-0.2,1.8-0.2c0.3,0,0.5,0.4,0.8,0.6c-0.3,0.3-0.6,0.7-1,1C72.2,49.6,72.1,49.6,72.1,49.6z"/>
		<path class="st12" d="M69.2,50.6c-0.1-0.2-0.1-0.4-0.2-0.6c0.1,0,0.3,0,0.4,0.1C69.3,50.3,69.3,50.4,69.2,50.6z"/>
		<path class="st12" d="M69.4,50.1c0.2,0.1,0.3,0.2,0.5,0.2C69.7,50.3,69.6,50.2,69.4,50.1z"/>
		<path class="st12" d="M69.9,50.3c0.1,0.1,0.2,0.2,0.3,0.2c-0.1,0.1-0.2,0.1-0.2,0.2C69.9,50.6,69.9,50.5,69.9,50.3z"/>
		<path class="st29" d="M75.1,42.5c0.3,0.6,0.6,1.1-0.5,1c-1.3-0.1-2.5-0.2-3.8,0c-1.1,0.1-1.2-0.3-0.9-1.1c0.8-0.1,1.5-0.3,2.3-0.3
			c0.7,0,1.4,0,2.2,0.1c0.1,0,0.3,0,0.4,0C74.9,42.2,75,42.4,75.1,42.5z"/>
		<path class="st23" d="M74.4,42c-0.7,0-1.4-0.1-2.2-0.1c-0.8,0-1.5,0.2-2.3,0.3c-0.3-0.2-0.6-0.5-1-0.7
			C70.8,41.7,72.6,41.9,74.4,42z"/>
		<path class="st14" d="M76.1,44.3c0.1-0.3,0.1-0.7,0.2-1c0.1,0,0.2,0,0.2-0.1c-0.1,0.4-0.2,0.8-0.2,1.3c0,0-0.1,0-0.1,0
			C76.1,44.4,76.1,44.3,76.1,44.3z"/>
		<path class="st23" d="M75.1,42.5c-0.1-0.2-0.2-0.3-0.3-0.5c0.1,0.1,0.2,0.1,0.3,0.2C75.1,42.4,75.1,42.5,75.1,42.5z"/>
		<path class="st12" d="M27.1,43.4c-0.1,0.1-0.2,0.3-0.3,0.4c-0.2-0.3-0.4-0.7-0.6-1c0.2,0.1,0.4,0.2,0.6,0.2
			C26.9,43.1,27,43.3,27.1,43.4z"/>
		<path class="st23" d="M26.2,42.8c0.2,0.3,0.4,0.7,0.6,1c-0.2,0-0.5,0-0.7-0.1C26.1,43.4,26.2,43.1,26.2,42.8
			C26.2,42.8,26.2,42.8,26.2,42.8z"/>
		<path class="st12" d="M26.2,42.8c0,0.3-0.1,0.6-0.1,0.9c-0.2-0.2-0.4-0.5-0.6-0.7C25.8,42.9,26,42.9,26.2,42.8z"/>
		<path class="st23" d="M27.1,43.4c-0.1-0.1-0.2-0.3-0.3-0.4c0.1,0,0.2,0,0.3,0C27.1,43.2,27.1,43.3,27.1,43.4z"/>
		<path class="st15" d="M77.7,50.1c-0.1-0.4-0.3-0.8-0.4-1.2C77.4,49.3,77.5,49.7,77.7,50.1z"/>
		<path class="st16" d="M55.1,45.8c0,0.9,0.1,1.7,0.1,2.6c0,0.2-0.3,0.5-0.4,0.5c-0.3,0-0.8-0.1-0.8-0.2c-0.1-1.6-0.2-3.1-0.2-4.7
			c0-0.2,0.4-0.5,0.6-0.5c0.2,0,0.5,0.3,0.6,0.6c0.1,0.6,0.1,1.2,0.2,1.9C55.2,45.8,55.1,45.8,55.1,45.8z"/>
		<path class="st12" d="M70.3,47.4c-0.2-0.1-0.7-0.1-0.9-0.4c-0.1-0.2,0-0.7,0.2-1c0.1-0.1,0.6,0,0.9,0c0.9,0,1.9-0.1,2.8-0.1
			c0.3,0,0.5,0.3,0.8,0.4c-0.2,0.2-0.5,0.6-0.7,0.7C72.4,47.2,71.5,47.3,70.3,47.4z"/>
		<path class="st12" d="M23.8,44.2c0.8,0.1,1.8-0.3,2.3,0.8c0,0,0.3-0.1,0.4,0c0.1,0,0.3,0.1,0.4,0.3c0,0.1-0.1,0.3-0.2,0.4
			c-0.5,0.4-2.3-0.2-2.5-0.7c-0.1,0.2-0.2,0.4-0.2,0.6c-0.1-0.3-0.2-0.5-0.4-0.8C23.6,44.5,23.7,44.4,23.8,44.2z"/>
		<path class="st12" d="M25.2,48.2c0.4,0.4,0.8,0.8,1.3,1.3c-0.4,0.1-0.6,0.2-0.7,0.1c-0.5-0.1-1.1-0.6-1.6,0
			c-0.1-0.1-0.2-0.2-0.2-0.3c0.2-0.2,0.3-0.4,0.5-0.5c-0.1-0.1-0.2-0.2-0.3-0.3c-0.1,0.2-0.2,0.4-0.3,0.6c-0.1-0.2-0.3-0.4-0.4-0.7
			c0.4-0.1,0.9-0.2,1.3-0.3c0.1,0.1,0.2,0.2,0.4,0.3C25.1,48.4,25.1,48.3,25.2,48.2z"/>
		<path class="st23" d="M26.1,46.3c-0.1,0.4-0.1,0.8-0.2,1.2c-0.3-0.3-0.6-0.5-1-0.8C25.3,46.6,25.7,46.4,26.1,46.3
			C26.1,46.3,26.1,46.3,26.1,46.3z"/>
		<path class="st12" d="M24.9,46.7c0.3,0.3,0.6,0.5,1,0.8c-0.2,0.1-0.5,0.2-0.7,0.3c-0.2,0.1-0.3,0.1-0.5,0.2
			C24.3,47.5,23.7,46.9,24.9,46.7z"/>
		<path class="st13" d="M23.7,49.1c0.1-0.2,0.2-0.4,0.3-0.6c0.1,0.1,0.2,0.2,0.3,0.3c-0.2,0.2-0.3,0.4-0.5,0.5
			C23.8,49.3,23.8,49.2,23.7,49.1z"/>
		<path class="st23" d="M24.7,48c0.2-0.1,0.3-0.1,0.5-0.2c0,0.1,0,0.3,0,0.4c0,0.1-0.1,0.2-0.1,0.3c-0.1-0.1-0.2-0.2-0.4-0.3
			C24.7,48.1,24.7,48,24.7,48z"/>
		<path class="st23" d="M23.8,44.2c-0.1,0.1-0.2,0.3-0.3,0.4C23.6,44.5,23.7,44.4,23.8,44.2z"/>
		<path class="st23" d="M26.1,46.3C26.1,46.3,26.1,46.3,26.1,46.3C26.1,46.3,26.1,46.3,26.1,46.3C26.1,46.3,26.1,46.3,26.1,46.3z"/>
		<path class="st28" d="M20.9,50.6c0.1,0,0.3,0,0.4,0c0,0.1,0,0.3,0,0.4C21.2,50.9,21,50.7,20.9,50.6C20.9,50.6,20.9,50.6,20.9,50.6
			z"/>
		<path class="st19" d="M21.3,51c0-0.1,0-0.3,0-0.4c0.1,0.1,0.2,0.3,0.2,0.4C21.5,51,21.4,51,21.3,51z"/>
	</g>
</g>
</svg>
