<?xml version="1.0" encoding="utf-8"?>
<!-- Generator: Adobe Illustrator 23.0.2, SVG Export Plug-In . SVG Version: 6.00 Build 0)  -->
<svg version="1.1" id="Layer_1" xmlns="http://www.w3.org/2000/svg" xmlns:xlink="http://www.w3.org/1999/xlink" x="0px" y="0px"
	 viewBox="0 0 360 360" style="enable-background:new 0 0 360 360;" xml:space="preserve">
<style type="text/css">
	.st0{fill:#FEFEFE;}
	.st1{fill:#BE2126;}
	.st2{fill:#CBBDA4;}
	.st3{fill:#A62526;}
	.st4{fill:#E06A51;}
	.st5{fill:#C4292A;}
	.st6{fill:#CA4D39;}
	.st7{fill:#D54134;}
	.st8{fill:#DA2F2C;}
	.st9{fill:#D85C46;}
	.st10{fill:#8A381E;}
	.st11{fill:#FCE7C6;}
	.st12{fill:#951010;}
	.st13{fill:#D92127;}
	.st14{fill:#E5856B;}
	.st15{fill:#E7D9B8;}
	.st16{fill:#5C2410;}
	.st17{fill:#F6F6F5;}
	.st18{fill:#F7CB89;}
	.st19{fill:#E61A22;}
</style>
<g>
	<g>
		<path class="st0" d="M0.7,0.5c120.3,0,240.5,0,360.9,0c0,120.2,0,240.4,0,360.8c-120.2,0-240.6,0-360.9,0
			C0.7,241.1,0.7,120.8,0.7,0.5z M48.9,278.6c0,0-0.1,0.1-0.1,0.1c0.7-0.4,1.4-0.8,2-1.2l0.1,0c2.2-0.1,4.3-0.4,6.5-0.4
			c33.8,0,67.5,0,101.3,0c5,0.1,9.9,0.2,14.9,0.2c34,0,68.1,0,102.1-0.1c1.2,0.3,2.5,0.8,3.7,0.8c12.8,0.1,25.6,0.1,38.4,0.1
			c5.6,1.8,11.2,3.6,16.8,5.4c0.7,0.2,1.4,0.4,2,0.5l0.4,0.2l0.5,0c0.7,0.2,1.4,0.4,2.2,0.6c3.8,0.7,7.6,1.3,12,2.1
			c-0.8-8.5-1.5-16.2-2.2-23.9c0.1-15.7,0.1-31.3,0.2-47c0.2-25,0.5-49.9,0.8-74.9c0-6.7-0.1-13.4-0.1-20.1c0-13,0-25.9,0-39.4
			c-1.9,0.2-3.8,0.3-5.7,0.5c-1.6,0.3-3.3,0.6-4.9,0.9c-1.1,0.3-2.1,0.6-3.2,0.9c-1,0.3-2,0.7-3,1c-4.6,2-9.3,4-13.9,6.1
			c-6.4,0.5-12.9,1-19.3,1.4c-2.8,0-5.5,0-8.3,0.1c-6.6-0.1-13.1-0.2-19.7-0.3c-17.1,0-34.1-0.1-51.2,0c-1.5,0-3,0.6-4.5,1
			c-1.4-0.3-2.8-1-4.3-1c-10.9-0.1-21.8,0-32.7,0c-4.4,0-8.7,0-13.1,0.1c-5.3,0-10.6,0-15.9-0.1c-1,0-2.1,0-3.1,0
			c-5,0-10-0.1-15-0.1c-10.9-0.2-21.8-0.6-32.8-0.7c-13.7-0.2-27.5-0.1-41.2-0.2c-5-1.7-10-3.3-15-5c-2.4-1-4.8-2.1-7.2-3.1
			c-0.6-0.3-1.2-0.6-1.9-0.9c-0.8-0.4-1.5-0.7-2.3-1.1c-4.4-0.5-8.8-1.1-13.1-1.6c-3-0.3-4.1,1.1-4.1,4.1
			c0.1,11.1-0.3,22.3,0.1,33.4c0.5,16,1.6,31.9,2.4,47.8c0,1.1,0.1,2.1,0.1,3.2c0,1.8-0.1,3.7-0.1,5.5c-0.5,24.8-1.1,49.6-1.6,74.4
			c-0.1,1.7-0.2,3.4-0.3,5.1c-2.3,11.2-1.4,22.4-0.4,34.1c2.5-0.4,4.4-0.8,6.3-1.1c0.3,0,0.6,0,0.9-0.1c0.7-0.1,1.3-0.1,2-0.2
			c2-0.2,4.1-0.5,6.1-0.7c1-0.1,2-0.2,2.9-0.3c3-1,5.9-2,8.9-3c1-0.6,2.1-1.1,3.1-1.7c0.7-0.4,1.3-0.7,2-1.1
			C48.1,279.1,48.5,278.8,48.9,278.6z"/>
		<path class="st1" d="M319.7,91.4c4.6-2,9.3-4,13.9-6.1c0.7,6.5,1.8,13,2,19.5c0.6,19.1,1,38.2,1,57.3c0,18.4-0.6,36.9-0.9,55.3
			c-0.4,22.1-0.7,44.2-1.1,66.3c-5.6-1.8-11.2-3.6-16.8-5.4c2.8-1.3,3.6-3.5,3.4-6.5c-0.3-5-0.4-10.1-0.3-15.1
			c0.6-19.7,2-39.3,1.8-59c-0.3-33.2-1.5-66.3-2.3-99.5c-0.2-0.6-0.5-1.2-0.7-1.8C324.1,94.7,322.1,93.1,319.7,91.4z"/>
		<path class="st2" d="M320.5,98.4c0.8,33.2,2,66.3,2.3,99.5c0.2,19.7-1.2,39.3-1.8,59c-0.1,5,0,10.1,0.3,15.1
			c0.2,3-0.7,5.2-3.4,6.5c-12.8,0-25.6,0-38.4-0.1c-1.2,0-2.5-0.5-3.7-0.8c-0.9-1.1-1.8-2.1-2.7-3.2c-1.1-1.2-2.1-2.5-3.2-3.7
			c0.3-0.1,0.6-0.1,1-0.2c5.1-1,10.4-2.4,13.3,4.2c4.6-6,10.8-4.1,16.3-4.1c5.9,0,11.8,0.8,18.2,1.3c0-4.2,0.2-8.3,0-12.4
			c-1.2-23-3.1-46-3.7-69c-0.5-17.8,0.4-35.6,0.8-53.4c0.2-9.6,0.2-19.3,1.3-28.8C317.3,105,315.5,100.2,320.5,98.4z"/>
		<path class="st3" d="M269.8,270.6c1.1,1.2,2.1,2.5,3.2,3.7c-1.8,0.7-3.5,2.1-5.3,2.1c-34.4,0.1-68.9,0.1-103.3,0.1
			c-1.9,0-3.8,0.5-5.8,0.8c-33.8,0-67.5,0-101.3,0c-2.2,0-4.3,0.2-6.5,0.4c0-1.6,0-3.1,0-4.8c1.2-0.2,1.9-0.4,2.5-0.4
			c27.7-0.1,55.4-0.2,83-0.3c0.8,0,1.5-1.2,2.3-1.8c0.6,0,1.3,0,1.9,0c2,1.5,4.1,4.1,6.1-0.1c0.3,0,0.6,0,0.9,0.1
			c2.3,0.7,4.6,1.3,7,2c4.5,3.7,9.3,2.2,14.2,1c1.6,0,3.3,0,4.9,0c5.1,0,10.1,0,15.2-0.1c5.6-0.3,11.3-0.6,16.9-0.9
			c0.3,0.6,0.6,1.6,0.9,1.6c6-0.1,12-0.4,18.1-0.6c7.6,0,15.1,0.1,22.7-0.1c2.1-0.1,4.2-1.2,6.3-1.9c2.7,0,5.3,0,8,0
			c1,0.3,2,0.6,3,1c1.3-0.6,2.7-1.3,4-1.9C269.1,270.5,269.4,270.5,269.8,270.6z M85.4,276.2c0-0.3,0.1-0.6,0.1-0.9
			c-10.8,0-21.7,0-32.5,0c0,0.3,0,0.6,0,0.9C63.8,276.2,74.6,276.2,85.4,276.2z"/>
		<path class="st4" d="M45.7,280.5c-1,0.6-2.1,1.1-3.1,1.7c-0.3-1.8-0.8-3.5-0.9-5.3c-0.1-6.2-0.1-12.3-0.1-18.5c0-0.7,0-1.3,0-2
			c-0.3-6-0.6-12-0.9-18c0.6-11,1.1-22,1.7-33c0.1-6,0.1-12,0.2-18c0-2,0.1-4,0.1-6c0-0.3,0-0.7-0.1-1c0-0.3,0-0.7,0-1
			c0-3.3,0.1-6.6,0.1-9.9c0.6-1.7,1.8-3.4,1.8-5c-0.2-20.9-0.5-41.8-1-62.7c-0.1-3.5-0.7-6.9-1.1-10.4c0.4-0.1,0.9-0.3,1.3-0.4
			c1.9,3.2,3.9,6.3,5.8,9.5c0.3,11.1,0.7,22.1,0.9,33.2c0,1.9-0.6,3.9-0.9,5.8c-1,1.1-2.8,2.2-2.8,3.4c-0.8,20.2-1.7,40.5-2.1,60.7
			c-0.3,21.7-0.1,43.3-0.1,65c0,1.4,0.2,2.9,0.3,4.5c1.5-0.3,2.6-0.5,3.7-0.7C47.7,275.1,46.7,277.8,45.7,280.5z"/>
		<path class="st5" d="M42.8,169.5c0,3.3-0.1,6.6-0.1,9.9c0,0.3,0,0.7,0,1c0.1,0.3,0.1,0.7,0.1,1c0,2-0.1,4-0.1,6
			c-0.1,6-0.1,12-0.2,18c-0.9-1-1.8-1.9-2.8-2.9c-1.1-1.1-2.3-2.1-3.5-3.1c-0.1-2.3-0.1-4.7-0.2-7c0.2-1.6,0.7-3.2,0.7-4.8
			c-0.3-11.3-0.8-22.6-0.9-33.9c-0.2-21.7-0.1-43.3-0.1-65c0-1.7,0.6-3.5,0.8-5.2c2.4,1,4.8,2.1,7.2,3.1c0,0.3,0,0.6,0,0.9l0,0
			c-3-0.2-3.1,1.5-2.9,3.8c0.4,6.1,0.8,12.1,0.9,18.2c0.1,8.4-0.1,16.7,0.1,25.1C41.9,146.2,42.4,157.9,42.8,169.5z"/>
		<path class="st5" d="M150.7,92.6c5.3,0,10.6,0,15.9,0.1c0.5,0.9,1.1,2.6,1.5,2.6c5.3-0.2,10.5-0.6,15.8-0.9
			c0.6-0.3,1.4-0.9,1.8-0.7c6.6,2.7,14-1.5,20.6,2.8c2.3,1.5,6.2,0.6,9.4,0.9c0,0.4-0.1,0.8-0.1,1.3c-18.3,0-36.7,0-55,0
			c-8.7,0-17.3,0-26,0c-2.6,0.3-5.3,0.7-7.9,1c-5.4-0.3-10.7-0.6-16.1-0.9c-1.3-0.3-2.6-0.7-4-1c-1-0.1-2-0.1-3-0.2
			c-1.6-0.1-3.2-0.1-4.8-0.2c-2.9-1.2-5.6-3.1-8.6-3.6c-5.1-0.8-10.4-0.8-15.6-1.1c19.4,0,38.7,0,58.1,0c5,0,10,0.1,15,0.1
			c-5.1,0.5-10.2,1-15.3,1.4c0,0.5,0.1,1,0.1,1.4c5.3,0,10.6,0.1,15.8-0.1C149.1,95.3,149.9,93.5,150.7,92.6z"/>
		<path class="st6" d="M17.7,165.3c-0.8-15.9-1.9-31.9-2.4-47.8c-0.4-11.1,0-22.3-0.1-33.4c0-3,1.1-4.4,4.1-4.1
			c4.4,0.5,8.8,1,13.1,1.6c-0.6,0-1.2,0.1-1.7,0.1c-0.3,1.7-1,3.4-0.9,5.1c0.3,26.2,0.7,52.4,1,78.7c0,5.7,0,11.4-0.1,17
			c-0.5,3-1,6-1.6,9.4c-0.6-1-1-1.7-1.4-2.4c-0.3-2-0.7-4-1-6c0-1,0-2.1,0-3.1c0.7-1.6,1.9-3.2,1.9-4.8c-0.2-30.6-0.6-61.1-1-91.7
			c0-0.6-0.4-1.3-0.7-1.9c-0.9,1.2-1.2,2.2-1.2,3.3c0.3,23.7,0.6,47.5,1,71.2c0,1.3,0.7,2.6,0.7,3.9c0,3.7-0.2,7.3-0.3,11
			c-0.5,0-1-0.1-1.6-0.1c0-11,0-21.9,0-32.9c-0.3-13.6-0.7-27.3-1-40.9c0-4.7,0.1-9.5,0-14.2c0-0.6-1.2-1.2-1.9-1.8
			c-0.4,2.4-0.7,4.7-1.1,7.1c-1.9-0.4-3.9-0.8-5.9-1.3c0,5.7-0.1,11.7,0,17.6C16.3,125,17.1,145.1,17.7,165.3z"/>
		<path class="st5" d="M17.7,165.3c-0.7-20.2-1.4-40.3-2-60.5c-0.2-6,0-11.9,0-17.6c2,0.4,4,0.8,5.9,1.3c0,5.3,0.1,10.6,0.1,15.9
			c0.3,21.7,0.6,43.4,1,65c0,1,0,2,0,3c-1.3,0.3-2.6,0.7-3.9,1c-0.3-1.6-0.6-3.3-0.9-4.9C17.8,167.4,17.8,166.4,17.7,165.3z"/>
		<path class="st5" d="M339.8,83.5c1.6-0.3,3.3-0.6,4.9-0.9c0.3,12.7,0.6,25.3,1,38c0,1.2,1.2,2.4,1.8,3.6c0.9-0.9,1.9-1.8,2.8-2.7
			c0,6.7,0.1,13.4,0.1,20.1c-0.3,1.7-0.7,3.5-0.8,5.2c-0.1,8.9-0.1,17.8-0.2,26.8c-3.2-0.3-3.9,1.6-3.9,4.3c0.1,6.9,0,13.8,0,20.7
			c0,14.3,0,28.6,0,43c-0.3,0-0.7,0-1,0c-0.3-2.4-0.9-4.8-0.8-7.2c0.1-4.3,0.8-8.6,0.8-12.9c-0.3-44.2-0.6-88.4-1-132.5
			c0-1,0.2-2.1-0.2-3c-0.4-0.9-1.4-1.6-2.2-2.4c-0.4,0-0.8,0-1.1,0L339.8,83.5z"/>
		<path class="st4" d="M17.8,168.5c0.3,1.6,0.6,3.3,0.9,4.9c0,4.3,0.1,8.6,0.1,12.9c0,5,0,9.9,0,14.9c0.7,0.1,1.4,0.2,2.1,0.3
			c0.6-1.4,1.6-2.8,1.7-4.3c0.2-3.6,0.1-7.3,0.1-10.9c0-1.7,0-3.3,0.1-5c0.3,1.7,0.9,3.5,0.9,5.2c0.1,18.9,0.1,37.9,0.1,56.8
			c-0.4,14.3-0.7,28.6-1.1,42.9c-0.3,0-0.6,0-0.9,0.1c0-9.7,0-19.3,0-29c0-5.5,0.2-10.9-0.1-16.4c-0.1-1.6-1.4-3.1-2.7-5.7
			c-1.2,5.5-1.9,9.3-2.7,13c0.5-24.8,1.1-49.6,1.6-74.4C17.8,172.1,17.8,170.3,17.8,168.5z"/>
		<path class="st7" d="M42.8,169.5c-0.4-11.7-0.8-23.3-1.1-35c-0.2-8.4,0.1-16.7-0.1-25.1c-0.1-6.1-0.5-12.1-0.9-18.2
			c-0.1-2.3,0-4.1,2.9-3.8c0.1,0.1,0.3,0.2,0.4,0.2c-0.1-0.1-0.3-0.2-0.4-0.2c0-0.3,0-0.6,0-0.9c5,1.7,10,3.3,15,5
			c0,0.3,0,0.6,0.1,0.9c-1.8,0.7-3.9,1.1-5.3,2.3c-0.7,0.7-0.5,4-0.2,4c2.1,0.5,4.3,0.5,6.5,0.7c1.3,0,2.6,0,3.9,0
			c0.7,1,1.4,1.9,2.1,2.9c-2.5,0-5,0.3-7.4-0.1c-2.9-0.4-5.7-1.3-8.6-2c-1.9-3.2-3.9-6.3-5.8-9.5c-0.4,0.1-0.9,0.3-1.3,0.4
			c0.4,3.5,1,6.9,1.1,10.4c0.4,20.9,0.8,41.8,1,62.7C44.6,166.2,43.4,167.9,42.8,169.5z"/>
		<path class="st6" d="M334.6,283.8c0.4-22.1,0.7-44.2,1.1-66.3c0.3-18.4,0.9-36.9,0.9-55.3c0-19.1-0.5-38.2-1-57.3
			c-0.2-6.5-1.3-13-2-19.5c1-0.3,2-0.7,3-1c0,0,0.3,0.3,0.3,0.3c0.2,12.1,0.7,24.2,0.7,36.3c0.1,35.1,0.1,70.3,0.1,105.4
			c-0.4,19.3-0.7,38.6-1.1,57.9C336,284.2,335.3,284,334.6,283.8z"/>
		<path class="st5" d="M349.5,263.4c0.7,7.7,1.4,15.4,2.2,23.9c-4.4-0.8-8.2-1.4-12-2.1c0.3-14.3,0.6-28.5,0.9-42.8
			c0.1-9,0.1-18,0.2-27c0.6,0,1.2,0,1.8,0c0,22.6,0,45.3,0,67.9c1.1-11.6,1.1-23.1,1.1-34.7c0-1.7,0.6-3.5,0.9-5.2
			c0,8.4-0.1,16.8,0.1,25.3c0.1,2.2,1.3,4.4,2,6.6c0.6-2.1,1.4-4.2,1.8-6.4c0.3-1.8,0.1-3.6,0.1-5.4
			C348.9,263.5,349.2,263.5,349.5,263.4z"/>
		<path class="st5" d="M30.7,81.6c0.6,0,1.2-0.1,1.7-0.1c0.8,0.4,1.5,0.7,2.3,1.1c-0.3,7.6-0.8,15.2-0.9,22.8
			c-0.1,18.1,0,36.3-0.1,54.4c0,3.6-0.4,7.2-0.3,10.8c0.1,2.6,0.7,5.2,1.1,7.8c-0.3,2-0.6,4-0.9,6c-0.3,0-0.6,0.1-0.9,0.1
			c-0.7,0-1.3-0.1-2-0.1c0-0.6,0-1.3,0-1.9c0-5.7,0-11.4,0.1-17c0.3-3.4,0.9-6.8,0.9-10.2C31.4,130.7,31,106.1,30.7,81.6z"/>
		<path class="st7" d="M349.5,263.4c-0.3,0-0.5,0.1-0.8,0c0-5.6,0.2-11.1-0.2-16.7c-0.1-1.9-1.8-3.6-2.8-5.4c0-14.3,0-28.6,0-43
			c3.8,0.1,3.6-2.9,3.8-5.2c0.3-4.3,0-8.6,0-12.9c0-1.6,0.1-3.3,0.1-4.9c0-0.6,0-1.3,0-1.9c0-8.9,0.1-17.8,0.2-26.8
			c0-1.7,0.5-3.5,0.8-5.2c-0.3,25-0.5,49.9-0.8,74.9C349.6,232.1,349.5,247.8,349.5,263.4z"/>
		<path class="st5" d="M45.7,280.5c1-2.7,2-5.4,3-8.1c0.3-0.7,0.7-1.3,1-2c0.3,0,0.7,0,1,0c0.7,0,1.4,0,2.1-0.1c1.3,0,2.6,0,3.9-0.1
			c1.3,0,2.7,0.1,4,0.1c3-0.3,6-0.6,9-0.9c1.3,0,2.7,0,4-0.1c1.7,0,3.3,0,5,0c2.3,0,4.7,0.1,7,0.1c6.3,0,12.7-0.1,19-0.1
			c3.3-0.2,6.5-0.8,9.8-0.6c8.1,0.4,16.2,1,24.3,1.6c-0.8,0.6-1.5,1.8-2.3,1.8c-27.7,0.2-55.4,0.2-83,0.3c-0.6,0-1.3,0.2-2.5,0.4
			c0,1.6,0,3.2,0,4.8c0,0-0.1,0-0.1,0c-0.7,0.4-1.4,0.8-2,1.2c0,0,0.1-0.1,0.1-0.1c-0.4,0.3-0.9,0.5-1.3,0.8
			C47,279.8,46.3,280.1,45.7,280.5z"/>
		<path class="st8" d="M350.4,121.5c-0.9,0.9-1.9,1.8-2.8,2.7c-0.6-1.2-1.8-2.4-1.8-3.6c-0.4-12.7-0.7-25.3-1-38
			c1.9-0.2,3.8-0.3,5.7-0.5C350.4,95.6,350.4,108.5,350.4,121.5z"/>
		<path class="st8" d="M21.6,257.5c0,9.7,0,19.3,0,29c-1.9,0.3-3.8,0.7-6.3,1.1c-1-11.7-1.9-22.9,0.4-34.1
			C17.8,254.8,19.7,256.1,21.6,257.5z"/>
		<path class="st9" d="M34.5,178.4c-0.4-2.6-1-5.2-1.1-7.8c-0.1-3.6,0.3-7.2,0.3-10.8c0-18.1-0.1-36.3,0.1-54.4
			c0.1-7.6,0.6-15.2,0.9-22.8c0.6,0.3,1.2,0.6,1.9,0.9c-0.3,1.7-0.8,3.5-0.8,5.2c0,21.7-0.1,43.3,0.1,65c0.1,11.3,0.6,22.6,0.9,33.9
			c0,1.6-0.4,3.2-0.7,4.8c-0.6,0.2-1.3,0.4-1.9,0.6c-0.5-2.8-0.9-5.7-1.4-8.5c0.3,0,0.6-0.1,0.9-0.1
			C36.9,182.8,36.1,180.7,34.5,178.4z"/>
		<path class="st6" d="M30.7,285.5c-2,0.2-4.1,0.5-6.1,0.7c0-0.3,0-0.5,0-0.8c0.4,0,0.7,0,1.1-0.1c0.3,0,0.7,0,1,0
			c0.3-7.4,0.7-14.7,1-22.1c0-1.3-0.2-2.5-0.3-3.8c-0.2,0.2-0.4,0.3-0.6,0.5c-0.1,0.1-0.1,0.3-0.1,0.5c-0.6-1.7-1.3-3.4-1.9-5
			c0-0.3,0-0.7,0-1c0.9-0.9,2.4-1.8,2.5-2.8c0.2-2-0.3-4.2-0.5-6.3c0.3-16,0.7-32,1-48c0.3,0,0.7-0.1,0.8,0.1
			c0.2,0.2,0.2,0.6,0.2,0.9c0,14.6,0,29.2,0,43.8c0,1.7,0.6,3.4,0.9,5.2c0.3,0.6,0.8,1.1,0.8,1.7c-0.2,11.3-0.5,22.5-0.8,33.7
			C29.7,283.7,30.4,284.6,30.7,285.5z"/>
		<path class="st7" d="M41.6,258.4c0,6.2,0,12.3,0.1,18.5c0,1.8,0.6,3.6,0.9,5.3c-3,1-5.9,2-8.9,3c-0.1-0.3-0.1-0.5-0.1-0.8
			c0.1-1.7,0.1-3.3,0.1-5c0.7-5.3,1.3-10.6,2-16C37.6,261.8,39.6,260.1,41.6,258.4z"/>
		<path class="st6" d="M336.6,84.3c1.1-0.3,2.1-0.6,3.2-0.9c0,0,0.4,0.1,0.4,0.1c0.1,9.1,0.3,18.2,0.4,27.2
			c0.3,24.2,0.6,48.5,0.9,72.7c-0.6,0-1.1,0-1.7,0c0-4.2,0-8.3-0.1-12.5c-0.3-27.5-0.7-54.9-1.1-82.4c0-1.3-1.1-2.6-1.7-3.9
			L336.6,84.3z"/>
		<path class="st10" d="M158.7,277.3c1.9-0.3,3.8-0.8,5.8-0.8c34.4-0.1,68.9,0,103.3-0.1c1.8,0,3.5-1.4,5.3-2.1
			c0.9,1.1,1.8,2.1,2.7,3.2c-34,0-68.1,0.1-102.1,0.1C168.6,277.5,163.6,277.4,158.7,277.3z"/>
		<path class="st5" d="M33.6,284.4c0,0.3,0.1,0.5,0.1,0.8c-1,0.1-2,0.2-2.9,0.3c-0.4-0.9-1-1.8-1-2.6c0.2-11.3,0.5-22.5,0.8-33.7
			c0-0.6-0.5-1.1-0.8-1.7c0-3.3,0.1-6.6,0.1-9.9c1.3,0,2.6-0.1,3.9-0.1c0,7-0.1,14-0.1,21c-0.9,1.2-2.7,2.3-2.7,3.5
			c-0.3,6.3-0.3,12.6,0,19C30.9,282.1,32.6,283.2,33.6,284.4z"/>
		<path class="st9" d="M215.8,97.1c-3.2-0.2-7,0.6-9.4-0.9c-6.6-4.3-14.1,0-20.6-2.8c-0.4-0.2-1.2,0.5-1.8,0.7
			c-1.4-0.6-2.8-1.2-4.2-1.7c10.9,0,21.8-0.1,32.7,0c1.4,0,2.8,0.6,4.3,1c1.4,0.4,2.7,0.8,4.1,1.1C219.1,95.5,217.5,96.3,215.8,97.1
			z"/>
		<path class="st1" d="M336.7,284.4c0.4-19.3,0.7-38.6,1.1-57.9c0.6,0,1.2,0,1.8,0c-0.2,5.3-0.5,10.6-0.7,15.9
			c-0.1,12.4-0.1,24.7-0.2,37.1c0,1.7-0.7,3.4-1.1,5.1l-0.5,0L336.7,284.4z"/>
		<path class="st6" d="M21.6,257.5c-1.9-1.3-3.9-2.7-5.8-4c0.1-1.7,0.2-3.4,0.3-5.1c0.8-3.7,1.6-7.5,2.7-13c1.3,2.6,2.6,4.2,2.7,5.7
			C21.8,246.5,21.7,252,21.6,257.5z"/>
		<path class="st6" d="M58.7,92.5c0-0.3,0-0.6-0.1-0.9c13.7,0.1,27.5,0,41.2,0.2c10.9,0.1,21.8,0.4,32.8,0.7c-19.4,0-38.7,0-58.1,0
			c-1.6,0.3-3.3,0.7-4.9,1c-1.4-0.3-2.7-0.6-4.1-0.9C63.3,92.5,61,92.5,58.7,92.5z"/>
		<path class="st5" d="M24.7,254.4c0,0.3,0,0.7,0,1c0,10,0,20,0,30c0,0.3,0,0.5,0,0.8c-0.7,0.1-1.3,0.1-2,0.2
			c0.4-14.3,0.7-28.6,1.1-42.9c0.3,0,0.7,0,1,0c0,0.7,0,1.3,0,2C24.7,248.4,24.7,251.4,24.7,254.4z"/>
		<path class="st4" d="M220.8,94.6c-1.4-0.4-2.7-0.8-4.1-1.1c1.5-0.3,3-1,4.5-1c17.1,0,34.1,0,51.2,0c0.1,0.3,0.1,0.6,0.1,0.9
			c-1.2,1-2.5,2-3.7,3c0.8-1.9,0.7-3-1.9-3c-13.9,0-27.9-0.1-41.8,0C223.6,93.4,222.2,94.2,220.8,94.6z"/>
		<path class="st6" d="M337.5,284.6c0.4-1.7,1-3.4,1.1-5.1c0.1-12.4,0.2-24.7,0.2-37.1c0.6,0,1.2,0,1.8,0
			c-0.3,14.3-0.6,28.5-0.9,42.8C339,285,338.3,284.8,337.5,284.6z"/>
		<path class="st2" d="M272.5,93.4c0-0.3,0-0.6-0.1-0.9c6.6,0.1,13.1,0.2,19.7,0.3c-0.4,0.6-0.8,1.2-1.2,1.8
			c-5.5-2.2-11.7,4.8-17-1.3C273.7,93.2,273,93.4,272.5,93.4z"/>
		<path class="st6" d="M290.9,94.7c0.4-0.6,0.8-1.2,1.2-1.8c2.8,0,5.5,0,8.3-0.1c1.4,0.3,2.8,0.5,4.1,0.8c-1.4,4.5-5.3,1.7-7.8,2.7
			C294.7,95.7,292.8,95.2,290.9,94.7z"/>
		<path class="st10" d="M179.7,92.5c1.4,0.6,2.8,1.2,4.2,1.7c-5.3,0.3-10.5,0.8-15.8,0.9c-0.5,0-1-1.7-1.5-2.6
			C171,92.6,175.4,92.6,179.7,92.5z"/>
		<path class="st3" d="M150.7,92.6c-0.8,1-1.6,2.7-2.5,2.8c-5.3,0.3-10.6,0.1-15.8,0.1c0-0.5-0.1-1-0.1-1.4c5.1-0.5,10.2-1,15.3-1.4
			C148.6,92.6,149.7,92.6,150.7,92.6z"/>
		<path class="st2" d="M304.5,93.6c-1.4-0.3-2.8-0.5-4.1-0.8c6.4-0.5,12.9-1,19.3-1.4c2.5,1.7,4.4,3.3,0.1,5.1
			c-0.9-1.3-1.8-3.8-2.7-3.8C312.9,92.6,308.7,93.2,304.5,93.6z"/>
		<path class="st3" d="M48.8,278.7c0.7-0.4,1.4-0.8,2-1.2C50.1,277.9,49.5,278.3,48.8,278.7z"/>
		<path class="st3" d="M47.7,279.4c0.4-0.3,0.9-0.5,1.3-0.8C48.5,278.8,48.1,279.1,47.7,279.4z"/>
		<path class="st11" d="M304.5,93.6c4.2-0.4,8.4-1,12.5-0.9c0.9,0,1.8,2.5,2.7,3.8c0.2,0.6,0.5,1.2,0.7,1.8c-5,1.8-3.2,6.7-3.6,9.9
			c-1,9.5-1,19.2-1.3,28.8c-0.4,17.8-1.3,35.6-0.8,53.4c0.6,23,2.5,46,3.7,69c0.2,4.1,0,8.2,0,12.4c-6.4-0.5-12.3-1.3-18.2-1.3
			c-5.5,0-11.7-1.9-16.3,4.1c-3-6.6-8.2-5.2-13.3-4.2c-1-2.6-1.7-5.2-3-7.6c-0.7-1.3-2.3-2-3.5-3c-0.2-0.2-0.4-0.5-0.6-0.7
			c3.7,0.5,1.9-2.1,1.6-3.2c-1.8-5.5-3.7-10.9-5.7-16.3c-6.5-18-13-35.9-19.3-54c-0.7-2.1-0.8-4.9-0.1-7
			c8.3-23.7,16.8-47.2,25.2-70.9c0.7-2,0.7-4.2,1.1-6.3c4.1-3.1,8.6-2.7,13.1-1.1c0.9,1,1.7,2.8,2.7,2.8c8.4,0.6,16.8,0.9,25.2,1.1
			c0.9,0,1.8-1.1,2.7-1.6c-0.9-0.7-1.8-2-2.7-2.1c-3.6-0.3-7.3-0.2-10.9-0.2c0-1.4,0-2.7,0-4.1C299.3,95.3,303.1,98.1,304.5,93.6z
			 M286.7,249.6c-0.9,0.3-1.8,0.6-2.7,1c0.9,1.3,1.7,2.7,2.6,4c0.3-0.2,0.7-0.5,1-0.7c-0.3-0.9-0.6-1.8-0.8-2.7
			c0.2-0.9,0.3-1.8,0.5-2.7C287,248.9,286.8,249.2,286.7,249.6z M266.6,198.6c1.5,2.9,2.8,1.5,4.1-0.2l0,0c3.9,2.8,7.9,3.2,12.1,0.7
			c0.6-0.3,1.2-0.6,1.7-1c3.8,3.3,7.9,3.5,12.2,0.9c0.4-1,0.7-2,1.2-3.3c-2.4-0.2-4.3-0.3-6.3-0.5c-0.2-0.3-0.3-0.7-0.5-1
			c2.5-1.4,5-2.9,7.5-4.3c-0.2-0.4-0.4-0.8-0.6-1.2c-1.7-0.2-3.5-0.4-5.2-0.7c-0.1-0.5-0.2-1-0.3-1.5c1.6-0.3,3.2-0.9,4.8-1
			c2.8-0.1,4.4-0.8,3.5-4c-0.2-0.7,0.1-1.5,0.3-2.2c1-4.5,2.2-9,3-13.5c0.1-0.6-1.6-2-2.6-2.2c-1.6-0.4-3.3-0.2-4.9-0.2
			c-0.3,0.1-0.5,0.2-0.8,0.3l0,0c-1.5-0.1-3-0.1-4.4-0.2c-1.4,0-2.9,0-4.2,0c-0.5,2.2-0.9,4.1-1.3,6c-0.3-0.1-0.7-0.1-1-0.2
			c-0.2-1.8-0.3-3.7-0.5-5.9c-3.9,0.3-7.5,0.7-11.1,1c-0.4,0-0.8,0-1.3,0c-4.9-3.5-5.4,2.3-8.3,4c0.2-1.7,0.4-3.1,0.7-5.6
			c-1.9,0.9-4.3,1.3-4.6,2.3c-1.4,4.8-2.3,9.7-3.1,14.6c-0.1,0.7,1,1.6,1.5,2.5c-0.4-0.1-0.9-0.1-1.3-0.2c-0.5,3.4-1.1,6.8-1.6,10.3
			c-0.5,1.3-1.9,3.1-1.5,4.4c0.4,1.2,2.7,1.8,4.3,2.4c0.7,0.3,1.6,0.1,2.5,0.1c0.7-0.3,1.4-0.5,2.1-0.8c0.1-0.2,0.2-0.3,0.4-0.3
			c1.1,0.1,2.2,0.2,3.3,0.3L266.6,198.6z M292,246.4c0.8-2.4,1.5-4.3,2.5-7.1c-3.6,0.6-6.6,1.1-9.7,1.7c0.1,1.9,0.2,3.4,0.3,5
			c1.4,0.2,2.5,0.4,3.7,0.4C289.7,246.5,290.7,246.4,292,246.4z M290.4,254.8c7.8-1.3,7.8-1.3,6.3-6.9
			C290.5,247.3,289.4,248.4,290.4,254.8z M295.7,245.9c6.9,0.5,7.9-0.5,6.9-6c-2.1,0.3-4.2,0.5-6.2,0.8
			C296.1,242.4,295.9,244,295.7,245.9z M304.8,248.9c-5.3-0.1-6.6,1.6-5.8,4.6c0.2,0.8,1.5,1.2,2.3,1.9
			C302.3,253.5,303.3,251.7,304.8,248.9z"/>
		<path class="st10" d="M264.3,259.7c1.2,1,2.8,1.8,3.5,3c1.3,2.4,2,5.1,3,7.6c-0.3,0.1-0.6,0.1-1,0.2c-0.4,0-0.8-0.1-1.1-0.1
			c-0.3-0.1-0.6-0.1-0.9-0.1c-0.4-0.7-0.8-1.3-1.1-2C265.9,265.5,265.1,262.6,264.3,259.7z"/>
		<path class="st9" d="M264.3,259.7c0.8,2.9,1.6,5.8,2.4,8.7c-8-0.7-16.1-1.5-24.1-1.9c-3.3-0.2-6.5,0.8-9.8,0.8
			c-8.9,0.1-17.8,0-26.6,0.2c-0.8,0-1.6,1.2-2.4,1.9c-6.8-0.3-13.5-0.8-20.3-0.8c-7.1,0-14.3,0.5-21.4,0.8
			c-4.8,0.2-9.5,0.6-14.3,0.9c-0.3-0.1-0.6-0.1-0.9-0.1c-2,0-4.1,0-6.1,0.1c-0.6,0-1.3,0-1.9,0c-8.1-0.5-16.2-1.2-24.3-1.6
			c-3.2-0.1-6.5,0.4-9.8,0.6c-4.3-0.3-8.7-0.7-13-1c-0.7-1.5-1.2-4.2-2.1-4.3c-5.8-0.7-11.7-1-17.6-1.1c-1.1,0-2.2,1.5-3.8,2.6
			c1.6,0.9,2.5,1.3,3.2,1.8c0.8,0.6,1.6,1.3,2.3,2c-1.3,0-2.7,0-4,0.1c-3.2-1.1-6.3-2.6-9,0.9c-1.3,0-2.7-0.1-4-0.1
			c0.4-0.9,0.5-2.1,1.1-2.5c5.9-3.6,5.7-3.4,2.1-8.9c-1.3-2-1.4-4.9-2.1-7.4c5.2,6.2,11.5,8.3,19.8,8.3c11.8,0.1,23.5,2.7,35.2,4.2
			c9.3,1.1,18.5,3.9,27.9,1.4c12.6,0,25.3-0.1,37.9-0.1c3.1-0.8,6.3-1.6,9.4-2.5c2-0.6,3.9-2.1,6-2.3c15.2-0.8,30.4-1.2,45.6-2.2
			c7.5-0.5,15-2,22.5-3.1c0.6,1.3,1.2,2.5,1.7,3.8C263.9,259.2,264.1,259.5,264.3,259.7z"/>
		<path class="st1" d="M147.6,270.4c4.8-0.3,9.5-0.7,14.3-0.9c7.1-0.4,14.3-0.8,21.4-0.8c6.8,0,13.5,0.5,20.3,0.8
			c3.3,0,6.7,0,10,0.1c1.7,0,3.3,0,5,0c11.7,0,23.3,0,35,0c0,0.7,0,1.3,0,2c-2.1,0.7-4.2,1.8-6.3,1.9c-7.6,0.2-15.1,0.1-22.7,0.1
			c-6.3-0.3-12.6-0.7-19-1c-5.6,0.3-11.3,0.6-16.9,0.9c-5.1-1.4-10.1-2.3-15.2,0.1c-1.6,0-3.3,0-4.9,0c-4.7-0.3-9.5-0.7-14.2-1
			C152.2,271.7,149.9,271,147.6,270.4z"/>
		<path class="st12" d="M85.4,276.2c-10.8,0-21.6,0-32.3,0c0-0.3,0-0.6,0-0.9c10.8,0,21.7,0,32.5,0
			C85.5,275.6,85.4,275.9,85.4,276.2z"/>
		<path class="st12" d="M205.7,272.4c6.3,0.3,12.6,0.7,19,1c-6,0.2-12,0.5-18.1,0.6C206.3,274,206,273,205.7,272.4z"/>
		<path class="st12" d="M173.6,273.4c5-2.4,10.1-1.4,15.2-0.1C183.7,273.4,178.7,273.4,173.6,273.4z"/>
		<path class="st12" d="M154.6,272.4c4.7,0.3,9.5,0.7,14.2,1C163.9,274.5,159,276,154.6,272.4z"/>
		<path class="st5" d="M253.7,271.4c0-0.7,0-1.3,0-2c2.7,0.3,5.3,0.7,8,1c0,0.3,0,0.6,0,1C259,271.4,256.3,271.4,253.7,271.4z"/>
		<path class="st5" d="M140.6,270.3c2,0,4.1,0,6.1-0.1C144.7,274.5,142.7,271.8,140.6,270.3z"/>
		<path class="st1" d="M261.7,271.4c0-0.3,0-0.6,0-1c1,0,2,0,3,0c0,0.6,0,1.3,0,1.9C263.7,272.1,262.7,271.8,261.7,271.4z"/>
		<path class="st5" d="M264.7,272.4c0-0.6,0-1.3,0-1.9c1,0,2.1-0.1,3.1-0.1c0.3,0,0.6,0,0.9,0.1C267.3,271.1,266,271.8,264.7,272.4z
			"/>
		<path class="st13" d="M49.7,100.4c2.9,0.7,5.7,1.6,8.6,2c2.4,0.3,5,0.1,7.4,0.1c1.7,0,3.3,0,5,0c0.4,0.6,0.9,1.2,1.3,1.8
			c0.6-0.6,1.2-1.2,1.8-1.7c0.6,0,1.2,0,1.9,0c1.6,3.2,3.9,2.1,6.1,0.8c9.7,0,19.3,0,29,0c4.7-0.3,9.3-0.7,14-1c3,0,6.1,0,9.1-0.1
			c0.9,0,1.9,0,2.8,0c3.1-0.6,6.1-1.2,9.2-1.8c5.3,0,10.6-0.1,15.9-0.1c1.6,0.3,3.1,0.9,4.7,0.9c24.4,0.4,48.8,0.7,73.3,1
			c2.7,0,5.4,0,8,0c4.6,0.1,9.3,0.1,13.9,0.2c0.6,0.6,1.2,1.2,1.9,1.8c-8.7,24.6-17.6,49.2-26.1,73.9c-0.9,2.5-0.7,5.8,0.2,8.4
			c6.3,18.6,13,37.1,19.5,55.6c-1.1,0.4-2.2,1-3.3,1.1c-10.1,1.1-20.2,2.1-30.4,3c-8.7,0.8-17.5,1.3-26.2,2
			c-8.7,0.7-17.6,1-26.2,2.3c-3.9,0.6-8.8,2.3-10.8,5.2c-3.5,5.1-7,4.6-11.9,3.6c-6.8-1.4-13.7-2.3-20.5-3.1
			c-4.5-0.5-9.2,0-13.7-0.5c-11.5-1.3-22.9-3.2-34.4-4.5c-8.4-1-17.5-4.5-18.7-14.6c-1.1-9.5-1.7-19.1-2.3-28.7
			c-0.5-8.3-0.6-16.6-1.1-24.9c-0.1-1-1.2-1.9-1.9-2.9c0-0.7,0-1.3,0-2c2.1-5.6-0.9-12.1-6-13c0-8.7,0-17.3-0.1-26
			c0.3-1.9,1-3.9,0.9-5.8C50.3,122.6,50,111.5,49.7,100.4z M78.7,210.4L78.7,210.4c0.3,0.3,0.6,0.6,1,1c2,1.4,4.1,2.9,6.1,4.3
			c-4,0.9-7.9,2.1-12,2.6c-4.6,0.6-7.5,2.8-9.2,7c0,1.7,0,3.4,0,5.1c0.3,2,0.6,4,0.9,6.1c1.7,0.3,3.4,0.7,5.1,1
			c14.6,0.1,29.1,0.2,43.7,0.3c0.8,0.2,1.5,0.4,2.3,0.6c4.6-0.1,9.2-0.2,13.8-0.3c2.6-0.2,5.3-0.3,7.9-0.7c23.5-2.8,45.4-10,65.2-23
			c13.6-9,24-20.6,27.5-37c1.3-5.9,1.6-12.1-3.4-17c-3.3-4-6.7-8-10-12c-2.8-2-5.3-4.3-8.3-6c-9.6-5.5-20.1-8-31-9.2
			c-3.4-0.9-6.9-2.4-10.4-2.6c-17.2-0.6-33.7,2.8-49.6,9c-3.8,1.5-7.3,3.8-10.9,5.7c-1.3,0.6-2.7,1.3-4,1.9
			c-0.3,0.4-0.6,0.7-0.9,1.1c0,0-0.1,0-0.1,0c-1.4,0.4-3,0.6-4.2,1.4c-9.1,6.1-17.7,12.8-23.7,22.2c-4.3,6.7-7,14-6,22.1
			c0.8,6.3,2.8,12.1,9,15.4l0,0C78,209.7,78.4,210.1,78.7,210.4z M195.7,227.9c6.7-4.8,12.5-8.9,18.8-13.5
			C209.2,211.9,197.3,220.6,195.7,227.9z M188.8,230.9c-3.6-3.9-7.8-4.2-12.1-1c-0.8,0.6-0.5,2.8-0.9,4.9
			C180.7,233.4,184.5,232.2,188.8,230.9z"/>
		<path class="st14" d="M49.6,139.4c0,8.7,0,17.3,0.1,26c0,3.7-0.1,7.4-0.1,11c0,8.7,0,17.4,0,26.1c0,22.6,0.1,45.3,0.1,67.9
			c-0.3,0.7-0.7,1.3-1,2c-1.1,0.2-2.2,0.4-3.7,0.7c-0.1-1.7-0.3-3.1-0.3-4.5c0-21.7-0.3-43.3,0.1-65c0.3-20.2,1.2-40.5,2.1-60.7
			C46.9,141.7,48.7,140.6,49.6,139.4z"/>
		<path class="st8" d="M41.6,258.4c-2,1.7-4,3.3-6,5c0-12,0-24,0-36c-0.1-3.7-0.1-7.4-0.2-11.1c0.2-5.6,0.4-11.3,0.7-16.9
			c1.2,1,2.3,2,3.5,3.1c1,0.9,1.9,1.9,2.8,2.9c-0.6,11-1.1,22-1.7,33c-0.3,5.7-0.5,11.4-0.7,17.1c0,0.3,1,0.6,1.6,1
			C41.6,257.1,41.6,257.8,41.6,258.4z"/>
		<path class="st7" d="M41.6,256.4c-0.5-0.3-1.6-0.7-1.6-1c0.2-5.7,0.4-11.4,0.7-17.1C41,244.4,41.3,250.4,41.6,256.4z"/>
		<path class="st7" d="M42.7,187.4c0-2,0.1-4,0.1-6C42.7,183.4,42.7,185.4,42.7,187.4z"/>
		<path class="st7" d="M42.7,180.4c0-0.3,0-0.7,0-1C42.7,179.8,42.7,180.1,42.7,180.4z"/>
		<path class="st15" d="M36.2,199.4c-0.2,5.6-0.4,11.3-0.7,16.9c-0.6-1.3-1.7-2.6-1.7-3.9c-0.1-6.5,0.1-13,0.3-19.5
			c0.6-0.2,1.3-0.4,1.9-0.6C36.1,194.7,36.1,197.1,36.2,199.4z"/>
		<path class="st7" d="M247.7,102.4c-2.7,0-5.4,0-8,0c-24.4-0.3-48.8-0.7-73.3-1c-1.6,0-3.1-0.6-4.7-0.9c-0.3-0.7-0.7-1.3-1-2
			c18.3,0,36.7,0,55,0c12.3,0,24.6,0,36.8,0c1.7,0,3.5,0.6,5.2,0.9c-4.6,0.5-9.2,1-13.8,1.6C245.1,101.4,246.4,101.9,247.7,102.4z"
			/>
		<path class="st1" d="M257.7,99.4c-1.7-0.3-3.5-0.9-5.2-0.9c-12.3-0.1-24.6,0-36.8,0c0-0.4,0.1-0.8,0.1-1.3c1.7-0.8,3.3-1.7,5-2.5
			c1.4-0.4,2.8-1.2,4.2-1.2c13.9,0,27.9,0.1,41.8,0c2.6,0,2.7,1.1,1.9,3c-0.6,0.7-1.3,1.4-1.9,2.1c-0.7,0.3-1.5,0.6-2.2,0.9
			C262.3,99.4,260,99.4,257.7,99.4z"/>
		<path class="st14" d="M110.6,103.4c-9.7,0-19.3,0-29,0c-1-0.4-1.9-0.7-2.9-1.1c-0.1-0.6-0.1-1.3-0.2-1.9c4.1,0.7,6.2-2.1,8.1-5
			c4,0.6,8.1,1.1,12.1,1.7c1.6,0.1,3.2,0.1,4.8,0.2c1,0.1,2,0.1,3,0.2c1.3,0.3,2.6,0.7,4,1c0.7,0.9,1.4,1.8,1.8,2.3
			C111.8,101.7,111.2,102.5,110.6,103.4z"/>
		<path class="st9" d="M98.9,97.2c-4-0.6-8.1-1.1-12.1-1.7c-6.5,0-12.9,0.1-19.4-0.1c-3.6-0.1-6.1,1-7.7,4.2
			c-2.2-0.2-4.4-0.2-6.5-0.7c-0.3-0.1-0.6-3.4,0.2-4c1.4-1.2,3.5-1.6,5.3-2.3c2.3,0,4.6,0,6.9,0c1.4,0.3,2.7,0.6,4.1,0.9
			c1.6-0.3,3.3-0.7,4.9-1c5.2,0.3,10.5,0.3,15.6,1.1C93.2,94.1,96,95.9,98.9,97.2z"/>
		<path class="st4" d="M110.6,103.4c0.6-0.8,1.1-1.6,1.8-2.5c-0.4-0.6-1.1-1.4-1.8-2.3c5.4,0.3,10.7,0.6,16.1,0.9
			c-0.7,1-1.4,2-2.1,3C120,102.7,115.3,103,110.6,103.4z"/>
		<path class="st9" d="M160.7,98.4c0.3,0.7,0.7,1.3,1,2c-5.3,0-10.6,0.1-15.9,0.1c-3.1,0.6-6.1,1.2-9.2,1.8c-0.9,0-1.9,0-2.8,0
			c0.3-1.3,0.6-2.6,0.9-3.9C143.3,98.4,152,98.4,160.7,98.4z"/>
		<path class="st7" d="M134.7,98.4c-0.3,1.3-0.6,2.6-0.9,3.9c-3,0-6.1,0-9.1,0.1c0.7-1,1.4-2,2.1-3C129.4,99.1,132,98.7,134.7,98.4z
			"/>
		<path class="st9" d="M106.7,97.5c-1-0.1-2-0.1-3-0.2C104.7,97.4,105.7,97.5,106.7,97.5z"/>
		<path class="st9" d="M24.7,243.4c-0.3,0-0.7,0-1,0c0-18.9,0-37.9-0.1-56.8c0-1.7-0.6-3.5-0.9-5.2c0-3,0-6-0.1-9c0-1,0-2,0-3
			c0.6,0,1.3,0,1.9,0.1c0,2.1-0.2,4.2,0.2,6.2c0.3,1.6,1.3,3.1,1.9,4.6c0,1,0,2.1,0,3.1c-1,2.2-2.5,4.5,1,6c0.4,0.7,0.8,1.4,1.4,2.4
			c0.6-3.4,1.1-6.4,1.6-9.4c0,0.6,0,1.3,0,1.9c-0.3,17.7-0.6,35.4-0.9,53.2c0,3.3-0.1,6.6-0.1,9.9c-0.3-1.7-0.9-3.4-0.9-5.2
			c-0.1-14.6,0-29.2,0-43.8c0-0.3,0-0.7-0.2-0.9c-0.1-0.2-0.5-0.1-0.8-0.1c-0.7,1-1.9,2-1.9,3c-0.1,12.6,0,25.2-0.1,37.8
			C25.6,240,25,241.7,24.7,243.4z"/>
		<path class="st5" d="M26.7,180.4c-0.7-1.5-1.6-3-1.9-4.6c-0.3-2-0.1-4.2-0.2-6.2c-0.3-10.4-0.6-20.7-0.9-31.1c0.6,0,1.2,0,1.9,0
			c0,11,0,21.9,0,32.9c0.5,0,1,0.1,1.6,0.1c0.1-3.7,0.3-7.3,0.3-11c0-1.3-0.7-2.6-0.7-3.9c-0.4-23.7-0.7-47.5-1-71.2
			c0-1.1,0.3-2.1,1.2-3.3c0.2,0.6,0.6,1.3,0.7,1.9c0.4,30.6,0.7,61.1,1,91.7C28.6,177.2,27.3,178.8,26.7,180.4z"/>
		<path class="st1" d="M30.7,81.6c0.3,24.5,0.7,49.1,1,73.6c0,3.4-0.6,6.8-0.9,10.2c-0.4-26.2-0.7-52.4-1-78.7
			C29.7,85,30.3,83.3,30.7,81.6z"/>
		<path class="st3" d="M25.6,138.4c-0.6,0-1.2,0-1.9,0c0-3.1,0-6.3-0.1-9.4c-0.3-8.2-0.7-16.4-1-24.6c0-2.3,0.1-4.7,0.1-7
			c0.6,0,1.2,0,1.8,0C24.9,111.1,25.3,124.7,25.6,138.4z"/>
		<path class="st5" d="M24.6,97.5c-0.6,0-1.2,0-1.8,0c0-5.3-0.1-10.7-0.1-16c0.6,0.6,1.8,1.2,1.9,1.8C24.7,88,24.6,92.7,24.6,97.5z"
			/>
		<path class="st9" d="M22.7,81.4c0,5.3,0.1,10.7,0.1,16c0,2.3-0.1,4.7-0.1,7c-0.3,0-0.6,0-1,0c0-5.3-0.1-10.6-0.1-15.9
			C22,86.1,22.3,83.8,22.7,81.4z"/>
		<path class="st4" d="M27.7,189.4c-3.5-1.5-2.1-3.8-1-6C27,185.4,27.3,187.4,27.7,189.4z"/>
		<path class="st6" d="M21.7,104.4c0.3,0,0.6,0,1,0c0.3,8.2,0.7,16.4,1,24.6c0.1,3.1,0.1,6.3,0.1,9.4c0.3,10.4,0.6,20.7,0.9,31.1
			c-0.6,0-1.3,0-1.9-0.1C22.4,147.8,22,126.1,21.7,104.4z"/>
		<path class="st7" d="M22.6,172.4c0,3,0,6,0.1,9c0,1.7,0,3.3-0.1,5c-1.3,0-2.5,0-3.8,0c0-4.3-0.1-8.6-0.1-12.9
			C20.1,173.1,21.3,172.7,22.6,172.4z"/>
		<path class="st6" d="M344.7,243.4c-0.3,1.7-0.9,3.5-0.9,5.2c-0.1,11.6,0,23.2-1.1,34.7c0-22.6,0-45.3,0-67.9
			c-0.3-43.3-0.6-86.6-1-129.9c0-0.7-0.2-1.3-0.3-2c0.7,0.8,1.7,1.4,2.2,2.4c0.4,0.8,0.1,2,0.2,3c0.3,44.2,0.7,88.4,1,132.5
			c0,4.3-0.7,8.6-0.8,12.9c0,2.4,0.5,4.8,0.8,7.2C344.7,242.1,344.7,242.7,344.7,243.4z"/>
		<path class="st1" d="M341.3,83.5c0.1,0.7,0.3,1.3,0.3,2c0.3,43.3,0.6,86.6,1,129.9c-0.6,0-1.2,0-1.8,0c0.2-10.6,0.5-21.3,0.7-31.9
			c-0.3-24.2-0.6-48.5-0.9-72.7c-0.1-9.1-0.3-18.2-0.4-27.2C340.6,83.6,340.9,83.6,341.3,83.5z"/>
		<path class="st13" d="M344.7,243.4c0-0.7,0-1.3,0-2c0.3,0,0.7,0,1,0c1,1.8,2.7,3.5,2.8,5.4c0.4,5.5,0.2,11.1,0.2,16.7
			c0,1.8,0.2,3.7-0.1,5.4c-0.4,2.2-1.2,4.3-1.8,6.4c-0.7-2.2-2-4.4-2-6.6C344.5,260.2,344.7,251.8,344.7,243.4z"/>
		<path class="st13" d="M349.5,180.4c0,4.3,0.3,8.6,0,12.9c-0.1,2.2,0,5.3-3.8,5.2c0-6.9,0-13.8,0-20.7c0-2.7,0.7-4.6,3.9-4.3
			c0,0.6,0,1.3,0,1.9C349.5,177.1,349.5,178.7,349.5,180.4z"/>
		<path class="st6" d="M18.9,186.4c1.3,0,2.5,0,3.8,0c0,3.6,0.2,7.3-0.1,10.9c-0.1,1.4-1.1,2.8-1.7,4.3c-0.7-0.1-1.4-0.2-2.1-0.3
			C18.9,196.3,18.9,191.3,18.9,186.4z"/>
		<path class="st4" d="M59.7,99.5c1.6-3.2,4.1-4.3,7.7-4.2c6.4,0.2,12.9,0.1,19.4,0.1c-1.9,2.9-4,5.6-8.1,5c-5-0.3-10-0.6-15-0.9
			C62.3,99.5,61,99.5,59.7,99.5z"/>
		<path class="st9" d="M63.6,99.5c5,0.3,10,0.6,15,0.9c0.1,0.6,0.1,1.3,0.2,1.9c-1.1,0.1-2.1,0.2-3.2,0.2c-0.6,0-1.2,0-1.9,0
			c-1,0-2.1,0-3.1,0c-1.7,0-3.3,0-5,0C65,101.5,64.3,100.5,63.6,99.5z"/>
		<path class="st5" d="M43.7,87.4c0.1,0.1,0.3,0.2,0.4,0.2C43.9,87.6,43.8,87.5,43.7,87.4C43.7,87.4,43.7,87.4,43.7,87.4z"/>
		<path class="st5" d="M339.5,226.4c-0.6,0-1.2,0-1.8,0c0-35.1,0-70.3-0.1-105.4c0-12.1-0.5-24.2-0.7-36.3c0.6,1.3,1.7,2.6,1.7,3.9
			c0.4,27.5,0.8,54.9,1.1,82.4c0.1,4.2,0.1,8.3,0.1,12.5C339.7,197.8,339.6,212.1,339.5,226.4z"/>
		<path class="st9" d="M339.5,226.4c0.1-14.3,0.2-28.7,0.2-43c0.6,0,1.1,0,1.7,0c-0.2,10.6-0.5,21.3-0.7,31.9c-0.1,9-0.1,18-0.2,27
			c-0.6,0-1.2,0-1.8,0C339,237.1,339.3,231.8,339.5,226.4z"/>
		<path class="st6" d="M29.8,237.5c0.3-17.7,0.6-35.4,0.9-53.2c0.7,0,1.3,0.1,2,0.1c0.5,2.8,0.9,5.7,1.4,8.5
			c-0.1,6.5-0.3,13-0.3,19.5c0,1.3,1.1,2.6,1.7,3.9c0.1,3.7,0.1,7.4,0.2,11.1c-0.7,1.1-1.8,2.1-1.9,3.2c-0.3,2.2-0.1,4.5-0.1,6.8
			C32.4,237.5,31.1,237.5,29.8,237.5z"/>
		<path class="st6" d="M34.5,178.4c1.6,2.3,2.4,4.4-0.9,6C33.9,182.4,34.2,180.4,34.5,178.4z"/>
		<path class="st5" d="M349.5,180.4c0-1.6,0.1-3.3,0.1-4.9C349.5,177.1,349.5,178.7,349.5,180.4z"/>
		<path class="st9" d="M49.7,270.4c0-22.6-0.1-45.3-0.1-67.9c1.4-0.3,2.8-0.7,4.1-1c0.7,1.4,1.3,2.7,2,3.9c0,4.3,0,8.7,0.1,13
			c0.3,7.7,0.6,15.4,0.9,23c-1,0.8-2.6,1.4-2.8,2.4c-0.6,3.5-0.8,7.1-1.1,10.7c0.3,4.3,0.6,8.6,0.9,12.9c-0.3,0.7-0.6,1.4-0.9,2
			c-0.5-0.5-1-1.1-1.9-2c-0.1,1.4-0.2,2.2-0.2,3C50.3,270.4,50,270.4,49.7,270.4z"/>
		<path class="st4" d="M73.7,269.4c-0.8-0.7-1.5-1.4-2.3-2c-0.8-0.5-1.6-0.9-3.2-1.8c1.6-1.2,2.8-2.6,3.8-2.6
			c5.9,0.1,11.8,0.4,17.6,1.1c0.9,0.1,1.4,2.8,2.1,4.3c-2,0-4,0-6,0c-2.6-1.3-5.1-2.4-7,1C77,269.4,75.3,269.4,73.7,269.4z"/>
		<path class="st4" d="M52.8,269.5c0.3-0.7,0.6-1.4,0.9-2c1.5-1.6,4.6-3.5,4.3-4.6c-0.8-3.1,0.6-8.3-5.3-8.3
			c0.3-3.6,0.5-7.2,1.1-10.7c0.2-0.9,1.8-1.6,2.8-2.4c0.4,3.3,0.7,6.7,1.1,10c0.7,2.5,0.8,5.4,2.1,7.4c3.6,5.5,3.8,5.3-2.1,8.9
			c-0.6,0.4-0.7,1.7-1.1,2.5c-1.3,0-2.6,0-3.9,0.1C52.7,270,52.7,269.8,52.8,269.5z"/>
		<path class="st6" d="M85.7,268.4c2,0,4,0,6,0c4.3,0.3,8.7,0.7,13,1c-6.3,0-12.7,0.1-19,0.1C85.7,269.1,85.7,268.8,85.7,268.4z"/>
		<path class="st6" d="M60.6,270.4c2.7-3.5,5.9-2,9-0.9C66.7,269.8,63.7,270.1,60.6,270.4z"/>
		<path class="st9" d="M85.7,268.4c0,0.4,0,0.7,0,1.1c-2.3,0-4.7,0-7-0.1C80.6,266.1,83.1,267.1,85.7,268.4z"/>
		<path class="st6" d="M52.8,269.5c0,0.3,0,0.6,0,0.9c-0.7,0-1.4,0-2.1,0.1c0.1-0.8,0.1-1.5,0.2-3C51.8,268.4,52.3,268.9,52.8,269.5
			z"/>
		<path class="st4" d="M24.7,243.4c0.3-1.7,0.9-3.4,0.9-5.2c0.1-12.6,0-25.2,0.1-37.8c0-1,1.2-2,1.9-3c-0.3,16-0.7,32-1,48
			c-0.6,0-1.3,0-1.9,0C24.7,244.7,24.7,244.1,24.7,243.4z"/>
		<path class="st9" d="M24.6,285.4c0-10,0-20,0-30c0.6,1.7,1.3,3.4,1.9,5c-0.3,4.6-0.6,9.3-0.9,13.9c0,3.7,0,7.3,0,11
			C25.4,285.4,25,285.4,24.6,285.4z"/>
		<path class="st5" d="M25.7,274.4c0.3-4.6,0.6-9.3,0.9-13.9c0-0.2,0-0.4,0.1-0.5c0.2-0.2,0.4-0.3,0.6-0.5c0.1,1.3,0.4,2.5,0.3,3.8
			c-0.3,7.4-0.6,14.7-1,22.1C26.4,281.7,26,278.1,25.7,274.4z"/>
		<path class="st9" d="M24.7,245.4c0.6,0,1.3,0,1.9,0c0.2,2.1,0.7,4.2,0.5,6.3c-0.1,1-1.6,1.8-2.5,2.8
			C24.7,251.4,24.7,248.4,24.7,245.4z"/>
		<path class="st7" d="M25.7,274.4c0.3,3.6,0.7,7.3,1,10.9c-0.3,0-0.7,0-1,0C25.7,281.7,25.7,278.1,25.7,274.4z"/>
		<path class="st9" d="M33.6,237.5c0-2.3-0.2-4.6,0.1-6.8c0.2-1.1,1.3-2.2,1.9-3.2c0,12,0,24,0,36c-0.7,5.3-1.3,10.6-2,16
			c-0.1-7-0.1-14-0.2-20.9C33.6,251.5,33.6,244.5,33.6,237.5z"/>
		<path class="st13" d="M33.5,258.4c0.1,7,0.1,14,0.2,20.9c0,1.7-0.1,3.3-0.1,5c-1-1.1-2.7-2.3-2.8-3.4c-0.3-6.3-0.3-12.6,0-19
			C30.9,260.8,32.6,259.6,33.5,258.4z"/>
		<path class="st7" d="M69.7,93.4c-1.4-0.3-2.7-0.6-4.1-0.9C67,92.8,68.3,93.1,69.7,93.4z"/>
		<path class="st15" d="M266.9,98.6c0.6-0.7,1.3-1.4,1.9-2.1c1.2-1,2.5-2,3.7-3c0.5,0,1.2-0.2,1.4,0c5.3,6.1,11.5-1,17,1.3
			c1.9,0.5,3.9,1,5.8,1.6c0,1.4,0,2.7,0,4.1c-5.7,0-11.3,0-17,0c-4.5-1.7-9-2.1-13.1,1.1c-0.3,0-0.6-0.1-0.9-0.2
			c0-0.3,0-0.5,0.1-0.8C266.2,99.9,266.5,99.2,266.9,98.6z"/>
		<path class="st16" d="M260.6,199.2c-0.8,0-1.8,0.2-2.5-0.1c-1.6-0.6-3.9-1.3-4.3-2.4c-0.4-1.3,1-3.2,1.5-4.4
			c0.6-3.5,1.1-6.9,1.6-10.3c0.4,0.1,0.9,0.1,1.3,0.2c-0.5-0.8-1.6-1.8-1.5-2.5c0.8-4.9,1.7-9.8,3.1-14.6c0.3-1,2.7-1.4,4.6-2.3
			c-0.3,2.5-0.5,3.9-0.7,5.6c2.9-1.7,3.4-7.5,8.3-4c-6,7-6.3,9.2-1.7,14.4c1-5,2-9.7,2.9-14.3c3.6-0.3,7.2-0.6,11.1-1
			c0.2,2.2,0.4,4.1,0.5,5.9c0.3,0.1,0.7,0.1,1,0.2c0.4-1.9,0.8-3.8,1.3-6c1.3,0,2.7,0,4.2,0c-1.1,5.5-2.1,11-3.3,16.9
			c-1.8-0.1-3.4-0.2-4.8-0.2c-0.3-2.1-0.6-3.8-1.1-7c-1.4,3.7-2.2,6-3.1,8.4c2.4,0.2,5,0.3,8.9,0.6c-3.4,4.7-6.1,8.6-8.8,12.4
			c1.9,1.5,6.1-1.3,5.3,3.5c-0.6,0.3-1.2,0.6-1.7,1c-3.3-0.3-6.5-0.5-11.1-0.9c3.2-4.5,6-8.4,8.9-12.6c-2.6-0.3-4.7-0.5-7.1-0.8
			c-0.9,4.5-1.9,9-2.8,13.5c0,0,0,0,0,0c-1.4,0.1-2.7,0.1-4.1,0.2c0,0-0.2-0.1-0.2-0.1c1.1-5.6,2.2-11.2,3.4-17.2
			c-1.6,0-2.9,0-4.1,0c-0.6-0.3-1.1-0.5-1.7-0.8c0.4,0.5,0.9,0.9,1.3,1.4c0.6,1.4,1.1,2.7,1.7,4.1c-0.3,0.3-0.6,0.6-0.9,1
			c-1.7-0.7-3.4-1.4-6.3-2.6c0.8,1.8,0.9,3.2,1.7,3.8c5.3,4.1,5.4,4.7,1.6,10c-0.2-0.1-0.4,0-0.4,0.3
			C262,198.7,261.3,198.9,260.6,199.2z"/>
		<path class="st16" d="M265.7,101.3c0.3,0.1,0.6,0.1,0.9,0.2c-0.3,2.1-0.4,4.3-1.1,6.3c-8.4,23.6-16.9,47.2-25.2,70.9
			c-0.7,2.1-0.7,4.9,0.1,7c6.3,18,12.8,36,19.3,54c1.9,5.4,3.9,10.8,5.7,16.3c0.4,1.1,2.1,3.7-1.6,3.2c-0.6-1.3-1.2-2.5-1.7-3.8
			c-1-2.4-2-4.8-3.1-7.2c-0.6-1.9-1.3-3.8-1.9-5.7c-6.5-18.5-13.2-37-19.5-55.6c-0.9-2.6-1.1-5.9-0.2-8.4
			c8.5-24.7,17.4-49.3,26.1-73.9c0.2-0.6,0.4-1.1,0.6-1.7C264.6,102.2,265.1,101.8,265.7,101.3z"/>
		<path class="st16" d="M296.7,163.4c1.7,0,3.4-0.2,4.9,0.2c1,0.3,2.7,1.6,2.6,2.2c-0.8,4.5-2,9-3,13.5c-0.2,0.7-0.5,1.5-0.3,2.2
			c0.9,3.2-0.8,3.9-3.5,4c-1.6,0.1-3.2,0.6-4.8,1c0.1,0.5,0.2,1,0.3,1.5c1.7,0.2,3.5,0.4,5.2,0.7c0.2,0.4,0.4,0.8,0.6,1.2
			c-2.5,1.4-5,2.9-7.5,4.3c0.2,0.3,0.3,0.7,0.5,1c1.9,0.2,3.9,0.3,6.3,0.5c-0.5,1.3-0.8,2.3-1.2,3.3c-3.4-0.2-6.9-0.3-11-0.5
			c2.8-6,0.5-13.3,6.6-17.8c-2.8-4.7-1.2-12.1,3.6-16.9c0,0,0,0,0,0C296.2,163.8,296.5,163.7,296.7,163.4z"/>
		<path class="st15" d="M295.9,163.7c-4.9,4.9-6.5,12.3-3.6,16.9c-6.1,4.5-3.7,11.8-6.6,17.8c4.1,0.2,7.6,0.4,11,0.5
			c-4.3,2.7-8.3,2.5-12.2-0.9c0.8-4.8-3.3-2-5.3-3.5c2.7-3.8,5.5-7.7,8.8-12.4c-4-0.2-6.5-0.4-8.9-0.6c0.9-2.5,1.8-4.7,3.1-8.4
			c0.5,3.2,0.7,4.9,1.1,7c1.5,0.1,3,0.1,4.8,0.2c1.1-5.9,2.2-11.4,3.3-16.9C293,163.6,294.4,163.6,295.9,163.7z"/>
		<path class="st17" d="M279.7,100.4c5.7,0,11.3,0,17,0c3.6,0,7.3-0.1,10.9,0.2c1,0.1,1.8,1.4,2.7,2.1c-0.9,0.6-1.8,1.7-2.7,1.6
			c-8.4-0.2-16.8-0.5-25.2-1.1C281.4,103.2,280.6,101.4,279.7,100.4z"/>
		<path class="st2" d="M270.7,198.4c0.9-4.5,1.9-9,2.8-13.5c2.4,0.3,4.6,0.5,7.1,0.8c-3,4.2-5.7,8.1-8.9,12.6
			c4.6,0.4,7.8,0.6,11.1,0.9C278.6,201.7,274.6,201.2,270.7,198.4z"/>
		<path class="st15" d="M265.7,181.4c1.3,0,2.5,0,4.1,0c-1.2,6-2.3,11.6-3.4,17.2c-1.1-0.1-2.2-0.2-3.3-0.3c3.8-5.4,3.6-6-1.6-10
			c-0.8-0.6-0.9-2-1.7-3.8c2.9,1.2,4.6,1.9,6.3,2.6c0.3-0.3,0.6-0.6,0.9-1c-0.6-1.4-1.1-2.7-1.7-4.1
			C265.4,181.7,265.6,181.6,265.7,181.4z"/>
		<path class="st14" d="M292,246.4c-1.3,0-2.3,0.1-3.3,0c-1.1-0.1-2.3-0.3-3.7-0.4c-0.1-1.6-0.2-3.1-0.3-5c3.1-0.5,6.1-1,9.7-1.7
			C293.5,242.1,292.8,244.1,292,246.4z"/>
		<path class="st14" d="M290.4,254.8c-1-6.4,0.1-7.5,6.3-6.9C298.2,253.5,298.2,253.5,290.4,254.8z"/>
		<path class="st15" d="M273.4,164.4c-1,4.7-1.9,9.3-2.9,14.3c-4.6-5.1-4.3-7.3,1.7-14.4C272.6,164.4,273,164.4,273.4,164.4z"/>
		<path class="st4" d="M295.7,245.9c0.2-1.9,0.5-3.4,0.7-5.2c2-0.3,4.1-0.5,6.2-0.8C303.6,245.4,302.6,246.4,295.7,245.9z"/>
		<path class="st14" d="M304.8,248.9c-1.5,2.7-2.5,4.6-3.5,6.5c-0.8-0.6-2.1-1.1-2.3-1.9C298.2,250.5,299.5,248.8,304.8,248.9z"/>
		<path class="st14" d="M286.7,251.2c0.3,0.9,0.6,1.8,0.8,2.7c-0.3,0.2-0.7,0.5-1,0.7c-0.9-1.3-1.7-2.7-2.6-4c0.9-0.3,1.8-0.6,2.7-1
			C286.7,250.1,286.7,250.7,286.7,251.2z"/>
		<path class="st2" d="M266.6,198.6c1.4-0.1,2.7-0.1,4.1-0.2C269.4,200.1,268.1,201.6,266.6,198.6z"/>
		<path class="st15" d="M260.6,199.2c0.7-0.3,1.4-0.5,2.1-0.8C262,198.7,261.3,198.9,260.6,199.2z"/>
		<path class="st10" d="M286.7,251.2c0-0.5,0-1.1,0-1.6c0.2-0.4,0.4-0.8,0.5-1.1C287,249.4,286.8,250.3,286.7,251.2z"/>
		<path class="st15" d="M296.7,163.4c-0.2,0.3-0.4,0.4-0.8,0.3C296.2,163.6,296.4,163.5,296.7,163.4z"/>
		<path class="st6" d="M267.8,270.4c-1,0-2.1,0.1-3.1,0.1c-1,0-2,0-3,0c-2.7-0.3-5.3-0.7-8-1c-11.7,0-23.3,0-35,0c-1.7,0-3.3,0-5,0
			c-3.3,0-6.7,0-10-0.1c0.8-0.6,1.6-1.8,2.4-1.9c8.9-0.2,17.8,0,26.6-0.2c3.3-0.1,6.6-1,9.8-0.8c8.1,0.4,16.1,1.3,24.1,1.9
			C267,269.1,267.4,269.7,267.8,270.4z"/>
		<path class="st8" d="M257,242.3c0.6,1.9,1.3,3.8,1.9,5.7c-5.9,1.1-11.7,2.7-17.6,3.3c-9.8,1-19.6,1.3-29.4,2.1
			c-5.1,0.4-10.1,1.6-15.2,1.7c-9.1,0.2-14-2.2-18.1,10.1c-12.6,0-25.3,0.1-37.9,0.1c-2-1-4-2.6-6.1-2.9c-8.9-1-17.8-1.4-26.7-2.3
			c-11.6-1.2-23.3-2.7-34.9-3.8c-6.6-0.6-12.4-5.3-13.3-11.9c-0.9-7.2-1.3-14.5-2.1-21.7c-0.2-1.5-1.2-3-1.9-4.5c0-4.3,0-8.7-0.1-13
			c0.3-1.2,1-2.5,0.9-3.7c-0.2-7.1-0.6-14.2-0.9-21.3c0.7,1,1.8,1.9,1.9,2.9c0.5,8.3,0.6,16.6,1.1,24.9c0.6,9.6,1.2,19.2,2.3,28.7
			c1.2,10.1,10.2,13.7,18.7,14.6c11.5,1.3,22.9,3.2,34.4,4.5c4.5,0.5,9.2,0,13.7,0.5c6.9,0.8,13.8,1.7,20.5,3.1
			c4.8,1,8.4,1.5,11.9-3.6c2-2.9,6.9-4.6,10.8-5.2c8.6-1.3,17.5-1.6,26.2-2.3c8.7-0.7,17.5-1.3,26.2-2c10.1-0.9,20.3-1.9,30.4-3
			C254.9,243.3,255.9,242.6,257,242.3z"/>
		<path class="st7" d="M178.6,265.3c4.1-12.3,9.1-9.9,18.1-10.1c5.1-0.1,10.1-1.3,15.2-1.7c9.8-0.8,19.7-1.1,29.4-2.1
			c5.9-0.6,11.7-2.2,17.6-3.3c1,2.4,2,4.8,3.1,7.2c-7.5,1.1-15,2.6-22.5,3.1c-15.2,1-30.4,1.4-45.6,2.2c-2,0.1-3.9,1.6-6,2.3
			C184.9,263.7,181.7,264.5,178.6,265.3z"/>
		<path class="st7" d="M55.7,218.4c0.6,1.5,1.7,2.9,1.9,4.5c0.8,7.2,1.2,14.5,2.1,21.7c0.9,6.6,6.8,11.3,13.3,11.9
			c11.7,1.1,23.3,2.6,34.9,3.8c8.9,0.9,17.8,1.3,26.7,2.3c2.1,0.2,4,1.9,6.1,2.9c-9.5,2.4-18.6-0.3-27.9-1.4
			c-11.8-1.5-23.5-4-35.2-4.2c-8.4-0.1-14.6-2.2-19.8-8.3c-0.4-3.3-0.7-6.7-1.1-10C56.3,233.8,56,226.1,55.7,218.4z"/>
		<path class="st5" d="M213.7,269.5c1.7,0,3.3,0,5,0C217,269.5,215.3,269.5,213.7,269.5z"/>
		<path class="st16" d="M103.5,147.2c1.3-0.6,2.7-1.3,4-1.9c2.5,0.1,4.9,0.2,7.4,0.4c0.9-0.1,1.8-0.1,2.7-0.2c2,4.6,4.4,0.4,6.6,0.3
			c5.1,0.2,10.2,0.3,15.4,0.5c0.1,0.4,0.2,0.9,0.3,1.3c-1.4,2-2.9,3.9-4,6c-0.8,1.5-0.9,3.3-1.3,4.9c-1.3,0-2.6-0.4-3.7-0.1
			c-1.3,0.4-2.5,1.3-3.3,2.3c-0.3,0.4,0.3,2.2,0.9,2.4c1.2,0.5,3.4,1,3.9,0.4c1.1-1.4,1.5-3.4,2.2-5.1c4.6-3.7,9.8-2.1,15.3-2.1
			c-0.3,2.6-0.5,4.5-0.6,6c1.4,1.1,2.5,2,3.7,2.9c-1.8,4-1.2,9.8-7.9,10.4c3.3,1,6.2,1.7,7.1-2.8c0.5-2.4,1.1-4.8,1.7-7.2
			c2-5.3,4.1-10.5,5.8-15.8c0.9-2.6,2.1-3.8,5-3.6c3.5,0.2,6.9,0.1,10.7,0.1c0,1.8,0,3.1,0,4.4c1.2-0.1,2.2-0.2,3.2-0.3
			c0,0.3,0,0.5,0.1,0.8c-0.8,0.8-1.6,1.6-2.3,2.5c-0.2,0.1-0.3,0.2-0.3,0.4c-0.4,0.5-0.8,1-1.1,1.4c-1.6,2.5-3.3,5-4.9,7.4
			c-0.5-0.3-1.1-0.5-1.6-0.8c1.4-4.5,2.8-9,4.3-13.7c-1.3,0-2.1,0-2.9,0c-3.7,0.8-7.7,0.4-9.3,5.5c-3.6,12.3-7.7,24.4-11.5,36.6
			c-1.4,4.7-2.9,9.4-4.3,14c8.7,1,8.7,1,11.5-7.3c1.4-4.2,2.9-8.4,4.3-12.6c0.4,0.1,0.8,0.1,1.2,0.2c1.3,6.5,2.6,12.9,4,19.5
			c3.1,0,6.3,0,9.7,0c-1.1-4.7-2-9.2-3.1-13.6c-3.5-13.9-3.5-13.9,5.9-25c3.1-3.7,6.3-7.3,9.3-11.1c1-1.2,1.6-2.7,2.3-4.1
			c0-0.7,0-1.4,0-2.1c0.4,0,0.8-0.1,1.1-0.1c0.4-0.2,0.7-0.4,1.1-0.6c0.3-0.4,0.6-0.9,0.8-1.3c1.2,0.2,2.4,0.3,3.8,0.5
			c-0.6,1.5-1,2.6-1.4,3.7l-0.3,0.2c-0.2,0.2-0.4,0.5-0.7,0.7c-0.1,0.1-0.2,0.2-0.3,0.4l-0.4,0.1l-0.1,0.5c-0.1,0.2-0.3,0.3-0.4,0.5
			c-0.3,0.5-0.7,1-1,1.5c-1.7,2.1-3.4,4.2-5.2,6.3c4.6,1.1,8.5,2,12.1,2.9c1.6-2.3,3.4-4.8,5.1-7.3c0.3,0.4,0.6,0.8,0.9,1.2
			c-1.9,4.6-3.7,9.2-5.7,13.7c-0.3,0.6-1.5,0.9-2.3,1.3c-0.4-2.2,0.1-5.4-1.3-6.5c-3.3-2.8-13.6,0.2-16.5,5c2.5-0.2,4.4-0.3,6.3-0.4
			c1.2-0.1,2.4-0.1,3.7-0.1c-0.5,1.3-1.1,2.7-1.1,2.7c-4.4,1.3-7.7,2.3-11.1,3.3c-0.7,1.6-1.4,3.2-2.2,4.7c-1.7,3.5-1,9.8,1.2,10.1
			c4.5,0.6,9,0.8,13.4,1.2c1.1-2.5,2.1-4.7,3.2-6.9c1-2.1,2.2-4.1,3.3-6.1c0.6,3.1,1.2,6.1,1.8,9.2c2.2,3.4,5.6,3.7,8.8,2.5
			c4.6-1.6,6.5-5.7,6.4-11.3c-2.5,1.5-4.9,2.9-8.4,5c1.4-4.5,2.4-8.3,3.7-12c0.2-0.6,1.3-1.3,1.9-1.2c4.6,0.7,4.9-2.6,5.7-6.1
			c-1.8,0.1-3.3,0.3-4.8,0.4c0.2-2.8,0.4-5.6,0.6-8.4c1.4-3.3,2.7-1.6,3.2,0.3c0.4,1.6-0.2,3.4-0.4,5.3c1.3,0.1,2.4,0.2,3.6,0.3
			c0.4,1,1.4,2.4,1.1,3.1c-3.4,6.1-2,12.5-1.4,18.8l0,0.1c-0.2,0.4-0.5,0.8-0.7,1.3c-1.9,2.3-3.9,4.6-5.8,6.9
			c-6.1,1.3-12.1,2.2-16.8-3.6c-0.6,1.4-0.9,3.2-1.5,3.3c-5.6,0.8-11.3,1.2-17.3,1.8c0.1,1,0.3,2.3,0.5,3.5c0.6,1.9,1.2,3.9,1.8,5.8
			c0.4,0.4,0.7,0.8,1.1,1.1c0,0.7-0.1,1.3-0.1,2c-5,0-10,0.1-15,0.1c-1-4.8-2-9.5-3.2-15.2c-1.8,5.2-3,9.5-4.7,13.5
			c-0.5,1.2-2.2,2.5-3.4,2.5c-3.7,0-7.4-0.6-11.1-1.1c-0.1,0,0-2.1,0.3-3.1c0.9-3.2,2-6.4,3.4-10.6c-6.9,3.4-12,2-16.3-4.6
			c0.4,8.9-5.8,5.6-9.7,7c0.6,4.2,1.3,8.4,1.9,12.5c-0.4,0-0.7,0-1.1,0.1c-4-0.4-7.9-0.8-12.3-1.3c-1-3.8-2.2-8.1-3.4-12.4
			c-0.4,0-0.8,0-1.2,0c-1.2,4.4-2.5,8.7-3.7,13.1c-1.3,0.4-2.7,0.7-4,1.1c-2.7,0.2-5.4,0.4-8,0.5c-1.1-0.7-2.2-1.3-3.2-2
			c0-1-0.1-2-0.1-3c0.3-0.7,0.6-1.4,1-2.1c0.3-0.6,0.7-1.3,1-1.9c0.5-1.6,0.9-3.3,1.4-4.9c3.3-9.8,6.6-19.5,9.8-29.3
			c0.2-1,0.5-2,0.7-3c0,0,0,0,0,0c0.3-0.4,0.6-0.8,0.9-1.1c0.1-0.9,0.2-1.9,0.3-2.8l0,0.1c0.3-0.4,0.5-0.7,0.8-1.1
			c0.1-0.6,0.2-1.3,0.3-1.9c0,0-0.1,0-0.1,0c0.3-0.3,0.6-0.7,0.9-1c0.3-1.3,0.6-2.6,0.9-3.9c0.3-1.1,0.7-2.1,1-3.2c0,0,0.1,0,0.1,0
			C102.9,148,103.2,147.6,103.5,147.2z M135.1,166.8c-0.8-0.1-1.7-0.2-2.5-0.3c-2,0-3.9,0.1-5.9,0.1c-2.9,7.3-5.9,14.6-8.8,21.9
			c0.6,1,1,2.7,1.9,3c4.6,1.5,6.4-1.7,7.8-5.2c1.1,0.3,2.1,0.7,3.2,1c2.5,3.8,6.1,5.4,10.3,3.7c4.3-1.7,6.6-5.3,6.7-11.5
			c-3.2,1.6-5.6,2.8-8.8,4.4c1.3-4.1,2.1-7.3,3.3-10.3c0.4-0.9,1.9-1.4,2.8-2c1.8-1.2,3.5-2.4,5.3-3.6c-0.3-0.4-0.6-0.8-0.9-1.2
			c-1.6-0.2-3.1-0.4-4.9-0.7c0.8-2.6,1.4-5,2.2-7.6c-1.2,0-2.2,0-3.1,0C137.8,158.1,136.4,162.5,135.1,166.8z M87.4,203.3
			c0.1,0.4,0.1,0.8,0.2,1.3c8.7,0.8,8.7,0.8,11.4-7c0.7-2,1.3-4.1,2.1-6.1c0.8-2.3,1.7-4.5,3.1-8c1,5.5,1.8,9.3,2.5,13.2
			c0.2,0.9,0.4,1.8,0.6,2.7c0.1,0.5,0.2,1,0.3,1.5c0.2,0.8,0.3,1.7,0.5,2.5c0.2,0.4,0.4,0.9,0.6,1.3c0.3,0.1,0.6,0.2,0.9,0.4
			c2.8-0.1,5.6-0.3,8.7-0.4c-1.8-8.2-3.5-16.1-5.4-24c-0.7-3-0.4-5.2,1.8-7.6c5.4-6,10.5-12.2,15.7-18.5c1.1-1.3,1.8-2.9,3-4.9
			c-5.2-0.2-9.3-1.7-12.3,3.7c-2,3.6-5.8,6.3-8.7,9.4c-0.4-0.2-0.8-0.5-1.2-0.7c1.5-4.4,2.9-8.8,4.5-13.5c-1.4,0-2.2,0-3,0
			c-5.1,0.2-8.7,1.5-9.9,7.5c-1.4,7-4.2,13.6-6.5,20.4C93.3,185.3,90.4,194.3,87.4,203.3L87.4,203.3z M121.6,171.5
			c-3.1,3.6-9.3,6.3-4.5,12.7C118.7,179.8,120.1,175.7,121.6,171.5z"/>
		<path class="st10" d="M65.6,236.5c-0.3-2-0.6-4-0.9-6.1c4.9-0.3,9.7-0.7,14.6-1c5.6-0.4,11.1-0.9,16.7-1.3
			c3.9-0.3,7.9-0.7,11.8-0.7c3.6,0,7.2,0.9,10.8,0.8c1.4-0.1,2.8-1.9,4.2-2.9c0.6,0.3,1.1,0.6,1.7,0.9c0.9,1.7,1.7,3.5,3.1,6.1
			c5.1-5.3,9.8-10.1,14.4-15c0.9-0.7,1.9-1.4,2.8-2.1c0,1.3,0.1,2.6,0.1,4c-0.3,0.9-0.5,1.8-0.8,2.7c-0.2,0-0.4,0.1-0.4,0.3
			c-3.2,3.2-6.4,6.3-9.6,9.5c-0.4,0.9-0.9,1.7-1.3,2.6c-0.6,0-1.3,0.1-1.9,0.1c-2.5,0.3-4.9,0.7-7.4,0.8
			c-17.6,0.4-35.2,0.7-52.9,1.1C68.9,236.4,67.2,236.5,65.6,236.5z"/>
		<path class="st18" d="M211,193.5c1.9-2.3,3.9-4.6,5.8-6.9c0.2-0.4,0.5-0.8,0.7-1.3c0,0,0-0.1,0-0.1c4.8-2.7,2.5-7.9,4.2-11.8
			c0.9-2.4,3-5.2,2.4-7.1c-1.7-5.5-4.6-10.7-6.9-16.1c-0.2-0.5,0.3-1.3,0.4-1.9c3.3,4,6.7,8,10,12c3,8.9,2.5,17.5-1.5,26
			c-5.7,12.1-15.2,20.4-26.5,27.1c-0.5-2.5-0.7-5.3-4.4-4.9c-0.6,0-1.1,0-1.7,0c0-1,0-2.1,0-3.1c4.3-3.1,8.7-6.1,13-9.2
			C208.1,195.3,209.5,194.4,211,193.5z"/>
		<path class="st10" d="M119.7,208.5c0.4,0,0.7,0,1.1-0.1c0,0,0.4,0,0.4,0s0.4,0.1,0.4,0.1c2.3,0.3,4.6,0.6,6.9,0.8
			c0,0,0.2,0.2,0.2,0.2c-0.7,1.6-1.3,3.1-2,4.7c-1.5,1.8-3,3.5-4.5,5.3c-8.7,0.9-17.5,1.8-26.2,2.7c-10.4,1.1-20.9,2.2-31.3,3.2
			c1.7-4.1,4.6-6.4,9.2-7c4-0.5,8-1.7,12-2.6c2.7-0.3,5.3-0.7,8-1c-2.6-2-4.7-3.6-6.8-5.2c2.7-0.2,5.4-0.4,8-0.5
			c4.2,5.2,9.5,4,14.8,2.5C113.2,210.5,116.5,209.5,119.7,208.5z"/>
		<path class="st4" d="M217.7,148.4c-0.2,0.6-0.6,1.4-0.4,1.9c2.3,5.4,5.2,10.5,6.9,16.1c0.6,1.9-1.6,4.7-2.4,7.1
			c-0.4-1.1-1.1-2.1-1.1-3.2c-0.1-5.8,0.8-11.9-5-15.8c0,0,0,0,0,0c-0.4-0.7-0.9-1.3-1.3-2c-3-2.6-5.8-5.5-9-7.7
			c-10.8-7.2-23.5-7.2-35.7-9.3c-4.6,0-9.4-0.7-13.8,0.3c-12.8,2.9-25.4,6.4-38.1,9.7c-0.9,0.1-1.8,0.1-2.7,0.2
			c1.1-1,1.9-2.5,3.2-2.9c12.1-3.3,24.3-6.4,36.4-9.5c1.4-0.2,2.9-0.5,4.3-0.7c6.5,0.2,13,0.4,19.6,0.6c10.9,1.3,21.4,3.7,31,9.2
			C212.3,144.1,214.9,146.4,217.7,148.4z"/>
		<path class="st12" d="M199.7,213.5c11.3-6.6,20.8-15,26.5-27.1c4-8.5,4.5-17.1,1.5-26c5,4.9,4.7,11.1,3.4,17
			c-3.5,16.4-13.9,28.1-27.5,37c-19.8,13.1-41.7,20.2-65.2,23c-2.6,0.3-5.3,0.4-7.9,0.7c0.1-1.2,0.2-2.4,0.4-3.6
			c0.6,0,1.3-0.1,1.9-0.1c0.7-0.2,1.4-0.3,2.1-0.5c1.9-0.2,3.8-0.4,5.8-0.7c0.4,0,0.8,0,1.2,0c5.3-1,10.6-1.9,15.9-2.9
			c4.7-1.4,9.4-2.8,14-4.2c4.7-1.6,9.3-3.2,14-4.9c3-1.6,6-3.3,9-4.9c0.5-0.1,1-0.2,1.5-0.3c0.8-0.6,1.7-1.1,2.5-1.7
			c0,0-0.1,0.1-0.1,0.1C199,214.1,199.4,213.7,199.7,213.5L199.7,213.5z"/>
		<path class="st16" d="M64.7,225.3c10.4-1.1,20.9-2.2,31.3-3.2c8.7-0.9,17.5-1.8,26.2-2.7c0.1,0.7,0.2,1.3,0.3,2
			c0.1,1.3,0.1,2.6,0.2,3.9c-1.4,1-2.8,2.8-4.2,2.9c-3.6,0.2-7.2-0.7-10.8-0.8c-3.9,0-7.9,0.4-11.8,0.7c-5.6,0.4-11.1,0.9-16.7,1.3
			c-4.9,0.4-9.7,0.7-14.6,1C64.6,228.7,64.6,227,64.7,225.3z"/>
		<path class="st4" d="M87.1,209.5c2.1,1.6,4.2,3.2,6.8,5.2c-2.7,0.3-5.4,0.7-8,1c-2-1.4-4.1-2.9-6.1-4.3c-0.3-0.3-0.7-0.7-1-1
			c0,0,0.1,0,0.1,0c-0.3-0.3-0.7-0.7-1-1c0,0,0,0,0,0c-2-5.3-5.1-10.5-5.8-15.9c-2-15.8,15.8-34.9,29.6-41.9
			c-0.3,1.3-0.6,2.6-0.9,3.9c-0.3,0.3-0.6,0.7-0.9,1c0,0,0.1,0,0.1,0c-0.7,0-1.5-0.2-1.9,0.1c-10.7,7.4-19.4,16.5-22,29.8
			c-0.6,3.1,1,6.6,1.5,9.9c1.4,2.7,2.9,5.4,4.3,8.2l0,0c0.7,1,1.4,2.1,2.1,3.1C84.9,208.1,86,208.8,87.1,209.5z"/>
		<path class="st12" d="M101.5,151.6c-13.8,7.1-31.6,26.1-29.6,41.9c0.7,5.5,3.8,10.6,5.8,15.9c-6.2-3.3-8.2-9.1-9-15.4
			c-1-8.1,1.7-15.3,6-22.1c6-9.4,14.5-16.2,23.7-22.2c1.2-0.8,2.8-0.9,4.2-1.4C102.2,149.4,101.9,150.5,101.5,151.6z"/>
		<path class="st12" d="M154.5,133.3c-12.1,3.2-24.3,6.2-36.4,9.5c-1.2,0.3-2.1,1.9-3.2,2.9c-2.5-0.1-5-0.2-7.4-0.4
			c3.6-1.9,7.1-4.2,10.9-5.7c15.9-6.3,32.4-9.7,49.6-9c3.5,0.1,6.9,1.7,10.3,2.6c-6.5-0.2-13-0.4-19.6-0.6
			C157.4,132.8,156,133,154.5,133.3z"/>
		<path class="st7" d="M55.7,180.4c0.3,7.1,0.7,14.2,0.9,21.3c0,1.2-0.6,2.4-0.9,3.7c-0.6-1.2-1.2-2.5-2-3.9c-1.4,0.3-2.8,0.7-4.1,1
			c0-8.7,0-17.4,0-26.1c2,0.7,4.1,1.3,6.1,2C55.7,179.1,55.7,179.8,55.7,180.4z"/>
		<path class="st16" d="M130.8,234.5c-0.1,1.2-0.2,2.4-0.4,3.6c-4.6,0.1-9.2,0.2-13.8,0.3c-0.8-0.2-1.5-0.4-2.3-0.6
			c-14.6-0.1-29.1-0.2-43.7-0.3c0-0.4-0.1-0.7-0.1-1.1c17.6-0.4,35.2-0.7,52.9-1.1C125.9,235.3,128.4,234.8,130.8,234.5z"/>
		<path class="st10" d="M195.7,227.9c1.6-7.3,13.5-16.1,18.8-13.5C208.2,219,202.4,223.1,195.7,227.9z"/>
		<path class="st8" d="M55.7,178.4c-2-0.7-4.1-1.3-6.1-2c0-3.7,0.1-7.4,0.1-11C54.8,166.3,57.7,172.8,55.7,178.4z"/>
		<path class="st10" d="M188.8,230.9c-4.3,1.3-8,2.4-13,3.9c0.3-2.1,0-4.3,0.9-4.9C180.9,226.7,185.2,227,188.8,230.9z"/>
		<path class="st4" d="M265.7,101.3c-0.6,0.5-1.1,0.9-1.7,1.4c-0.8,0-1.6-0.1-2.4-0.1c-4.6-0.1-9.3-0.1-13.9-0.2
			c-1.3-0.5-2.5-1-3.8-1.5c4.6-0.5,9.2-1,13.8-1.6c2.3,0,4.7,0,7,0c0.4,0.4,0.8,0.7,1.1,1.1C265.7,100.8,265.7,101,265.7,101.3z"/>
		<path class="st7" d="M136.6,102.3c3.1-0.6,6.1-1.2,9.2-1.8C142.7,101.1,139.6,101.7,136.6,102.3z"/>
		<path class="st7" d="M75.6,102.5c1.1-0.1,2.1-0.2,3.2-0.2c1,0.4,1.9,0.7,2.9,1.1C79.4,104.6,77.2,105.7,75.6,102.5z"/>
		<path class="st12" d="M70.6,236.4c0,0.4,0.1,0.7,0.1,1.1c-1.7-0.3-3.4-0.7-5.1-1C67.2,236.5,68.9,236.4,70.6,236.4z"/>
		<path class="st7" d="M70.6,102.5c1,0,2.1,0,3.1,0c-0.6,0.6-1.2,1.2-1.8,1.7C71.5,103.7,71.1,103.1,70.6,102.5z"/>
		<path class="st7" d="M261.6,102.6c0.8,0,1.6,0.1,2.4,0.1c-0.2,0.6-0.4,1.1-0.6,1.7C262.8,103.8,262.2,103.2,261.6,102.6z"/>
		<path class="st12" d="M114.4,237.8c0.8,0.2,1.5,0.4,2.3,0.6C115.9,238.2,115.2,238,114.4,237.8z"/>
		<path class="st12" d="M78.7,210.4c0.3,0.3,0.7,0.7,1,1C79.4,211,79,210.7,78.7,210.4z"/>
		<path class="st12" d="M103.5,147.2c-0.3,0.4-0.6,0.7-0.9,1.1C102.9,148,103.2,147.6,103.5,147.2z"/>
		<path class="st12" d="M77.7,209.4c0.3,0.3,0.7,0.7,1,1C78.4,210.1,78,209.7,77.7,209.4z"/>
		<path class="st7" d="M265.8,100.5c-0.4-0.4-0.8-0.7-1.1-1.1c0.7-0.3,1.5-0.6,2.2-0.9C266.5,99.2,266.2,99.9,265.8,100.5z"/>
		<path class="st14" d="M52.7,254.5c5.8,0.1,4.5,5.2,5.3,8.3c0.3,1.1-2.8,3-4.3,4.6C53.4,263.1,53,258.8,52.7,254.5z"/>
		<path class="st15" d="M265.3,181.9c-0.4-0.5-0.9-0.9-1.3-1.4c0.6,0.3,1.1,0.5,1.7,0.8C265.6,181.6,265.4,181.7,265.3,181.9z"/>
		<path class="st17" d="M169.6,148.4c0.8,0,1.6,0,2.9,0c-1.5,4.7-2.9,9.2-4.3,13.7c0.5,0.3,1.1,0.5,1.6,0.8c1.6-2.5,3.3-5,4.9-7.4
			c0.4-0.5,0.8-1,1.1-1.4c0.1-0.2,0.2-0.3,0.3-0.4c0.8,0,1.6-0.1,2.4-0.1c2.5-3.6,6.3-3.3,10-3.3c0.3,0.1,0.6,0.1,0.9,0.1
			c-0.8,1.4-1.4,2.9-2.3,4.1c-3,3.8-6.2,7.4-9.3,11.1c-9.4,11.1-9.4,11.1-5.9,25c1.1,4.4,2.1,8.9,3.1,13.6c-3.3,0-6.6,0-9.7,0
			c-1.3-6.5-2.6-13-4-19.5c-0.4-0.1-0.8-0.1-1.2-0.2c-1.4,4.2-2.9,8.4-4.3,12.6c-2.8,8.3-2.8,8.3-11.5,7.3c1.4-4.6,2.9-9.3,4.3-14
			c1.1-1.1,2.9-2.1,3.3-3.5c3.1-8.9,5.7-17.9,8.8-26.8c1.5-4.3,1.4-10.2,8.3-10.4C169.4,149.8,169.5,148.9,169.6,148.4z"/>
		<path class="st17" d="M108.7,204.5c-0.2-0.4-0.4-0.9-0.6-1.3c-0.2-0.8-0.3-1.7-0.5-2.5c-0.1-0.5-0.2-1-0.3-1.5
			c-0.2-0.9-0.4-1.8-0.6-2.7c-0.7-3.9-1.5-7.7-2.5-13.2c-1.4,3.5-2.3,5.8-3.1,8c-0.7,2-1.4,4-2.1,6.1c-2.7,7.8-2.7,7.8-11.4,7
			c-0.1-0.4-0.1-0.8-0.2-1.3c0,0,0-0.1,0-0.1c1.1-0.9,2.8-1.7,3.2-2.9c4.8-13.9,9.4-27.9,14.2-41.8c1.3-3.8,1.5-8.8,7.5-8.7
			c0.1,0,0.2-0.9,0.4-1.4c0.8,0,1.6,0,3,0c-1.6,4.7-3,9.1-4.5,13.5c0.4,0.2,0.8,0.5,1.2,0.7c3-3.1,6.8-5.7,8.7-9.4
			c3-5.4,7.1-3.9,12.3-3.7c-1.2,2-1.9,3.6-3,4.9c-5.2,6.2-10.3,12.5-15.7,18.5c-2.2,2.4-2.6,4.6-1.8,7.6c1.9,7.9,3.5,15.8,5.4,24
			c-3.1,0.1-5.9,0.3-8.7,0.4C109.4,204.7,109.1,204.5,108.7,204.5z"/>
		<path class="st1" d="M169.6,135.5c12.2,2.1,24.9,2.1,35.7,9.3c3.3,2.2,6,5.1,9,7.7c0.4,0.7,0.9,1.3,1.3,2c0,0,0,0,0,0
			c0.7,3,1.4,5.9,2.2,8.9c-1.1-0.1-2.2-0.2-3.6-0.3c0.2-1.9,0.8-3.8,0.4-5.3c-0.5-2-1.8-3.6-3.2-0.3c-0.6,0-1.2,0.1-1.7,0.1
			c-1.7,0-3.3-0.1-5-0.1c-0.3-0.4-0.6-0.8-0.9-1.2c1.7-0.4,3.3-0.8,5.4-1.3c-3.7-3.1-7.1-6.1-10-8.5c-1.7,1.6-3,2.8-4.3,4
			c0.4-1.1,0.8-2.1,1.4-3.7c-1.4-0.2-2.6-0.3-3.8-0.5c-1.3-0.8-2.6-1.7-3.9-2.5c-9.6-0.5-19.1-1-28.7-1.5c-0.5,0-0.9,0-1.4,0.1
			c-6.3,1.3-12.6,2.7-18.9,4c-5.1-0.2-10.2-0.3-15.4-0.5c8.9-2.5,17.8-5.3,26.8-7.4C157.1,136.9,163.4,136.4,169.6,135.5z"/>
		<path class="st19" d="M121.7,208.5l-0.4-0.1c0,0-0.4,0-0.4,0c-0.6-4.1-1.2-8.3-1.9-12.5c3.9-1.4,10.1,1.9,9.7-7
			c4.4,6.6,9.4,8,16.3,4.6c-1.3,4.1-2.4,7.3-3.4,10.6c-0.3,1-0.4,3.1-0.3,3.1c3.7,0.5,7.4,1.1,11.1,1.1c1.2,0,2.9-1.4,3.4-2.5
			c1.7-4.1,2.9-8.3,4.7-13.5c1.2,5.7,2.2,10.5,3.2,15.2c-0.2,1-0.2,2.7-0.6,2.8c-2.6,0.5-5.2,0.9-7.8,0.7c-1.8-0.1-3.4-1.1-2.5,1.9
			c-0.7,0.2-1.5,0.3-2.2,0.5c-0.4-0.1-0.8-0.2-1.3-0.4c0.4,0.1,0.8,0.2,1.3,0.4c-1,0.2-2.1,0.5-3.1,0.7c-0.6-3.9-2.5-0.5-3.8-0.7
			c-1.3,0-2.7-0.1-4-0.1c-0.3-0.4-0.7-0.7-1-1.1c-1-0.9-2-1.9-3-2.8l-0.1-0.1c-1.6-0.8-3.2-2.4-4.9-2.3
			C127.8,207,124.7,207.9,121.7,208.5z"/>
		<path class="st17" d="M188.9,170.4c-1.2,0-2.4,0-3.7,0.1c-1.9,0.1-3.7,0.2-6.3,0.4c2.9-4.8,13.3-7.8,16.5-5
			c1.3,1.1,0.9,4.3,1.3,6.5c-0.4,2.3-0.7,4.7-1,7c-1.1,2-2.3,4-3.3,6.1c-1.1,2.2-2,4.4-3.2,6.9c-4.4-0.4-8.9-0.6-13.4-1.2
			c-2.3-0.3-3-6.6-1.2-10.1c0.8-1.6,1.5-3.2,2.2-4.7c3.8,0.3,7.6,0.5,11.8,0.8C188.5,175.3,193,173.3,188.9,170.4z"/>
		<path class="st19" d="M152.9,165.2c-1.2-0.9-2.3-1.8-3.7-2.9c0.2-1.5,0.4-3.4,0.6-6c-5.5,0-10.7-1.6-15.3,2.1l0,0
			c0.4-1.7,0.6-3.4,1.3-4.9c1.1-2.1,2.7-4,4-6c2.3-0.3,4.6-0.6,6.9-0.8c8.1-0.8,16.1-1.9,24.2-2.1c3.2-0.1,6.4,1.7,9.6,2.7
			c-0.1,0.3-0.2,0.7-0.4,1c-0.2,0.3-0.3,0.5-0.4,0.8c-0.4,0.4-0.9,0.8-1.3,1.1c-1,0.1-2,0.2-3.2,0.3c0-1.3,0-2.6,0-4.4
			c-3.7,0-7.2,0.2-10.7-0.1c-2.9-0.2-4.1,1-5,3.6c-1.8,5.3-3.9,10.6-5.8,15.8C153.5,165.4,153.2,165.3,152.9,165.2z"/>
		<path class="st17" d="M143.7,158.5c0.9,0,1.9,0,3.1,0c-0.8,2.6-1.4,4.9-2.2,7.6c1.8,0.2,3.3,0.5,4.9,0.7c0.3,0.4,0.6,0.8,0.9,1.2
			c-1.8,1.2-3.5,2.4-5.3,3.6c-1,0.7-2.5,1.1-2.8,2c-1.2,3-2,6.2-3.3,10.3c3.3-1.6,5.6-2.8,8.8-4.4c-0.1,6.2-2.4,9.8-6.7,11.5
			c-4.2,1.7-7.8,0.1-10.3-3.7c0-1.9,0.1-3.9,0.1-5.8c0.4,1.3,0.9,2.7,1.2,3.5C136.4,176.6,134.8,165.4,143.7,158.5z"/>
		<path class="st17" d="M209.7,157.6c0.6,0,1.2-0.1,1.7-0.1c-0.2,2.8-0.4,5.6-0.6,8.4c1.5-0.1,3-0.2,4.8-0.4
			c-0.8,3.5-1.1,6.8-5.7,6.1c-0.6-0.1-1.7,0.6-1.9,1.2c-1.2,3.7-2.3,7.4-3.7,12c3.5-2.1,5.9-3.5,8.4-5c0.1,5.7-1.7,9.7-6.4,11.3
			c-3.2,1.2-6.6,0.9-8.8-2.5c0.3-0.8,0.9-1.5,1-2.3c2-9.9,2.8-20.3,11-27.8C209.8,158.4,209.7,157.9,209.7,157.6z"/>
		<path class="st19" d="M194.9,150.5c1.3-1.2,2.6-2.4,4.3-4c2.8,2.4,6.3,5.4,10,8.5c-2.1,0.5-3.7,0.9-5.4,1.3
			c-1.8,2.5-3.5,5-5.1,7.3c-3.6-0.9-7.5-1.8-12.1-2.9c1.8-2.1,3.5-4.2,5.2-6.3c0.3-0.5,0.7-1,1-1.5c0.1-0.2,0.3-0.3,0.4-0.5
			c0.2-0.1,0.4-0.3,0.5-0.6c0.1-0.1,0.2-0.3,0.3-0.4c0.2-0.2,0.4-0.5,0.7-0.7C194.6,150.7,194.9,150.5,194.9,150.5z"/>
		<path class="st14" d="M180.6,147.4c-3.2-1-6.4-2.8-9.6-2.7c-8.1,0.2-16.1,1.3-24.2,2.1c-2.3,0.2-4.6,0.5-6.9,0.8
			c-0.1-0.4-0.2-0.9-0.3-1.3c6.3-1.3,12.6-2.7,18.9-4c0.5,0,0.9,0,1.4-0.1c9.6,0.5,19.1,1,28.7,1.5c0,1.3,0.1,2.6,0.1,3.8
			C186,147.5,183.3,147.5,180.6,147.4z"/>
		<path class="st17" d="M126.7,166.6c2,0,3.9-0.1,5.9-0.1c-1.7,6.6-3.4,13.2-5.1,19.8c-1.4,3.5-3.2,6.7-7.8,5.2
			c-0.9-0.3-1.3-2-1.9-3c0.8,0.1,2.4,0.3,2.4,0.2C122.5,181.4,124.6,174,126.7,166.6z"/>
		<path class="st1" d="M150.7,213.4c0.7-0.2,1.5-0.3,2.2-0.5c-1-3,0.7-2.1,2.5-1.9c2.6,0.2,5.2-0.2,7.8-0.7c0.3-0.1,0.4-1.8,0.6-2.8
			c5,0,10-0.1,15-0.1c0.2,0.1,0.3,0.2,0.5,0.3c-0.9,0.6-1.8,1.3-2.8,1.7c-6,2.3-12.1,4.6-18.2,6.9c-4,1-8,2-12,3c-0.4,0-0.9,0-1.3,0
			c0-1.3-0.1-2.6-0.1-3.9c-0.3-0.6-0.7-1.3-1-1.9c1.3,0.3,3.2-3.2,3.8,0.7C148.6,213.9,149.6,213.7,150.7,213.4L150.7,213.4z"/>
		<path class="st2" d="M112.6,148.4c-0.1,0.5-0.2,1.4-0.4,1.4c-6,0-6.2,4.9-7.5,8.7c-4.8,13.9-9.4,27.9-14.2,41.8
			c-0.4,1.2-2.1,1.9-3.2,2.9c2.9-8.9,5.9-17.9,8.8-26.8c2.2-6.8,5-13.5,6.5-20.4C104,149.9,107.6,148.6,112.6,148.4z"/>
		<path class="st19" d="M96.9,166.3c-3.3,9.8-6.6,19.5-9.9,29.3c-0.5-3.7-1-7.3-1.4-11c0-1.4,0-2.8,0-4.2c0-0.3,0.1-0.6,0.1-1
			c0.6-0.7,1.3-1.4,1.9-2c1.9-2.9,3.8-5.7,5.7-8.6c-0.4-0.2-0.7-0.4-1.1-0.6c-1.9,1-3.8,2.1-5.7,3.1c2.6-2.7,5.2-5.5,7.9-8.2
			c0.2,0.2,0.4,0.4,0.6,0.6C93.6,166.2,94.5,166.8,96.9,166.3z"/>
		<path class="st18" d="M94.4,163.1c-2.6,2.7-5.2,5.5-7.9,8.2c0,0,0.1,0.1,0.1,0.1c-0.4,0.6-0.8,1.2-1.2,1.8l0,0
			c-0.6,0.7-1.2,1.5-1.8,2.2l0,0c-6.2,5.7-6.9,13.1-6.2,20.9c-0.6-3.3-2.1-6.8-1.5-9.9c2.5-13.3,11.2-22.4,22-29.8
			c0.4-0.3,1.3-0.1,1.9-0.1c-0.1,0.6-0.2,1.3-0.3,1.9c-0.3,0.4-0.5,0.7-0.8,1.1c0,0,0-0.1,0-0.1C97.3,160.7,95.8,161.9,94.4,163.1z"
			/>
		<path class="st2" d="M169.6,148.4c-0.1,0.5-0.2,1.4-0.4,1.4c-6.9,0.2-6.8,6.1-8.3,10.4c-3.1,8.9-5.7,17.9-8.8,26.8
			c-0.5,1.4-2.2,2.3-3.3,3.5c3.9-12.2,7.9-24.3,11.5-36.6C161.9,148.8,165.9,149.2,169.6,148.4z"/>
		<path class="st13" d="M119.7,208.5c-3.3,1-6.6,2-9.9,3c-3.6-1.2-7.2-2.4-10.8-3.6c1.2-4.4,2.5-8.7,3.7-13.1c0.4,0,0.8,0,1.2,0
			c1.2,4.3,2.3,8.6,3.4,12.4C111.8,207.7,115.8,208.1,119.7,208.5z"/>
		<path class="st12" d="M211,193.5c-1.5,0.9-2.9,1.9-4.4,2.8c-0.9,0-1.9,0.1-2.8,0.1c-1.7-0.3-3.3-0.6-5-1c-2.3,1.5-4.5,2.9-6.8,4.4
			c0,0,0,0.1,0,0.1c-1,0.6-2,1.3-3,1.9l-0.2-0.2c0,0,0.2,0.3,0.2,0.3c-1.7,1-3.3,2-5,2.9l-0.1,0c-0.6,0.4-1.3,0.7-1.9,1.1l0.1,0.2
			c-1.1-0.2-2.1-0.3-3.2-0.5c-0.4-0.4-0.7-0.8-1.1-1.1c4.2-2.3,8.4-4.5,13.8-7.4c-4.6-0.6-7.6-1-10.5-1.5c-2.6-0.4-4.4,0.4-5.1,3.1
			c-0.2-1.3-0.3-2.5-0.5-3.5c5.9-0.6,11.6-1.1,17.3-1.8c0.6-0.1,0.9-1.9,1.5-3.3C198.8,195.6,204.9,194.8,211,193.5z"/>
		<path class="st12" d="M85.7,179.4c0,0.3-0.1,0.6-0.1,1c-4.7,4.3-5.6,12.5-2,17.2c0.1,0.2,0.1,0.5,0.1,0.7c0.3,1.4,0.6,2.8,0.9,4.2
			c-0.3,0.7-0.6,1.4-1,2.1c-0.7,0-1.4,0-2-0.1c0,0,0,0,0,0c-0.2-1.1-0.3-2.3-0.8-3.3c-2.8-5.6-2.6-11.2-0.4-16.9
			c1.1-2.9,2-5.9,3-8.8c0,0,0,0,0,0c0.6-0.7,1.2-1.5,1.8-2.2c0,0,0,0,0,0c0.4-0.6,0.8-1.2,1.2-1.8c0,0-0.1-0.1-0.1-0.1
			c1.9-1,3.8-2.1,5.7-3.1c0.4,0.2,0.7,0.4,1.1,0.6c-1.9,2.9-3.8,5.7-5.7,8.6C87,178.1,86.3,178.7,85.7,179.4z"/>
		<path class="st15" d="M209.7,157.6c0,0.3,0.1,0.8-0.1,1c-8.3,7.4-9.1,17.8-11,27.8c-0.2,0.8-0.7,1.5-1,2.3
			c-0.6-3.1-1.2-6.1-1.8-9.2c0.3-2.3,0.7-4.7,1-7c0.8-0.4,2-0.6,2.3-1.3c2-4.5,3.8-9.1,5.7-13.7C206.4,157.5,208,157.6,209.7,157.6z
			"/>
		<path class="st18" d="M169.6,135.5c-6.2,0.9-12.4,1.4-18.5,2.8c-9,2.1-17.9,4.9-26.8,7.4c-2.2,0.1-4.6,4.3-6.6-0.3
			c12.7-3.3,25.3-6.9,38.1-9.7C160.1,134.8,164.9,135.5,169.6,135.5z"/>
		<path class="st14" d="M217.8,163.4c-0.7-3-1.4-5.9-2.2-8.9c5.8,4,4.9,10,5,15.8c0,1.1,0.7,2.1,1.1,3.2c-1.7,3.8,0.6,9-4.2,11.8
			c-0.7-6.3-2-12.7,1.4-18.8C219.2,165.8,218.2,164.4,217.8,163.4z"/>
		<path class="st19" d="M175.9,198.6c0.7-2.7,2.5-3.5,5.1-3.1c2.9,0.5,5.8,0.8,10.5,1.5c-5.4,2.9-9.6,5.1-13.8,7.4
			C177.1,202.4,176.5,200.5,175.9,198.6z"/>
		<path class="st2" d="M143.7,158.5c-8.9,6.9-7.3,18.1-11.7,26.6c-0.3-0.9-0.7-2.2-1.2-3.5c1.4-4.9,2.8-9.8,4.3-14.7
			C136.4,162.5,137.8,158.1,143.7,158.5z"/>
		<path class="st2" d="M126.7,166.6c-2.1,7.4-4.2,14.8-6.4,22.1c-0.1,0.2-1.6-0.1-2.4-0.2C120.8,181.2,123.8,173.9,126.7,166.6z"/>
		<path class="st10" d="M135.1,166.8c-1.4,4.9-2.8,9.8-4.3,14.7c0,1.9-0.1,3.9-0.1,5.8c-1.1-0.3-2.1-0.7-3.2-1
			c1.7-6.6,3.4-13.2,5.1-19.8C133.5,166.6,134.3,166.7,135.1,166.8z"/>
		<path class="st4" d="M99.1,207.8c3.6,1.2,7.2,2.4,10.8,3.6c-5.3,1.5-10.6,2.6-14.8-2.5C96.4,208.6,97.8,208.2,99.1,207.8z"/>
		<path class="st14" d="M83.7,198.2c0-0.2,0-0.5-0.1-0.7c0.7-4.3,1.3-8.6,2-12.9c0.5,3.7,1,7.3,1.4,11c-0.5,1.6-0.9,3.3-1.4,4.9
			C85,199.7,84.4,199,83.7,198.2z"/>
		<path class="st15" d="M188.9,170.4c4.1,2.9-0.4,4.9-0.4,6.8c-4.1-0.3-8-0.6-11.8-0.8c3.4-1,6.7-2,11.1-3.3
			C187.8,173.1,188.4,171.8,188.9,170.4z"/>
		<path class="st19" d="M121.6,171.5c-1.4,4.1-2.9,8.3-4.5,12.7C112.2,177.8,118.4,175.2,121.6,171.5z"/>
		<path class="st15" d="M134.5,158.5c-0.7,1.8-1,3.8-2.2,5.1c-0.5,0.6-2.7,0.1-3.9-0.4c-0.6-0.2-1.2-2.1-0.9-2.4
			c0.9-1,2.1-1.9,3.3-2.3C132,158.1,133.3,158.5,134.5,158.5C134.6,158.5,134.5,158.5,134.5,158.5z"/>
		<path class="st12" d="M152.9,165.2c0.3,0.1,0.6,0.2,0.9,0.4c-0.6,2.4-1.2,4.8-1.7,7.2c-0.9,4.5-3.8,3.8-7.1,2.8
			C151.7,175,151.1,169.2,152.9,165.2z"/>
		<path class="st2" d="M178.5,150.4c0.4-0.4,0.9-0.8,1.3-1.1c2.9,0.3,5.8,0.7,8.7,1c-3.7,0-7.5-0.3-10,3.3c0-0.8,0-1.6,0-2.4
			C178.6,150.9,178.6,150.7,178.5,150.4z"/>
		<path class="st4" d="M188.7,147.6c0-1.3-0.1-2.6-0.1-3.8c1.3,0.8,2.6,1.7,3.9,2.5c-0.3,0.4-0.6,0.9-0.8,1.3
			c-0.4,0.2-0.7,0.4-1.1,0.6c-0.4,0-0.8,0.1-1.1,0.1c-0.2,0.1-0.4,0-0.6-0.1C188.8,148,188.7,147.8,188.7,147.6z"/>
		<path class="st15" d="M188.9,148.2c0.2,0.1,0.4,0.2,0.6,0.1c0,0.7,0,1.4,0,2.1c-0.3,0-0.6,0-0.9-0.1c-2.9-0.3-5.8-0.7-8.7-1
			c0.1-0.3,0.2-0.6,0.4-0.8C183.1,148.3,186,148.2,188.9,148.2z"/>
		<path class="st19" d="M94.4,163.1c1.5-1.2,2.9-2.5,4.4-3.7c-0.1,0.9-0.2,1.9-0.3,2.8c-0.3,0.4-0.6,0.8-0.9,1.1c0,0,0,0,0,0
			c-0.9,0.1-1.7,0.3-2.6,0.4C94.8,163.5,94.6,163.3,94.4,163.1z"/>
		<path class="st12" d="M95,163.8c0.9-0.1,1.8-0.3,2.6-0.4c-0.2,1-0.5,2-0.7,3C94.5,166.8,93.6,166.2,95,163.8z"/>
		<path class="st19" d="M178.8,205.5c1.1,0.2,2.1,0.3,3.2,0.5c-0.9,0.6-1.9,1.2-2.8,1.8c-0.1-0.1-0.3-0.2-0.5-0.3
			C178.7,206.8,178.8,206.1,178.8,205.5z"/>
		<path class="st15" d="M178.6,151.2c0,0.8,0,1.6,0,2.4c-0.8,0-1.6,0.1-2.4,0.1C177,152.8,177.8,152,178.6,151.2z"/>
		<path class="st1" d="M83.7,198.2c0.6,0.8,1.3,1.5,1.9,2.3c-0.3,0.6-0.7,1.3-1,1.9C84.4,201,84.1,199.6,83.7,198.2z"/>
		<path class="st19" d="M81.7,204.4c0.7,0,1.4,0,2,0.1c0,1,0.1,2,0.1,3C83.1,206.5,82.4,205.4,81.7,204.4z"/>
		<path class="st10" d="M106.7,196.6c0.2,0.9,0.4,1.8,0.6,2.7C107.1,198.4,106.9,197.5,106.7,196.6z"/>
		<path class="st10" d="M107.6,200.8c0.2,0.8,0.3,1.7,0.5,2.5C107.9,202.4,107.8,201.6,107.6,200.8z"/>
		<path class="st15" d="M175.9,154c-0.4,0.5-0.8,1-1.1,1.4C175.2,155,175.5,154.5,175.9,154z"/>
		<path class="st1" d="M192.7,152.9c-0.3,0.5-0.7,1-1,1.5C192.1,153.9,192.4,153.4,192.7,152.9z"/>
		<path class="st19" d="M98.7,159.5c0.3-0.4,0.5-0.7,0.8-1.1C99.2,158.8,99,159.1,98.7,159.5z"/>
		<path class="st18" d="M99.7,156.5c0.3-0.3,0.6-0.7,0.9-1C100.3,155.8,100,156.2,99.7,156.5z"/>
		<path class="st1" d="M193.7,151.8c-0.1,0.3-0.3,0.5-0.5,0.6c0,0,0.1-0.5,0.1-0.5L193.7,151.8z"/>
		<path class="st2" d="M87.4,203.3c0.1,0.4,0.1,0.8,0.2,1.3C87.5,204.1,87.5,203.7,87.4,203.3z"/>
		<path class="st10" d="M108.7,204.5c0.4,0,0.6,0.1,0.9,0.4C109.3,204.8,109,204.7,108.7,204.5z"/>
		<path class="st12" d="M97.6,163.4c0.3-0.4,0.6-0.8,0.9-1.1C98.2,162.6,97.9,163,97.6,163.4z"/>
		<path class="st14" d="M217.5,185.3c-0.2,0.4-0.5,0.8-0.7,1.3C217,186.2,217.3,185.8,217.5,185.3z"/>
		<path class="st10" d="M190.6,148.2c0.4-0.2,0.7-0.4,1.1-0.6C191.3,147.8,190.9,148,190.6,148.2z"/>
		<path class="st1" d="M194.6,150.7c-0.2,0.2-0.4,0.5-0.7,0.7C194.2,151.2,194.4,150.9,194.6,150.7z"/>
		<path class="st14" d="M138.7,212.3c0.3,0.4,0.7,0.7,1,1.1c0.7,1.3,1.5,2.7,2.2,4c-4.7,4.9-9.3,9.7-14.4,15
			c-1.3-2.6-2.2-4.4-3.1-6.1c0.4-1.6,0.8-3.2,1.2-4.9l0,0c0.6-0.3,1.3-0.6,1.9-1l0.1-0.1c0.6-0.6,1.3-1.3,1.9-1.9l0,0
			c0.7-0.7,1.3-1.3,2-2l0,0c1.3-1.3,2.6-2.6,4-4l0,0C136.7,212.4,137.7,212.3,138.7,212.3z"/>
		<path class="st11" d="M141.7,233.2c-0.4,0-0.8,0-1.2,0c-1-0.3-2.1-0.7-3.1-1c1-1.4,2.1-2.8,3-4.3c1.1-1.8,2.1-3.8,3.2-5.7
			c0-0.2,0.2-0.3,0.4-0.3c0.8,0.2,1.6,0.4,2.5,0.6c0.5,0.7,0.9,1.5,1.4,2.2c0,1.8-0.1,3.6-0.1,5.5
			C145.7,231.2,143.7,232.2,141.7,233.2z"/>
		<path class="st2" d="M143.7,222.3c-1.1,1.9-2,3.8-3.2,5.7c-0.9,1.5-2,2.9-3,4.3c-0.9,0.1-1.8,0.1-2.8,0.2
			c-0.2-0.2-0.4-0.4-0.6-0.6C137.3,228.6,140.5,225.5,143.7,222.3z"/>
		<path class="st6" d="M142,217.4c-0.7-1.3-1.5-2.7-2.2-4c1.3,0,2.7,0.1,4,0.1c0.3,0.6,0.7,1.3,1,1.9
			C143.8,216,142.9,216.7,142,217.4z"/>
		<path class="st6" d="M125.7,221.4c-0.4,1.6-0.8,3.2-1.2,4.9c-0.6-0.3-1.1-0.6-1.7-1c-0.1-1.3-0.1-2.6-0.2-3.9
			C123.6,221.4,124.6,221.4,125.7,221.4z"/>
		<path class="st2" d="M146.5,222.6c-0.8-0.2-1.6-0.4-2.5-0.6c0.3-0.9,0.5-1.8,0.8-2.7c0.4,0,0.9,0,1.3,0c0.5,0.3,1,0.6,1.5,0.9
			c-0.1,0.5-0.3,1-0.4,1.6C147,222.1,146.8,222.3,146.5,222.6z"/>
		<path class="st2" d="M134.8,233.9c-0.7,0.2-1.4,0.3-2.1,0.5c0.5-0.9,0.9-1.7,1.3-2.6c0.2,0.2,0.4,0.4,0.6,0.6
			C134.7,232.9,134.8,233.4,134.8,233.9z"/>
		<path class="st15" d="M147.7,220.2c-0.5-0.3-1-0.6-1.5-0.9c4-1,8-2,12-3c11.1-1.2,21.5-4.5,31.4-9.5c1.3-0.4,2.6-0.9,4-1.3
			c0,1,0,2.1,0,3.1c0,0-0.1,0.1-0.1,0.1c-5.4-1.9-4.6,1.1-3.5,4.4c-0.1,0.8-0.3,1.6-0.4,2.6c-1.3-0.9-2.5-1.8-3.8-2.7
			c-0.7,1-1.3,1.7-1.8,2.5c-0.5-1.2-1.1-2.5-1.6-3.7c-0.4,0.1-0.8,0.1-1.1,0.2c-0.1,1.4-0.2,2.8-0.3,4.8c-2.3-0.4-4.3-0.8-7.4-1.4
			c2.2,2.8,3.9,4.9,5.6,7.1c0.2-0.5,0.4-1,0.6-1.5c1.7-0.2,3.3-0.4,5-0.7c0.3,0.3,0.7,0.6,1,1c-4.7,1.6-9.3,3.2-14,4.9
			c0.1-0.2,0.1-0.3,0.1-0.5c-0.2-2.7,2.3-6.9-2.1-7.4c-2.1-0.2-4.7,3.3-7,5.1c-1.1-1.8-2.3-3.7-4-6.4c-0.7,2.8-1,4.4-1.4,6.2
			c-2-0.3-3.7-0.5-5.4-0.8C150.4,221.7,149.1,221,147.7,220.2z"/>
		<path class="st14" d="M193.6,205.4c-1.3,0.4-2.6,0.9-4,1.3c1.1-1.3,2-2.9,3.3-3.8c3.5-2.4,7.2-4.4,10.8-6.6c0.9,0,1.9-0.1,2.8-0.1
			C202.3,199.3,197.9,202.4,193.6,205.4z"/>
		<path class="st16" d="M195.3,208.6c3.8-0.4,3.9,2.4,4.4,4.9c0,0,0-0.1,0-0.1c-0.4,0.4-0.7,0.7-1.1,1.1c0,0,0.1-0.1,0.1-0.1
			c-0.8-0.1-1.7-0.3-2.5-0.4c-0.3-0.2-0.6-0.5-0.9-0.7C195.3,211.7,195.3,210.1,195.3,208.6z"/>
		<path class="st15" d="M195.3,208.6c0,1.6,0,3.2,0,4.7c-0.5,0-1,0.1-1.5,0.1c-0.4,0-0.7,0-1.1,0l0,0c-0.3-0.9-0.6-1.7-0.9-2.6
			l-0.1,0.1c0.5-0.8,1.1-1.5,1.6-2.3c0,0,0.1-0.1,0.1-0.1C194.1,208.5,194.7,208.5,195.3,208.6z"/>
		<path class="st14" d="M125.7,221.4c-1,0-2.1,0-3.1,0c-0.1-0.7-0.2-1.3-0.3-2c1.5-1.8,3-3.5,4.5-5.3c3-1.6,5.9-3.2,8.9-4.9
			c0,0,0.1,0.1,0.1,0.1c0,1,0,2-0.1,3c0,0,0,0,0,0c-1.3,1.3-2.6,2.6-4,4c0,0,0,0,0,0c-0.7,0.7-1.3,1.3-2,2c0,0,0,0,0,0
			c-0.6,0.6-1.3,1.3-1.9,1.9c0,0-0.1,0.1-0.1,0.1C127,220.8,126.3,221.1,125.7,221.4L125.7,221.4z"/>
		<path class="st6" d="M135.7,209.3c-3,1.6-5.9,3.2-8.9,4.9c0.7-1.6,1.3-3.1,2-4.7c0.1-0.2,0.2-0.4,0.4-0.5
			c-0.2,0.1-0.4,0.2-0.6,0.4c-2.3-0.3-4.6-0.6-6.9-0.8c3-0.5,6.1-1.5,9.1-1.5C132.4,207,134,208.5,135.7,209.3z"/>
		<path class="st13" d="M154.5,133.3c1.4-0.2,2.9-0.5,4.3-0.7C157.4,132.8,156,133,154.5,133.3z"/>
		<path class="st14" d="M215.6,154.5c-0.4-0.7-0.9-1.3-1.3-2C214.7,153.2,215.2,153.8,215.6,154.5z"/>
		<path class="st2" d="M171.8,225.7c0,0.2,0,0.3-0.1,0.5c-4.7,1.4-9.4,2.8-14,4.2c-1.7-1.3-3.4-2.6-5-3.9c-1.2,0.5-2.5,0.9-3.8,1.4
			c-0.3-1-0.6-2.1-0.9-3.1c-0.5-0.7-0.9-1.5-1.4-2.2c0.3-0.3,0.5-0.5,0.8-0.8c1.6-0.9,2.5,4.2,4.5,0.6c1.7,0.2,3.4,0.5,5.4,0.8
			c0.4-1.8,0.8-3.4,1.4-6.2c1.7,2.8,2.9,4.6,4,6.4c1.3,0.9,1.1,4.8,4.2,2.3c0.3-0.4,0.5-0.9,0.8-1.3
			C169,224.8,170.4,225.2,171.8,225.7z"/>
		<path class="st18" d="M183.9,215.5c0.6-0.8,1.1-1.5,1.8-2.5c1.2,0.9,2.4,1.7,3.8,2.7c0.2-1,0.3-1.8,0.4-2.6
			c0.9,0.1,1.9,0.2,2.8,0.4c0,0,0,0,0,0c0.7,1,1.3,2.1,2,3.1l0-0.1c-3,1.6-6,3.3-9,4.9c-0.3-0.3-0.7-0.6-1-1
			c0.1-0.6,0.2-1.2,0.3-1.8c0.5-0.2,1.1-0.5,1.6-0.7c-0.8-0.4-1.5-0.9-2.3-1.3C184.2,216.2,184,215.8,183.9,215.5z"/>
		<path class="st17" d="M152.6,226.5c1.7,1.3,3.4,2.6,5,3.9c-5.3,1-10.6,1.9-15.9,2.9c2-1,4-2,6-3
			C150.8,230.8,152.3,229.4,152.6,226.5z"/>
		<path class="st17" d="M134.8,233.9c0-0.5-0.1-1-0.1-1.5c0.9-0.1,1.8-0.1,2.8-0.2c1,0.3,2.1,0.7,3.1,1
			C138.7,233.5,136.8,233.7,134.8,233.9z"/>
		<path class="st18" d="M196.2,214c0.8,0.1,1.7,0.3,2.5,0.4c-0.8,0.6-1.7,1.1-2.5,1.7c-0.4-0.4-0.9-0.9-1.3-1.3c0,0,0,0,0,0
			C195.3,214.5,195.8,214.3,196.2,214z"/>
		<path class="st18" d="M196.2,216.1c-0.5,0.1-1,0.2-1.5,0.3c0,0,0,0.1,0,0.1c0-0.6,0.1-1.1,0.1-1.7
			C195.3,215.2,195.7,215.7,196.2,216.1z"/>
		<path class="st18" d="M198.6,214.5c0.4-0.4,0.7-0.7,1.1-1.1C199.4,213.7,199,214.1,198.6,214.5z"/>
		<path class="st19" d="M83.6,175.4c-1,2.9-1.9,5.9-3,8.8c-2.2,5.7-2.4,11.3,0.4,16.9c0.5,1,0.5,2.2,0.8,3.3
			c-1.4-2.7-2.9-5.4-4.3-8.2C76.7,188.5,77.4,181.1,83.6,175.4z"/>
		<path class="st4" d="M159.9,142.2c-0.5,0-0.9,0-1.4,0.1C159,142.3,159.4,142.2,159.9,142.2z"/>
		<path class="st6" d="M135.7,212.4c0-1,0-2,0.1-3c1,0.9,2,1.9,3,2.8C137.7,212.3,136.7,212.4,135.7,212.4z"/>
		<path class="st1" d="M150.7,213.4c-0.4-0.1-0.8-0.2-1.3-0.4C149.8,213.2,150.3,213.3,150.7,213.4L150.7,213.4z"/>
		<path class="st10" d="M188.9,148.2c-2.9,0.1-5.7,0.2-8.6,0.3c0.1-0.3,0.2-0.7,0.4-1c2.7,0.1,5.4,0.1,8,0.2
			C188.7,147.8,188.8,148,188.9,148.2z"/>
		<path class="st18" d="M203.8,196.3c-3.6,2.2-7.3,4.2-10.8,6.6c-1.4,0.9-2.2,2.5-3.3,3.8c-9.9,5-20.4,8.4-31.4,9.5
			c6.1-2.3,12.1-4.5,18.2-6.9c1-0.4,1.9-1.1,2.8-1.7c0.9-0.6,1.9-1.2,2.8-1.8c0,0-0.1-0.2-0.1-0.2c0.6-0.4,1.3-0.7,1.9-1.1
			c0,0,0.1,0,0.1,0c1.7-1,3.3-2,5-2.9l-0.2-0.3c0,0,0.2,0.2,0.2,0.2c1-0.6,2-1.3,3-1.9c0,0,0-0.1,0-0.1c2.3-1.5,4.6-2.9,6.8-4.4
			C200.5,195.7,202.1,196,203.8,196.3z"/>
		<path class="st1" d="M85.6,184.6c-0.7,4.3-1.3,8.6-2,12.9c-3.6-4.7-2.7-12.9,2-17.2C85.6,181.8,85.6,183.2,85.6,184.6z"/>
		<path class="st1" d="M85.7,179.4c0.6-0.7,1.3-1.4,1.9-2C87,178.1,86.3,178.7,85.7,179.4z"/>
		<path class="st19" d="M85.3,173.2c-0.6,0.7-1.2,1.5-1.8,2.2C84.2,174.6,84.8,173.9,85.3,173.2z"/>
		<path class="st19" d="M86.6,171.4c-0.4,0.6-0.8,1.2-1.2,1.8C85.8,172.6,86.2,172,86.6,171.4z"/>
		<path class="st19" d="M198.8,195.4c-2.3,1.5-4.6,2.9-6.8,4.4C194.3,198.3,196.5,196.8,198.8,195.4z"/>
		<path class="st19" d="M188.9,201.8c-1.7,1-3.3,2-5,2.9C185.6,203.8,187.3,202.8,188.9,201.8z"/>
		<path class="st19" d="M192,199.8c-1,0.6-2,1.3-3,1.9C190,201.1,191,200.5,192,199.8z"/>
		<path class="st19" d="M183.9,204.7c-0.6,0.3-1.3,0.7-1.9,1.1C182.6,205.4,183.2,205.1,183.9,204.7z"/>
		<path class="st6" d="M131.7,216.4c1.3-1.3,2.6-2.6,4-4C134.3,213.8,133,215.1,131.7,216.4z"/>
		<path class="st6" d="M129.7,218.4c0.7-0.7,1.3-1.3,2-2C131,217.1,130.3,217.7,129.7,218.4z"/>
		<path class="st6" d="M127.7,220.4c0.6-0.6,1.3-1.3,1.9-1.9C129,219.1,128.3,219.7,127.7,220.4z"/>
		<path class="st6" d="M125.7,221.4c0.6-0.3,1.3-0.6,1.9-1C127,220.8,126.3,221.1,125.7,221.4z"/>
		<path class="st10" d="M152.6,226.5c-0.3,3-1.8,4.3-4.9,3.8c0-1.8,0.1-3.6,0.1-5.5c0.3,1.1,0.6,2.2,0.9,3.1
			C150.1,227.4,151.4,226.9,152.6,226.5z"/>
		<path class="st16" d="M151.8,222.4c-2,3.6-2.9-1.5-4.5-0.6c0.1-0.5,0.3-1,0.4-1.6C149.1,221,150.4,221.7,151.8,222.4z"/>
		<path class="st16" d="M184.9,218.5c-0.1,0.6-0.2,1.2-0.3,1.8c-1.7,0.2-3.3,0.4-5,0.7c-0.2,0.5-0.4,1-0.6,1.5
			c-1.7-2.2-3.4-4.3-5.6-7.1c3,0.6,5.1,1,7.4,1.4c0.1-2.1,0.2-3.4,0.3-4.8c0.4-0.1,0.8-0.1,1.1-0.2c0.5,1.2,1.1,2.5,1.6,3.7
			c0.1,0.3,0.3,0.7,0.4,1C184.5,217.2,184.7,217.8,184.9,218.5z"/>
		<path class="st10" d="M171.8,225.7c-1.4-0.5-2.7-0.9-4.1-1.4c-0.4,0-0.8-0.1-1.2-0.1c0.1,0.5,0.3,1,0.4,1.5
			c-3.2,2.6-2.9-1.3-4.2-2.3c2.3-1.8,4.9-5.3,7-5.1C174.1,218.7,171.5,223,171.8,225.7z"/>
		<path class="st16" d="M192.7,213.4c-0.9-0.1-1.9-0.2-2.8-0.4c-1.1-3.2-1.9-6.3,3.5-4.4c-0.5,0.8-1.1,1.5-1.6,2.3
			c-0.2-0.3-0.4-0.6-0.6-0.9c-0.1,0.1-0.2,0.2-0.2,0.2c0.3,0.2,0.6,0.4,0.9,0.6C192.1,211.7,192.4,212.5,192.7,213.4z"/>
		<path class="st18" d="M193.8,213.4c0.5,0,1-0.1,1.5-0.1c0.3,0.2,0.6,0.5,0.9,0.7c-0.5,0.3-0.9,0.5-1.4,0.8
			C194.5,214.3,194.1,213.9,193.8,213.4z"/>
		<path class="st16" d="M193.8,213.4c0.4,0.5,0.7,0.9,1.1,1.4c0,0,0,0,0,0c0,0.6-0.1,1.1-0.1,1.7c-0.7-1-1.3-2.1-2-3.1
			C193.1,213.4,193.4,213.4,193.8,213.4z"/>
		<path class="st4" d="M191.9,210.8c-0.3-0.2-0.6-0.4-0.9-0.6c0.1-0.1,0.2-0.2,0.2-0.2C191.4,210.3,191.6,210.6,191.9,210.8
			C191.8,210.9,191.9,210.8,191.9,210.8z"/>
		<path class="st10" d="M128.6,209.3c0.2-0.1,0.4-0.2,0.6-0.4c-0.1,0.2-0.3,0.4-0.4,0.5C128.8,209.5,128.6,209.3,128.6,209.3z"/>
		<path class="st16" d="M166.9,225.7c-0.1-0.5-0.3-1-0.4-1.5c0.4,0,0.8,0.1,1.2,0.1C167.4,224.8,167.2,225.2,166.9,225.7z"/>
		<path class="st15" d="M184.9,218.5c-0.2-0.7-0.4-1.3-0.6-2c0.8,0.4,1.5,0.9,2.3,1.3C186,218,185.5,218.3,184.9,218.5z"/>
	</g>
</g>
</svg>
