<?xml version="1.0" encoding="utf-8"?>
<!-- Generator: Adobe Illustrator 23.0.2, SVG Export Plug-In . SVG Version: 6.00 Build 0)  -->
<svg version="1.1" id="Layer_1" xmlns="http://www.w3.org/2000/svg" xmlns:xlink="http://www.w3.org/1999/xlink" x="0px" y="0px"
	 viewBox="0 0 77.4 70.7" style="enable-background:new 0 0 77.4 70.7;" xml:space="preserve">
<style type="text/css">
	.st0{fill:#FEFEFE;}
	.st1{fill:#020000;}
	.st2{fill:#242624;}
	.st3{fill:#1F1F1D;}
	.st4{fill:#5F5C5A;}
	.st5{fill:#464A48;}
	.st6{fill:#282927;}
	.st7{fill:#12130F;}
	.st8{fill:#2E3533;}
	.st9{fill:#424441;}
	.st10{fill:#353734;}
	.st11{fill:#AD9854;}
	.st12{fill:#686461;}
	.st13{fill:#B09A58;}
	.st14{fill:#B09A5A;}
	.st15{fill:#AE9856;}
	.st16{fill:#191916;}
	.st17{fill:#4D4D48;}
	.st18{fill:#1C1B18;}
	.st19{fill:#1B1A17;}
	.st20{fill:#5C553D;}
	.st21{fill:#7F765B;}
	.st22{fill:#817860;}
	.st23{fill:#C92C21;}
	.st24{fill:#615E5B;}
	.st25{fill:#BD622D;}
	.st26{fill:#A5B48E;}
	.st27{fill:#DA761E;}
	.st28{fill:#DB7C1E;}
	.st29{fill:#E9951B;}
	.st30{fill:#454643;}
	.st31{fill:#C0AE7D;}
	.st32{fill:#CD2821;}
	.st33{fill:#020101;}
	.st34{fill:#040302;}
	.st35{fill:#F4E3BA;}
	.st36{fill:#18120E;}
	.st37{fill:#291D16;}
	.st38{fill:#1F1611;}
	.st39{fill:#F5E1B7;}
	.st40{fill:#EFD9AD;}
	.st41{fill:#EED3A7;}
	.st42{fill:#CD2922;}
	.st43{fill:#D24E38;}
	.st44{fill:#F5E3BC;}
	.st45{fill:#231A13;}
	.st46{fill:#D24F39;}
	.st47{fill:#CC2B22;}
	.st48{fill:#CC2D24;}
	.st49{fill:#29221C;}
	.st50{fill:#CD2921;}
	.st51{fill:#D14935;}
	.st52{fill:#221913;}
	.st53{fill:#79B531;}
	.st54{fill:#516537;}
	.st55{fill:#B59F64;}
	.st56{fill:#322A24;}
	.st57{fill:#333B23;}
	.st58{fill:#12100E;}
</style>
<g>
	<g>
		<path class="st0" d="M38.6,70.7c-12.6,0-25.2,0-37.7,0c-0.7,0-0.9-0.1-0.9-0.9C0,46.9,0,24,0,1c0-0.7,0.1-0.9,0.9-0.9
			c25.2,0,50.4,0,75.7,0c0.7,0,0.9,0.1,0.9,0.9c0,23,0,45.9,0,68.9c0,0.7-0.1,0.9-0.9,0.9C63.9,70.7,51.3,70.7,38.6,70.7z"/>
		<path class="st1" d="M67,25.5c1.5-0.4,3-0.7,4.5-1.1c0.7,0.5,0.7,1.2,0.6,1.8c-0.1,1.4-0.3,2.8-0.6,4.2c-0.1,0.7-0.4,1.3-0.9,1.7
			c-1.2,0.8-1.4,2.1-1.5,3.4c-0.1,1.1,0,2.1,0,3.2c0,2.1-1.1,3.4-3.2,3.8c-0.1,0-0.2,0-0.3,0c-1.3-0.1-2.7-0.3-4,0.2
			c-0.6-0.4-1.3-0.5-2-0.2c-0.3,0.1-0.6,0-1,0c-0.9-0.2-1.8-0.2-2.8-0.1c-0.7-0.2-1.3,0.8-2,0c-0.1-0.1-0.3,0.2-0.4,0.3
			c-0.3,0.2-0.7,0.3-1,0.1c-0.4-0.2-0.1-0.5,0.1-0.7c0-0.1,0.1-0.1,0.1-0.2c-0.1,0.1-0.1,0.2-0.2,0.2c-0.5,0.7-0.8,0.2-1.1-0.2
			c-0.1-0.1-0.1-0.3,0-0.4c-0.2,0.1-0.1,0.3-0.2,0.4c-0.1,0.2-0.3,0.4-0.5,0.5c-0.3,0.2-0.7,0.1-1.1,0.1c-4.9,0-9.7,0-14.6,0
			c-0.4,0-0.9,0.1-1.2-0.2c-0.3-0.3-0.1-0.6,0.1-0.9c0.5-0.6,0.4-1.2,0.1-1.9c-0.6-1.4-0.5-2.9-0.1-4.3c0.6-0.7,0.7-0.7,1.3,0.1
			c0.1,0.7-0.2,1.2-0.4,1.9c-0.2,1.1-0.1,2.1,0.8,2.9c0.8,0.8,1.8,0.7,2.8,0.3c0.7-0.3,1.3-0.5,1.8-1.1c0.5-0.5,1-0.6,1.4,0
			c0.3,0.4,0.7,0.5,1.1,0.5c2,0,3.7-1.6,3.6-3.6c0-0.1,0-0.2,0.1-0.3c0.1-0.1,0.2-0.1,0.3-0.2c1.1,0.2,1.3,0.5,0.9,1.5
			c-0.3,0.7-0.6,1.4,0.3,1.9c0.7,0.4,1.7,0.1,2.2-0.7c0.4-0.5,0.6-1.1,0.9-1.7c0.2-0.3,0.4-0.7,0.8-0.8c0.8-0.1,1.4,0.1,1.8,0.9
			c0.9,2,2.7,2.7,4.7,2c2.1-0.7,3-2.4,2.5-4.5c-0.1-0.5-0.3-0.9-0.4-1.4c0-0.3,0.1-0.6,0.4-0.8c0.3-0.2,0.6-0.1,0.8,0.1
			c0.4,0.3,0.9,0.9,1.5,0.3c0.6-0.6,0.4-1.3,0-2c-0.9-1.4-3.6-1.4-4.7,0.1c-0.3,0.4-0.5,0.9-0.9,1.2c-0.2,0.1-0.3,0.1-0.5,0
			c-0.2-0.1-0.3-0.2-0.4-0.4c-1-1.3-2.2-1.5-3.6-0.7c-0.4,0.2-0.7,0.5-1,0.7c-0.3,0.3-0.6,0.4-1,0.2c-1.1-0.7-2-0.1-2.9,0.5
			c-0.3,0.2-0.5,0.5-0.9,0.5c-0.7-0.1-1.5-0.1-2.2-0.1c-0.5-0.2-1-0.5-1.6-0.3c-0.2,0.1-0.5,0-0.7-0.2c-1.4-1-2.8-0.6-4.2,0.1
			c-0.4,0.2-0.8,0.6-1.3,0.7c-0.5,0.1-1,0-1.6,0.1c-0.4,0.1-0.8,0-1-0.5c-0.1-0.2-0.1-0.4,0-0.6c0.3-0.7,0.1-1.4-0.5-1.8
			c-0.7-0.5-1.5-0.6-2.3-0.1c-1.3,0.8-2.1,1.9-3.2,2.9c-0.1,0.1-0.2,0.2-0.3,0.3c-0.2,0.2-0.4,0.5-0.7,0.3c-0.3-0.2-0.2-0.5-0.1-0.8
			c0.3-0.8,0.5-1.6,0.9-2.4c0.5-0.9,0.3-1.6-0.5-2.2c-0.3-0.3-0.7-0.5-0.2-1c0.5-0.2,1.1-0.1,1.6-0.1c8.6,0,17.1,0,25.7,0
			c2.7,0,5.3-0.3,8-0.3c0.7-0.3,1.5-0.2,2.2-0.2C66.6,26.8,66.6,26.8,67,25.5z"/>
		<path class="st1" d="M15.6,44.9C12.3,44.8,9.1,45,6,46.4c-0.3-0.3-0.4-0.7-0.4-1.1c0-2.8-0.1-5.6,0-8.3c0.9-3.2,2.8-5.8,5.2-8.1
			c1.3-1.3,3.2-1.5,4.9-1.7c0.6-0.1,1.2,0,1.8,0c2.7,0.2,5.4,0.2,8.1,0.3c0.6,0.5,0.1,0.7-0.2,1c-4.2,3.6-7.2,8.2-9.8,13
			c-0.1,0.2-0.1,0.4-0.2,0.6c-0.3,1.3-0.6,1.5-1.9,1.1c-0.5-0.8-0.2-1.6-0.3-2.5c-0.1-0.7,0.4-1.6-0.4-2.1c-0.9-0.6-1.9-0.5-3-0.2
			c-0.2,0.1-0.5,0.2-0.7,0.3C8.7,39,8.9,39.5,8.9,40c0,0.7,0,1.4,0,2.1c0,1.6,0.3,1.9,1.9,2c0.7,0.1,1.3-0.1,2-0.3
			c0.2,0,0.4-0.1,0.5,0c0.6,0,1.1,0.1,1.7,0.3C15.3,44.2,15.8,44.3,15.6,44.9z"/>
		<path class="st2" d="M13.5,43c1.1,0.3,1.5-0.3,1.6-1.3c0.4,0.2,0.3,0.6,0.4,0.9c0.2,1.2,0.9,1.6,2,1.4c0.4-0.1,0.7-0.2,1.1-0.2
			c1.4-0.3,2.8,0.1,4.1,0.2c0.8,0,1.7,0.1,2.6,0.1c10.1,0,20.2,0,30.3,0c0.5,0,1.1,0,1.6-0.2c1.5-0.2,3.1-0.1,4.6-0.2
			c0.9-0.1,1.9-0.2,2.7-0.7c0.4-0.1,0.5-0.5,0.9-0.6c0,0,0.1,0,0.1,0c1.9,0.3,3.8-1.1,3.8-3.1c0-1.3,0-2.6,0-3.9
			c0-1.5,0.5-2.8,1.8-3.6c0.6-0.4,0.7-0.9,0.7-1.6c0-0.6,0-1.2,0.4-1.7c0.2-0.2,0.5-0.5,0.8-0.4c0.4,0.1,0.4,0.4,0.4,0.8
			c0,1.2,0,2.3,0,3.5c0,0.1,0,0.2,0,0.3c0-0.1,0-0.2,0-0.3c0.1-2.1-0.1-4.2-0.2-6.4c0-0.5-0.1-1.1,0.4-1.5c0.1,7.1,0.3,14.3,0,21.4
			c-0.1,1.1-2.7,0.3-4.1,0C68,45.6,66.4,45,64.8,45c-16.4-0.1-32.8-0.1-49.2-0.1c-0.8-0.3-1.6-0.6-2.4-0.8
			C13.1,43.6,13.1,43.3,13.5,43z"/>
		<path class="st3" d="M17.3,27.4C10.7,27,8.3,31.8,6,36.6c-0.4-0.4-0.3-0.9-0.4-1.4c-0.2-3.2-0.1-6.5,0-9.7c0-1.1,0.3-1.3,1.5-1.1
			c1.6,0.4,3.2,0.9,4.9,1.3c0.4,1.2,0.6,1.4,1.9,1.3c0.9-0.1,1.7-0.3,2.6-0.1C16.9,27,17.3,26.9,17.3,27.4z"/>
		<path class="st4" d="M31.3,25.8c7.5,0,14.9,0,22.4,0c1,0.4,2,0.1,2.9,0.2c0.5,0,1.1,0,1.6,0c0.4,0,0.8,0.1,0.8,0.5
			c0,0.4-0.4,0.6-0.7,0.6c-0.5,0-1,0.1-1.4,0.3c-0.5,0-1.1,0.1-1.6,0c-0.5-0.1-1.1-0.1-1.6-0.1c-9.9,0-19.8,0-29.7,0
			c-0.5,0-1.1,0.1-1.6-0.2c-0.4-0.2-0.8-0.3-0.7-0.8c0.1-0.4,0.5-0.4,0.9-0.4c2.3,0,4.6,0,6.9,0C30.2,25.9,30.8,26.1,31.3,25.8z"/>
		<path class="st5" d="M7.1,24.4c-1.5-0.1-1.1,1-1.1,1.8c0,3,0,6.1,0,9.1c-0.2,1-0.5,1.9-1.7,2c-0.4,0-0.1,0.2-0.1,0.3
			c0.2,2.5,0,5,0.1,7.5c0,0.4-0.1,0.8-0.4,1.1c-0.1-7.2-0.1-14.3,0-21.5C3.8,24.6,6,24.5,7.1,24.4z"/>
		<path class="st6" d="M55.5,27.2c0.5,0,1,0,1.5,0c1.4-0.3,2.8-0.4,4.3-0.4c0.7,0.3,1.6-0.3,2.2,0.5c-7.3,0.1-14.6,0.3-21.8,0.4
			c-4.7,0.1-9.3,0.1-14,0.2c-0.6,0.5-1.1,0.5-1.7,0c-2.8-0.1-5.7-0.3-8.5-0.4c-1.4,0-2.8,0-4.1,0c-1.1,0-1.8-0.4-1.2-1.7
			c2.6,0,5.3,0,7.9-0.1c-0.1,0.8-0.7,0.7-1.3,0.8c-0.1,0-0.3,0-0.4,0c0.1,0.1,0.3,0,0.4,0.1c10.9,1.1,21.7,0.3,32.6,0.5
			C52.6,27.2,54,27,55.5,27.2z"/>
		<path class="st7" d="M73.8,24.5c0,3,0,6.1,0,9.1c0,0.2-0.1,0.4-0.1,0.6c-0.1-0.1-0.2-0.3-0.2-0.4c-0.1-1.8-0.2-3.7-0.3-5.5
			c-1.3,1.4-1,3.5-2.6,5c-1.2,1.1-0.6,4.1-0.7,6.3c-0.2,2.8-2.1,3-4.2,2.8c0.9-0.5,2.6-1.1,2.5-1.5c-0.5-5.8,4.6-10.5,3.4-16.4
			C72.2,24.5,73,24.5,73.8,24.5z"/>
		<path class="st8" d="M3.9,46.2c0-1.6,0-3.2,0-4.9c0-2.2-0.7-4.7,2.1-6c0,0.4,0,0.9,0,1.3c0,3.3,0,6.5,0,9.8
			C5.3,46.3,4.6,46.2,3.9,46.2z"/>
		<path class="st9" d="M55.5,27.2c-12.5-0.1-25.1-0.1-37.6-0.2c-0.4,0-0.9-0.3-1.3-0.5c0.4-0.1,0.8-0.3,1.3-0.4
			c0.7-0.2,1.3-0.3,2-0.4c3.8,0,7.7,0,11.5,0c-1.5,0.1-3,0.3-4.4,0.4c-1.7,0.1-3.3,0.2-5,0.3c1.7,0.2,3.4,0.5,5.1,0.5
			c9.1,0.1,18.1,0,27.2,0C54.6,27,55,27.1,55.5,27.2z"/>
		<path class="st9" d="M61.4,27c-1.5,0.1-3,0.1-4.5,0.2c-0.5-1,2.1,0.3,0.9-1c-0.5-0.5-1.9-0.1-2.9-0.1c-0.4,0-0.8-0.2-1.1-0.4
			c2.5,0,5,0,7.5,0c0.5,0.2,1,0.2,1.5,0.2c0.3,0,0.6,0.1,0.6,0.5c0,0.4-0.2,0.5-0.5,0.5C62.3,26.9,61.9,27.3,61.4,27z"/>
		<path class="st10" d="M61.4,27c0.5-0.2,1.5,0.3,1.5-0.8c0-0.2-1.1-0.3-1.7-0.5c1.9-0.1,3.8-0.1,5.8-0.2c0.1,3.4-2.5,0.9-3.6,1.7
			C62.7,27.2,62.1,27.1,61.4,27z"/>
		<path class="st11" d="M25.8,27.9c0.6,0,1.1,0,1.7,0c2.9,1.4,0.6,3.2,0.4,4.9c0,0.3-0.2,0.6-0.2,0.9c0.2-0.2,0.4-0.4,0.7-0.6
			c1.3-1.1,2.4-2.7,3.8-3.2c2-0.7,3.2,0.5,2.6,2.8c0.1,1,0,1.9-0.6,2.8c-1.4,2.2,1.6,4.7-0.4,6.8c-0.5,0.7-1.2,0.5-1.9,0.3
			c-1.5-0.5-1.8-1.7-2-3.1c-0.1-0.7,0-1.3,0-2c0-0.2,0.1-0.5,0-0.5c-0.2-0.1-0.2,0.2-0.4,0.3c-1.2,1.5-2.2,3-3.1,4.6
			c-0.1,0.2-0.3,0.4-0.4,0.6c-0.2,0.2-0.3,0.4-0.6,0.6c-0.5,0.3-1,0.3-1.5,0.2c-0.4-0.1-0.7-0.3-1-0.5c-0.6-0.6-0.9-1.4-0.8-2.2
			c0.1-1.3,0.2-2.5,0.6-3.8c0-0.1,0.1-0.3,0.2-0.4c-0.1,0.1-0.1,0.2-0.2,0.3c-1.1,1.8-2.3,3.6-3.1,5.5c-0.1,0.2-0.2,0.4-0.4,0.5
			c-0.1,0.1-0.2,0.1-0.3,0.1c-0.2,0-0.4-0.1-0.6-0.3c-0.2-0.5,0.1-0.9,0.3-1.3c1.4-2.8,3.1-5.5,5.1-7.9c0.2-0.3,0.5-0.7,1-0.4
			c0.2,0.4,0.2,0.7-0.1,1c-0.8,1.4-0.8,3-1.2,4.4c-0.2,0.8-0.2,1.6-0.2,2.4c0,0.4,0.1,0.9,0.6,1c0.7,0.3,1.2,0.1,1.6-0.6
			c1.4-2.4,3-4.6,4.8-6.7c0.3-0.4,0.6-1,1.3-0.7c0.1,0.2,0.1,0.4,0.1,0.6c-0.8,1.9-0.7,3.8-0.3,5.7c0.1,0.3,0,0.8,0.6,0.8
			c0.2-0.1,0.5-0.1,0.7,0c1,0,1.2-0.1,1-1.2c-0.4-2.2-0.2-4.4,0.3-6.5c0.1-0.6,0.4-1.1,0.2-1.8c-0.1-0.2-0.1-0.4-0.2-0.6
			c-0.5-0.8-1.2-0.8-1.7-0.3c-1.9,1.7-3.9,3.3-5.1,5.6c-0.2,0.3-0.3,0.6-0.7,0.4c-0.4-0.6-0.1-1.2,0.1-1.8c0.4-1.5,0.9-2.9,1.5-4.3
			c0.1-0.3,0.3-0.6,0.1-0.9c-0.6-1.1-1.5-0.7-2.4-0.6c-1,0.5-1.7,1.4-2.4,2.2c-2.5,2.8-4.6,5.9-6.5,9.1c-0.5,0.8-0.7,1.7-1.1,2.5
			c-0.1,0-0.2,0-0.3,0c0-0.4,0-0.7,0-1.1C17.9,36.5,21,31.5,25.8,27.9z"/>
		<path class="st12" d="M23.6,43c0.5-0.1,1-0.2,1.6-0.2c2.3-0.3,4.7-0.1,7-0.1c5.9,0,11.7,0,17.6,0c0.5,0,0.9,0,1.1-0.5
			c0.2-0.3,0.4-0.6,0.5-0.9c0,0.2,0,0.4,0.1,0.6c0.1,0.2,0.3,0.3,0.5,0.5c0-0.2-0.1-0.4,0-0.6c0-0.2,0.1-0.3,0.2-0.4
			c0.2,1.3,1.3,0.7,2,0.9c0.5,0.1,1,0.1,1.5,0.1c0.6,0,1.3-0.5,1.5,0.5c0.1,0.7-0.5,1.2-1.5,1.2c-1,0.1-2-0.2-3.1,0.1
			c-9.2,0-18.3,0-27.4,0c-0.5,0-0.9,0-1.4-0.1C23.1,43.8,23,43.5,23.6,43z"/>
		<path class="st13" d="M46.5,36c0.8,1.7-0.3,2.7-1.5,3.5c-1.2,0.8-2.5,1.5-3.8,0.1c-0.1-0.1-0.5-0.1-0.7,0c-1.5,1.1-3.2,2.3-5,1
			c-1.9-1.3-1.2-3.3-0.5-5c0.3-1.3,1-2.2,2.2-2.8c2.5-2.5,5.2-1.2,7.9-0.4c0.7,0.4,0.8,1.1,0.5,1.7c-0.3,0.7-0.5,1.3,0.6,1.4
			C46.3,35.5,46.5,35.7,46.5,36z"/>
		<path class="st14" d="M47.1,32.5c3.3-0.7,6.3-4.4,9.9-0.8c0.6,1.4-0.2,2.5-1.6,2.2c-0.8-0.2-1.4,0.1-1.9,0.6
			c-0.6,0.6-1,1.3-1.8,1.7c-0.6,1-1.1,2.2-1.9,3c-0.4,0.4-1.6,0.4-2.3,0.1c-0.9-0.4-0.7-1.4-0.3-2.1c0.5-0.8,0.2-1.1-0.6-1.2
			C45.3,34.8,45.5,33.4,47.1,32.5z"/>
		<path class="st15" d="M57.3,31.7c1.3-2.7,3.3-3.5,5.8-1.6c0.8,0.6,1,1.7,0.2,2.6c-0.7,0.9-1.4,0.3-1.9-0.3
			c-0.1-0.1-0.4-0.1-0.6-0.1c0,0.5-0.1,1,0.1,1.4c0.8,2.5,0.1,4.5-2.5,5.4c-2.2,0.8-4.2,0.4-5.2-2.1c0-0.5-0.3-0.9-0.1-1.5
			c0.4-1.1,1.7-1.4,2.6-0.6c0.3,0.3,0.6,0.8,1.1,0.5c0.5-0.3,0.4-0.8,0.3-1.3C57,33.3,57,32.5,57.3,31.7z"/>
		<path class="st6" d="M50.9,42.1c0.1,0.1,0.3,0.2,0.4,0.3c-0.3,0.2-0.6,0.5-0.9,0.5c-8.4,0-16.8-0.1-25.3-0.1
			c0.1-0.1,0.3-0.3,0.4-0.4c2-0.4,4.1-0.5,6.2-0.2c0.6,0,1.3,0,1.9,0C39.5,42.2,45.2,42.1,50.9,42.1z"/>
		<path class="st16" d="M57.3,31.7c0.1,1,0.2,2,0.2,3c0,0.4-0.3,0.9-0.6,1.2c-0.1,0.1-0.7,0-1-0.3c-0.5-0.5-0.9-1.2-1.8-0.8
			c-1,0.4-0.9,1.3-0.9,2.2c-0.5-0.3-1.1-0.6-1.6-0.8c1-1.4,1.6-3.2,4.2-2.5c1.1,0.3,1.1-1.1,1.2-2C57.1,31.7,57.2,31.7,57.3,31.7z"
			/>
		<path class="st17" d="M52.9,44.1c0.9-0.1,1.8,0,2.7-0.2c0.5-0.1,0.9-0.6,1.3-0.9c-0.4-0.2-0.9-0.4-1.3-0.6c1,0,2,0,3,0
			c-0.1,0.2-0.3,0.3-0.5,0.4c-0.1,0-0.2,0.1-0.3,0.1c0.1,0.1,0.2,0,0.3,0c0.3,0,0.7,0,1,0c0.4,0,0.8,0.1,1.2,0.1
			c-0.3-0.2-0.7-0.2-0.8-0.6c0.7-0.1,1.5-0.6,1.9,0.4c1-0.1,2,0.1,3.1,0c0.2,0,0.5,0.1,0.4,0.4c-2.5,1.1-5.1,0.8-7.7,0.9
			C55.9,44.2,54.4,44.3,52.9,44.1z"/>
		<path class="st18" d="M47.1,32.5c-0.9,1.1-1.7,2.1-0.4,3.5c0,0-0.1,0-0.1,0s-0.1,0-0.1,0c-3.3,0-0.2-2.7-1.5-3.6
			C45.7,32.4,46.4,32.5,47.1,32.5z"/>
		<path class="st19" d="M37.1,32.8c-0.7,0.9-1.4,1.8-2.2,2.8c-0.3-0.1-0.5-0.1-0.8-0.2c0.2-0.9,0.4-1.9,0.6-2.8
			C35.5,32.6,36.3,32.7,37.1,32.8z"/>
		<path class="st20" d="M66.2,30.2c-1-0.3-1.8-0.5-2.6-0.7c0.2-0.2,0.5-0.5,0.5-0.5c0.9,0.7,2.2-0.9,2.8,0.5
			C67,29.6,66.5,29.9,66.2,30.2z"/>
		<path class="st21" d="M65,43.2c-1.1-0.2-2.3-0.3-3.4-0.5c1.2-1,2.5-0.4,3.8-0.4C65.3,42.6,65.1,42.9,65,43.2z"/>
		<path class="st22" d="M59.7,42.3c0.5,0.2,1,0.4,1.6,0.6c-1.2,0.1-2.4,0.2-3.6,0.2c-0.1,0-0.3-0.2-0.4-0.3c0.5-0.2,1-0.4,1.5-0.5
			C59,42.3,59.3,42.3,59.7,42.3z"/>
		<path class="st23" d="M13.9,35.5c-1.5,0.4-1.7-0.8-2.2-1.7c1-0.5,1.1-1.7,2-2.4c0.9-0.5,1.3-1.5,2-2.1c2.1,0.7,3,2,2.3,4.2
			c-0.3-0.2-0.3-0.6-0.3-0.9c-0.1-0.3,0-0.7-0.4-0.8c-0.4-0.1-0.5,0.3-0.7,0.5c-0.1,0.1-0.2,0.3-0.3,0.4
			C14.9,33.2,14.3,34.3,13.9,35.5z"/>
		<path class="st24" d="M12.8,44.1c-1.4,0.7-3.5,0.8-3.9-0.2c-0.6-1.6-0.2-3.7-0.2-5.6C9.3,39,9,39.8,9.1,40.5c0,0.3,0,0.6,0,0.9
			c0,1.1,0.1,1.1,1.1,0.7c0.5-0.1,1.1,0,1.6-0.1C13.1,42.3,13.4,42.9,12.8,44.1z"/>
		<path class="st25" d="M13.9,35.5c0-1.6,0.5-2.7,2.3-2.8c0.6,0.1,0.8,0.5,0.8,1c0,0.5,0.3,0.6,0.7,0.7
			C16.9,36.3,15.5,36.1,13.9,35.5z"/>
		<path class="st26" d="M12.8,44.1c-0.1-0.9,0.3-2-1.3-1.8c-0.1-0.2,0-0.3,0.1-0.3c0.3-0.3,1.1,0,1.1-0.6c0.1-0.8,0.3-1.6-0.1-2.3
			c-0.8-0.4-1.7-0.5-2.6-0.3c-0.4,0.1-0.8,0.2-0.8,0.7c0,0.3,0,0.7,0,1c0,0.7-0.1,1.4,0.9,1.6c0.1,0,0.1,0.2,0.1,0.3
			c-0.4,0.1-0.9,0.3-1.3,0.4c-0.1-1.5-0.1-2.9-0.2-4.4c5-2,4.9,1.3,4.7,4.7c-0.1,0.4-0.2,0.7-0.3,1.1C13.1,44.1,13,44.1,12.8,44.1z"
			/>
		<path class="st27" d="M13.9,31.7c-0.9,0.5-0.5,2.3-2.1,2.1c-0.4-1.4-0.4-2.7,1-3.7C13.6,30.3,13.9,30.9,13.9,31.7z"/>
		<path class="st28" d="M13.9,31.7c-0.4-0.5-0.7-1-1.1-1.5c0.8-1.1,1.9-1.1,3-0.8C15.1,30.1,14.5,30.9,13.9,31.7z"/>
		<path class="st29" d="M17.7,34.5c-2.1,0.8-0.1-1.9-1.5-1.7c0.5-0.5,0.9-1,1.4-1.4c0.2,0.8,0.3,1.5,0.5,2.3
			C18,33.9,17.9,34.2,17.7,34.5z"/>
		<path class="st30" d="M52.9,44.1c1.5,0,3,0,4.5,0c-4,0.1-8,0.2-12.1,0.2c-9.1,0-18.1-0.1-27.2-0.2c-0.1-0.5,0-0.9,0.5-1.3
			c0.1,0,0.1,0,0.2,0c1.3-0.6,2.7-0.4,4-0.2c0.3,0.2,0.6,0.3,0.8,0.5c-0.3,1.5,0.9,1,1.5,1C34.4,44.1,43.6,44.1,52.9,44.1z"/>
		<path class="st31" d="M18.6,42.8c-0.2,0.4-0.3,0.8-0.5,1.3c-1.5,0.8-2.5,0.4-3-1.3c0.1,0,0.2,0,0.3,0c0.4-0.1,0.6,0.3,0.9,0.3
			c0.4,0,0.8,0.1,1.2-0.2c0.2-0.1,0.4-0.3,0.6-0.3C18.3,42.6,18.4,42.7,18.6,42.8z"/>
		<path class="st32" d="M17.7,43c-0.5,0-0.9,0.1-1.4,0.1c-0.9-0.4-0.7-1-0.4-1.7c0.5-1.2,1.3-2.4,2-3.5c2.2-3.4,4.6-6.6,7.6-9.4
			c1,0,2.1-0.6,2.7,0.6c0.2,0.5-0.1,1-0.3,1.4c-0.7,1.7-1.2,3.5-1.8,5.3c-0.1,0.2-0.1,0.5,0,0.7c0.2-0.2,0.4-0.4,0.5-0.5
			c1.2-2.2,3.1-3.8,4.9-5.5c0.8-0.7,1.5-0.6,2.3,0.1c0.1,0.1,0.1,0.2,0.2,0.4c0.3,0.4,0,0.8-0.1,1.2c-0.5,1.9-0.9,3.9-0.8,5.9
			c0,0.7,0.1,1.3,0.5,1.9c0.1,2.1-1.2,1.2-2.2,1c-0.7-0.1-0.8-0.8-0.9-1.3c-0.2-1.8-0.2-3.5,0.4-5.3c0-0.2,0-0.5,0.1-0.7
			c-0.7,0.1-1,0.7-1.4,1.2c-1.8,2-3.3,4.2-4.6,6.4c-0.6,1-1,1.1-2.1,0.4c-0.4-0.7-0.3-1.4-0.2-2.1c0.3-1.9,0.5-3.8,1.3-5.6
			c0.1-0.4,0.1-0.8,0.2-1.1c-0.5-0.1-0.6,0.4-0.8,0.6C21.1,36.4,19.1,39.6,17.7,43z"/>
		<path class="st33" d="M31.8,42.2c-2.1,0.1-4.1,0.1-6.2,0.2c0.3-0.5,0.5-1,0.8-1.4c1.2-1.7,2.5-3.4,3.7-5c0.1,1.5,0.1,3.1,0.4,4.6
			C30.5,41.1,31.3,41.6,31.8,42.2z"/>
		<path class="st34" d="M22.8,42.6c-1.3,0.1-2.7,0.1-4,0.2c0.2-0.4,0.3-0.9,0.5-1.3c1.2-1.9,2.4-3.8,3.6-5.7
			c-0.2,1.8-0.5,3.6-0.6,5.4C22.2,41.6,22.6,42.1,22.8,42.6z"/>
		<path class="st35" d="M25.4,28.6c-3.4,3.8-6.6,7.7-9.1,12.2c-0.4,0.8-0.9,1.6-0.1,2.4c-0.3-0.1-0.6-0.3-0.9-0.4
			C17.4,37.1,21,32.6,25.4,28.6z"/>
		<path class="st36" d="M17.7,43c1.3-4.1,3.9-7.5,6.7-10.7c0.1-0.1,0.3-0.1,0.4-0.1c-0.1,0.2-0.3,0.5-0.4,0.7
			c-2.5,2.9-4.7,6.1-6.2,9.7C18,42.7,17.8,42.9,17.7,43z"/>
		<path class="st36" d="M23.3,41.9c2,0.6,1.9-1.4,2.7-2.3c1.7-2,3.2-4,4.8-6c0.1-0.1,0.4-0.1,0.5-0.2c-0.1,0.1-0.1,0.3-0.2,0.4
			c-1.9,2.6-3.9,5.1-5.8,7.7c-0.5,0.7-1,1.1-1.9,0.8C23.2,42.2,23.2,42.1,23.3,41.9z"/>
		<path class="st37" d="M33.8,40c-1.8-3.1-0.1-6,0.3-9C34.4,34,32.7,37,33.8,40z"/>
		<path class="st38" d="M26.1,36.6c-0.1,0.2-0.2,0.5-0.3,0.7c0-0.3-0.1-0.6,0-0.8c0.8-2.4,1.6-4.8,2.4-7.3
			C27.5,31.7,26.8,34.2,26.1,36.6z"/>
		<path class="st39" d="M33.9,30.7c-3.8-0.9-4.3,2.9-6.4,4.5c-0.3,0.2-0.5,0.6-0.8,1c1.6-2.6,3.2-5.2,6.4-6.1
			C33.3,30,33.6,30.4,33.9,30.7z"/>
		<path class="st40" d="M23.3,41.9c0,0.1,0.1,0.2,0.1,0.3c-1.1-0.3-1.2-1.4-0.3-5.5c0.2-0.9,0.6-1.8,1-2.7
			C23.8,36.6,22.3,39.1,23.3,41.9z"/>
		<path class="st41" d="M31.1,34.5c0,2.2-1,4.5,0.5,6.6c0.1,0.2,0.1,0.4,0.2,0.6c-0.2-0.2-0.6-0.3-0.7-0.5
			C30.1,38.9,30.2,36.7,31.1,34.5z"/>
		<path class="st42" d="M43.7,36c0,0.4,0,0.7,0,1.1c0,0,0.3,0.1,0.3,0.1c0.7-0.2,1.5-2,1.9-0.2c0.3,1.6-1.5,2.2-2.8,2.6
			c-1.3,0.4-1.6-0.6-1.6-1.7c-0.4-0.1-0.6,0.3-0.8,0.5c-0.6,0.5-1.2,1-2,1.4c-1,0.5-2.1,0.7-3.1,0.1c-1-0.9-1-2.4,0-4
			c0.6-0.2,1.1-0.1,1.6,0.1c0.3,0.2,0.3,0.5,0.3,0.8c0,0.3-0.1,0.6,0.2,0.8c1-0.2,1.8-0.7,2.4-1.4c0.4-0.4,0.7-0.9,1.4-0.8
			C42.2,35.7,43.1,35.4,43.7,36z"/>
		<path class="st43" d="M43.7,36c-0.8-0.1-1.5-0.3-2.3-0.4c-0.3-0.5,0.5-1.1-0.1-1.6c-0.5-0.6-1-0.2-1.4,0c-0.7,0.4-1.3,0.9-1.8,1.6
			c-0.2,0.3-0.3,0.6-0.7,0.5c-0.6-0.1-1.1-0.1-1.7-0.2c-0.1-0.9,0.6-1.4,1.1-1.9c1-1.2,2.2-2,3.8-2.3c0.6-0.1,1.1,0,1.5,0.4
			C44.1,32.7,45.1,33.8,43.7,36z"/>
		<path class="st44" d="M42,32.2c-3.3-0.8-4.9,1.4-6.3,3.8c-0.6,1.3-1.1,2.6,0.2,3.8c0.1,0.1,0.3,0.2,0.2,0.4
			c-1.8-0.6-1.5-2.1-1.1-3.3c0.8-2.8,2.7-4.7,5.7-5.3C41.1,31.5,41.6,32,42,32.2z"/>
		<path class="st45" d="M36.1,40.2c-0.1-0.1-0.1-0.3-0.2-0.4c2.2,0.7,3.6-0.6,5-1.9c0.1-0.1,0.4,0,0.7,0
			C40,39.2,38.5,40.9,36.1,40.2z"/>
		<path class="st46" d="M48.4,35.8c0.1-0.4,0.2-0.8,0.3-1.2c-0.3,0.1-0.6,0.4-0.9,0.4c-0.4,0.1-1.1,0.1-1.1,0
			c-0.5-1.1,0.4-1.7,1.1-2.3c0.8-0.7,1.9-1.6,2.7-0.5c0.7,1,0.8,0.1,1.2,0c0.6,0.1,1,0.3,1.2,0.9c-0.8,1.2-1.7,2.2-2.6,3.4
			C49.7,36.5,49,36.4,48.4,35.8z"/>
		<path class="st47" d="M52.9,33c-0.4-0.3-0.7-0.6-1.1-0.9c1.2-1.4,2.5-2.3,4.3-0.7c0.4,1.3,0.2,1.6-1.1,1.3
			C54.2,32.5,53.6,33.1,52.9,33z"/>
		<path class="st48" d="M48.4,35.8c0.7,0.1,1.4,0.3,2,0.4c-0.1,1.5-1.1,2.6-2.5,2.7C47,37.7,48.5,36.8,48.4,35.8z"/>
		<path class="st49" d="M48,38.9c1.6-0.2,1.9-1.5,2.5-2.7c0.8-1,1.6-2.1,2.5-3.1c0.6-1.5,3.3,1.1,3.1-1.7c0.1,0.5,0.2,1,0.2,1.4
			c-0.4,0-0.8,0.1-1.2,0.1c-2.9,0-3.6,2.5-4.7,4.4C49.8,38.2,49.5,39.4,48,38.9z"/>
		<path class="st50" d="M62.5,30.5c0.1,0.6,0.2,1.1,0.2,1.7c-0.4-0.2-0.8-0.4-1.2-0.6c-1.1-0.3-1.8,0.1-1.6,1.3
			c0.1,0.6,0.3,1.2,0.4,1.7c0,3.1-2.1,4.7-4.9,3.7c-0.2-0.6,0.4-0.7,0.7-0.8c0.6-0.2,1.2-0.4,1.4-1.1c0.8-0.7,0.7-1.6,0.5-2.5
			c-0.5-2.1,0.3-3.7,2.1-4.1C60.9,29.6,61.9,29.5,62.5,30.5z"/>
		<path class="st51" d="M57.6,36.6c0,1.5-1.5,0.9-2.1,1.5c-0.2,0.1-0.3,0.1-0.5,0c-0.4-0.6-0.9-1.2-1.2-1.8
			c-0.1-0.2,0.3-0.6,0.5-0.9c0.5,0.3,0.9,0.6,1.4,1C56.3,36.7,56.9,36.5,57.6,36.6z"/>
		<path class="st35" d="M57.6,36.6c-0.7-0.1-1.3-0.1-2-0.2c2.6,0.2,2.5-1.2,2-3.2c-0.4-1.8,0.6-3.2,2.4-3.6c0.8-0.2,2-0.5,2.4,0.9
			c-1.1-0.9-2.2-0.9-3.3-0.1c-1.2,0.8-1.4,2-1.1,3.4C58.4,34.8,58.6,35.8,57.6,36.6z"/>
		<path class="st52" d="M55,38.1c0.2,0,0.3,0,0.5,0c3.1,0.9,4.5-0.5,4.9-3.5c0.7,1.5,0,2.6-1.1,3.4C57.9,38.9,56.4,39.3,55,38.1z"/>
		<path class="st53" d="M10.3,42.3c-2.3-0.2-1-1.9-1.3-3c0.8-0.4,1.7-0.2,2.5-0.2c0.6,0,1.1,0,1.5-0.5c0,1.4,1.5,3.4-1.4,3.7
			C11.1,42.3,10.7,42.3,10.3,42.3z"/>
		<path class="st54" d="M13,38.7c-1.1,1.9-2.7,0.5-4,0.7C10,37.5,11.6,38.7,13,38.7z"/>
		<path class="st55" d="M41.6,33.9c0.8,0.7-0.1,1.1-0.2,1.6c-1.3,0.8-2.6,1.6-3.8,2.5c-0.3-0.4-0.3-0.9-0.1-1.3
			c0.5-1.4,1.5-2.4,2.8-3C40.7,33.6,41.2,33.5,41.6,33.9z"/>
		<path class="st56" d="M41.6,33.9c-2.8-0.1-3.9,1.6-4.1,4.1c-0.1-0.6-0.1-1.2-0.2-1.8C38.5,35,39.1,32.6,41.6,33.9z"/>
		<path class="st57" d="M11.2,41.4c0.1-0.2,0,0.2-0.1,0.2c-0.6,0-1.2-0.1-1.8-0.2c0.1-0.5,0.3-1,0.4-1.6
			C10,40.6,11.6,39.3,11.2,41.4z"/>
		<path class="st58" d="M41.5,34.7c-1.2,1-2.1,1.7-3,2.4c0,0-0.2-0.1-0.3-0.2c0.8-0.8,1.6-1.7,2.5-2.5C40.7,34.4,41,34.6,41.5,34.7z
			"/>
	</g>
</g>
</svg>
