<?xml version="1.0" encoding="utf-8"?>
<!-- Generator: Adobe Illustrator 23.0.2, SVG Export Plug-In . SVG Version: 6.00 Build 0)  -->
<svg version="1.1" id="Layer_1" xmlns="http://www.w3.org/2000/svg" xmlns:xlink="http://www.w3.org/1999/xlink" x="0px" y="0px"
	 viewBox="0 0 287.7 70.9" style="enable-background:new 0 0 287.7 70.9;" xml:space="preserve">
<style type="text/css">
	.st0{fill:#47291D;}
	.st1{fill:#BD282A;}
	.st2{fill:#BB985B;}
	.st3{fill:#F5DE2F;}
	.st4{fill:#F1D443;}
	.st5{fill:#F0D518;}
	.st6{fill:#F2D823;}
	.st7{fill:#D98925;}
	.st8{fill:#8B3127;}
	.st9{fill:#F4AB22;}
	.st10{fill:#EDB778;}
	.st11{fill:#EBC61B;}
	.st12{fill:#CB4132;}
	.st13{fill:#E2CEB3;}
	.st14{fill:#E8E5DC;}
	.st15{fill:#311C13;}
	.st16{fill:#B52225;}
	.st17{fill:#EE9B21;}
</style>
<g>
	<path class="st0" d="M243.9,7.1c1.3-0.3,2.7-1.1,4-0.9c3.8,0.7,7.5,1.8,11.2,2.7c-0.4,1-0.7,2-1.1,3c-4.7,5.9-7.9,12.2-7.2,20.2
		c0.2,2.5-1.8,5.2-2.7,7.9c-0.4-0.4-0.7-0.8-1.1-1.1c-1.4-1.1-2.8-2.2-4.7-3.6c0.3-2.5,0.8-5.9,1.2-9.3c0.1-0.3,0.2-0.7,0.2-1
		c0.5-0.3,0.9-0.7,1.4-1c2.5-2.8,5-5.6,8.4-9.4c-3.9,0.5-6.2,0.8-8.5,1.2c0-1.9,0-3.7,0-5.9c-6.3,3-10.8,11.6-10.2,17.8
		c0.3,3.5,0.1,7,0.1,10.5c-1.1,0-2.3,0-3.4,0c-7.4,0-7.1,0-7.2-7.4c0-2.6-1.4-5.2-2.2-7.8L222,23c-0.3-0.7-0.6-1.4-0.8-2
		c-1.2-2.5-2.4-4.9-3.9-8.2c-1.5,3-2.4,4.6-3.3,6.3c-0.9,0.4-1.8,0.7-2.6,1.3c-0.1,0.1,0.3,1.1,0.5,1.6c3.1,4.6,6.2,9.3,9.3,13.9
		c-0.8,0.7-1.6,1.3-2.4,2c-3.2,0-6.4-0.1-9.7-0.1c-1.7-2-3.4-4-5.1-6c-0.4-0.8-0.9-1.6-0.9-1.7c-1.5,3.1-2.9,6-4.3,9
		c-2.4-0.2-4.9-0.3-7.3-0.5c-1.1-10.3-2.2-20.5-3.3-30.7l0.4,0c4.1-0.3,8.3-0.6,12.4-0.9l0,0c9.6,2.1,20.6-2.3,29.4,6.2
		c2-6.1,6.4-7.2,12-6.1C242.9,7.2,243.4,7.1,243.9,7.1z"/>
	<path class="st1" d="M87.8,5.4c4.7,0,9.4,0.1,14.2,0.1c0.3,0.2,0.6,0.3,0.8,0.5c2.8,1.3,5.6,2.5,8.4,3.8c-2-0.1-4,0.2-5.9-0.2
		c-3.9-0.8-4.5,1.2-4.3,4.4c0.4,6.1,0.6,12.1,0.9,18.2c0,1.9-0.1,3.9-0.1,5.8c-0.9,0-1.8,0-2.7,0c-0.4-6.6-0.7-13.3-1.2-19.9
		c-0.1-1.1-1.3-2.1-2-3.1c-0.1-0.1-0.2-0.2-0.3-0.3c0.1,0.1,0.3,0.2,0.4,0.2c0.6,8.1,1.3,16.2,1.9,24.3c0.2,3,0,5.5-4.1,4.7
		c0.7-1.6,2-3.2,2.1-4.8c0.1-3.2-0.3-6.5-0.7-9.7c-0.7-5.2-1.6-10.3-2.4-15.4c-4.5-2.4-8.7-1.1-12.9,1c-0.2-1-0.4-2.1-0.5-3.1
		c-0.1-0.6-0.3-1.3-0.4-1.9c-0.3-0.7-0.7-1.4-1-2c-2.8-0.4-5.6-0.8-9.1-1.3c0.4,3.1,0.7,5.2,0.9,7.3c0.1,1.7,0.1,3.3,0.2,5
		c0,1,0,2,0,3c0.2,5.1,0.5,10.2,0.7,15.3c-0.6,1.1-1.3,2.3-1.9,3.4c-1,2.1-2.1,4.2-3.1,6.3c1.7-9.2,3-18.5,1.2-27.9
		c-1-5.3-3.1-9.4-9.1-10.1c-1-0.2-2.1-0.3-3.1-0.5c-0.9,0-1.8,0-2.7,0c-5,0.9-10.1,1.7-15.1,2.6c-0.4-0.9-0.8-1.7-1.2-2.6
		c-0.7,0.8-0.8,1.5-0.4,1.9c0.4,0.4,1.1,0.5,1.6,0.7c-3.3,3.8-1.8,8.4-1.9,12.7c-0.3,0.4-0.6,0.7-1,1.1c-0.3-0.4-0.6-0.8-1-1.1
		c-1.4-3.9-2.8-7.9-4.2-11.8c0.5-1.7,0.9-3.4,1.4-5c0.5-0.5,1-1.1,1.5-1.6c0.7,0,1.4,0,2.1,0c4,0,7.9,0,11.9,0c3.7,0,7.4,0,11.1,0
		c0.3,0,0.6,0,0.9,0c2,0,4.1,0,6.1,0c0.6,0,1.3,0,1.9,0c2.4,0,4.7,0,7.1,0c0.3,0,0.6,0,0.9,0c2.7,0,5.4,0,8.1,0
		C84,5.4,85.9,5.4,87.8,5.4z"/>
	<path class="st2" d="M239.8,62c-2.2,0.5-4.5,1.4-6.7,1.4c-42.7,0.1-85.5,0.2-128.2,0c-16.7-0.1-33.5-0.7-50.2-1
		c1.1-0.2,2.3-0.5,3.4-0.5c14.1-0.4,28.2-0.7,42.3-1.1c1.6,0,3.1-0.6,4.7-0.8c0.4-0.6,0.8-1.2,1.1-1.8c3.7,3.8,8.4,1.1,12.6,1.8
		c10,0.1,20,0.3,30,0.4c2.4,0,4.9-0.5,7.3-0.4c4.3,0.1,8.5,0.5,12.8,0.8c6.7-0.3,13.4-0.5,20-0.8c2,0.2,4.1,0.7,6.1,0.6
		c8.7-0.1,17.4-0.4,26.1-0.7c3-0.3,6-0.7,9.1-1c0.9-0.3,1.8-0.6,2.6-1C235.2,59.3,237.5,60.7,239.8,62z"/>
	<path class="st3" d="M267.7,5.9c1.8-4.6,13.5-7.8,17.1-4.6c0.6,0.5,0.9,1.7,1,2.6c0.4,7.1,0.9,14.2,1.1,21.4c0,2-1.1,4-1.9,6.5
		c3.9,3.7,1.3,9.1,1.6,14.1c-1.8-0.5-4.4-0.3-5.2-1.5c-2.5-3.7-5.8-3.6-9.5-3.3c-1.1-0.7-2.2-1.4-3.3-2c1.9-0.2,3.9-0.4,5.8-0.6
		c-1.4-1.3-2.8-1.2-3.9-1.7c-1-0.5-2-1.6-2.3-2.6c-0.1-0.5,1.3-1.9,2.2-2.1c3.9-1,7.8-1.7,12-2.5c1.9-4.4-0.2-7-4.5-8.6
		c-3.5-1.9-5.8-7.2-11.1-4c1.9-3.3,3.8-6.5,6.4-11C270.7,5.9,269.2,5.9,267.7,5.9z M281.9,4.8c-0.4-0.1-0.7-0.1-1.1-0.2
		c-1,1.5-2.2,2.9-2.9,4.5c-0.4,1-0.4,2.5,0,3.5c0.2,0.5,2.1,1,2.6,0.7c0.8-0.6,1.3-1.8,1.4-2.8C282.1,8.6,281.9,6.7,281.9,4.8z"/>
	<path class="st4" d="M111.2,9.7c-2.8-1.3-5.6-2.5-8.4-3.8c0-0.2,0-0.4,0-0.6c16.9-0.1,33.9-0.2,50.8-0.3C182.5,5,211.5,4.9,240.4,5
		c1.2,0,4.3-1.8,3.5,2.1c-0.5,0-1,0.1-1.5,0c-5.5-1.2-10,0-12,6.1C221.6,4.7,210.7,9.1,201,7c-1.4-0.4-2.8-1-4.1-1
		c-7.3-0.1-14.6,0-22,0.1c-1.7,0-3.5-0.3-4.9,0.3c-1,0.4-1.3,2.2-2,3.4c-1.9-0.3-3.8-0.8-5.6-0.7c-8.8,0.3-17.5,0.7-26.3,1.1
		c-0.7-0.4-1.4-0.9-2.2-1.3c-4-0.1-7.9-0.3-11.9-0.2c-0.4,0-0.8,1.5-1.3,2.2c-2,0.1-3.9,0.1-5.9,0.2
		C113.6,10.6,112.4,10.2,111.2,9.7z"/>
	<path class="st5" d="M276,69.8c-1.3-0.1-2.7-0.1-4-0.2c-1.3-0.8-3.8-1.6-3.8-2.3c-0.1-6.3-4-9.3-8.9-11.8c-0.5-0.2-0.7-1-1-1.4
		c2.6-3.3,5.5-5.4,9.6-5.2c4-0.4,8-0.8,12.1-1.2c3.9,2.3,7.3,4.9,6.3,10.2c0,0.2,0.3,0.5,0.5,0.8c0,0.7,0.1,1.4,0.1,2.1
		c-0.5,4.5-3.4,6.2-7.4,7C278.2,68.2,277.1,69.2,276,69.8z"/>
	<path class="st6" d="M267.9,48.9c-4.1-0.2-7,1.9-9.6,5.2c0.3,0.4,0.5,1.1,1,1.4c4.9,2.5,8.8,5.5,8.9,11.8c0,0.8,2.5,1.6,3.8,2.3
		c-1.7,0.2-3.3,0.4-5,0.5c-0.4-0.6-0.9-1.2-1.7-2.4c-0.2,1.5-0.3,2.2-0.4,3l-0.5,0.1c0,0-0.5-0.1-0.5-0.1c-0.6-1.9-1.2-3.7-1.9-5.9
		c-1.9,1.8-3.1,2.9-4.3,4.1c-0.3-0.4-0.7-0.7-1-1.1c-0.5-2.9-1-5.8-1.7-10.1c-4.2,4.6-6.6,3.2-8.6-0.4c1.9-0.4,3.6-0.7,5.2-1.1
		c0-0.3-0.1-0.5-0.1-0.8c-1.8-0.5-3.7-0.9-5.5-1.4c1.5-0.4,3.1-0.7,4.6-1.1c0.6-0.2,1.7-0.6,1.7-0.7c-1.2-4.8,2.7-4.6,5.8-5.5
		c-0.4-1.3-0.8-2.6-1.2-3.8c1.9-0.4,3.8-0.7,5.7-1.1c-2,3.7,2.7,2.5,3.3,4.4C266.5,47.2,267.2,48.1,267.9,48.9z"/>
	<path class="st6" d="M18.9,68.5c-0.7,0.1-1.4,0.1-2.1,0.2c-1.6,0.3-3.3,0.6-4.9,0.9c-0.7,0.1-1.3,0.3-2,0.4C9.1,68,8.3,66,7.4,64.1
		c-0.7-1.4-1.6-2.8-2.4-4.2c-0.1-5.8-0.1-11.5-0.2-17.3C4.9,35.4,5,28.2,5.2,20.9C6.1,21.3,7,21.6,8,22c-0.1,0.6-0.1,1.3-0.2,1.9
		C7.5,26.6,7,29.3,7,32c0,1.8,0.6,3.7,0.9,5.6c1.6-0.3,3.2-0.5,6-1c-1.8,2-2.9,3.3-4,4.5c-0.9,2.6-1.9,5.1-2.8,7.7
		c1.3,0.4,2.5,0.8,3.8,1.2c0,1.3,0,2.6,0,4c-0.4,1.2-1.5,2.8-1.1,3.5c0.7,1.2,2.3,2.1,3.7,2.5c2.3,0.7,4.7,1.1,7.1,1.5
		c1.8,0.3,3.6,0.4,5.3,0.6c-0.9,1.3-1.7,2.8-2.8,3.9C21.9,66.9,20.3,67.6,18.9,68.5z"/>
	<path class="st6" d="M30.3,6.9c-0.5,1.7-0.9,3.4-1.4,5c-2.3,0-4.7,0-7,0c-2,0.4-4,0.7-6.1,1.1c-0.7,0-1.3,0-2,0
		c-1.3,1.3-2.6,2.6-3.9,4c0.3,1,0.6,2,0.9,3c-2,0-3.9,0-5.9,0C5,19,4.9,18.1,4.8,17.2c0.4-1.4,0.8-2.8,1.1-4.2
		c2.3,0.2,3.9,0,3.3-3.3C9,8.3,10.3,6,11.5,5c2.4-1.8,5.2-3,7.9-4.5c3.5,1.6,7,3.1,10.5,4.7C30,5.8,30.2,6.4,30.3,6.9z"/>
	<path class="st7" d="M246,54c1.8,0.5,3.7,0.9,5.5,1.4c0,0.3,0.1,0.5,0.1,0.8c-1.6,0.3-3.2,0.7-5.2,1.1c2,3.7,4.4,5,8.6,0.4
		c0.7,4.4,1.2,7.3,1.7,10.1c-3.7-2-7.3-4-11-6c-1.3,0-2.6,0-3.8,0c-0.7,0-1.4,0-2.2,0.1c-2.3-1.3-4.7-2.6-7-4
		c0.1-1.4,0.3-2.9,0.3-3.4c2.2-0.6,4-1.2,5.8-1.7c0.6,0,1.3,0,1.9,0c1,0.1,2,0.1,3,0.2l0.1-0.2c0.4,0.1,0.7,0.2,1.1,0.3
		C245.4,53.4,245.7,53.7,246,54z"/>
	<path class="st8" d="M105.1,59.9c-1.6,0.3-3.1,0.8-4.7,0.8c-14.1,0.4-28.2,0.7-42.3,1.1c-1.1,0-2.3,0.3-3.4,0.5
		c-0.8,0-1.7,0-2.5,0.1c-0.8,0.1-1.5,0.2-2.3,0.2c-1.6,0.2-3.4,0.2-4.9,0.7c-2.6,0.9-4-0.2-5-2.4c2-1.3,3.9-2.6,5.9-3.9
		c4,0.2,7.9,0.5,11.9,0.7c1.3,0.7,2.5,1.9,3.8,2c2.4,0.3,4.9,0.1,7.4,0.1c5,0,10,0,15,0C91,59.9,98.1,59.9,105.1,59.9z"/>
	<path class="st3" d="M18.9,68.5c1.4-0.9,3-1.6,4.2-2.7c1.1-1.1,1.9-2.6,2.8-3.9c0.3-1.3,0.6-2.6,1-3.9c0.9-1.5,2.9-3.4,2.6-4.5
		c-1.5-4.9,1.4-3.8,4-3.5c0.1,0.6,0.3,1.3,0.4,1.9c-0.2,0.4-0.4,0.8-0.6,1.1c-0.1,0.3-0.2,0.6-0.3,0.9c0,2-0.1,3.9-0.1,5.9
		c0.3,0.4,0.5,0.8,0.8,1.2c0.3,0.3,0.5,0.6,0.8,0.9C31.8,66.4,24.6,69.4,18.9,68.5z"/>
	<path class="st9" d="M267.7,5.9c1.5,0,3,0,5.5,0c-2.6,4.5-4.5,7.8-6.4,11c-2.6,0-5.3,0-7.9,0c1.2-1.7,2.3-3.5,3.7-5.5
		c-1.9,0.2-3.3,0.4-4.7,0.6c0.4-1,0.7-2,1.1-3C262.3,9,265.8,9.8,267.7,5.9z"/>
	<path class="st10" d="M286.7,58.8c-0.2-0.3-0.6-0.6-0.5-0.8c1-5.3-2.4-7.9-6.3-10.2c-3-0.9-6-1.9-9-2.8c0.3-1.3,0.7-2.5,1-3.8
		c3.6-0.4,7-0.4,9.5,3.3c0.8,1.1,3.4,1,5.2,1.5C286.6,50.2,286.7,54.5,286.7,58.8z"/>
	<path class="st4" d="M4.8,42.6C4.8,48.4,4.9,54.2,5,59.9c0,2.3,0,4.7,0,7c-1.4,0.4-2.8,0.7-4.9,1.3C0.1,59,2.4,50.8,4.8,42.6z"/>
	<path class="st1" d="M33.9,51.9c-0.1-0.6-0.3-1.3-0.4-1.9c0.5-1.4,0.9-2.7,1.4-4.1c1-0.3,2-0.6,3-1c2.1,3.3,4.2,6.7,6.2,10
		c0.6,0.7,1.2,1.4,1.8,2.1c-2,1.3-3.9,2.6-5.9,3.9c-1,0-1.9,0.1-2.9,0.1c-1.1,0-2.3,0.1-3.4,0.1c-0.3-0.4-0.5-0.8-0.8-1.2
		c3-1.5,5.9-3,8.9-4.6C40.3,50.3,36.6,52.5,33.9,51.9z"/>
	<path class="st4" d="M19.4,0.6C16.7,2,13.9,3.2,11.5,5C10.3,6,9,8.3,9.3,9.7c0.5,3.2-1,3.4-3.3,3.3c-0.4-2.7-0.7-5.5-1.1-8.2
		C6,3.8,7,2.2,8.3,1.9C11.9,1.2,15.7,1,19.4,0.6z"/>
	<path class="st3" d="M4.9,67c0-2.3,0-4.7,0-7c0.8,1.4,1.7,2.7,2.4,4.2C8.3,66,9.1,68,9.9,69.9C5.7,73.2,6.8,67.6,4.9,67z"/>
	<path class="st3" d="M4.8,4.7c0.4,2.7,0.7,5.5,1.1,8.2c-0.4,1.4-0.8,2.8-1.1,4.2C4.2,13,0.3,8.9,4.8,4.7z"/>
	<path class="st6" d="M276,69.8c1.1-0.6,2.2-1.5,3.5-1.8c4-0.8,7-2.6,7.4-7c1.7,3.7,0.9,6.2-3.4,7C281,68.5,278.5,69.2,276,69.8z"/>
	<path class="st4" d="M257.8,69c1.2-1.1,2.4-2.3,4.3-4.1c0.7,2.2,1.3,4,1.9,5.9C261.9,70.2,259.8,69.6,257.8,69z"/>
	<path class="st11" d="M5,19.9c2,0,3.9,0,5.9,0c0.5,0.3,1,0.6,1.5,0.9c-0.4,0.4-0.8,1-1.2,1.1C10.2,22,9.1,21.9,8,22
		c-0.9-0.3-1.9-0.7-2.8-1C5.1,20.6,5.1,20.3,5,19.9z"/>
	<path class="st12" d="M45.9,5.3c-4,0-7.9,0-11.9,0C38,5.3,41.9,5.3,45.9,5.3z"/>
	<path class="st2" d="M242,61.9c1.3,0,2.6,0,3.8,0C244.6,61.9,243.3,61.9,242,61.9z"/>
	<path class="st3" d="M11.9,69.5c1.6-0.3,3.3-0.6,4.9-0.9C15.2,68.9,13.6,69.2,11.9,69.5z"/>
	<path class="st12" d="M87.8,5.4c-1.9,0-3.9,0-5.8,0C84,5.4,85.9,5.4,87.8,5.4z"/>
	<path class="st4" d="M264.9,70.8c0.1-0.7,0.2-1.5,0.4-3c0.9,1.2,1.3,1.8,1.7,2.4C266.3,70.4,265.6,70.6,264.9,70.8z"/>
	<path class="st12" d="M30.3,6.9c-0.2-0.6-0.3-1.1-0.5-1.7c0.7,0,1.3,0,2,0.1C31.4,5.8,30.9,6.4,30.3,6.9z"/>
	<path class="st12" d="M33.7,61.1c1.1,0,2.3-0.1,3.4-0.1c-0.9,0.3-1.8,0.7-2.6,1C34.2,61.7,34,61.4,33.7,61.1z"/>
	<path class="st12" d="M65.9,5.4c-0.6,0-1.3,0-1.9,0C64.6,5.3,65.2,5.3,65.9,5.4z"/>
	<path class="st2" d="M49.9,62.7c0.8-0.1,1.5-0.2,2.3-0.2C51.4,62.5,50.7,62.6,49.9,62.7z"/>
	<path class="st12" d="M73.9,5.3c-0.3,0-0.6,0-0.9,0C73.3,5.1,73.6,5.1,73.9,5.3z"/>
	<path class="st12" d="M102.8,5.4c0,0.2,0,0.4,0,0.6c-0.3-0.2-0.6-0.3-0.8-0.5C102.2,5.2,102.5,5.2,102.8,5.4z"/>
	<path class="st12" d="M57.9,5.3c-0.3,0-0.6,0-0.9,0C57.3,5.3,57.6,5.3,57.9,5.3z"/>
	<path class="st12" d="M234.8,38c0-3.5,0.2-7-0.1-10.5c-0.6-6.2,3.9-14.8,10.2-17.8c0,2.2,0,4.1,0,5.9c-0.3,1-0.6,2-0.9,3.1
		c-0.7,0-1.4,0-2.1-0.1c-1.1,1.1-3.1,2.1-3.3,3.2c-0.5,5.4-0.5,10.9-0.7,16.4c-0.4,1.2-0.8,2.4-1.2,3.5c-5.2-0.3-10.5-0.5-15.7-0.8
		c-2.5,0-5,0.3-7.3-0.2c-1.7-0.4-3-2-4.5-3c3.2,0,6.4,0.1,9.7,0.1C224.1,37.9,229.5,38,234.8,38z"/>
	<path class="st7" d="M258,11.9c1.4-0.2,2.8-0.3,4.7-0.6c-1.4,2.1-2.6,3.8-3.7,5.5c-3.7,2.8-3.5,6.3-2.1,10.1
		c-0.1,1.8-0.3,3.6-0.1,5.3c0.2,1.9,0.8,3.7,1.3,5.5c-1.6,1.3-3.3,2.6-4.9,3.9c-2,1-4,2.1-5.9,3.1c0.3-1.6,0.6-3.3,0.9-4.9
		c1-2.6,2.9-5.3,2.7-7.9C250.1,24.2,253.3,17.9,258,11.9z"/>
	<path class="st9" d="M209.1,37.8c1.5,1.1,2.9,2.7,4.5,3c2.3,0.5,4.9,0.2,7.3,0.2c-3,1.6-6,3.3-9,4.9c-5.9-0.2-11.9-0.3-17.8-0.7
		c-1.5-0.1-3-1.1-4.5-1.6c2.7-0.4,5.4-1.5,8.1-1.2c5,0.5,6.3-0.3,6.2-5.4c0-1.7,0-3.5,0-5.3C205.7,33.8,207.4,35.8,209.1,37.8z"/>
	<path class="st9" d="M221.2,35.9c-3.1-4.6-6.2-9.3-9.3-13.9c0.7-1,1.4-1.9,2.1-2.9c0.9-1.7,1.7-3.4,3.3-6.3
		c1.6,3.2,2.8,5.7,3.9,8.2c0.3,0.7,0.6,1.4,0.8,2c0,0-0.1-0.1-0.1-0.1c0.3,4.1,0.6,8.2,0.8,12.3C222.8,35.4,221.7,35.6,221.2,35.9z"
		/>
	<path class="st13" d="M241.9,18.7c0.7,0,1.4,0,2.1,0.1c0.3,1.7,0.7,3.5,1,5.2c-0.5,0.3-0.9,0.7-1.4,1c-0.1,0.3-0.2,0.7-0.2,1
		c-0.4,3.4-0.9,6.7-1.2,9.3c1.9,1.5,3.3,2.5,4.7,3.6c-1.8,0.1-3.6,0.2-5.6,0.3c-0.7,3-1.4,5.8-2.2,9.2c3.3-0.2,6-0.4,8.8-0.5
		c-0.3,1.3-0.7,2.7-1,4c-1,0.1-2,0.2-3,0.3c-1.7-0.1-3.3-0.2-5-0.3c0,0,0,0,0,0c-0.6-0.8-1.3-1.5-1.9-2.3c-0.1-2.6-0.2-5.2-0.4-7.8
		c0.4-1.2,0.8-2.4,1.2-3.5c0.6-0.7,1.8-1.2,1.9-2C240.6,30.5,241.2,24.6,241.9,18.7z"/>
	<path class="st14" d="M188.2,7.9c1.1,10.2,2.2,20.4,3.3,30.7c2.4,0.2,4.9,0.3,7.3,0.5c-6.3,0.8-12.6,1.6-18.9,2.4
		c-0.3-1.2-0.6-2.5-1-3.7c2.9,3.6,6.2,2,10,0.5c-1.2-10.1-2.4-20.2-3.5-30.3C186.4,8,187.3,7.9,188.2,7.9z"/>
	<path class="st12" d="M180,41.5c6.3-0.8,12.6-1.6,18.9-2.4c1.4-3,2.8-5.9,4.3-9c0.1,0.1,0.5,0.9,0.9,1.7c0,1.7-0.1,3.5,0,5.2
		c0.1,5-1.2,5.9-6.2,5.4c-2.6-0.3-5.4,0.8-8.1,1.2c-0.9,0.1-1.9,0.2-2.8,0.3c-0.6,0-1.3-0.1-1.9-0.1C183.3,43.1,181.6,42.3,180,41.5
		z"/>
	<path class="st15" d="M247.9,47.8c-2.8,0.2-5.5,0.3-8.8,0.5c0.8-3.5,1.5-6.3,2.2-9.2c2-0.1,3.8-0.2,5.6-0.3
		c0.4,0.4,0.7,0.8,1.1,1.1c-0.3,1.6-0.6,3.3-0.9,4.9C247.4,45.9,247.6,46.9,247.9,47.8z"/>
	<path class="st14" d="M221.2,35.9c0.6-0.2,1.6-0.5,1.6-0.7c-0.2-4.1-0.5-8.2-0.8-12.3c0.8,2.6,2.1,5.2,2.2,7.8
		c0.1,7.4-0.1,7.4,7.2,7.4c1.1,0,2.3,0,3.4,0c-5.3,0-10.7-0.1-16-0.1C219.6,37.2,220.4,36.6,221.2,35.9z"/>
	<path class="st2" d="M245,24c-0.3-1.7-0.7-3.5-1-5.2c0.3-1,0.6-2,0.9-3.1c2.3-0.3,4.6-0.6,8.5-1.2C250,18.4,247.5,21.2,245,24z"/>
	<path class="st9" d="M188.2,7.9c-0.9,0-1.8,0-2.8,0.1c0,0-0.1,0-0.1,0c-3.5-0.3-6.9-0.6-10.4-0.9c0-0.4-0.1-0.7-0.1-1.1
		c7.3,0,14.6-0.1,22-0.1c1.4,0,2.8,0.7,4.1,1c0,0,0,0,0,0c-4.1,0.3-8.3,0.6-12.4,0.9C188.6,7.9,188.2,7.9,188.2,7.9z"/>
	<path class="st10" d="M188.6,7.9c4.1-0.3,8.3-0.6,12.4-0.9C196.9,7.3,192.8,7.6,188.6,7.9z"/>
	<path class="st13" d="M214,19.1c-0.7,1-1.4,1.9-2.1,2.9c-0.2-0.6-0.6-1.5-0.5-1.6C212.2,19.8,213.1,19.5,214,19.1z"/>
	<path class="st14" d="M222,23c-0.3-0.7-0.6-1.4-0.8-2C221.5,21.6,221.7,22.3,222,23z"/>
	<path class="st2" d="M243.4,26c0.1-0.3,0.2-0.7,0.2-1C243.6,25.3,243.5,25.7,243.4,26z"/>
	<path class="st0" d="M120.8,10.8c0.4-0.8,0.8-2.2,1.3-2.2c4-0.1,7.9,0.1,11.9,0.2c-0.3,0.8-0.9,1.7-0.9,2.5
		c0.6,9.2,1.3,18.4,2,27.7c-0.7,1.6-1.3,3.1-2,4.8c-5-2.8-8.9-6-8.2-12.5c-0.4-0.1-0.8-0.3-1.3-0.4c-1.2,1.4-2.3,2.7-3.5,4.1
		c-0.6,0.4-1.3,0.8-1.9,1.3c-5.1-3.8-3.3,2.2-5,3.5c-7.1,1.4-6.5-5.1-8.7-9.2c-0.3,1.3-0.5,2.1-0.7,2.9c-0.6-0.4-1.2-0.8-1.8-1.2
		c-0.3-6.1-0.5-12.2-0.9-18.2c-0.2-3.2,0.4-5.2,4.3-4.4c1.9,0.4,3.9,0.2,5.9,0.2c1.2,0.4,2.4,0.8,3.6,1.2c0,2-0.2,4.1,0.2,5.9
		c0.3,1.4,1.7,2.5,2.5,3.7c1.5-1.4,3.7-2.5,4.3-4.2C122.5,14.9,121.2,12.7,120.8,10.8z"/>
	<path class="st14" d="M57.9,8.9c6,0.7,8,4.9,9.1,10.1c1.8,9.4,0.5,18.7-1.2,27.9c0,0,0.1,0,0.1,0c-0.8,1.1-1.5,2.1-2.3,3.2
		c-0.3,0.1-0.5,0.3-0.5,0.6c-0.9,0.8-1.8,1.5-2.6,2.3c-4.6,2-9.1,4.5-14.5,2.8C45,53.4,44,51,42.9,48c2.5-1.1,4.8-2.1,7.1-3.1
		c0,0,0.5,0,0.5,0C53,47.3,55,46.1,57,44c0.6-0.5,1.7-0.9,1.7-1.5c0.7-9.2-0.2-18.2-3.6-27c-0.1,1.1-0.2,2.2-0.3,3.3
		c-0.9-1.4-1.9-2.7-2.8-4.1c-1.4-0.3-3.4-1.2-3.9-0.7c-1.2,1.3-1.9,3.3-2.4,5.1c-0.3,1.2,0.8,3.2,0.2,3.9c-2.2,2.5-0.7,4.2,0.8,6
		l0-0.1c0.4,1.1,0.7,2.1,1.1,3.2c-0.1,2.2-0.1,4.5-0.2,6.7c-2.2,2-4.4,4.1-6.6,6.1c-0.5-0.3-0.9-0.6-1.4-0.9c0-2-0.1-4,0-6
		c0.1-1.7,0.3-3.4,0.5-5.1c-0.9-3.6-2.1-7.3-2.7-11c-0.7-4.4-0.3-8.5,5.1-10.2c3.2-1,6.3-2.3,9.5-3.5c0.9,0,1.8,0,2.7,0
		C55.8,8.6,56.9,8.7,57.9,8.9z"/>
	<path class="st14" d="M77.9,7.9c0.3,0.7,0.7,1.4,1,2c0.1,0.6,0.3,1.3,0.4,1.9c0.2,1,0.4,2.1,0.5,3.1c0.1,1.3,0.3,2.6,0.3,2.7
		c4.6-1.3,8.6-2.5,12.6-3.6c0.8,5.1,1.7,10.3,2.4,15.4c0.4,3.2,0.8,6.5,0.7,9.7c-0.1,1.6-1.3,3.2-2.1,4.8c0,0,0.1,0,0.1,0
		c-2,0-3.9,0-5.9,0c-0.4-4-0.6-8.1-1.3-12.1c-0.5-3-1.7-6-2.6-8.9l0-0.1c-0.8-0.1-2.3-0.5-2.3-0.3c-0.5,1.7-1.2,3.4-1.2,5.1
		c0,6.4,0.2,12.9,0.4,19.3c-2,0.4-4,0.9-6.1,1.3c-0.8-2.3-1.5-4.6-2.3-6.9c-0.2-7.3-0.5-14.6-0.7-21.9c0-0.1-0.6-0.2-0.9-0.3
		c-0.3,0-0.6-0.1-1-0.1c-0.1-1.7-0.1-3.3-0.2-5c1.1-1.7,2.1-3.5,3.6-6C74.4,7.9,76.2,7.9,77.9,7.9z"/>
	<path class="st11" d="M33.2,23.7c0.3,0.4,0.6,0.8,1,1.1c0.2,2.3,0.4,4.6,0.5,7c-0.9-1.1-1.8-2.3-2.5-3c-1.9,0.5-4,1.7-5.3,1.1
		c-2.5-1.1-5-3-6.7-5.1c-1.1-1.4-0.9-3.9-1.3-5.9c1,0,2.1,0,3.1-0.1c1.7,1.6,3.4,3.3,5.3,5.1c0.3-0.6,0.8-1.6,1.3-2.5
		C30.2,22.3,31.7,23,33.2,23.7z"/>
	<path class="st0" d="M46,55.8c5.3,1.7,9.8-0.8,14.5-2.8c0.9-0.8,1.8-1.5,2.6-2.3c0.1-0.3,0.2-0.5,0.5-0.6c0.8-1.1,1.5-2.1,2.3-3.2
		c0,0-0.1,0-0.1,0c1-2.1,2-4.2,3.1-6.3c0.6-1.2,1.2-2.3,1.9-3.4c0.1,1,0.1,1.9,0.2,2.9c0.8,9.8-5,14.7-13.2,17.8
		c-4-0.2-7.9-0.5-11.9-0.7c-0.6-0.7-1.2-1.4-1.8-2.1C44.7,55.2,45.3,55.5,46,55.8z"/>
	<path class="st0" d="M93.8,43.9c4.1,0.8,4.3-1.7,4.1-4.7c-0.7-8.1-1.3-16.2-1.9-24.3l0,0c0.7,1,1.9,2,2,3.1
		c0.6,6.6,0.9,13.2,1.2,19.9c0.9,1.8,1.9,3.6,2.8,5.5l0,0.2c-3.5,3.5-10.4,5-14.7,3.2c2.4-1,4.6-1.9,6.7-2.8L93.8,43.9z"/>
	<path class="st7" d="M33.2,23.7c-1.5-0.7-3-1.4-4.6-2.2c-0.4,0.8-1,1.8-1.3,2.5c-1.9-1.8-3.6-3.5-5.3-5.1c0-2.3,0-4.6-0.1-6.9
		c2.3,0,4.7,0,7,0C30.3,15.9,31.8,19.8,33.2,23.7z"/>
	<path class="st10" d="M52.1,8.4c-3.2,1.2-6.3,2.5-9.5,3.5c-5.4,1.6-5.8,5.8-5.1,10.2c0.6,3.7,1.8,7.3,2.7,11
		c-0.7,1-1.4,1.9-2.1,2.9c-1-4.1-2-8.1-3-12.2c0.1-4.3-1.4-8.9,1.9-12.7l0,0C42.1,10.1,47.1,9.3,52.1,8.4z"/>
	<path class="st12" d="M35.1,23.8c1,4.1,2,8.1,3,12.2c-0.1,3-0.2,6-0.2,9c-1,0.3-2,0.6-3,1c-0.7-2-1.4-4-2-5.9
		c0.6-1.4,1.3-2.8,1.6-4.3c0.3-1.2,0.2-2.6,0.2-3.8c-0.2-2.3-0.4-4.6-0.5-7C34.4,24.5,34.8,24.1,35.1,23.8z"/>
	<path class="st10" d="M70.9,40c-0.1-1-0.1-1.9-0.2-2.9C70.5,32.1,70.3,27,70,21.9c0.3-1,0.6-1.9,1-2.9c0.3,0.1,0.9,0.2,0.9,0.3
		c0.3,7.3,0.5,14.6,0.7,21.9C72.1,40.8,71.5,40.4,70.9,40z"/>
	<path class="st13" d="M102,43.5c0,0,0-0.2,0-0.2c-0.1-1.8-0.1-3.6-0.2-5.4c0-1.9,0.1-3.9,0.1-5.8c0.6,0.4,1.2,0.8,1.8,1.2
		c0.5,5.2,0.9,10.4,1.4,15.6c0.2,1.7,0.3,3.3,0.5,5c-0.8-0.4-2-0.7-2.2-1.3C102.8,49.6,102.4,46.6,102,43.5z"/>
	<path class="st13" d="M92.7,14c-4,1.2-8,2.3-12.6,3.6c0-0.1-0.1-1.4-0.3-2.7C84,12.8,88.2,11.5,92.7,14z"/>
	<path class="st13" d="M77.9,7.9c-1.8,0-3.5,0-4.5,0c-1.5,2.5-2.6,4.3-3.6,6c-0.3-2.1-0.5-4.2-0.9-7.3C72.4,7.1,75.2,7.5,77.9,7.9z"
		/>
	<path class="st16" d="M101.8,37.9c0.1,1.8,0.1,3.6,0.2,5.4c-0.9-1.8-1.9-3.6-2.8-5.4C100,37.9,100.9,37.9,101.8,37.9z"/>
	<path class="st12" d="M37,11c-0.6-0.2-1.3-0.3-1.6-0.7c-0.3-0.3-0.2-1.1,0.4-1.9C36.2,9.3,36.6,10.2,37,11C37,11,37,11,37,11z"/>
	<path class="st10" d="M57.9,8.9c-1-0.2-2.1-0.3-3.1-0.5C55.8,8.6,56.9,8.7,57.9,8.9z"/>
	<path class="st13" d="M71,19c-0.3,1-0.6,1.9-1,2.9c0-1,0-2,0-3C70.4,18.9,70.7,19,71,19z"/>
	<path class="st13" d="M79.3,11.8c-0.1-0.6-0.3-1.3-0.4-1.9C79.1,10.6,79.2,11.2,79.3,11.8z"/>
	<path class="st0" d="M95.9,14.9c-0.1-0.1-0.3-0.2-0.4-0.2C95.7,14.8,95.8,14.9,95.9,14.9C95.9,15,95.9,14.9,95.9,14.9z"/>
	<path class="st11" d="M168.9,60.8c-4.3-0.3-8.5-0.7-12.8-0.8c-2.4-0.1-4.8,0.4-7.3,0.4c-10-0.1-20-0.2-30-0.4
		c5.2-0.7,10.3-1.4,15.8-2.1c1.5-3.4-1.2-4.2-3.8-4.7c-1.9-0.4-4.2,0.1-3.8-3.1c2.7-0.4,5.4-0.7,8.1-1.1c1.3-0.1,2.7-0.2,4-0.3
		c0.6-0.3,1.2-0.5,1.8-0.8c1,0.3,2,0.6,3,0.9c2.2,0.6,4.3,1.4,6.5,1.8c4.5,0.6,9,0.9,13.6,1.4c2.3,0,4.6-0.2,6.8,0.2
		c1.7,0.3,3.4,1.7,5.1,1.6c3.1-0.1,6.2-1.1,9.3-1.3c1.2-0.1,2.5,0.9,3.7,1.4c-6.7,1.2-13.4,2.4-20.1,3.7
		C168.8,58.5,168.9,59.7,168.9,60.8z"/>
	<path class="st5" d="M236.7,41.9c0.1,2.6,0.2,5.2,0.4,7.8c0.6,0.8,1.3,1.5,1.9,2.3c0,0,0,0,0,0c0,0.3,0,0.7,0,1
		c-1.8,0.5-3.6,1-5.8,1.7c-0.1,0.6-0.2,2-0.3,3.4c-0.9,0.3-1.8,0.6-2.6,1c-0.8-2.7-1.5-5.3-2.3-8c0.3-1.2,0.5-2.5,0.9-4.2
		c-4.6,0.8-8.2,1.5-11.9,2.1c-3.7,2-7.4,4-11.1,6c-2.6-0.3-5.2-0.7-7.7-1c-0.6-1.3-1.3-2.6-2.2-4.4c5.2-1.2,10.6-2.3,16-3.5
		c3-1.6,6-3.3,9-4.9C226.2,41.3,231.5,41.6,236.7,41.9z"/>
	<path class="st16" d="M102,43.5c0.5,3,0.8,6.1,1.5,9.1c0.1,0.6,1.4,0.9,2.2,1.3c1.8,0.3,3.5,0.6,5.3,0.9c-1.5,1.1-3.1,2.3-4.6,3.4
		c-0.4,0.6-0.8,1.2-1.1,1.8c-7.1,0-14.2-0.1-21.2-0.1c2.7-2.1,5.5-4.3,9.3-7.3c-3-0.3-5.3-0.5-7.6-0.7c-2.3-0.3-4.5-0.6-6.8-1
		c1.1-0.5,2.2-1.3,3.4-1.5c3.4-0.7,4.2-2.4,2.9-5.5c1,0,1.9,0,2.9,0c2,0,3.9,0,5.9,0c-2.2,0.9-4.3,1.8-6.7,2.8
		C91.6,48.6,98.4,47,102,43.5z"/>
	<path class="st11" d="M216.9,48.9c3.6-0.7,7.3-1.3,11.9-2.1c-0.4,1.7-0.6,3-0.9,4.2c-2.2,0.2-4.4,0.3-6.5,0.5
		c-0.1,2.9-0.2,5.7-0.2,8.5c-8.7,0.2-17.4,0.5-26.1,0.7c-2,0-4.1-0.4-6.1-0.7c2.3-1.4,4.7-2.7,7-4c0.7-0.7,1.4-1.4,2.1-2.1
		c2.6,0.3,5.2,0.7,7.7,1c1.8,0,3.8,0.5,5.4-0.2C213.8,53.7,218.3,54,216.9,48.9z"/>
	<path class="st7" d="M106.3,58.2c1.5-1.1,3.1-2.3,4.6-3.4c1.8-0.9,3.6-1.8,5.3-2.7c0.6-0.1,1.3-0.1,1.9-0.2
		c2.4-0.4,4.7-0.8,7.1-1.2c0.6-0.2,1.2-0.4,1.8-0.6c-0.4,3.1,1.9,2.7,3.8,3.1c2.7,0.6,5.3,1.4,3.8,4.7c-5.4,0.7-10.6,1.4-15.8,2.1
		C114.7,59.3,110,61.9,106.3,58.2z"/>
	<path class="st7" d="M196,56c-2.3,1.3-4.7,2.7-7,4c-6.7,0.3-13.4,0.5-20,0.8c-0.1-1.1-0.1-2.3-0.2-3.3c6.7-1.2,13.4-2.4,20.1-3.7
		C191.2,54.6,193.6,55.3,196,56z"/>
	<path class="st16" d="M221.1,60c0.1-2.8,0.2-5.6,0.2-8.5c2.2-0.2,4.4-0.3,6.5-0.5c0.8,2.6,1.5,5.3,2.3,8
		C227.2,59.3,224.1,59.7,221.1,60z"/>
	<path class="st9" d="M257.9,37.9c-0.4-1.8-1.1-3.7-1.3-5.5c-0.2-1.8,0.1-3.6,0.1-5.3c1,0,2.1-0.1,3.1-0.1c0.1,0.1,0.3,0.2,0.4,0.2
		c-0.1-0.1-0.3-0.2-0.4-0.2c1.5-4.2,6-6.6,9.9-6c2.6,0.4,5.4,0,8.1,0c4.3,1.6,6.5,4.2,4.5,8.6c-4.2,0.9-8.2,1.6-12,2.5
		c-0.9,0.2-2.3,1.7-2.2,2.1c0.3,1,1.3,2.1,2.3,2.6c1.1,0.5,2.5,0.4,3.9,1.7c-1.9,0.2-3.9,0.4-5.8,0.6c-2.2-0.4-4.4-0.8-6.6-1.1
		C260.6,38,259.3,38,257.9,37.9z"/>
	<path class="st5" d="M277.9,21c-2.7,0-5.4,0.4-8.1,0c-4-0.6-8.4,1.8-9.9,6l0,0c-1,0-2.1,0.1-3.1,0.1c-1.5-3.8-1.7-7.4,2.1-10.1
		c2.6,0,5.3,0,7.9,0C272.1,13.8,274.4,19.1,277.9,21z"/>
	<path class="st13" d="M262,38c2.2,0.4,4.4,0.8,6.6,1.1c1.1,0.7,2.2,1.4,3.3,2c-0.3,1.3-0.7,2.5-1,3.8c-1.7,0.5-3.4,0.9-5,1.4
		c-0.5-1.9-5.2-0.7-3.3-4.4C262.4,40.6,262.2,39.3,262,38z"/>
	<path class="st9" d="M281.9,4.8c0,1.9,0.2,3.9-0.1,5.7c-0.1,1-0.7,2.3-1.4,2.8c-0.5,0.4-2.4-0.2-2.6-0.7c-0.4-1-0.4-2.5,0-3.5
		c0.7-1.6,1.9-3,2.9-4.5C281.2,4.7,281.6,4.7,281.9,4.8z"/>
	<path class="st0" d="M140.9,47.9c-0.6,0.3-1.2,0.5-1.8,0.8c-0.7-6.9-1.4-13.8-1.9-20.6c-0.5-6-0.7-12.1-1.1-18.1
		c8.8-0.4,17.5-0.8,26.3-1.1c1.9-0.1,3.8,0.5,5.6,0.7c2.3,1,4.5,2,7.4,3.3c0.2-2,0.4-3.4,0.6-4.8c3.1-0.1,6.3-0.1,9.4-0.2
		c0,0,0.1,0,0.1,0c1.2,10.1,2.4,20.2,3.5,30.3c-3.9,1.5-7.1,3.1-10-0.5c0,0,0,0.1,0,0.1c-0.7-1.7-1.4-3.4-2-5.1l0,0.1
		c-0.9-2.2-1.7-4.4-2.8-6.4c-0.4-0.7-1.6-1-2.4-1.5c-0.2,0.9-0.4,1.8-0.6,2.7c0.2,0.7,0.5,1.4,0.7,2.2c0,2,0.1,4-0.1,6
		c-0.2,2.4,1.4,5.7-2.9,6.2c-2.6,0.3-5.2,0.6-7.7,0.9c-0.5-8.8-0.9-17.6-1.5-26.3c-0.1-0.9-1.2-1.7-1.8-2.5c-2.5,0-5-0.3-7.4,0
		c-2.6,0.3-2.8,1.7-0.7,3.9c1.7,0,3.4,0,5.1,0c2.4,7.4,2.4,7.3-4.1,10c-1.2,0.5-1.7,3-2.5,4.5c1.6,0.1,3.2,0.3,4.7,0.4
		c1.9,0.5,3.9,1,6.8,1.8c-1,3.3-2,6.2-2.9,9.2C151.6,45.2,146.2,46.6,140.9,47.9z"/>
	<path class="st14" d="M136.1,10c0.4,6,0.6,12.1,1.1,18.1c0.5,6.9,1.3,13.8,1.9,20.6c-1.3,0.1-2.7,0.2-4,0.3c0-3.4,0-6.8,0-10.1
		c-0.7-9.2-1.4-18.4-2-27.7c-0.1-0.8,0.6-1.7,0.9-2.5C134.7,9.2,135.4,9.6,136.1,10z"/>
	<path class="st9" d="M120.8,10.8c0.5,1.9,1.7,4.1,1.2,5.6c-0.6,1.7-2.8,2.8-4.3,4.2c-0.9-1.2-2.2-2.3-2.5-3.7
		c-0.5-1.9-0.2-4-0.2-5.9C116.8,10.9,118.8,10.8,120.8,10.8z"/>
	<path class="st17" d="M176,8.1c-0.2,1.4-0.3,2.8-0.6,4.8c-2.9-1.3-5.1-2.3-7.4-3.3c0.6-1.2,1-2.9,2-3.4c1.4-0.6,3.3-0.2,4.9-0.3
		c0,0.4,0.1,0.7,0.1,1.1C175.4,7.4,175.7,7.8,176,8.1z"/>
	<path class="st9" d="M265.9,46.3c1.7-0.5,3.4-0.9,5-1.4c3,0.9,6,1.9,9,2.8c-4,0.4-8,0.8-12.1,1.2C267.2,48.1,266.5,47.2,265.9,46.3
		z"/>
	<path class="st17" d="M247.9,47.8c-0.3-1-0.5-1.9-0.8-2.9c2-1,4-2.1,5.9-3.1c1.3,0.4,2.6,0.7,3.9,1.1c0.4,1.2,0.8,2.4,1.2,3.8
		c-3.1,0.9-6.9,0.8-5.8,5.5c0,0.1-1.1,0.5-1.7,0.7c-0.2,0-0.5,0-0.7,0c-1-0.4-2-0.7-3-1.1C247.2,50.5,247.6,49.2,247.9,47.8z"/>
	<path class="st11" d="M256.9,42.9c-1.3-0.4-2.6-0.7-3.9-1.1c1.6-1.3,3.3-2.6,4.9-3.9c1.3,0,2.7,0,4,0.1c0.2,1.3,0.4,2.6,0.6,3.9
		C260.7,42.2,258.8,42.6,256.9,42.9z"/>
	<path class="st12" d="M249.9,52.9c0.2,0.1,0.5,0.1,0.7,0c-1.5,0.4-3.1,0.7-4.6,1.1c-0.3-0.3-0.7-0.6-1-1
		C246.7,53,248.3,53,249.9,52.9z"/>
	<path class="st11" d="M32.8,40c0.7,2,1.4,4,2,5.9c-0.5,1.4-0.9,2.7-1.4,4.1c-2.6-0.3-5.5-1.5-4,3.5c0.4,1.1-1.7,3-2.6,4.5
		c-4.1-3.2-8.4-5.9-13.9-3.3c-0.5,0.2-1.3-0.5-2-0.8c0-1.3,0-2.6,0-4c1.7-1.9,3.4-3.8,5-5.7c-2.2-1.2-4.1-2.2-6-3.2
		c1.1-1.2,2.2-2.4,4-4.5c-2.9,0.5-4.5,0.8-6,1C7.5,35.7,7,33.8,7,32c0-2.7,0.5-5.4,0.8-8.1c0.8,1,1.4,2.5,2.4,2.9
		c4.3,1.7,8.7,3,13.1,4.5c-0.2,0.4-0.3,0.9-0.5,1.3c-2.9,1-5.7,1.9-8.6,2.9c0.1,0.3,0.2,0.5,0.3,0.8c4.1-0.7,8.2-1.3,12-1.9
		c0.2,2.7,0.4,4.7,0.6,6.7C29.5,40.7,31.1,40.3,32.8,40z"/>
	<path class="st17" d="M32.8,40c-1.7,0.3-3.3,0.7-5.6,1.1c-0.2-2-0.3-3.9-0.6-6.7c-3.9,0.6-8,1.3-12,1.9c-0.1-0.3-0.2-0.5-0.3-0.8
		c2.9-1,5.7-1.9,8.6-2.9c0.2-0.4,0.3-0.9,0.5-1.3c-4.4-1.5-8.8-2.8-13.1-4.5c-1-0.4-1.6-1.9-2.4-2.9C7.9,23.2,7.9,22.6,8,22
		c1.1,0,2.2,0.1,3.3-0.1c0.4-0.1,0.8-0.7,1.2-1.1c-0.5-0.3-1-0.6-1.5-0.9c-0.3-1-0.6-2-0.9-3c1.3-1.3,2.6-2.6,3.9-4c0.7,0,1.3,0,2,0
		c1,2,2,4,3,5.9c0.4,2,0.2,4.5,1.3,5.9c1.7,2.2,4.2,4,6.7,5.1c1.3,0.6,3.4-0.7,5.3-1.1c0.6,0.8,1.5,1.9,2.5,3
		c-0.1,1.3,0.1,2.6-0.2,3.8C34.1,37.1,33.4,38.6,32.8,40z"/>
	<path class="st17" d="M10.9,53.8c0.7,0.3,1.6,1,2,0.8c5.6-2.6,9.8,0.1,13.9,3.3c-0.3,1.3-0.6,2.6-1,3.9c-1.8-0.2-3.6-0.3-5.3-0.6
		c-2.4-0.4-4.8-0.7-7.1-1.5c-1.4-0.4-2.9-1.3-3.7-2.5C9.4,56.6,10.5,55,10.9,53.8z"/>
	<path class="st17" d="M9.9,41c1.9,1,3.7,2,6,3.2c-1.6,1.9-3.3,3.8-5,5.7c-1.3-0.4-2.5-0.8-3.8-1.2C8.1,46.1,9,43.5,9.9,41z"/>
	<path class="st9" d="M18.9,18.9c-1-2-2-4-3-5.9c2-0.4,4-0.7,6.1-1.1c0,2.3,0,4.6,0.1,6.9C21,18.9,20,18.9,18.9,18.9z"/>
	<path class="st9" d="M13.9,13c-1.3,1.3-2.6,2.6-3.9,4C11.3,15.6,12.6,14.3,13.9,13z"/>
	<path class="st11" d="M249.9,52.9c-1.6,0-3.3,0.1-4.9,0.1c-0.4-0.1-0.7-0.2-1.1-0.3c0-0.2,0-0.4-0.1-0.7c1-0.1,2-0.2,3-0.3
		C247.9,52.2,248.9,52.6,249.9,52.9z"/>
	<path class="st9" d="M243.9,52.2c0,0.2,0,0.4,0.1,0.7c0,0-0.1,0.2-0.1,0.2c-1-0.1-2-0.1-3-0.2c-0.6,0-1.3,0-1.9,0c0-0.3,0-0.7,0-1
		C240.6,52,242.2,52.1,243.9,52.2z"/>
	<path class="st12" d="M240.9,52.9c1,0.1,2,0.1,3,0.2C242.9,53,241.9,53,240.9,52.9z"/>
	<path class="st1" d="M78.9,50.9c2.3,0.3,4.5,0.7,6.8,1c2.3,0.3,4.6,0.4,7.6,0.7c-3.8,3-6.6,5.1-9.3,7.3c-5,0-10,0-15,0
		c-0.2-3.7-1.5-8,4.1-9C75,50.9,76.9,50.9,78.9,50.9z"/>
	<path class="st16" d="M73.1,50.9c-5.6,1.1-4.3,5.3-4.1,9c-2.5,0-5,0.3-7.4-0.1c-1.3-0.2-2.6-1.3-3.8-2c8.2-3.1,14-8,13.2-17.8
		c0.6,0.4,1.1,0.8,1.7,1.1c0.8,2.3,1.5,4.6,2.3,6.9C74.3,49,73.7,49.9,73.1,50.9z"/>
	<path class="st12" d="M33.9,51.9c2.7,0.6,6.5-1.6,7.9,3.4c-3,1.5-5.9,3-8.9,4.6c0-2,0.1-3.9,0.1-5.9c0.1-0.3,0.2-0.6,0.3-0.9
		C33.5,52.7,33.7,52.3,33.9,51.9z"/>
	<path class="st11" d="M33.3,53.1c-0.1,0.3-0.2,0.6-0.3,0.9C33.1,53.7,33.2,53.4,33.3,53.1z"/>
	<path class="st13" d="M37.8,45c0.1-3,0.2-6,0.2-9c0.7-1,1.4-1.9,2.1-2.9c-0.2,1.7-0.4,3.4-0.5,5.1c-0.1,2,0,4,0,6
		c0.5,0.3,0.9,0.6,1.4,0.9c2.2-2,4.4-4.1,6.6-6.1c0.8,2,1.5,4,2.3,6c-2.3,1-4.6,2-7.1,3.1c1.2,3,2.1,5.3,3.1,7.7
		c-0.6-0.3-1.3-0.5-1.9-0.8C42,51.6,39.9,48.3,37.8,45z"/>
	<path class="st17" d="M241.9,18.7c-0.7,5.9-1.3,11.8-2.1,17.7c-0.1,0.7-1.2,1.3-1.9,2c0.2-5.5,0.2-11,0.7-16.4
		C238.8,20.7,240.8,19.7,241.9,18.7z"/>
	<path class="st17" d="M196,56c-2.4-0.7-4.8-1.4-7.2-2.1c-1.3-0.5-2.5-1.5-3.8-1.4c-3.1,0.2-6.2,1.2-9.3,1.3
		c-1.7,0.1-3.3-1.4-5.1-1.6c-2.2-0.3-4.5-0.1-6.8-0.2c-0.7-2-1.3-4-2-6c2.3-0.4,4.6-0.8,7-1.2c2.7,0.8,5.3,2.1,8,2.1
		c2.7,0,5.4-1.3,8-2c0.7-0.3,1.3-0.6,2-1c0.9-0.1,1.9-0.2,2.8-0.3c1.5,0.6,2.9,1.5,4.5,1.6c5.9,0.4,11.9,0.5,17.8,0.7
		c-5.4,1.2-10.7,2.4-16,3.5c0.9,1.8,1.5,3.1,2.2,4.4C197.4,54.6,196.7,55.3,196,56z"/>
	<path class="st9" d="M239,51.9c-0.6-0.8-1.3-1.5-1.9-2.3C237.7,50.4,238.3,51.2,239,51.9z"/>
	<path class="st11" d="M184.9,44.9c-2.7,0.7-5.4,2-8,2c-2.7,0-5.3-1.3-8-2.1c1.5-0.4,3.1-0.9,5.3-1.5c-0.8-4.5-1.5-9-2.3-13.4
		c-0.2-0.7-0.5-1.4-0.7-2.2c1.9,1.8,3.9,3.5,5.8,5.3c0,0,0-0.1,0-0.1c0.7,1.7,1.4,3.4,2,5.1c0,0,0-0.1,0-0.1c0.3,1.2,0.6,2.5,1,3.7
		c1.7,0.8,3.3,1.5,5,2.3C184.9,44.2,184.9,44.5,184.9,44.9z"/>
	<path class="st9" d="M184.9,44.9c0-0.4,0.1-0.7,0.1-1.1c0.6,0,1.3,0.1,1.9,0.1C186.2,44.3,185.6,44.6,184.9,44.9z"/>
	<path class="st10" d="M176,8.1c-0.3-0.3-0.7-0.7-1-1c3.5,0.3,6.9,0.6,10.4,0.9C182.3,8,179.1,8.1,176,8.1z"/>
	<path class="st15" d="M105.1,48.9c-0.5-5.2-0.9-10.4-1.4-15.6c0.2-0.8,0.4-1.6,0.7-2.9c2.2,4.2,1.6,10.6,8.7,9.2
		c1.7-1.3-0.1-7.4,5-3.5c-0.1,1.9-0.2,3.8-0.3,5.8c0,1.7,0.1,3.4,0.1,5.1c-0.6,1.4-1.2,2.7-1.8,4.1
		C112.4,50.3,108.7,49.6,105.1,48.9z"/>
	<path class="st15" d="M135,38.9c0,3.4,0,6.8,0,10.1c-2.7,0.4-5.4,0.7-8.1,1.1c-0.6,0.2-1.2,0.4-1.8,0.6c-1.1-4-2.1-7.9-3.2-11.9
		c-0.7-1.3-1.4-2.7-2.1-4c1.2-1.4,2.3-2.7,3.5-4.1c0.4,0.1,0.8,0.3,1.3,0.4c-0.7,6.5,3.3,9.7,8.2,12.5C133.7,42,134.4,40.5,135,38.9
		z"/>
	<path class="st17" d="M120,34.8c0.7,1.3,1.4,2.7,2.1,4c-1.4,1-2.8,2-4.3,3c0.1-1.9,0.2-3.8,0.3-5.8C118.7,35.7,119.3,35.3,120,34.8
		z"/>
	<path class="st16" d="M57,44c-1.9,2.1-4,3.2-6.5,0.9c0.5-0.8,1.4-1.7,1.3-2.4c-0.4-3.9-1-7.7-1.6-11.5c0.8-0.5,1.6-1.1,2.3-1.6
		c-0.9-0.6-1.8-1.3-2.8-1.9c-0.2,0-0.3-0.1-0.4-0.3c0-4.3-0.7-8.7,2.7-12.3c0.9,1.4,1.9,2.7,2.8,4.1c0.4,6.7,0.8,13.4,1.3,20.2
		C56.2,40.7,56.7,42.4,57,44z"/>
	<path class="st10" d="M57,44c-0.3-1.7-0.7-3.3-0.9-5c-0.5-6.7-0.9-13.4-1.3-20.2c0.1-1.1,0.2-2.2,0.3-3.3c3.4,8.8,4.3,17.8,3.6,27
		C58.6,43.1,57.6,43.6,57,44z"/>
	<path class="st8" d="M52.1,14.8c-3.4,3.5-2.8,8-2.7,12.3c-0.6-0.5-1.2-1.1-2.2-1.9C47,26.9,46.9,28,46.8,29c-1.5-1.8-3-3.4-0.8-6
		c0.6-0.7-0.5-2.7-0.2-3.9c0.4-1.8,1.2-3.7,2.4-5.1C48.6,13.6,50.7,14.5,52.1,14.8z"/>
	<path class="st0" d="M46.8,29c0.1-1.1,0.2-2.2,0.3-3.8c0.9,0.8,1.5,1.3,2.2,1.9c0.1,0.2,0.2,0.3,0.4,0.3c0.1,1.2,0.3,2.4,0.4,3.5
		c0.5,3.8,1.2,7.7,1.6,11.5c0.1,0.8-0.8,1.6-1.3,2.4c0,0-0.5,0-0.5,0c-0.8-2-1.5-4-2.3-6c0.1-2.2,0.1-4.5,0.2-6.7
		C47.6,31.1,47.2,30,46.8,29L46.8,29z"/>
	<path class="st1" d="M65.9,46.9c-0.8,1.1-1.5,2.1-2.3,3.2C64.3,49,65.1,47.9,65.9,46.9z"/>
	<path class="st8" d="M46.9,29c0.4,1.1,0.7,2.1,1.1,3.2C47.6,31.1,47.2,30,46.9,29z"/>
	<path class="st1" d="M63.1,50.7c-0.9,0.8-1.8,1.5-2.6,2.3C61.3,52.2,62.2,51.4,63.1,50.7z"/>
	<path class="st15" d="M73.1,50.9c0.6-0.9,1.2-1.9,1.8-2.8c2-0.4,4-0.9,6.1-1.3c0.9-0.3,2.6-0.8,2.6-1c-0.4-5.2-1.2-10.4-1.3-15.6
		c-0.1-2.5,1.2-5,1.9-7.5c0,0,0,0.1,0,0.1c0.4,7,0.7,14.1,1.1,21.1c1.4,3,0.5,4.8-2.9,5.5c-1.2,0.2-2.3,1-3.4,1.5
		C76.9,50.9,75,50.9,73.1,50.9z"/>
	<path class="st1" d="M84.1,22.7c-0.7,2.5-1.9,5-1.9,7.5c0.1,5.2,1,10.4,1.3,15.6c0,0.3-1.7,0.7-2.6,1c-0.1-6.4-0.4-12.9-0.4-19.3
		c0-1.7,0.7-3.4,1.2-5.1C81.8,22.3,83.3,22.6,84.1,22.7z"/>
	<path class="st1" d="M85.1,43.9c-0.4-7-0.7-14.1-1.1-21.1c0.9,3,2.1,5.9,2.6,8.9c0.7,4,0.9,8.1,1.3,12.1
		C87.1,43.9,86.1,43.9,85.1,43.9z"/>
	<path class="st0" d="M105.1,48.9c3.7,0.7,7.3,1.4,11,2.1c0,0.4,0.1,0.7,0.1,1.1c-1.8,0.9-3.6,1.8-5.3,2.7c-1.8-0.3-3.5-0.6-5.3-0.9
		C105.4,52.2,105.2,50.6,105.1,48.9z"/>
	<path class="st16" d="M171.9,29.8c0.8,4.5,1.5,8.9,2.3,13.4c-2.2,0.6-3.8,1.1-5.3,1.5c-2.3,0.4-4.6,0.8-7,1.2
		c-6,1-12.1,1.9-18.1,2.9c-1-0.3-2-0.6-3-0.9c5.4-1.4,10.7-2.7,16.1-4.1c1.4-0.3,2.8-0.7,4.3-1c2.6-0.3,5.2-0.6,7.7-0.9
		c4.2-0.5,2.7-3.8,2.9-6.2C172,33.8,171.9,31.8,171.9,29.8z"/>
	<path class="st7" d="M143.8,48.8c6-1,12.1-1.9,18.1-2.9c0.7,2,1.3,4,2,6c-4.5-0.4-9.1-0.8-13.6-1.4C148.1,50.3,146,49.4,143.8,48.8
		z"/>
	<path class="st7" d="M216.9,48.9c1.3,5-3.1,4.7-5.7,5.8c-1.5,0.7-3.6,0.2-5.4,0.2C209.6,52.9,213.2,50.9,216.9,48.9z"/>
	<path class="st5" d="M117.8,41.9c1.4-1,2.8-2,4.3-3c1.1,4,2.1,7.9,3.2,11.9c-2.4,0.4-4.7,0.8-7.1,1.2c-0.1-1.7-0.1-3.3-0.2-5
		C117.8,45.2,117.8,43.6,117.8,41.9z"/>
	<path class="st2" d="M117.9,46.9c0.1,1.7,0.1,3.3,0.2,5c-0.6,0.1-1.3,0.1-1.9,0.2c0-0.4-0.1-0.7-0.1-1.1
		C116.6,49.6,117.3,48.3,117.9,46.9z"/>
	<path class="st5" d="M259.9,26.9c0.1,0.1,0.3,0.2,0.4,0.2C260.2,27.1,260.1,27,259.9,26.9C259.9,26.9,259.9,26.9,259.9,26.9z"/>
	<path class="st14" d="M161.2,42.9c-1.4,0.3-2.8,0.7-4.3,1c0.9-2.9,1.9-5.9,2.9-9.2c-3-0.8-4.9-1.3-6.8-1.8c6.4-2.6,6.2-7.7,5-13.2
		c-0.1-0.5-0.1-1-0.2-1.5c0-1.1,0-2.2,0-3.2c0-0.3,0-0.6,0-1c0.6,0.8,1.8,1.6,1.8,2.5C160.3,25.3,160.7,34.1,161.2,42.9z"/>
	<path class="st12" d="M157.8,18.2c0.1,0.5,0.1,1,0.2,1.5c1.2,5.5,1.4,10.6-5,13.2c-1.6-0.1-3.2-0.3-4.7-0.4c0.8-1.6,1.2-4,2.5-4.5
		c6.4-2.8,6.5-2.6,4.1-10C155.8,18.1,156.8,18.2,157.8,18.2z"/>
	<path class="st12" d="M157.9,14c0,0.3,0,0.6,0,1c-2.7,1-5.4,2-8.1,2.9c-2.1-2.2-1.9-3.6,0.7-3.9C152.9,13.7,155.4,14,157.9,14z"/>
	<path class="st14" d="M177,32.9c-1.9-1.8-3.9-3.5-5.8-5.3c0.2-0.9,0.4-1.8,0.6-2.7c0.8,0.5,2,0.8,2.4,1.5
		C175.3,28.5,176.1,30.8,177,32.9z"/>
	<path class="st9" d="M149.7,18c2.7-1,5.4-2,8.1-2.9c0,1.1,0,2.2,0,3.2c-1-0.1-2-0.2-3-0.3C153.1,18,151.4,18,149.7,18z"/>
	<path class="st14" d="M179,37.9c-0.7-1.7-1.4-3.4-2-5.1C177.6,34.5,178.3,36.2,179,37.9z"/>
	<path class="st8" d="M50.2,31c-0.1-1.2-0.3-2.4-0.4-3.5c0.9,0.7,1.8,1.3,2.8,2C51.7,29.9,51,30.4,50.2,31z"/>
</g>
</svg>
