<?xml version="1.0" encoding="utf-8"?>
<!-- Generator: Adobe Illustrator 23.0.2, SVG Export Plug-In . SVG Version: 6.00 Build 0)  -->
<svg version="1.1" id="Layer_1" xmlns="http://www.w3.org/2000/svg" xmlns:xlink="http://www.w3.org/1999/xlink" x="0px" y="0px"
	 viewBox="0 0 382.3 304.3" style="enable-background:new 0 0 382.3 304.3;" xml:space="preserve">
<style type="text/css">
	.st0{fill:#FEFEFE;}
	.st1{fill:#441203;}
	.st2{fill:#F1EFF5;}
	.st3{fill:#481504;}
	.st4{fill:#895C3E;}
	.st5{fill:#EFEEEE;}
	.st6{fill:#9E7459;}
	.st7{fill:#562409;}
	.st8{fill:#5F2D11;}
	.st9{fill:#E0060F;}
	.st10{fill:#C1C0C0;}
	.st11{fill:#C3882E;}
	.st12{fill:#D9D9D9;}
	.st13{fill:#224096;}
	.st14{fill:#203E95;}
	.st15{fill:#CDCDCD;}
</style>
<g>
	<g>
		<path class="st0" d="M0.9,305.5c0-101.8,0-203.6,0-305.4c127.8,0,255.6,0,383.4,0c0,101.8,0,203.6,0,305.4
			C256.6,305.5,128.7,305.5,0.9,305.5z M84.6,103.8c-4.5-2.2-9-4.5-13.6-6.7c-3.8-0.2-7.7-0.3-11.5-0.5c-2.3-0.4-4.6-0.8-6.9-1.1
			c-2-0.4-4.1-0.8-6.1-1.2c-0.7,1.6-1.3,3.1-2,4.5c-5.6,1.3-8.9,5-9.1,10.7c-0.4,14.9-0.8,29.7-1.2,44.6c-0.3,10.7-0.8,21.3-0.8,32
			c0,4.4,0.5,9.2,2.2,13.2c2.4,5.8,13,9.2,20.9,6.9c3.8-1.1,9.2,0.4,11-5.2c0.8,0,1.5,0,2.3,0c18.8-6.2,38.4-6.4,57.9-6.4
			c19.3,0.1,38.6,1.4,58,1.7c16.8,0.3,33.7,0,50.5,0.1c4,0,8,0.2,12,0.3c10,0.3,20,0.2,30,1.1c8.4,0.7,17-0.3,24.9,4.3
			c8.7,5.1,18,8.9,28.2,10.1c11.4,1.4,17.8-3.4,18.3-14.3c1.2-27.2,1.1-54.5,1.3-81.7c0-2-2-4-3.1-5.9c0-3.4,0-6.8,0-10.5
			c-1.8,0.6-2.7,0.8-3.6,1.1c-3.1,0.2-6.1,0.3-9.2,0.5c-8.3-0.9-16.3-0.2-23.2,5.2c-5.3,1.1-10.5,3-15.8,3.1
			c-13.8,0.3-27.6-0.2-41.4-0.2c-11.3,0-22.7,0.3-34,0.1c-15.1-0.3-30.1-1-45.2-1.5c-7.9-0.2-15.9-0.5-23.8-0.7
			c-11.7-0.3-23.5-0.5-35.2-1.1C105.8,105.9,95.2,104.7,84.6,103.8z"/>
		<path class="st1" d="M344.3,101c0.9-0.3,1.8-0.6,3.6-1.1c0,3.7,0,7.1,0,10.5c-0.2,7.8-0.4,15.7-0.8,23.5c-0.2,2.7-1.1,5.4-1.6,8
			c-0.8-0.9-1.5-1.9-2.3-2.8c0.1-2.5,0.2-4.9,0.4-7.4c-2.4,0.2-4.8,0.4-7.3,0.5c-4.6,2.1-1.3,6.2-2.3,9.2c0.3,0.8,0.7,1.6,1,2.4
			c0,0.3,0,0.7,0,1c-0.7,3.1-1.4,6.2-2.2,9.2c0.8,1.1,1.5,2.3,2.3,3.4c0,0.4,0,0.8,0,1.2c-2.3,4.6-4.6,9.2-6.9,13.7
			c0.9,1.1,1.6,2.7,2.7,3.1c1.6,0.6,3.5,0.3,5.3,0.4c-0.7,0.4-1.5,0.8-2.2,1.2c-3.4,0.8-6.9,1.5-10.3,2.3c-1.1-1.2-2.3-2.3-3.4-3.5
			c-1.5-0.6-4.1,3.3-4.7-1.2c-1.4-2.4-2.7-4.9-4.4-7.1c-0.5-0.7-2-1-3-1c-5.5-0.1-9.6,4-9.6,9.4c-7-0.4-13.9-0.8-20.9-1.3
			c10.1-1.9,14.6-8.8,17.6-18.1c4.2-12.9,9.7-25.3,14.5-37.7c-5.9-0.5-12.1-1.4-18.3-1.5c-13-0.3-25.9-0.1-38.9-0.2
			c-8.4-0.1-16.9-0.7-25.3-0.9c-19.9-0.3-39.7-0.4-59.6-0.6c-17.9-0.2-35.8-0.6-53.7-0.8c-7.1-0.1-12.7,3.1-15.3,9.7
			c-5.9,14.9-11.4,29.9-17.4,45.8c13.4,0.3,26.3,0.7,39.2,1c-9.6,0.6-19.2,1.1-28.8,2.1c-2.7,0.3-5.3,2.3-7.9,3.5
			c-0.5,1.7-1,3.4-1.6,5.1l-0.4,0.1c-3.8-2.3-6.4-0.8-8.4,2.7c-5.7,1.7-11.4,3.5-17.1,5.2c-1.6-2.5-3.2-4.9-4.7-7.4
			c2.3-0.4,4.6-0.8,6.9-1.1l0,0c1.6-0.5,3.2-0.9,4.6-1.4c-1-5.7-9.9-6.4-8-13.6c0-0.4,0-0.8,0-1.2c-0.8-0.4-1.5-0.8-2.3-1.1
			c0.8-1.1,1.5-2.3,2.3-3.4c1.2-1.1,3.2-2.1,3.3-3.2c0.7-6.9,0.9-13.9,1.3-20.8c1.5-3.7,3.5-7.4,4.4-11.2c0.8-3.4,1.4-7.6-3.2-9.5
			c1.6-0.8,3.4-1.3,4.8-2.4c1-0.7,1.4-2.2,2.1-3.3c0-0.4,0-0.8,0-1.2c-2.5-2.7,1.1-8.7-5.4-9.5c-0.1,1.7-0.2,3.4-0.2,5
			c-0.4,0-0.8,0-1.2,0c-0.4-2.7-0.8-5.3-1.1-8c3.8,0.2,7.7,0.3,11.5,0.5c1.1,1.7,2.2,3.5,3.3,5.2c-0.5,0.2-1.1,0.4-1.6,0.5
			c-1.1,0.2-2.3,0.4-3.4,0.6c0.2,1.2,0.5,2.4,0.7,3.6c1.8-1.5,3.7,4.4,5.5-0.1c2,0,3.9,0,5.9,0c1.2,0.4,2.4,1,3.6,1.1
			c17.5,0.6,35.1,1.1,52.6,1.6c0.3,0,0.7,0,1,0c2.3,0,4.6,0,6.9,0.1c0.4,0.5,0.8,1,1.2,1.5c0.4-0.5,0.8-1,1.1-1.6c0.8,0,1.6,0,2.4,0
			c0.4,0.3,0.7,0.5,1.1,0.8c8,0.3,16,0.6,24,0.9c2,0.4,4,1.2,6,1.2c12.5,0.1,25-0.2,37.6,0c13.2,0.2,26.3,1.2,39.5,1
			c16-0.2,32-1.3,48.1-2c0.3-0.3,0.7-0.6,1-0.9c0.4,0,0.7-0.1,1.1-0.1c1.8,0.9,3.5,1.8,5.3,2.8c0.2-0.4,0.3-0.7,0.5-1.1
			c-0.8-0.6-1.6-1.3-2.4-1.9l0,0c1.8-0.6,3.7-1.1,5.5-1.7c-0.2-0.5-0.3-1.1-0.5-1.6c-1.4,0.4-2.7,0.8-4.1,1.2
			c-0.3-0.5-0.7-1.1-1-1.6c6.9-5.4,14.9-6.1,23.2-5.2c0.5,3.9,0.9,7.7,1.4,11.3c-3.3,0-5.4,0-8.2,0c2.5,2.9,4.2,5.4,6.4,7.3
			c3.7,3.1,5.6,3.4,7.2,1.7c2.3-2.6,1.1-6.5-2.6-7.6c1.5-0.3,2.8-0.5,5.3-1c-2.6-0.4-3.8-0.7-5.1-0.9c4.8-0.3,5.1-3.7,5.2-7.2
			C344.6,103.7,344.4,102.4,344.3,101z M72.1,175.8c0.5,0.6,0.9,1.2,1.4,1.8c-0.1-0.7-0.3-1.3-0.4-2c-1.6-2.3-3.1-4.5-4.7-6.8
			c-1-4.1-2.1-8.1-2.8-12.2c-0.1-0.7,1.3-1.7,2-2.6c1.1,0.3,2.2,0.7,3.3,1c1.6-2.3,3.2-4.5,4.8-6.8c5.2-2.8,5.4-4.3,1.1-8
			c-0.8-2.3-1.5-4.6-2.3-6.9c-0.5-6.5-1-13-1.6-19.4c-0.2-0.1-0.5-0.1-0.7-0.2c-0.8,3.2-1.5,6.3-2.3,9.5c-4.9,9.3-6.2,19.4-6.1,29.7
			c-0.3,0.3-0.5,0.6-0.8,0.9c0.6,4.6,1.1,9.1,1.9,13.6c0.1,0.6,1.8,1,2.8,1.4c-1.5,4.2-2.8,8.3,0.9,12
			C69.7,179.1,70.9,177.4,72.1,175.8z M322.6,142.2c1-1.8,3.1-3.8,2.9-5.4c-0.8-5.8-2.3-11.5-3.4-16.5c-1.7,4.8-3.5,10-5.3,15.3
			c-3.4-0.1-7.8-1.6-9.8,0c-1.9,1.5-1.5,6.2-1.4,9.5c0.1,2.6,1.3,5.1,2,7.6c1.8,5.5,4.3,10.4,11.2,10.5c1.2,0.5,2.4,1,3.6,1.5
			c0.1,0.1,0.3,0.3,0.4,0.3c0.1,0,0.4,0,0.4-0.1C329.1,157.2,322.1,149.8,322.6,142.2z"/>
		<path class="st2" d="M345.4,141.9c0.6-2.7,1.5-5.3,1.6-8c0.4-7.8,0.6-15.7,0.8-23.5c1.1,2,3.1,4,3.1,5.9
			c-0.2,27.2-0.1,54.5-1.3,81.7c-0.5,10.9-6.9,15.7-18.3,14.3c-10.2-1.2-19.5-5-28.2-10.1c-7.9-4.6-16.5-3.6-24.9-4.3
			c-10-0.8-20-0.8-30-1.1c-4-0.1-8-0.3-12-0.3c-16.8,0-33.7,0.2-50.5-0.1c-19.3-0.4-38.6-1.6-58-1.7c-19.5-0.1-39,0.2-57.9,6.4
			c1.5-1.5,2.9-3.2,4.7-4.3c1.2-0.7,2.9-0.5,4.4-0.8c8.7-1.6,17.1-4.9,26.3-3.2c2.5,0.5,5.5-2,8.2-3.2c0.8,0,1.5,0,2.3,0
			c1.5,1.1,3,3.1,4.6,3.2c4.8,0.3,9.7-0.2,14.6-0.3c10.3-0.1,20.5-0.4,30.8-0.2c14.7,0.4,29.5,1.4,44.2,1.8
			c26.4,0.6,52.9,0.8,79.3,1.2c1.3,0,2.7,0,3.9,0.5c8.2,3.2,16.3,7.1,24.7,9.7c6.3,2,13.1,3.2,19.7,3.2c5.9,0,9.7-7.5,6.8-11.2
			c-0.1-0.4-0.2-0.8-0.3-1.2c0.5-1.9,1-3.8,1.4-5.7c0.3-0.4,0.6-0.8,0.8-1.2c0-7.2,0.1-14.4,0-21.6
			C346.2,159.2,345.7,150.5,345.4,141.9z"/>
		<path class="st3" d="M60.6,104.6c0.4,0,0.8,0,1.2,0c0.7,1.2,1.4,2.4,2.6,4.3c-5.5,0.5-11.3-2.4-15.1,4.9c3.3,0.8,6.1,1.5,9,2.2
			c0.4,0,0.8,0,1.2,0c0.4,0,0.7,0,1.1,0c4.6,1.9,4,6,3.2,9.5c-0.9,3.9-2.9,7.5-4.4,11.2c-0.8-0.8-1.5-1.9-2.5-2.4
			c-1.9-0.9-4-1.5-6-2.2c-0.2-0.1-0.5,0.3-1,0.6c1.5,0.4,2.6,0.7,4.8,1.2c-2.6,0.4-4.1,0.6-5.6,0.8c0,0.2,0,0.3,0,0.5
			c1.5,0.2,3,0.3,5.4,0.6c-1.8,0.7-2.5,1-3.6,1.4c1.2,0.4,2,0.7,2.8,0.9c-1.6,1.3-3.1,2.6-5,4.2c2.2,0,4.1,0,6.3,0
			c-4.7,2.9-4.7,13.6-0.3,18.3c-0.8,1.1-1.5,2.3-2.3,3.4c-1.5,0-3,0-3.8,0c-0.6,2-1,3.2-1.5,4.7c1.5,0.6,2.8,1.1,4.1,1.7
			c-1.2,0.6-2.4,1.3-3.2,1.8c1.8,2.8,3.3,5.2,5.1,8.1c-2.4,0.7-3.9,1.2-5.3,1.6c0,0.2,0,0.4,0.1,0.6c1.1,0,2.2,0,3.3,0
			c1.6,2.5,3.2,4.9,4.7,7.4c-3.9,0.2-7.7,0.4-11.6,0.6c-0.1-10.9-0.3-21.8-0.2-32.7c0.2-13.2,0.8-26.4,1-39.6
			c0.1-3.8-0.7-7.7-1.1-11.5c0-1.5,0-3,0-4.6c0.1-1.1,0.1-2.3,0.2-3.4c0.6-1.4,1.3-2.9,2-4.5c2,0.4,4.1,0.8,6.1,1.2
			c0,3.4,0,6.8,0,10.3c-0.1,0.5-0.3,1-0.4,1.5c0.1-0.5,0.3-1,0.4-1.5C55.3,105.4,57.9,105,60.6,104.6z"/>
		<path class="st4" d="M311.8,106.7c0.3,0.5,0.7,1.1,1.1,1.6c-0.3,0.7-0.6,1.4-0.9,2.1c0,0,0,0,0,0c-1.1,0.1-2.3,0.1-3.4,0.2
			c-0.4,0.1-0.7,0.1-1.1,0.1c-0.3,0.3-0.7,0.6-1,0.9c-16,0.7-32,1.8-48.1,2c-13.1,0.2-26.3-0.8-39.5-1c-12.5-0.2-25,0.1-37.6,0
			c-2,0-4-0.8-6-1.2c0-1,0.1-2,0.1-3c15.1,0.5,30.1,1.2,45.2,1.5c11.3,0.2,22.7-0.2,34-0.1c13.8,0,27.6,0.6,41.4,0.2
			C301.3,109.7,306.6,107.8,311.8,106.7z"/>
		<path class="st2" d="M44.5,98.9c-0.1,1.1-0.1,2.3-0.2,3.4c-4.3,1.5-6.4,4.6-6.6,9c-0.1,5.5,0.1,11-0.1,16.5c-0.3,10-0.9,20-1,29.9
			c0,3.3,1.4,6.6,2.2,10c0,1.5,0,3.1,0,4.6c-0.7,0.7-2.1,1.4-2.1,2.1c-0.1,5.3-0.4,10.7,0.4,15.9c1.8,12.2,2.6,14.6,19.4,12.9
			c3.7-0.4,7.4-1.5,11.1-2.2c-1.8,5.6-7.1,4.1-11,5.2c-7.9,2.3-18.5-1.1-20.9-6.9c-1.7-4-2.2-8.8-2.2-13.2
			c-0.1-10.7,0.5-21.3,0.8-32c0.4-14.9,0.7-29.7,1.2-44.6C35.6,103.8,38.9,100.1,44.5,98.9z"/>
		<path class="st5" d="M67.5,201c-3.7,0.8-7.3,1.9-11.1,2.2c-16.8,1.6-17.6-0.8-19.4-12.9c-0.8-5.2-0.4-10.6-0.4-15.9
			c0-0.7,1.4-1.4,2.1-2.1c0.4,5.6,0.8,11.3,1.1,16.9c0.5,8.5,5.4,12.7,13.9,11.7c0.7-0.1,1.5-0.3,2.2-0.5c5.3-1.9,10.5-3.8,15.8-5.6
			c13.5-4.7,27.4-6,41.6-5.3c-2.8,1.1-5.8,3.6-8.2,3.2c-9.2-1.7-17.6,1.5-26.3,3.2c-1.5,0.3-3.3,0.1-4.4,0.8
			c-1.8,1.1-3.1,2.8-4.7,4.3C69,201,68.3,201,67.5,201z"/>
		<path class="st6" d="M175.5,108.3c0,1-0.1,2-0.1,3c-8-0.3-16-0.6-24-0.9c-0.4-0.3-0.7-0.5-1.1-0.8c-0.8,0-1.6,0-2.4,0
			c-0.8,0-1.5,0-2.3,0.1c-2.3,0-4.6,0-6.9-0.1c-0.3-0.2-0.7-0.2-1,0c-17.5-0.5-35.1-1-52.6-1.6c-1.2,0-2.4-0.7-3.6-1.1
			c1.9,0,3.9,0,6,0c-1.1-1.2-2-2.2-2.8-3.1c10.6,0.9,21.2,2,31.8,2.6c11.7,0.6,23.5,0.7,35.2,1.1C159.6,107.8,167.5,108,175.5,108.3
			z"/>
		<path class="st7" d="M344.3,101c0.1,1.4,0.4,2.7,0.4,4.1c0,3.5-0.4,6.9-5.2,7.2c1.2,0.2,2.5,0.4,5.1,0.9c-2.6,0.5-3.8,0.7-5.3,1
			c3.7,1.1,4.9,5,2.6,7.6c-1.5,1.7-3.4,1.5-7.2-1.7c-2.2-1.9-3.9-4.4-6.4-7.3c2.8,0,4.9,0,8.2,0c-0.4-3.6-0.9-7.4-1.4-11.3
			C338.1,101.3,341.2,101.2,344.3,101z"/>
		<path class="st8" d="M84.6,103.8c0.9,0.9,1.7,1.9,2.8,3.1c-2.1,0-4,0-6,0c-2,0-3.9,0-5.9,0c0.6-1.5,1.3-2.9,2-4.6
			c-1,0-2.1,0-3.2,0c-1.1-1.7-2.2-3.5-3.3-5.2C75.5,99.4,80,101.6,84.6,103.8z"/>
		<path class="st8" d="M60.6,104.6c-2.7,0.4-5.4,0.8-8,1.1c0,0,0,0,0,0c0-3.4,0-6.8,0-10.3c2.3,0.4,4.6,0.8,6.9,1.1
			C59.9,99.3,60.2,101.9,60.6,104.6z"/>
		<path class="st9" d="M120.3,171.4c-12.9-0.3-25.7-0.7-39.2-1c6-15.9,11.5-31,17.4-45.8c2.6-6.6,8.2-9.8,15.3-9.7
			c17.9,0.2,35.8,0.6,53.7,0.8c19.9,0.2,39.7,0.3,59.6,0.6c8.4,0.1,16.9,0.8,25.3,0.9c13,0.2,25.9,0,38.9,0.2
			c6.2,0.1,12.4,1,18.3,1.5c-4.8,12.4-10.3,24.8-14.5,37.7c-3,9.3-7.5,16.2-17.6,18.1c-14.4-0.1-28.8-0.2-43.2-0.3
			c-2.2-0.3-4.4-0.9-6.6-1c-11.7-0.4-23.3-0.8-35-0.9c-16.1-0.2-32.2-0.2-48.3-0.2c0,0,0.1,0,0.1,0c-2,0-4,0-5.9,0
			C132.5,172,126.4,171.7,120.3,171.4z M268.4,170.3c9.3,2.7,16.1,0.5,19.6-8.2c5.4-13.4,10.4-27,15.9-41.5c-14.6,0-28.6,0.2-42.7,0
			c-31.2-0.6-62.4-1.4-93.5-2.1c-17.4-0.4-34.7-0.6-52.1-0.8c-5.6,0-10.3,2.1-12.4,7.6c-5.1,12.8-9.9,25.7-14.8,38.5
			c-0.4,1.1-0.1,2.4-0.1,4.3c3.8-0.5,7-0.9,10.3-1.3c0.9,0,1.9-0.1,2.8-0.1c1.6,0.4,3.1,1.1,4.7,1.1c5.9,0.2,11.8,0.1,17.7,0.2
			c26.1,0.6,52.3,1.2,78.4,1.9c14.8,0.4,29.5,0.9,44.3,1.1c6.7,0.1,13.3-0.6,20-0.9C267.1,170.2,267.8,170.2,268.4,170.3z"/>
		<path class="st10" d="M44.6,190.6c3.9-0.2,7.7-0.4,11.6-0.6c5.7-1.7,11.4-3.5,17.1-5.2c2.8-0.9,5.6-1.8,8.4-2.7
			c0,0,0.4-0.1,0.4-0.1c6.7-1.3,13.3-2.6,20-4c0.9,0.3,1.7,0.9,2.6,0.9c8.9-0.2,17.8-0.7,26.6-0.6c23.4,0.4,46.8,1.1,70.2,1.6
			c24.9,0.6,49.7,1.1,74.6,1.6c7.7,0.2,15.5,1.6,22.4-3.4c3.1,2.3,6.1,4.6,9.2,6.9c6.8,3,13.6,6.1,20.5,9.1c1.1,0.3,2.3,0.6,3.4,0.9
			c0.8,0,1.5,0,2.3,0c1.5,0.4,3.1,0.8,4.6,1.2c-0.8,1.6-1.6,3.1-2.4,4.7c-1.1,0.4-2.3,0.7-3.4,1.1c-1.1-0.7-2.1-1.6-3.3-2
			c-5.4-2-10.9-3.9-16.3-5.9c-6.1-2.3-12.2-4.6-18.3-7c-0.8,0-1.5,0-2.3,0c-1.2,0.4-2.3,0.7-3.5,1.1c-0.8,0-1.5,0-2.3,0
			c-1.9-0.8-3.7-2.1-5.6-2.2c-11.7-0.3-23.5-0.2-35.2-0.5c-13.8-0.4-27.6-1.1-41.4-1.6c-0.5,0-1.1,1.3-1.6,2
			c-8.4-0.3-16.7-0.9-25.1-1c-6.7,0-13.5,0.9-20.2,0.8c-15.9-0.2-31.8-0.6-47.7-1c-0.8,0-1.5,0-2.3,0c-2.3,0-4.6,0-6.9,0
			c-11.3-2.5-21.5,1.4-31.6,5.3c-0.3,0.1-0.4,1-0.5,1.6c-5.4,1.2-10.9,2-16,3.8C47.4,197.4,45.7,194.8,44.6,190.6z"/>
		<path class="st8" d="M298.5,178.2c-6.9,5-14.8,3.5-22.4,3.4c-24.9-0.5-49.7-1-74.6-1.6c-23.4-0.5-46.8-1.2-70.2-1.6
			c-8.9-0.1-17.8,0.4-26.6,0.6c-0.9,0-1.7-0.6-2.6-0.9c-6.1-0.4-12.3-0.8-18.4-1.2c2.6-1.2,5.2-3.2,7.9-3.5c9.6-1,19.2-1.4,28.8-2.1
			c6.1,0.3,12.2,0.6,18.2,0.8c2,0,4,0,5.9,0c0,0-0.1,0-0.1,0c1.4,0.4,2.7,1.1,4.1,1.2c8.3,0.4,16.6,0.9,24.8,1.1
			c18.9,0.5,37.9,0.9,56.8,1.2c1.4,0,2.8-0.9,4.1-1.4c14.4,0.1,28.8,0.2,43.2,0.3c7,0.4,13.9,0.8,20.9,1.3
			C298.5,176.7,298.5,177.4,298.5,178.2z"/>
		<path class="st3" d="M345.4,141.9c0.4,8.6,0.8,17.3,1,25.9c0.2,7.2,0,14.4,0,21.6c-0.3,0.4-0.6,0.8-0.8,1.2
			c-0.5,1.9-1,3.8-1.4,5.7c-1.1-0.1-2.3-0.2-3.4-0.3c4.8-7.7,0.6-15.7,1.8-23.8c-3,0-5.2,0-7.4,0c-2.3,0-4.6,0-7,0
			c2.3-4.6,4.6-9.2,6.9-13.7c1.9,0.8,3.7,1.5,5.9,2.4c0.8-2,1.5-3.8,2.2-5.6c-0.7,0.6-1.4,1.2-2.1,1.8c-1.1-1.2-2.1-2.4-3.2-3.6
			c0.5-0.6,1.1-1.2,1.6-1.8c4.1-0.2,5.4-1.9,4-5.9c-0.7-2.1-0.2-4.6-0.3-6.9C343.8,140,344.6,140.9,345.4,141.9z"/>
		<path class="st11" d="M322.4,164.7c-1.2-0.5-2.4-1-3.6-1.5c-1.8-4.6-3.6-9.3-5.4-13.7c-2.7,1.5-4.2,2.4-5.8,3.2
			c-0.7-2.5-1.9-5.1-2-7.6c-0.1-3.3-0.5-8,1.4-9.5c2-1.6,6.4-0.1,9.8,0c0.1,0.3,0.1,0.7,0.1,1c1,5.2,2,10.3,3,15.5
			C320.7,156.3,321.5,160.5,322.4,164.7z"/>
		<path class="st7" d="M328.1,172.3c2.3,0,4.6,0,7,0c2.2,0,4.5,0,7.4,0c-1.1,8.1,3,16.1-1.8,23.8c-0.4,0.1-0.8,0.3-1.2,0.4
			c-0.4-0.1-0.7-0.2-1.1-0.2c-1.5-0.4-3.1-0.8-4.6-1.2c-0.4-0.6-0.7-1.1-1.1-1.7c-0.4,0.6-0.8,1.1-1.2,1.7c-1.1-0.3-2.3-0.6-3.4-0.9
			c-1.1-3.1-2.3-6.3-3.4-9.4c0.6-0.2,1.1-0.5,1.7-0.7c1.3,2.3,2.7,4.5,4.5,7.6c1.8-2.8,3.5-5.3,5.1-7.8c1.2-1.8,2.4-3.6,3.9-5.7
			c-1.2-0.7-2.5-1.6-3.9-2.4c-1.8-0.1-3.7,0.2-5.3-0.4C329.7,175,329,173.4,328.1,172.3z"/>
		<path class="st11" d="M298.5,178.2c0-0.8,0-1.6,0-2.3c0-5.4,4.1-9.5,9.6-9.4c1,0,2.5,0.3,3,1c1.6,2.2,2.9,4.7,4.4,7.1
			c-1.1,2.3-2.3,4.6-3.4,6.9c-0.4,0.2-0.8,0.4-1.1,0.6c-1.1,1-2.2,2-3.3,3C304.6,182.8,301.6,180.5,298.5,178.2z"/>
		<path class="st6" d="M63.7,152.9c-0.1-10.4,1.3-20.4,6.1-29.7c3.2,10.6-0.9,20.6-2.4,30.9c-0.7,0.9-2.1,1.9-2,2.6
			c0.7,4.1,1.8,8.2,2.8,12.2c-0.2-0.1-0.5-0.1-0.7,0c-1-0.5-2.7-0.8-2.8-1.4c-0.8-4.5-1.3-9.1-1.9-13.6
			C63.2,153.5,63.5,153.2,63.7,152.9z"/>
		<path class="st7" d="M343.1,139.1c0.1,2.3-0.4,4.8,0.3,6.9c1.4,4,0.2,5.7-4,5.9c-0.5,0.6-1.1,1.2-1.6,1.8c1.1,1.2,2.1,2.4,3.2,3.6
			c0.7-0.6,1.4-1.2,2.1-1.8c-0.7,1.8-1.4,3.5-2.2,5.6c-2.2-0.9-4-1.6-5.9-2.4c0-0.4,0-0.8,0-1.2c-0.8-1.1-1.5-2.3-2.3-3.4
			c0.7-3.1,1.4-6.2,2.2-9.2c1.4-0.1,2.8-0.3,4.9-0.5c-2.8-4.1,1.3-9.2-3.6-12.1c2.4-0.2,4.8-0.4,7.3-0.5
			C343.3,134.1,343.2,136.6,343.1,139.1z"/>
		<path class="st8" d="M54.9,160.9c-4.4-4.8-4.4-15.5,0.3-18.3c-2.2,0-4.1,0-6.3,0c1.9-1.6,3.4-2.9,5-4.2c-0.8-0.3-1.6-0.5-2.8-0.9
			c1-0.4,1.8-0.7,3.6-1.4c-2.4-0.3-3.9-0.4-5.4-0.6c0-0.2,0-0.3,0-0.5c1.5-0.2,3-0.4,5.6-0.8c-2.1-0.5-3.2-0.8-4.8-1.2
			c0.5-0.3,0.8-0.6,1-0.6c2,0.7,4.1,1.3,6,2.2c1,0.5,1.6,1.5,2.5,2.4c-0.4,7-0.6,13.9-1.3,20.8C58.1,158.8,56,159.8,54.9,160.9z"/>
		<path class="st3" d="M307.7,185.1c1.1-1,2.2-2,3.3-3c2.2,1.5,4.4,3.2,6.8,4.3c0.5,0.2,2.5-1.5,2.8-2.6c0.2-1-1-2.3-1.6-3.5
			c0.4-1.5,0.8-3,1.2-4.6c1.1,1.2,2.3,2.3,3.4,3.5c3.1,1.5,6.1,3,9.2,4.6c1.1,0,2.3,0,3.4,0.1c-1.7,2.5-3.3,5-5.1,7.8
			c-1.8-3.1-3.2-5.3-4.5-7.6c-0.6,0.2-1.1,0.5-1.7,0.7c1.1,3.1,2.3,6.3,3.4,9.4C321.3,191.2,314.5,188.1,307.7,185.1z"/>
		<path class="st8" d="M51.4,182.7c-1.1,0-2.2,0-3.3,0c0-0.2,0-0.4-0.1-0.6c1.4-0.4,2.8-0.8,5.3-1.6c-1.8-2.9-3.3-5.3-5.1-8.1
			c0.9-0.5,2.1-1.1,3.2-1.8c-1.3-0.5-2.6-1.1-4.1-1.7c0.5-1.4,0.8-2.6,1.5-4.7c0.7,0,2.3,0,3.8,0c0.8,0.4,1.5,0.8,2.3,1.1
			c-0.5,0.2-1,0.3-2.1,0.6c1.1,0.3,1.6,0.4,2.1,0.5c-1.9,7.2,7,7.9,8,13.6c-1.4,0.4-3,0.9-4.6,1.4c-0.5-0.6-0.9-1.2-1.4-1.8
			c-0.1,0.1-0.2,0.2-0.4,0.4c0.6,0.5,1.2,0.9,1.8,1.4C56,181.9,53.7,182.3,51.4,182.7z"/>
		<path class="st8" d="M58.3,116.1c-2.9-0.7-5.7-1.4-9-2.2c3.8-7.3,9.6-4.4,15.1-4.9c-1.1-1.9-1.9-3.1-2.6-4.3
			c0.1-1.6,0.2-3.3,0.2-5c6.5,0.9,3,6.8,5.4,9.5c-0.4,0.1-0.9,0.3-1.3,0.4c0.5,0.3,0.9,0.5,1.4,0.8c-0.7,1.1-1.1,2.6-2.1,3.3
			c-1.4,1.1-3.2,1.6-4.8,2.4c-0.4,0-0.7,0-1.1,0C59.1,116.1,58.7,116.1,58.3,116.1z"/>
		<path class="st4" d="M67.5,154c1.5-10.2,5.6-20.3,2.4-30.9c0.8-3.2,1.5-6.3,2.3-9.5c0.2,0.1,0.5,0.1,0.7,0.2
			c0.5,6.5,1,13,1.6,19.4c-1.2,7.2-2.4,14.5-3.6,21.7C69.7,154.7,68.6,154.4,67.5,154z"/>
		<path class="st10" d="M322.4,164.7c-0.8-4.2-1.7-8.4-2.5-12.7c-1-5.2-2-10.3-3-15.5c1.9,1.9,3.8,3.8,5.7,5.6
			c-0.5,7.6,6.6,14.9,0.7,22.7c-0.1,0.1-0.3,0.2-0.4,0.1C322.6,165,322.5,164.8,322.4,164.7z"/>
		<path class="st8" d="M322.6,142.2c-1.9-1.9-3.8-3.8-5.7-5.6c0-0.3-0.1-0.7-0.1-1c1.8-5.2,3.6-10.4,5.3-15.3
			c1.1,5,2.7,10.7,3.4,16.5C325.7,138.4,323.6,140.4,322.6,142.2z"/>
		<path class="st8" d="M307.6,152.7c1.5-0.9,3.1-1.7,5.8-3.2c1.8,4.5,3.6,9.1,5.4,13.7C311.9,163,309.4,158.2,307.6,152.7z"/>
		<path class="st8" d="M70.8,155c1.2-7.2,2.4-14.5,3.6-21.7c0.8,2.3,1.5,4.6,2.3,6.9c-0.4,2.7-0.7,5.4-1.1,8
			C74,150.5,72.4,152.8,70.8,155z"/>
		<path class="st7" d="M83.6,176.9c6.1,0.4,12.3,0.8,18.4,1.2c-6.7,1.3-13.4,2.6-20,4C82.5,180.4,83.1,178.6,83.6,176.9z"/>
		<path class="st8" d="M336.2,132.2c4.9,2.9,0.9,8,3.6,12.1c-2.1,0.2-3.5,0.4-4.9,0.5c0-0.3,0-0.7,0-1c-0.3-0.8-0.7-1.6-1-2.4
			C334.9,138.3,331.5,134.3,336.2,132.2z"/>
		<path class="st4" d="M67.6,168.8c0.2,0,0.5,0,0.7,0c1.6,2.3,3.1,4.5,4.7,6.8c-0.3,0-0.6,0.1-1,0.1c-1.2,1.7-2.4,3.3-3.6,5.1
			C64.8,177.2,66.2,173,67.6,168.8z"/>
		<path class="st7" d="M332.7,183.8c-3.1-1.5-6.1-3-9.2-4.6c3.4-0.8,6.9-1.5,10.3-2.3C333.5,179.2,333.1,181.5,332.7,183.8z"/>
		<path class="st3" d="M74.3,102.3c1.1,0,2.2,0,3.2,0c-0.7,1.6-1.4,3.1-2,4.6c-1.8,4.5-3.7-1.5-5.5,0.1c-0.2-1.2-0.5-2.4-0.7-3.6
			c1.1-0.2,2.3-0.3,3.4-0.6C73.3,102.7,73.8,102.5,74.3,102.3z"/>
		<path class="st8" d="M320.1,175.8c-0.4,1.5-0.8,3-1.2,4.6c-2.3,0.4-4.6,0.8-6.8,1.2c1.1-2.3,2.3-4.6,3.4-6.9
			C316,179.1,318.6,175.2,320.1,175.8z"/>
		<path class="st8" d="M332.7,183.8c0.4-2.3,0.8-4.6,1.1-6.9c0.7-0.4,1.5-0.8,2.2-1.2c1.3,0.8,2.7,1.7,3.9,2.4
			c-1.4,2.1-2.6,3.9-3.9,5.7C335,183.8,333.9,183.8,332.7,183.8z"/>
		<path class="st3" d="M75.6,148.2c0.4-2.7,0.7-5.4,1.1-8C81.1,144,80.9,145.5,75.6,148.2z"/>
		<path class="st7" d="M81.6,182.2c-2.8,0.9-5.6,1.8-8.4,2.7C75.2,181.3,77.8,179.8,81.6,182.2z"/>
		<path class="st7" d="M308.6,110.5c1.1-0.1,2.3-0.1,3.4-0.2c0.8,0.6,1.6,1.3,2.4,1.9c-0.2,0.4-0.3,0.7-0.5,1.1
			C312.1,112.3,310.3,111.4,308.6,110.5z"/>
		<path class="st7" d="M312,110.3c0.3-0.7,0.6-1.4,0.9-2.1c1.4-0.4,2.7-0.8,4.1-1.2c0.2,0.5,0.3,1.1,0.5,1.6
			C315.7,109.2,313.8,109.8,312,110.3z"/>
		<path class="st3" d="M332.7,154c0.8,1.1,1.5,2.3,2.3,3.4C334.2,156.3,333.5,155.1,332.7,154z"/>
		<path class="st7" d="M333.9,141.3c0.3,0.8,0.7,1.6,1,2.4C334.5,142.9,334.2,142.1,333.9,141.3z"/>
		<path class="st3" d="M145.6,109.6c0.8,0,1.5,0,2.3-0.1c-0.4,0.5-0.8,1-1.1,1.6C146.4,110.6,146,110.1,145.6,109.6z"/>
		<path class="st3" d="M72.1,175.8c0.3-0.1,0.6-0.1,1-0.1c0.1,0.7,0.3,1.3,0.4,2C73,177,72.6,176.4,72.1,175.8z"/>
		<path class="st3" d="M67.5,110.4c-0.5-0.3-0.9-0.5-1.4-0.8c0.4-0.1,0.9-0.3,1.3-0.4C67.5,109.6,67.5,110,67.5,110.4z"/>
		<path class="st3" d="M54.9,166.6c-0.5-0.1-1-0.3-2.1-0.5c1.1-0.3,1.6-0.5,2.1-0.6C54.9,165.8,54.9,166.2,54.9,166.6z"/>
		<path class="st3" d="M63.7,152.9c-0.3,0.3-0.5,0.6-0.8,0.9C63.2,153.5,63.5,153.2,63.7,152.9z"/>
		<path class="st7" d="M306.4,111.5c0.3-0.3,0.7-0.6,1-0.9C307.1,110.9,306.8,111.2,306.4,111.5z"/>
		<path class="st3" d="M150.2,109.5c0.4,0.3,0.7,0.5,1.1,0.8C151,110.1,150.6,109.8,150.2,109.5z"/>
		<path class="st3" d="M137.6,109.5c0.3-0.2,0.7-0.2,1,0C138.3,109.5,138,109.5,137.6,109.5z"/>
		<path class="st12" d="M339.6,196.6c0.4-0.1,0.8-0.3,1.2-0.4c1.1,0.1,2.3,0.2,3.4,0.3c0.1,0.4,0.2,0.8,0.3,1.2
			c-5,10.2-7,9.9-16.9,8.1c-6.3-1.1-12.1-4.4-18.1-6.7c-5.8-2.2-11.4-5.1-17.4-6.4c-5.2-1.1-10.7-0.5-16.1-0.6
			c-21.1-0.4-42.2-0.8-63.3-1.1c-9.2-0.1-18.4,0.1-27.7-0.1c-13.1-0.2-26.1-0.8-39.2-1.1c-10-0.2-20,0-30.1,0c-0.8,0-1.5,0-2.3,0
			c-14.2-0.7-28.1,0.5-41.6,5.3c-5.3,1.8-10.5,3.8-15.8,5.6c-0.7,0.3-1.5,0.4-2.2,0.5c-8.5,1-13.4-3.2-13.9-11.7
			c-0.3-5.7-0.8-11.3-1.1-16.9c0-1.5,0-3.1,0-4.6c0.4-3.9,1-7.8,1.1-11.7c0.1-12.6-0.2-25.3,0.2-37.9c0.1-3.9-1.1-9,4.2-11.3
			c0.4,3.8,1.1,7.7,1.1,11.5c-0.2,13.2-0.8,26.4-1,39.6c-0.1,10.9,0.1,21.8,0.2,32.7c1.1,4.2,2.8,6.8,8,5c5.2-1.8,10.7-2.5,16-3.8
			c10.7-2.3,21.4-4.6,32.2-6.9c2.3,0,4.6,0,6.9,0c0.8,0,1.5,0,2.3,0c15.9,0.4,31.8,0.8,47.7,1c6.7,0.1,13.5-0.9,20.2-0.8
			c8.4,0,16.7,0.6,25.1,1c3,0.4,6,1.1,9,1.1c21.8,0.5,43.7,0.8,65.5,1.2c3.1,0.1,6.2,0,9.3,0c0.8,0,1.5,0,2.3,0
			c1.2-0.4,2.3-0.7,3.5-1.1c0.8,0,1.5,0,2.3,0c0.3,0.6,0.5,1.6,1,1.9c6.2,3.1,12.3,6.6,18.8,8.9c5.8,2.1,12.1,2.8,18.1,4.1
			c1.1-0.4,2.3-0.7,3.4-1.1C337.3,199.5,338.5,198,339.6,196.6z"/>
		<path class="st5" d="M115.7,189.6c10,0,20-0.2,30.1,0c13.1,0.2,26.1,0.8,39.2,1.1c9.2,0.2,18.4-0.1,27.7,0.1
			c21.1,0.3,42.2,0.7,63.3,1.1c5.4,0.1,10.9-0.5,16.1,0.6c6,1.3,11.6,4.2,17.4,6.4c6,2.3,11.9,5.6,18.1,6.7
			c9.9,1.8,11.9,2.2,16.9-8.1c3,3.7-0.9,11.2-6.8,11.2c-6.6,0-13.4-1.3-19.7-3.2c-8.4-2.6-16.5-6.5-24.7-9.7
			c-1.2-0.5-2.6-0.5-3.9-0.5c-26.4-0.4-52.9-0.6-79.3-1.2c-14.7-0.3-29.5-1.4-44.2-1.8c-10.3-0.3-20.5,0-30.8,0.2
			c-4.9,0.1-9.8,0.6-14.6,0.3C118.8,192.7,117.3,190.7,115.7,189.6z"/>
		<path class="st5" d="M345.6,190.7c0.3-0.4,0.6-0.8,0.8-1.2C346.2,189.9,345.9,190.3,345.6,190.7z"/>
		<path class="st5" d="M44.3,106.9c-5.2,2.3-4,7.4-4.2,11.3c-0.4,12.6-0.1,25.2-0.2,37.9c0,3.9-0.7,7.8-1.1,11.7
			c-0.8-3.3-2.2-6.7-2.2-10c0-10,0.7-20,1-29.9c0.2-5.5-0.1-11,0.1-16.5c0.1-4.4,2.3-7.5,6.6-9C44.3,103.8,44.3,105.4,44.3,106.9z"
			/>
		<path class="st8" d="M52.6,105.7c-0.1,0.5-0.3,1-0.4,1.5C52.3,106.8,52.5,106.3,52.6,105.7C52.6,105.8,52.6,105.7,52.6,105.7z"/>
		<path class="st1" d="M58.3,116.1c0.4,0,0.8,0,1.2,0C59.1,116.1,58.7,116.1,58.3,116.1z"/>
		<path class="st2" d="M98.6,166.8c-3.3,0.4-6.5,0.8-10.3,1.3c0-1.9-0.4-3.2,0.1-4.3c4.9-12.9,9.7-25.7,14.8-38.5
			c2.2-5.5,6.9-7.7,12.4-7.6c17.4,0.1,34.7,0.4,52.1,0.8c31.2,0.7,62.4,1.5,93.5,2.1c14,0.3,28.1,0,42.7,0
			c-5.5,14.5-10.5,28.1-15.9,41.5c-3.5,8.7-10.3,10.9-19.6,8.2c2-0.4,4.1-0.7,6-1.4c2.7-0.9,6.3-1.4,7.7-3.3
			c7-9.3,6.8-15.1,0.4-24.6c-0.3-0.5-0.7-1-0.7-1.5c-0.1-0.6-0.1-1.6,0.3-1.8c0.6-0.3,1.6-0.5,2.2-0.2c5.9,3,9.4,1.9,11.6-4.1
			c1-2.8,1.7-5.7,2.5-8.5c-6.7-3.2-18.2-3-20.9,1c-2.6,3.8-5.6,8.2-5.9,12.5c-0.4,4.2,2.4,8.6,4,13.6c-12.5-2.6-12.3,7.9-15.1,15.7
			c2.3,0.9,4.2,1.7,6,2.4c-6.7,0.3-13.3,0.9-20,0.9c-14.8-0.2-29.5-0.8-44.3-1.1c-26.1-0.6-52.3-1.3-78.4-1.9
			c-5.9-0.1-11.8,0-17.7-0.2c-1.6,0-3.1-0.7-4.7-1.1c2.8-0.4,5.6-0.8,8.3-1.3c7.3-1.3,8.5-7.7,10.4-13.2c1.7-4.7,1.2-9.3-3.2-12.7
			c-1.1-0.9-1.8-2.4-3.1-4.2c11.3,0.6,11.3,0.6,16-9.4c0.2-0.3,0.4-0.7,0.6-1c1.7-2.7,0.9-3.8-2.2-4.7c-12.8-3.6-22.2,2.2-23.9,15
			c-0.2,1.8,0.2,3.8,0.9,5.5c1.2,3,2.8,5.7,4.7,9.4c-14-5.5-13.1,6.6-17.1,13.4C94.7,164.7,96.6,165.7,98.6,166.8z M212,128.6
			l0.1,0.1c0.4-2.1,0.8-4.3,1.3-6.8c-2.4,0-4.6-0.4-6.6,0.1c-1.7,0.4-4,1.6-4.5,2.9c-5.3,13.8-10.3,27.8-15.3,41.6
			c9.2,1.5,9.2,1.5,12.5-7.3c0.4-1.2,1.4-2.1,2.1-3.2c0.5,0.2,0.9,0.3,1.4,0.5c-0.2,3.6-0.4,7.2-0.7,11.2c7.8,0,15.6-0.5,23.4,0.2
			c6.2,0.6,7.8-2.3,8.1-7.2c-2.4-0.6-4.5-1.1-6.6-1.5c2-3.4,3.5-9.2,6-9.6c5.3-0.9,5.3-4.7,7.6-8.1c-2.4-0.3-4.1-0.5-5.8-0.7
			c2.8-10.9,2.8-10.9,14.2-10.7c-4.7,12.6-9.4,25.1-14.1,37.6c2.8,0,6.4,1,8.7-0.3c2.1-1.2,2.8-5,4.8-9.2c0.1,3.1,0.4,4.4,0.2,5.7
			c-0.1,1.2-0.7,2.4-1,3.6c8.8,1.7,9,1.8,11.3-6.2c1.2-4.3,1.6-8.8,2.5-13.2c0.2-0.8,1.2-1.4,1.6-2.2c2.5-4.7,5.3-9.3,7.2-14.2
			c0.7-1.7-0.2-4.7-1.5-6.2c-3.3-4.1-16.1-3.2-18.8,0.8c-1.3-1.1-2.5-3.1-4-3.3c-4.2-0.4-8.5-0.3-12.7,0c-1,0.1-2.4,1.1-2.7,2
			c-4.7,11.9-9.2,23.9-13.9,35.9c-0.7,1.8-2,3.4-3.1,5.1c-0.5-0.2-0.9-0.4-1.4-0.7c0-5.2,0.3-10.4-0.1-15.6c-0.3-4.4,1.4-7.4,4-10.5
			c4.2-4.9,8.2-10.2,12.6-15.7c-5.5-1.3-10-3.3-13.2,2.7C215,127.2,213.3,127.8,212,128.6z M132.3,165.2c9.3,2.3,10.6,1.8,13.2-5.2
			c4.8-13,9.6-26,14.3-38.8c-5.8-1.8-8,1.6-9.5,6.4c-1,3.4-2.6,6.6-3.9,9.9c-0.4-0.1-0.9-0.1-1.3-0.2c0.4-5.5,0.9-11,1.3-16.7
			c-1.6,0-2.8,0.2-3.8,0c-5.5-1.3-8,1.3-9.4,6.4c-1.3,4.4-3.3,8.7-4.9,13c-3,8.3-6,16.7-9.1,25.4c11.1,1.3,8.3-9.3,14.1-14.4
			C132.7,156.4,132.5,160.6,132.3,165.2z M200.1,122.5c-3.8-0.6-6.7-1.4-9.7-1.5c-7.5-0.2-12.7,1-15.8,9
			c-3.2,8.4-7.1,16.5-10.1,24.9c-1.3,3.7-3,8.2,1.4,11.3c5.8,4,16.6,0.9,19.4-5.6c1.9-4.4,3.5-8.9,5.1-13.2c-5-1.8-9.3-1.8-11.9,4.2
			c-0.5-0.4-1-0.8-1.6-1.2c2.7-7.2,5.4-14.4,8.1-21.5c0.7,0.2,1.3,0.5,2,0.7c-0.6,2.1-1.3,4.1-1.9,6.2c-0.5,1.6-4.1,3.4,0.1,4.5
			c2.9,0.8,6.5,3.2,8.5-1.5C195.9,133.6,197.8,128.4,200.1,122.5z M174.1,122.3c-1-0.4-1.6-0.9-2.3-1c-4.3-0.5-8.7-2.3-9.8,4.9
			c-0.8,5.5-3.3,10.8-5.4,16.1c-3.2,7.9-6.8,15.7-10.3,23.7c11.9,0.9,10.2,2.5,14.3-8.3C165,146,169.5,134.4,174.1,122.3z"/>
		<path class="st13" d="M98.6,166.8c-1.9-1.1-3.9-2.1-5.8-3.2c4-6.8,3.1-18.9,17.1-13.4c-1.9-3.7-3.5-6.5-4.7-9.4
			c-0.7-1.7-1.1-3.7-0.9-5.5c1.7-12.8,11.2-18.5,23.9-15c3.1,0.9,3.9,1.9,2.2,4.7c-0.2,0.3-0.4,0.6-0.6,1c-4.7,10-4.7,10-16,9.4
			c1.3,1.8,2,3.3,3.1,4.2c4.4,3.5,4.9,8,3.2,12.7c-1.9,5.5-3.1,11.9-10.4,13.2c-2.8,0.5-5.6,0.8-8.3,1.3
			C100.4,166.7,99.5,166.8,98.6,166.8z"/>
		<path class="st14" d="M266.5,170.2c-1.8-0.7-3.7-1.5-6-2.4c2.7-7.8,2.6-18.3,15.1-15.7c-1.6-5-4.4-9.4-4-13.6
			c0.4-4.3,3.3-8.7,5.9-12.5c2.8-4,14.2-4.3,20.9-1c-0.8,2.8-1.5,5.7-2.5,8.5c-2.1,5.9-5.6,7.1-11.6,4.1c-0.6-0.3-1.6-0.2-2.2,0.2
			c-0.3,0.2-0.4,1.2-0.3,1.8c0.1,0.5,0.4,1,0.7,1.5c6.4,9.5,6.6,15.3-0.4,24.6c-1.5,1.9-5,2.4-7.7,3.3c-1.9,0.7-4,0.9-6,1.4
			C267.8,170.2,267.1,170.2,266.5,170.2z"/>
		<path class="st1" d="M234.3,174.4c-1.4,0.5-2.8,1.4-4.1,1.4c-18.9-0.3-37.9-0.7-56.8-1.2c-8.3-0.2-16.6-0.6-24.8-1.1
			c-1.4-0.1-2.8-0.8-4.1-1.2c16.1,0.1,32.2,0,48.3,0.2c11.7,0.1,23.3,0.5,35,0.9C229.9,173.5,232.1,174,234.3,174.4z"/>
		<path class="st1" d="M144.5,172.3c-2,0-4,0-5.9,0C140.5,172.3,142.5,172.3,144.5,172.3z"/>
		<path class="st15" d="M286.8,188.4c-3.1,0-6.2,0.1-9.3,0c-21.8-0.4-43.7-0.7-65.5-1.2c-3-0.1-6-0.7-9-1.1c0.5-0.7,1.1-2,1.6-2
			c13.8,0.5,27.6,1.2,41.4,1.6c11.7,0.3,23.5,0.2,35.2,0.5C283.1,186.3,284.9,187.6,286.8,188.4z"/>
		<path class="st15" d="M332.7,202.1c-6.1-1.3-12.3-2-18.1-4.1c-6.5-2.3-12.6-5.8-18.8-8.9c-0.5-0.3-0.7-1.2-1-1.9
			c6.1,2.3,12.2,4.7,18.3,7c5.4,2,10.9,3.9,16.3,5.9C330.6,200.6,331.6,201.5,332.7,202.1z"/>
		<path class="st15" d="M100.8,185c-10.7,2.3-21.4,4.6-32.2,6.9c0.2-0.5,0.2-1.4,0.5-1.6C79.4,186.3,89.5,182.4,100.8,185z"/>
		<path class="st15" d="M339.6,196.6c-1.2,1.5-2.3,3-3.5,4.5c0.8-1.6,1.6-3.1,2.4-4.7C338.9,196.3,339.3,196.4,339.6,196.6z"/>
		<path class="st15" d="M292.5,187.3c-1.2,0.4-2.3,0.7-3.5,1.1C290.2,188,291.4,187.7,292.5,187.3z"/>
		<path class="st15" d="M110,185c-0.8,0-1.5,0-2.3,0C108.5,185,109.2,185,110,185z"/>
		<path class="st3" d="M331.6,195.1c0.4-0.6,0.8-1.1,1.2-1.7c0.4,0.6,0.7,1.1,1.1,1.7C333.1,195.2,332.3,195.1,331.6,195.1z"/>
		<path class="st1" d="M312.1,181.5c2.3-0.4,4.6-0.8,6.8-1.2c0.6,1.2,1.8,2.5,1.6,3.5c-0.3,1.1-2.3,2.8-2.8,2.6
			c-2.4-1.2-4.5-2.8-6.8-4.3C311.3,181.9,311.7,181.7,312.1,181.5z"/>
		<path class="st3" d="M58.3,181.5c-0.6-0.5-1.2-0.9-1.8-1.4c0.1-0.1,0.2-0.2,0.4-0.4C57.4,180.4,57.9,180.9,58.3,181.5
			C58.3,181.5,58.3,181.5,58.3,181.5z"/>
		<path class="st14" d="M212,128.6c1.3-0.9,3-1.4,3.7-2.6c3.1-6,7.7-4,13.2-2.7c-4.4,5.6-8.4,10.8-12.6,15.7
			c-2.7,3.1-4.4,6.2-4,10.5c0.4,5.2,0.1,10.4,0.1,15.6c0.5,0.2,0.9,0.4,1.4,0.7c1-1.7,2.3-3.3,3.1-5.1c4.7-11.9,9.2-23.9,13.9-35.9
			c0.4-0.9,1.8-1.9,2.7-2c4.2-0.2,8.5-0.4,12.7,0c1.4,0.1,2.7,2.2,4,3.3c2.7-4,15.5-5,18.8-0.8c1.2,1.6,2.1,4.6,1.5,6.2
			c-1.9,4.9-4.7,9.5-7.2,14.2c-0.4,0.8-1.4,1.4-1.6,2.2c-0.9,4.4-1.2,8.9-2.5,13.2c-2.3,8-2.5,7.9-11.3,6.2c0.4-1.2,0.9-2.4,1-3.6
			c0.2-1.3-0.1-2.6-0.2-5.7c-2,4.1-2.7,7.9-4.8,9.2c-2.3,1.3-6,0.3-8.7,0.3c4.7-12.5,9.4-25,14.1-37.6c-11.4-0.2-11.4-0.2-14.2,10.7
			c1.8,0.2,3.5,0.4,5.8,0.7c-2.3,3.4-2.3,7.1-7.6,8.1c-2.5,0.4-4,6.2-6,9.6c2.1,0.5,4.2,1,6.6,1.5c-0.4,5-1.9,7.8-8.1,7.2
			c-7.7-0.7-15.6-0.2-23.4-0.2c0.2-4,0.4-7.6,0.7-11.2c-0.5-0.2-0.9-0.3-1.4-0.5c-0.7,1.1-1.7,2-2.1,3.2c-3.3,8.8-3.2,8.8-12.5,7.3
			c5-13.8,10-27.8,15.3-41.6c0.5-1.4,2.8-2.5,4.5-2.9c2-0.5,4.1-0.1,6.6-0.1c-0.5,2.5-0.9,4.7-1.3,6.8c-0.1,0.3-0.3,0.6-0.4,0.8
			c0.2,0,0.3-0.1,0.5-0.1C212.1,129.2,212.1,128.9,212,128.6z"/>
		<path class="st14" d="M132.3,165.2c0.3-4.5,0.5-8.7,0.8-14.2c-5.8,5.1-3,15.7-14.1,14.4c3.1-8.8,6.1-17.1,9.1-25.4
			c1.6-4.4,3.7-8.6,4.9-13c1.4-5,3.9-7.7,9.4-6.4c1.1,0.3,2.3,0,3.8,0c-0.4,5.8-0.9,11.2-1.3,16.7c0.4,0.1,0.9,0.1,1.3,0.2
			c1.3-3.3,2.8-6.5,3.9-9.9c1.5-4.8,3.7-8.2,9.5-6.4C155,134,150.3,147,145.4,160C142.9,166.9,141.5,167.4,132.3,165.2z"/>
		<path class="st13" d="M200.1,122.5c-2.3,5.9-4.3,11.1-6.4,16.3c-2,4.7-5.6,2.3-8.5,1.5c-4.1-1.2-0.6-3-0.1-4.5
			c0.7-2,1.3-4.1,1.9-6.2c-0.7-0.2-1.3-0.5-2-0.7c-2.7,7.2-5.4,14.4-8.1,21.5c0.5,0.4,1,0.8,1.6,1.2c2.6-6,6.9-5.9,11.9-4.2
			c-1.7,4.3-3.3,8.8-5.1,13.2c-2.8,6.4-13.6,9.6-19.4,5.6c-4.4-3.1-2.8-7.6-1.4-11.3c3.1-8.4,6.9-16.6,10.1-24.9
			c3.1-8,8.3-9.2,15.8-9C193.4,121.1,196.4,121.9,200.1,122.5z M176.4,154c0.5,0.5,0.8,1.1,1.2,1.2c0.4,0,1-0.5,1.1-0.9
			c0-0.4-0.4-1.1-0.7-1.2C177.5,153,177,153.6,176.4,154z"/>
		<path class="st13" d="M174.1,122.3c-4.6,12.1-9.2,23.7-13.6,35.4c-4.1,10.8-2.3,9.1-14.3,8.3c3.5-8,7.1-15.8,10.3-23.7
			c2.1-5.2,4.6-10.6,5.4-16.1c1.1-7.2,5.5-5.4,9.8-4.9C172.5,121.4,173.2,121.9,174.1,122.3z"/>
		<path class="st2" d="M212,128.6c0.1,0.3,0.1,0.5,0.2,0.8c-0.2,0-0.3,0.1-0.5,0.1c0.1-0.3,0.3-0.5,0.4-0.8
			C212.1,128.7,212,128.6,212,128.6z"/>
		<path class="st2" d="M176.4,154c0.7-0.4,1.1-0.9,1.5-0.9c0.3,0.1,0.8,0.8,0.7,1.2c0,0.3-0.7,0.9-1.1,0.9
			C177.2,155.1,176.9,154.5,176.4,154z"/>
	</g>
</g>
</svg>
