<?xml version="1.0" encoding="utf-8"?>
<!-- Generator: Adobe Illustrator 23.0.2, SVG Export Plug-In . SVG Version: 6.00 Build 0)  -->
<svg version="1.1" id="Layer_1" xmlns="http://www.w3.org/2000/svg" xmlns:xlink="http://www.w3.org/1999/xlink" x="0px" y="0px"
	 viewBox="0 0 400 400" style="enable-background:new 0 0 400 400;" xml:space="preserve">
<style type="text/css">
	.st0{fill:#FEFEFE;}
	.st1{fill:#B18239;}
	.st2{fill:#BE8B38;}
	.st3{fill:#CB963D;}
	.st4{fill:#E5B14A;}
	.st5{fill:#D5A041;}
	.st6{fill:#A97E39;}
	.st7{fill:#886939;}
	.st8{fill:#2C1D0C;}
	.st9{fill:#E5E2E4;}
	.st10{fill:#D4AD5E;}
	.st11{fill:#6F5936;}
	.st12{fill:#9A9B9C;}
	.st13{fill:#D2D5D7;}
	.st14{fill:#8F703F;}
	.st15{fill:#7F6333;}
	.st16{fill:#3C3223;}
	.st17{fill:#866A3D;}
	.st18{fill:#F4E18F;}
	.st19{fill:#EAD58D;}
	.st20{fill:#9C855F;}
	.st21{fill:#FCFCFC;}
	.st22{fill:#8F6E3A;}
	.st23{fill:#EBD17F;}
	.st24{fill:#6F5835;}
	.st25{fill:#DBB868;}
	.st26{fill:#F7E790;}
	.st27{fill:#DBAC54;}
	.st28{fill:#3E3323;}
	.st29{fill:#77613D;}
	.st30{fill:#E8C46D;}
	.st31{fill:#A3772E;}
	.st32{fill:#E0AB48;}
	.st33{fill:#ECBC53;}
	.st34{fill:#DAA644;}
	.st35{fill:#AB7D31;}
	.st36{fill:#CC9C47;}
	.st37{fill:#EBD386;}
	.st38{fill:#DDB662;}
	.st39{fill:#E7C069;}
	.st40{fill:#CE9A3F;}
	.st41{fill:#635846;}
	.st42{fill:#736551;}
	.st43{fill:#F2C458;}
	.st44{fill:#F4E58E;}
	.st45{fill:#CACDCF;}
	.st46{fill:#271806;}
	.st47{fill:#B38A42;}
	.st48{fill:#40392F;}
	.st49{fill:#3C2A0F;}
	.st50{fill:#6C511E;}
	.st51{fill:#685025;}
	.st52{fill:#D6AC55;}
	.st53{fill:#C6A35B;}
	.st54{fill:#453827;}
	.st55{fill:#D9BA6D;}
	.st56{fill:#AF9B6F;}
	.st57{fill:#6B511E;}
	.st58{fill:#896E3F;}
	.st59{fill:#837F73;}
	.st60{fill:#BAA77C;}
	.st61{fill:#E9767C;}
	.st62{fill:#221E1E;}
	.st63{fill:#656668;}
	.st64{fill:#C6C9CD;}
	.st65{fill:#E9EAEA;}
	.st66{fill:#A47B3A;}
	.st67{fill:#DD2940;}
	.st68{fill:#E12A41;}
	.st69{fill:#D72940;}
	.st70{fill:#BA8838;}
	.st71{fill:#D92940;}
	.st72{fill:#D1A14A;}
	.st73{fill:#BF8C3A;}
	.st74{fill:#E3B75D;}
	.st75{fill:#ECC86C;}
	.st76{fill:#F0F1F2;}
	.st77{fill:#8E1819;}
	.st78{fill:#CDAE68;}
	.st79{fill:#34230A;}
	.st80{fill:#8A1717;}
	.st81{fill:#8A1617;}
	.st82{fill:#8B1617;}
	.st83{fill:#AF8136;}
	.st84{fill:#EE5059;}
	.st85{fill:#C8A966;}
	.st86{fill:#C0A263;}
	.st87{fill:#8C1819;}
	.st88{fill:#947030;}
	.st89{fill:#CBB071;}
	.st90{fill:#B8A274;}
	.st91{fill:#3B2806;}
	.st92{fill:#8B1919;}
	.st93{fill:#C1A363;}
	.st94{fill:#D6BC77;}
	.st95{fill:#951F21;}
	.st96{fill:#523C0C;}
	.st97{fill:#8F181A;}
	.st98{fill:#C59644;}
	.st99{fill:#9A7330;}
	.st100{fill:#ED8289;}
	.st101{fill:#74561C;}
	.st102{fill:#941E20;}
	.st103{fill:#D19D42;}
	.st104{fill:#982426;}
	.st105{fill:#AD8239;}
	.st106{fill:#987235;}
	.st107{fill:#D52D3F;}
	.st108{fill:#E9CF7E;}
	.st109{fill:#EE5960;}
	.st110{fill:#E67776;}
	.st111{fill:#9D3636;}
	.st112{fill:#BA2F38;}
	.st113{fill:#E77776;}
	.st114{fill:#B83E3C;}
	.st115{fill:#2E1C07;}
	.st116{fill:#564018;}
	.st117{fill:#3C290B;}
	.st118{fill:#1B1008;}
	.st119{fill:#9C3233;}
	.st120{fill:#E4C469;}
	.st121{fill:#634B19;}
	.st122{fill:#B13A3B;}
	.st123{fill:#B38338;}
	.st124{fill:#C18F3C;}
	.st125{fill:#BF9548;}
	.st126{fill:#D29E43;}
	.st127{fill:#A67C3A;}
	.st128{fill:#E6B753;}
	.st129{fill:#EBBC53;}
	.st130{fill:#BB9247;}
	.st131{fill:#493D2B;}
	.st132{fill:#D7B45E;}
	.st133{fill:#5A4F39;}
	.st134{fill:#241304;}
	.st135{fill:#C5913A;}
	.st136{fill:#FCF092;}
	.st137{fill:#715D3C;}
	.st138{fill:#B19963;}
	.st139{fill:#C1CCA9;}
	.st140{fill:#856A3D;}
	.st141{fill:#B2B4B7;}
	.st142{fill:#B7B9BC;}
	.st143{fill:#EDEFF1;}
	.st144{fill:#ACAEB1;}
	.st145{fill:#A7A9AB;}
	.st146{fill:#ADAFB2;}
	.st147{fill:#7C5D23;}
	.st148{fill:#9C9DA0;}
	.st149{fill:#1A0A02;}
	.st150{fill:#2F271D;}
	.st151{fill:#A47A38;}
	.st152{fill:#89682F;}
	.st153{fill:#513E21;}
	.st154{fill:#D6DAD1;}
	.st155{fill:#9AC546;}
	.st156{fill:#8D8E90;}
	.st157{fill:#96989A;}
	.st158{fill:#BFC2C6;}
	.st159{fill:#DDA846;}
	.st160{fill:#654B15;}
	.st161{fill:#4A340B;}
	.st162{fill:#96702D;}
	.st163{fill:#2F1E05;}
	.st164{fill:#B4B6B8;}
	.st165{fill:#B3B5B8;}
	.st166{fill:#5C5B5B;}
	.st167{fill:#C3C6C9;}
	.st168{fill:#1A0E03;}
	.st169{fill:#C9A062;}
	.st170{fill:#EBDBA3;}
	.st171{fill:#AAA786;}
	.st172{fill:#708546;}
	.st173{fill:#545B44;}
	.st174{fill:#525841;}
	.st175{fill:#697053;}
	.st176{fill:#CDC094;}
	.st177{fill:#7A633D;}
	.st178{fill:#836B40;}
	.st179{fill:#CDBF92;}
	.st180{fill:#DDDD71;}
</style>
<g>
	<g>
		<path class="st0" d="M401.3,201.5c0,65.3,0,130.6,0.1,195.9c0,3.4-0.6,4.1-4.1,4.1c-131-0.1-261.9-0.1-392.9,0
			c-3.9,0-4.2-1.2-4.2-4.5c0.1-130.8,0.1-261.6,0-392.4c0-3.6,0.7-4.4,4.3-4.4c130.8,0.1,261.6,0.1,392.4,0c4,0,4.5,1.2,4.5,4.7
			C401.3,70.5,401.3,136,401.3,201.5z"/>
		<path class="st1" d="M249.6,135.6c21.5,0,43-0.2,64.4,0c9.6,0.1,19.3,0.6,28.9,1.7c7.5,0.9,13.2-2.5,18.1-6.9
			c9.9-9,21.6-7.1,33.1-6.9c2.6,0.1,5.9,1.7,2.3,5.5c-3.1,3.3,2.8,3.9,2.2,6.4c-0.5,2-4.8,3.1-1.3,6c0.4,0.3,1.1,0.9,1,1
			c-2,4.1,1.1,8.4-0.4,12.1c-1,2.2-1.5,3.4,0.4,4.9c0.1,0.1,0.2,0.2,0.3,0.4c2.9,3.2-2.9,4-1.8,6.7c0.8,2,5,3.5,1.1,6.3
			c-0.1,0.1-0.2,0.2-0.4,0.4c-3.1,3.1,2.7,4.1,1.6,6.7c-0.8,2-5.1,3.1-1.5,6.3c3.7,3.3-1.4,4.1-1.9,6.3c-0.5,2.4,5.5,3.5,1.5,6.4
			c-4.4,3.2,0.6,4.9,0.7,7.3c0.1,2.3-5.7,3.8-1.2,7c0.3,0.2,0.6,0.7,0.6,0.7c-4,3.6,0.5,8.3-1.6,12.1c-0.2,0.3-0.7,0.6-0.6,0.7
			c2.2,4.1-1.6,9.1,0.8,12.3c3,3.9-2.3,4.6-1.6,7.1c0.6,2.1,5,3.5,1.2,6.4c-0.3,0.2-0.7,0.7-0.7,0.7c3.3,3.9-0.7,8.6,1.2,12.6
			c0.1,0.3,0.7,0.6,0.6,0.7c-1,3.7-2.2,7.4,0.4,11.1c0.3,0.4-2.1,1.6-3.8,1.6c-5.8-0.1-11.7,0-17.5-0.1c-2,0-4.1-0.4-5.7-1.6
			c-12-9.5-25.9-10.3-40.5-9.9c-23.5,0.6-46.9,0.2-70.4,0.2c-0.8,0-1.6-0.4-2.4-0.6c0.6-2.5,2.6-1.9,4.3-1.9c2.4,0.6,4.6-0.9,7-0.4
			c1.3,0,2.6,0,3.9,0c24.3-0.2,48.6-0.1,72.8-0.1c7.3,0,14.3,1,20.4,5.4c2.8,2,3.8,0.7,4.4-2c4.2-14,4.7-28.3,2.9-42.7
			c0-4.6,0.6-9.3-0.5-13.9c-0.4-1.4-0.4-2.9-0.4-4.3c-0.6-13.3,1.6-26.5,1-39.8c-0.4-10.4-0.7-20.9-2.2-31.2c-0.2-1.6-0.1-3.3-1.5-5
			c-2.3,3-1.5,6.8-3.3,9.7c-0.9,0.9-1.7,0.9-2.3-0.3c-0.5-0.9-1.1-1.2-1.9-0.5c-2.2,1.1-3.4,2.7-2.9,5.2c-1.3,3.5-4.1,4.1-7.4,3.8
			c-19.2,0-38.3-1.4-57.4-1.2c-12.1,0.1-24.2-1.8-36.3-2.4c-0.9-0.3-1.6-0.9-2.1-1.7c-1-4.4,2.6-3.7,4.6-3.6c7.5,0,15-0.7,22.4-0.7
			c1.6,0,3.3,0.5,4.1-0.4c-11,0.8-22.5,1.2-34,0.7C250.7,139.1,248.2,138.8,249.6,135.6z"/>
		<path class="st2" d="M7.4,253.4c-2.3-1.5-4.2-3-1.1-5.6c3.8-3.2-1.7-4.1-1.7-6.3c0-2.3,5.2-3.2,1.8-6.4c-0.4-0.3-0.7-0.7-1-1.1
			c-2.8-3.1,3.4-3.8,1.8-6.6c-1.1-1.8-4.7-3.1-1.2-5.9c0.3-0.2,0.7-0.6,0.7-0.7c-2.8-3.9-0.1-8.4-1.2-12.6c-1-4.1-0.6-8.6-0.7-13
			c0-0.2,0.4-0.5,0.6-0.7c2.6-3.5-2.8-3.9-2.6-6.5c0.2-2,5-2.8,1.8-5.9c-0.2-0.2-0.5-0.4-0.7-0.7c-0.5-0.6-0.9-1.3-1.4-2
			c6.3-2.8-2.3-7.9,1.7-11.1c11.1-2.1,15.5-6.5,17.8-17.7c0.5-2.6,1.1-5.2,2.4-7.6c0.6-1,1.4-2,2.8-1.7c1.2,0.3,1.9,1.3,2,2.6
			c0.2,3.5,0.3,7.1-0.1,9.4c0,1.9,0.9,0.9,0.3,1.2c-0.3,0.1-0.4,0-0.4-0.3c0.6-6.4,0-13,1.2-19.3c0.5-3,0.1-7,4.7-7.7
			c2.5,0.8,3.3,2.9,3.6,5.2c0.2,1.4,0.9,1,1.7,0.8c1.4,1.1,1.2,2.5,1,3.9c-0.9,2.4-0.2,4.7,0.4,7.1c1,6.3,3,12.2,4.7,18.3
			c1.1,3.9,2.7,7.1,7.2,7.7c-1.9,3.7-3.1,7.8-5.8,11c-3,3.6-4.8,3.4-8.1-0.4c-1.2-6.6-1.3-13.3-1.2-18.9c-0.8,6.8,1,14.6,0.9,22.5
			c-2.8,2.2-5.2,0.4-7.7-0.9c-0.5-5.6,0-11.2-0.2-16c0,6.5,0.8,13.9-0.1,21c-0.9,6.6-1.4,13.1-1.4,19.7c0,6.8-0.6,13.6,0.7,20.4
			c0.8,4-0.3,8-1,11.9c-0.5,2.4-2,3.8-4.5,3.9c-2,0.1-4,0.2-6,0.4c-3.2,0.4-6.1,0.8-6.4,5.3C12.5,252.5,10.3,253.9,7.4,253.4z"/>
		<path class="st3" d="M7.4,253.4c2.1-1.6,6.5-1.7,3.5-6.3c-1-1.5,0.6-2.4,2-2.6c4-0.6,7.9-2.5,12.1-1.4c1.8,0.5,3.1-0.4,3.2-2.1
			c0.4-5.1,1.6-9.9,0.6-15.2c-1-5.6-0.4-11.6-0.5-17.4c3.2,0.9,2.2,3.6,2.3,5.7c0.2,3.8-0.4,7.6,1.5,11.2c0.7,8.4,1.1,16.9,1.6,25.4
			c0.2,3.4,0.1,6.8,0.9,10.7c0.5-4.8,0.2-9.1,0.3-13.3c0.1-2.1-0.4-4.4,2-5.7c1.3,0.4,1.8,1.4,2.3,2.5c1.5,7.1,0.2,14.2-1,21.2
			c-1.2,7-7.4,7.6-12.6,8.5c-6.2,1.1-12.5,0.9-18.6-1.1c0.3-1.1-0.2-1.9-0.9-2.7c-0.4-0.5-1.3-1.4-1.3-1.4c4-3.9-1.5-9,1.7-13
			C7.4,255.4,8.1,254.6,7.4,253.4z"/>
		<path class="st4" d="M5.3,158.4c0.6-1.6-0.5-2.6-1.4-3.5c-3.4-3.3,1.2-4.3,1.8-6.4c0.6-2.4-5.2-3.3-1.4-6.4c0.4-0.3,1.1-0.8,1-1.1
			c-1.4-4.1,0.8-8.3,0-12c-0.9-4-0.8-5.6,3.7-5.7c6.5-0.1,12.9,0.1,19.4,0.2c0.7,0.8,1,1.9,0.5,2.8c-5,8.8-5.9,19.6-12.7,27.6
			C13.2,157.4,9.6,158.5,5.3,158.4z"/>
		<path class="st5" d="M5.3,158.4c0.9-0.4,1.8-1,2.7-1.2c7.6-1.6,9.7-8.1,12.5-13.9c3.2-6.4,4.1-13.6,7.8-19.8
			c1.8-0.4,3.4,0,4.9,0.9c1.3,1,3.5,1.5,2.1,4c-4.9,0.2-3.7,4.5-3.9,6.9c-0.4,5.1-1.8,10.1-1.2,15.3c0.2,1.7-0.5,3.2-2,5.9
			c0-4.9,0-8.5,0-12.2c0-1-0.2-2.1-1.5-2.2c-1,0-1.2,1-1.5,1.8c-2.1,5.4-2.5,11.2-5,16.5c-2.5,5.3-10.8,9.8-16.1,7.9
			c0.8-1.4,1.8-2.8,0-4.2C1.1,161.6,2.8,159.9,5.3,158.4z"/>
		<path class="st6" d="M52.3,136.6c6.5,2,12.9,0.1,19.3-0.3c25.3-1.4,50.6-0.7,76-0.6c1.8,0,3.7-0.1,5.5-0.1c3.5,0.8,7,0.3,10.4,0.3
			c20.3,0.1,40.6,0,61,0c2.7,0,5.8-0.2,2.4,3.8c-0.5,0.4-1.1,0.7-1.8,0.8c-9.6,0.4-19.3,0.7-28.9,0c-1.9-0.6-3.9-0.8-5.9-0.7
			c-3.8,0-7.6-0.1-11.5,0c-27.4,0.7-54.7-1.7-82.1-1c-6.4,0.4-12.8-0.7-19.2,0.5c-4.6,1-9.3-0.2-13.9,0.9
			c-5.7,0.4-11.3,2.9-17.1,0.7C45.9,136.2,49.7,137.1,52.3,136.6z"/>
		<path class="st2" d="M7.1,273.4c5.4-1.6,10.8,0.6,16.2,0.2c8.4-0.6,13.4-3.5,14-9.3c0.7-6.6,1.5-13.2,1-19.8
			c-2.8-7.1,0.1-14.1,0.2-21.2c2-2.1,2.9-0.3,4.1,1c0.5,2.7-0.2,5.4,0,8.1c0,0.8-0.2,1.6-0.4,2.3c-2,6.8,0.1,12.4,4.9,17.3
			c0.9,3.7,0.6,7.5,0.3,11.3c-1,3.7-5.3,3.4-7.4,5.8c2.4,0,4.6-2.1,7.1-0.9c1.4,2.2-1.6,1.8-1.8,3c-4.7,2.4-9.4,4.8-14,7.3
			c-7.4-1.1-14.7-0.1-22,0.4c-1.2,0.1-2.3,0.3-3.4-0.2C1.9,275.9,6,274.9,7.1,273.4z"/>
		<path class="st7" d="M229.1,267.3c-24.8,0.1-49.6,0.2-74.3,0.4c-8.8,0.1-17.6,0.4-26.4,0.6c2.5-3.8,6.7-2.3,10.1-3.2
			c2.3-0.6,4.8,0.1,6.9-0.3c-2.5,0.1-5.3,0.4-8-0.2c-0.1-2.7,2.1-2.1,3.6-2.5c2.8-0.1,5.6,0,8.2,1.2c2.9,1.3,6.2,0.8,9.2,1.7
			c0.5,0,1,0,1.6,0.1c3.4,0,6.8,0.4,10.2-0.5c1.5-0.3,3.1-0.4,4.6-0.4c2,0.2,3.9-0.4,5.6-1.4c7-0.6,14-1.2,21.1-1.4
			c1.8,0,2.9-1.6,4.7-1.2c1.3,0.8,1.3,2.5,2.5,3.4c1.3,1.5,2.9,1.1,4.6,0.9c4.6-0.5,9.1-2,13.7-2.3c1.9,0,3.8-0.1,5.4-1.3
			c2-0.8,3.9,0.2,5.8,0.3c1,0.1,1.9,0.2,2.8,0.7c1.4,1.4,0.1,2-0.9,2.5c-1.3,0.7-3,0.5-3.7,2.2C234.1,267.9,231.6,267.5,229.1,267.3
			z"/>
		<path class="st8" d="M112.1,268.2c-3,0-5.9,0-8.9,0c-1-1.1-2.6-1.6-3.2-3.1c0-0.5,0.2-0.8,0.5-1.2c3.5-1.5-1.4-1.1-0.4-2.1
			c-1.4-3.2-1.8-6.7-2-10.1c-0.2-3.9,1.4-6,5.6-5.5c0.5,0.1,1.1,0.3,1.5,0.6c3.1,4.3,3.8,9.4,5.1,14.3c0.2,0.9,0.3,1.7,0.5,2.6
			c0.1,0.4,0.2,0.8,0.3,1.1c0.2,0.7,0.4,1.4,0.9,2C112.3,267.3,112.8,267.7,112.1,268.2z"/>
		<path class="st9" d="M226.3,139.4c0.5-0.8,1.7-1.9,1.5-2.3c-0.7-1.5-2.3-0.8-3.6-0.8c-21.9-0.1-43.8-0.1-65.7-0.2
			c-1.8,0-3.7,0.3-5.4-0.6c26.2-0.1,52.4-0.1,78.6-0.1c6,0,11.9,0.1,17.9,0.2c-0.5,2.2,1.3,2.5,2.6,3.1c0.3,0.5,0.2,0.9-0.3,1.2
			c-3.1,1.1-5.9-2.3-9.1-0.5c-2.8,0.5-5.6,0.5-8.3,0.7C231.8,139.1,228.9,141.4,226.3,139.4z"/>
		<path class="st10" d="M100.4,265.4c1.6,0.3,3.3,0.5,2.9,2.9c-10.6,0-21.2-0.1-31.8-0.1c-0.1-1.4,0.7-2.3,1.8-3
			C82.3,263.5,91.3,263,100.4,265.4z"/>
		<path class="st11" d="M52.3,136.6c-1.8,1.6-5,1.1-6,3.9c-0.2,0.2-0.3,0.3-0.5,0.5c-1.8,1-3.6,1.3-5.3-0.1c-0.8-1-1-2.1-0.3-3.3
			c0.1-1.5,0.3-3-0.7-4.2c-1.1-2-3.5-3.6-1.5-6.3C42.4,130.9,47.4,133.7,52.3,136.6z"/>
		<path class="st12" d="M72.7,266.2c-0.4,0.6-0.8,1.3-1.3,1.9c-2.3,0.1-4.6,0.1-6.9,0.2c-0.8-0.3,0.7-1.3-0.2-1.2
			c-3.1,0.1-5.6-0.6-7.1-3.6c0.6-1,1.7-1.7,2.4-2.6c4.6-3.6,8.4-1.3,12.2,1.6c1.7,1,0.4,2.2,0.2,3.3C72.2,265.9,72.5,266,72.7,266.2
			z"/>
		<path class="st3" d="M5.9,278.6c6.8-1.2,13.6-2.5,20.6-2.2c1.8,0.1,3.7-0.1,4.7,1.9C22.9,280.2,14.4,279.8,5.9,278.6z"/>
		<path class="st13" d="M57.3,263.5c2.8,1.7,5.6,3.4,9.1,2.9c0.1,1.6-1.8,0.9-2,2c-3.4,0-6.8,0-10.3,0c-1.3-1.4-3.1-0.4-4.6-0.8
			c-1.6-0.3-3-0.8-2.8-2.8c0.8-1.6,0.1-3.6,1.1-5.1c0.4-0.4,0.8-0.5,1.3-0.4c1,0.7,1.2,2,1.7,3C52.7,264.4,55.5,261.7,57.3,263.5z"
			/>
		<path class="st14" d="M251.5,266.7c-3,1.4-6,1.5-9.2,0.8c0-0.2,0-0.5,0-0.7c0.5-1.8-1.6-4.4,1.5-5.5c2.8-0.3,5.6-1,8,1.1
			C252.6,264,252.3,265.4,251.5,266.7z"/>
		<path class="st15" d="M137.2,264.3c2.7,0,5.4,0,8.1,0c-5.9,0.5-11.3,2.9-16.9,3.9c-3,0-6,0-8.9,0c0.7-2.9,3.2-1.8,5-2.2
			c1.2,0,2.4-0.3,3.5-0.8c1.2-0.4,2-1.4,3.2-1.8C133.2,263.1,135.3,262.7,137.2,264.3z"/>
		<path class="st16" d="M262.3,266.5c-1.8,0-3.6-0.8-5.1,0.8c-0.6,0-1.1,0-1.7,0c-1.4-1.3-1.4-2.9-1-4.6c0.3-0.8,0.8-1.4,1.6-1.7
			c1.9-0.1,3.8,0,5.6,0.7C263,263.2,265.4,264.5,262.3,266.5z"/>
		<path class="st17" d="M229.1,267.3c2.2-1.4,5-0.1,7.2-1.7c2.4-1.2,4.5-0.9,6.2,1.4c-0.1,0.2-0.2,0.4-0.2,0.6
			C237.9,268,233.5,268.9,229.1,267.3z"/>
		<path class="st18" d="M38.1,127c-1.1,2.5,1.7,4,1.5,6.3c-0.4,1.5-1.2,2.3-1.9,0.3c-0.7-1.8-0.5-3.9-2.2-5.3c0-1.7-1.6-2.6-2.1-4
			C35.5,124.2,37,125.2,38.1,127z"/>
		<path class="st19" d="M125.1,267.2c-1.9,0.4-3.8,0.7-5.7,1.1c-2.5,0-4.9,0-7.4-0.1c-0.2-0.3-0.5-0.5-0.8-0.8
			C114.1,264.1,121.8,264,125.1,267.2z"/>
		<path class="st20" d="M50.3,266.7c1.4,0.3,3.6-1.3,3.8,1.7c-2.9,0.9-5.9,1.8-8.8,2.7c0-1.4,1.7-1.7,2-2.8
			C47.5,266,49.5,267.5,50.3,266.7z"/>
		<path class="st17" d="M255.3,262.4c0,1.7,0.1,3.3,0.1,5c-1.5,1-2.6-1-4-0.7c0-1.4-0.1-2.8-0.1-4.3c0.7-0.9,1.7-1,2.7-0.8
			C254.5,261.8,254.9,262,255.3,262.4z"/>
		<path class="st21" d="M226.3,139.4c2.7,0.6,5.4-2.6,8.1,0c-0.1,1.2-0.9,1.9-1.7,2.6c-1.2,0.9-2.1,2-2.6,3.4
			c-1.5,3.6-1.1,7.1,0.3,10.6c5.5,8.3,12.5,10,20.1,5c1.5-1.3,2.5-3.1,3.1-5c1.6-5-0.8-8.7-3.8-12.3c-0.7-0.6-1.3-1.1-2.1-1.7
			c-1.5-1.3-3.8-1.5-4.4-3.8c3.4-2.5,5.8,1.9,8.9,1.2c3.5-0.9,1.9,3.3,3.9,3.9c0.4,0.3,0.8,0.7,1.1,1c3.8,3,3.1,7.3,3.3,11.4
			c-0.7,3.2-0.4,5.2,3.8,4.1c4.1-1.1,8.4-0.7,12.6-1.7c1.7,0,3.3-0.6,4.9-0.8c6.3-0.9,12,0.1,15.7,6c0.2,0.3,0.4,0.5,0.7,0.7
			c6,6.6,6,6.6,9-1.9c0.9-2.5,2.3-4.8,4.1-6.8c6.2-3.2,13-3.6,19.7-2.9c5.2,0.5,8.1,5.4,7.4,11.1c-0.3,2.5-1,4.8-2.6,6.9
			c-4.9,4.7-6.5,11.5-10.2,16.9c-1.5,2.3,1.2,3.6,2.6,4.7c4.9,3.9,9.3,8.4,14.1,12.5c1.5,1.3,4.1,3.1,0.9,5.4
			c-5.2-0.4-7.5-5.2-11.1-7.9c-4.1-3.1-7.9-6.5-11.7-10c-2.7-2.6-3.1-5.1-1.3-8.4c3.8-6.8,7.6-13.6,11-20.6c1.2-2.7-0.8-3.1-2.6-3.3
			c-3.1-0.3-6.1,0.4-9,1.5c-0.7,0.6-1.3,1.3-1.8,2c-3.5,5.1-5.1,11.3-9.9,15.5c-6.1-2.6-10.4-7.6-15.3-11.7c-2.6-2.2-5-3.3-8.5-2.7
			c-5.4,1-10.9,1.2-16.3,2c-2.4,0.8-2.1,2.2-0.7,3.7c2.3,2.4,4.5,4.9,7.2,6.9c6.7,5.2,12.6,11.3,19.1,16.7c2.6,2.2,2.8,4.5,1.1,7.5
			c-4.2,7.2-7.9,14.6-12.1,21.8c-0.9,1.5-2.4,3.1-1.1,5c1.4,2.1,3.6,1.3,5.5,0.8c2.5-0.6,5.4-0.1,7.5-2.3c3-5,5.9-10.1,8.6-15.2
			c1-1.9,1.7-4.1,4.3-4.4c5.2,1.8,8.2,6.6,12.2,10c4,3.5,7.7,5.9,13.2,4.4c1.1-0.3,2.3-0.1,3.5,0.1c1.9,0.4,3,1.4,2.8,3.4
			c-0.2,1.8-1.2,3.1-2.9,3.7c-4,1.5-8.1,2.8-12.5,2.3c-5.2-0.6-8.3-4.7-11.9-7.8c-3.5-3.1-3.4-3.2-5.6,1.1c-0.2,0.7-0.5,1.3-0.7,2
			c-0.2,0.7-0.5,1.3-0.9,2c-2.5,2.7-3.4,6.8-7.1,8.5c-2.9,1.3-6.2,1.8-9.3,1.9c-10.9,0.3-21.2,4-31.9,5.2
			c-7.1,0.8-10.6-1.4-12.2-8.6c-0.9-4.2-2.1-8.4-3.7-12.4c-2.3-9.1-4.8-18.1-5.7-26.4c1.9,5-0.5,11.2,0,17.2c0.1,2,0,4-0.4,5.9
			c-0.8,5.8-1.2,11.7-1.7,17.5c-0.8,4.9-1.9,9.7-7,12.2c-4.9,2.5-10.2,3-15.5,2.5c-5.5-0.6-9.7-3.1-11.5-8.8
			c-1.2-3.8-3.1-7.2-5.7-10.7c-0.6,2.6-0.2,4.8-0.3,6.9c0,2.1,0,4.3,0,6.4c0,4.4-1.7,7.6-5.9,9.2c-6.9,2.4-13.8,3.2-20.9,1.1
			c-1.8-0.5-3.6-1-5-2.4c-2.9-4.2-6-8.4-7.4-13.4c-3.6-8.6-10.7-15.1-13.6-22.5c2.1,4.2,2.3,10.4,4.3,16.1c0.6,2.8,1.4,5.5,3,7.9
			c1.3,2.3,1.4,4.9,2.1,7.3c0.3,1.4,0.2,2.7-0.4,4c-1.9,2.4-4,4.1-6.9,1.3c-0.1-4.4-1.1-8.6-2.8-12.7c-4.5-18-9.1-36-14-53.9
			c-1.7-6.1-2.6-6.9-8.2-7.6c-1.9-0.2-4.6,0.2-4.8-2.3c-0.2-2.6,2.8-2.2,4.5-3c8.1-0.7,16.2-2,24.4-2.4c1.9-0.1,3.6-0.5,5-1.8
			c1.2-3.1-0.4-5.9-1.2-8.7c-0.7-2.3-2.5-2.3-4.5-2.1c-13.9,1.1-27.9,2.4-41.8,3.8c-8.8,0.8-17.6,1.8-26.3,2.7
			c-5.3,0.9-2.2,4.1-1.7,6.5c2,7.1,2.1,7,9.3,6.1c4.6-0.6,9.2-1.5,13.9-1.4c6.1,0.1,7.2,0.8,8.7,6.6c5,18.6,10.1,37.2,14.8,55.9
			c0.2,0.5,0.3,1,0.5,1.5c0.9,2.7,0.9,5.5,1.6,8.2c0.1,0.5,0.2,1,0.3,1.5c0,1.6,0.1,3.5-2,3.9c-2.1,0.4-4.2,0.1-5.8-1.6
			c-1-1-1.6-2.5-2.7-3.4c-1-0.6-1.8-1.6-2.9-2.2l-0.5-0.1c-0.5-0.3-0.8-0.7-1.1-1.2c-0.2-0.6-0.5-1.3-0.4-1.9
			c3.4-10.9-2.7-20.5-4.3-30.7c-0.9-5.5-3.6-10.7-4.5-16.2c-2.1-10.6-2.1-10.5-12.6-8.9c-3.9,0.6-7.9,0.5-11.9,1.1
			c-2.6,0.4-5.2-0.7-6.4-3.1c-3.2-6.2-6.2-12.5-5-19.9c2.1-5.1,5.7-7.9,11.5-7.5c1.3,0.1,2.6-0.4,3.9-0.7c7.2-1.2,14.5-1.2,21.7-2.3
			c14.4-0.4,28.6-2.4,42.9-3.6c2.6-0.2,5.2-0.8,7.9-0.1c2.3,0.7,3.7,2.6,3.9,4.7c1.3,11.1,7,20.2,12.8,29.3c1.1,1.7,1.8,3.7,3.2,5.1
			c1.7-2.9,1.7-6.1,1.9-9.2c0.5-7.7,3.9-11.8,11.5-13.5c10.5-2.4,15.6-0.2,21,9.1c1.3,2.1,2.4,4.4,3.9,6.4c0.8,0.9,1.1,2.2,2.4,2.6
			c2.1-3.3,1.1-7.1,1.7-10.6c1.8-9.7,1.6-9.7,10.9-11.7c1.7-0.4,3.5-0.4,5.2-0.3c1.7,0,3.2,0.5,5.2,1.1c-2.1-3.2-4.7-5.6-6.5-8.6
			c-2.4-3.9-3.1-7.9-1-12.2c1.7-1.2,0.9-4,3.1-4.9C225.7,139.4,226,139.4,226.3,139.4z"/>
		<path class="st22" d="M371.3,268.4c-1,5.4-2.4,6-6.5,3c-5-3.6-10.7-4.9-16.8-5c-25.6-0.1-51.2-0.1-76.7-0.2
			c1.4-2.8,4.8-2.3,6.7-4.2c3,1.2,5.7,0.9,7.5-2.1c1.4-0.7,2.9-0.3,4.3,0c0.8,0.1,1.5,0.1,2.3,0.2c1.1,0.1,2.2,0.2,3.3,0.5
			c6.7,0.8,13.5,0.3,20.2,0.3c6,0.1,12-0.4,18,0.3c3.8,1.1,7.6,1.1,11.4,0.3c0.8-0.2,1.5-0.3,2.3-0.4c0.8-0.1,1.6-0.1,2.4-0.1
			c7.4,0,8-0.5,10.2-7.7c1.7-7,0-14,0-21c0.4-4.7-1-9.4-1-14.1c0.3-9.3-1.2-18.6-1.2-27.9c0-12.2,1-24.3,3.3-36.2
			c0.3-1.6,0.8-3.2,0.3-4.9c-0.2-3.1,0.3-5.9,3.1-7.8c1-3.8,2-7.6,3.1-11.3c0.4-1.1,0.8-2.8,2.6-2.4c1.5,0.3,1,1.8,1.2,2.9
			c3,17.7,3.6,35.6,2.7,53.4c-0.4,7.8-0.5,15.5-0.8,23.3c-0.9,1.2-0.6,2.6-0.4,3.8c0.4,3.8,1,7.2-1.7,10.8c-1.7,2.3-0.7,5.8-0.8,8.8
			c-0.1,6.8-3.1,13.2-2.9,20.1c0.1,3.9,1.9,7.4,1.6,11.3c-2.9,2-2.8,3.9,0.4,5.5C370.2,267.8,370.8,267.9,371.3,268.4z"/>
		<path class="st23" d="M259.5,156.4c0.3-4.2-0.5-8.1-2.1-12c23,1,46,2,68.9,2.8c6.9,0.3,13.9,0.1,20.9,0.3c1.8,0,3.7-0.4,5.3,0.8
			c-0.4,1.6-1.1,2.8-2.9,3.2c-14.7,0.3-29.4,1.4-44.2,1.3c-6.6-0.4-13.1-0.1-19.4,2.5c-4.8,2-10.1,0.9-15.1,0.2
			c-3.2-0.4-6.2-0.5-9.2,0.6C260.9,156.4,260.2,156.7,259.5,156.4z"/>
		<path class="st24" d="M368.3,263.5c-1.1-6.1-3.3-12.4-1.8-18.6c1.9-7.7,0.8-16.2,3.5-22.9c2.1-5,0.5-10.2,3.3-14.6
			c0,1.3,0,2.6,0,4c1.3,4.6-0.4,9.4,0.9,14c0.7,9.7,1.6,19.3,0.2,29c-0.7,4.8-2.4,9.2-3.2,13.9c-0.6,0-1.1,0-1.7,0
			C367.7,267.1,366.9,265.6,368.3,263.5z"/>
		<path class="st25" d="M256.2,143.4c-2.7,0.1-1.4-3.9-3.9-3.9c0-0.2-0.1-0.5-0.1-0.7c12.1,0,24.1,0,36.3,0
			c-0.3,1.9-1.7,1.6-2.7,1.6c-8.8-0.1-17.5,1.5-26.3,1.2C258.3,141.5,255.6,139.9,256.2,143.4z"/>
		<path class="st26" d="M351.4,150.4c-0.7-1.3-0.4-1.9,1.1-2c2.4-0.6,5-1,5.9-3.9c0.5-2,2.2-3.3,2.9-5.1c0.6-0.9,1-2.7,2-2.4
			c2.1,0.8,0.3,3.1,1.2,4.6c-0.3,2.4-2.4,4.3-2.1,6.9c-0.4,0.7-0.5,1.5-1,2.1C358,153.6,354.7,152.7,351.4,150.4z"/>
		<path class="st27" d="M330.3,143.5c8.2-1.1,16.3,0.2,24.3,1.9C346.4,146.7,338.4,143.9,330.3,143.5z"/>
		<path class="st28" d="M278.2,262.8c-1.4,3.1-4.7,2.2-7,3.5c-1.2,0-2.5,0-3.7,0c-1.1-1.3-1.4-2.7-0.7-4.2c3.9-0.7,7.8-2,11.9-0.6
			C278.7,262,278.6,262.5,278.2,262.8z"/>
		<path class="st29" d="M267.5,261.8c0,1.5,0,3,0,4.5c-1.8-1.8-3.4,2.2-5.2,0.2c1.1-1.7,0.2-3-1-4.2c0.9-3,3.2-2,5.2-1.7
			C267,260.9,267.3,261.3,267.5,261.8z"/>
		<path class="st22" d="M374.3,225.4c-2-4.6-0.5-9.4-0.9-14C375.3,216,373.9,220.8,374.3,225.4z"/>
		<path class="st30" d="M361.2,139.3c0.3,2.4-0.7,4.1-2.9,5.1C354.2,139.8,360.6,141.2,361.2,139.3z"/>
		<path class="st31" d="M40.5,181.5c3.6,1.8,7.1,0.3,8.4-4.4c0.8-3,2.2-4.9,4.5-6.6c1-0.9,2.1-0.9,3.2-0.4c1.8,1.4,2.2,3.2,1.1,5.3
			c-3.9-0.3-5.2,1.9-4.9,5.4c0,0.5,0.1,1,0.1,1.5c1.2,11.3,2.5,12.3,13.6,11.9c3.7-0.1,7.2-0.9,10.9-1c4.4-0.2,7.2,1.5,8.6,5.8
			c3.1,9.1,5,18.6,7.4,27.9c1.2,4.6,2.6,9.2,4.1,13.7c-0.4,0.4-0.9,0.6-1.5,0.7c-7-0.7-14.2-0.1-20.8-3.4c-2.1-3.2-0.7-6.8-1.5-10.2
			c0.4-1.9-1.2-3.7-0.3-5.6c1.7-1.1,3.1-0.2,4.6,0.5c1,0.4,2,0.5,2.7-0.4c1.1-1.2,0-2.1-0.6-3c-0.7-1.1-1.6-1.9-3.1-2.1
			c-2.4-0.3-4.7-1.2-6.8-2.6c-1.4-1.6,2.7-1.7,1-3.2c-2.5-2.3-4.1-6.2-7.9-6.4c-2.9-0.2-6.4-0.9-8.9,1.9c-1.1,1.2-2.6,1.2-4.2,1
			c-1.6-0.2-3.3-0.3-4.9,0.5c-3.5,1.7-4.7,1.1-5.2-2.8c-0.5-4-0.1-7.9-0.2-11.9c-0.1-3.1,0.2-6.3-0.6-9.4
			C39.5,183.1,39.5,182.1,40.5,181.5z"/>
		<path class="st32" d="M56.3,170.5c-1,0-2,0-3,0c-4.2,1.1-6.3-0.4-7.5-4.6c-2-7.1-4.6-14.1-5.5-21.5c3.6,0.7,6.8,1.9,8.7,5.5
			c1.4,2.7,4.2,2.9,6.9,2.9c2.1-0.1,4.2-0.7,6.4-0.5c1,0.1,2,0.3,2.9,0.9c0.3,0.4,0.4,0.9,0.3,1.4c-0.5,0.8-2.1,0.8-2.1,1.8
			c0,1.5,1.5,1.3,2.5,1.7c2.4,0.8,5.3-0.5,7.3,1.7c-2.3,1.3-4.8,0.4-7.2,0.9c-3.4,0.7-5,3.4-6.7,6C58.1,167.6,59.7,170.9,56.3,170.5
			z"/>
		<path class="st18" d="M62.3,153.4c-3.1-0.5-6,1.4-9.2,0.5c-2.7-0.8-5-1.2-6-4.7c-0.8-2.7-5.1-2.3-6.7-4.9
			c-0.2-2.2-2.4-4.4-0.2-6.7c0.2,1-0.1,2.2,0.9,2.9c1.8,3,3.5,0.6,5.2-0.1c0,0,0,0,0,0c5.7,1.1,11.2-1.2,16.9-1.1
			c6.9-0.7,13.7,0.1,20.5,0.4c0.5,0.3,0.8,0.7,1,1.3c0,1.7-1.2,2.5-2.5,2.5c-10.4,0.2-20.8,1.2-31.1,2.6c4.5-0.3,9-1,13.6-1.5
			c1.3-0.1,2.6-0.6,4-0.3c1.1,0.2,2.5,0.3,2.7,1.7c0.1,1.1-0.7,1.9-1.7,2.3C66.8,149.4,64.9,152,62.3,153.4z"/>
		<path class="st33" d="M40.5,181.5c0,1,0,1.9,0,2.9c0.3,11,0.6,21.9,1.2,32.9c-0.3,1.8-0.8,3.6-2.1,5c-0.4,7.4-0.8,14.7-1.2,22.1
			c-0.8-0.4-0.9-1.2-1-2c-1.9-1.9-1.4-4.3-1.6-6.6c-0.6-10.5,1.3-20.9,1.1-31.4c-0.1-4.5-0.2-8.9-0.1-13.4c0-2-0.1-4,1.4-5.6
			c-1-8.9-1-17.9-0.8-26.8c0.4,0,0.9-0.1,1.3-0.1C39.3,166.1,39.9,173.8,40.5,181.5z"/>
		<path class="st34" d="M31.3,225.4c-2.6-2.1-1.8-5.1-2-7.8c-0.3-3.1,1-6.3-0.9-9.2c-0.1-15.3,3.2-30.4,2-45.7c0-0.6,0-1.3,2.1-1.8
			c0,8,0,15.8,0,23.6c2,2.5,1.3,5.4,1.4,8.2c-0.2,9.1,0.5,18.2-0.9,27.2C32.6,221.8,32.9,223.9,31.3,225.4z"/>
		<path class="st35" d="M32.4,192.4c0-2.7,0-5.3,0.1-8c2.5-3.2,4.1-0.5,5.8,1c0,6.3,0.1,12.7,0.1,19c-3.5,0.6-5.3-1.7-5.1-4.5
			C33.3,197.3,32.8,194.9,32.4,192.4z"/>
		<path class="st2" d="M32.4,192.4c0.6,2.5,3.5,4.3,1.6,7.7c-0.6,1.1,2.2,3.5,4.3,4.3c0.4,12.7-1.8,25.3-1,38
			c-1.7,1.7-0.9,3.8-1,5.7c-0.2,5.9,0.6,11.9-2.2,17.7c-2.2-13.4-2.8-26.9-2.9-40.4C31.5,214.4,32.9,203.4,32.4,192.4z"/>
		<path class="st36" d="M77.3,138.4c6.3-2.1,12.8-0.5,19.1-0.9c7.4,1.2,14.8,0.5,22.2,0.7c12.9,0.5,25.8,0.9,38.6,1.2
			c16.6,0.3,33.2,1.1,49.7,1.9c3.2,1.1,6.6,0.5,9.9,0.8c1.7,0.2,4.3-0.6,4.3,2.6c-4.2,2.4-8.8,1.6-13.1,1.1
			c-6.9-0.7-13.8-0.7-20.8-0.8c-14.1,0.4-28.2,0-42.3-0.2c-13.1-0.2-26.1-1.6-39.2-2.2c-5-0.2-9.9-0.4-14.9-0.5
			c-2.3-0.1-4.7,0.1-6.6-1.6l0,0C82.4,138.5,79.2,140.5,77.3,138.4z"/>
		<path class="st37" d="M207.3,142.4c-16.7,0.1-33.2-1.4-49.9-2c-0.1-1.1,0.6-1.4,1.5-1.4c12.5,0.2,25-0.5,37.5,0.4
			c9.7,0.1,19.3,0.2,29,0.2c-1.1,1.4,0.6,4.1-2.1,4.8c-0.2-0.1-0.4-0.3-0.6-0.4c-2.2-2.7-5.1-1.5-7.7-1.4
			C212.4,142.7,209.8,143.4,207.3,142.4z"/>
		<path class="st38" d="M196.4,139.4c-11.3,0-22.5,0-33.8,0.1c-1.7,0-3.7-0.7-5.2,0.9c-19.6-0.7-39.2-1.3-58.8-2
			c-0.7,0-1.5-0.6-2.2-0.9c32.2-0.5,64.5,1.7,96.7,1C194.3,138.5,195.5,138.4,196.4,139.4z"/>
		<path class="st39" d="M77.3,138.4c2.4,0.5,5.4-1.1,7,2.1c-7.1,0.9-14-0.8-21.1-1.1C67.8,137.5,72.6,138.9,77.3,138.4z"/>
		<path class="st40" d="M73.4,222.3c-0.1,1.5,3,2.2,1,4.1c-1.7,0.9-3.2-0.1-4.8-0.6c-5.8-1.7-11.5-1.2-17.1,0.3
			c-0.4,0.2-0.9,0.3-1.4,0.5c-1.4,0.5-2.6,1.2-3.2,2.7c-0.5,5.8-0.1,11.5-0.2,17.3c-0.1,1.8,0.1,3.6-1.4,4.9c-6.4-4.4-7.8-9.3-5-17
			c1.7,1.3,0.8,3.4,1.6,5.1c0.4-2.9,1.4-5.5,0.9-8.6c-1.1,0.2-1.2,2-2.5,1.5c0.1-2.7-0.6-5.5,1-7.9c0.3-1.5,1.5-2.1,2.6-2.8
			c0.5-0.3,1-0.5,1.5-0.6c7.4-3.3,15.1-3.4,22.9-1.7C71,219.8,73.1,219.9,73.4,222.3z"/>
		<path class="st41" d="M73.4,222.3c-7.8-3.3-15.8-3.5-23.9-0.9c-1.4,0.5-2.7,1.2-4.3,1c-1-2.6,0.7-4,2.7-4c2.4,0,4.7-0.9,7.3-0.6
			c-2.5-1.2-10.4,0.4-11.4,2.4c-0.6,1.3,1,1.4,1.5,2.2c-1,0.7-2,1.4-3,2.2c-0.9-0.8-1.9-1.5-2.8-2.3c-0.5-1.4-0.1-2.7,0.7-3.8
			c4.4-7,12-5.6,18.5-6.5c3.7-0.5,8.3-1.1,11.5,2.6c4.1,0.8,8.6,0.4,11.3,4.7c0.8,1.3,2.2,2.2,0.7,3.8c-1.2,1.4-2.7,2.1-4.4,1.1
			C76.5,223.2,75.2,222.3,73.4,222.3z"/>
		<path class="st42" d="M46.3,251.4c0.1-1.7,0.2-3.4,0.3-5.2c0.8-6.3-0.4-12.7,0.6-19c1.1-0.6,2.3-1.2,3.4-1.8
			c0.9,1.8-0.8,3.2-0.8,4.8c-0.1,7-0.1,14,0,21c0.1,2.8,0.6,5.7-1.4,8.2c-0.4,1.8,0.8,3.9-1.2,5.4c-0.4,0.1-0.7,0-0.9-0.3
			C46.3,260.1,46.3,255.8,46.3,251.4z"/>
		<path class="st43" d="M41.4,232.5c1.9-1-0.1-5.1,2.5-4.6c3,0.6,0.9,3.9,1.4,6c0,0.2,0,0.4,0,0.5c-1.4,2.7,0.2,8.3-2.5,8.1
			c-3.1-0.2-0.8-5.2-1.4-8.1C41.3,233.8,41.4,233.1,41.4,232.5z"/>
		<path class="st44" d="M46.3,264.5c0.3,0.1,0.6,0.2,0.9,0.3c0.3,1.8,1.9,1.6,3.1,1.9c-1,0.5-2,1.1-3,1.6c-3.3,0.4-6.2,2.5-9.7,2.1
			C39.3,266.5,43.1,266,46.3,264.5z"/>
		<path class="st45" d="M108.3,248.6c2.8,0.5,1.9,4.6,5,4.9c2.6,0.3,4.6,0.4,4.1-3.1c0.4,0,0.9,0,0.9,0.2c1.7,6.4,6.4,5.2,10.9,4.3
			c3.6-0.8,7.2-0.9,10.7-1.9c0.5,0,1,0.1,1.4,0.5c2.4,2.4,4-0.1,5.9-1c1.8,4.3-0.5,6.8-3.8,8.8c-1.7-0.3-1.5,1.5-2.2,2.2
			c-1.4,0.3-2.7,0.6-4.1,0.9c-2.3,0.1-4.5,0.1-6.8,0.2c-6.7,1.6-13.4,1.2-20.2,0c-0.8-0.4-1.4-1-0.9-2c1.3-1.2,2.7-1.2,4.1-0.1
			c6.9,1.2,14,0.1,19.4,0.5c-5.1-0.1-11.7,0-18.4,0C110.4,258.9,107.6,254.5,108.3,248.6z"/>
		<path class="st46" d="M227.3,263.4c-4.7,0.8-9.4,1.4-14.1,2.4c-2.4,0.5-4.2,0.1-6-1.3c-0.1-3.7-1.1-6.2-5.8-5.8
			c-3.3,0.3-5.8-1.6-6.9-4.7c-0.8-2.3-2.4-3.9-3.6-5.8c-0.2-3,0-5.9-0.1-8.9c0-1.4,0.4-2.4,2-1.5c1.4,0.7,2.1,2.1,2.7,3.4
			c5.3,10.9,10.6,12.1,22.2,10.5c0.8-0.1,1.5,0,2.2,0.4c1.2,1.3-1.6,3.4,0.8,4.4c0,0.5-0.2,0.9-0.4,1.3c-2.6,0.6-5.3,0.4-7.8,1.3
			c-1.1,0.1-2.5-0.1-2.4,1.5c0.2,1.6,1.6,1.1,2.6,1c2.6,0,5.2,0,7.8-0.4c1.3-0.1,2.6-0.1,3.9,0C225.8,261.5,227.4,261.4,227.3,263.4
			z"/>
		<path class="st47" d="M206.2,260.3c-2.6,4.5-7.2,1.5-10.7,2.4c-4.8,1.3-10.1,0.6-15.2,0.7c-2.3,0.9-2.8-0.2-1.9-2
			c0.6-1,1.5-2.1,2.6-2.8c4.6-1.6,9.1,0.9,13.7,0.4c2.4-0.2,5,0.4,7.3-0.8C203.9,258,206,257.2,206.2,260.3z"/>
		<path class="st48" d="M220.4,256.5c-1.7-1.2-1.4-2.5-0.1-3.8c2.6-1.4,5.3-2.6,8.4-2.4c1.1,0.1,2.1,0.3,2.9,0.9
			c1.9,2.1,2.2,4.6,1.7,7.2c-0.2,1-1.1,1.9-0.9,3.1c-0.8,3-3.3,1.7-5.1,2c-0.8-1.2-2.2-0.9-3.3-1.2c0-2.8,4-3.3,3.8-6.5
			C225.5,258.7,222.9,257,220.4,256.5z"/>
		<path class="st49" d="M175.2,265.3c-1.6,0.1-3.2,0.2-4.9,0.2c-3.7,1-7.5-0.1-11.1,0.6c-0.2,0-0.4,0-0.7,0
			c-1.6-1.1-3.8-1.9-2.1-4.5c5.2-2.9,10.6-1.4,16-1.2C173.6,261.9,177.8,261.6,175.2,265.3z"/>
		<path class="st50" d="M206.2,260.3c-0.7-2-2.3-1.9-4-1.7c-3.3,1.5-6.5,0.7-9.7-0.6c-3.3-3-2-6.4-1-9.8c2.1,0.5,3.4,1.8,3.8,4
			c0.5,3.2,2.5,5.3,5.7,5c5.7-0.5,7.4,2,6.3,7.1C205.8,263.3,206.5,261.7,206.2,260.3z"/>
		<path class="st51" d="M175.2,265.3c1.9-2.4-2.8-1.7-1.8-3.8c-2.1-1.3-4.5-0.2-6.7-0.6c-1.5-0.3-2.3-0.8-0.7-2.2
			c3.6-1.1,7.4-0.6,11.1-0.7c1.2,0.2,2.4,0.4,3.2,1.5c0.6,1,0.4,1.4-0.7,2.1c-1.8,1.1-0.5,1.6,0.7,1.8
			C179.2,265.8,177.2,265.4,175.2,265.3z"/>
		<path class="st52" d="M254.3,262.4c-1,0-2,0.1-2.9,0.1c-3,0-6.1,0.1-9.1,0.1c-0.3,0.3-0.6,0.3-0.9,0c-0.9-0.1-1.8-0.1-2.8-0.2
			c-0.7-1.4,0.2-2.1,1.2-2.7c0.5-0.2,1.1-0.4,1.7-0.5c3.3-0.2,6.6-0.3,9.9,0C253,259.4,255.3,259.5,254.3,262.4z"/>
		<path class="st53" d="M141.2,263.5c0.9-0.7-1.7-2.8,1-2.8c3.5,0.2,7-1.4,10.6-0.1c1.1,0.4,2,0.9,2.5,2c-1.1,3.4-4,1.3-6,1.9
			C146.7,263.4,144,263.5,141.2,263.5z"/>
		<path class="st54" d="M241.4,262.5c0.3-0.1,0.6-0.1,0.9,0c0.1,1.5,3.6,2.7,0.3,4.4c-2.1-0.5-4.1-0.9-6.2-1.4c-1-1-0.3-1.5,0.5-1.6
			C238.5,263.8,240.1,263.7,241.4,262.5z"/>
		<path class="st51" d="M149.3,264.4c1.6-2,4.1-0.3,5.9-1.6c0-0.2,0-0.4,0.1-0.6c0.4-0.1,0.7,0,1.1,0.2c-0.1,1.8,1.9,2.2,2.2,3.7
			C155.5,265.2,152.2,266.1,149.3,264.4z"/>
		<path class="st17" d="M239.3,260.4c-0.2,0.6-0.5,1.3-0.7,1.9c-2.1-0.3-4.1-0.6-6.2-0.9c-0.8-0.1-1.8,0-1.6-1.2
			c0.1-0.3,1-0.5,1.5-0.8c0.6-0.6,1.3-0.8,2.1-0.7C236.1,259.2,238,258.9,239.3,260.4z"/>
		<path class="st51" d="M159.2,266.1c3.6-1.5,7.4-0.4,11.1-0.6C166.7,267.2,162.9,266.1,159.2,266.1z"/>
		<path class="st55" d="M101.4,262.3c1.1,0.3,2.1,0.5,3.2,0.8c0,0.3,0.1,0.5,0.1,0.8c-1.4,0.2-2.8,0.5-4.2,0.7
			c-8.5,0.8-16.9,0.2-25.4,0.3c-1.2-0.3-1.2-1.2-1-2.2c0.4-0.5,0.8-0.9,1.4-1.2c3.3-0.9,6.7-0.5,10-0.5c4.5,0.1,9-0.3,13.5,0.3
			C99.8,261.5,100.6,261.9,101.4,262.3z"/>
		<path class="st56" d="M108.3,248.6c0.8,4.9,4.5,8.8,5,13.8l0,0c-1.3,0.1-2.6,0.1-3.9,0.2c-1.4-5-2.8-10-4.3-15.1
			C106.3,247.3,107.5,247.4,108.3,248.6z"/>
		<path class="st57" d="M101.4,262.3c-0.7,0-1.4,0-2,0c-3.4-0.6-2.8-3.7-3.2-5.8c-0.7-3.7-0.6-7.5,2.3-10.6c0.5-0.3,0.9-0.4,1.4-0.5
			c1.6-0.2,3.2-0.1,4.4,1.2c0.2,0.3,0.2,0.6,0.3,0.9c-4.4-0.7-6.1,1.3-5.2,5.5C100.1,256,99.9,259.4,101.4,262.3z"/>
		<path class="st58" d="M74.5,264.1c8.6,1.1,17.3-0.3,25.9,0.5c0,0.3-0.1,0.6-0.1,0.9c-6.5,0-12.9,0-19.4,0c-2.8,0-5.6,0-8.3,0.9
			c0,0-0.3,0.2-0.3,0.2C72.1,264.8,72.9,264.1,74.5,264.1z"/>
		<path class="st59" d="M110.2,264.6c6.7,0,13.4,0,20.2,0c-0.1,1.3-0.9,1.8-2.1,1.7c-5.9-0.9-12,0.4-17.9-0.9
			C110.2,265.1,110.2,264.8,110.2,264.6z"/>
		<path class="st60" d="M110.3,265.3c6,0.6,12-0.9,17.9,0.9c-1,0.6-1.9,1.2-3.1,0.9c-4.6-1-9.2-1.7-13.8,0.3
			C110.2,267.1,110.2,266.3,110.3,265.3z"/>
		<path class="st61" d="M243.4,138.3c1.7,1,3.4,2,5.1,3.1c-5.5,2.4-10.9,2.3-16.3-0.1c0.7-0.6,1.5-1.3,2.2-1.9
			C237.2,138,240.3,138.3,243.4,138.3z"/>
		<path class="st6" d="M46.4,140.4c-1.5,0.7-1.8,2.2-1.8,3.9c-2.1-0.8-3-2.1-3.4-3.8C42.9,141.4,44.6,140,46.4,140.4z"/>
		<path class="st62" d="M49.4,263.3c0-1.3,0.1-2.5,0.1-3.8c2.2-3.2,5.7-3.2,9.1-3.5c4.9,0.1,9.9-0.5,14,3.1c0.8,1.4,0.9,2.8-0.4,4
			c-1.6,0.2-2.8,0.1-4.3-1.3c-2.2-2.1-5.2-2.9-7.6,0.4c-2.6-0.7-5.1-2-7.2,1.2C52.5,264.4,50.6,264.3,49.4,263.3z"/>
		<path class="st63" d="M49.4,263.3c1.4,0,2.7,0.7,3.8-1.1c2.3-3.8,4.4-3.7,7,0.1c-0.5,1.6-2,0.8-3,1.2
			C54.7,263.7,52,265.7,49.4,263.3z"/>
		<path class="st64" d="M72.2,263.2c0.7-1.2,0.5-2.5,0-3.7c0.5-0.4,1-0.5,1.6-0.4c1.6,0.9,1.4,2.2,0.7,3.6c0,0.5,0,1,0,1.4
			c-0.7,0.8-1.4,1.6-2.2,2.4c-0.9-0.1-1.9-0.1-3.3-0.2C70.2,265.1,72,264.8,72.2,263.2z"/>
		<path class="st65" d="M58.3,257.3c-2.9,0.7-5.9,1.5-8.8,2.2c-0.4,0-0.7-0.1-1.1-0.1c-0.5-10.3-0.5-20.6,0-30.9
			c1.1-0.2,1.5,0.6,1.8,1.4c0.8,2.9,0.4,5.9,0.4,8.8c0.1,8.3,0.1,8.2,8.2,8.3c3.4,0,7-0.6,10,1.6c0.4,0.4,0.7,0.8,0.7,1.4
			c-1.3,2.3-4,1.6-5.9,2.7c-1.5,0.4-2.6-0.9-4-0.9c-1.3-0.1-2.6-0.1-3.9-0.1c-2.8,0.4-2.3,1.5-0.7,2.9c1.5,0.9,3.9-4,4.8,0.7
			C59.9,256.4,59.2,256.9,58.3,257.3z"/>
		<path class="st66" d="M254.3,262.4c-0.2-2.6-2.3-1.9-3.7-1.9c-3.4-0.1-6.9-0.1-10.3-0.1c0.7-2.7,3-2.2,4.8-2.2
			c4.2,0.1,8.2-0.6,12.3-1.3c6.9-1.3,6.9-1.3,7.5-8c0.3-0.5,0.7-0.7,1.3-0.6c3.4,2.5,7.3,1.4,11,1.6c5.1,0.3,10.2,0.2,15.2,0.8
			c2.1,0.7,4.3,0.2,6.4,0.9c3.3,1,7.4,1.4,7.6,6.3c-3.5,2-7.3,0.9-11,1.3c-3.2-2.3-4.9-0.6-6,2.4c-1.3-0.3-2.7-0.7-4-1
			c-1-0.4-1.2-1.5-1.9-2.1c-0.2-0.6-0.8,0.6-0.4,0.1c0.2-0.2,0.3-0.2,0.5,0.1c0.9,1.6,1.3,3.4-0.9,3.9c-1.3,0.3-3.9,1.3-3.8-1.9
			c-0.2,0.3-0.1,0.8-0.5,1c-2.2,1.9-5.6-0.8-7.8,2.5c-1,1.4-1.6-1.9-3.1-2.1c0,0-0.1-0.4-0.1-0.4c-3.8-2.6-7.5,1-11.3,0.2
			c-0.3,0.3-0.5,0.5-0.8,0.8C255,262.4,254.6,262.4,254.3,262.4z"/>
		<path class="st52" d="M256.1,261.6c3.4-1.9,7.1-2,10.8-2c1.3,0,0.7,1.1,0.5,1.8c-2,0.7-4.3-0.8-6.1,1
			C259.5,262.3,257.7,262.7,256.1,261.6z"/>
		<path class="st67" d="M130.3,181.1c6.3-3,13.2-2.2,19.9-3.1c1.7-0.3,2.2,1.9,2.9,3.1c6.2,10,12.4,20.1,18.6,30.1
			c0.8,1.2,1.1,2.8,2.7,3.4c2.5-0.5,1.5-2.7,1.7-4.1c1.7-11.7,1.5-23.5,3.5-35.2c8.1-3.4,11.3-2.4,15.7,4.6
			c5.6,8.9,11.2,17.6,16.8,26.4c0.5,0.8,0.8,2.2,1.9,1.7c0.6-0.3,0.8-1.7,1.1-2.6c0.6,0.4,0.9,0.9,1,1.6c0.4-0.4,0.1-0.8,0.2-1.2
			c0.8-11.3,1.9-22.5,3.1-33.7c0.1-0.7,0.5-1.2,0.9-1.7c1.1-0.2,2.3-0.6,3.4-0.7c5.9-0.7,8.1,1.3,7.6,7.2c-1.4,16.9-3,33.8-4.6,50.7
			c-0.3,3.3,0.4,6.7-1.2,9.8c-2,0.8-3.5,2.4-5.7,2.9c-7.4,1.6-11,0.1-15-6.6c-4.4-7.5-9.5-14.5-13.6-22.1c-0.8-1.6-1.4-1.9-2.2-0.1
			c-2.4,8.4-1.3,17-2.4,25.5c-0.3,2.1-0.5,4.2-0.7,6.4c-6.5,5.8-14,5.8-19.1,0c-11.2-18.6-23-36.7-34.2-55.3
			C131.3,185.9,130.1,183.8,130.3,181.1z"/>
		<path class="st68" d="M115.3,175.7c-1.2,0.4-2.4,0.7-4.3,1.3c2.4,1.7,4.8,1.4,6.9,1.5c3.9,0.2,5.9,1.7,6.9,5.6
			c5,19,10.4,37.9,14.7,57.1c-1.3,3.2-3.9,0.8-5.7,1c-5.5,0.6-11-0.2-16.4-1.4c-1.5-1.3-1.7-3.2-2.2-4.9
			c-4.4-17.9-9.3-35.6-14.1-53.3c-1.6-5.8-1.5-5.6-7.4-5.4c-6,0.3-11.9,1-17.7,1.8c-2.8,0.4-4.4-0.6-5.3-3.2
			c-0.8-2.3-1.6-4.7-2.3-7.1c-0.2-1.4,0-2.8,1-4c16.7-1.7,33.4-3.5,50-5.1c7.3-0.7,14.6-1.2,21.8-2c2.7-0.3,4.1,0.3,4.1,3.2
			c0,3.5,3.4,6.6,1.2,10.4c-10.2,1.3-20.4,2.4-30.7,3.1C114.8,174.5,115,175.1,115.3,175.7z"/>
		<path class="st69" d="M266.3,165.3c6.8-0.9,13.7-1.8,20.5-2.7c2.2-0.3,3.3,1.3,4.6,2.4c5.3,4.4,10.5,8.9,15.8,13.3
			c4.3-4.6,7.2-10,8.9-16c0.4-0.6,0.9-1.3,1.3-1.9c3.7,1.3,7.4,2,11.4,0.8c1.5-0.5,3.6-0.7,2.6,2.3c-3.8,7-7.4,14.2-11.3,21.1
			c-1.4,2.6-1.6,4.2,0.9,6.2c7.5,6.1,14.7,12.5,22.1,18.7c2.8,0.5,4.5,2.6,6,4.7c1.1,1.5,1.8,3.3-0.5,4.5
			c-5.3,0.2-10.5,1.3-15.7,2.3c-5.2,1-9.5-0.3-13.1-4.1c-3.1-3.2-6.5-6.2-10-9c-1.1-0.8-2-1.9-3.4-0.7c-4.9,6.1-7.5,13.5-11.8,19.9
			c-2.8,0.3-5.6,0.9-8.3,1.4c-1.9,0.3-3.7,0.8-4.9-1.1c-1.2-1.8-0.4-3.6,0.5-5.2c3.9-6.9,7.4-14.2,11.6-20.9
			c2.4-3.8,2.3-6.3-1.2-9.3c-7.1-6-14.2-12.1-21.1-18.3C268.5,171.8,264.3,170.1,266.3,165.3z"/>
		<path class="st70" d="M162.2,187.2c-6.3-8.7-11.8-17.7-13-28.7c-0.2-1.9-1.1-3.4-2.1-5c1.1-3.5,4.2-2.9,6.6-2.5
			c8.8,1.6,17.6,0.8,26.3,0.9c13.1,0,26.1,1.5,39.3,1.3c1.2,0.3,2.3,0.8,2.4,2.2c-0.6,1.8-2.1,1.2-3.3,1.3c-0.7,0-1.3,0-2-0.1
			c-4-0.8-5.4,1-4.8,4.8c0.2,1,0.4,1.9,0,3.1c2.6,0.4,5.6-1.6,7.7,1.1c-8.1,1.9-8.1,1.9-9.3,10.4c-0.6,4.1-1,8.2-1.6,12.3
			c-0.4,2.5-1.2,1.8-2,0.2c-0.6-3.2-0.1-6.5-0.6-9.8c-3.5,1.5,0.7,4.9-1.9,6.4c-2.5-2.7-4.2-5.9-5.9-9.1c-2.5-4.8-6.4-6.9-11.8-6.7
			c-10.8,0.3-17.5,3.5-17.2,15.5c0.1,3.2-0.7,6.5-1.1,10c-1.5,0-2.2-0.9-2.6-2.2c-0.8-3.1,1.2-6.1,0.3-9.3
			C163.4,183.8,163.9,186.5,162.2,187.2z"/>
		<path class="st71" d="M238.3,168.5c5.3-0.7,10.5-1.4,15.8-2.2c2.5-0.4,3.9,0.3,4.6,3.1c5,19.3,10.1,38.5,15.2,57.7
			c0.3,1.1,0.7,2.3-0.3,3.3c-5,1.8-10.3,2-15.5,3c-3.3,0.6-5.2-1.2-6.1-4.4c-3.2-11.2-5.9-22.4-8.9-33.7c-1.6-6.1-3.1-12.2-5-18.2
			C237.1,174.2,236.2,171.3,238.3,168.5z"/>
		<path class="st72" d="M220.4,154.3c-20.6,0.8-41.2-1.7-61.8-1c-3.8,0.1-7.7-2.3-11.5,0.3c-10.1,0-20,1.6-30,2.3
			c-7.2,0.5-14.4,1.8-21.7,1.5c-0.2-2,1.4-2.1,2.6-2.3c10.9-1.3,21.8-2.3,32.7-2.7c0.5,0,1,0,1.2,0.4c-0.4-0.6-1.3-0.5-2-0.4
			c-12,1.4-23.9-0.8-35.8-0.8c-4.7,0-9.2,1.3-13.7,2.3c-4.9,1-9.9,2.8-15,0.5c0-0.3,0-0.6,0-0.9c8.2-6.5,17.6-8.9,28.1-9.8
			c17.6-1.5,34.8,1.4,52.1,2.2c3,0.1,5.9,1,8.7,1.9c11.6,3.8,23.5,3.5,35.5,3.1c8.8-0.5,17.5,1.4,26.2,1.1
			C217.7,152,219.8,151.9,220.4,154.3z"/>
		<path class="st37" d="M220.4,154.3c-0.7-0.3-1.5-0.9-2.2-0.8c-9.6,0.6-19.2-1.4-28.8-1.1c-4.9-1-9.9-0.2-14.8-0.7
			c-0.5,0-1,0.3-1.5,0.2c-2.6-0.6-6.7,0.1-6.9-3.4c-0.2-3.1,3.8-2.4,6-3c4.9-1.3,10.3,0.4,15.1-2.1c11.4-0.7,22.6,1.7,34,1
			c0.5-0.6,1-0.6,1.7-0.3c0,0,0.3,0.3,0.3,0.3c-1.9,4.3-1.6,8.2,1.4,12c2.1,2.7,4,5.6,6.6,7.9c0.7,0.6,2,1,1.2,2.2
			c-0.7,1-1.7,0.5-2.6,0.1c-1.4-0.5-2.8-0.9-4.2-1.4c-0.4-0.2-0.7-0.5-0.9-0.9c-0.1-0.4-0.2-0.9-0.2-1.3c0.2-2.5-1.7-4.1-2.8-6.1
			c-0.1-0.2-0.1-0.4-0.2-0.7C221.6,155.4,221.1,154.8,220.4,154.3z"/>
		<path class="st73" d="M65.3,154.4c8.1-0.2,15.9-2.8,23.8-3.9c5.7-0.7,11.6-0.7,17.2,0c8.5,1.1,16.9,0.7,25.3,0.9c1,0,2,0,3,1.5
			c-4.2,0.5-8.1,1.1-12,1.5c-8.6,0.8-17.1,1.4-25.7,2.2c-0.6,0-1.1,0.6-1.6,1c-7.3,1.4-14.8,1.5-22.1,2.1c-2.8-0.2-5.6,0-8.3-0.6
			c-1.7-0.4-4.6-0.9-4.3-3.2C61,153.4,63.7,154.8,65.3,154.4z"/>
		<path class="st74" d="M351.4,150.4c3.3-0.3,7,2.8,9.9-1c0.6,4.7-1.6,7.6-6.6,8.2c-3.2,0.4-6.1,1.2-9,2.6c-3.5,1.8-6.4,3.8-7.2,8.1
			c-0.4,2-1.3,4.2-4.1,4.3c-0.6-0.7-0.6-1.4,0.1-2.1c2.1-2.5,2.7-5.6,2.8-8.7c0.2-4.4-2.6-8-6.9-8.1c-6.4-0.1-12.8-0.1-18.8,2.8
			c-3,2.5-6.1,1-8.5-0.5c-3.1-1.9-1.4-3.6,1.2-4.6C320,151.1,335.7,150.7,351.4,150.4z"/>
		<path class="st75" d="M304.3,151.4c-2.3,2.2-3.1,4,1.2,4.5c2,0.2,4,1.6,6.1,0.6c-3,3.5-3.3,8.1-5.2,12c-1.1,2.3-2.5,3.5-4.6,0.8
			c-0.8-1-2.1-1.7-2.8-2.8c-5.2-8.4-12.7-9.4-21.4-7.2c-3.6-2.9-8.1-1.5-12.1-2.6c-1.7-0.4-3.6,0.2-5.1-1.2c2.6-1.3,5.2-2,8.3-1.6
			c7.4,1.1,14.7,2,22-1.5C294.8,150.4,299.8,151.5,304.3,151.4z"/>
		<path class="st76" d="M334.5,170.5c0,0.5,0.1,1.1,0.1,1.6c0.3,4.1-2.4,7.1-4.2,10.4c-2.9,5.2-2.9,6.2,1.6,10.1
			c6.6,5.8,13.4,11.4,19.5,17.8c6.3,6.5,5.1,13.4-2.9,17.9c-6.7,0.4-13.2,2.4-19.9,3.2c-2.6,0.3-6,2-7.6-2c4.5,0.1,8.8-0.7,13.1-2.1
			c1.7-0.5,2.6-1.5,2.8-3c0.3-2.4-1.8-1.8-3.1-2.2c1-2.9,4-2,5.9-2.5c2.8-0.6,5.7-1.2,8.6-1.4c1.6-2.2,0-3.5-1.4-4.8
			c-1.4-1.3-2.7-2.7-4.1-4c2.5-2.3-0.4-3.2-1.4-4.1c-5.1-4.7-10.4-9.2-15.7-13.8c-2.2-1.9-2.9-3.4-0.9-6.2c2.5-3.5,4.2-7.5,6.3-11.3
			C332.2,172.8,332.5,171,334.5,170.5z"/>
		<path class="st77" d="M69.3,168.5c0.1,0.5,0.1,1,0.2,1.5c3.6,8.6,3.6,8.6,13,7.4c4.4-0.6,8.9-1.1,13.3-1.7
			c3.9-0.5,5.3,1.9,6.1,5.1c4.8,18.3,9.6,36.6,14.4,54.9c0.4,1.6,0.6,3.2,0.9,4.9c-0.7,0.6-1.5,0.6-2.3,0.2
			c-5.2-19.4-10.4-38.7-15.4-58.1c-0.9-3.6-2.5-4.7-5.9-4.3c-5.3,0.6-10.6,1.1-15.9,1.7c-8.2,1-9.2,0.2-9.7-8.3
			C68.1,170.4,66.9,168.9,69.3,168.5z"/>
		<path class="st78" d="M104.3,246.5c-1.7-0.1-3.4-0.1-5-0.2c-0.4-1.7-1.7-3.3-0.7-5.3c4.1-0.2,3.9-2.3,2.3-5.1
			c-4.2-13-6.7-26.5-10.7-39.5c-1.7-5.6-2-5.8-7.7-5.1c-5.4,0.7-10.8,1.8-16.4,1.4c-3.3-0.2-5.9-1.2-6.3-5c0.8-2.8,2.3-3.2,4.2-1
			c2.3,2.6,4.9,2.8,8.1,2.2c5.2-0.9,10.5-1,15.7-2c3.4-0.6,5.3,0.8,5.8,4.3c0.3,2.1,1,4.1,1.8,6.1c4.6,12.9,7,26.4,10.8,39.5
			C107.1,240.1,102.8,242.8,104.3,246.5z"/>
		<path class="st79" d="M232.2,219.7c0.1-2.2,0.2-4.5,0.3-6.7c0.8-1.1-0.1-2.7,1.2-3.7c2.3,0.8,2.4,3,2.9,4.8
			c2.1,7.8,4.5,15.6,6.3,23.5c1.6,7,3,7.8,10.4,6.8c4.4-0.6,8.8-1.2,13.2-2.1c1.8,0,3.2-1.4,5.1-1.1c0.8,0.7,1.3,1.5,1.2,2.6
			c-1.9,3-5.8,1.9-8.1,4.1c-1.6,0.9-3.6,0.6-5.2,1.2c-1.2,0.5-2.2,1.3-3.1,2.1c-0.3,0.3-0.7,0.4-1.1,0.5c-0.7-0.1-1.2-0.3-1.8-0.6
			c-1.9-0.7-3.2,1.5-5,1c-0.4-0.1-0.8-0.3-1.2-0.5c-1.4-3-4.4-1-6.5-2.1c-3.6-2.3-4.2-6.2-5-9.9c-1-5.2-2.8-10.1-3.6-15.3
			C231.9,222.8,231.6,221.2,232.2,219.7z"/>
		<path class="st80" d="M266.3,165.3c-0.4,2.5,1.3,4,2.9,5.4c8.3,7.3,16.6,14.7,25.1,22c2.6,2.2,3,3.9,1.1,7
			c-4.3,7.1-8.1,14.5-12,21.8c-0.9,1.7-2.8,3.4-1.5,5.4c1.6,2.5,3.9,0.2,5.9,0.3c2.2,0.1,4.4-1.8,6.6,0c-3.9,3.1-8.7,3.1-13.1,3
			c-3.3-0.1-3.3-3.1-1.9-5.7c4.2-7.7,8.2-15.6,12.8-23.1c2.2-3.7,1.5-5.6-1.6-8.1c-8.4-7-16.5-14.4-24.7-21.7
			C263.5,169.5,261.1,167.1,266.3,165.3z"/>
		<path class="st81" d="M238.3,168.5c-0.9,5.9,2,11.1,3.3,16.5c3.5,14.5,7.9,28.8,11.4,43.3c1,4.2,3.1,4.7,6.4,3.9
			c4.7-1,9.3-2.2,14.1-1.9c-2.3,3.7-6.3,2.4-9.5,3.1c-12,2.4-11.9,2.2-15-9.4c-4.3-16.4-8.7-32.8-13-49.2
			C235.3,172.1,234.5,169.5,238.3,168.5z"/>
		<path class="st82" d="M130.3,181.1c7.4,14,16.3,27.1,24.7,40.5c4.3,6.8,8.3,13.9,12.4,20.8c0.4,1.4,1.4,3-1.3,3.1
			c-11.9-19.3-23.8-38.6-35.7-57.9C129.1,185.5,127.7,183.4,130.3,181.1z"/>
		<path class="st83" d="M297.3,235.4c2.5-2.3,2.7-6.1,5.7-8c2.9-0.9,4.3,1.5,5.6,3.1c4.5,5.5,9.7,8.2,16.9,5.9
			c1.3-0.4,2.6-0.2,3.8,0.7c0.4,0.4,0.5,0.9,0.2,1.5c-1.2,1.2-2.9,1.3-4.4,1.8c-6.5,2.2-13.1-1-19.7,0.3c-4.4,0.9-8.5,2.1-12.6,4.2
			c-5.4,2.7-11.1,5.9-17.7,3.2c-0.1-1.2,0.7-1.8,1.6-2.3c3.7-1.6,8.2-1,11.5-3.6c-0.7-1.3-2.9-0.3-3.2-2.2c1.6-2,4-2.2,6.2-2.4
			C293.6,237.4,295.5,236.7,297.3,235.4z"/>
		<path class="st84" d="M115,240.6c0.8-0.1,1.5-0.2,2.3-0.2c7.4,0.3,14.8,0.6,22.2,0.9c1,4,3.8,7.7,1.9,12.2c-0.3,0-0.7,0-1,0
			c-4.4,0.1-8.8,1-13.2,1.5c-4,0.4-6.8-0.4-8-4.5c-0.2-0.8-1.1-1.2-1.7-1.7c-1.4-3,0.1-3.8,2.8-3.7c5,0.2,10.1,0.3,16.1-0.6
			c-6.1-1.1-11.2-0.4-16.2-1c-1.8-0.2-3.7,0-4.7-2C115.1,241.2,115,240.9,115,240.6z"/>
		<path class="st85" d="M267.3,243.2c-6,2-12.3,2.1-18.5,3.2c-3.7,0.7-5.6-2-6.5-5.4c-2.7-10.2-5.5-20.5-8.2-30.7
			c-1.6,0.3-0.5,2.2-1.7,2.7c-1-6.2,1.9-12.1,1-18.4c2.6,9.1,5.5,18.2,6.9,27.5c1.6,5.1,2.5,10.3,4.2,15.3c1.8,5.2,3.5,6.3,8.8,5.6
			c3.3-0.5,6.6-0.7,9.9-1.3C264.8,241.5,266.7,240.7,267.3,243.2z"/>
		<path class="st86" d="M321.1,229.6c5,3,9.8,0,14.6-0.6c4.5-0.6,9-1.7,13.6-1.5c0.5,1.2-0.2,2-1,2.7c-2.4,1.8-5.4,1.3-8,2.2
			c-4.6,1.3-9.5,1.3-14.1,2.5c-5.3,1.3-9.3-0.5-12.9-4.1c-2.7-2.7-5.3-5.4-8.9-6.7c-0.4-2.4,2-3.7,2.4-6.1
			C311.8,221.8,315.6,226.8,321.1,229.6z"/>
		<path class="st87" d="M189,211.5c-0.1-1.4-1.1-2.8-0.1-4.7c3.8,3.3,5.3,8,7.9,11.8c3.3,4.8,6.1,9.9,9.2,14.8
			c4,6.4,7.1,7.4,14.6,5.5c1.7-0.4,2.9-2.2,4.9-1.5c-5.5,7.2-16.4,6.9-21-0.6C199.4,228.4,194.2,219.9,189,211.5z"/>
		<path class="st88" d="M269.3,191.3c-1.2-1.6-1.1-3.4-0.8-5.6c6,3.7,10.3,9,15.6,13.2c1.1,0.9,1,1.9,0.3,3.1
			c-2.6,4.4-5.1,8.9-8.1,14.2c-2.8-6.2-4.1-11.8-5-17.6c2.8,0.1,3.9,2.5,5.5,4.1c0.7,0.6,0.9,2.5,2.4,1c1.3-3-1.1-4.3-2.8-5.7
			C274,195.8,271.5,193.7,269.3,191.3z"/>
		<path class="st89" d="M218.2,252.3c-9.1,3.4-17.3,0.6-22.1-7.5c-3.2-5.3-3.2-5.3-5-6.3c-0.4,0.3-0.6,0.2-0.7-0.3
			c0-3.1,0-6.1,0-9.2c4,4.6,7.3,9.2,9.1,14.7c1.5,4.4,5.3,6.1,9.7,6.6c5.2,0.6,10.2-0.6,15.1-2c0.5,1.1-0.1,1.8-0.8,2.5
			C222,252.4,219.9,251.5,218.2,252.3z"/>
		<path class="st90" d="M267.3,243.2c-4.8-1.8-9.3,0.4-13.9,0.8c-5.2,0.5-7.4-0.2-9-5.2c-1.8-5.4-3.7-10.9-3.9-16.7
			c2.5,4,3.1,8.7,4.1,13.2c1.5,6.3,4.1,8.1,10.3,7c14.1-2.6,28.2-5.1,42.5-6.9c-1.3,3-3.9,2.8-6.5,3.3c-1.8,0.3-3.9,0.3-5.5,1.7
			c-1.9,2.9-4.8,2.4-7.6,2.3c-2.1,0-4.2-0.7-6.4-0.8C269.9,241.9,269.1,243.9,267.3,243.2z"/>
		<path class="st91" d="M304.4,224c1,0,1.4-2.2,2.8-0.7c0.2,0.2,0.5,0.4,0.7,0.7c8.2,11.4,19.2,10.6,30.9,7.4c0.5-0.1,1-0.1,1.5-0.1
			c1.8-0.4,3.6-0.9,5.2,0.3c0.1,0.6,0,1-0.5,1.4c-5,2.4-10.7,1.9-15.8,3.5c-11.1,3.6-18.3-1.5-24.6-9.5c-0.4-0.5-0.8-1-1.1-1.6
			C303.2,224.7,303.8,224.4,304.4,224z"/>
		<path class="st92" d="M348.5,218.4c-4.3,3.4-10,1.3-14.5,3.8c-8,2.4-13.8-1-18.9-6.8c-2.6-3-5.9-5.4-8.8-8c0-2.6,0.8-3.5,3.1-1.4
			c3.9,3.6,7.9,7,11.7,10.7c3.4,3.2,6.9,4.2,11.7,3.3C337.9,219.1,343.1,216.5,348.5,218.4z"/>
		<path class="st93" d="M142.3,233.1c-2.9-6.3-3.4-13.3-5-20.1c5.4,8.9,10.8,17.8,16.2,26.7c0.6,2.1-0.8,3-2.1,4
			c-1.4,0.1-2-1-2.7-1.9C146.4,239,145.7,235.1,142.3,233.1z"/>
		<path class="st94" d="M95.4,197.3c-1.9-1.8-2.1-4.4-2.8-6.7c-0.8-2.6-2.3-3.4-4.7-3.1c-5.4,0.7-10.8,1-16.1,2.1
			c-3.4,0.8-5.8,0.2-8-2.2c-1.2-1.3-2.2-1.9-3.4,0c-3.2-3.4-4.1-7.4-3.3-11.9c0.4-1.8,0-3.5-0.9-5.1c2.1-0.5,1.5-3.1,3-4
			c-0.9,6.9,2.6,12.8,4.7,19c0.9,2.5,3.5,3.2,6.3,2.9c6.4-0.8,12.9-1.2,19.2-2.3c2.6-0.4,3.7,0.2,4.2,2.6
			C94.3,191.5,94.9,194.4,95.4,197.3z"/>
		<path class="st95" d="M179.5,175.3c1.9,5.4-0.5,10.7-0.4,16c0,7.5-1.2,15.1-1.8,22.6c-0.1,1.3,0,3-1.8,3c-1.3,0-0.9-1.5-1.1-2.4
			c0.9-11,1.8-22.1,2.8-33.1C177.3,179.2,177.1,176.7,179.5,175.3z"/>
		<path class="st96" d="M149.4,241.4c0.6,0.7,1.3,1.4,1.9,2.2c3.1,2.2,5.4,4.9,5.2,9c-0.7,1-3,0.6-2.6,2.4c0.4,1.7,2.1,1.9,3.6,2.1
			c1.3,0.2,2.6-0.2,4-0.2c1,0.1,1.8,0.6,2.2,1.6c0,0.5-0.1,0.9-0.5,1.3c-2.4,1.4-5.8-0.6-7.8,2.4c-0.1,0.2-0.2,0.4-0.2,0.6
			c-0.7-0.4-1.4-0.7-2.1-1.1c-3.1-2.9-6.6-5.6-4.6-10.8c0.3-0.7-0.3-1.9-1.5-2.3c-0.6-2.4-1.2-4.8-1.8-7.2
			C146.6,240.1,148,241.1,149.4,241.4z"/>
		<path class="st97" d="M220.4,170.4c-1,13.2-2.1,26.4-3.1,39.6c-0.1,0.9,0.1,2.2-1.5,1.9c-0.9-0.2-1.3-1.1-1-2
			c0.5-1.5,0.7-2.9,0.4-4.4c1-10.9,2-21.9,3-32.8C218.3,171.2,218.4,169.9,220.4,170.4z"/>
		<path class="st98" d="M260.4,155.6c5.3-0.8,10.4,1,15.6,1c1.4,0,3.5,0.4,1.6,2.8c-5.3,1.5-10.8,1.4-16.2,2.3c-6.1,1-1.8-3.3-2-5.3
			C259.8,156.1,260.1,155.8,260.4,155.6z"/>
		<path class="st99" d="M225.2,164.5c0.1,0.3,0.2,0.5,0.4,0.8c-2.1,0.1-4.1,0.3-6.2,0.4c-3.1-0.7-6.1-0.5-9.8,1.8
			c1.8-4.5-1-8.8,2-11.7c1.3-1.2,4.5-0.3,6.8-0.4C219.9,159.1,220.3,163.5,225.2,164.5z"/>
		<path class="st100" d="M115.4,241.4c4.8,1.4,9.7,0.8,14.6,1c3,0.1,6.2-0.2,9.1,2.4c-6.4,2.2-12.6,1.7-18.8,1.6
			c-1.8,0-3.4-0.6-2.7,2.2c0.1,0.4,0,0.6-0.3,0.8C115.7,247,116.5,244,115.4,241.4z"/>
		<path class="st101" d="M303.4,225.5c2.7,2.5,5.3,5,8,7.4c3.6,3.2,7.5,4.9,12.6,3.7c7-1.7,14.2-2.8,21.3-4.1
			c0.4,1.3-0.2,2.4-1.2,2.9c-4.7,2.3-9.6,3.7-14.8,2c-11.7,4.3-19-2.8-26.3-10C303.2,226.8,303.3,226.1,303.4,225.5z"/>
		<path class="st102" d="M117.3,249.4c0.2-0.2,0.3-0.5,0.3-0.8c0.7,0.1,1.8,0,1.9,0.2c2.6,8.7,9.3,3.8,14.3,4.2
			c2.2,0.2,4.5-1.3,6.6,0.5c-6.1,2.8-12.8,2.4-19.2,4c-1.8,0.4-2.1-1.2-2.5-2.4c-0.5-1.5,0-3.4-1.3-4.7
			C117.4,250,117.4,249.7,117.3,249.4z"/>
		<path class="st103" d="M223.3,250.4c0.4-0.7,0.7-1.4,1.1-2c3.5-2.7,5.3-6.4,6.1-10.7c0.1-0.1,0.3-0.2,0.4-0.2
			c0.7,5.1,4.9,8.2,6.9,12.6c-0.1,0.7-0.5,1.3-1,1.7c-1,0.6-2.1,0.7-3.2,0.6c-0.9-0.1-1.4-0.8-2.1-1.2c-1,0.1-1.9,0.1-2.9,0.2
			C226.9,250.3,224.8,251.7,223.3,250.4z"/>
		<path class="st104" d="M115.3,175.7c-1-0.5-2.3,0.3-3.3-0.9c2.8-2.5,6.4-1.3,9.6-1.8c7.5-1.2,15.1-1.8,22.7-2.5
			c0.7-0.1,1.5,0.5,2.2,0.8c-3.7,2.7-8.2,1.9-12.4,2.5C127.9,174.6,121.6,175.1,115.3,175.7z"/>
		<path class="st105" d="M237.3,250.4c-1.1-1.5-1.9-3.2-3.8-4.2c-3.4-1.8-2.4-5.6-3.1-8.5c0.2-6,0.4-12.1,1.8-18
			c0.1,1.5,0.2,3.1,0.3,4.6c0.4,5.2,2.1,10.2,2.6,15.3c0.3,3,2.6,5.6,4,8.3C240.3,250.1,239.8,251,237.3,250.4z"/>
		<path class="st106" d="M190.5,238.3c0.2,0.1,0.5,0.2,0.7,0.3c0.1,3.3,0.2,6.5,0.3,9.7c1.4,2.9-0.8,6.2,0.9,9.2
			c-3.8,2.4-8,0.4-11.9,0.9c-0.8-0.1-1.7-0.3-2-1.1c-0.4-1,0.6-1.4,1.3-1.5c1.9-0.4,3.7-0.9,5.3-2.1c4.4-1.7,5.5-5.2,5.4-9.5
			C190.4,242.2,190.4,240.2,190.5,238.3z"/>
		<path class="st107" d="M254.4,156.5c-0.6,1.9-1,3.9-3,4.9c-8.8,4.7-17,2.4-20.4-5.7c0.4-0.8,1.1-0.9,1.9-0.8
			c1.3,0.3,2.3,1.3,3.4,2c5.7,3.9,8.3,3.7,13.4-1c0.6-0.6,1.3-1,2.1-1.3C253.1,154.8,254.6,154.4,254.4,156.5z"/>
		<path class="st108" d="M185.1,253.7c-1.3,2.2-3.5,2.6-5.7,2.9c-0.1,0-0.2,0.3-0.2,0.4c0,0.1,0.2,0.3,0.3,0.4
			c0.5,1.9-1.3,1.3-2,1.8c-4,0.1-8,0.2-12.1,0.4c-0.7,0.5-1.3,0.4-1.9-0.2c-0.1-0.3-0.2-0.6-0.1-0.9c-0.3-1.5,0.8-1.8,1.7-1.6
			c1.8,0.5,3.5,0.4,6.1,0.3c-3-0.4-6.3,1.5-6.6-2.7C171.5,256,178.3,255.4,185.1,253.7z"/>
		<path class="st109" d="M331.4,163.5c-0.8-3-2.6-0.9-3.9-0.6c-3.8,0.7-7.5,1.7-10.1-2.4c3.8-2.3,8.1-2.3,12.3-2
			C332.6,158.7,333.3,161,331.4,163.5z"/>
		<path class="st110" d="M254.4,156.5c-0.8-1.1-1.9-1.1-3.1-1c-0.4-0.3-0.7-0.6-0.9-1c-0.7-3.9-3.8-6.6-5.2-10.1
			c1.4-1.4,3.4-0.9,5-1.8C254,146.5,256.8,150.7,254.4,156.5z"/>
		<path class="st111" d="M231.2,155.5c5.1,7.6,12,9,20.3,6c-6.7,6.6-16.3,4.4-22.2-5c-0.6-0.7-0.6-1.6,0.2-2
			C230.2,154.1,230.9,154.7,231.2,155.5z"/>
		<path class="st112" d="M250.2,142.6c-0.6,3.1-3.2,1.4-4.9,2c-3.5,1.1-7.2-0.6-10.7,0.9c-1.8-0.4-4.1,2-5.3-1.1
			c0.5-1.5,1.3-2.6,2.9-3.1c5.4,0,10.9,0.1,16.3,0.1C249.1,141.8,249.6,142.2,250.2,142.6z"/>
		<path class="st113" d="M229.3,144.4c1.7,0,3.4,0.1,5.1,0.1c-0.4,3.5-0.7,7-0.6,10.5c-0.2,0.2-0.3,0.4-0.5,0.5
			c-0.7,0-1.4,0-2.1-0.1c-1.3-1-1.8-0.5-1.9,0.9C227.3,152.4,226.9,148.4,229.3,144.4z"/>
		<path class="st15" d="M147,248.6c2.1,0.8,4.2,1.6,2.2,4.5c-1.3,1.8-0.2,3.2,1.1,4.2c1.6,1.1,2.4,2.6,2.8,4.4
			c-3.6-0.7-7.3,0.6-10.8-1.1c4-1.3,4.4-4.8,5-8.2C147.2,251.2,147.1,249.9,147,248.6z"/>
		<path class="st114" d="M166.1,245.5c1.3-0.7,1.2-1.9,1.3-3.1c4.6,5.3,9.7,5.6,18.5,0.9C181.6,250,171.1,251.2,166.1,245.5z"/>
		<path class="st115" d="M269.3,191.3c4.6,2,7.9,5.7,11.4,9c1.5,1.4,0.3,2.7-0.5,4c-4.4-2.1-7.7-5.4-10-9.8
			C270,193.4,269.6,192.3,269.3,191.3z"/>
		<path class="st116" d="M162.2,187.2c0.2-1.1,0.1-2.4,0.6-3.3c0.8-1.3,1.9-3.4,3.6-2.8c1.7,0.5,0.8,2.6,0.7,4
			c-0.2,2.6,0,5.3-1.7,7.6C163.7,191.2,163.2,189.1,162.2,187.2z"/>
		<path class="st117" d="M204,185.2c0-2.6-2.8-5.1,0-7.7c0.7-0.7,1.3-1.7,2.4-1.5c1.3,0.2,1.1,1.5,1.1,2.4c-0.1,3.4,0.4,6.9-1,10.2
			C205.1,187.9,204.8,186.4,204,185.2z"/>
		<path class="st108" d="M156.5,252.4c-1.7-2.9-3.5-5.9-5.2-8.8c-0.1-1.8,1.9-2.3,2.3-3.9c1.2,4.8,4.8,8.3,6.7,12.8
			c-0.7,0.8-1.6,0.9-2.6,0.8C157.1,253,156.8,252.8,156.5,252.4z"/>
		<path class="st118" d="M149.4,241.4c-1.3,1.8-2.8-0.3-4.2,0.1c-2.8-2.1-2.8-5.3-2.9-8.3c0.2-0.8,0.4-1.5,0.8-3
			C145.3,234.2,147.4,237.8,149.4,241.4z"/>
		<path class="st119" d="M316.1,162.4c1.8,1.1,0.6,2.3,0,3.4c-1.9,3.8-3.8,7.6-5.8,11.4c-0.6,1.2-1.3,3.1-3.2,1.2
			C310.2,173,313.2,167.7,316.1,162.4z"/>
		<path class="st120" d="M157.2,252.5c1,0,2,0,3-0.1c1.4,0.7,2.9,1.4,4.3,2.1c1.4,3.2,4.4,1.3,6.6,2.1c-1.9,3.7-5.7-0.6-7.8,1.8
			c-0.7-0.3-1.3-0.6-2-1C158.1,257.4,157.1,255.4,157.2,252.5z"/>
		<path class="st121" d="M270.3,194.5c3.3,3.3,6.6,6.5,10,9.8c-0.9,2.2-1.5,4.5-3.5,0.4c-1.2-2.4-3.6-4.1-5.4-6.2
			C270.6,197.3,269.9,196,270.3,194.5z"/>
		<path class="st122" d="M69.3,168.5c-1.2,0.8-0.7,2.2-1.1,3.2c-1.1-2.5-3-5.2,1.1-6.8C69.3,166.1,69.3,167.3,69.3,168.5z"/>
		<path class="st123" d="M329.3,237.4c5.4-1.5,11.8,0.3,16-5c0,0,0,0,0,0c0.4-1.5,2.4-1.7,2.9-3.2c0.3-0.6,0.7-1.2,1-1.9
			c6.9-6.9,6.8-11.3-0.5-18c-6.6-6.1-13.3-12.1-20.2-17.9c-2.5-2.1-2.8-4-1.1-6.8c2.5-4.1,4.7-8.4,7-12.6c1.8-0.7,2.4-2.4,2.6-4
			c1.5-9,8.9-10.4,15.7-11.5c4.9-0.8,7.5-2.7,8.3-7.3c0.4-0.3,0.7-0.6,1.1-0.9c1.7,5.5-0.8,10.7-1.6,16c-2,14.4-1.9,28.7-0.7,43.1
			c0.3,3.6,0.1,7.3,0.2,11c-2.8-0.1-1.4-2.4-2-3.4c0.1,3.7,0.8,7.5,1.2,11.5c0.3,3.1-1,5.5-2.5,7.8c-1,1.5-2.7,2.5-4.2,0.9
			c-2.2-2.5-3.4-0.6-4.8,0.6c-5.6,4.8-12.2,3.4-18.6,2.6C329.3,238.1,329.3,237.7,329.3,237.4z"/>
		<path class="st124" d="M329.3,238.4c4.4,0.1,8.7-1.4,13.2-0.8c2.5,0.3,4-2.6,5.9-4c1.2-1,3.1-4,4.6,0.5c0.8,2.4,2.5,0.5,3.5-1
			c2.7-3.9,1.2-8.2,1.1-12.4c-0.1-3.2-0.9-6.4,0.8-9.9c2,2.5-0.2,5.6,2,7.6c0,4.7,1.7,9.3,1,14.1c-1.7,2.4-1.1,5.2-0.8,7.7
			c0.4,3.8,0.2,7.6-0.3,11.4c-2.5,3.4-5.5,1.9-8.4,0.8c-1.7-0.6-3.4-1.9-5-0.2c-1.4,1.6-0.4,3.4,0,5.2c0.3,1.7,3.3,3.1,0.6,5.1
			c-0.7,0-1.4,0.1-2.1,0.1c-0.6,0.2-1.1,0.1-1.6-0.3c-6.1-2.5-12.6-1.7-19-2.3c-4.8-0.4-9.6-0.1-14.3-1c-1.4-0.3-3-0.3-4.1-1.6
			c-2.2-3.4-5.5-4.7-9.4-5c-1.6-0.1-3.3,0.5-4.5-1c1.1-1.8,2.9-2,4.8-1.9c11.9,0.7,23.9,0.8,35.7,2.2c1.5,0.2,3,0,4.4-0.5
			c1.6-0.6,3.1-1.5,3.4-3.3c0.4-2.1-0.9-3.5-2.4-4.6c-1.9-1.4-4.1-2-6.5-2.1c-2.3-0.1-4.7,0-6.5-1.9
			C326.4,238,328,238.6,329.3,238.4z"/>
		<path class="st125" d="M371.4,155.4c1.5,1.5,0.8,3.5,0.9,5.2c0.8,15.1-1.5,30.2-1,45.3c-4.5,7.1-2.3,15.2-3.4,24.1
			c-2.1-3.8-2.6-6.7-2.6-9.6c0-16.6-0.1-33.3,0.1-49.9c0-4,0.4-8.2,1.9-12.1c2.3,2.8,1.3,6,1,9.1c-0.4,3.7-1.1,7.5,0.7,11.1
			c1.5-5.1,0.6-10.4,0.9-15.6C370.1,160.4,369.3,157.6,371.4,155.4z"/>
		<path class="st126" d="M306.3,257.4c11.4,0.7,22.9,1.4,34.3,2c2.1,0.1,3.5,0.7,3.7,3c-3.3,0.8-6.6,0.6-9.9,0.1
			c-6.3-0.1-12.6-0.1-19-0.2c-5.2-1-10.5-0.2-15.7-0.5c-1.8-0.1-3.6,0.4-5.4-0.4c-0.9,0-1.8,0-2.8-0.1c-0.8-2.5-0.2-3.1,2.8-2.9
			C298.2,256.4,302.4,257.8,306.3,257.4z"/>
		<path class="st127" d="M347.3,262.4c-0.9-2.4-1.7-4.8-2.6-7.3c-0.7-1.9-0.3-3.5,1.3-4.8c1.7-1.3,3.4-1.2,4.9,0.2
			c2.5,2.1,5.4,2,8.4,1.9c1.1,0.2,1.4,1.2,2,1.9C358.1,262.5,358.1,262.5,347.3,262.4z"/>
		<path class="st128" d="M371.4,155.4c0,7.3,0.1,14.6-0.1,21.9c0,1.5,1.2,4.4-1.3,4.4c-2.3,0-3.9-2.1-3.6-5
			c0.3-3.4-0.1-6.9,0.7-10.4c0.6-2.5,0.2-5.3,0.3-7.9c0-0.7,0-1.3,0.1-2c0.8-1,0.3-2.3,0.5-3.4c0.6-3.1,1.9-2.6,3.4-0.6
			C371.3,153.4,371.4,154.4,371.4,155.4z"/>
		<path class="st129" d="M361.3,254.3c-1-0.3-1.6-1-2-1.9c0-5.4,0-10.8,0-16.2c0-1.5-0.6-3.5,1.9-3.8
			C361.6,239.8,362.7,247.1,361.3,254.3z"/>
		<path class="st130" d="M371.3,152.4c-5.1-2.4-1.7,3.6-3.9,4c-0.2-5.2-0.1-10.3,2-15.8C371.6,144.8,371.4,148.6,371.3,152.4z"/>
		<path class="st131" d="M278.3,261.5c0.8-1.6-1.9-2.9-0.4-4.5c3.1-0.2-1,6.6,4.2,4.4c0.3-0.1,1.1,0.6,1.2-0.4
			c0.2-1.8-0.8-2.5-2.6-2.7c2.7-1.3,4.2-0.4,4.7,2.2c-1.1,4.3-3.3,5-7.2,2.4C278.2,262.4,278.3,261.9,278.3,261.5z"/>
		<path class="st14" d="M294.4,261.5c7,0.6,14.1-1,21.1,0.9C308.4,261.9,301.3,263.6,294.4,261.5z"/>
		<path class="st132" d="M368.3,263.5c0.4,1.6,0.9,3.2,1.3,4.8c-0.3,0.8-0.7,2.6-1.6,1.4c-1.5-2-2.3-4.6-2.4-7.2
			c0-0.4,0.7-0.9,1.1-1.3C367.2,262,367.7,262.7,368.3,263.5z"/>
		<path class="st133" d="M294.4,258.5c-1,0.9-3.5,0.4-2.8,2.9c-0.7,0-1.5,0-2.2,0c0.3-1.9-1-4.5,1.9-5.4
			C293.5,255.2,294.1,256.7,294.4,258.5z"/>
		<path class="st14" d="M334.4,262.6c3.3,0,6.6-0.1,9.9-0.1c0.3,0,0.6,0.1,0.9,0.1C341.6,263.9,338,263.9,334.4,262.6z"/>
		<path class="st134" d="M57.2,175.5c1.1,4,2.2,7.9,3.3,11.9c1,3.7,3.6,4.4,6.9,4.1c6-0.6,12-0.9,17.8-2c4.2-0.8,5.1,1.4,5.9,4.6
			c3.7,14.2,7.4,28.3,11.2,42.4c0.5,5.1,0.4,5.1-4.8,3.8c-2.1-1.2-3.1-3-3.7-5.5c-2.9-12.1-5.7-24.2-9.4-36.1
			c-0.9-3.1-2.6-4.5-5.7-4.3c-5.6,0.5-11.3,0.8-16.8,1.7c-4.6,0.8-7.5-0.6-8.7-5.1c-1.2-4.5-2.4-9-2-13.7c0.2-2.3,1.7-3.8,3.6-4.4
			C56.7,172.2,56,175,57.2,175.5z"/>
		<path class="st135" d="M70.3,214.5c-7.1-1.7-14-1.8-21.4,0.3c-3.2,0.9-5.7,2.7-8.7,3.7c0.1-11.3,0.1-22.7,0.2-34
			c1.9,6.1,0.4,12.4,0.8,18.7c0.2,2.1-0.1,4.3,1.7,6c1.3-4.8,5-2.3,7.7-2.7c0.6-0.1,1.2,0.9,2.2,0.4c11.1-5.1,11.1-5.1,19.5,4.2
			c0.4,0.5,0.9,1,1.4,1.6C72.8,213.5,70.6,212.4,70.3,214.5z"/>
		<path class="st136" d="M98.1,241.6c1.8,1.2,2.1,2.8,1.1,4.7c-0.3,0.1-0.6,0.1-0.9,0.2c-0.7,0.9-1.5,1.7-2.7,2
			c-5.6,0.4-11.1-0.8-16.7-1.3c-1.6-0.2-3.2-0.7-4.2-2.3c-0.9-2-0.9-4-0.4-6c0.2-0.6,0.5-1.1,1-1.4c6.9,1.7,14.1,1.1,20.9,3.1
			C96.8,241.1,97.8,240.6,98.1,241.6z"/>
		<path class="st137" d="M75.3,237.5c0,0.4-0.1,0.8-0.1,1.2c-2.7-1-2-3.4-2.2-5.4c-0.2-2,0-4-2.4-4.9c-4-1.7-8.2-1.9-12.5-1.7
			c-2.4,0.1-5,0.7-7-1.3c7.9-3,15.6-2.8,23.2,1C76.2,230,75,233.8,75.3,237.5z"/>
		<path class="st138" d="M98.1,241.6c-0.6-0.3-1.3-0.7-1.9-1c0.4-0.1,0.9-0.2,1.3-0.3c3.1,0.6,5.9,0.8,4.8-3.8
			c1.6,1.5,1.4,3.5,0.6,5C101.8,243.6,99.8,241.1,98.1,241.6z"/>
		<path class="st39" d="M187.3,143.4c-2.2,2.4-4.8,3.3-8,3c-4.3-0.5-8.3,1-13.4,1.4c5.5,4.5,11.1,2.5,16.2,3.5c2.4,0.5,5-0.9,7.2,1
			c-13.8,0.6-27.4-0.3-40.8-4.5c-5.3-1.7-11.3-2-17.2-1.6c-9.3,0.6-18.4-2.5-27.6-1.8c-7.3,0.5-14.5,1.1-21.7,2.1
			c-3.7,0.5-7.4,1.6-10.2,4.7c-1.6,1.8-4,2.2-6.4,2.1c-1,0-2-0.1-3-0.1c1.4-3.9,4.3-6,8.3-7.2c-7.2-1.5-14.3,2.3-21.4-0.2
			c10-2.6,20-3.9,30.3-3.7c1.7,0,4.2,1.1,4.9-1.9c19,0,38,1.4,56.9,2.7C156.6,144.2,172,143.4,187.3,143.4z"/>
		<path class="st70" d="M223,144.1c-0.6,0.1-1.1,0.2-1.7,0.3c-2.6-1.9-5.7-0.5-8.5-1c-1.9-0.3-3.9,0.7-5.5-1
			c4.3-0.3,8.6-0.6,12.9-0.8C221.8,141.5,223.9,141.2,223,144.1z"/>
		<path class="st139" d="M51.1,225.4c6.9,0.1,13.9-1.4,20.4,1.8c-0.2,0.9-0.7,1.4-1.5,1.7c-6.9-0.7-13.8-0.1-20.6,0.6
			c-0.3-0.3-0.7-0.6-1-1c0.7-1,1.4-2,2.1-3C50.8,225.5,51,225.5,51.1,225.4z"/>
		<path class="st140" d="M47.2,227.2c-0.2,6.3,0.9,12.7-0.6,19C46.6,239.9,45.4,233.5,47.2,227.2z"/>
		<path class="st141" d="M66.5,217.8c-2.3,0.7-3,0.1-3-1.4c0-2.4,2.1,0.7,2.4-0.9c3.1,1.5,7.6-0.6,9.5,3.9c0.6,1.4,0.6,0,0.8-0.4
			c1.7-3.1,2.3,0.3,3.3,0.7c1.2,0.3,2.2,1.3,1.2,2.6c-1.4,2-2.5,0-3.7-0.5C73.4,220.4,69.6,219,66.5,217.8z"/>
		<path class="st142" d="M45.3,222.4c-1.5-0.3-4.2,1.1-4.3-1c-0.1-2.6,4-4.4,5-4.1c2.8,0.7,4.5-1.5,7-1.6c1.1,0,2-1.7,2.5,0.6
			c0.3,1.2,0.4,1.7-1.3,2.7C51.3,220.4,46.5,217.1,45.3,222.4C45.3,222.4,45.3,222.4,45.3,222.4z"/>
		<path class="st143" d="M113.3,262.4c7.3,0,14.5,0,21.8,0C127.8,262.7,120.5,264.9,113.3,262.4
			C113.2,262.4,113.3,262.4,113.3,262.4z"/>
		<path class="st144" d="M220.4,256.5c2-1.6,3.8-0.9,5.4,0.6c1.3-1.2-0.2-2.4,0.7-3.6c1.3,0.3,1.7,2.7,3.6,1.6
			c0.4,1.2-0.8,1.7-1.1,2.5c-0.7,2.6-3.5,2.8-4.9,4.5c-1.3,0-2.5,0-3.8-0.1c-2.5-1.6-1-3.2,0-4.9C220.3,257,220.3,256.7,220.4,256.5
			z"/>
		<path class="st145" d="M220.3,257.3c0.5,1.6-1.1,3.3,0,4.9c-2.6,0.6-5.3,1.2-7.9,0.3c-1.2-1.4-1.2-2.7,0-4.1
			C214.8,256.5,217.5,256.6,220.3,257.3z"/>
		<path class="st146" d="M212.3,258.4c0,1.4,0,2.7,0,4.1c-1.3,1.3-2.5,1.4-3.6-0.1c-0.8-1.2-0.9-2.6,0-3.7
			C209.7,257.4,211,256.6,212.3,258.4z"/>
		<path class="st147" d="M223.3,250.4c1.7,0.4,3.6-0.5,5.2,0.9c-3-0.9-5.1,3.1-8.2,1.4c-0.7-0.1-1.4-0.2-2.1-0.4
			C219.9,251.7,221.6,251,223.3,250.4z"/>
		<path class="st120" d="M177.4,259.2c0.7-0.6,1.4-1.2,2-1.8c4.3,0,8.6,0,13,0c3.3,0.4,6.6,0.8,9.8,1.2c-0.4,2.5-2.4,1.8-3.9,1.8
			c-6-0.2-12-0.6-18.1-0.9C179.3,259.4,178.3,259.3,177.4,259.2z"/>
		<path class="st148" d="M231.4,251.1c0.4-0.5,0.7-0.4,1,0.1c1.1,1.3,1.8,3.2,4,1c1-1,2.5-0.3,3.6,0.6c1,0.9,0.7,1.8,0.4,3.1
			c-1.3,4-1.2,4.1-6.1,3.6c-0.6,0-1.2,0-1.8,0C232.5,256.6,232.2,253.9,231.4,251.1z"/>
		<path class="st149" d="M163.4,259.3c0.6,0.1,1.2,0.1,1.9,0.2c3.5,1.9,7.4,0.3,11,1c-0.6,1.4-2,0.6-2.9,0.9
			c-5.7,0.4-11.5-1.2-17.1,0.9c-0.3,0-0.6-0.1-0.9-0.2c-0.2-2.1,0.8-2.9,2.8-2.8C159.9,259.5,161.7,259.4,163.4,259.3z"/>
		<path class="st150" d="M234.2,259.5c0.5-2.8,1.7-0.8,2.6-0.3c1.4,0.7,2.2,0,2.8-1.1c-0.8-0.3-1.7-0.7-2.5-1c0.4-1.7,4-0.4,2.7-3.1
			c-0.7-1.4-2.7-1.9-3.8-0.7c-4.5,4.7-2.2-2-3.7-2.1c1.3,0,2.6,0.1,3.9,0.1c1.8-0.6,3.9-0.2,5.2-1.9c2.4-0.8,5.2-3.1,5.9,1.8
			c-0.7,0.9-2.6,0.7-1.9,2.7c0.7,1.8,1.8,2.1,3.4,1.7c1.2-0.3,2.3-0.9,3.4-1.6c1.5-0.3,2.1-1.8,3.2-2.7l-0.1,0
			c0.6-1,1.1,1.2,2.3-0.3c2-2.5,3.6,0.4,5.2,1.2c0.3-2.9-3.6-1.7-4.4-3.8c1.7-2,3.9-0.8,5.9-1.1c0.6,0.1,1,0.4,1.2,1
			c1.4,7.6,1.3,7.3-6.6,9.5c-6.1,1.7-12.5,0.9-18.5,2.4c-0.3,0-0.6,0.1-0.9,0.1C237.7,259.8,235.7,261.1,234.2,259.5z"/>
		<path class="st151" d="M75.3,244.1c5.4,3.8,11.8,1.8,17.6,3.1c1.1,0.3,2.3,0.1,3.5,0.1c0.5,5.6-1.4,6.8-9,5.4
			c-2,2.9,2.8,7.2-2,9.6c-3.4,0-6.7,0-10.1,0c-2.1-5-0.9-10.4-1.7-15.5C73.6,245.5,73.7,244.4,75.3,244.1z"/>
		<path class="st152" d="M85.4,262.3c2.5-3.9-0.1-7.5-0.7-11.5c4.3,0,10.2,5.3,11.6-3.4c0.7-0.3,1.3-0.6,2-0.8
			c-1.9,5.4-2.2,10.7,1,15.8C94.7,262.3,90.1,262.3,85.4,262.3z"/>
		<path class="st153" d="M74.4,246.3c2,5.3,0.6,10.7,1,16.1c-0.3,0.1-0.5,0.3-0.8,0.3c-0.4-1.1-0.7-2.2-1.1-3.3
			C72.6,254.9,72,250.5,74.4,246.3z"/>
		<path class="st154" d="M74.4,246.3c-0.3,4.4-0.6,8.7-1,13.1c-0.4,0-0.8,0.1-1.2,0.1c-4.4-2.1-9.2-1.9-13.9-2.1
			c0.4-0.7,0.8-1.4,1.2-2.1c1.9-1.3-0.1-3.2,0.7-4.7c1.6-0.3,2,1.3,3.1,1.9c2.8,1.5,5,1.4,6-2.1c0-0.3,0-0.6,0-0.9
			c1.2-1.5,2.1-3.1,1.4-5.1c-0.5-1.6-0.7-3.3-0.5-5c0.9-3.7,1-7.3,0-11c0.4-0.4,0.8-0.8,1.2-1.1c2.6,0.5,2.5,2.5,2.5,4.5
			c0.1,2.4-0.7,4.9,1.1,7c0,1.8,0.1,3.6,0.1,5.4C74.6,244.7,74.1,245.3,74.4,246.3z"/>
		<path class="st155" d="M70.4,228.3c4.1,3.5,1.9,7.5,0.9,11.3c-0.8,0.1-1.3-0.3-1.7-0.9c-1-1.7-2.1-2.6-3.7-0.6
			c-0.9,1-1.7,2.2-3.4,1.7c-1.3-0.3-2.3-1.1-2.5-2.7c-0.8,2.6,1.5,2.2,2.4,3c0.9,1.7-0.3,2.7-1.3,3.9c3.8-0.7,7.4-0.6,10.9,0.3
			c0.4,2.3,2,5.2-2.6,5.1c-5.2-1.8-10.6-1.7-15.7-0.7c-4.1,0.8-4.4-0.6-4.3-3.8c0.2-5.2,0.1-10.3,0.1-15.5
			C56.3,226.3,63.3,226.6,70.4,228.3z"/>
		<path class="st156" d="M69.3,250.3c1.4,2,0.6,3.6-1.1,4.9c-1.1-1.8-5.6,2.2-4.9-2.8C64.3,248.8,67.4,251.2,69.3,250.3z"/>
		<path class="st157" d="M60.2,250.5c-0.3,1.6,5.3,4-0.7,4.7c-0.2-1.1-0.5-2-1.8-0.8c-0.7,0.6-1,2.4-2.6,1.1
			c-0.4-1.7-1.1-3.4,0.3-4.9C57.1,250.6,58.7,250.5,60.2,250.5z"/>
		<path class="st158" d="M55.5,250.6c0.3,1.7,1.1,3.4-0.3,4.9c-2,0-2.9-0.9-2.8-3C52.5,250.2,54,250.6,55.5,250.6z"/>
		<path class="st159" d="M325.3,239.4c3.7,0.8,7.5-0.3,11.1,1.2c3.6,1.5,7,3.7,6.1,7.9c-0.9,4-5.1,5.4-8.8,4.8
			c-12.4-1.9-25.1-1.1-37.5-2.7c-1.2-0.2-2.6,0.5-3.8,0.8c-7.3,0.3-14.6-0.9-21.9-0.1c-1.8,0.2-3.6-0.5-4-2.8
			c0.2-0.2,0.4-0.4,0.5-0.6c2.7-0.7,5.4-2.6,8.3-0.4c5.9,0.8,11.5-0.8,16.4-3.6c7.4-4.4,15.2-5.8,23.4-4.3
			C318.6,240.1,321.9,239,325.3,239.4z"/>
		<path class="st160" d="M265.4,248.4c-0.4-0.3-0.8-0.7-1.2-1c1.6-3.6,5.8-1.8,8.2-4c6-0.6,11.9-2.3,18-2c-3.2,4.7-8.5,3.6-13,4.9
			c-3.6,0.9-7.7-0.3-11.1,2.1c0,0,0,0,0,0C266,248.5,265.7,248.4,265.4,248.4z"/>
		<path class="st161" d="M225.2,164.5c-6.7,0.1-7-0.3-6.8-9c1.2-0.3,2.1,0.4,3,0.9c0,0,0,0,0,0c1.6,2.2,3,4.5,3.9,7
			C225.3,163.8,225.2,164.1,225.2,164.5z"/>
		<path class="st70" d="M225.3,163.4c-2.3-1.8-3.6-4.1-3.9-7C223.8,158.1,226.3,159.8,225.3,163.4z"/>
		<path class="st162" d="M299.2,163.8c2.1,0.6,4.6-2.1,6.1,0.4c0.7,1.2-0.4,3.4-1.7,3.7C301,168.5,300.5,165.7,299.2,163.8z"/>
		<path class="st147" d="M241.5,249.4c-0.3,4.6-3.5,1.1-5.2,1.9c0.4-0.3,0.7-0.6,1.1-0.9c4.2-1.8,0.1-4.1-0.3-4.7
			c-5-6.5-4.4-14-4.5-21.4c2.5,5,3.3,10.5,4.5,15.9C237.8,243.7,239,246.9,241.5,249.4z"/>
		<path class="st163" d="M290.4,241.5c-6,0.7-11.7,3.9-18,2c-0.3-0.6-0.7-1.1-1-1.7c2-2,4.3-0.7,6.6-0.6c2.5,0.1,5,0,7.4-0.9
			C286.9,241.1,289.2,238.9,290.4,241.5z"/>
		<path class="st164" d="M258.3,248.5c2.4,0,4.4,0.2,5.8,2.8c0.8,1.6,0.8,2.6-0.6,3.3c-3.4,1.7-0.7-1.3-1.3-1.8
			c-1.1-0.7-2.3-1.3-3.4-2c-2,0.9-0.1,3-0.8,4.3c-2.7-0.2-0.9-3.2-2.7-3.7C255.4,249.5,257,249.1,258.3,248.5z"/>
		<path class="st165" d="M249.4,256.4c-4.9,1.8-4.9,1.8-5.8-6.6c2-1.4,1.8,3,3.9,1.4c0.3,0.1,0.6,0.2,1,0.2
			C250.5,252.7,250.8,254.4,249.4,256.4z"/>
		<path class="st166" d="M249.4,256.4c0.2-1.8,0.1-3.5-1-5c2.1,0,3.4-4.2,6-1c-2.2,0.6,0.1,3.4-2,4.1
			C252.4,256.8,250.6,256.2,249.4,256.4z"/>
		<path class="st167" d="M252.3,254.5c1.9-0.7-2.3-4.6,2-4.1c0.3,0.3,0.7,0.6,1,1C255,253,256.9,256.9,252.3,254.5z"/>
		<path class="st66" d="M266.4,248.5c2.9-4.7,7.3-2,11.1-2.1c-0.7,0.4-1.5,0.8-2.2,1.2C272.3,247.8,269.3,248.1,266.4,248.5z"/>
		<path class="st101" d="M348.3,229.3c0.7,2.6-1.8,2.2-2.9,3.2c-1.4-1.8-3.4-0.6-5.1-1.1C342.9,230.6,345.6,230,348.3,229.3z"/>
		<path class="st168" d="M157.2,252.5c0.9,2,2.6,3.4,4.1,5c-1.5,1.5-3.4,1-5.1,0.8c-2.5-0.2-4.7-1.9-4.6-4.3
			c0.2-2.8,3.1-1.2,4.8-1.7C156.7,252.4,156.9,252.5,157.2,252.5z"/>
		<path class="st169" d="M251.2,154.2c0,0.4,0.1,0.8,0.1,1.2c-5.3,7.4-10.9,7.4-18,0c0,0,0.4-0.3,0.4-0.3c1-1,2.2-0.9,3.5-0.8
			c0.5,0.1,0.9,0.3,1.3,0.6c1.1,1.4,2.3,2.1,3.6,0.3c0.4-0.2,0.8-0.3,1.3-0.2c1.2,0.7,2.3,1.9,3.7,0.4
			C248.4,155.2,249.6,154.1,251.2,154.2z"/>
		<path class="st170" d="M251.2,154.2c-1.1,1.1-2.2,2.3-4,1.3c-0.2-0.1-0.4-0.3-0.6-0.4c-1.9-2-2-4.7-3.5-8c-0.3,3,0.7,4.9,0.5,6.8
			c-0.1,0.5-0.4,0.8-0.9,0.9c-3.9-0.4-2.6-4.7-4.8-6.7c-0.4,2.5,1.6,5.1-0.7,7.1c-1.2,0-2.4,0-3.6,0c-1.9-3.7-2.5-7.4,0.7-10.7
			c3.7-1.5,7.3-1.2,11,0.1C249.1,146.7,250.6,150.2,251.2,154.2z"/>
		<path class="st171" d="M70.4,238.4c0.3,0.4,0.6,0.8,0.8,1.3c0.2,1.6,0.5,3.1,0.7,4.7c-3.5,1.9-7.4-0.7-11,1
			c-0.8,0.4-1.8-0.3-2-1.1c-0.6-1.9,1.3-0.6,1.8-1.2c0.6-0.8,1-1.7,1.5-2.5c-0.2-0.4-0.1-0.8,0.2-1.2c1.6,0.3,1.9-1.1,2.8-1.9
			c0.8,0,1.3,0.4,1.7,1c0.5,0.9,0.6,1.8,0.7,2.9c0.6-1.3-0.4-2.7,0.5-3.8C69.3,236.7,69.7,237.7,70.4,238.4z"/>
		<path class="st172" d="M63.4,233.4c-2.9-0.2-5.5,0.5-7.8-0.5c-0.8-0.3-2.1-0.6-1.7-2c0.2-0.9,1-1.3,1.9-1.3
			c4.2-0.1,8.5-0.2,12.7-0.2c1.4,0,2.7,0.2,2.7,2c0,1.9-1.4,2-2.8,2C66.6,233.5,64.8,233.4,63.4,233.4z"/>
		<path class="st173" d="M57.7,245.3c-3,0-5,0.9-6-0.8c-0.9-1.6,0.8-2.6,1.8-3.7c0.9-1,2.3-1.9,1.6-3.3c-1-2.3-2.3,1.5-3.6-0.1
			c0.9-2.5,2.8-2.4,4.6-1.3c1.9,1.2,1.4,3.1,0.2,4.3C54.5,242.2,54.9,243.5,57.7,245.3z"/>
		<path class="st174" d="M62.4,239.3c-0.1,0.4-0.1,0.8-0.2,1.2c-1.3-0.8-4.3,1.8-3.9-2.2c0.3-3.5,2.3-3.2,4.7-2.6
			C63.4,237.2,58.7,237.6,62.4,239.3z"/>
		<path class="st175" d="M70.4,238.4c-0.7-0.2-1.4-0.4-2.1-0.6c-0.6,0.4-1.2,0.9-1.9,0.9c-0.4-0.4-0.8-0.8-1.3-1.2
			C67.6,233.7,69.2,234.7,70.4,238.4z"/>
		<path class="st176" d="M237.3,155.3c0.1-2,0-3.9-0.7-5.8c-0.4-1.2-1.7-3.1,0.6-3.7c1.6-0.4,2.6,1.3,3.1,2.7c0.7,2.2,0.1,5.1,3.3,6
			c0.2,0.3,0.2,0.6-0.1,0.9c-0.4,0-0.8,0.1-1.2,0.1c-1.4,1-2.7,0.1-4-0.2C237.9,155.4,237.6,155.3,237.3,155.3z"/>
		<path class="st177" d="M238.2,155.4c1.4-1.4,2.7-0.1,4,0.2c0.2,1.4,0.3,2.7-1.7,2.8C238.3,158.5,238.3,156.9,238.2,155.4z"/>
		<path class="st178" d="M243.3,155.4c0.1-0.3,0.2-0.6,0.1-0.9c0,0,0,0,0,0c1.7-1.6,2.8-0.6,3.9,0.9c0,0-0.1,0.1-0.1,0.1
			c0,1.1,0.3,2.5-1.3,2.7C244.1,158.4,243.4,157.1,243.3,155.4z"/>
		<path class="st179" d="M247.3,155.4c-1.3-0.3-2.6-0.6-3.9-0.9c-0.7-2-1.4-4-1.9-6c-0.3-1.1-0.5-2.5,1.1-2.8
			c1.6-0.3,2.6,0.8,2.6,2.2C245.1,150.7,247,152.8,247.3,155.4z"/>
		<path class="st180" d="M66.4,238.6c0.4-0.8,1-1.2,1.9-0.9c0.4,2,1.8,4.1-0.6,6.1C65.6,242.5,66.7,240.3,66.4,238.6z"/>
	</g>
</g>
</svg>
