<?xml version="1.0" encoding="utf-8"?>
<!-- Generator: Adobe Illustrator 23.0.2, SVG Export Plug-In . SVG Version: 6.00 Build 0)  -->
<svg version="1.1" id="Layer_1" xmlns="http://www.w3.org/2000/svg" xmlns:xlink="http://www.w3.org/1999/xlink" x="0px" y="0px"
	 viewBox="0 0 876 656" style="enable-background:new 0 0 876 656;" xml:space="preserve">
<style type="text/css">
	.st0{fill:#FFFEDC;}
	.st1{fill:#875E3C;}
	.st2{fill:#7C5B3E;}
	.st3{fill:#008296;}
	.st4{fill:#005E68;}
	.st5{fill:#B4C8C7;}
	.st6{fill:#00CBE0;}
	.st7{fill:#FFFFFF;}
	.st8{fill:#FFFF00;}
	.st9{fill:#85F6FF;}
	.st10{fill:#038C2A;}
	.st11{fill:#848484;}
	.st12{fill:none;stroke:#000000;stroke-width:7;stroke-miterlimit:10;}
	.st13{fill:#EDEDED;}
	.st14{fill:#7AE2E2;stroke:#529799;stroke-width:5;stroke-miterlimit:10;}
	.st15{fill:#7AE2E2;stroke:#529799;stroke-width:2.249;stroke-miterlimit:10;}
	.st16{fill:#7AE2E2;stroke:#529799;stroke-width:1.513;stroke-miterlimit:10;}
	.st17{fill:#7AE2E2;stroke:#529799;stroke-width:1.6959;stroke-miterlimit:10;}
	.st18{fill:#529799;}
</style>
<rect id="Background" y="0" class="st0" width="876" height="467.5"/>
<g id="Floor_1_">
	<rect x="0" y="466.5" class="st1" width="876.9" height="190.5"/>
	<path class="st2" d="M14.7,655.5H8.1c0,0,0-7.5,0-19.6c0-3,0-6.3,0-9.8C8,607.7,8,588.6,8,569.6c0-2.7,0-5.4,0-8.1
		c-0.1-24.9-0.1-51,0-76.2c0-2.7,0-5.2,0-7.4c0-6.5,0-10.4,0-10.4h6.7c0,0,0,3.8,0,10.4c0,2.2,0,4.7,0,7.4c1.2,25.2-1.8,51.3,0,76.2
		c0,2.7,0.1,5.4,0.1,8.1c0.3,18.9,1,38.1-0.1,56.5c0,3.5,0,6.8,0,9.8C14.7,648,14.7,655.5,14.7,655.5z"/>
	<path class="st2" d="M27.6,655.5H21c0,0,0-4.2,0-11.4c0-2.4,0-5.1,0-8.1c0.8-19.5,1-39.6,0.5-59.5c-0.1-2.5-0.1-5-0.2-7.5
		C18,541.5,24,513,21,485.3c-0.1-2.7-0.1-5.2-0.1-7.4c0-6.5,0-10.4,0-10.4h6.7c0,0,0,1.7,0,4.8c0,1.5,0,3.4,0,5.6
		c3.3,30.2-3.7,61.2,0.7,91.1c0.2,2.5,0.3,5,0.4,7.5c0.9,20,0,40-1.1,59.5c0,3,0,5.7,0,8.1C27.6,651.3,27.6,655.5,27.6,655.5z"/>
	<path class="st2" d="M40.5,655.5h-6.7c0,0,0-4.2,0-11.4c0-2.4,0-5.1,0-8.1c1.7-19.5,2.6-39.6,1.4-59.5c-0.1-2.5-0.3-5-0.6-7.5
		c-6.7-29.9,3.3-60.9-0.8-91.1c0-2.2,0-4.1,0-5.6c0-3.1,0-4.8,0-4.8h6.7c0,0,0,1.5,0,4.3c0,1.4,0,3.1,0,5.1
		c3.4,31.2-5.6,63,1.2,93.9c0.2,2.7,0.3,5.4,0.4,8.2c0.7,19.1,0.2,38.3-1.5,57.1c0,3,0,5.7,0,8.1C40.5,651.3,40.5,655.5,40.5,655.5z
		"/>
	<path class="st2" d="M53.4,655.5h-6.7c0,0,0-4.2,0-11.4c0-2.4,0-5.1,0.1-8.1c1.5-18.8,2-38,1.4-57.1c-0.1-2.7-0.2-5.5-0.4-8.2
		C47,566,46,560.2,46,555.4c-2-26.1,4-52.2,0.8-78.5c0-2,0-3.7,0-5.1c0-2.8,0-4.3,0-4.3h6.7c0,0,0,1.5,0,4.3c0,1.4,0,3.1,0,5.1
		c4.5,26.3-3.4,52.4-1.4,78.5c1,4.9,2,10.6,2.7,15.4c0.2,2.7,0.4,5.4,0.5,8.2c0.9,19.1,0.7,38.3-1.8,57.1c0,3,0,5.7,0,8.1
		C53.4,651.3,53.4,655.5,53.4,655.5z"/>
	<path class="st2" d="M66.3,655.5h-6.7c0,0,0-4.2,0-11.4c0-2.4,0-5.1,0-8.1c1.9-19.5,2.2-39.6,1.2-59.5c-0.1-2.5-0.3-5-0.5-7.5
		c-5.3-29.9,2.7-60.9-0.7-91.1c0-2.2,0-4.1,0-5.6c0-3.1,0-4.8,0-4.8h6.7c0,0,0,1.7,0,4.8c0,1.5,0,3.4,0,5.6
		c3.7,30.2-5.3,61.2,0.7,91.1c0.2,2.5,0.3,5,0.5,7.5c1,20,0.1,40-1.2,59.5c0,3,0,5.7,0,8.1C66.3,651.3,66.3,655.5,66.3,655.5z"/>
	<path class="st2" d="M79.2,655.5h-6.7c0,0,0-4.2,0-11.4c0-2.4,0-5.1,0-8.1c0.4-19.5,1.1-39.6,0.6-59.5c-0.1-2.5-0.1-5-0.2-7.5
		c-4.9-27.5,2.1-56-0.3-83.6c-0.1-2.8-0.1-5.3-0.1-7.5c0-6.5,0-10.4,0-10.4h6.7c0,0,0,3.8,0,10.4c0,2.2,0,4.7,0,7.4
		c1.8,25.2-2.2,51.3,0,76.2c0.1,2.7,0.2,5.4,0.3,8.1c0.5,18.9,0.4,38.1-0.2,56.5c0,3.5,0,6.8,0,9.8C79.2,648,79.2,655.5,79.2,655.5z
		"/>
	<path class="st2" d="M92,655.5h-6.7c0,0,0-7.5,0-19.6c0-3,0-6.3,0-9.8c0.6-19.4,0.6-38.2,0-57.6c0-2.3,0-4.7,0-7c0-2,0-3.9,0-5.9
		c-1.4-22.3,1.6-45.1,0-67.1c0-2.6,0-5,0-7.2c0-8.7,0-13.9,0-13.9H92c0,0,0,5.8,0,15.3c0,2.4,0,5,0,7.8c-0.1,20-0.1,40.3,0,59.5
		c0,2,0,4.1,0,6.1c0,4.1,0,8.2,0,12.3c0,2.3,0,4.7,0,7c-0.1,13.2-0.1,26.3,0,39.3c0,2,0,3.9,0,5.8C92,641.3,92,655.5,92,655.5z"/>
	<path class="st2" d="M104.9,655.5h-6.7c0,0,0-7.5,0-19.6c0-3,0-6.3,0-9.8c-0.3-12.1-0.3-24.3,0-36.8c0-2.3,0-4.5,0-6.8
		c0-2.3,0-4.6,0-6.9c0-8.5,0-17.2,0-25.8c0-2.1,0-4.3,0-6.4c-0.3-14.1-0.3-27.2,0-41.1c0-3.4,0-6.7,0-9.7c0-15.2,0-25.1,0-25.1h6.7
		c0,0,0,19.9,0,46.7c0,2.1,0,4.2,0,6.3c0,11.2,0,22.7,0,34c0,2.3,0,4.7,0,7c0,5.9,0,11.8,0,17.5c0,2,0,3.9,0,5.8
		c0,16.1,0,33.3,0,49.6c0,2.5,0,4.9,0,7.1C104.9,650.3,104.9,655.5,104.9,655.5z"/>
	<path class="st2" d="M117.8,655.5h-6.7c0,0,0-1.7,0-4.8c0-1.5,0-3.4,0-5.6c1.8-25.4-0.2-51.5,0-76.6c0-2.3,0-4.7,0-7
		c-0.2-15.9-0.2-31.4,0-47.3c0-2.1,0-4.1,0-6.1c0-23.7,0-40.6,0-40.6h6.7c0,0,0,11.8,0,29.4c0,1.8,0,3.6,0,5.5
		c-0.9,22-0.9,44,0,66.2c0,2.3,0,4.7,0,7.1c1.1,25.4,3.1,50.6,0,75.6C117.8,654,117.8,655.5,117.8,655.5z"/>
	<path class="st2" d="M130.7,655.5l-6.7,0c0,0,0-1.5,0.1-4.3c6.8-27.4,0.8-55.1-0.1-82.7c-0.2-2.4-0.4-4.8-0.6-7.2
		c-1.5-21.5-1.3-43.4,0.6-64.5c0-3.6,0-6.8,0-9.9c0-12,0-19.6,0-19.6h6.7c0,0,0,4.2,0,11.4c0,2.4,0,5.1,0,8.1
		c-0.7,26.3-4,53.3-1.2,79.7c0.3,3,0.7,5.9,1.2,8.9c-0.8,11.4,2.2,22.8,5.2,34.2c3,14.7-4,27.7-5,41.8
		C130.7,654.2,130.7,655.5,130.7,655.5z"/>
	<path class="st2" d="M143.8,655.6c-1.9,0.1-4.9,0.1-6.9,0.1c10-26.9,5-53,0.1-79.8c-0.7-3.1-1.2-6-1.6-9
		c-3.9-26.4-1.2-53.5,1.5-79.7c0-3,0-5.7,0-8.1c0-7.2,0-11.4,0-11.4h6.7c0,0,0,4.2,0,11.4c0,2.4,0,5.1,0,8.2
		c-4.2,26.9-6.2,53.4-1.7,79.7c0.5,3,1.1,6,1.8,9c3.2,25.1,12.2,50.4,0.6,76C143.9,654.2,143.8,655.6,143.8,655.6z"/>
	<path class="st2" d="M156.7,655.5c-1.9,0.1-4.9,0.1-6.9,0.1c11-26.9,5-53,0-79.8c-0.8-3.1-1.5-6-2.1-9c-5.2-26.3-2.3-52.8,2-79.6
		c0.1-3.1,0.1-5.9,0.1-8.3c0-7.2,0-11.4,0-11.4h6.7c0,0,0,4.2,0,11.4c0,2.4,0,5.1-0.1,8.3c-4,26.8-8.5,53.3-2.4,79.6
		c0.7,3,1.5,5.9,2.5,8.9c3.4,25.3,12.4,50.5,0.7,76.1C156.9,654.2,156.7,655.5,156.7,655.5z"/>
	<path class="st2" d="M169.5,655.5c-1.6,0.1-4.6,0.1-6.6,0.1c9-26.9,4-53-0.2-80c-0.8-3-1.5-6-2-9c-5.1-26.8-2.3-52.6,1.9-79.4
		c0.1-3.2,0.1-5.9,0.1-8.3c0-7.2,0-11.4,0-11.4h6.7c0,0,0,4.2,0,11.4c0,2.4,0,5.1-0.1,8.3c-3.9,26.8-5.2,52.6-1.4,79.4
		c0.4,3,0.9,6,1.4,9c3.5,25.4,6.5,50.7,0.5,76.1C169.6,654.2,169.5,655.5,169.5,655.5z"/>
	<path class="st2" d="M182.2,655.5c-2.3,0.1-4.3,0.1-6.3,0.1c4-26.9,2-53-0.3-80.1c0-2.3,0-4.7-0.1-7c-6.6-27.1-2.6-54.8,0.1-81.4
		c0-3.1,0-5.8,0-8.2c0-7.2,0-11.4,0-11.4h6.7c0,0,0,4.2,0,11.4c0,2.4,0,5.1,0,8.1c-1.3,27.5-4.3,54.4,0,81.5c0,2.3,0,4.7,0,7
		c0.7,25.4,4.7,50.7,0.1,75.7C182.2,654,182.2,655.5,182.2,655.5z"/>
	<path class="st2" d="M195.1,655.5h-6.7c0,0,0-1.7,0-4.8c1.4-21.2,1.4-41.6,0-62.4c0-2.2,0-4.3,0-6.5c0-4.4,0-8.8,0-13.3
		c0-2.3,0-4.7,0-7c-3.5-24.9-0.5-49.4,0-74.5c0-3,0-5.7,0-8.1c0-7.2,0-11.4,0-11.4h6.7c0,0,0,4.2,0,11.4c0,2.4,0,5.1,0,8.1
		c-0.2,25.1-0.2,49.6,0,74.5c0,2.4,0,4.7,0,7c0,6.7,0,13.3,0,19.8c0,2.2,0,4.3,0,6.4c0.8,11.2,0.8,21.8,0.5,33.5
		c0,2.8-0.1,5.6-0.2,8.4c-0.1,2.8-0.2,5.7-0.3,8.6c0,2.2,0,4.1,0,5.6C195.1,653.8,195.1,655.5,195.1,655.5z"/>
	<path class="st2" d="M208,655.5h-6.7c0,0,0-3.2,0-8.9c0-1.9,0-4,0-6.4c0.1-2.1,0.2-4.1,0.2-6.2c0.3-16.7,0.3-33.9-0.2-51
		c0-2.3,0-4.7,0-7.1c0-7.1,0-14.4,0-21.5c0-2.3,0-4.7,0-7c-0.1-5.8-0.2-11.5-0.3-17.1c0-5.6,0-11.2,0-16.7c0-5.6,0.1-11.1,0.3-16.8
		c0-3.5,0-6.8,0-9.8c0-12,0-19.6,0-19.6h6.7c0,0,0,14.2,0,34.8c0,1.9,0,3.8,0,5.8c0,2,0,4.1-0.1,6.2c0,14.9,0,28.8,0.1,43.4
		c0,2.9,0,5.8,0,8.7c0,2.4,0,4.8,0,7.2c0,2.4,0,4.8,0,7.2c0.9,20.2,0.9,40.6,0,61.2c0,4.2,0,7.6,0,10C208,654.3,208,655.5,208,655.5
		z"/>
	<path class="st2" d="M220.9,655.5h-6.7c0,0,0-1.7,0-4.8c0-1.5,0-3.4,0-5.6c4.7-25.4,0.7-51.5,0-76.6c0-2.3,0-4.7,0-7
		c-0.3-17.6-0.3-35.5,0-53.4c0-2,0-3.9,0-5.8c0-20.6,0-34.8,0-34.8h6.7c0,0,0,11.8,0,29.4c0,1.8,0,3.6,0,5.5c-1,22-1,44,0,66.2
		c0,2.3,0,4.7,0.1,7c1.9,23.8,6.9,46.6,0,70.6c-0.1,1.9-0.1,3.6-0.1,5C220.9,654,220.9,655.5,220.9,655.5z"/>
	<path class="st2" d="M233.7,655.5h-6.7c0,0,0-1.4,0-3.8c7.8-25.4,6.8-50.7,0.1-76.1c-0.1-2.6-0.1-5.2-0.2-7.8
		c-0.5-23.5-1.9-47.6,0.1-70.9c0-3.5,0-6.8,0-9.8c0-12,0-19.6,0-19.6h6.7c0,0,0,4.2,0,11.4c0,2.4,0,5.1,0,8.1
		c-4.4,26.3-1.6,53.3-0.3,79.7c0.2,2.9,0.3,5.9,0.5,8.8c7,25.4,11,50.6-0.1,76.1C233.7,654.2,233.7,655.5,233.7,655.5z"/>
	<path class="st2" d="M246.7,655.5c-1.8,0.1-4.8,0.1-6.8,0.1c11-26.9,10-53,0.3-80c-0.4-3.1-0.8-6.1-1.2-9.1
		c-3-26.9-6.3-53.3,0.8-79.4c0.1-3.1,0.2-5.9,0.2-8.3c0-7.2,0-11.4,0-11.4h6.7c0,0,0,1.9,0,5.3c0,1.7,0,3.8,0,6.2
		c-7.3,27-6.4,53.6-2.6,80.4c0.4,2.7,0.8,5.4,1.2,8.1c7.6,28.6,15.6,56.3,1.7,84.3C246.7,654.2,246.7,655.5,246.7,655.5z"/>
	<path class="st2" d="M259.6,655.5c-1.7,0.1-4.7,0.1-6.7,0.1c7-24.5,12-48.1,2-72.6c-2-4.9-3-9.8-2-14.3c-0.1-2.3-0.4-4.5-0.8-6.7
		c-1.5-8.9-4.6-17.6-7.3-26.3c-2-4.9-2-10.6-1-15.5c3-16.3,9-31,9-47.5c0-3.4,0-5.3,0-5.3h6.7c0,0,0,1.9,0,5.3
		c0.4,22.2-16.6,42.6-9.6,64.6c4.2,10.9,8.3,21.2,9.4,31.8c0.2,2.1,0.3,4.3,0.3,6.4c6.3,25.4,11.3,50.7,0.3,76.2
		C259.6,654.2,259.6,655.5,259.6,655.5z"/>
	<path class="st2" d="M272.4,655.5c-1.6,0.1-4.6,0.1-6.6,0.1c7-26.9,7-53-0.1-80c0.3-2.6,0.4-5,0.2-7.5c-1-12.2-8.1-23.2-13.1-34.7
		c-1-3.3,0-6.5,0-9.8c4-17.1,12-33.4,12.8-50.7c0.1-3.5,0.1-5.3,0.1-5.3h6.7c0,0,0,1.9-0.1,5.4c1.6,20.5-16.4,37.6-12.4,58
		c2.5,12.9,11.2,24.1,12.7,36.8c0.3,2.5,0.3,5.1-0.1,7.8c3.4,25.4,6.4,50.7,0.2,76.2C272.4,654.2,272.4,655.5,272.4,655.5z"/>
	<path class="st2" d="M285.3,655.5l-6.7,0c3.2-26.8,3.2-52.9,0-80c0-2.3,0-4.7,0-7c1.2-4.3,1.2-9.1-1.8-12.4
		c-20-28.5-2-55.4,1.6-83.3c0.1-3.5,0.1-5.4,0.1-5.4h6.7c0,0,0,1.9-0.1,5.4c0.7,15.7-7.3,30.3-10.3,45.8c-1,4.1-1,8.2,0,12.2
		c5,12.2,12,24.5,10.4,37.7c0,2.3,0,4.7,0,7c0,2.1,0,4.2,0,6.2c0,2.1,0,4.1,0,6.2c3.5,21.1,1.5,42.3,0,63.2
		C285.3,654,285.3,655.5,285.3,655.5z"/>
	<path class="st2" d="M298.1,655.5h-6.7c0,0,0-1.7,0-4.8c0.3-21.2,1.3-41.6,0-62.4c0-2.2,0-4.3,0-6.5c0-4.4,0-8.8,0-13.3
		c0-2.3,0-4.7,0-7c1.3-11.9-7.7-23.3-7.7-35.5c-1-17.9,7-35.1,7.6-53.2c0.1-3.4,0.1-5.3,0.1-5.3h6.7c0,0,0,1.9,0,5.3
		c-0.2,2.8-0.5,5.6-0.8,8.4c-1.6,13.9-2.6,26.9-3.1,41c0,2.7,0,5.4,0.1,8.1c0.4,8.1,1.5,16.1,3.7,24.2c0,2.3,0,4.7,0,7
		c0,9.8,0,19.6,0,29c0,1.9,0,3.7,0,5.6c1.7,17.2-0.3,34.3,0,51.4c0,1.7,0,3.2,0,4.4C298.1,654.2,298.1,655.5,298.1,655.5z"/>
	<path class="st2" d="M311,655.5h-6.7c0,0,0-3.2,0-8.9c0-1.9,0-4,0-6.4c0.3-8.2,0.4-16.8,0.3-25.2c0-2.1-0.1-4.2-0.1-6.3
		c0.3-15.1,0.3-31.4-0.2-47.1c0-2.4,0-4.8,0-7.2c0-2.3,0-4.7,0-7c-0.6-2.5-1-4.9-1.4-7.4c-0.4-2.5-0.7-5-0.9-7.5
		c0.7-19.6,0.7-40,2.3-59.8c0-3.4,0-5.3,0-5.3h6.7c0,0,0,1.1,0,3c2.8,23.7,0.8,46.5-0.1,70c0,2.3,0,4.6,0.1,6.9
		c0.8,24.2-0.2,48.7,0,73.2c0,3.5,0,6.7,0,9.8C311,645.7,311,655.5,311,655.5z"/>
	<path class="st2" d="M323.9,655.5h-6.7c0,0,0-7.9,0-20.5c0-2.5,0-5.2,0-8.2c-1.4-26.6,3.6-53.5,0.1-80.6c0-1.9,0-3.8,0-5.7
		c4.5-23.5,5.5-46.3,0-70c0-2,0-3,0-3h6.7c5.9,24.3,10.9,48.7,0.1,73c-0.1,2.1,0.1,4.2,0.3,6.3c0.7,6.4,2.2,13,1.5,19.1
		c-2,24.5-3,48.1-1.9,72.9c0,2.6,0,4.9,0,7C323.9,652,323.9,655.5,323.9,655.5z"/>
	<path class="st2" d="M336.8,655.5h-6.7c0,0,0-4.2,0-11.4c0-2.4,0-5.1-0.1-8.3c-2.3-23.4,1.7-47.1,3.7-70.7c0.5-4.1,0-8.2-0.8-12.3
		c-0.4-2.1-0.9-4.1-1.4-6.2c-1.8-3.6-1.8-6.8,0.2-9.3c13-23.6,4-46.5-2-70.1c2,0,6,0,6,0c8,22,20,44,4,66.8c-2,3.3-4,7.3-1.4,10.5
		c0.4,1.8,1,3.7,1.6,5.5c1.7,5.6,3.2,11.3,1.7,17.4c-6,26.1-7,50.5-5,76.5c0,2.4,0,4.5,0,6.2C336.8,653.6,336.8,655.5,336.8,655.5z"
		/>
	<path class="st2" d="M349.7,655.5H343c0,0,0-1.9,0-5.3c0-1.7,0-3.8,0-6.2c-0.2-14.6-4.2-28.4-0.2-43.1c4.8-15.7,6-30.1,4.9-44.6
		c-0.2-2.4-0.4-4.8-0.7-7.3c-0.2-5.2-1.2-10.1,0.8-14.1c12-22.8,2-44.8-5-67.7c14,1.6,12,23.6,17,34.2c6,13.9-7,25.3-8,39.1
		c0,3.3,4,6.5,4.2,9.9c1,2.3,1.8,4.6,2.2,7c0.4,2.4,0.3,4.9-0.4,7.6c-8,26.9-12,52.2-8.1,78.9c0,2.4,0,4.5,0,6.2
		C349.7,653.6,349.7,655.5,349.7,655.5z"/>
	<path class="st2" d="M362.6,655.5h-6.7c0,0,0-1.9,0-5.3c0-1.7,0-3.8,0-6.2c-2.1-25.1-1.1-49.6,6.9-74.9c1.7-4.9,1.3-9.6,0.2-14.2
		c-0.6-2.3-1.3-4.6-2.2-6.9c-2-4.1-3-9-1-13.1c11-22.8,3-44.8-4-67.7c2,0,6,0,6,0c7,23.6,14,45.6,3,68.5c-2,4.1,1,9,3,13
		c0.9,2.1,1.6,4.3,2,6.4c0.4,2.2,0.5,4.4,0,6.6c-3,27.7-12,54.6-7.2,82.2c0,2.4,0,4.5,0,6.2C362.6,653.6,362.6,655.5,362.6,655.5z"
		/>
	<path class="st2" d="M375.4,655.5h-6.7c0,0,0-1.9,0-5.3c0-1.7,0-3.8,0-6.2c-2-24.3-2-48.8,7-73.3c1-4.1,0-8.2,0-12.2
		c-0.5-2.2-1.1-4.3-1.7-6.5c-0.6-2.1-1.3-4.3-1.9-6.4c-0.4-5.1-2.4-10-1.4-14.9c7-19.6,3-38.3-1.7-57.2c-0.3-4-0.3-6.2-0.3-6.2h6.7
		c0,0,0,2.2,0.2,6.2c6.2,23,1.2,45.8,2.3,69.5c0.6,2.5,1.3,5,1.8,7.5c1.1,5,1.8,10.1,1.1,15.3c-2,23.6-10,46.5-5.4,69.8
		c0.1,3.2,0.1,5.9,0.1,8.3C375.4,651.3,375.4,655.5,375.4,655.5z"/>
	<path class="st2" d="M388.3,655.5h-6.7c0,0,0-4.2,0-11.4c0-2.4,0-5.1,0-8.2c-2.9-23.5,3.1-46.3,4.1-70c0.3-5.2-0.1-10.2-0.8-15.3
		c-0.4-2.5-0.8-5-1.2-7.5c-1-23.7,2-46.5-2.1-69.5c0-3.9,0-6.1,0-6.1h6.7c0,0,0,1.4,0,4.1c0,1.3,0,2.9,0,4.8
		c1.4,21.1,1.4,42.3,0.4,63.3c0.2,2.1,0.4,4.2,0.6,6.3c0.7,6.3,1.4,12.6,1.4,19.1c0,23.6-5,47.3-2.4,70.8c0,3,0,5.7,0,8.1
		C388.3,651.3,388.3,655.5,388.3,655.5z"/>
	<path class="st2" d="M401.2,655.5h-6.7c0,0,0-4.2,0-11.4c0-2.4,0-5.1,0-8.1c-0.6-30.5,2-60.5,1.1-90.8c-0.1-3-0.2-6.1-0.4-9.1
		c-0.4-18.2-0.4-35.4-0.6-53.3c0-2.4,0-4.5,0-6.4c0-5.6,0-8.9,0-8.9h6.7c0,0,0,3.7,0,10.1c0,2.1,0,4.6,0,7.2
		c0.6,16.7,0.6,32.2,0,48.8c0.2,2.7,0.3,5.3,0.4,8c0.4,12.1,0.2,24.3,0,36.6c0,2.5-0.1,4.9-0.1,7.4c-1.6,14.6-0.6,30.1-0.2,44.8
		c0,3,0,5.9,0,8.5C401.2,649.2,401.2,655.5,401.2,655.5z"/>
	<path class="st2" d="M414.1,655.5h-6.7c0,0,0-3.7,0-10.1c0-2.1,0-4.6,0-7.2c0.3-20.9,0.3-41.2,0.2-62.8c0-2.3,0-4.6,0-7
		c0.1-11.6,0-23.3-0.2-34.8c0-2.3,0-4.5,0-6.7c0-2.1,0-4.1,0-6.1c0.3-4.7,0.3-8.7,0.2-13.6c0-2.3,0-4.6-0.1-6.9
		c0-2.3-0.1-4.5-0.2-6.7c0-3.2,0-6.1,0-8.8c0-10.7,0-17.4,0-17.4h6.7c0,0,0,4.2,0,11.4c0,2.4,0,5.1,0,8.1c-0.3,15.3-0.3,30.8,0,46.6
		c0,2.3,0,4.5,0,6.8c-0.2,7-0.2,14-0.2,21c0,2.3,0,4.7,0,7c-0.1,25.2,2.9,50.5,0.2,75.6c0,2.4,0,4.5,0,6.2
		C414.1,653.6,414.1,655.5,414.1,655.5z"/>
	<path class="st2" d="M427,655.5h-6.7c0,0,0-1.9,0-5.3c0-1.7,0-3.8,0.1-6.1c4.4-25.2-0.6-50.5-0.1-75.6c0-2.4,0-4.7,0-7.1
		c0-2.4,0-4.7,0-7s0-4.7,0-7c0.4-20.6,0.4-40.2,0-60.4c0-3,0-5.8,0-8.2c0-7.2,0-11.4,0-11.4h6.7c0,0,0,1.9,0,5.3c0,1.7,0,3.8,0,6.2
		c-0.2,25.1,0.8,50.3,0,75.5c0,2.3,0,4.7,0,7c-0.2,30.5,6.8,59.9,0,90.3C427,654.2,427,655.5,427,655.5z"/>
	<path class="st2" d="M439.9,655.5h-6.7c0,0,0-1.3,0-3.7c1.5-14.1,7.5-28,4.5-41.9c-2-16.3-6-31.8-4.6-48.5c0-2.4,0-4.7,0-7
		c1.6-26.8-1.4-54.6,0-81.7c0-3.4,0-5.3,0-5.3h6.7c0,0,0,1.9,0,5.3c-1.1,21.5-3.1,42.6-0.1,63.8c1.5,6.1,0.7,12.7,0.3,18.9
		c-0.1,2.1-0.2,4.1-0.2,6c-2.1,20.7,7.9,39.5,5.9,59.9c0,9.8-3,19.6-5.7,29.4C439.9,653.8,439.9,655.5,439.9,655.5z"/>
	<path class="st2" d="M452.7,655.5c-2,0.1-5,0.1-7,0.1c2-12.2,6-23.6,7-35.9c2-19.6-10-38.3-6.7-58.2c0.1-3,0.1-6,0-8.9
		c-0.6-26.7-5.7-53.2,0-79.8c0-3.4,0-5.3,0-5.3h6.7c0,0,0,1.9-0.2,5.3c-3.8,16.5-7.8,32-3.8,49.1c2.5,11.5,4.3,22,4.3,32.9
		c0,2.2-0.1,4.4-0.3,6.7c0,6.9-1,12.6,1,19.1c7,23.6,8,47.3-0.6,70.2C452.8,653.8,452.7,655.5,452.7,655.5z"/>
	<path class="st2" d="M465.6,655.5c-1.9,0.1-4.9,0.1-6.9,0.1c2-15.5,9-30.2,7-46.5c-3-15.5-9-31-6.6-46.3c0.1-1.9,0.3-3.9,0.4-5.8
		c0.2-3.9,0.2-7.8-0.8-11.4c-10-26.1-7-51.4,1-78.3c0,0,4,0,6,0c-3,17.9-15,35.1-9,53.8c4.2,13.6,9,26,9.3,39.3
		c0.1,2.7-0.1,5.4-0.4,8.1c2.1,27.5,11.1,55.2,0.2,82.7C465.7,654,465.6,655.5,465.6,655.5z"/>
	<path class="st2" d="M478.5,655.5h-6.7c7.9-29.3,1.9-57.8,0-87c0-2.1,0.1-4.2,0.2-6.3c0.4-6.4,0.9-13-1.3-19.1
		c-2-9.8-13-17.1-11-27.7c2-15.5,2-43.2,19-48.1c-9,22.8-26,49.7-3,73.4c6,5.7,2,13.9,2.8,20.8c0,2.3,0,4.7,0,7
		c0.2,27.6,5.2,54.5,0,82.2C478.5,653.8,478.5,655.5,478.5,655.5z"/>
	<path class="st2" d="M491.4,655.5h-6.7c0,0,0-1.7,0-4.8c4-27.7,0-54.6,0-82.2c0-2.3,0-4.7,0-7c2-13.5-5-25.7-13-38
		c-13-17.9,6-37.5,14-56.2c0,0,3,0,5,0c-3,17.9-22,32.6-16,50.5c6,14.7,22,26.9,16.7,43.7c0,2.4,0,4.7,0,7c0,2.2,0,4.4,0,6.7
		c0,2.2,0,4.4,0,6.6c1.3,22.4,1.3,46.1,0,68.9C491.4,653.8,491.4,655.5,491.4,655.5z"/>
	<path class="st2" d="M504.3,655.5h-6.7c0,0,0-2.9,0-8.1c0-1.7,0-3.7,0-5.8c0.1-17,0.1-34.1,0-51.1c0-1.9,0-3.8,0-5.7
		c0-7.6,0-15.5,0-23.3c0-2.4,0-4.7,0-7c0.1-6.5,1.1-13.8-2.9-19.5c-7-9-18-17.9-13-29.3c5-12.2,9-33.4,22-38.3
		c-8,24.5-24,46.5-1,70.9c2,1.6,0,5.7,1.5,9.2c0,2.3,0,4.7,0,7c0,8.2,0,16.5,0,24.6c0,4,0,8.1,0,12c0.4,14,0.4,27.9,0,41.4
		c0,2.8,0,5.4,0,7.8C504.3,649.8,504.3,655.5,504.3,655.5z"/>
	<path class="st2" d="M517.1,655.5h-6.7c0,0,0-5.1,0-13.5c0-2.8,0-6,0.1-9.5c0.1-15.2,0.1-29.8,0-45.4c0-2.6,0-5.3,0-8
		c0-8.1,0-16.4,0-24.6c0-2.3,0-4.7,0-7c1.2-13.3-7.8-24.7-11.8-36.9c-1-3.3-1-6.5,0-9.8c5-11.4,10-21.2,13-33.4h4
		c3,11.4-4,21.2-6,32.6c-3,14.7,8,26.9,7.4,40.6c0.1,2.3,0.1,4.6,0.1,6.9c0,6.4,0,12.9,0,19.3c0,2.2,0,4.3,0,6.4
		c1.6,22.1,3.6,43.3,0.1,65.6c-0.1,2.6-0.1,4.9-0.1,7C517.1,652,517.1,655.5,517.1,655.5z"/>
	<path class="st2" d="M530,655.5h-6.7c0,0,0-3.6,0-9.7c0.1-2.1,0.1-4.4,0.4-7c6.9-22.4,1.9-43.6-0.4-65.6c0-2.1,0-4.3,0-6.4
		c0-6.5,0-12.9,0-19.3c0-2.3,0-4.6,0-6.9c-1.6-5.5-1.6-11.2-2.3-16.9c-0.3-2.8-0.6-5.6-0.8-8.4c-1-14-0.5-28,3-42.4
		c0.1-3.4,0.1-5.3,0.1-5.3h6.7c0,0,0,1.9,0,5.3c-0.9,7.7-1.4,15.3-1.6,22.9c-0.1,2.5-0.1,5-0.1,7.5c0.4,17.1,2.4,34.2,1.8,51.7
		c0,2.4,0,4.8,0,7.2s0,4.8,0,7.2c0,1.9,0.1,3.8,0.1,5.7c6.5,21.9,9.5,44.7,0.4,66.9c-0.5,4.3-0.6,7.7-0.6,10
		C530,654.3,530,655.5,530,655.5z"/>
	<path class="st2" d="M542.9,655.5h-6.7c0,0,0-1.3,0-3.6c-0.6-13.4,8.4-24.8,11.4-37.9c2-13.9-10-25.3-11.1-39
		c-0.2-1.9-0.2-3.8-0.3-5.7c0-2.4,0-4.8,0-7.2c0-2.4,0-4.8,0-7.3c1.4-19.8-0.6-39.4-0.6-59.2c0-2.5,0.1-5,0.2-7.6
		c0.1-5.1,0.3-10.2,0.5-15.3c0-3.4,0-5.3,0-5.3h6.7c0,0,0,4.2,0,11.4c0,2.4,0,5.1,0,8.1c0.8,25.1,0.8,51.2,0,76.5
		c-0.4,2.7-0.3,5.3,0,7.8c1.8,12.6,11.4,23.3,14.7,36.2c3,11.4-7,21.2-12,31c-2,4.1-2,9-2.8,13.4
		C542.9,654.3,542.9,655.5,542.9,655.5z"/>
	<path class="st2" d="M555.8,655.5h-6.7c0,0,0-1.3,0-3.8c0.5-14.9,13.5-24.6,18.5-38.5c1-4.1,0-7.3-2-10.6c-7-9.8-15-19.6-16.3-31
		c-0.1-2-0.2-3.9-0.2-5.9c1.6-29.1,2.6-57.6,0-86.8c0-2.4,0-4.5,0-6.2c0-3.4,0-5.3,0-5.3h6.7c0,0,0,1.3,0,3.7c0,1.2,0,2.7,0,4.4
		c3.9,30.9,1.9,61.8,0.1,93c0,2.3,0.3,4.5,0.9,6.6c3,10.7,12.9,19.9,17.9,30.7c2,4.9,1,9.8-2,14.7c-7,9.8-14,18.7-16.7,29.7
		C555.8,653.6,555.8,655.5,555.8,655.5z"/>
	<path class="st2" d="M568.7,655.5H562c0,0,0-1.9,0.1-5.3c2.5-10.9,10.5-19.9,16.5-29.7c2-4.1,3-8.2,2-12.2
		c-3.3-12.2-14.3-21.6-17.6-32.8c-0.7-2.2-1-4.6-1-7c2.6-31.1,4.6-62.1-0.1-93c0-1.7,0-3.2,0-4.4c0-2.4,0-3.7,0-3.7h6.7
		c0,0,0,1.3,0,3.7c5,32.8,3,64.6,0,97.3c0,2.3,0.3,4.5,1,6.6c3.1,10.5,12.7,19.2,16,30.8c4,17.1-15,27.7-17,44.4
		C568.7,653.6,568.7,655.5,568.7,655.5z"/>
	<path class="st2" d="M581.6,655.5h-6.7c0,0,0-1.9,0.1-5.3c0.7-8.5,5.7-16.7,10.7-24c3-6.5,5-13,4-20.4
		c-2.5-11.5-11.9-20.3-14.3-30.8c-0.5-2.1-0.7-4.3-0.5-6.6c3.8-32.8,5.8-64.5,0-97.4c0-2.4,0-3.7,0-3.7h6.7c0,0,0,1.3,0,3.7
		c5.1,32.8,3.1,64.6,0,97.4c0.3,2.3,0.8,4.7,1.4,7c5.3,20.9,19.7,40.9,1.7,62.9c-3,3.3-3,7.3-3,11.8
		C581.6,653.6,581.6,655.5,581.6,655.5z"/>
	<path class="st2" d="M594.4,655.5h-6.7c0,0,0-1.9,0-5.3c10.7-25.3,8.5-48.9,2.2-73.5c-0.7-2.7-1.4-5.5-2.2-8.2
		c2.9-32.8,4.9-64.6,0-97.4c0-2.4,0-3.7,0-3.7h6.7c0,0,0,1.3,0,3.7c3.2,32.8,2.2,64.6,0,97.4c0.5,2.8,1,5.5,1.5,8.2
		c4.2,24.6,5.9,48.2-1.5,73.5C594.4,653.6,594.4,655.5,594.4,655.5z"/>
	<path class="st2" d="M607.3,655.5h-6.7c0,0,0-1.9,0-5.3c5-24.8,7-50.1,0.1-74.7c-0.1-2.3-0.1-4.7-0.1-7c1-31.1,3-61.3,0-92.2
		c0-1.9,0-3.5,0-4.8c0-2.6,0-4.1,0-4.1h6.7c0,0,0,1.4,0,4.1c0,1.3,0,2.9,0,4.8c1.3,26.8,1.3,52.9,0,79.8c0,2.1,0,4.1,0,6.2
		c0,2.1,0,4.1,0,6.2c0,2.3,0,4.7,0,7c5.3,24.6,2.3,49.9,0,74.7C607.3,653.6,607.3,655.5,607.3,655.5z"/>
	<path class="st2" d="M620.2,655.5h-6.7c0,0,0-1.9,0-5.3c0-1.7,0-3.8,0-6.2c2.1-22.7,2.1-45.5,0-68.5c0-2.3,0-4.7,0-7
		c0-4.1,0-8.2,0-12.3c0-2.1,0-4.1,0-6.2c0.1-22.4,0.1-44.4,0-67.3c0-2.4,0-4.5,0-6.4c0-5.6,0-8.9,0-8.9h6.7c0,0,0,3.6,0,9.7
		c0,2,0,4.4,0,7c0.4,18.2,0.4,35.3,0,52.9c0,2.1,0,4.2,0,6.3c0,10.6,0,21.5,0,32.2c0,2.3,0,4.6,0,6.9c0.4,5,0.6,10.1,0.7,15.3
		c0.1,5.1,0.1,10.3,0,15.5c-0.1,5.2-0.2,10.4-0.3,15.5c-0.1,5.2-0.3,10.3-0.4,15.3c0,2.4,0,4.5,0,6.2
		C620.2,653.6,620.2,655.5,620.2,655.5z"/>
	<path class="st2" d="M633.1,655.5h-6.7c0,0,0-4.2,0-11.4c0-2.4,0-5.1,0-8.1c0.2-13,0.2-26.8,0.1-40.2c0-2.2,0-4.4-0.1-6.7
		c0-2.2,0-4.4-0.1-6.6c0-2.3,0-4.6,0-6.9c0-14.9,0-30.3,0-44.7c0-2,0-4.1,0-6.1c0.2-10.2,0.2-21.6,0-32.2c0-3,0-5.9,0-8.5
		c0-10.3,0-16.6,0-16.6h6.7c0,0,0,62.2,0,115c0,2.3,0,4.6,0,6.8c-0.4,18.2-0.4,36.9,0,54.8c0,2.4,0,4.5,0,6.2
		C633.1,653.6,633.1,655.5,633.1,655.5z"/>
	<path class="st2" d="M646,655.5h-6.7c0,0,0-1.9,0-5.3c0-1.7,0-3.8,0-6.2c-1.6-20.3-1.6-39.9,0-60.6c0-2,0-3.9,0-5.9
		c0-51.7,0-110.1,0-110.1h6.7c0,0,0,56.9,0,108.1c0,2.3,0,4.6,0,6.9c-3.3,22.6-2.3,44.6,0,67.8C646,653.6,646,655.5,646,655.5z"/>
	<path class="st2" d="M658.8,655.5h-6.7c0,0,0-1.3,0-3.7c-4.5-24.7-5.5-48.4,0-72.8c0-1.9,0-3.9,0-5.8c0-3.9,0-7.8,0-11.7
		c0-2.4,0-4.7,0-7c0.4-8.9,0.4-18.7,0-27.5c0-2.2,0-4.4,0-6.5c0-29.9,0-53,0-53h6.7c0,0,0,19.9,0,46.7c0,2.1,0,4.2,0,6.3
		c-0.2,13.7-0.2,27.5,0,41c0,2.3,0,4.7,0,7c0.8,10.4-2.2,21-5.2,31.6c-5,17.9,4,33.4,5.1,50.6C658.8,653.8,658.8,655.5,658.8,655.5z
		"/>
	<path class="st2" d="M671.7,655.5c-2.1,0.1-6.1,0.1-6.1,0.1c-11-29.3-9-57.9-0.6-87.1c-0.1-2.6-0.1-5.1-0.1-7.7
		c-0.3-17.8-0.2-35,0.1-52.8c0-2,0-3.9,0-5.8c0-20.6,0-34.8,0-34.8h6.7c0,0,0,4.2,0,11.4c0,2.4,0,5.1,0,8.1
		c-0.1,23.3-1.4,47.3-0.8,70.9c0.1,2.9,0.1,5.9,0.2,8.9c-0.5,3.1,0.5,6.4-0.5,9.7c-12,25.3-8,49.7,1,75.2
		C671.7,654.2,671.7,655.5,671.7,655.5z"/>
	<path class="st2" d="M684.6,655.5l-6.7,0c-0.3-2.4-0.3-5.6-0.3-8.1c-4-14.7-15-26.1-12-40.8c5-17.1,14-31.8,10.9-48.7
		c-0.1-2.9-0.2-5.9-0.3-8.9c-0.5-20.7,0.8-41.6,1.7-62c0-3.1,0-5.8,0-8.2c0-7.2,0-11.4,0-11.4h6.7c0,0,0,1.9,0,5.3
		c0,1.7,0,3.8,0,6.2c-0.7,24.3-4.3,48.3-3.1,72.4c0.1,2.7,0.3,5.4,0.6,8.1c4.5,17.1-7.5,31.8-11.5,48.1c-3,16.3,13,28.5,13.9,44.2
		C684.6,654.2,684.6,655.5,684.6,655.5z"/>
	<path class="st2" d="M697.5,655.5h-6.7c0,0,0-1.9-0.1-5.2c-0.1-4.5-2.1-8.5-3.1-12.6c-4-9-13-16.3-12-26.1
		c2-16.3,14-30.2,12.8-46.7c-0.1-3.1-0.3-6.2-0.4-9.2c-1.9-20.5-2.6-40.6,1.6-62.3c2-6.5,1-13.9,1.2-20.6c0-3.4,0-5.3,0-5.3h6.7
		c0,0,0,1.9,0,5.3c-2.9,27.7-7,54.8-4.7,82.2c0.1,3.1,0.4,6.3,0.5,9.5c2.3,15.3-5.7,28.4-9.7,43c-3,15.5,14,26.9,13.9,42.7
		C697.5,653.6,697.5,655.5,697.5,655.5z"/>
	<path class="st2" d="M710.4,655.5h-6.7c0,0,0-1.9,0-5.3c0.9-12.6-8.1-22.4-11.1-33.8c-4-12.2,5-23.6,7-35.9c1-5.7,0-10.6-0.2-16.1
		c-0.2-3.2-0.5-6.4-0.6-9.5c-2.6-27.4,1.1-54.5,4.9-82.2c0-3.4,0-5.3,0-5.3h6.7c0,0,0,1.9-0.1,5.3c0.3,22.2-8.7,43.4-7.7,65.4
		c0.2,2.4,0.5,4.9,0.9,7.3s1,4.9,1.6,7.3c0.5,6.5,4.5,13,2.5,19.6c-0.6,2.5-1.2,5-1.7,7.5c-2.3,18.6-5.3,38.1,1.6,57.1
		c0.8,2.3,1.8,4.7,2.8,7c0,2.4,0,4.4,0,6.1C710.4,653.6,710.4,655.5,710.4,655.5z"/>
	<path class="st2" d="M723.3,655.5h-6.7c0,0,0-3.1,0-8.4c0-1.8,0-3.8,0-6.1c-2-21.3-7-43.3-2-64.5c1-2.9,1-5.7,0.6-8.6
		s-1.2-5.8-1.9-8.9c-0.7-2.8-1.5-5.5-2.2-8.2c-2.2-8.1-4-16.3-2.5-24.8c4-17.9,8-35.1,7.9-53.1c0.1-3.5,0.1-5.4,0.1-5.4h6.7
		c0,0,0,1.9-0.1,5.3c-2,26.4-7.5,51.8-5.2,77.3c0.3,2.8,0.6,5.7,1.1,8.5c0.1,1.8,0.5,3.6,0.9,5.4s1,3.5,1.4,5.2
		c3.2,23.6,4.2,48.1,2,71.9c-0.1,2.3-0.1,4.3-0.1,6.1C723.3,652.5,723.3,655.5,723.3,655.5z"/>
	<path class="st2" d="M736.1,655.5h-6.7c0,0,0-2.1,0-5.9c5.1-27.4,9.1-55.1-1.4-82.5c-0.8-2.9-1.5-5.7-1.6-8.6
		c-0.4-2.8-0.6-5.7-0.9-8.5c-2-25.6,0.9-51.3,3.8-77.2c0-3.4,0-5.3,0-5.3h6.7c0,0,0,1.9,0,5.3c-2.3,29.4-5,58.5-1.2,87.8
		c0.3,2.7,0.8,5.3,1.2,8c0.4,3.1-0.6,7.2,1.4,10.4c16,23.6,3,46.5-1.4,69.9C736.1,653.2,736.1,655.5,736.1,655.5z"/>
	<path class="st2" d="M749,655.5h-6.7c0,0,0-1.7,0-4.8c0.2-13.1,8.2-23.7,12.2-35.9c5-17.1-12-30.2-12.2-46.3c0-2.3,0-4.7-0.1-7
		c-3.7-29,0.3-59.2,0.1-88.8c0-3.4,0-5.3,0-5.3h6.7c0,0,0,1.9,0,5.3c0,1.7,0,3.8,0,6.2c-0.4,25.1-0.4,50.3,0,75.6c0,2.3,0,4.7,0,7
		c0,2,0,3.9,0,5.9c13.5,27.1,14.5,53.2,0.2,80.1C749,652.6,749,655.5,749,655.5z"/>
	<path class="st2" d="M761.9,655.5h-6.7c0,0,0-1.4,0-4.1c0-1.3,0-2.9,0.1-4.8c15.2-26.9,11.2-53-0.1-79.9c0-2.1,0-4.1,0-6.2
		c0-2.1,0-4.1,0-6.2c0-2.3,0-4.7,0-7c0.3-20.6-1.7-40.2,0-60.4c0-3,0-5.8,0-8.2c0-7.2,0-11.4,0-11.4h6.7c0,0,0,4.2,0,11.4
		c0,2.4,0,5.1,0,8.1c-0.3,15.3-0.3,30.8,0,46.6c0,2.3,0,4.5,0,6.8c0,5.7,0,11.4,0,17.2c0,1.9,0,3.9,0,5.8c-1.3,4.1-0.3,8.1,1.7,11.4
		c10,22,11,44.8-0.8,67.1c-0.8,4.2-0.8,7.6-0.8,9.9C761.9,654.3,761.9,655.5,761.9,655.5z"/>
	<path class="st2" d="M774.8,655.5h-6.7c0,0,0-1.4,0-4.1c0-1.3,0-2.9,0.1-4.8c11.4-26.9,7.4-53-0.1-79.9c0-2.1,0-4.1,0-6.2
		c0-2.1,0-4.1,0-6.2c0-2.3,0-4.7,0-7c0.4-11.7,0.4-22.3,0-33.3c0-2.1,0-4.1,0-6.1c0-23.7,0-40.6,0-40.6h6.7c0,0,0,7.5,0,19.6
		c0,3,0,6.3,0,9.8c-0.2,19.3-0.2,38.1,0,57.6c0,2.3,0,4.7,0,7c0,2,0,3.9,0,5.9c1.7,8.1,3.1,16.2,4,24.2c0.3,2.7,0.5,5.3,0.7,8
		c0.2,2.7,0.3,5.3,0.3,8c0.1,2.7,0,5.3-0.1,8c-0.4,10.6-1.9,21.2-5,32c0,1.7,0,3.2,0,4.4C774.8,654.2,774.8,655.5,774.8,655.5z"/>
	<path class="st2" d="M787.7,655.5H781c0,0,0-1.7,0-4.8c0-1.5,0-3.4,0-5.6c2-7.6,3.1-15.3,3.7-23c0.2-2.6,0.3-5.1,0.4-7.7
		c0.4-10.2-0.6-20.8-1.8-30.7c-0.3-2.5-0.7-5.1-1.1-7.6c-0.4-2.5-0.8-5-1.3-7.6c0-2.3,0-4.7,0-7c-0.4-24.9-0.4-49.4,0-74.4
		c0-3,0-5.8,0-8.2c0-7.2,0-11.4,0-11.4h6.7c0,0,0,1.9,0,5.3c0,1.7,0,3.8,0,6.2c-2.1,29.9-2.1,59.3,0,89.6c0,2.3,0,4.7,0.1,7
		c4.8,17.3,1.8,35.2,1,52.8c-0.2,2.9-0.4,5.9-0.6,8.9c-0.2,3-0.3,5.9-0.5,8.9c0,2,0,3.7,0,5.1C787.7,654,787.7,655.5,787.7,655.5z"
		/>
	<path class="st2" d="M800.5,655.5h-6.7c0,0,0-3.4,0-9.4c0-2,0-4.2,0-6.7c0.3-2.7,0.6-5.3,0.8-8c3.8-21.5-0.2-41.9-0.9-62.9
		c-0.3-2.7-0.5-5.3-0.7-8c-2.3-29.3-0.5-58.4,0.7-87.8c0-3.4,0-5.3,0-5.3h6.7c0,0,0,1.9,0,5.3c-1.8,29.3-5.3,58.5-1.3,87.8
		c0.4,2.7,0.8,5.3,1.3,8c1,21,4,41.4,0.3,62.9c-0.1,2.7-0.2,5.3-0.3,8c0,2.5,0,4.8,0,6.7C800.5,652.1,800.5,655.5,800.5,655.5z"/>
	<path class="st2" d="M813.4,655.5h-6.7c0,0,0-3.4,0-9.4c0-2,0-4.2,0-6.7c2.8-26.2,2.8-53.1-1.4-79.5c-0.4-2.8-0.7-5.7-1-8.5
		c-2.8-28.3-0.2-55.7,3.2-84.2h5c3,18.7-3,37.5-5,56.2c-0.7,10.3,2.7,19.9,4.6,29.8c0.5,2.5,0.9,5,1.1,7.5
		c4.2,27.1,5.2,53.2,0.1,80.4c0,2.9,0,5.5,0,7.6C813.4,653.2,813.4,655.5,813.4,655.5z"/>
	<path class="st2" d="M826.3,655.5h-6.7c0,0,0-1.5,0-4.3c0-1.4,0-3.1,0-5.1c4.9-28.9,5.9-56.6-0.2-85.3c-0.3-2.5-0.7-5-1.2-7.5
		c-2-9.9-5.4-19.5-4.7-29.8c2-18.7,7-37.5,6-56.2c2,0,5,0,7,0c-1.7,28.5-6.1,56.5-3,84.5c0.3,2.8,0.7,5.6,1.2,8.4
		c9.8,28.6,5.8,57.1,1.6,86c0,2,0,3.7,0,5C826.3,654,826.3,655.5,826.3,655.5z"/>
	<path class="st2" d="M839.2,655.5h-6.7c0,0,0-1.5,0-4.3c-1-13.5,4-26.6,6-39.6c2-17.1-5-34.2-7.5-51.6c-0.5-2.9-0.9-5.7-1.2-8.5
		c-3.2-28.2-0.5-55.6,3.7-84.2c0,0,4,0,6,0c-0.9,29.1-6,57.6-1.8,86.4c0.4,2.6,0.9,5.2,1.4,7.9c0.3,17.4,7.3,33.7,5.3,50.9
		c-2,13-6,25.3-5.3,38.3C839.2,653.8,839.2,655.5,839.2,655.5z"/>
	<path class="st2" d="M852.1,655.5h-6.7c0,0,0-1.7,0-4.8c-0.9-13.9,3.1-27.7,5.1-41.6c1-16.3-5-31.8-5.1-47.6
		c-0.3-2.9-0.5-5.8-0.8-8.7c-1.9-26.3-0.9-53.4,0.8-80c0-3.4,0-5.3,0-5.3h6.7c0,0,0,1.9,0,5.3c-0.6,27.2-2.6,54.9,0,81.7
		c0,2.3,0,4.7,0,7c4.4,28.9,2.4,57.4,0,85.9c0,1.7,0,3.2,0,4.4C852.1,654.2,852.1,655.5,852.1,655.5z"/>
	<path class="st2" d="M865,655.5h-6.7c0,0,0-1.4,0-4.1c0-1.3,0-2.9,0-4.8c2.2-26.9,3.2-53,0.1-79.8c0-2.1-0.1-4.2-0.1-6.2
		c0-2.1,0-4.1,0-6.2c0-2.3,0-4.7,0-7c-1.8-23.1,0.2-45.9,0-68.5c0-2.4,0-4.5,0-6.2c0-3.4,0-5.3,0-5.3h6.7c0,0,0,4.2,0,11.4
		c0,2.4,0,5.1,0,8.1c-0.4,15.3-0.4,30.8,0,46.6c0,2.2,0,4.5,0,6.8c0,5.7,0,11.4,0,17.2c0,1.9,0,3.9,0,5.8c1.6,26.1,2.6,52.1,0,78.5
		c0,4.2,0,7.6,0,9.9C865,654.3,865,655.5,865,655.5z"/>
	<path class="st2" d="M877.8,655.5h-6.7c0,0,0-1.2,0-3.5c0-2.3,0-5.6,0-9.8c0.3-23.3,0.3-47.8,0-71.5c0-1.9,0-3.8,0-5.7
		c0-15.3,0-30.7,0-44.6c0-2.1,0-4.2,0-6.3c0.3-6.1,0.3-11.8,0-17.3c0-3.5,0-6.8,0-9.8c0-12,0-19.6,0-19.6h6.7c0,0,0,56.9,0,108.1
		c0,2.3,0,4.6,0,7c1.7,17.7-0.3,35.6,0,53.4c0,3,0,5.7,0,8.1C877.8,651.3,877.8,655.5,877.8,655.5z"/>
</g>
<g id="Counter">
	<polygon class="st3" points="638.2,409.2 237.8,409.2 248.5,514.5 630.5,514.5 	"/>
	<polygon class="st4" points="241.8,447.5 429.5,429.5 636.5,429.5 636.5,411.5 240.5,411.5 	"/>
	<polygon class="st5" points="250.3,393.2 230.3,405.3 232.7,427.8 319.7,426.5 319.7,412.2 645,412.2 645,402.8 634.3,397.2 
		425,398.8 418,393.2 	"/>
</g>
<g id="Counter_Logo">
	<ellipse class="st6" cx="439.5" cy="459.5" rx="80" ry="19"/>
	<g id="Logo_3_">
		<g>
			<g>
				<path class="st7" d="M390.4,463.7c0,0-0.2,0-0.7-0.1c-0.4-0.1-0.9-0.2-1.2-0.4c-0.4-0.2-0.7-0.4-1.1-0.7l1-1.2
					c0.5,0.4,0.9,0.6,1.4,0.8s0.9,0.3,1.4,0.3c0.7,0,1.2-0.1,1.5-0.3c0.3-0.2,0.5-0.5,0.5-0.9c0-0.3-0.1-0.5-0.3-0.6
					s-0.4-0.2-0.7-0.3s-0.6-0.1-1.1-0.1c0,0-0.1,0-0.1,0s-0.1,0-0.1,0c0,0,0,0-0.1,0s0,0-0.1,0c-0.6,0-1-0.1-1.4-0.2
					c-0.4-0.1-0.7-0.3-1-0.7c-0.3-0.3-0.4-0.8-0.4-1.4s0.1-1.1,0.4-1.5c0.2-0.4,0.6-0.7,1.1-0.9c0.5-0.2,1.1-0.3,1.8-0.3
					c0.4,0,0.9,0,1.3,0.1c0.4,0.1,0.8,0.2,1.2,0.4c0.4,0.2,0.7,0.4,1.1,0.6l-1,1.2c-0.4-0.3-0.9-0.5-1.3-0.6
					c-0.4-0.1-0.8-0.2-1.2-0.2c-0.6,0-1,0.1-1.3,0.3c-0.3,0.2-0.4,0.5-0.4,0.9c0,0.2,0.1,0.4,0.2,0.5s0.4,0.2,0.6,0.2
					c0.2,0,0.6,0.1,1.1,0.1c0,0,0.1,0,0.1,0c0,0,0.1,0,0.1,0c0,0,0,0,0,0s0,0,0,0c0.6,0,1.1,0.1,1.5,0.2c0.4,0.1,0.8,0.4,1.1,0.7
					c0.3,0.4,0.4,0.9,0.4,1.5c0,0.6-0.1,1.1-0.4,1.5c-0.3,0.4-0.7,0.7-1.2,0.9c-0.5,0.2-1.2,0.3-2,0.3
					C390.7,463.7,390.4,463.7,390.4,463.7z"/>
				<path class="st7" d="M396.2,455h1.8l1.5,6.1l2.1-6.1h1.2l2.1,6.1l1.5-6.1h1.8l-2.6,8.6h-1.3l-2.1-5.9l-2.1,5.9h-1.3L396.2,455z"
					/>
				<path class="st7" d="M412.3,463.7c0,0-0.3-0.1-0.8-0.4c-0.6-0.3-1-0.7-1.3-1.3c-0.3-0.6-0.4-1.3-0.4-2.1v-1
					c0-0.8,0.1-1.6,0.4-2.2c0.3-0.6,0.7-1.1,1.2-1.4c0.5-0.3,1.2-0.5,1.9-0.5c0.7,0,1.3,0.2,1.8,0.5s0.9,0.9,1.2,1.6
					c0.3,0.7,0.4,1.5,0.4,2.4v0.6h-5.8v-1.4h4.2c0-0.7-0.2-1.2-0.5-1.6c-0.3-0.4-0.7-0.6-1.2-0.6c-0.6,0-1.1,0.2-1.5,0.6
					s-0.5,1-0.5,1.8v1.1c0,0.7,0.2,1.3,0.6,1.6c0.4,0.4,0.9,0.6,1.6,0.6c0.3,0,0.7-0.1,1-0.2c0.3-0.1,0.6-0.3,0.9-0.6l1.1,1.1
					c-0.4,0.4-0.9,0.7-1.4,0.9s-1.1,0.3-1.6,0.3C412.7,463.7,412.3,463.7,412.3,463.7z"/>
				<path class="st7" d="M421.3,463.7c0,0-0.3-0.1-0.8-0.4c-0.6-0.3-1-0.7-1.3-1.3c-0.3-0.6-0.4-1.3-0.4-2.1v-1
					c0-0.8,0.1-1.6,0.4-2.2c0.3-0.6,0.7-1.1,1.2-1.4c0.5-0.3,1.2-0.5,1.9-0.5c0.7,0,1.3,0.2,1.8,0.5s0.9,0.9,1.2,1.6
					c0.3,0.7,0.4,1.5,0.4,2.4v0.6H420v-1.4h4.2c0-0.7-0.2-1.2-0.5-1.6c-0.3-0.4-0.7-0.6-1.2-0.6c-0.6,0-1.1,0.2-1.5,0.6
					s-0.5,1-0.5,1.8v1.1c0,0.7,0.2,1.3,0.6,1.6c0.4,0.4,0.9,0.6,1.6,0.6c0.3,0,0.7-0.1,1-0.2c0.3-0.1,0.6-0.3,0.9-0.6l1.1,1.1
					c-0.4,0.4-0.9,0.7-1.4,0.9s-1.1,0.3-1.6,0.3C421.7,463.7,421.3,463.7,421.3,463.7z"/>
				<path class="st7" d="M427.4,455h3.9v1.5h-3.9V455z M428.8,463c-0.3-0.4-0.5-0.9-0.5-1.7v-8.8h1.7v8.8c0,0.2,0,0.4,0.1,0.5
					c0.1,0.1,0.2,0.2,0.4,0.2h0.8v1.6h-1C429.6,463.6,429.1,463.4,428.8,463z"/>
				<path class="st7" d="M433.3,451.6h1.7v8.9h-1.7V451.6z M433.3,461.9h1.7v1.7h-1.7V461.9z"/>
			</g>
		</g>
		<g>
			<g>
				<path class="st7" d="M439.3,461.9c0,0-0.2-0.1-0.5-0.3c-0.3-0.2-0.5-0.4-0.7-0.8c-0.2-0.3-0.2-0.7-0.2-1.1v-1.6
					c0-0.4,0.1-0.8,0.2-1.1c0.2-0.3,0.4-0.6,0.7-0.8c0.3-0.2,0.7-0.3,1.1-0.3c0.3,0,0.6,0.1,0.9,0.2c0.3,0.1,0.5,0.3,0.7,0.6
					c0.2,0.3,0.3,0.6,0.4,0.9H441c-0.1-0.2-0.1-0.3-0.3-0.5c-0.1-0.1-0.3-0.3-0.4-0.3c-0.2-0.1-0.3-0.1-0.5-0.1
					c-0.2,0-0.4,0.1-0.6,0.2c-0.2,0.1-0.3,0.3-0.4,0.5c-0.1,0.2-0.1,0.4-0.1,0.7v1.6c0,0.3,0,0.5,0.1,0.7s0.2,0.4,0.4,0.5
					c0.2,0.1,0.4,0.2,0.6,0.2c0.2,0,0.3,0,0.5-0.1c0.2-0.1,0.3-0.2,0.4-0.3c0.1-0.1,0.2-0.3,0.3-0.5h0.8c-0.1,0.3-0.2,0.6-0.4,0.9
					c-0.2,0.3-0.4,0.5-0.7,0.6c-0.3,0.1-0.6,0.2-0.9,0.2C439.5,461.9,439.3,461.9,439.3,461.9z"/>
				<path class="st7" d="M443.9,461.7c-0.3-0.2-0.5-0.4-0.7-0.7c-0.2-0.3-0.3-0.7-0.3-1.1v-1.6c0-0.4,0.1-0.8,0.3-1.1
					c0.2-0.3,0.4-0.6,0.7-0.7c0.3-0.2,0.7-0.3,1.1-0.3s0.8,0.1,1.1,0.3c0.3,0.2,0.5,0.4,0.7,0.7c0.2,0.3,0.3,0.7,0.3,1.1v1.6
					c0,0.4-0.1,0.8-0.3,1.1s-0.4,0.6-0.7,0.7c-0.3,0.2-0.7,0.3-1.1,0.3S444.2,461.8,443.9,461.7z M445.5,461
					c0.2-0.1,0.3-0.3,0.4-0.5c0.1-0.2,0.1-0.4,0.1-0.7v-1.7c0-0.3,0-0.5-0.1-0.7c-0.1-0.2-0.2-0.3-0.4-0.5c-0.2-0.1-0.4-0.2-0.6-0.2
					c-0.2,0-0.4,0.1-0.6,0.2c-0.2,0.1-0.3,0.3-0.4,0.5c-0.1,0.2-0.1,0.4-0.1,0.7v1.7c0,0.3,0,0.5,0.1,0.7c0.1,0.2,0.2,0.3,0.4,0.5
					c0.2,0.1,0.4,0.2,0.6,0.2C445.2,461.1,445.4,461.1,445.5,461z"/>
				<path class="st7" d="M448.2,456.1h0.7l2.8,4.5l-0.1,0.1v-4.6h0.8v5.8h-0.7l-2.8-4.4l0.1-0.1v4.5h-0.8V456.1z"/>
				<path class="st7" d="M453.3,456.1h0.9l1.4,4.5l1.4-4.5h0.9l-1.9,5.8h-0.8L453.3,456.1z"/>
				<path class="st7" d="M458.7,456.1h0.8v5.8h-0.8V456.1z M459.1,456.1h3.3v0.8h-3.3V456.1z M459.1,458.6h2.9v0.8h-2.9V458.6z
					 M459.1,461.1h3.3v0.8h-3.3V461.1z"/>
				<path class="st7" d="M463.5,456.1h0.7l2.8,4.5l-0.1,0.1v-4.6h0.8v5.8H467l-2.8-4.4l0.1-0.1v4.5h-0.8V456.1z"/>
				<path class="st7" d="M470,461.9h-0.8v-5.8h0.8V461.9z"/>
				<path class="st7" d="M471.4,456.1h0.8v5.8h-0.8V456.1z M471.8,456.1h3.3v0.8h-3.3V456.1z M471.8,458.6h2.9v0.8h-2.9V458.6z
					 M471.8,461.1h3.3v0.8h-3.3V461.1z"/>
				<path class="st7" d="M476.3,456.1h0.7l2.8,4.5l-0.1,0.1v-4.6h0.8v5.8h-0.7l-2.8-4.4l0.1-0.1v4.5h-0.8V456.1z"/>
				<path class="st7" d="M483.2,461.9c0,0-0.2-0.1-0.5-0.3c-0.3-0.2-0.5-0.4-0.7-0.8c-0.2-0.3-0.3-0.7-0.3-1.1v-1.6
					c0-0.4,0.1-0.8,0.3-1.1c0.2-0.3,0.4-0.6,0.7-0.8c0.3-0.2,0.7-0.3,1.1-0.3c0.3,0,0.6,0.1,0.9,0.2s0.5,0.3,0.7,0.6
					c0.2,0.3,0.3,0.6,0.4,0.9H485c-0.1-0.2-0.1-0.3-0.3-0.5s-0.3-0.3-0.4-0.3c-0.2-0.1-0.3-0.1-0.5-0.1c-0.2,0-0.4,0.1-0.6,0.2
					s-0.3,0.3-0.4,0.5c-0.1,0.2-0.1,0.4-0.1,0.7v1.6c0,0.3,0,0.5,0.1,0.7s0.2,0.4,0.4,0.5s0.4,0.2,0.6,0.2c0.2,0,0.3,0,0.5-0.1
					c0.2-0.1,0.3-0.2,0.4-0.3s0.2-0.3,0.3-0.5h0.8c-0.1,0.3-0.2,0.6-0.4,0.9s-0.4,0.5-0.7,0.6s-0.6,0.2-0.9,0.2
					C483.4,461.9,483.2,461.9,483.2,461.9z"/>
				<path class="st7" d="M487,456.1h0.8v5.8H487V456.1z M487.4,456.1h3.3v0.8h-3.3V456.1z M487.4,458.6h2.9v0.8h-2.9V458.6z
					 M487.4,461.1h3.3v0.8h-3.3V461.1z"/>
			</g>
		</g>
	</g>
</g>
<g id="Logo_2_">
	<g>
		<g>
			<g>
				<path class="st6" d="M685.4,51c0,0-0.5-0.1-1.4-0.3s-1.8-0.5-2.6-0.9s-1.6-0.9-2.3-1.6l2.1-2.6c1,0.8,2,1.3,2.9,1.7
					s1.9,0.6,2.9,0.6c1.4,0,2.5-0.2,3.2-0.7s1.1-1.1,1.1-2c0-0.6-0.2-1-0.6-1.3s-0.9-0.5-1.4-0.6s-1.4-0.2-2.4-0.3
					c-0.1,0-0.2,0-0.3,0s-0.2,0-0.3,0c0,0-0.1,0-0.1,0s-0.1,0-0.1,0c-1.2-0.1-2.2-0.3-3-0.5s-1.5-0.7-2-1.4s-0.8-1.7-0.8-3
					s0.3-2.4,0.8-3.2s1.3-1.5,2.4-1.9s2.3-0.6,3.9-0.6c0.9,0,1.9,0.1,2.7,0.3s1.7,0.4,2.5,0.8s1.5,0.8,2.3,1.3l-2.2,2.6
					c-0.9-0.6-1.8-1-2.7-1.3s-1.7-0.4-2.6-0.4c-1.2,0-2.1,0.2-2.7,0.6s-0.9,1-0.9,1.9c0,0.5,0.2,0.9,0.5,1.1s0.8,0.4,1.3,0.5
					s1.3,0.2,2.3,0.2c0.1,0,0.1,0,0.2,0s0.2,0,0.2,0c0,0,0.1,0,0.1,0s0.1,0,0.1,0c1.3,0.1,2.4,0.3,3.3,0.5s1.6,0.8,2.3,1.5
					s0.9,1.9,0.9,3.3c0,1.3-0.3,2.4-0.8,3.3s-1.4,1.5-2.5,1.9S688.7,51,687,51C685.9,51,685.4,51,685.4,51z"/>
				<path class="st6" d="M697.7,32.5h3.7l3.2,13l4.6-13h2.5l4.6,13l3.2-13h3.7l-5.6,18.2h-2.7l-4.4-12.6L706,50.8h-2.7L697.7,32.5z"
					/>
				<path class="st6" d="M732,51c0,0-0.6-0.3-1.8-0.9s-2.1-1.6-2.7-2.8s-0.9-2.7-0.9-4.4v-2.1c0-1.8,0.3-3.3,0.9-4.6
					s1.5-2.3,2.6-2.9s2.5-1,4.1-1c1.5,0,2.8,0.4,3.9,1.1s1.9,1.9,2.5,3.3s0.9,3.2,0.9,5.2v1.2h-12.3v-2.9h8.9
					c-0.1-1.5-0.5-2.6-1.2-3.5s-1.5-1.2-2.7-1.2c-1.4,0-2.4,0.4-3.2,1.3S730,39,730,40.6v2.3c0,1.5,0.4,2.7,1.2,3.5s1.9,1.2,3.4,1.2
					c0.7,0,1.4-0.1,2.2-0.4s1.4-0.7,1.9-1.2l2.4,2.4c-0.9,0.9-1.9,1.5-3,2s-2.3,0.7-3.4,0.7C732.9,51,732,51,732,51z"/>
				<path class="st6" d="M751.3,51c0,0-0.6-0.3-1.8-0.9s-2.1-1.6-2.7-2.8s-0.9-2.7-0.9-4.4v-2.1c0-1.8,0.3-3.3,0.9-4.6
					s1.5-2.3,2.6-2.9s2.5-1,4.1-1c1.5,0,2.8,0.4,3.9,1.1s1.9,1.9,2.5,3.3s0.9,3.2,0.9,5.2v1.2h-12.3v-2.9h8.9
					c-0.1-1.5-0.5-2.6-1.2-3.5s-1.5-1.2-2.7-1.2c-1.4,0-2.4,0.4-3.2,1.3s-1.1,2.2-1.1,3.8v2.3c0,1.5,0.4,2.7,1.2,3.5
					s1.9,1.2,3.4,1.2c0.7,0,1.4-0.1,2.2-0.4s1.4-0.7,1.9-1.2l2.4,2.4c-0.9,0.9-1.9,1.5-3,2S755,51,753.9,51
					C752.2,51,751.3,51,751.3,51z"/>
				<path class="st6" d="M764.3,32.5h8.2v3.2h-8.2V32.5z M767.2,49.6c-0.7-0.8-1-2-1-3.6V27.2h3.6v18.8c0,0.4,0.1,0.8,0.3,1
					s0.4,0.4,0.8,0.4h1.7v3.4h-2.1C768.9,50.9,767.9,50.4,767.2,49.6z"/>
				<path class="st6" d="M776.9,25.2h3.6v19h-3.6V25.2z M776.9,47.2h3.6v3.6h-3.6V47.2z"/>
			</g>
		</g>
		<g>
			<g>
				<path class="st6" d="M787.8,42.1c0,0-0.2-0.1-0.5-0.3c-0.3-0.2-0.6-0.5-0.8-0.9c-0.2-0.4-0.3-0.8-0.3-1.3v-1.8
					c0-0.5,0.1-0.9,0.3-1.3c0.2-0.4,0.5-0.7,0.8-0.9c0.3-0.2,0.8-0.3,1.2-0.3c0.4,0,0.7,0.1,1.1,0.2c0.3,0.2,0.6,0.4,0.8,0.7
					c0.2,0.3,0.4,0.6,0.4,1h-1c-0.1-0.2-0.2-0.4-0.3-0.6c-0.1-0.2-0.3-0.3-0.5-0.4c-0.2-0.1-0.4-0.1-0.6-0.1c-0.3,0-0.5,0.1-0.7,0.2
					s-0.4,0.3-0.5,0.6c-0.1,0.2-0.2,0.5-0.2,0.8v1.8c0,0.3,0.1,0.6,0.2,0.8c0.1,0.2,0.3,0.4,0.5,0.6c0.2,0.1,0.4,0.2,0.7,0.2
					c0.2,0,0.4,0,0.6-0.1c0.2-0.1,0.3-0.2,0.5-0.4c0.1-0.2,0.2-0.4,0.3-0.6h1c-0.1,0.4-0.2,0.7-0.4,1s-0.5,0.5-0.8,0.7
					s-0.7,0.2-1,0.2C788,42.1,787.8,42.1,787.8,42.1z"/>
				<path class="st6" d="M793.1,41.8c-0.4-0.2-0.6-0.5-0.8-0.9c-0.2-0.4-0.3-0.8-0.3-1.3v-1.9c0-0.5,0.1-0.9,0.3-1.3
					c0.2-0.4,0.5-0.7,0.8-0.9s0.8-0.3,1.2-0.3c0.5,0,0.9,0.1,1.2,0.3s0.6,0.5,0.8,0.9c0.2,0.4,0.3,0.8,0.3,1.3v1.9
					c0,0.5-0.1,0.9-0.3,1.3c-0.2,0.4-0.5,0.7-0.8,0.9c-0.4,0.2-0.8,0.3-1.2,0.3C793.8,42.1,793.4,42,793.1,41.8z M795,41
					c0.2-0.1,0.4-0.3,0.5-0.5c0.1-0.2,0.2-0.5,0.2-0.8v-1.9c0-0.3-0.1-0.6-0.2-0.8c-0.1-0.2-0.3-0.4-0.5-0.5
					c-0.2-0.1-0.5-0.2-0.7-0.2s-0.5,0.1-0.7,0.2c-0.2,0.1-0.4,0.3-0.5,0.5c-0.1,0.2-0.2,0.5-0.2,0.8v1.9c0,0.3,0.1,0.6,0.2,0.8
					s0.3,0.4,0.5,0.5c0.2,0.1,0.5,0.2,0.7,0.2S794.8,41.2,795,41z"/>
				<path class="st6" d="M798.2,35.4h0.8l3.3,5.1l-0.1,0.1v-5.3h0.9v6.6h-0.9L799,37l0.1-0.1v5.2h-0.9V35.4z"/>
				<path class="st6" d="M804,35.4h1l1.6,5.2l1.6-5.2h1l-2.2,6.6h-0.9L804,35.4z"/>
				<path class="st6" d="M810.2,35.4h0.9v6.6h-0.9V35.4z M810.7,35.4h3.8v0.9h-3.8V35.4z M810.7,38.3h3.3v0.9h-3.3V38.3z
					 M810.7,41.2h3.8v0.9h-3.8V41.2z"/>
				<path class="st6" d="M815.8,35.4h0.8l3.3,5.1l-0.1,0.1v-5.3h0.9v6.6h-0.9l-3.2-5.1l0.1-0.1v5.2h-0.9V35.4z"/>
				<path class="st6" d="M823.3,42.1h-0.9v-6.6h0.9V42.1z"/>
				<path class="st6" d="M825,35.4h0.9v6.6H825V35.4z M825.5,35.4h3.8v0.9h-3.8V35.4z M825.5,38.3h3.3v0.9h-3.3V38.3z M825.5,41.2
					h3.8v0.9h-3.8V41.2z"/>
				<path class="st6" d="M830.6,35.4h0.8l3.3,5.1l-0.1,0.1v-5.3h0.9v6.6h-0.9l-3.2-5.1l0.1-0.1v5.2h-0.9V35.4z"/>
				<path class="st6" d="M838.7,42.1c0,0-0.2-0.1-0.5-0.3c-0.3-0.2-0.6-0.5-0.8-0.9c-0.2-0.4-0.3-0.8-0.3-1.3v-1.8
					c0-0.5,0.1-0.9,0.3-1.3c0.2-0.4,0.5-0.7,0.8-0.9c0.3-0.2,0.8-0.3,1.2-0.3c0.4,0,0.7,0.1,1.1,0.2c0.3,0.2,0.6,0.4,0.8,0.7
					c0.2,0.3,0.4,0.6,0.4,1h-1c-0.1-0.2-0.2-0.4-0.3-0.6c-0.1-0.2-0.3-0.3-0.5-0.4c-0.2-0.1-0.4-0.1-0.6-0.1c-0.3,0-0.5,0.1-0.7,0.2
					s-0.4,0.3-0.5,0.6c-0.1,0.2-0.2,0.5-0.2,0.8v1.8c0,0.3,0.1,0.6,0.2,0.8c0.1,0.2,0.3,0.4,0.5,0.6c0.2,0.1,0.4,0.2,0.7,0.2
					c0.2,0,0.4,0,0.6-0.1c0.2-0.1,0.3-0.2,0.5-0.4c0.1-0.2,0.2-0.4,0.3-0.6h1c-0.1,0.4-0.2,0.7-0.4,1s-0.5,0.5-0.8,0.7
					s-0.7,0.2-1,0.2C838.9,42.1,838.7,42.1,838.7,42.1z"/>
				<path class="st6" d="M843,35.4h0.9v6.6H843V35.4z M843.4,35.4h3.8v0.9h-3.8V35.4z M843.4,38.3h3.3v0.9h-3.3V38.3z M843.4,41.2
					h3.8v0.9h-3.8V41.2z"/>
			</g>
		</g>
	</g>
</g>
<g id="Item_Div">
	<rect x="42.5" y="536.5" class="st6" width="82.7" height="82.7"/>
	<rect x="213.3" y="536.5" class="st6" width="82.7" height="82.7"/>
	<rect x="396.7" y="536.5" class="st6" width="82.7" height="82.7"/>
	<rect x="580" y="536.5" class="st6" width="82.7" height="82.7"/>
	<rect x="750.8" y="536.5" class="st6" width="82.7" height="82.7"/>
</g>
<rect id="Big_Square_x21_" x="27.4" y="18.1" class="st6" width="356.7" height="356.7"/>
<g>
	<g>
		<g>
			<path class="st6" d="M595.4,33.3h1.1l2.3,8.9l2-8.9h1.6l-2.8,11.3H598l-2.1-7.9l-2.2,7.9h-1.6l-2.8-11.3h1.6l2,8.9L595.4,33.3z"
				/>
			<path class="st6" d="M606.1,44.8c0,0-0.3-0.1-0.8-0.4c-0.5-0.3-0.9-0.7-1.2-1.2s-0.4-1.2-0.4-2v-0.9c0-0.8,0.1-1.5,0.4-2
				c0.3-0.6,0.7-1,1.2-1.3c0.5-0.3,1.1-0.4,1.8-0.4c0.7,0,1.3,0.2,1.7,0.5c0.5,0.3,0.8,0.8,1.1,1.5c0.3,0.6,0.4,1.4,0.4,2.3v0.5
				h-5.4V40h3.9c0-0.7-0.2-1.2-0.5-1.5s-0.7-0.5-1.2-0.5c-0.6,0-1.1,0.2-1.4,0.6c-0.3,0.4-0.5,1-0.5,1.7v1c0,0.7,0.2,1.2,0.5,1.5
				s0.9,0.5,1.5,0.5c0.3,0,0.6-0.1,1-0.2c0.3-0.1,0.6-0.3,0.8-0.5l1,1c-0.4,0.4-0.8,0.7-1.3,0.9c-0.5,0.2-1,0.3-1.5,0.3
				C606.4,44.8,606.1,44.8,606.1,44.8z"/>
			<path class="st6" d="M614,42.6c0,0.2,0,0.3,0.1,0.5c0.1,0.1,0.2,0.2,0.4,0.2h0.7v1.5h-0.9c-0.6,0-1.1-0.2-1.4-0.6
				c-0.3-0.4-0.5-0.9-0.5-1.6v-9.2h1.6V42.6z"/>
			<path class="st6" d="M619.2,44.8c0,0-0.3-0.1-0.8-0.4c-0.5-0.3-0.9-0.7-1.2-1.2c-0.3-0.5-0.4-1.2-0.4-1.9v-1.3
				c0-0.7,0.1-1.4,0.4-1.9c0.3-0.5,0.7-0.9,1.2-1.2c0.5-0.3,1.1-0.4,1.9-0.4c0.4,0,0.8,0.1,1.2,0.2c0.4,0.1,0.7,0.2,1,0.4
				c0.3,0.2,0.5,0.4,0.7,0.7l-1.1,1c-0.2-0.3-0.5-0.5-0.8-0.6c-0.3-0.1-0.6-0.2-1-0.2c-0.6,0-1.1,0.2-1.4,0.5
				c-0.3,0.3-0.5,0.8-0.5,1.4v1.3c0,0.6,0.2,1.1,0.5,1.5c0.3,0.3,0.8,0.5,1.4,0.5c0.3,0,0.7-0.1,1-0.2c0.3-0.2,0.6-0.4,0.8-0.6
				l1.1,1.1c-0.2,0.3-0.5,0.5-0.7,0.7c-0.3,0.2-0.6,0.3-1,0.4c-0.4,0.1-0.8,0.1-1.2,0.1C619.6,44.8,619.2,44.8,619.2,44.8z"/>
			<path class="st6" d="M626.3,44.4c-0.5-0.3-0.9-0.7-1.1-1.2s-0.4-1.2-0.4-1.9v-1.3c0-0.7,0.1-1.4,0.4-1.9c0.3-0.5,0.6-0.9,1.1-1.2
				c0.5-0.3,1.1-0.4,1.8-0.4c0.7,0,1.3,0.1,1.8,0.4c0.5,0.3,0.9,0.7,1.1,1.2c0.3,0.5,0.4,1.1,0.4,1.9v1.3c0,0.7-0.1,1.4-0.4,1.9
				s-0.6,0.9-1.1,1.2c-0.5,0.3-1.1,0.4-1.8,0.4C627.4,44.8,626.8,44.6,626.3,44.4z M629.4,42.7c0.3-0.3,0.5-0.8,0.5-1.5v-1.3
				c0-0.6-0.2-1.1-0.5-1.5c-0.3-0.3-0.7-0.5-1.3-0.5s-1,0.2-1.3,0.5c-0.3,0.3-0.5,0.8-0.5,1.5v1.3c0,0.6,0.2,1.1,0.5,1.5
				c0.3,0.3,0.7,0.5,1.3,0.5S629,43.1,629.4,42.7z"/>
			<path class="st6" d="M633.6,36.6h1.6v8.1h-1.6V36.6z M638.5,39.8c0-0.6-0.1-1-0.4-1.3c-0.3-0.3-0.7-0.5-1.2-0.5
				c-0.5,0-0.9,0.1-1.2,0.4c-0.3,0.3-0.4,0.7-0.4,1.2l-0.2-1.6c0.2-0.5,0.6-0.9,1-1.1c0.4-0.3,0.8-0.4,1.3-0.4c0.6,0,1,0.1,1.4,0.4
				c0.4,0.3,0.7,0.6,0.9,1.1c0.2,0.5,0.3,1.1,0.3,1.8v4.9h-1.6V39.8z M643.3,39.8c0-0.6-0.1-1-0.4-1.3c-0.3-0.3-0.7-0.5-1.2-0.5
				c-0.5,0-0.9,0.2-1.1,0.5s-0.4,0.7-0.4,1.3l-0.3-1.6c0.3-0.5,0.6-0.9,1-1.2s0.9-0.4,1.4-0.4c0.6,0,1.1,0.1,1.5,0.4
				c0.4,0.3,0.7,0.6,0.9,1.1c0.2,0.5,0.3,1.1,0.3,1.8v4.9h-1.6V39.8z"/>
			<path class="st6" d="M649.5,44.8c0,0-0.3-0.1-0.8-0.4c-0.5-0.3-0.9-0.7-1.2-1.2s-0.4-1.2-0.4-2v-0.9c0-0.8,0.1-1.5,0.4-2
				c0.3-0.6,0.7-1,1.2-1.3c0.5-0.3,1.1-0.4,1.8-0.4c0.7,0,1.3,0.2,1.7,0.5c0.5,0.3,0.8,0.8,1.1,1.5c0.3,0.6,0.4,1.4,0.4,2.3v0.5
				h-5.4V40h3.9c0-0.7-0.2-1.2-0.5-1.5s-0.7-0.5-1.2-0.5c-0.6,0-1.1,0.2-1.4,0.6c-0.3,0.4-0.5,1-0.5,1.7v1c0,0.7,0.2,1.2,0.5,1.5
				s0.9,0.5,1.5,0.5c0.3,0,0.6-0.1,1-0.2c0.3-0.1,0.6-0.3,0.8-0.5l1,1c-0.4,0.4-0.8,0.7-1.3,0.9c-0.5,0.2-1,0.3-1.5,0.3
				C649.8,44.8,649.5,44.8,649.5,44.8z"/>
			<path class="st6" d="M657.9,36.6h3.6V38h-3.6V36.6z M659.2,44.2c-0.3-0.4-0.5-0.9-0.5-1.6v-8.3h1.6v8.3c0,0.2,0,0.3,0.1,0.5
				c0.1,0.1,0.2,0.2,0.3,0.2h0.8v1.5h-0.9C660,44.7,659.5,44.5,659.2,44.2z"/>
			<path class="st6" d="M665,44.4c-0.5-0.3-0.9-0.7-1.1-1.2s-0.4-1.2-0.4-1.9v-1.3c0-0.7,0.1-1.4,0.4-1.9c0.3-0.5,0.6-0.9,1.1-1.2
				c0.5-0.3,1.1-0.4,1.8-0.4c0.7,0,1.3,0.1,1.8,0.4c0.5,0.3,0.9,0.7,1.1,1.2c0.3,0.5,0.4,1.1,0.4,1.9v1.3c0,0.7-0.1,1.4-0.4,1.9
				s-0.6,0.9-1.1,1.2c-0.5,0.3-1.1,0.4-1.8,0.4C666.1,44.8,665.5,44.6,665,44.4z M668.1,42.7c0.3-0.3,0.5-0.8,0.5-1.5v-1.3
				c0-0.6-0.2-1.1-0.5-1.5c-0.3-0.3-0.7-0.5-1.3-0.5s-1,0.2-1.3,0.5c-0.3,0.3-0.5,0.8-0.5,1.5v1.3c0,0.6,0.2,1.1,0.5,1.5
				c0.3,0.3,0.7,0.5,1.3,0.5S667.8,43.1,668.1,42.7z"/>
		</g>
	</g>
</g>
<g id="Surveillance_Sign">
	<rect x="695.2" y="194.8" class="st6" width="112.7" height="112.7"/>
	<g>
		<g>
			<path class="st7" d="M736.2,281.7c0,0-0.2,0-0.6-0.1s-0.7-0.2-1-0.4s-0.6-0.4-0.9-0.6l0.7-0.9c0.3,0.3,0.7,0.5,1.1,0.6
				s0.8,0.2,1.3,0.2c0.6,0,1.1-0.1,1.4-0.3s0.5-0.6,0.5-1v0c0-0.3-0.1-0.5-0.2-0.7s-0.4-0.3-0.6-0.4s-0.6-0.2-0.9-0.2c0,0,0,0,0,0
				s0,0,0,0l-0.1,0c-0.6-0.1-1-0.2-1.4-0.3s-0.7-0.3-0.9-0.7s-0.4-0.8-0.4-1.4v0c0-0.5,0.1-1,0.4-1.4s0.6-0.7,1-0.9s1-0.3,1.6-0.3
				c0.3,0,0.6,0,0.9,0.1s0.6,0.2,0.9,0.3s0.6,0.3,0.8,0.5l-0.7,0.9c-0.3-0.2-0.6-0.4-1-0.5s-0.6-0.2-1-0.2c-0.6,0-1,0.1-1.4,0.3
				s-0.5,0.6-0.5,1v0c0,0.3,0.1,0.5,0.2,0.7s0.4,0.3,0.6,0.4s0.6,0.2,1,0.2c0,0,0,0,0,0s0,0,0,0c0,0,0,0,0.1,0s0,0,0.1,0
				c0.5,0.1,0.9,0.2,1.3,0.4s0.6,0.4,0.9,0.7s0.3,0.8,0.3,1.3v0c0,0.5-0.1,1-0.4,1.3s-0.6,0.7-1.1,0.8s-1,0.3-1.7,0.3
				C736.4,281.7,736.2,281.7,736.2,281.7z"/>
			<path class="st7" d="M747.7,273.1h1.1v8.5h-1.2v-6.4l0.1,0.4l-2.1,4.8h-0.8l-2.1-4.7l0.1-0.5v6.4h-1.2v-8.5h1.1l2.5,5.6
				L747.7,273.1z"/>
			<path class="st7" d="M752.2,281.6H751v-8.5h1.2V281.6z"/>
			<path class="st7" d="M754.3,273.1h1.2v8.5h-1.2V273.1z M754.9,280.5h4.9v1.1h-4.9V280.5z"/>
			<path class="st7" d="M761.2,273.1h1.2v8.5h-1.2V273.1z M761.7,273.1h4.9v1.1h-4.9V273.1z M761.7,276.8h4.2v1.1h-4.2V276.8z
				 M761.7,280.5h4.9v1.1h-4.9V280.5z"/>
			<path class="st7" d="M768,273.1h1.2v6.3H768V273.1z M768,280.4h1.2v1.2H768V280.4z"/>
			<path class="st7" d="M708.4,292.5v3.5h-1.2v-3.5l-2.6-5.1h1.3l1.9,3.8l1.9-3.8h1.3L708.4,292.5z"/>
			<path class="st7" d="M712.7,295.8c-0.4-0.2-0.7-0.5-0.9-0.9s-0.3-0.9-0.3-1.4v-1c0-0.6,0.1-1,0.3-1.4s0.5-0.7,0.9-0.9
				s0.8-0.3,1.4-0.3s1,0.1,1.4,0.3s0.7,0.5,0.9,0.9s0.3,0.9,0.3,1.4v1c0,0.6-0.1,1-0.3,1.4s-0.5,0.7-0.9,0.9s-0.8,0.3-1.4,0.3
				S713.1,296,712.7,295.8z M715.1,294.6c0.2-0.3,0.3-0.6,0.3-1.1v-1c0-0.5-0.1-0.8-0.3-1.1s-0.6-0.4-1-0.4s-0.7,0.1-1,0.4
				s-0.3,0.6-0.3,1.1v1c0,0.5,0.1,0.8,0.3,1.1s0.6,0.4,1,0.4S714.8,294.8,715.1,294.6z"/>
			<path class="st7" d="M719.5,293.6c0,0.4,0.1,0.8,0.3,1s0.5,0.3,0.9,0.3c0.4,0,0.7-0.1,0.9-0.3s0.3-0.5,0.3-0.9l0.1,1.3
				c-0.1,0.3-0.3,0.6-0.6,0.8s-0.6,0.3-1,0.3c-0.7,0-1.2-0.2-1.6-0.6s-0.5-1-0.5-1.8v-3.7h1.2V293.6z M722,289.9h1.2v6.1H722V289.9z
				"/>
			<path class="st7" d="M724.5,287.5h1.2v1.2l-1.2,1.2V287.5z"/>
			<path class="st7" d="M727.1,289.9h1.2v6.1h-1.2V289.9z M730.1,291.1c-0.2-0.1-0.3-0.1-0.6-0.1c-0.4,0-0.7,0.1-0.9,0.3
				s-0.3,0.5-0.3,0.9l-0.1-1.2c0.2-0.4,0.4-0.6,0.7-0.8s0.6-0.3,1-0.3c0.3,0,0.5,0,0.8,0.1s0.4,0.2,0.6,0.4l-0.8,1.1
				C730.4,291.2,730.2,291.1,730.1,291.1z"/>
			<path class="st7" d="M733.9,296.1c0,0-0.2-0.1-0.6-0.3s-0.7-0.5-0.9-0.9s-0.3-0.9-0.3-1.5v-0.7c0-0.6,0.1-1.1,0.3-1.5
				s0.5-0.8,0.9-1s0.8-0.3,1.4-0.3c0.5,0,0.9,0.1,1.3,0.4s0.6,0.6,0.8,1.1s0.3,1.1,0.3,1.7v0.4h-4.1v-1h3c0-0.5-0.2-0.9-0.4-1.2
				s-0.5-0.4-0.9-0.4c-0.5,0-0.8,0.1-1.1,0.4s-0.4,0.7-0.4,1.3v0.8c0,0.5,0.1,0.9,0.4,1.2s0.6,0.4,1.1,0.4c0.2,0,0.5,0,0.7-0.1
				s0.5-0.2,0.6-0.4l0.8,0.8c-0.3,0.3-0.6,0.5-1,0.7s-0.8,0.2-1.1,0.2C734.2,296.1,733.9,296.1,733.9,296.1z"/>
			<path class="st7" d="M741.7,295.8c-0.4-0.2-0.7-0.5-0.9-0.9s-0.3-0.9-0.3-1.4v-1c0-0.6,0.1-1,0.3-1.4s0.5-0.7,0.9-0.9
				s0.8-0.3,1.4-0.3s1,0.1,1.4,0.3s0.7,0.5,0.9,0.9s0.3,0.9,0.3,1.4v1c0,0.6-0.1,1-0.3,1.4s-0.5,0.7-0.9,0.9s-0.8,0.3-1.4,0.3
				S742.1,296,741.7,295.8z M744,294.6c0.2-0.3,0.3-0.6,0.3-1.1v-1c0-0.5-0.1-0.8-0.3-1.1s-0.6-0.4-1-0.4s-0.7,0.1-1,0.4
				s-0.3,0.6-0.3,1.1v1c0,0.5,0.1,0.8,0.3,1.1s0.6,0.4,1,0.4S743.8,294.8,744,294.6z"/>
			<path class="st7" d="M747.3,289.9h1.2v6.1h-1.2V289.9z M751,292.3c0-0.4-0.1-0.8-0.3-1s-0.5-0.4-0.9-0.4c-0.4,0-0.7,0.1-0.9,0.3
				s-0.3,0.5-0.3,0.9l-0.1-1.2c0.2-0.4,0.4-0.7,0.7-0.8s0.6-0.3,1-0.3c0.7,0,1.2,0.2,1.5,0.6s0.5,1,0.5,1.8v3.7H751V292.3z"/>
			<path class="st7" d="M757.6,296.1c0,0-0.2-0.1-0.6-0.3s-0.7-0.5-0.9-0.9s-0.3-0.9-0.3-1.4v-1c0-0.6,0.1-1,0.3-1.4
				s0.5-0.7,0.9-0.9s0.9-0.3,1.4-0.3c0.3,0,0.6,0,0.9,0.1s0.5,0.2,0.8,0.3s0.4,0.3,0.6,0.5l-0.9,0.8c-0.2-0.2-0.4-0.3-0.6-0.5
				s-0.5-0.2-0.7-0.2c-0.5,0-0.8,0.1-1.1,0.4s-0.4,0.6-0.4,1.1v1c0,0.5,0.1,0.9,0.4,1.1s0.6,0.4,1.1,0.4c0.3,0,0.5-0.1,0.7-0.2
				s0.4-0.3,0.6-0.5l0.9,0.8c-0.2,0.2-0.3,0.4-0.6,0.5s-0.5,0.3-0.8,0.3s-0.6,0.1-0.9,0.1C757.9,296.1,757.6,296.1,757.6,296.1z"/>
			<path class="st7" d="M762.3,295.6c-0.4-0.3-0.6-0.8-0.6-1.4c0-0.6,0.2-1.1,0.5-1.4s0.9-0.5,1.5-0.5h1.7l0.1,1h-1.8
				c-0.3,0-0.5,0.1-0.7,0.2s-0.2,0.4-0.2,0.6c0,0.3,0.1,0.5,0.3,0.7s0.5,0.2,0.9,0.2c0.5,0,0.8,0,1-0.1s0.3-0.3,0.3-0.5l0.1,0.9
				c-0.1,0.2-0.2,0.3-0.4,0.4s-0.3,0.2-0.5,0.2s-0.4,0.1-0.7,0.1C763.2,296.1,762.6,295.9,762.3,295.6z M765.4,292.2
				c0-0.4-0.1-0.7-0.3-0.9s-0.5-0.3-0.9-0.3c-0.2,0-0.5,0-0.7,0.1s-0.4,0.2-0.6,0.3l-0.9-0.6c0.2-0.3,0.5-0.5,0.9-0.6
				s0.8-0.2,1.3-0.2c0.5,0,0.9,0.1,1.3,0.3s0.6,0.4,0.8,0.8s0.3,0.7,0.3,1.2v3.9h-1.1V292.2z"/>
			<path class="st7" d="M768.4,289.9h1.2v6.1h-1.2V289.9z M772,292.3c0-0.4-0.1-0.8-0.3-1s-0.5-0.4-0.9-0.4c-0.4,0-0.7,0.1-0.9,0.3
				s-0.3,0.5-0.3,0.9l-0.1-1.2c0.2-0.4,0.4-0.7,0.7-0.8s0.6-0.3,1-0.3c0.4,0,0.8,0.1,1.1,0.3s0.5,0.5,0.7,0.8s0.2,0.8,0.2,1.3v3.7
				H772V292.3z M775.6,292.3c0-0.4-0.1-0.8-0.3-1s-0.5-0.4-0.9-0.4c-0.4,0-0.7,0.1-0.9,0.3s-0.3,0.5-0.3,1l-0.2-1.2
				c0.2-0.4,0.4-0.7,0.8-0.9s0.7-0.3,1-0.3c0.4,0,0.8,0.1,1.1,0.3s0.5,0.5,0.7,0.8s0.2,0.8,0.2,1.3v3.7h-1.2V292.3z"/>
			<path class="st7" d="M780.3,296.1c0,0-0.2-0.1-0.6-0.3s-0.7-0.5-0.9-0.9s-0.3-0.9-0.3-1.5v-0.7c0-0.6,0.1-1.1,0.3-1.5
				s0.5-0.8,0.9-1s0.8-0.3,1.4-0.3c0.5,0,0.9,0.1,1.3,0.4s0.6,0.6,0.8,1.1s0.3,1.1,0.3,1.7v0.4h-4.1v-1h3c0-0.5-0.2-0.9-0.4-1.2
				s-0.5-0.4-0.9-0.4c-0.5,0-0.8,0.1-1.1,0.4s-0.4,0.7-0.4,1.3v0.8c0,0.5,0.1,0.9,0.4,1.2s0.6,0.4,1.1,0.4c0.2,0,0.5,0,0.7-0.1
				s0.5-0.2,0.6-0.4l0.8,0.8c-0.3,0.3-0.6,0.5-1,0.7s-0.8,0.2-1.1,0.2C780.6,296.1,780.3,296.1,780.3,296.1z"/>
			<path class="st7" d="M785.1,289.9h1.2v6.1h-1.2V289.9z M788,291.1c-0.2-0.1-0.3-0.1-0.6-0.1c-0.4,0-0.7,0.1-0.9,0.3
				s-0.3,0.5-0.3,0.9l-0.1-1.2c0.2-0.4,0.4-0.6,0.7-0.8s0.6-0.3,1-0.3c0.3,0,0.5,0,0.8,0.1s0.4,0.2,0.6,0.4l-0.8,1.1
				C788.3,291.2,788.2,291.1,788,291.1z"/>
			<path class="st7" d="M790.5,295.6c-0.4-0.3-0.6-0.8-0.6-1.4c0-0.6,0.2-1.1,0.5-1.4s0.9-0.5,1.5-0.5h1.7l0.1,1H792
				c-0.3,0-0.5,0.1-0.7,0.2s-0.2,0.4-0.2,0.6c0,0.3,0.1,0.5,0.3,0.7s0.5,0.2,0.9,0.2c0.5,0,0.8,0,1-0.1s0.3-0.3,0.3-0.5l0.1,0.9
				c-0.1,0.2-0.2,0.3-0.4,0.4s-0.3,0.2-0.5,0.2s-0.4,0.1-0.7,0.1C791.4,296.1,790.8,295.9,790.5,295.6z M793.6,292.2
				c0-0.4-0.1-0.7-0.3-0.9s-0.5-0.3-0.9-0.3c-0.2,0-0.5,0-0.7,0.1s-0.4,0.2-0.6,0.3l-0.9-0.6c0.2-0.3,0.5-0.5,0.9-0.6
				s0.8-0.2,1.3-0.2c0.5,0,0.9,0.1,1.3,0.3s0.6,0.4,0.8,0.8s0.3,0.7,0.3,1.2v3.9h-1.1V292.2z"/>
			<path class="st7" d="M796.4,287.5h1.2v6.3h-1.2V287.5z M796.4,294.8h1.2v1.2h-1.2V294.8z"/>
		</g>
	</g>
	<path id="Smile_1_" class="st8" d="M751.5,207.4c-15.8,0-28.6,12.8-28.6,28.6s12.8,28.6,28.6,28.6s28.6-12.8,28.6-28.6
		S767.3,207.4,751.5,207.4z M751.5,259.1c-12.7,0-23.1-10.3-23.1-23.1s10.3-23.1,23.1-23.1s23.1,10.3,23.1,23.1
		S764.2,259.1,751.5,259.1z M742.3,234.2c2,0,3.7-1.6,3.7-3.7c0-2-1.6-3.7-3.7-3.7c-2,0-3.7,1.6-3.7,3.7
		C738.6,232.6,740.2,234.2,742.3,234.2z M760.7,234.2c2,0,3.7-1.6,3.7-3.7c0-2-1.6-3.7-3.7-3.7c-2,0-3.7,1.6-3.7,3.7
		C757,232.6,758.7,234.2,760.7,234.2z M761.2,242.6c-2.4,2.9-5.9,4.5-9.7,4.5s-7.3-1.6-9.7-4.5c-1-1.2-2.7-1.3-3.9-0.4
		c-1.2,1-1.3,2.7-0.4,3.9c3.5,4.2,8.5,6.5,13.9,6.5s10.5-2.4,13.9-6.5c1-1.2,0.8-2.9-0.4-3.9C763.9,241.3,762.2,241.4,761.2,242.6z"
		/>
</g>
<g id="Window_1_">
	<path id="Window" class="st9" d="M501.5,276.5L501.5,276.5c-34.8,0-63-28.2-63-63v-36c0-34.8,28.2-63,63-63h0c34.8,0,63,28.2,63,63
		v36C564.5,248.3,536.3,276.5,501.5,276.5z"/>
	<g id="TREE">
		<rect x="465.4" y="229.5" class="st2" width="6.8" height="40.5"/>
		<polygon class="st10" points="468.8,213.6 453,240.8 484.5,240.8 		"/>
		<polygon class="st10" points="468.8,202.5 455.7,225.1 481.8,225.1 		"/>
		<polygon class="st10" points="468.8,198 463.5,207.1 474,207.1 		"/>
	</g>
	<g id="TREE_1_">
		<rect x="475.9" y="232.2" class="st2" width="6.8" height="40.5"/>
		<polygon class="st10" points="479.2,216.3 463.5,243.6 495,243.6 		"/>
		<polygon class="st10" points="479.2,205.2 466.2,227.9 492.3,227.9 		"/>
		<polygon class="st10" points="479.2,200.7 474,209.9 484.5,209.9 		"/>
	</g>
	<g id="TREE_2_">
		<rect x="487.2" y="238" class="st2" width="6.8" height="40.5"/>
		<polygon class="st10" points="490.6,222.1 474.9,249.4 506.3,249.4 		"/>
		<polygon class="st10" points="490.6,211 477.5,233.6 503.7,233.6 		"/>
		<polygon class="st10" points="490.6,206.5 485.3,215.6 495.9,215.6 		"/>
	</g>
	<g id="TREE_3_">
		<rect x="498.5" y="236.3" class="st2" width="6.8" height="40.5"/>
		<polygon class="st10" points="501.9,220.4 486.2,247.6 517.6,247.6 		"/>
		<polygon class="st10" points="501.9,209.3 488.8,231.9 515,231.9 		"/>
		<polygon class="st10" points="501.9,204.8 496.6,213.9 507.2,213.9 		"/>
	</g>
	<polygon id="Building" class="st11" points="558,189 531,189 531,270 558,243 	"/>
	<polygon id="Building_1_" class="st11" points="550.4,195.6 523.4,195.6 523.4,276.6 550.4,249.6 	"/>
	<path id="Window_2_" class="st12" d="M501.5,276.5L501.5,276.5c-34.8,0-63-28.2-63-63v-36c0-34.8,28.2-63,63-63h0
		c34.8,0,63,28.2,63,63v36C564.5,248.3,536.3,276.5,501.5,276.5z"/>
	<path class="st7" d="M521.7,158.1c0.4-1,0.6-2.1,0.6-3.2c0-4.9-4-8.9-8.9-8.9c-1.8,0-3.5,0.6-4.9,1.5c-2.6-4.4-7.3-7.4-12.8-7.4
		c-8.2,0-14.8,6.6-14.8,14.8c0,0.2,0,0.5,0,0.7c-5.2,1.8-8.9,6.8-8.9,12.6c0,7.4,6,13.3,13.3,13.3h34.1c6.5,0,11.8-5.3,11.8-11.8
		C531.2,164,527.1,159.2,521.7,158.1z"/>
	<path class="st13" d="M534,161.3c0.3-0.9,0.5-1.8,0.5-2.8c0-4.2-3.4-7.7-7.7-7.7c-1.6,0-3,0.5-4.3,1.3c-2.2-3.8-6.3-6.4-11.1-6.4
		c-7.1,0-12.8,5.7-12.8,12.8c0,0.2,0,0.4,0,0.6c-4.5,1.6-7.7,5.8-7.7,10.9c0,6.4,5.2,11.5,11.5,11.5H532c5.6,0,10.2-4.6,10.2-10.2
		C542.2,166.4,538.7,162.2,534,161.3z"/>
</g>
<g id="Add_To_Cart_2_">
	<path class="st14" d="M151.4,321.6H61.3c-5.5,0-10-4.5-10-10v0c0-5.5,4.5-10,10-10h90.1c5.5,0,10,4.5,10,10v0
		C161.4,317.1,156.9,321.6,151.4,321.6z"/>
	<g>
		<g>
			<path class="st7" d="M78.3,307.2h1l3.2,8.5H81l-2.2-6.3l-2.2,6.3h-1.5L78.3,307.2z M76.6,312.8h4.5v1.3h-4.5V312.8z"/>
			<path class="st7" d="M83.7,307.2h1.4v8.5h-1.4V307.2z M84.5,314.4h2c0.6,0,1-0.1,1.3-0.4s0.5-0.7,0.5-1.2v-2.5
				c0-0.5-0.2-0.9-0.5-1.2s-0.8-0.4-1.3-0.4h-2v-1.3h2c0.7,0,1.3,0.1,1.8,0.4s0.9,0.6,1.1,1s0.4,1,0.4,1.7v2.4
				c0,0.6-0.1,1.2-0.4,1.6s-0.6,0.8-1.1,1.1s-1.1,0.4-1.8,0.4h-1.9V314.4z"/>
			<path class="st7" d="M91.5,307.2h1.4v8.5h-1.4V307.2z M92.3,314.4h2c0.6,0,1-0.1,1.3-0.4s0.5-0.7,0.5-1.2v-2.5
				c0-0.5-0.2-0.9-0.5-1.2s-0.8-0.4-1.3-0.4h-2v-1.3h2c0.7,0,1.3,0.1,1.8,0.4s0.9,0.6,1.1,1s0.4,1,0.4,1.7v2.4
				c0,0.6-0.1,1.2-0.4,1.6s-0.6,0.8-1.1,1.1s-1.1,0.4-1.8,0.4h-1.9V314.4z"/>
			<path class="st7" d="M100.3,307.2h6.1v1.3h-6.1V307.2z M102.7,307.9h1.4v7.8h-1.4V307.9z"/>
			<path class="st7" d="M108.5,315.4c-0.5-0.3-0.8-0.6-1.1-1.1s-0.4-1-0.4-1.6v-2.4c0-0.6,0.1-1.2,0.4-1.6s0.6-0.8,1.1-1.1
				s1-0.4,1.6-0.4s1.1,0.1,1.6,0.4s0.8,0.6,1.1,1.1s0.4,1,0.4,1.6v2.4c0,0.6-0.1,1.2-0.4,1.6s-0.6,0.8-1.1,1.1s-1,0.4-1.6,0.4
				S109,315.7,108.5,315.4z M111,314.2c0.2-0.1,0.4-0.3,0.6-0.6s0.2-0.6,0.2-0.9v-2.5c0-0.3-0.1-0.6-0.2-0.9s-0.3-0.5-0.6-0.6
				s-0.5-0.2-0.8-0.2s-0.6,0.1-0.8,0.2s-0.4,0.3-0.6,0.6s-0.2,0.6-0.2,0.9v2.5c0,0.3,0.1,0.6,0.2,0.9s0.3,0.5,0.6,0.6
				s0.5,0.2,0.8,0.2S110.7,314.4,111,314.2z"/>
			<path class="st7" d="M119,315.8c0,0-0.2-0.1-0.7-0.4s-0.8-0.6-1-1.1s-0.4-1-0.4-1.7v-2.3c0-0.7,0.1-1.2,0.4-1.7s0.6-0.8,1-1.1
				s1-0.4,1.6-0.4c0.5,0,1,0.1,1.4,0.3s0.8,0.5,1,0.9s0.5,0.9,0.6,1.5h-1.4c-0.1-0.3-0.2-0.5-0.3-0.7s-0.3-0.4-0.5-0.5
				s-0.4-0.2-0.7-0.2c-0.3,0-0.6,0.1-0.8,0.2s-0.4,0.4-0.5,0.6s-0.2,0.6-0.2,1v2.3c0,0.4,0.1,0.7,0.2,1s0.3,0.5,0.5,0.6
				s0.5,0.2,0.8,0.2c0.2,0,0.5-0.1,0.7-0.2s0.4-0.3,0.5-0.5s0.3-0.4,0.3-0.7h1.4c-0.1,0.6-0.3,1-0.6,1.5s-0.6,0.7-1,0.9
				s-0.9,0.3-1.4,0.3C119.3,315.8,119,315.8,119,315.8z"/>
			<path class="st7" d="M126.8,307.2h1l3.2,8.5h-1.5l-2.2-6.3l-2.2,6.3h-1.5L126.8,307.2z M125.1,312.8h4.5v1.3h-4.5V312.8z"/>
			<path class="st7" d="M132.2,307.2h1.4v8.5h-1.4V307.2z M132.8,310.9h2.9c0.2,0,0.4,0,0.5-0.1s0.3-0.2,0.3-0.4s0.1-0.4,0.1-0.6
				c0-0.2,0-0.4-0.1-0.6s-0.2-0.3-0.3-0.4s-0.3-0.1-0.5-0.1h-2.9v-1.3h3c0.5,0,0.9,0.1,1.3,0.3s0.6,0.5,0.8,0.9s0.3,0.8,0.3,1.3
				c0,0.5-0.1,0.9-0.3,1.3s-0.5,0.7-0.8,0.9s-0.8,0.3-1.3,0.3h-3V310.9z M134.9,311.9l1.5-0.3l2.2,4h-1.7L134.9,311.9z"/>
			<path class="st7" d="M138.9,307.2h6.1v1.3h-6.1V307.2z M141.2,307.9h1.4v7.8h-1.4V307.9z"/>
		</g>
	</g>
</g>
<g id="Share_2_">
	<path class="st14" d="M151.4,349H61.3c-5.5,0-10-4.5-10-10v0c0-5.5,4.5-10,10-10h90.1c5.5,0,10,4.5,10,10v0
		C161.4,344.5,156.9,349,151.4,349z"/>
	<g>
		<g>
			<path class="st7" d="M89.7,343.2c0,0-0.2,0-0.6-0.1s-0.7-0.2-1.1-0.4s-0.6-0.3-0.9-0.6l0.7-1.1c0.3,0.3,0.7,0.5,1.1,0.6
				s0.8,0.2,1.3,0.2c0.6,0,1-0.1,1.3-0.3s0.5-0.5,0.5-0.9v0c0-0.3-0.1-0.5-0.2-0.6s-0.3-0.3-0.6-0.3s-0.5-0.1-0.9-0.2c0,0,0,0,0,0
				s0,0,0,0l-0.1,0c-0.6-0.1-1-0.2-1.4-0.3s-0.7-0.4-0.9-0.7s-0.4-0.8-0.4-1.4v0c0-0.5,0.1-1,0.4-1.4s0.6-0.7,1.1-0.9s1-0.3,1.7-0.3
				c0.3,0,0.6,0,0.9,0.1s0.6,0.2,0.9,0.3s0.6,0.3,0.9,0.5l-0.7,1.2c-0.3-0.2-0.7-0.4-1-0.5s-0.7-0.2-1-0.2c-0.5,0-1,0.1-1.3,0.3
				s-0.4,0.5-0.4,0.8v0c0,0.3,0.1,0.5,0.2,0.6s0.3,0.3,0.6,0.3s0.5,0.1,1,0.2c0,0,0,0,0,0s0,0,0,0c0,0,0,0,0.1,0s0,0,0.1,0
				c0.5,0.1,1,0.2,1.3,0.4s0.6,0.4,0.9,0.7s0.4,0.8,0.4,1.3v0c0,0.5-0.1,1-0.4,1.4s-0.6,0.7-1.1,0.9s-1.1,0.3-1.7,0.3
				C89.9,343.2,89.7,343.2,89.7,343.2z"/>
			<path class="st7" d="M95.1,334.5h1.4v8.5h-1.4V334.5z M95.8,338.2h4.8v1.3h-4.8V338.2z M99.8,334.5h1.4v8.5h-1.4V334.5z"/>
			<path class="st7" d="M105.6,334.5h1l3.2,8.5h-1.5l-2.2-6.3l-2.2,6.3h-1.5L105.6,334.5z M103.9,340.1h4.5v1.3h-4.5V340.1z"/>
			<path class="st7" d="M111,334.5h1.4v8.5H111V334.5z M111.6,338.2h2.9c0.2,0,0.4,0,0.5-0.1s0.3-0.2,0.3-0.4s0.1-0.4,0.1-0.6
				c0-0.2,0-0.4-0.1-0.6s-0.2-0.3-0.3-0.4s-0.3-0.1-0.5-0.1h-2.9v-1.3h3c0.5,0,0.9,0.1,1.3,0.3s0.6,0.5,0.8,0.9s0.3,0.8,0.3,1.3
				c0,0.5-0.1,0.9-0.3,1.3s-0.5,0.7-0.8,0.9s-0.8,0.3-1.3,0.3h-3V338.2z M113.6,339.3l1.5-0.3l2.2,4h-1.7L113.6,339.3z"/>
			<path class="st7" d="M118.8,334.5h1.4v8.5h-1.4V334.5z M119.4,334.5h5v1.3h-5V334.5z M119.4,338.2h4.4v1.3h-4.4V338.2z
				 M119.4,341.7h5v1.3h-5V341.7z"/>
		</g>
	</g>
</g>
<g id="Quantity">
	<path id="QUantity_Div" class="st15" d="M365.3,333.7h-9.7c-2.5,0-4.5-2-4.5-4.5v-13.3c0-2.5,2-4.5,4.5-4.5h9.7
		c2.5,0,4.5,2,4.5,4.5v13.3C369.8,331.7,367.7,333.7,365.3,333.7z"/>
	<g>
		<g>
			<path class="st7" d="M295.4,326.8c-0.5-0.3-0.8-0.6-1.1-1.1s-0.4-1-0.4-1.6v-2.4c0-0.6,0.1-1.2,0.4-1.6s0.6-0.8,1.1-1.1
				s1-0.4,1.6-0.4s1.1,0.1,1.6,0.4s0.8,0.6,1.1,1.1s0.4,1,0.4,1.6v2.4c0,0.6-0.1,1.2-0.4,1.6s-0.6,0.8-1.1,1.1s-1,0.4-1.6,0.4
				S295.9,327,295.4,326.8z M297.8,325.6c0.2-0.1,0.4-0.3,0.6-0.6s0.2-0.6,0.2-0.9v-2.5c0-0.3-0.1-0.6-0.2-0.9s-0.3-0.5-0.6-0.6
				s-0.5-0.2-0.8-0.2s-0.6,0.1-0.8,0.2s-0.4,0.3-0.6,0.6s-0.2,0.6-0.2,0.9v2.5c0,0.3,0.1,0.6,0.2,0.9s0.3,0.5,0.6,0.6
				s0.5,0.2,0.8,0.2S297.6,325.7,297.8,325.6z M296.9,324.7l0.7-0.9l3.2,2.5l-0.7,0.9L296.9,324.7z"/>
			<path class="st7" d="M303.3,326.8c-0.5-0.2-0.8-0.6-1-1.1s-0.4-1-0.4-1.7v-5.4h1.4v5.5c0,0.6,0.1,1,0.4,1.3s0.7,0.5,1.2,0.5
				c0.5,0,0.9-0.2,1.2-0.5s0.4-0.7,0.4-1.3v-5.5h1.4v5.4c0,0.7-0.1,1.2-0.4,1.7s-0.6,0.8-1,1.1s-1,0.4-1.7,0.4
				C304.3,327.2,303.7,327,303.3,326.8z"/>
			<path class="st7" d="M312.2,318.5h1l3.2,8.5H315l-2.2-6.3l-2.2,6.3H309L312.2,318.5z M310.5,324.1h4.5v1.3h-4.5V324.1z"/>
			<path class="st7" d="M317.6,318.5h1.5l3.7,6.6l-0.1,0.2v-6.7h1.4v8.5h-1.5l-3.7-6.5l0.1-0.2v6.6h-1.4V318.5z"/>
			<path class="st7" d="M324.9,318.5h6.1v1.3h-6.1V318.5z M327.2,319.2h1.4v7.8h-1.4V319.2z"/>
			<path class="st7" d="M333.2,327.1h-1.4v-8.5h1.4V327.1z"/>
			<path class="st7" d="M333.9,318.5h6.1v1.3h-6.1V318.5z M336.3,319.2h1.4v7.8h-1.4V319.2z"/>
			<path class="st7" d="M343.6,323.7v3.4h-1.4v-3.4l-2.6-5.1h1.5l1.7,3.8l1.7-3.8h1.5L343.6,323.7z"/>
		</g>
	</g>
	<path class="st16" d="M169.9,201.6H96.3c-24.8,0-44.9-20.1-44.9-44.9V83c0-24.8,20.1-44.9,44.9-44.9h73.7
		c24.8,0,44.9,20.1,44.9,44.9v73.7C214.9,181.5,194.7,201.6,169.9,201.6z"/>
	<rect x="242.9" y="38.1" class="st17" width="132.7" height="253.3"/>
	<g>
		<rect x="51.1" y="273" class="st18" width="167.8" height="1.7"/>
	</g>
</g>
</svg>
