<?xml version="1.0" encoding="utf-8"?>
<!-- Generator: Adobe Illustrator 23.0.2, SVG Export Plug-In . SVG Version: 6.00 Build 0)  -->
<svg version="1.1" id="Layer_1" xmlns="http://www.w3.org/2000/svg" xmlns:xlink="http://www.w3.org/1999/xlink" x="0px" y="0px"
	 viewBox="0 0 876 656" style="enable-background:new 0 0 876 656;" xml:space="preserve">
<style type="text/css">
	.st0{fill:none;stroke:#FFFFFF;stroke-miterlimit:10;}
	.st1{fill:none;stroke:#000000;stroke-miterlimit:10;}
	.st2{font-family:'MyriadPro-Regular';}
	.st3{font-size:12px;}
</style>
<rect x="0.5" y="0.5" class="st0" width="875" height="655"/>
<line class="st1" x1="76.8" y1="-26.8" x2="76.8" y2="659.8"/>
<text transform="matrix(1 0 0 1 700.8333 41.8333)" class="st2 st3">welcome to the candy shop</text>
<text transform="matrix(1 0 0 1 189.5 539.833)" class="st2 st3">candy bar</text>
<text transform="matrix(1 0 0 1 297.5 539.833)" class="st2 st3">candy bar</text>
<text transform="matrix(1 0 0 1 405.5 539.833)" class="st2 st3">candy bar</text>
<text transform="matrix(1 0 0 1 513.5 539.833)" class="st2 st3">candy bar</text>
<text transform="matrix(1 0 0 1 621.5 539.833)" class="st2 st3">candy bar</text>
<text transform="matrix(1 0 0 1 729.5 539.833)" class="st2 st3">candy bar</text>
<rect x="105.5" y="25.2" class="st1" width="394" height="394"/>
<text transform="matrix(1 0 0 1 195.5 167.833)" class="st2 st3">big display of candy bar</text>
<text transform="matrix(1 0 0 1 543.5 209.167)" class="st2 st3">price</text>
<text transform="matrix(1 0 0 1 543.5 226.5003)" class="st2 st3">calories</text>
<text transform="matrix(1 0 0 1 543.5 242.0559)" class="st2 st3">score out of 5</text>
<text transform="matrix(1 0 0 1 543.5 194.9448)" class="st2 st3">name</text>
</svg>
